2,1536, Note_on_c,0,36,100
2,1538, Note_on_c,0,48,97
2,1730, Control_c,0,64,127
2,3832, Note_on_c,0,51,74
2,3840, Note_on_c,0,39,63
2,3946, Note_off_c,0,48,64
2,3994, Note_off_c,0,36,64
2,4016, Control_c,0,64,0
2,4238, Control_c,0,64,127
2,4244, Note_on_c,0,56,76
2,4256, Note_on_c,0,44,63
2,4330, Note_off_c,0,51,64
2,4410, Control_c,0,64,0
2,4528, Note_off_c,0,39,64
2,4576, Note_on_c,0,58,70
2,4580, Note_on_c,0,46,60
2,4608, Control_c,0,64,127
2,4660, Note_off_c,0,56,64
2,4688, Note_off_c,0,44,64
2,4704, Control_c,0,64,0
2,4852, Control_c,0,64,127
2,4872, Note_on_c,0,60,79
2,4878, Note_on_c,0,48,59
2,4904, Note_off_c,0,46,64
2,4924, Note_off_c,0,58,64
2,4952, Control_c,0,64,0
2,5088, Control_c,0,64,127
2,5136, Note_on_c,0,44,62
2,5142, Note_on_c,0,56,76
2,5168, Note_off_c,0,60,64
2,5172, Control_c,0,64,0
2,5210, Note_off_c,0,48,64
2,5332, Control_c,0,64,127
2,5388, Note_off_c,0,56,64
2,5396, Note_on_c,0,63,84
2,5406, Control_c,0,64,0
2,5414, Note_on_c,0,51,66
2,5478, Note_off_c,0,44,64
2,5566, Control_c,0,64,127
2,5640, Note_on_c,0,70,78
2,5648, Note_on_c,0,58,58
2,5676, Note_off_c,0,51,64
2,5692, Note_off_c,0,63,64
2,5898, Note_on_c,0,72,86
2,5912, Note_on_c,0,60,72
2,5920, Note_off_c,0,58,64
2,5936, Control_c,0,64,0
2,5954, Note_off_c,0,70,64
2,6130, Control_c,0,64,127
2,6146, Note_on_c,0,68,79
2,6152, Note_on_c,0,56,61
2,6178, Note_off_c,0,72,64
2,6180, Note_off_c,0,60,64
2,6422, Note_on_c,0,75,73
2,6430, Note_on_c,0,63,57
2,6450, Note_off_c,0,68,64
2,6464, Control_c,0,64,0
2,6550, Note_off_c,0,56,64
2,6672, Control_c,0,64,127
2,6688, Note_on_c,0,82,72
2,6704, Note_on_c,0,70,52
2,6764, Note_off_c,0,75,64
2,6768, Note_off_c,0,63,64
2,6992, Note_off_c,0,70,64
2,7004, Note_on_c,0,84,76
2,7016, Note_on_c,0,72,51
2,7028, Control_c,0,64,0
2,7100, Note_off_c,0,82,64
2,7274, Control_c,0,64,127
2,7360, Note_on_c,0,67,53
2,7360, Note_on_c,0,79,81
2,7414, Note_off_c,0,72,64
2,7464, Note_off_c,0,84,64
2,7656, Note_on_c,0,82,60
2,7672, Note_on_c,0,70,42
2,7692, Control_c,0,64,0
2,7702, Note_off_c,0,67,64
2,7724, Note_off_c,0,79,64
2,7944, Note_on_c,0,80,56
2,7956, Note_on_c,0,68,34
2,7994, Note_off_c,0,70,64
2,8076, Note_off_c,0,82,64
2,8344, Note_on_c,0,79,50
2,8350, Note_on_c,0,67,31
2,8376, Note_off_c,0,68,64
2,8454, Note_off_c,0,80,64
2,8984, Control_c,0,64,127
2,9318, Note_on_c,0,78,28
2,9336, Note_off_c,0,67,64
2,9336, Note_on_c,0,66,13
2,9434, Note_off_c,0,79,64
2,9462, Control_c,0,64,0
2,9818, Control_c,0,64,127
2,9888, Note_off_c,0,78,64
2,10120, Note_off_c,0,66,64
2,10630, Control_c,0,64,0
2,10712, Note_on_c,0,78,31
2,10720, Note_on_c,0,66,16
2,11060, Control_c,0,64,127
2,11128, Note_on_c,0,79,70
2,11136, Note_on_c,0,67,45
2,11140, Note_off_c,0,66,64
2,11182, Note_off_c,0,78,64
2,11256, Control_c,0,64,0
2,11418, Note_on_c,0,78,74
2,11430, Note_on_c,0,66,40
2,11456, Note_off_c,0,67,64
2,11466, Control_c,0,64,127
2,11504, Note_off_c,0,79,64
2,11552, Control_c,0,64,0
2,11692, Note_on_c,0,77,83
2,11692, Note_on_c,0,65,67
2,11738, Note_off_c,0,78,64
2,11740, Note_off_c,0,66,64
2,11748, Control_c,0,64,127
2,11822, Control_c,0,64,0
2,11966, Note_on_c,0,78,80
2,11978, Note_on_c,0,66,52
2,12010, Note_off_c,0,65,64
2,12018, Control_c,0,64,127
2,12020, Note_off_c,0,77,64
2,12092, Control_c,0,64,0
2,12302, Control_c,0,64,127
2,12328, Note_on_c,0,81,65
2,12338, Note_on_c,0,69,32
2,12340, Note_off_c,0,66,64
2,12376, Note_off_c,0,78,64
2,12400, Control_c,0,64,0
2,12598, Control_c,0,64,127
2,12624, Note_on_c,0,79,72
2,12632, Note_on_c,0,67,34
2,12636, Note_off_c,0,69,64
2,12728, Note_off_c,0,81,64
2,12792, Control_c,0,64,0
2,12848, Note_on_c,0,75,65
2,12850, Note_on_c,0,63,56
2,12876, Note_off_c,0,67,64
2,12892, Note_off_c,0,79,64
2,13016, Control_c,0,64,127
2,13050, Note_off_c,0,63,64
2,13058, Note_off_c,0,75,64
2,13174, Note_on_c,0,75,54
2,13192, Note_on_c,0,63,36
2,13872, Note_off_c,0,63,64
2,13916, Note_on_c,0,74,50
2,13936, Note_on_c,0,62,20
2,13938, Note_off_c,0,75,64
2,14112, Note_off_c,0,62,64
2,14116, Note_on_c,0,77,54
2,14128, Note_off_c,0,74,64
2,14134, Control_c,0,64,0
2,14136, Note_on_c,0,65,28
2,14368, Control_c,0,64,127
2,14422, Note_on_c,0,63,37
2,14428, Note_on_c,0,75,43
2,14438, Note_off_c,0,65,64
2,14476, Note_off_c,0,77,64
2,14624, Control_c,0,64,0
2,14768, Note_on_c,0,74,48
2,14790, Note_on_c,0,62,34
2,14792, Note_off_c,0,75,64
2,14816, Note_off_c,0,63,64
2,15066, Note_off_c,0,62,64
2,15066, Control_c,0,64,127
2,15074, Note_off_c,0,74,64
2,15334, Note_on_c,0,74,29
2,15350, Note_on_c,0,62,15
2,15808, Note_off_c,0,62,64
2,16140, Note_off_c,0,74,64
2,16714, Control_c,0,64,0
2,17784, Note_on_c,0,72,61
2,17794, Note_on_c,0,60,29
2,17814, Note_on_c,0,55,25
2,17828, Note_on_c,0,51,24
2,18190, Control_c,0,64,127
2,18966, Note_on_c,0,67,60
2,19004, Note_off_c,0,55,64
2,19112, Note_off_c,0,60,64
2,19126, Note_off_c,0,72,64
2,19160, Note_on_c,0,50,34
2,19168, Note_off_c,0,51,64
2,19312, Note_on_c,0,55,43
2,19546, Note_on_c,0,70,58
2,19604, Note_on_c,0,63,51
2,19656, Note_off_c,0,67,64
2,19776, Control_c,0,64,0
2,20182, Control_c,0,64,127
2,22056, Note_on_c,0,38,31
2,22420, Note_off_c,0,50,64
2,22500, Note_off_c,0,55,64
2,22576, Note_on_c,0,60,34
2,22628, Note_off_c,0,63,64
2,22664, Control_c,0,64,0
2,22886, Control_c,0,64,127
2,22914, Note_on_c,0,62,48
2,22960, Control_c,0,64,0
2,22978, Note_off_c,0,70,64
2,23168, Control_c,0,64,127
2,23192, Note_on_c,0,66,34
2,23394, Note_off_c,0,66,64
2,23420, Note_on_c,0,70,31
2,23426, Control_c,0,64,0
2,23548, Control_c,0,64,127
2,23580, Note_off_c,0,38,64
2,23598, Note_off_c,0,70,64
2,23620, Note_off_c,0,62,64
2,23656, Note_on_c,0,69,31
2,23702, Note_off_c,0,60,64
2,24016, Note_on_c,0,67,37
2,24078, Control_c,0,64,0
2,24100, Note_off_c,0,69,64
2,24446, Note_on_c,0,58,12
2,24452, Note_on_c,0,62,27
2,24454, Note_on_c,0,43,20
2,24568, Control_c,0,64,127
2,24608, Note_off_c,0,43,64
2,24612, Note_off_c,0,62,64
2,24628, Note_off_c,0,58,64
2,24834, Note_on_c,0,62,30
2,24836, Note_on_c,0,58,13
2,24840, Note_on_c,0,43,15
2,24882, Note_off_c,0,67,64
2,24902, Note_off_c,0,62,64
2,24904, Note_off_c,0,43,64
2,24904, Note_off_c,0,58,64
2,25176, Note_on_c,0,74,64
2,25296, Control_c,0,64,0
2,25528, Note_on_c,0,67,28
2,25530, Note_on_c,0,58,19
2,25530, Note_on_c,0,62,19
2,25688, Note_off_c,0,67,64
2,25700, Note_off_c,0,62,64
2,25700, Note_off_c,0,58,64
2,25700, Control_c,0,64,127
2,25880, Note_on_c,0,62,25
2,25884, Note_on_c,0,58,16
2,25894, Note_on_c,0,67,22
2,25982, Note_off_c,0,67,64
2,25990, Note_off_c,0,58,64
2,26000, Note_off_c,0,62,64
2,26224, Note_off_c,0,74,64
2,26228, Note_on_c,0,72,38
2,26252, Control_c,0,64,0
2,26598, Control_c,0,64,127
2,26674, Note_on_c,0,63,15
2,26674, Note_on_c,0,57,10
2,26676, Note_on_c,0,67,17
2,26682, Note_on_c,0,60,10
2,26808, Note_off_c,0,57,64
2,26816, Note_off_c,0,63,64
2,26820, Note_off_c,0,60,64
2,26830, Note_off_c,0,67,64
2,27138, Note_on_c,0,57,10
2,27140, Note_on_c,0,60,6
2,27154, Note_on_c,0,67,6
2,27156, Note_on_c,0,63,5
2,27220, Note_off_c,0,57,64
2,27256, Note_off_c,0,60,64
2,27278, Note_off_c,0,63,64
2,27340, Note_off_c,0,67,64
2,27384, Note_off_c,0,72,64
2,27792, Note_on_c,0,60,40
2,28050, Note_on_c,0,62,46
2,28072, Note_on_c,0,38,26
2,28170, Control_c,0,64,0
2,28242, Note_on_c,0,66,51
2,28310, Note_off_c,0,38,64
2,28330, Control_c,0,64,127
2,28440, Note_on_c,0,70,49
2,28446, Note_off_c,0,66,64
2,28480, Note_on_c,0,38,14
2,28568, Note_off_c,0,38,64
2,28584, Note_off_c,0,70,64
2,28630, Note_off_c,0,62,64
2,28630, Note_on_c,0,69,53
2,28680, Note_off_c,0,60,64
2,28850, Note_on_c,0,67,57
2,28874, Note_off_c,0,69,64
2,28884, Control_c,0,64,0
2,29186, Note_on_c,0,58,20
2,29186, Note_on_c,0,43,31
2,29192, Note_on_c,0,62,33
2,29314, Control_c,0,64,127
2,29344, Note_off_c,0,62,64
2,29348, Note_off_c,0,43,64
2,29356, Note_off_c,0,58,64
2,29528, Note_on_c,0,58,27
2,29536, Note_on_c,0,43,30
2,29548, Note_on_c,0,62,41
2,29624, Note_off_c,0,43,64
2,29640, Note_off_c,0,62,64
2,29666, Note_off_c,0,58,64
2,29870, Note_on_c,0,64,73
2,29892, Control_c,0,64,0
2,29978, Note_off_c,0,67,64
2,30192, Note_on_c,0,45,29
2,30196, Note_on_c,0,61,41
2,30202, Note_on_c,0,57,26
2,30206, Note_on_c,0,55,37
2,30352, Note_off_c,0,55,64
2,30360, Note_off_c,0,57,64
2,30362, Note_off_c,0,61,64
2,30370, Control_c,0,64,127
2,30380, Note_off_c,0,45,64
2,30572, Note_on_c,0,61,38
2,30574, Note_on_c,0,45,28
2,30590, Note_on_c,0,57,16
2,30592, Note_on_c,0,55,23
2,30682, Note_off_c,0,55,64
2,30692, Note_off_c,0,57,64
2,30698, Note_off_c,0,45,64
2,30824, Note_off_c,0,61,64
2,30908, Note_off_c,0,64,64
2,30932, Note_on_c,0,66,43
2,31048, Control_c,0,64,0
2,31366, Note_on_c,0,54,41
2,31380, Note_on_c,0,62,32
2,31384, Note_on_c,0,57,23
2,31390, Note_on_c,0,38,23
2,31464, Control_c,0,64,127
2,31536, Note_off_c,0,38,64
2,31546, Note_off_c,0,54,64
2,31560, Note_off_c,0,57,64
2,31562, Note_off_c,0,62,64
2,31848, Note_on_c,0,62,24
2,31858, Note_on_c,0,57,20
2,31860, Note_on_c,0,38,7
2,31896, Note_on_c,0,54,9
2,31968, Note_off_c,0,38,64
2,31984, Note_off_c,0,54,64
2,32022, Note_off_c,0,57,64
2,32102, Note_off_c,0,62,64
2,32554, Note_on_c,0,60,44
2,32672, Note_off_c,0,66,64
2,32784, Note_on_c,0,62,60
2,32806, Control_c,0,64,0
2,32808, Note_on_c,0,50,30
2,32952, Control_c,0,64,127
2,32960, Note_on_c,0,66,61
2,32996, Note_off_c,0,50,64
2,33106, Note_off_c,0,66,64
2,33132, Note_on_c,0,70,55
2,33168, Note_on_c,0,50,38
2,33234, Note_off_c,0,62,64
2,33260, Note_off_c,0,50,64
2,33266, Note_off_c,0,70,64
2,33316, Note_on_c,0,69,60
2,33332, Note_off_c,0,60,64
2,33560, Note_on_c,0,67,59
2,33616, Note_off_c,0,69,64
2,33690, Control_c,0,64,0
2,33928, Note_on_c,0,62,36
2,33930, Note_on_c,0,58,24
2,33944, Note_on_c,0,43,28
2,34034, Control_c,0,64,127
2,34064, Note_off_c,0,62,64
2,34080, Note_off_c,0,58,64
2,34092, Note_off_c,0,43,64
2,34266, Note_on_c,0,58,39
2,34276, Note_on_c,0,62,51
2,34280, Note_on_c,0,43,32
2,34320, Note_off_c,0,58,64
2,34322, Note_off_c,0,67,64
2,34336, Note_off_c,0,62,64
2,34340, Note_off_c,0,43,64
2,34648, Control_c,0,64,0
2,34648, Note_on_c,0,79,85
2,35012, Note_on_c,0,73,30
2,35026, Note_on_c,0,64,34
2,35026, Note_on_c,0,70,15
2,35032, Note_on_c,0,67,28
2,35042, Control_c,0,64,127
2,35124, Note_off_c,0,67,64
2,35144, Note_off_c,0,70,64
2,35144, Note_off_c,0,64,64
2,35160, Note_off_c,0,73,64
2,35364, Note_on_c,0,73,28
2,35368, Note_on_c,0,70,25
2,35376, Note_on_c,0,67,19
2,35378, Note_on_c,0,64,25
2,35440, Note_off_c,0,64,64
2,35448, Note_off_c,0,67,64
2,35448, Note_off_c,0,70,64
2,35504, Note_off_c,0,73,64
2,35728, Note_on_c,0,77,52
2,35768, Control_c,0,64,0
2,35796, Note_off_c,0,79,64
2,36100, Control_c,0,64,127
2,36120, Note_on_c,0,70,20
2,36126, Note_on_c,0,72,14
2,36140, Note_on_c,0,65,11
2,36262, Note_off_c,0,65,64
2,36262, Note_off_c,0,70,64
2,36288, Note_off_c,0,72,64
2,36546, Note_on_c,0,70,15
2,36566, Note_on_c,0,72,15
2,36574, Note_on_c,0,65,4
2,36628, Note_off_c,0,77,64
2,36640, Note_off_c,0,72,64
2,36640, Note_off_c,0,70,64
2,36672, Note_off_c,0,65,64
2,37006, Note_on_c,0,63,44
2,37296, Note_on_c,0,65,52
2,37340, Control_c,0,64,0
2,37472, Note_on_c,0,41,26
2,37476, Control_c,0,64,127
2,37520, Note_off_c,0,65,64
2,37536, Note_on_c,0,69,44
2,37570, Note_off_c,0,63,64
2,37616, Note_off_c,0,41,64
2,37666, Note_off_c,0,69,64
2,37714, Note_on_c,0,75,55
2,37874, Note_on_c,0,41,38
2,37904, Note_off_c,0,75,64
2,37922, Note_on_c,0,74,76
2,37930, Note_off_c,0,41,64
2,38016, Note_off_c,0,74,64
2,38268, Note_on_c,0,73,73
2,38356, Note_off_c,0,73,64
2,38446, Note_on_c,0,73,58
2,38508, Control_c,0,64,0
2,38812, Note_on_c,0,46,22
2,38818, Note_on_c,0,69,25
2,38820, Note_on_c,0,63,33
2,38832, Note_on_c,0,65,17
2,38902, Control_c,0,64,127
2,38944, Note_off_c,0,65,64
2,38948, Note_off_c,0,63,64
2,38968, Note_off_c,0,46,64
2,38996, Note_off_c,0,69,64
2,39170, Note_on_c,0,63,34
2,39172, Note_on_c,0,69,44
2,39176, Note_on_c,0,46,25
2,39230, Note_off_c,0,63,64
2,39248, Note_off_c,0,46,64
2,39308, Note_off_c,0,69,64
2,39412, Note_off_c,0,73,64
2,39512, Note_on_c,0,74,68
2,39576, Control_c,0,64,0
2,39840, Note_on_c,0,70,35
2,39842, Note_on_c,0,58,28
2,39854, Note_on_c,0,65,15
2,39860, Note_on_c,0,62,24
2,39946, Control_c,0,64,127
2,39986, Note_off_c,0,62,64
2,39990, Note_off_c,0,58,64
2,39994, Note_off_c,0,65,64
2,40016, Note_off_c,0,70,64
2,40232, Note_on_c,0,70,30
2,40244, Note_on_c,0,58,12
2,40252, Note_on_c,0,62,21
2,40262, Note_on_c,0,65,10
2,40324, Note_off_c,0,65,64
2,40324, Note_off_c,0,62,64
2,40328, Note_off_c,0,58,64
2,40424, Note_off_c,0,70,64
2,40686, Note_on_c,0,72,41
2,40694, Note_off_c,0,74,64
2,40758, Control_c,0,64,0
2,41040, Control_c,0,64,127
2,41170, Note_on_c,0,63,18
2,41186, Note_on_c,0,67,18
2,41188, Note_on_c,0,57,15
2,41304, Note_off_c,0,57,64
2,41332, Note_off_c,0,63,64
2,41342, Note_off_c,0,67,64
2,41650, Note_on_c,0,63,11
2,41664, Note_on_c,0,67,18
2,41680, Note_on_c,0,57,5
2,41808, Note_off_c,0,57,64
2,41824, Note_off_c,0,63,64
2,41854, Note_off_c,0,67,64
2,41918, Note_off_c,0,72,64
2,42444, Note_on_c,0,60,51
2,42756, Note_on_c,0,62,47
2,42816, Note_on_c,0,38,21
2,42884, Control_c,0,64,0
2,42988, Note_on_c,0,66,45
2,43028, Note_off_c,0,38,64
2,43032, Control_c,0,64,127
2,43176, Note_off_c,0,66,64
2,43196, Note_on_c,0,70,45
2,43264, Note_on_c,0,38,29
2,43316, Note_off_c,0,70,64
2,43354, Note_off_c,0,38,64
2,43380, Note_off_c,0,62,64
2,43408, Note_on_c,0,69,43
2,43468, Note_off_c,0,60,64
2,43608, Note_off_c,0,69,64
2,43622, Note_on_c,0,67,44
2,43744, Control_c,0,64,0
2,43990, Note_on_c,0,58,21
2,43998, Note_on_c,0,62,33
2,44000, Note_on_c,0,43,26
2,44076, Control_c,0,64,127
2,44124, Note_off_c,0,43,64
2,44128, Note_off_c,0,58,64
2,44136, Note_off_c,0,62,64
2,44336, Note_on_c,0,58,25
2,44346, Note_on_c,0,62,37
2,44370, Note_on_c,0,43,10
2,44398, Note_off_c,0,58,64
2,44398, Note_off_c,0,67,64
2,44414, Note_off_c,0,62,64
2,44426, Note_off_c,0,43,64
2,44688, Note_on_c,0,74,74
2,44926, Control_c,0,64,0
2,45042, Note_on_c,0,67,34
2,45048, Note_on_c,0,58,21
2,45048, Note_on_c,0,62,30
2,45192, Note_off_c,0,67,64
2,45200, Note_off_c,0,62,64
2,45216, Note_off_c,0,58,64
2,45232, Control_c,0,64,127
2,45408, Note_on_c,0,58,16
2,45416, Note_on_c,0,62,32
2,45428, Note_on_c,0,67,25
2,45510, Note_off_c,0,62,64
2,45516, Note_off_c,0,67,64
2,45520, Note_off_c,0,58,64
2,45820, Note_on_c,0,72,44
2,45832, Note_off_c,0,74,64
2,45958, Control_c,0,64,0
2,46228, Control_c,0,64,127
2,46252, Note_on_c,0,63,17
2,46258, Note_on_c,0,67,18
2,46260, Note_on_c,0,57,8
2,46270, Note_on_c,0,60,20
2,46396, Note_off_c,0,57,64
2,46408, Note_off_c,0,63,64
2,46416, Note_off_c,0,60,64
2,46416, Note_off_c,0,67,64
2,46708, Note_on_c,0,57,7
2,46714, Note_on_c,0,63,19
2,46718, Note_on_c,0,67,11
2,46728, Note_on_c,0,60,4
2,46840, Note_off_c,0,57,64
2,46850, Note_off_c,0,60,64
2,46880, Note_off_c,0,63,64
2,46920, Note_off_c,0,67,64
2,46924, Note_off_c,0,72,64
2,47334, Note_on_c,0,60,36
2,47588, Note_on_c,0,62,38
2,47616, Note_on_c,0,38,13
2,47640, Control_c,0,64,0
2,47770, Note_on_c,0,66,39
2,47776, Control_c,0,64,127
2,47786, Note_off_c,0,38,64
2,47936, Note_off_c,0,66,64
2,47978, Note_on_c,0,70,43
2,48018, Note_on_c,0,38,26
2,48080, Note_off_c,0,38,64
2,48094, Note_off_c,0,62,64
2,48104, Note_off_c,0,70,64
2,48186, Note_on_c,0,69,41
2,48228, Note_off_c,0,60,64
2,48314, Note_off_c,0,69,64
2,48456, Note_on_c,0,67,38
2,48600, Control_c,0,64,0
2,48824, Note_on_c,0,43,22
2,48832, Note_on_c,0,58,19
2,48844, Note_on_c,0,62,27
2,48944, Control_c,0,64,127
2,48966, Note_off_c,0,62,64
2,48974, Note_off_c,0,58,64
2,48984, Note_off_c,0,43,64
2,49204, Note_on_c,0,58,15
2,49208, Note_on_c,0,43,18
2,49210, Note_on_c,0,62,30
2,49282, Note_off_c,0,62,64
2,49288, Note_off_c,0,43,64
2,49300, Note_off_c,0,58,64
2,49552, Note_on_c,0,64,52
2,49608, Control_c,0,64,0
2,49632, Note_off_c,0,67,64
2,49888, Note_on_c,0,61,28
2,49896, Note_on_c,0,57,16
2,49904, Note_on_c,0,55,28
2,49908, Note_on_c,0,45,17
2,50014, Control_c,0,64,127
2,50036, Note_off_c,0,55,64
2,50042, Note_off_c,0,45,64
2,50044, Note_off_c,0,57,64
2,50060, Note_off_c,0,61,64
2,50272, Note_on_c,0,45,19
2,50280, Note_on_c,0,61,29
2,50292, Note_on_c,0,57,14
2,50298, Note_on_c,0,55,20
2,50368, Note_off_c,0,55,64
2,50376, Note_off_c,0,57,64
2,50402, Note_off_c,0,45,64
2,50464, Note_off_c,0,61,64
2,50516, Note_off_c,0,64,64
2,50738, Note_on_c,0,66,29
2,50838, Control_c,0,64,0
2,51182, Control_c,0,64,127
2,51220, Note_on_c,0,57,11
2,51224, Note_on_c,0,62,21
2,51234, Note_on_c,0,54,7
2,51244, Note_on_c,0,38,15
2,51354, Note_off_c,0,38,64
2,51388, Note_off_c,0,54,64
2,51390, Note_off_c,0,62,64
2,51394, Note_off_c,0,57,64
2,51690, Note_on_c,0,54,22
2,51702, Note_on_c,0,38,6
2,51704, Note_on_c,0,62,16
2,51710, Note_on_c,0,57,5
2,51808, Note_off_c,0,54,64
2,51832, Note_off_c,0,57,64
2,51838, Note_off_c,0,38,64
2,51888, Note_off_c,0,62,64
2,52042, Note_off_c,0,66,64
2,52352, Note_on_c,0,60,33
2,52584, Note_on_c,0,62,47
2,52624, Note_on_c,0,50,16
2,52770, Note_off_c,0,50,64
2,52776, Note_on_c,0,66,52
2,52886, Note_off_c,0,62,64
2,52928, Note_off_c,0,66,64
2,52954, Note_on_c,0,70,46
2,52978, Note_on_c,0,50,26
2,53062, Note_off_c,0,50,64
2,53084, Note_off_c,0,70,64
2,53152, Note_on_c,0,69,43
2,53176, Note_off_c,0,60,64
2,53460, Note_on_c,0,67,38
2,53510, Note_off_c,0,69,64
2,53554, Control_c,0,64,0
2,53926, Note_on_c,0,65,19
2,53926, Note_on_c,0,55,22
2,53928, Note_on_c,0,62,24
2,53932, Note_on_c,0,59,19
2,53996, Control_c,0,64,127
2,54082, Note_off_c,0,59,64
2,54082, Note_off_c,0,55,64
2,54112, Note_off_c,0,65,64
2,54114, Note_off_c,0,62,64
2,54306, Note_on_c,0,65,33
2,54308, Note_on_c,0,59,31
2,54314, Note_on_c,0,62,21
2,54352, Note_off_c,0,59,64
2,54376, Note_off_c,0,62,64
2,54386, Note_off_c,0,65,64
2,54420, Note_off_c,0,67,64
2,54640, Note_on_c,0,79,82
2,54984, Note_on_c,0,43,20
2,54998, Note_on_c,0,71,27
2,55002, Note_on_c,0,65,15
2,55004, Note_on_c,0,67,18
2,55004, Note_on_c,0,74,27
2,55110, Note_off_c,0,65,64
2,55130, Note_off_c,0,67,64
2,55130, Note_off_c,0,71,64
2,55132, Note_off_c,0,43,64
2,55144, Note_off_c,0,74,64
2,55414, Note_on_c,0,43,22
2,55416, Note_on_c,0,67,18
2,55422, Note_on_c,0,71,31
2,55424, Note_on_c,0,65,21
2,55430, Note_on_c,0,74,36
2,55488, Note_off_c,0,65,64
2,55526, Note_off_c,0,67,64
2,55530, Note_off_c,0,43,64
2,55554, Note_off_c,0,79,64
2,55592, Note_off_c,0,71,64
2,55630, Note_off_c,0,74,64
2,55750, Note_on_c,0,79,93
2,56062, Control_c,0,64,0
2,56086, Note_on_c,0,75,35
2,56092, Note_on_c,0,36,45
2,56092, Note_on_c,0,48,45
2,56092, Note_on_c,0,67,26
2,56106, Note_on_c,0,72,20
2,56268, Note_off_c,0,72,64
2,56268, Note_off_c,0,36,64
2,56282, Note_off_c,0,75,64
2,56286, Note_off_c,0,67,64
2,56320, Control_c,0,64,127
2,56424, Note_off_c,0,48,64
2,56466, Note_on_c,0,67,30
2,56480, Note_on_c,0,75,27
2,56490, Note_on_c,0,55,47
2,56512, Note_on_c,0,72,16
2,56562, Note_off_c,0,67,64
2,56584, Note_off_c,0,72,64
2,56600, Note_off_c,0,55,64
2,56652, Note_off_c,0,75,64
2,56864, Note_on_c,0,74,74
2,56868, Note_off_c,0,79,64
2,57156, Control_c,0,64,0
2,57202, Note_on_c,0,50,58
2,57212, Note_on_c,0,38,33
2,57222, Note_on_c,0,62,14
2,57224, Note_on_c,0,67,24
2,57320, Note_off_c,0,67,64
2,57334, Note_off_c,0,62,64
2,57342, Note_off_c,0,38,64
2,57390, Control_c,0,64,127
2,57482, Note_off_c,0,50,64
2,57516, Note_on_c,0,62,39
2,57540, Note_on_c,0,67,27
2,57542, Note_on_c,0,55,57
2,57606, Note_off_c,0,55,64
2,57608, Note_off_c,0,62,64
2,57658, Note_off_c,0,67,64
2,57802, Note_on_c,0,72,73
2,57824, Note_off_c,0,74,64
2,58090, Control_c,0,64,0
2,58124, Note_on_c,0,60,20
2,58126, Note_on_c,0,67,26
2,58138, Note_on_c,0,51,60
2,58150, Note_on_c,0,39,40
2,58272, Note_off_c,0,60,64
2,58276, Note_off_c,0,39,64
2,58290, Note_off_c,0,67,64
2,58298, Control_c,0,64,127
2,58360, Note_off_c,0,51,64
2,58456, Note_on_c,0,60,36
2,58472, Note_on_c,0,67,24
2,58494, Note_on_c,0,55,44
2,58524, Note_off_c,0,60,64
2,58544, Note_off_c,0,67,64
2,58556, Note_off_c,0,55,64
2,58784, Note_on_c,0,67,54
2,58788, Note_off_c,0,72,64
2,59060, Control_c,0,64,0
2,59102, Note_on_c,0,58,17
2,59104, Note_on_c,0,62,32
2,59110, Note_on_c,0,50,42
2,59112, Note_on_c,0,38,26
2,59236, Note_off_c,0,38,64
2,59270, Note_off_c,0,62,64
2,59270, Note_off_c,0,58,64
2,59296, Control_c,0,64,127
2,59376, Note_off_c,0,50,64
2,59474, Note_on_c,0,58,24
2,59486, Note_on_c,0,55,41
2,59496, Note_on_c,0,62,28
2,59530, Note_off_c,0,58,64
2,59532, Note_off_c,0,55,64
2,59536, Note_off_c,0,67,64
2,59552, Note_off_c,0,62,64
2,59904, Note_on_c,0,79,79
2,59914, Note_on_c,0,47,50
2,59984, Control_c,0,64,0
2,60104, Note_on_c,0,48,35
2,60168, Control_c,0,64,127
2,60228, Note_off_c,0,48,64
2,60232, Note_off_c,0,47,64
2,60232, Note_on_c,0,50,63
2,60264, Note_on_c,0,67,29
2,60276, Note_on_c,0,72,25
2,60284, Note_on_c,0,75,21
2,60338, Note_off_c,0,72,64
2,60340, Note_off_c,0,67,64
2,60346, Note_off_c,0,75,64
2,60360, Note_off_c,0,50,64
2,60378, Note_on_c,0,48,64
2,60518, Note_on_c,0,75,41
2,60522, Note_on_c,0,67,40
2,60524, Control_c,0,64,0
2,60530, Note_on_c,0,55,67
2,60548, Note_on_c,0,72,33
2,60576, Note_off_c,0,48,64
2,60628, Note_off_c,0,67,64
2,60636, Note_off_c,0,72,64
2,60658, Control_c,0,64,127
2,60722, Note_off_c,0,75,64
2,60836, Note_off_c,0,55,64
2,60870, Note_on_c,0,74,89
2,60880, Note_on_c,0,49,53
2,60888, Note_off_c,0,79,64
2,61032, Note_on_c,0,50,64
2,61048, Note_off_c,0,49,64
2,61158, Note_off_c,0,50,64
2,61158, Note_on_c,0,51,70
2,61172, Note_on_c,0,67,36
2,61234, Note_off_c,0,67,64
2,61284, Note_off_c,0,51,64
2,61284, Note_on_c,0,50,75
2,61420, Note_on_c,0,62,54
2,61420, Control_c,0,64,0
2,61430, Note_on_c,0,67,57
2,61440, Note_on_c,0,55,72
2,61496, Note_off_c,0,50,64
2,61558, Note_off_c,0,62,64
2,61606, Control_c,0,64,127
2,61610, Note_off_c,0,67,64
2,61710, Note_on_c,0,72,83
2,61720, Note_on_c,0,50,68
2,61732, Note_off_c,0,55,64
2,61760, Note_off_c,0,74,64
2,61866, Note_on_c,0,51,70
2,61928, Note_off_c,0,50,64
2,61992, Note_on_c,0,60,46
2,61996, Note_on_c,0,67,43
2,62000, Note_on_c,0,53,97
2,62026, Note_off_c,0,51,64
2,62054, Note_off_c,0,67,64
2,62078, Note_off_c,0,60,64
2,62136, Note_on_c,0,51,69
2,62148, Note_off_c,0,53,64
2,62242, Note_on_c,0,60,54
2,62256, Control_c,0,64,0
2,62262, Note_on_c,0,67,50
2,62268, Note_on_c,0,55,79
2,62314, Note_off_c,0,51,64
2,62352, Note_off_c,0,60,64
2,62392, Note_off_c,0,67,64
2,62404, Control_c,0,64,127
2,62498, Note_on_c,0,67,89
2,62528, Note_off_c,0,55,64
2,62528, Note_on_c,0,51,55
2,62552, Note_off_c,0,72,64
2,62634, Note_off_c,0,51,64
2,62642, Note_on_c,0,52,70
2,62692, Note_off_c,0,52,64
2,62724, Note_on_c,0,53,84
2,62760, Note_off_c,0,53,64
2,62794, Note_on_c,0,52,73
2,62798, Note_on_c,0,61,54
2,62800, Note_on_c,0,58,41
2,62834, Control_c,0,64,0
2,62840, Note_off_c,0,52,64
2,62862, Note_on_c,0,53,80
2,62904, Note_off_c,0,53,64
2,62916, Note_off_c,0,58,64
2,62920, Note_on_c,0,52,71
2,62924, Note_off_c,0,61,64
2,62958, Control_c,0,64,127
2,62968, Note_off_c,0,52,64
2,62974, Note_on_c,0,53,81
2,63040, Note_off_c,0,53,64
2,63046, Note_on_c,0,52,57
2,63068, Control_c,0,64,0
2,63078, Note_on_c,0,61,53
2,63088, Note_on_c,0,58,32
2,63094, Note_off_c,0,52,64
2,63108, Note_on_c,0,53,82
2,63160, Note_off_c,0,53,64
2,63166, Note_on_c,0,52,61
2,63204, Control_c,0,64,127
2,63262, Note_on_c,0,51,60
2,63264, Note_off_c,0,52,64
2,63344, Note_on_c,0,52,47
2,63374, Note_off_c,0,51,64
2,63444, Note_off_c,0,61,64
2,63448, Note_off_c,0,52,64
2,63452, Note_on_c,0,65,69
2,63476, Note_off_c,0,58,64
2,63484, Note_on_c,0,53,89
2,63512, Control_c,0,64,0
2,63588, Note_off_c,0,67,64
2,63812, Note_on_c,0,62,53
2,63824, Note_on_c,0,58,28
2,63830, Note_off_c,0,53,64
2,63866, Control_c,0,64,127
2,63940, Note_off_c,0,58,64
2,63940, Note_off_c,0,62,64
2,64106, Note_on_c,0,58,40
2,64116, Note_on_c,0,62,57
2,64170, Note_off_c,0,58,64
2,64194, Note_off_c,0,65,64
2,64218, Note_off_c,0,62,64
2,64508, Note_on_c,0,74,88
2,64904, Note_on_c,0,70,33
2,64918, Note_on_c,0,62,34
2,64920, Note_on_c,0,65,16
2,64928, Note_on_c,0,40,65
2,64942, Note_on_c,0,52,16
2,65018, Note_off_c,0,52,64
2,65026, Note_off_c,0,62,64
2,65058, Note_off_c,0,65,64
2,65076, Note_off_c,0,70,64
2,65112, Note_off_c,0,40,64
2,65236, Note_on_c,0,70,42
2,65238, Note_on_c,0,41,73
2,65244, Note_on_c,0,53,64
2,65244, Note_on_c,0,62,45
2,65248, Note_on_c,0,65,23
2,65296, Note_off_c,0,62,64
2,65304, Note_off_c,0,65,64
2,65356, Note_off_c,0,70,64
2,65380, Note_off_c,0,53,64
2,65414, Note_off_c,0,41,64
2,65532, Note_on_c,0,54,86
2,65534, Note_on_c,0,42,78
2,65534, Note_on_c,0,63,57
2,65546, Note_on_c,0,69,47
2,65564, Control_c,0,64,0
2,65696, Note_off_c,0,74,64
2,65700, Note_off_c,0,63,64
2,65720, Note_off_c,0,69,64
2,65736, Control_c,0,64,127
2,65792, Note_on_c,0,74,78
2,65820, Note_on_c,0,72,84
2,65822, Control_c,0,64,0
2,65824, Note_on_c,0,69,28
2,65838, Note_on_c,0,63,33
2,65880, Note_off_c,0,74,64
2,65964, Note_off_c,0,63,64
2,65996, Note_off_c,0,69,64
2,66006, Control_c,0,64,127
2,66114, Note_on_c,0,71,94
2,66122, Note_on_c,0,63,64
2,66126, Note_on_c,0,69,44
2,66156, Note_off_c,0,72,64
2,66194, Note_off_c,0,63,64
2,66288, Control_c,0,64,0
2,66330, Note_off_c,0,69,64
2,66386, Control_c,0,64,127
2,66440, Note_on_c,0,72,86
2,66440, Note_on_c,0,63,59
2,66448, Note_on_c,0,69,55
2,66512, Note_off_c,0,71,64
2,66560, Note_off_c,0,69,64
2,66560, Note_off_c,0,63,64
2,66590, Note_off_c,0,54,64
2,66624, Note_off_c,0,42,64
2,66694, Note_on_c,0,74,95
2,66704, Note_on_c,0,53,85
2,66706, Note_on_c,0,41,68
2,66708, Note_on_c,0,63,52
2,66728, Note_off_c,0,72,64
2,66768, Control_c,0,64,0
2,66856, Note_off_c,0,53,64
2,66860, Note_off_c,0,63,64
2,66874, Note_off_c,0,41,64
2,66876, Control_c,0,64,127
2,66888, Note_off_c,0,74,64
2,66970, Note_on_c,0,75,84
2,66972, Note_on_c,0,54,64
2,66982, Note_on_c,0,42,55
2,66986, Note_on_c,0,69,47
2,66988, Note_on_c,0,63,53
2,67064, Control_c,0,64,0
2,67174, Control_c,0,64,127
2,67192, Note_off_c,0,75,64
2,67256, Note_off_c,0,42,64
2,67262, Note_off_c,0,54,64
2,67306, Note_on_c,0,75,80
2,67312, Note_on_c,0,55,58
2,67320, Note_on_c,0,43,49
2,67382, Control_c,0,64,0
2,67392, Note_off_c,0,63,64
2,67410, Note_off_c,0,69,64
2,67596, Note_on_c,0,63,53
2,67602, Note_on_c,0,70,36
2,67664, Control_c,0,64,127
2,67760, Note_off_c,0,63,64
2,67768, Note_off_c,0,70,64
2,67944, Note_on_c,0,63,52
2,67950, Note_on_c,0,70,38
2,68116, Note_off_c,0,70,64
2,68136, Note_off_c,0,75,64
2,68156, Note_off_c,0,63,64
2,68310, Note_on_c,0,74,64
2,68320, Note_on_c,0,70,35
2,68324, Note_on_c,0,62,29
2,68328, Control_c,0,64,0
2,68530, Note_off_c,0,62,64
2,68532, Note_off_c,0,70,64
2,68550, Control_c,0,64,127
2,68650, Note_on_c,0,70,38
2,68672, Note_on_c,0,62,31
2,68752, Note_off_c,0,62,64
2,68776, Note_off_c,0,70,64
2,68896, Note_off_c,0,55,64
2,68936, Note_on_c,0,70,33
2,68938, Note_on_c,0,62,34
2,68956, Note_off_c,0,43,64
2,69068, Note_off_c,0,74,64
2,69108, Note_off_c,0,62,64
2,69302, Note_on_c,0,38,48
2,69304, Note_on_c,0,60,17
2,69312, Note_on_c,0,66,26
2,69326, Note_on_c,0,50,33
2,69340, Note_off_c,0,70,64
2,69424, Note_off_c,0,60,64
2,69432, Note_off_c,0,66,64
2,69558, Note_on_c,0,70,49
2,69598, Note_on_c,0,69,58
2,69600, Note_on_c,0,60,53
2,69614, Note_on_c,0,66,34
2,69620, Control_c,0,64,0
2,69636, Note_off_c,0,70,64
2,69744, Note_off_c,0,60,64
2,69776, Note_off_c,0,66,64
2,69780, Control_c,0,64,127
2,69874, Note_on_c,0,68,75
2,69888, Note_on_c,0,60,38
2,69898, Note_on_c,0,66,37
2,69920, Note_off_c,0,69,64
2,70044, Note_off_c,0,66,64
2,70046, Note_off_c,0,60,64
2,70192, Note_on_c,0,69,70
2,70206, Note_on_c,0,60,44
2,70206, Note_on_c,0,66,36
2,70222, Control_c,0,64,0
2,70266, Note_off_c,0,68,64
2,70394, Control_c,0,64,127
2,70416, Note_off_c,0,66,64
2,70416, Note_off_c,0,60,64
2,70510, Note_on_c,0,70,66
2,70534, Note_on_c,0,60,28
2,70542, Note_on_c,0,66,36
2,70560, Note_off_c,0,69,64
2,70652, Control_c,0,64,0
2,70738, Note_off_c,0,60,64
2,70762, Control_c,0,64,127
2,70770, Note_off_c,0,66,64
2,70864, Note_on_c,0,72,68
2,70880, Note_on_c,0,60,35
2,70882, Note_on_c,0,66,23
2,70898, Control_c,0,64,0
2,70928, Note_off_c,0,70,64
2,71038, Note_off_c,0,50,64
2,71040, Note_off_c,0,38,64
2,71046, Control_c,0,64,127
2,71108, Note_off_c,0,72,64
2,71170, Note_on_c,0,51,67
2,71182, Note_on_c,0,39,56
2,71208, Note_on_c,0,72,68
2,71280, Control_c,0,64,0
2,71318, Note_off_c,0,66,64
2,71324, Note_off_c,0,60,64
2,71512, Note_on_c,0,60,41
2,71512, Note_on_c,0,67,50
2,71550, Control_c,0,64,127
2,71678, Note_off_c,0,60,64
2,71680, Note_off_c,0,67,64
2,71874, Note_on_c,0,67,36
2,71884, Note_on_c,0,60,32
2,71976, Note_off_c,0,67,64
2,72022, Note_off_c,0,60,64
2,72200, Note_on_c,0,70,45
2,72204, Note_on_c,0,58,28
2,72228, Note_on_c,0,67,32
2,72288, Control_c,0,64,0
2,72300, Note_off_c,0,72,64
2,72360, Note_off_c,0,67,64
2,72396, Note_off_c,0,58,64
2,72422, Control_c,0,64,127
2,72538, Note_on_c,0,58,24
2,72552, Note_on_c,0,67,36
2,72648, Note_off_c,0,67,64
2,72658, Note_off_c,0,58,64
2,72876, Note_off_c,0,51,64
2,72896, Note_on_c,0,58,16
2,72910, Note_on_c,0,67,23
2,72976, Note_off_c,0,39,64
2,72984, Note_off_c,0,58,64
2,73002, Note_off_c,0,67,64
2,73020, Note_off_c,0,70,64
2,73222, Control_c,0,64,0
2,73248, Note_on_c,0,69,53
2,73272, Note_on_c,0,63,38
2,73274, Note_on_c,0,36,26
2,73278, Note_on_c,0,48,29
2,73280, Note_on_c,0,67,33
2,73456, Note_off_c,0,67,64
2,73456, Note_off_c,0,63,64
2,73492, Control_c,0,64,127
2,73622, Note_on_c,0,63,26
2,73638, Note_on_c,0,67,10
2,73702, Note_off_c,0,63,64
2,73740, Note_off_c,0,67,64
2,73936, Note_off_c,0,48,64
2,73944, Note_off_c,0,36,64
2,73970, Note_on_c,0,67,39
2,73978, Note_on_c,0,63,32
2,74074, Note_off_c,0,69,64
2,74114, Note_off_c,0,63,64
2,74142, Note_off_c,0,67,64
2,74302, Control_c,0,64,0
2,74312, Note_on_c,0,69,57
2,74324, Note_on_c,0,66,26
2,74328, Note_on_c,0,50,25
2,74328, Note_on_c,0,38,24
2,74332, Note_on_c,0,62,34
2,74570, Note_off_c,0,62,64
2,74596, Note_off_c,0,66,64
2,74646, Control_c,0,64,127
2,74736, Note_on_c,0,66,25
2,74760, Note_on_c,0,62,28
2,74854, Note_off_c,0,62,64
2,74960, Note_off_c,0,66,64
2,75064, Note_off_c,0,50,64
2,75174, Note_off_c,0,69,64
2,75174, Note_on_c,0,66,25
2,75196, Note_on_c,0,62,23
2,75216, Note_off_c,0,38,64
2,75288, Note_off_c,0,62,64
2,75428, Note_on_c,0,69,30
2,75488, Note_off_c,0,66,64
2,75658, Note_off_c,0,69,64
2,75720, Note_on_c,0,57,16
2,75724, Note_on_c,0,49,15
2,75728, Note_on_c,0,37,19
2,75788, Control_c,0,64,0
2,75850, Note_on_c,0,64,30
2,76000, Note_on_c,0,69,32
2,76052, Note_off_c,0,57,64
2,76084, Control_c,0,64,127
2,76092, Note_off_c,0,37,64
2,76104, Note_off_c,0,64,64
2,76108, Note_off_c,0,49,64
2,76592, Note_on_c,0,64,9
2,76616, Note_on_c,0,52,6
2,76640, Note_on_c,0,57,2
2,76682, Note_off_c,0,64,64
2,76692, Note_off_c,0,57,64
2,76692, Note_off_c,0,52,64
2,76958, Note_on_c,0,57,16
2,76958, Note_on_c,0,64,11
2,76996, Note_on_c,0,52,4
2,77028, Note_off_c,0,57,64
2,77052, Note_off_c,0,64,64
2,77058, Note_off_c,0,52,64
2,77280, Note_on_c,0,64,15
2,77288, Note_on_c,0,52,14
2,77300, Note_on_c,0,57,15
2,77364, Note_off_c,0,69,64
2,77368, Note_off_c,0,57,64
2,77370, Note_off_c,0,52,64
2,77392, Note_off_c,0,64,64
2,77596, Note_on_c,0,52,22
2,77596, Note_on_c,0,64,20
2,77610, Note_on_c,0,57,19
2,77672, Note_off_c,0,52,64
2,77674, Note_off_c,0,57,64
2,77686, Note_off_c,0,64,64
2,77898, Note_on_c,0,69,46
2,77936, Note_on_c,0,64,18
2,77956, Note_on_c,0,57,25
2,77962, Note_on_c,0,52,4
2,77986, Note_off_c,0,64,64
2,78016, Note_off_c,0,57,64
2,78054, Note_off_c,0,52,64
2,78322, Control_c,0,64,0
2,78348, Note_on_c,0,36,29
2,78352, Note_on_c,0,48,35
2,78484, Note_off_c,0,36,64
2,78498, Note_on_c,0,70,52
2,78520, Note_off_c,0,69,64
2,78530, Control_c,0,64,127
2,78534, Note_off_c,0,48,64
2,78650, Note_on_c,0,69,46
2,78678, Note_off_c,0,70,64
2,78766, Note_off_c,0,69,64
2,78774, Note_on_c,0,68,60
2,78916, Note_off_c,0,68,64
2,78916, Note_on_c,0,63,29
2,78922, Note_on_c,0,65,23
2,78926, Note_on_c,0,57,13
2,78930, Note_on_c,0,69,57
2,78936, Note_on_c,0,53,27
2,79048, Note_off_c,0,69,64
2,79066, Note_on_c,0,79,80
2,79072, Note_off_c,0,53,64
2,79116, Note_off_c,0,57,64
2,79124, Note_off_c,0,63,64
2,79126, Note_off_c,0,65,64
2,79174, Note_on_c,0,76,67
2,79188, Note_off_c,0,79,64
2,79264, Note_off_c,0,76,64
2,79270, Note_on_c,0,77,78
2,79300, Note_off_c,0,77,64
2,79330, Note_on_c,0,63,31
2,79330, Note_on_c,0,65,24
2,79342, Note_on_c,0,53,35
2,79344, Control_c,0,64,0
2,79344, Note_on_c,0,57,19
2,79368, Note_on_c,0,77,78
2,79444, Note_off_c,0,77,64
2,79472, Note_off_c,0,53,64
2,79478, Control_c,0,64,127
2,79478, Note_on_c,0,91,86
2,79496, Note_off_c,0,57,64
2,79516, Note_off_c,0,63,64
2,79540, Note_off_c,0,65,64
2,79592, Note_on_c,0,89,81
2,79612, Note_off_c,0,91,64
2,79692, Note_on_c,0,88,84
2,79724, Note_off_c,0,89,64
2,79752, Note_on_c,0,65,21
2,79760, Note_on_c,0,63,31
2,79766, Note_on_c,0,57,16
2,79776, Note_on_c,0,53,11
2,79784, Note_off_c,0,88,64
2,79790, Note_on_c,0,87,71
2,79836, Note_off_c,0,53,64
2,79840, Note_off_c,0,57,64
2,79872, Note_off_c,0,87,64
2,79880, Note_off_c,0,65,64
2,79882, Note_off_c,0,63,64
2,79886, Note_on_c,0,84,69
2,79972, Note_off_c,0,84,64
2,79982, Note_on_c,0,81,41
2,80040, Note_off_c,0,81,64
2,80040, Note_on_c,0,82,69
2,80128, Note_off_c,0,82,64
2,80128, Note_on_c,0,86,59
2,80168, Note_on_c,0,63,25
2,80168, Note_on_c,0,65,20
2,80178, Control_c,0,64,0
2,80190, Note_on_c,0,53,31
2,80190, Note_on_c,0,57,21
2,80208, Note_on_c,0,84,77
2,80224, Note_off_c,0,86,64
2,80274, Note_on_c,0,82,62
2,80298, Note_off_c,0,53,64
2,80306, Note_off_c,0,84,64
2,80326, Control_c,0,64,127
2,80340, Note_off_c,0,63,64
2,80352, Note_off_c,0,57,64
2,80356, Note_off_c,0,65,64
2,80364, Note_off_c,0,82,64
2,80368, Note_on_c,0,79,63
2,80416, Note_off_c,0,79,64
2,80428, Note_on_c,0,77,44
2,80480, Note_off_c,0,77,64
2,80508, Note_on_c,0,74,63
2,80556, Note_off_c,0,74,64
2,80578, Note_on_c,0,75,62
2,80644, Note_off_c,0,75,64
2,80674, Note_on_c,0,76,46
2,80680, Note_on_c,0,65,11
2,80682, Note_on_c,0,63,24
2,80686, Note_on_c,0,53,30
2,80694, Note_on_c,0,57,16
2,80706, Control_c,0,64,0
2,80728, Note_off_c,0,76,64
2,80760, Note_on_c,0,77,64
2,80808, Note_off_c,0,77,64
2,80852, Note_on_c,0,78,55
2,80916, Control_c,0,64,127
2,80936, Note_off_c,0,65,64
2,80948, Note_off_c,0,63,64
2,80950, Note_off_c,0,78,64
2,80968, Note_on_c,0,81,36
2,81014, Note_off_c,0,57,64
2,81038, Note_off_c,0,53,64
2,81072, Note_off_c,0,81,64
2,81078, Note_on_c,0,79,45
2,81184, Note_off_c,0,79,64
2,81200, Note_on_c,0,77,36
2,81288, Note_off_c,0,77,64
2,81328, Note_on_c,0,75,36
2,81444, Note_off_c,0,75,64
2,81504, Control_c,0,64,0
2,81520, Note_on_c,0,46,19
2,81524, Note_on_c,0,34,16
2,81524, Note_on_c,0,73,42
2,81684, Note_off_c,0,34,64
2,81702, Control_c,0,64,127
2,81706, Note_off_c,0,46,64
2,81782, Note_off_c,0,73,64
2,82076, Note_on_c,0,58,18
2,82096, Note_on_c,0,74,59
2,82118, Note_on_c,0,53,26
2,82120, Note_on_c,0,50,20
2,82286, Note_off_c,0,53,64
2,82318, Note_off_c,0,58,64
2,82344, Note_off_c,0,50,64
2,82514, Note_on_c,0,62,43
2,82516, Note_on_c,0,58,25
2,82526, Note_on_c,0,53,56
2,82606, Note_off_c,0,62,64
2,82648, Note_off_c,0,53,64
2,82654, Note_off_c,0,58,64
2,82888, Note_on_c,0,39,49
2,82896, Control_c,0,64,0
2,83026, Note_off_c,0,39,64
2,83054, Control_c,0,64,127
2,83288, Note_on_c,0,72,64
2,83296, Note_on_c,0,60,29
2,83306, Note_on_c,0,51,23
2,83336, Note_on_c,0,55,8
2,83386, Note_off_c,0,74,64
2,83400, Note_off_c,0,55,64
2,83410, Note_off_c,0,51,64
2,83440, Note_off_c,0,60,64
2,83694, Note_on_c,0,67,70
2,83708, Note_on_c,0,63,38
2,83726, Note_on_c,0,55,24
2,83728, Note_on_c,0,60,21
2,83762, Note_off_c,0,63,64
2,83786, Note_off_c,0,55,64
2,83790, Note_off_c,0,60,64
2,83800, Note_off_c,0,72,64
2,84124, Control_c,0,64,0
2,84152, Note_on_c,0,70,53
2,84160, Note_on_c,0,38,33
2,84214, Note_off_c,0,67,64
2,84300, Note_off_c,0,38,64
2,84334, Control_c,0,64,127
2,84616, Note_on_c,0,63,34
2,84648, Note_on_c,0,58,12
2,84664, Note_on_c,0,55,23
2,84768, Note_off_c,0,58,64
2,84806, Note_off_c,0,63,64
2,85018, Note_on_c,0,58,24
2,85026, Note_on_c,0,62,37
2,85144, Note_off_c,0,55,64
2,85362, Note_on_c,0,66,31
2,85364, Control_c,0,64,0
2,85392, Note_on_c,0,50,29
2,85456, Note_off_c,0,70,64
2,85460, Note_off_c,0,58,64
2,85480, Note_off_c,0,62,64
2,85550, Control_c,0,64,127
2,85776, Note_on_c,0,61,29
2,85792, Note_on_c,0,58,16
2,85936, Note_off_c,0,58,64
2,85966, Note_off_c,0,61,64
2,86214, Control_c,0,64,0
2,86240, Note_on_c,0,60,26
2,86262, Note_on_c,0,57,20
2,86410, Control_c,0,64,127
2,86432, Note_off_c,0,57,64
2,86444, Note_off_c,0,60,64
2,86482, Note_off_c,0,50,64
2,86832, Note_on_c,0,67,20
2,86848, Note_on_c,0,43,18
2,86854, Note_off_c,0,66,64
2,86864, Control_c,0,64,0
2,87050, Note_off_c,0,43,64
2,87062, Control_c,0,64,127
2,87134, Note_off_c,0,67,64
2,87416, Note_on_c,0,58,12
2,87416, Note_on_c,0,82,34
2,87424, Note_on_c,0,65,16
2,87426, Note_on_c,0,55,23
2,87438, Note_on_c,0,70,15
2,87614, Note_off_c,0,70,64
2,87640, Note_on_c,0,74,36
2,87648, Note_off_c,0,65,64
2,87714, Note_off_c,0,74,64
2,87714, Note_off_c,0,55,64
2,87730, Note_off_c,0,58,64
2,87830, Note_off_c,0,82,64
2,87832, Note_on_c,0,63,26
2,87832, Note_on_c,0,77,31
2,87856, Note_on_c,0,58,2
2,87894, Note_off_c,0,63,64
2,87932, Note_off_c,0,58,64
2,87996, Note_on_c,0,75,34
2,88012, Note_off_c,0,77,64
2,88060, Note_off_c,0,75,64
2,88188, Note_on_c,0,42,35
2,88192, Control_c,0,64,0
2,88312, Note_off_c,0,42,64
2,88340, Control_c,0,64,127
2,88534, Note_on_c,0,81,49
2,88536, Note_on_c,0,69,32
2,88552, Note_on_c,0,63,35
2,88562, Note_on_c,0,57,12
2,88574, Note_on_c,0,54,31
2,88644, Note_off_c,0,54,64
2,88662, Note_off_c,0,57,64
2,88704, Note_on_c,0,73,40
2,88758, Note_off_c,0,69,64
2,88764, Note_off_c,0,63,64
2,88780, Note_off_c,0,81,64
2,88804, Note_on_c,0,54,2
2,88818, Note_off_c,0,73,64
2,88856, Note_on_c,0,75,43
2,88864, Note_on_c,0,62,42
2,88910, Note_off_c,0,62,64
2,88936, Note_off_c,0,54,64
2,89016, Note_on_c,0,74,42
2,89038, Note_off_c,0,75,64
2,89152, Control_c,0,64,0
2,89184, Note_on_c,0,43,42
2,89296, Note_off_c,0,43,64
2,89304, Control_c,0,64,127
2,89388, Note_off_c,0,74,64
2,89506, Note_on_c,0,82,55
2,89508, Note_on_c,0,70,42
2,89532, Note_on_c,0,65,33
2,89534, Note_on_c,0,58,18
2,89554, Note_on_c,0,55,33
2,89622, Note_off_c,0,55,64
2,89626, Note_off_c,0,58,64
2,89664, Note_off_c,0,70,64
2,89664, Note_on_c,0,74,57
2,89722, Note_off_c,0,65,64
2,89784, Note_off_c,0,82,64
2,89800, Note_on_c,0,63,57
2,89808, Note_on_c,0,77,53
2,89816, Note_off_c,0,74,64
2,89834, Note_off_c,0,63,64
2,89954, Note_on_c,0,75,41
2,89990, Note_off_c,0,77,64
2,90060, Control_c,0,64,0
2,90110, Note_on_c,0,41,49
2,90192, Note_off_c,0,41,64
2,90196, Control_c,0,64,127
2,90432, Note_on_c,0,80,53
2,90440, Note_on_c,0,68,30
2,90454, Note_on_c,0,63,32
2,90464, Note_off_c,0,75,64
2,90468, Note_on_c,0,53,37
2,90472, Note_on_c,0,56,13
2,90480, Note_on_c,0,59,18
2,90598, Note_off_c,0,53,64
2,90604, Note_on_c,0,73,40
2,90622, Note_off_c,0,59,64
2,90650, Note_off_c,0,63,64
2,90650, Note_off_c,0,68,64
2,90688, Note_off_c,0,73,64
2,90742, Note_on_c,0,75,48
2,90762, Note_on_c,0,62,37
2,90788, Note_off_c,0,80,64
2,90808, Note_off_c,0,62,64
2,90822, Note_off_c,0,56,64
2,90890, Note_on_c,0,74,53
2,90904, Note_off_c,0,75,64
2,90970, Control_c,0,64,0
2,91016, Note_on_c,0,39,57
2,91104, Note_off_c,0,39,64
2,91118, Control_c,0,64,127
2,91320, Note_off_c,0,74,64
2,91328, Note_on_c,0,79,75
2,91334, Note_on_c,0,67,53
2,91338, Note_on_c,0,62,48
2,91348, Note_on_c,0,51,20
2,91356, Note_on_c,0,55,33
2,91464, Note_off_c,0,67,64
2,91472, Note_on_c,0,71,50
2,91478, Note_off_c,0,51,64
2,91482, Note_off_c,0,62,64
2,91484, Note_off_c,0,79,64
2,91490, Note_off_c,0,55,64
2,91590, Note_off_c,0,71,64
2,91592, Note_on_c,0,60,54
2,91598, Note_on_c,0,74,65
2,91634, Note_off_c,0,60,64
2,91718, Note_on_c,0,72,51
2,91766, Note_off_c,0,74,64
2,91868, Control_c,0,64,0
2,91902, Note_on_c,0,36,59
2,92006, Note_off_c,0,36,64
2,92016, Control_c,0,64,127
2,92064, Note_off_c,0,72,64
2,92184, Note_on_c,0,72,64
2,92192, Note_on_c,0,58,40
2,92192, Note_on_c,0,60,51
2,92200, Note_on_c,0,51,43
2,92306, Note_off_c,0,60,64
2,92312, Note_off_c,0,58,64
2,92312, Note_on_c,0,68,54
2,92438, Note_on_c,0,57,46
2,92438, Note_on_c,0,70,44
2,92440, Note_off_c,0,72,64
2,92480, Note_off_c,0,57,64
2,92482, Note_off_c,0,51,64
2,92496, Note_off_c,0,68,64
2,92528, Note_off_c,0,70,64
2,92560, Note_on_c,0,69,53
2,92680, Control_c,0,64,0
2,92704, Note_on_c,0,38,65
2,92792, Note_off_c,0,38,64
2,92792, Note_off_c,0,69,64
2,92802, Control_c,0,64,127
2,92988, Note_on_c,0,75,68
2,92998, Note_on_c,0,60,53
2,93000, Note_on_c,0,63,50
2,93000, Note_on_c,0,55,49
2,93026, Note_on_c,0,50,26
2,93042, Note_off_c,0,63,64
2,93144, Note_on_c,0,71,66
2,93156, Note_off_c,0,60,64
2,93180, Note_off_c,0,55,64
2,93210, Note_off_c,0,50,64
2,93256, Note_off_c,0,75,64
2,93270, Note_on_c,0,54,52
2,93286, Note_on_c,0,74,66
2,93310, Note_off_c,0,54,64
2,93314, Note_off_c,0,71,64
2,93400, Note_on_c,0,72,60
2,93420, Note_off_c,0,74,64
2,93564, Control_c,0,64,0
2,93566, Note_on_c,0,38,65
2,93700, Control_c,0,64,127
2,93712, Note_off_c,0,38,64
2,93724, Note_off_c,0,72,64
2,93864, Note_on_c,0,67,67
2,93870, Note_on_c,0,63,54
2,93888, Note_on_c,0,57,43
2,94034, Note_off_c,0,63,64
2,94038, Note_on_c,0,62,63
2,94130, Note_off_c,0,57,64
2,94134, Note_off_c,0,62,64
2,94158, Note_on_c,0,61,66
2,94162, Note_on_c,0,66,56
2,94168, Note_on_c,0,69,52
2,94170, Note_off_c,0,67,64
2,94198, Note_on_c,0,50,54
2,94280, Note_on_c,0,60,79
2,94294, Note_off_c,0,69,64
2,94296, Note_off_c,0,61,64
2,94324, Note_off_c,0,50,64
2,94338, Note_off_c,0,60,64
2,94424, Control_c,0,64,0
2,94430, Note_on_c,0,70,61
2,94432, Note_on_c,0,58,67
2,94442, Note_on_c,0,43,54
2,94446, Note_on_c,0,67,60
2,94464, Note_off_c,0,66,64
2,94550, Note_off_c,0,43,64
2,94550, Note_off_c,0,58,64
2,94584, Control_c,0,64,127
2,94600, Note_off_c,0,67,64
2,94620, Note_off_c,0,70,64
2,94776, Note_on_c,0,70,77
2,94776, Note_on_c,0,82,83
2,94786, Note_on_c,0,65,58
2,94800, Note_on_c,0,55,48
2,94938, Note_on_c,0,74,69
2,95002, Note_off_c,0,65,64
2,95008, Note_off_c,0,55,64
2,95034, Note_off_c,0,70,64
2,95044, Note_off_c,0,74,64
2,95072, Note_on_c,0,63,56
2,95072, Note_on_c,0,77,65
2,95084, Note_on_c,0,58,38
2,95112, Note_off_c,0,63,64
2,95136, Note_off_c,0,58,64
2,95146, Note_off_c,0,82,64
2,95184, Note_on_c,0,75,64
2,95212, Note_off_c,0,77,64
2,95306, Note_off_c,0,75,64
2,95320, Note_on_c,0,54,74
2,95322, Control_c,0,64,0
2,95324, Note_on_c,0,42,66
2,95446, Note_off_c,0,42,64
2,95448, Note_off_c,0,54,64
2,95456, Control_c,0,64,127
2,95576, Note_on_c,0,81,88
2,95584, Note_on_c,0,69,64
2,95598, Note_on_c,0,63,65
2,95614, Note_on_c,0,54,55
2,95690, Note_off_c,0,54,64
2,95704, Note_on_c,0,73,57
2,95732, Note_off_c,0,63,64
2,95800, Note_off_c,0,69,64
2,95826, Note_on_c,0,75,68
2,95834, Note_on_c,0,62,56
2,95840, Note_off_c,0,73,64
2,95840, Note_on_c,0,57,50
2,95872, Note_off_c,0,62,64
2,95880, Note_off_c,0,57,64
2,95880, Note_off_c,0,81,64
2,95944, Note_on_c,0,74,69
2,95974, Note_off_c,0,75,64
2,96060, Control_c,0,64,0
2,96080, Note_off_c,0,74,64
2,96102, Note_on_c,0,43,74
2,96102, Note_on_c,0,55,80
2,96196, Note_off_c,0,43,64
2,96216, Note_off_c,0,55,64
2,96232, Control_c,0,64,127
2,96340, Note_on_c,0,82,82
2,96346, Note_on_c,0,70,65
2,96366, Note_on_c,0,65,61
2,96372, Note_on_c,0,55,51
2,96424, Note_off_c,0,65,64
2,96480, Note_on_c,0,74,66
2,96486, Note_off_c,0,55,64
2,96488, Note_off_c,0,70,64
2,96584, Note_off_c,0,74,64
2,96588, Note_on_c,0,58,52
2,96588, Note_on_c,0,63,66
2,96608, Note_on_c,0,77,64
2,96622, Note_off_c,0,63,64
2,96642, Note_off_c,0,58,64
2,96704, Note_on_c,0,75,65
2,96732, Note_off_c,0,77,64
2,96804, Note_off_c,0,75,64
2,96822, Control_c,0,64,0
2,96840, Note_off_c,0,82,64
2,96850, Note_on_c,0,41,79
2,96856, Note_on_c,0,53,88
2,96928, Note_off_c,0,41,64
2,96934, Note_off_c,0,53,64
2,96968, Control_c,0,64,127
2,97088, Note_on_c,0,80,83
2,97090, Note_on_c,0,68,64
2,97102, Note_on_c,0,63,66
2,97102, Note_on_c,0,53,60
2,97200, Note_on_c,0,73,58
2,97212, Note_off_c,0,53,64
2,97242, Note_off_c,0,63,64
2,97266, Note_off_c,0,68,64
2,97306, Note_on_c,0,75,68
2,97310, Note_on_c,0,62,65
2,97312, Note_on_c,0,56,54
2,97320, Note_off_c,0,73,64
2,97324, Note_on_c,0,59,43
2,97344, Note_off_c,0,62,64
2,97362, Note_off_c,0,59,64
2,97376, Note_off_c,0,56,64
2,97406, Note_off_c,0,80,64
2,97408, Note_on_c,0,74,70
2,97456, Note_off_c,0,75,64
2,97510, Control_c,0,64,0
2,97520, Note_off_c,0,74,64
2,97540, Note_on_c,0,51,81
2,97544, Note_on_c,0,39,81
2,97624, Note_off_c,0,51,64
2,97640, Note_off_c,0,39,64
2,97656, Control_c,0,64,127
2,97782, Note_on_c,0,79,94
2,97786, Note_on_c,0,67,76
2,97794, Note_on_c,0,51,69
2,97798, Note_on_c,0,62,76
2,97906, Note_off_c,0,51,64
2,97912, Note_off_c,0,62,64
2,97914, Note_on_c,0,71,65
2,97938, Note_off_c,0,67,64
2,98022, Note_off_c,0,71,64
2,98024, Note_on_c,0,60,52
2,98028, Note_on_c,0,74,73
2,98030, Note_on_c,0,55,59
2,98042, Note_off_c,0,79,64
2,98066, Note_off_c,0,55,64
2,98072, Note_off_c,0,60,64
2,98116, Note_on_c,0,72,67
2,98146, Note_off_c,0,74,64
2,98224, Note_off_c,0,72,64
2,98248, Control_c,0,64,0
2,98260, Note_on_c,0,36,91
2,98264, Note_on_c,0,48,80
2,98344, Note_off_c,0,36,64
2,98354, Note_off_c,0,48,64
2,98370, Control_c,0,64,127
2,98472, Note_on_c,0,72,91
2,98472, Note_on_c,0,60,92
2,98480, Note_on_c,0,48,70
2,98480, Note_on_c,0,58,71
2,98578, Note_off_c,0,60,64
2,98592, Note_off_c,0,58,64
2,98600, Note_off_c,0,48,64
2,98602, Note_on_c,0,68,56
2,98676, Note_on_c,0,51,69
2,98680, Note_on_c,0,57,41
2,98686, Note_on_c,0,70,62
2,98688, Note_off_c,0,72,64
2,98718, Note_off_c,0,51,64
2,98730, Note_off_c,0,57,64
2,98736, Note_off_c,0,68,64
2,98790, Note_on_c,0,69,63
2,98834, Note_off_c,0,70,64
2,98852, Note_off_c,0,69,64
2,98862, Control_c,0,64,0
2,98900, Note_on_c,0,38,89
2,98904, Note_on_c,0,50,88
2,98980, Note_off_c,0,38,64
2,98988, Note_off_c,0,50,64
2,99022, Control_c,0,64,127
2,99116, Note_on_c,0,55,76
2,99118, Note_on_c,0,75,90
2,99118, Note_on_c,0,45,70
2,99120, Note_on_c,0,63,87
2,99198, Note_off_c,0,55,64
2,99208, Note_off_c,0,63,64
2,99236, Note_on_c,0,71,65
2,99238, Note_off_c,0,45,64
2,99288, Note_off_c,0,75,64
2,99304, Note_on_c,0,74,70
2,99304, Note_on_c,0,54,73
2,99312, Note_on_c,0,48,53
2,99342, Note_off_c,0,71,64
2,99362, Note_off_c,0,54,64
2,99368, Note_off_c,0,48,64
2,99410, Note_on_c,0,72,63
2,99434, Note_off_c,0,74,64
2,99448, Note_off_c,0,72,64
2,99488, Control_c,0,64,0
2,99520, Note_on_c,0,38,74
2,99616, Note_off_c,0,38,64
2,99648, Control_c,0,64,127
2,99720, Note_on_c,0,66,78
2,99722, Note_on_c,0,54,90
2,99724, Note_on_c,0,51,73
2,99726, Note_on_c,0,45,63
2,99816, Note_off_c,0,54,64
2,99826, Note_on_c,0,61,67
2,99838, Note_off_c,0,51,64
2,99888, Note_on_c,0,63,62
2,99900, Note_on_c,0,50,51
2,99940, Note_off_c,0,45,64
2,99940, Note_on_c,0,48,42
2,99974, Note_off_c,0,50,64
2,99984, Note_on_c,0,62,73
2,99998, Note_off_c,0,48,64
2,100004, Note_off_c,0,66,64
2,100022, Note_off_c,0,61,64
2,100038, Note_off_c,0,63,64
2,100072, Note_on_c,0,67,89
2,100076, Note_on_c,0,58,62
2,100080, Note_on_c,0,43,80
2,100080, Note_on_c,0,50,84
2,100110, Note_off_c,0,50,64
2,100110, Note_off_c,0,43,64
2,100112, Note_off_c,0,62,64
2,100124, Note_off_c,0,58,64
2,100160, Note_off_c,0,67,64
2,100202, Control_c,0,64,0
2,100284, Note_on_c,0,43,83
2,100288, Note_on_c,0,55,79
2,100288, Note_on_c,0,60,84
2,100294, Note_on_c,0,31,62
2,100346, Note_off_c,0,55,64
2,100368, Note_on_c,0,58,69
2,100428, Note_off_c,0,60,64
2,100432, Note_off_c,0,31,64
2,100434, Control_c,0,64,127
2,100454, Note_on_c,0,57,72
2,100464, Note_off_c,0,43,64
2,100494, Note_off_c,0,58,64
2,100528, Note_on_c,0,55,80
2,100540, Note_off_c,0,57,64
2,100566, Note_off_c,0,55,64
2,100612, Note_on_c,0,58,82
2,100612, Note_on_c,0,67,99
2,100630, Note_on_c,0,50,84
2,100634, Note_on_c,0,43,69
2,100660, Note_off_c,0,67,64
2,100674, Note_off_c,0,43,64
2,100686, Note_off_c,0,50,64
2,100704, Note_off_c,0,58,64
2,100730, Control_c,0,64,0
2,100808, Note_on_c,0,51,86
2,100810, Note_on_c,0,43,74
2,100812, Note_on_c,0,55,82
2,100814, Note_on_c,0,60,92
2,100886, Note_off_c,0,55,64
2,100896, Note_on_c,0,58,67
2,100920, Note_on_c,0,50,78
2,100928, Note_off_c,0,51,64
2,100954, Note_off_c,0,60,64
2,100976, Note_on_c,0,57,69
2,100988, Control_c,0,64,127
2,101032, Note_off_c,0,58,64
2,101032, Note_off_c,0,43,64
2,101052, Note_on_c,0,55,85
2,101064, Note_off_c,0,57,64
2,101082, Note_off_c,0,50,64
2,101096, Note_off_c,0,55,64
2,101132, Note_on_c,0,65,81
2,101134, Note_on_c,0,51,79
2,101144, Note_on_c,0,43,56
2,101144, Note_on_c,0,48,54
2,101160, Control_c,0,64,0
2,101216, Note_on_c,0,60,77
2,101222, Note_off_c,0,65,64
2,101314, Note_on_c,0,63,73
2,101324, Note_on_c,0,57,84
2,101338, Note_off_c,0,60,64
2,101392, Note_on_c,0,54,89
2,101394, Control_c,0,64,127
2,101440, Note_off_c,0,63,64
2,101480, Note_off_c,0,54,64
2,101484, Note_on_c,0,60,58
2,101554, Note_off_c,0,60,64
2,101562, Note_on_c,0,63,76
2,101592, Note_off_c,0,63,64
2,101594, Note_off_c,0,43,64
2,101628, Note_off_c,0,57,64
2,101642, Note_on_c,0,66,78
2,101730, Note_off_c,0,48,64
2,101732, Note_off_c,0,66,64
2,101740, Note_on_c,0,71,34
2,101746, Note_on_c,0,72,56
2,101788, Note_on_c,0,55,75
2,101790, Note_off_c,0,71,64
2,101792, Note_on_c,0,43,68
2,101804, Note_on_c,0,77,85
2,101828, Note_off_c,0,43,64
2,101830, Note_off_c,0,55,64
2,101830, Note_off_c,0,72,64
2,101880, Note_off_c,0,51,64
2,101888, Note_on_c,0,75,72
2,101942, Note_off_c,0,77,64
2,101960, Note_on_c,0,74,80
2,101968, Note_on_c,0,63,89
2,101974, Note_on_c,0,51,69
2,102050, Note_off_c,0,51,64
2,102052, Note_on_c,0,72,74
2,102056, Note_off_c,0,75,64
2,102064, Note_off_c,0,63,64
2,102080, Note_off_c,0,74,64
2,102120, Note_on_c,0,62,91
2,102128, Note_on_c,0,50,91
2,102130, Note_on_c,0,70,80
2,102130, Note_on_c,0,79,104
2,102150, Note_off_c,0,62,64
2,102168, Note_off_c,0,50,64
2,102174, Note_off_c,0,72,64
2,102196, Note_off_c,0,70,64
2,102216, Note_off_c,0,79,64
2,102242, Control_c,0,64,0
2,102312, Note_on_c,0,43,89
2,102312, Note_on_c,0,67,82
2,102312, Note_on_c,0,55,88
2,102320, Note_on_c,0,72,68
2,102336, Note_on_c,0,74,55
2,102360, Note_off_c,0,67,64
2,102376, Note_off_c,0,74,64
2,102386, Note_on_c,0,70,73
2,102428, Note_off_c,0,43,64
2,102442, Note_off_c,0,72,64
2,102456, Note_off_c,0,55,64
2,102462, Note_on_c,0,69,67
2,102476, Control_c,0,64,127
2,102518, Note_off_c,0,70,64
2,102540, Note_on_c,0,67,77
2,102564, Note_off_c,0,69,64
2,102580, Note_off_c,0,67,64
2,102622, Note_on_c,0,70,90
2,102622, Note_on_c,0,79,107
2,102630, Note_on_c,0,55,73
2,102632, Note_on_c,0,62,71
2,102666, Note_off_c,0,79,64
2,102672, Note_off_c,0,55,64
2,102680, Note_off_c,0,62,64
2,102686, Note_off_c,0,70,64
2,102734, Control_c,0,64,0
2,102806, Note_on_c,0,63,86
2,102810, Note_on_c,0,72,89
2,102810, Note_on_c,0,67,76
2,102812, Note_on_c,0,55,78
2,102856, Note_off_c,0,67,64
2,102874, Note_on_c,0,70,72
2,102916, Note_off_c,0,63,64
2,102928, Note_off_c,0,72,64
2,102928, Note_on_c,0,62,73
2,102944, Note_on_c,0,69,69
2,102968, Control_c,0,64,127
2,102980, Note_off_c,0,55,64
2,102996, Note_off_c,0,70,64
2,103016, Note_on_c,0,67,83
2,103026, Note_off_c,0,69,64
2,103032, Note_off_c,0,62,64
2,103060, Note_off_c,0,67,64
2,103090, Control_c,0,64,0
2,103092, Note_on_c,0,77,92
2,103100, Note_on_c,0,63,84
2,103102, Note_on_c,0,55,74
2,103104, Note_on_c,0,60,59
2,103182, Note_on_c,0,72,69
2,103184, Note_off_c,0,77,64
2,103272, Note_on_c,0,69,87
2,103276, Note_on_c,0,75,73
2,103286, Note_off_c,0,72,64
2,103342, Note_on_c,0,66,75
2,103348, Control_c,0,64,127
2,103394, Note_off_c,0,75,64
2,103428, Note_on_c,0,72,73
2,103440, Note_off_c,0,66,64
2,103506, Note_on_c,0,75,76
2,103508, Note_off_c,0,72,64
2,103536, Note_off_c,0,75,64
2,103538, Note_off_c,0,55,64
2,103572, Note_off_c,0,69,64
2,103592, Note_on_c,0,78,90
2,103664, Note_on_c,0,84,89
2,103666, Note_off_c,0,60,64
2,103686, Note_off_c,0,78,64
2,103696, Note_off_c,0,63,64
2,103752, Note_on_c,0,89,93
2,103752, Note_on_c,0,67,78
2,103756, Note_on_c,0,55,71
2,103790, Note_off_c,0,67,64
2,103790, Note_off_c,0,84,64
2,103792, Note_off_c,0,55,64
2,103832, Note_on_c,0,87,76
2,103900, Note_on_c,0,86,85
2,103920, Note_off_c,0,89,64
2,103920, Note_on_c,0,75,88
2,103924, Note_on_c,0,63,89
2,103992, Note_on_c,0,84,92
2,104012, Note_off_c,0,75,64
2,104012, Note_off_c,0,87,64
2,104020, Note_off_c,0,63,64
2,104040, Note_off_c,0,86,64
2,104062, Control_c,0,64,0
2,104084, Note_on_c,0,91,106
2,104086, Note_on_c,0,82,94
2,104092, Note_on_c,0,74,101
2,104094, Note_on_c,0,67,91
2,104122, Note_off_c,0,84,64
2,104198, Control_c,0,64,127
2,104228, Note_off_c,0,82,64
2,104248, Note_off_c,0,74,64
2,104248, Note_off_c,0,91,64
2,104258, Note_off_c,0,67,64
2,104442, Note_on_c,0,91,102
2,104444, Control_c,0,64,0
2,104448, Note_on_c,0,96,102
2,104560, Note_on_c,0,94,80
2,104620, Note_off_c,0,91,64
2,104646, Note_off_c,0,96,64
2,104656, Note_on_c,0,86,87
2,104664, Control_c,0,64,127
2,104686, Note_off_c,0,94,64
2,104736, Note_off_c,0,86,64
2,104746, Note_on_c,0,75,87
2,104750, Control_c,0,64,0
2,104752, Note_on_c,0,94,79
2,104754, Note_on_c,0,66,55
2,104758, Note_on_c,0,90,89
2,104768, Note_on_c,0,63,57
2,104770, Note_on_c,0,69,45
2,104876, Note_off_c,0,75,64
2,104888, Note_on_c,0,93,76
2,104910, Control_c,0,64,127
2,104912, Note_off_c,0,69,64
2,104944, Note_off_c,0,94,64
2,104952, Note_off_c,0,90,64
2,104960, Note_on_c,0,86,83
2,104968, Note_on_c,0,74,73
2,104984, Note_off_c,0,93,64
2,104990, Note_off_c,0,66,64
2,104992, Note_off_c,0,86,64
2,105004, Note_off_c,0,74,64
2,105020, Note_off_c,0,63,64
2,105066, Note_on_c,0,82,72
2,105072, Note_on_c,0,78,72
2,105122, Note_on_c,0,62,78
2,105132, Note_on_c,0,81,72
2,105178, Note_off_c,0,78,64
2,105190, Note_off_c,0,82,64
2,105206, Note_on_c,0,74,84
2,105214, Note_off_c,0,62,64
2,105224, Note_off_c,0,81,64
2,105266, Control_c,0,64,0
2,105280, Note_off_c,0,74,64
2,105308, Note_on_c,0,84,92
2,105314, Note_on_c,0,55,92
2,105316, Note_on_c,0,79,84
2,105348, Note_off_c,0,55,64
2,105400, Control_c,0,64,127
2,105426, Note_on_c,0,82,73
2,105436, Note_off_c,0,79,64
2,105470, Note_off_c,0,84,64
2,105484, Note_off_c,0,82,64
2,105536, Note_on_c,0,86,87
2,105544, Note_on_c,0,62,78
2,105598, Note_off_c,0,86,64
2,105628, Note_on_c,0,96,91
2,105630, Note_on_c,0,91,80
2,105702, Note_on_c,0,74,79
2,105718, Note_off_c,0,62,64
2,105718, Note_on_c,0,94,81
2,105762, Note_off_c,0,91,64
2,105784, Note_off_c,0,96,64
2,105788, Note_off_c,0,74,64
2,105804, Note_on_c,0,86,85
2,105832, Note_off_c,0,94,64
2,105880, Control_c,0,64,0
2,105890, Note_off_c,0,86,64
2,105896, Note_on_c,0,94,73
2,105900, Note_on_c,0,90,88
2,105900, Note_on_c,0,75,90
2,105910, Note_on_c,0,66,48
2,105912, Note_on_c,0,69,48
2,105922, Note_on_c,0,63,58
2,106016, Note_on_c,0,93,75
2,106050, Note_off_c,0,75,64
2,106052, Control_c,0,64,127
2,106056, Note_off_c,0,69,64
2,106076, Note_off_c,0,94,64
2,106080, Note_off_c,0,90,64
2,106088, Note_off_c,0,66,64
2,106088, Note_on_c,0,86,85
2,106096, Note_off_c,0,93,64
2,106108, Note_on_c,0,74,76
2,106120, Note_off_c,0,86,64
2,106120, Note_off_c,0,63,64
2,106152, Note_off_c,0,74,64
2,106196, Note_on_c,0,82,65
2,106210, Note_on_c,0,78,48
2,106244, Note_on_c,0,62,78
2,106254, Note_on_c,0,81,80
2,106260, Note_off_c,0,78,64
2,106308, Note_off_c,0,62,64
2,106312, Note_off_c,0,82,64
2,106334, Note_off_c,0,81,64
2,106336, Note_on_c,0,74,80
2,106378, Note_off_c,0,74,64
2,106410, Control_c,0,64,0
2,106418, Note_on_c,0,84,89
2,106432, Note_on_c,0,79,87
2,106436, Note_on_c,0,55,92
2,106518, Note_on_c,0,82,80
2,106534, Note_off_c,0,55,64
2,106536, Note_off_c,0,79,64
2,106544, Control_c,0,64,127
2,106560, Note_off_c,0,84,64
2,106574, Note_off_c,0,82,64
2,106614, Note_on_c,0,86,88
2,106648, Note_off_c,0,86,64
2,106690, Note_on_c,0,96,87
2,106696, Note_on_c,0,91,74
2,106754, Note_on_c,0,50,90
2,106776, Note_on_c,0,94,83
2,106810, Note_off_c,0,91,64
2,106836, Note_off_c,0,96,64
2,106838, Note_on_c,0,86,78
2,106856, Note_off_c,0,50,64
2,106870, Note_off_c,0,94,64
2,106888, Control_c,0,64,0
2,106908, Note_off_c,0,86,64
2,106920, Note_on_c,0,63,97
2,106924, Note_on_c,0,94,75
2,106928, Note_on_c,0,54,67
2,106930, Note_on_c,0,57,54
2,106930, Note_on_c,0,90,83
2,106932, Note_on_c,0,51,67
2,107012, Control_c,0,64,127
2,107028, Note_on_c,0,93,82
2,107032, Note_off_c,0,63,64
2,107044, Note_off_c,0,57,64
2,107068, Note_off_c,0,54,64
2,107086, Note_off_c,0,90,64
2,107086, Note_off_c,0,94,64
2,107096, Note_on_c,0,86,83
2,107114, Note_off_c,0,93,64
2,107118, Note_on_c,0,62,71
2,107128, Note_off_c,0,86,64
2,107132, Note_off_c,0,51,64
2,107156, Note_off_c,0,62,64
2,107196, Note_on_c,0,78,76
2,107198, Note_on_c,0,82,60
2,107232, Note_on_c,0,50,87
2,107254, Note_on_c,0,81,77
2,107296, Note_off_c,0,78,64
2,107300, Note_off_c,0,82,64
2,107314, Note_off_c,0,50,64
2,107328, Note_on_c,0,74,83
2,107342, Note_off_c,0,81,64
2,107358, Note_off_c,0,74,64
2,107406, Control_c,0,64,0
2,107416, Note_on_c,0,43,97
2,107424, Note_on_c,0,72,79
2,107428, Note_on_c,0,67,85
2,107510, Note_off_c,0,67,64
2,107510, Note_off_c,0,43,64
2,107510, Note_on_c,0,70,78
2,107528, Control_c,0,64,127
2,107548, Note_off_c,0,72,64
2,107560, Note_off_c,0,70,64
2,107608, Note_on_c,0,74,80
2,107616, Note_on_c,0,50,80
2,107642, Note_off_c,0,74,64
2,107680, Note_on_c,0,84,86
2,107682, Note_on_c,0,79,79
2,107750, Note_on_c,0,62,80
2,107756, Note_on_c,0,82,79
2,107786, Note_off_c,0,79,64
2,107798, Note_off_c,0,50,64
2,107804, Note_off_c,0,84,64
2,107810, Note_on_c,0,74,85
2,107812, Note_off_c,0,62,64
2,107840, Note_off_c,0,82,64
2,107872, Control_c,0,64,0
2,107882, Note_off_c,0,74,64
2,107896, Note_on_c,0,63,97
2,107900, Note_on_c,0,78,90
2,107908, Note_on_c,0,57,57
2,107910, Note_on_c,0,82,94
2,107912, Note_on_c,0,54,60
2,107914, Note_on_c,0,51,66
2,107988, Note_off_c,0,82,64
2,107992, Note_on_c,0,81,80
2,108016, Note_off_c,0,57,64
2,108018, Note_off_c,0,63,64
2,108018, Control_c,0,64,127
2,108034, Note_off_c,0,78,64
2,108048, Note_off_c,0,54,64
2,108052, Note_on_c,0,74,81
2,108064, Note_off_c,0,81,64
2,108082, Note_off_c,0,74,64
2,108096, Note_on_c,0,62,81
2,108098, Note_off_c,0,51,64
2,108134, Note_off_c,0,62,64
2,108152, Note_on_c,0,70,64
2,108160, Note_on_c,0,66,62
2,108206, Note_on_c,0,50,89
2,108214, Note_on_c,0,69,61
2,108232, Note_off_c,0,66,64
2,108268, Note_off_c,0,70,64
2,108272, Note_on_c,0,62,83
2,108280, Note_off_c,0,50,64
2,108296, Note_off_c,0,69,64
2,108338, Control_c,0,64,0
2,108358, Note_on_c,0,43,101
2,108362, Note_off_c,0,62,64
2,108364, Note_on_c,0,72,83
2,108368, Note_on_c,0,67,86
2,108450, Note_on_c,0,70,78
2,108460, Note_off_c,0,43,64
2,108468, Note_off_c,0,67,64
2,108474, Control_c,0,64,127
2,108488, Note_off_c,0,72,64
2,108492, Note_off_c,0,70,64
2,108524, Note_on_c,0,58,76
2,108546, Note_on_c,0,74,89
2,108546, Note_on_c,0,50,72
2,108576, Note_off_c,0,74,64
2,108618, Note_on_c,0,84,92
2,108624, Note_on_c,0,79,84
2,108654, Note_off_c,0,58,64
2,108704, Note_on_c,0,82,86
2,108724, Note_off_c,0,50,64
2,108736, Note_off_c,0,79,64
2,108760, Note_off_c,0,84,64
2,108776, Note_on_c,0,74,77
2,108806, Note_off_c,0,82,64
2,108810, Note_off_c,0,74,64
2,108862, Note_on_c,0,49,88
2,108868, Note_on_c,0,37,88
2,108872, Note_on_c,0,81,94
2,108876, Note_on_c,0,74,78
2,108880, Control_c,0,64,0
2,108968, Note_on_c,0,79,83
2,108976, Note_off_c,0,81,64
2,108996, Note_off_c,0,37,64
2,109002, Control_c,0,64,127
2,109004, Note_off_c,0,49,64
2,109030, Note_off_c,0,79,64
2,109030, Note_off_c,0,74,64
2,109040, Note_on_c,0,70,77
2,109060, Note_on_c,0,50,90
2,109064, Note_on_c,0,38,80
2,109086, Note_off_c,0,70,64
2,109110, Note_off_c,0,50,64
2,109132, Note_on_c,0,70,69
2,109140, Note_on_c,0,75,65
2,109148, Note_off_c,0,38,64
2,109216, Note_on_c,0,74,80
2,109240, Note_off_c,0,70,64
2,109256, Note_off_c,0,75,64
2,109266, Note_off_c,0,74,64
2,109274, Note_on_c,0,67,75
2,109316, Note_off_c,0,67,64
2,109336, Control_c,0,64,0
2,109354, Note_on_c,0,43,96
2,109356, Note_on_c,0,31,103
2,109364, Note_on_c,0,72,81
2,109368, Note_on_c,0,67,72
2,109422, Note_off_c,0,31,64
2,109440, Note_on_c,0,70,66
2,109450, Note_off_c,0,43,64
2,109460, Note_off_c,0,67,64
2,109482, Control_c,0,64,127
2,109486, Note_off_c,0,72,64
2,109508, Note_on_c,0,62,73
2,109514, Note_off_c,0,70,64
2,109528, Note_on_c,0,50,95
2,109538, Note_on_c,0,38,75
2,109546, Note_off_c,0,62,64
2,109590, Note_on_c,0,69,76
2,109596, Note_on_c,0,62,83
2,109624, Note_off_c,0,50,64
2,109646, Note_off_c,0,38,64
2,109684, Note_on_c,0,67,77
2,109702, Note_off_c,0,69,64
2,109728, Note_off_c,0,67,64
2,109746, Note_off_c,0,62,64
2,109746, Note_on_c,0,58,74
2,109788, Note_off_c,0,58,64
2,109824, Note_on_c,0,37,89
2,109832, Note_on_c,0,58,70
2,109838, Note_on_c,0,63,81
2,109840, Control_c,0,64,0
2,109900, Note_on_c,0,61,13
2,109944, Note_off_c,0,58,64
2,109952, Note_on_c,0,62,60
2,109968, Note_off_c,0,63,64
2,109980, Note_on_c,0,55,86
2,109986, Control_c,0,64,127
2,109988, Note_off_c,0,62,64
2,109988, Note_off_c,0,61,64
2,109994, Note_off_c,0,37,64
2,109998, Note_on_c,0,38,93
2,110032, Note_off_c,0,55,64
2,110086, Note_on_c,0,55,72
2,110088, Note_on_c,0,60,74
2,110096, Note_off_c,0,38,64
2,110152, Note_on_c,0,58,72
2,110172, Note_off_c,0,55,64
2,110186, Note_off_c,0,60,64
2,110210, Note_on_c,0,50,86
2,110244, Control_c,0,64,0
2,110270, Note_off_c,0,50,64
2,110276, Note_off_c,0,58,64
2,110296, Note_on_c,0,43,74
2,110300, Note_on_c,0,31,76
2,110302, Note_on_c,0,60,88
2,110314, Note_on_c,0,55,74
2,110384, Note_on_c,0,58,64
2,110408, Note_off_c,0,43,64
2,110416, Note_off_c,0,55,64
2,110430, Control_c,0,64,127
2,110436, Note_off_c,0,60,64
2,110442, Note_off_c,0,31,64
2,110444, Note_on_c,0,50,75
2,110506, Note_off_c,0,58,64
2,110530, Note_off_c,0,50,64
2,110552, Note_on_c,0,62,75
2,110558, Note_on_c,0,55,44
2,110628, Note_on_c,0,36,62
2,110638, Note_on_c,0,60,68
2,110650, Note_off_c,0,62,64
2,110672, Note_off_c,0,55,64
2,110702, Note_on_c,0,51,51
2,110724, Note_off_c,0,60,64
2,110750, Note_off_c,0,36,64
2,110774, Control_c,0,64,0
2,110792, Note_off_c,0,51,64
2,110796, Note_on_c,0,60,47
2,110804, Note_on_c,0,55,60
2,110804, Note_on_c,0,43,72
2,110816, Note_on_c,0,31,68
2,110880, Note_on_c,0,58,49
2,110904, Note_off_c,0,43,64
2,110906, Note_off_c,0,55,64
2,110912, Note_off_c,0,60,64
2,110918, Note_off_c,0,31,64
2,110944, Control_c,0,64,127
2,110950, Note_on_c,0,50,66
2,111008, Note_off_c,0,50,64
2,111012, Note_off_c,0,58,64
2,111074, Note_on_c,0,62,57
2,111116, Note_on_c,0,55,2
2,111128, Note_on_c,0,36,67
2,111160, Note_off_c,0,62,64
2,111160, Note_on_c,0,60,66
2,111176, Note_off_c,0,55,64
2,111228, Note_on_c,0,51,55
2,111240, Note_off_c,0,60,64
2,111312, Note_off_c,0,51,64
2,111326, Note_off_c,0,36,64
2,111332, Note_on_c,0,43,67
2,111338, Note_on_c,0,31,72
2,111340, Note_on_c,0,55,38
2,111342, Note_on_c,0,60,40
2,111352, Control_c,0,64,0
2,111416, Note_off_c,0,55,64
2,111424, Note_on_c,0,58,50
2,111436, Note_off_c,0,60,64
2,111454, Note_off_c,0,43,64
2,111464, Note_off_c,0,31,64
2,111486, Control_c,0,64,127
2,111490, Note_on_c,0,50,55
2,111552, Note_off_c,0,58,64
2,111564, Note_off_c,0,50,64
2,111594, Note_on_c,0,62,64
2,111604, Note_on_c,0,55,37
2,111680, Note_off_c,0,62,64
2,111680, Note_on_c,0,36,72
2,111686, Note_on_c,0,60,68
2,111704, Note_off_c,0,55,64
2,111740, Note_on_c,0,51,64
2,111772, Note_off_c,0,60,64
2,111840, Note_off_c,0,36,64
2,111846, Note_off_c,0,51,64
2,111852, Note_on_c,0,43,72
2,111854, Note_on_c,0,55,57
2,111856, Note_on_c,0,31,70
2,111862, Note_on_c,0,60,45
2,111928, Control_c,0,64,0
2,111944, Note_on_c,0,58,57
2,111966, Note_off_c,0,60,64
2,111970, Note_off_c,0,55,64
2,111982, Note_off_c,0,43,64
2,111994, Note_off_c,0,31,64
2,112008, Note_on_c,0,50,77
2,112040, Control_c,0,64,127
2,112070, Note_off_c,0,58,64
2,112106, Note_off_c,0,50,64
2,112118, Note_on_c,0,62,72
2,112120, Note_on_c,0,55,33
2,112184, Note_on_c,0,36,70
2,112202, Note_on_c,0,60,72
2,112224, Note_off_c,0,62,64
2,112232, Note_off_c,0,55,64
2,112262, Note_on_c,0,51,78
2,112328, Note_off_c,0,60,64
2,112340, Note_off_c,0,36,64
2,112360, Note_off_c,0,51,64
2,112368, Note_on_c,0,43,82
2,112368, Note_on_c,0,31,86
2,112382, Note_on_c,0,55,73
2,112432, Control_c,0,64,0
2,112444, Note_on_c,0,62,62
2,112462, Note_off_c,0,55,64
2,112520, Note_on_c,0,58,66
2,112540, Note_off_c,0,31,64
2,112546, Note_off_c,0,62,64
2,112604, Note_off_c,0,43,64
2,112606, Note_on_c,0,62,72
2,112618, Note_off_c,0,58,64
2,112630, Control_c,0,64,127
2,112704, Note_off_c,0,62,64
2,112704, Note_on_c,0,67,71
2,112782, Note_off_c,0,67,64
2,112784, Note_on_c,0,70,60
2,112868, Note_off_c,0,70,64
2,112878, Note_on_c,0,74,82
2,112948, Note_off_c,0,74,64
2,112962, Note_on_c,0,79,82
2,113024, Note_off_c,0,79,64
2,113032, Note_on_c,0,82,77
2,113042, Note_on_c,0,67,69
2,113044, Note_on_c,0,62,64
2,113082, Note_off_c,0,62,64
2,113098, Note_off_c,0,82,64
2,113104, Note_off_c,0,67,64
2,113124, Note_on_c,0,86,88
2,113192, Note_on_c,0,62,80
2,113196, Note_on_c,0,55,77
2,113200, Note_on_c,0,91,84
2,113242, Note_off_c,0,86,64
2,113254, Note_off_c,0,62,64
2,113280, Note_on_c,0,98,87
2,113290, Note_off_c,0,55,64
2,113292, Note_off_c,0,91,64
2,113328, Note_off_c,0,98,64
2,113350, Note_on_c,0,94,79
2,113356, Note_on_c,0,67,83
2,113364, Note_on_c,0,62,65
2,113428, Note_off_c,0,62,64
2,113428, Note_off_c,0,67,64
2,113436, Note_on_c,0,98,99
2,113472, Note_off_c,0,94,64
2,113498, Note_on_c,0,91,78
2,113554, Note_off_c,0,98,64
2,113576, Note_on_c,0,86,78
2,113586, Note_off_c,0,91,64
2,113608, Note_off_c,0,86,64
2,113664, Note_on_c,0,82,61
2,113752, Note_on_c,0,79,75
2,113772, Note_off_c,0,82,64
2,113798, Note_off_c,0,79,64
2,113832, Note_on_c,0,74,59
2,113866, Note_off_c,0,74,64
2,113918, Note_on_c,0,70,55
2,114014, Note_on_c,0,67,48
2,114030, Note_off_c,0,70,64
2,114056, Note_off_c,0,67,64
2,114066, Note_on_c,0,62,63
2,114102, Note_off_c,0,62,64
2,114152, Note_on_c,0,58,59
2,114168, Note_on_c,0,38,71
2,114252, Note_on_c,0,50,78
2,114328, Note_on_c,0,43,75
2,114332, Note_on_c,0,31,77
2,114342, Note_off_c,0,50,64
2,114344, Note_on_c,0,55,74
2,114352, Note_off_c,0,38,64
2,114376, Note_off_c,0,58,64
2,114414, Note_on_c,0,62,65
2,114432, Note_off_c,0,55,64
2,114488, Note_on_c,0,58,71
2,114528, Note_off_c,0,62,64
2,114546, Note_off_c,0,58,64
2,114576, Note_on_c,0,62,89
2,114662, Note_on_c,0,67,67
2,114688, Note_off_c,0,62,64
2,114742, Note_on_c,0,74,80
2,114770, Note_off_c,0,67,64
2,114794, Note_off_c,0,74,64
2,114808, Note_on_c,0,70,72
2,114904, Note_on_c,0,74,74
2,114952, Note_off_c,0,70,64
2,114962, Note_on_c,0,67,68
2,114992, Note_off_c,0,74,64
2,115010, Note_off_c,0,67,64
2,115036, Note_on_c,0,62,50
2,115080, Note_off_c,0,62,64
2,115104, Note_on_c,0,38,85
2,115110, Note_on_c,0,58,68
2,115152, Note_off_c,0,43,64
2,115158, Note_off_c,0,31,64
2,115196, Note_on_c,0,50,77
2,115248, Control_c,0,64,0
2,115272, Note_on_c,0,42,84
2,115278, Note_on_c,0,30,83
2,115286, Note_on_c,0,54,85
2,115342, Note_off_c,0,50,64
2,115348, Note_off_c,0,58,64
2,115370, Note_on_c,0,62,68
2,115392, Note_off_c,0,38,64
2,115444, Note_off_c,0,54,64
2,115456, Control_c,0,64,127
2,115456, Note_on_c,0,58,72
2,115500, Note_off_c,0,62,64
2,115506, Note_off_c,0,58,64
2,115556, Note_on_c,0,62,78
2,115640, Note_on_c,0,66,67
2,115676, Note_off_c,0,62,64
2,115730, Note_on_c,0,74,71
2,115760, Note_off_c,0,66,64
2,115810, Note_on_c,0,70,62
2,115832, Note_off_c,0,74,64
2,115890, Note_on_c,0,74,63
2,115942, Note_off_c,0,70,64
2,115986, Note_on_c,0,66,37
2,115988, Note_off_c,0,74,64
2,116032, Note_off_c,0,66,64
2,116042, Note_on_c,0,62,57
2,116080, Note_off_c,0,62,64
2,116088, Note_off_c,0,30,64
2,116114, Note_off_c,0,42,64
2,116138, Note_on_c,0,58,51
2,116168, Note_on_c,0,38,69
2,116244, Note_on_c,0,50,58
2,116280, Control_c,0,64,0
2,116344, Note_on_c,0,55,66
2,116352, Note_on_c,0,43,71
2,116356, Note_on_c,0,31,62
2,116362, Note_off_c,0,50,64
2,116382, Note_off_c,0,58,64
2,116412, Note_off_c,0,38,64
2,116428, Note_on_c,0,62,61
2,116450, Note_off_c,0,55,64
2,116514, Note_on_c,0,58,62
2,116528, Note_off_c,0,62,64
2,116538, Control_c,0,64,127
2,116548, Note_off_c,0,58,64
2,116588, Note_off_c,0,31,64
2,116590, Note_on_c,0,62,69
2,116664, Note_off_c,0,43,64
2,116688, Note_off_c,0,62,64
2,116692, Note_on_c,0,67,67
2,116784, Note_off_c,0,67,64
2,116784, Note_on_c,0,70,68
2,116852, Note_off_c,0,70,64
2,116886, Note_on_c,0,74,75
2,116976, Note_on_c,0,79,80
2,116990, Note_off_c,0,74,64
2,117070, Note_on_c,0,82,78
2,117080, Note_off_c,0,79,64
2,117080, Note_on_c,0,50,70
2,117082, Note_on_c,0,55,67
2,117124, Note_off_c,0,82,64
2,117140, Note_off_c,0,50,64
2,117176, Note_on_c,0,86,70
2,117216, Note_off_c,0,55,64
2,117256, Note_on_c,0,50,68
2,117256, Note_on_c,0,91,67
2,117262, Note_on_c,0,43,52
2,117336, Note_off_c,0,86,64
2,117344, Note_off_c,0,50,64
2,117348, Note_on_c,0,98,64
2,117352, Note_off_c,0,91,64
2,117416, Note_off_c,0,98,64
2,117434, Note_on_c,0,94,54
2,117448, Note_on_c,0,55,64
2,117464, Note_on_c,0,50,64
2,117528, Note_on_c,0,98,59
2,117546, Note_off_c,0,94,64
2,117606, Note_on_c,0,91,54
2,117608, Note_off_c,0,98,64
2,117646, Note_off_c,0,91,64
2,117670, Note_on_c,0,86,58
2,117710, Note_off_c,0,86,64
2,117736, Note_off_c,0,55,64
2,117768, Note_on_c,0,82,61
2,117856, Note_on_c,0,79,64
2,117874, Note_off_c,0,50,64
2,117890, Note_off_c,0,82,64
2,117916, Note_off_c,0,79,64
2,117920, Note_off_c,0,43,64
2,117936, Note_on_c,0,74,72
2,117968, Note_off_c,0,74,64
2,118026, Note_on_c,0,70,53
2,118128, Note_on_c,0,67,48
2,118156, Note_off_c,0,70,64
2,118168, Note_off_c,0,67,64
2,118198, Note_on_c,0,62,45
2,118240, Note_off_c,0,62,64
2,118286, Note_on_c,0,58,53
2,118330, Note_on_c,0,38,66
2,118400, Note_on_c,0,50,74
2,118480, Control_c,0,64,0
2,118500, Note_on_c,0,42,81
2,118504, Note_on_c,0,30,72
2,118506, Note_on_c,0,54,78
2,118544, Note_off_c,0,50,64
2,118550, Note_off_c,0,38,64
2,118552, Note_off_c,0,58,64
2,118598, Note_on_c,0,62,63
2,118634, Note_off_c,0,54,64
2,118664, Control_c,0,64,127
2,118688, Note_on_c,0,58,61
2,118712, Note_off_c,0,62,64
2,118728, Note_off_c,0,58,64
2,118776, Note_on_c,0,62,71
2,118882, Note_on_c,0,66,53
2,118910, Note_off_c,0,62,64
2,118964, Note_on_c,0,74,63
2,118976, Note_off_c,0,66,64
2,119024, Note_off_c,0,74,64
2,119060, Note_on_c,0,70,58
2,119156, Note_on_c,0,74,60
2,119176, Note_off_c,0,70,64
2,119250, Note_on_c,0,66,47
2,119254, Note_off_c,0,74,64
2,119318, Note_off_c,0,42,64
2,119322, Note_off_c,0,66,64
2,119344, Note_on_c,0,62,26
2,119364, Note_off_c,0,30,64
2,119398, Note_off_c,0,62,64
2,119438, Note_on_c,0,58,41
2,119474, Note_on_c,0,38,64
2,119552, Note_on_c,0,50,65
2,119684, Note_off_c,0,50,64
2,119684, Control_c,0,64,0
2,119698, Note_on_c,0,41,77
2,119698, Note_on_c,0,29,64
2,119704, Note_off_c,0,38,64
2,119704, Note_on_c,0,53,82
2,119736, Note_off_c,0,58,64
2,119836, Note_on_c,0,62,58
2,119844, Note_off_c,0,53,64
2,119918, Control_c,0,64,127
2,119942, Note_on_c,0,58,52
2,119960, Note_off_c,0,62,64
2,119978, Note_off_c,0,58,64
2,120042, Note_on_c,0,62,57
2,120112, Note_off_c,0,62,64
2,120162, Note_on_c,0,65,53
2,120238, Note_off_c,0,41,64
2,120272, Note_off_c,0,65,64
2,120278, Note_on_c,0,74,34
2,120368, Note_off_c,0,74,64
2,120378, Note_on_c,0,70,44
2,120506, Note_on_c,0,74,55
2,120518, Note_off_c,0,70,64
2,120624, Note_off_c,0,74,64
2,120646, Note_on_c,0,65,57
2,120738, Note_off_c,0,65,64
2,120768, Note_on_c,0,62,52
2,120808, Note_off_c,0,62,64
2,120890, Note_on_c,0,58,48
2,120908, Note_on_c,0,43,58
2,121066, Note_on_c,0,50,53
2,121128, Note_off_c,0,43,64
2,121256, Note_off_c,0,50,64
2,121294, Note_on_c,0,45,55
2,121296, Note_on_c,0,53,65
2,121344, Control_c,0,64,0
2,121354, Note_off_c,0,58,64
2,121504, Note_on_c,0,60,48
2,121590, Control_c,0,64,127
2,121634, Note_off_c,0,60,64
2,121650, Note_on_c,0,57,50
2,121654, Note_off_c,0,53,64
2,121780, Note_off_c,0,57,64
2,121798, Note_on_c,0,60,65
2,121864, Note_off_c,0,29,64
2,121948, Note_on_c,0,65,43
2,121950, Note_off_c,0,60,64
2,121960, Note_off_c,0,45,64
2,122056, Note_off_c,0,65,64
2,122074, Note_on_c,0,69,52
2,122144, Note_off_c,0,69,64
2,122198, Note_on_c,0,72,63
2,122252, Note_off_c,0,72,64
2,122316, Note_on_c,0,77,61
2,122406, Note_off_c,0,77,64
2,122424, Note_on_c,0,81,64
2,122428, Note_on_c,0,65,47
2,122436, Note_on_c,0,60,37
2,122476, Note_off_c,0,81,64
2,122512, Note_off_c,0,60,64
2,122554, Note_on_c,0,84,70
2,122632, Note_off_c,0,65,64
2,122648, Note_off_c,0,84,64
2,122678, Note_on_c,0,60,47
2,122686, Note_on_c,0,53,54
2,122688, Note_on_c,0,89,55
2,122742, Note_off_c,0,60,64
2,122758, Note_off_c,0,89,64
2,122830, Note_on_c,0,93,57
2,122868, Note_off_c,0,93,64
2,123066, Note_on_c,0,101,58
2,123082, Note_on_c,0,65,41
2,123096, Note_on_c,0,60,31
2,123116, Note_off_c,0,101,64
2,123742, Note_off_c,0,53,64
2,123944, Note_off_c,0,60,64
2,123968, Note_off_c,0,65,64
2,124258, Note_on_c,0,60,31
2,124260, Note_on_c,0,53,39
2,124428, Note_off_c,0,60,64
2,124608, Note_on_c,0,60,37
2,124610, Note_on_c,0,65,34
2,124632, Note_off_c,0,53,64
2,125426, Note_off_c,0,60,64
2,125612, Note_off_c,0,65,64
2,125822, Note_on_c,0,53,56
2,125822, Note_on_c,0,60,28
2,125988, Note_off_c,0,60,64
2,126230, Note_on_c,0,65,37
2,126238, Note_on_c,0,60,36
2,126256, Note_off_c,0,53,64
2,126570, Note_off_c,0,60,64
2,126698, Note_off_c,0,65,64
2,126992, Note_on_c,0,60,25
2,126998, Note_on_c,0,53,35
2,127088, Note_off_c,0,53,64
2,127174, Note_off_c,0,60,64
2,127368, Note_on_c,0,65,27
2,127376, Note_on_c,0,60,14
2,127506, Note_off_c,0,60,64
2,127610, Note_off_c,0,65,64
2,127854, Note_on_c,0,60,21
2,127866, Note_on_c,0,53,31
2,128072, Note_off_c,0,60,64
2,128242, Note_off_c,0,53,64
2,128384, Note_on_c,0,65,59
2,128410, Note_on_c,0,60,24
2,128960, Note_on_c,0,34,30
2,129224, Control_c,0,64,0
2,129320, Note_on_c,0,46,36
2,129376, Note_off_c,0,34,64
2,129384, Control_c,0,64,127
2,129448, Note_off_c,0,46,64
2,129604, Note_on_c,0,56,39
2,129780, Note_off_c,0,56,64
2,129880, Note_on_c,0,67,55
2,129892, Note_off_c,0,60,64
2,129902, Note_on_c,0,62,37
2,129906, Note_on_c,0,53,39
2,130006, Note_off_c,0,65,64
2,130288, Note_on_c,0,60,23
2,130526, Note_off_c,0,53,64
2,130562, Note_off_c,0,67,64
2,130588, Note_off_c,0,60,64
2,130786, Note_on_c,0,67,54
2,130792, Note_on_c,0,58,18
2,130882, Note_off_c,0,58,64
2,131076, Note_off_c,0,62,64
2,131130, Note_on_c,0,39,33
2,131144, Note_on_c,0,63,48
2,131228, Control_c,0,64,0
2,131274, Note_off_c,0,67,64
2,131472, Control_c,0,64,127
2,131502, Note_on_c,0,46,24
2,131574, Note_off_c,0,39,64
2,131756, Note_off_c,0,63,64
2,131800, Note_off_c,0,46,64
2,131820, Note_on_c,0,51,31
2,131966, Note_off_c,0,51,64
2,132072, Note_on_c,0,55,33
2,132260, Note_off_c,0,55,64
2,132274, Note_on_c,0,75,59
2,132292, Note_on_c,0,58,19
2,132498, Note_off_c,0,58,64
2,132652, Note_on_c,0,63,34
2,132746, Note_on_c,0,74,74
2,132766, Note_off_c,0,75,64
2,132784, Note_off_c,0,63,64
2,132970, Note_on_c,0,72,67
2,132972, Control_c,0,64,0
2,132976, Note_on_c,0,60,18
2,133004, Note_on_c,0,67,23
2,133016, Note_off_c,0,74,64
2,133250, Note_on_c,0,63,33
2,133280, Control_c,0,64,127
2,133338, Note_off_c,0,60,64
2,133374, Note_off_c,0,63,64
2,133500, Note_on_c,0,53,55
2,133640, Note_off_c,0,53,64
2,133698, Note_off_c,0,67,64
2,133746, Control_c,0,64,0
2,133754, Note_on_c,0,74,69
2,133758, Note_on_c,0,69,28
2,133760, Note_on_c,0,63,39
2,133806, Note_off_c,0,72,64
2,133968, Control_c,0,64,127
2,134056, Note_off_c,0,63,64
2,134062, Note_on_c,0,67,30
2,134214, Note_off_c,0,74,64
2,134284, Note_off_c,0,67,64
2,134434, Note_on_c,0,74,51
2,134440, Note_on_c,0,65,31
2,134486, Note_off_c,0,65,64
2,134528, Note_off_c,0,69,64
2,134740, Note_on_c,0,70,36
2,134744, Note_on_c,0,46,22
2,134804, Control_c,0,64,0
2,134842, Note_off_c,0,74,64
2,135062, Control_c,0,64,127
2,135080, Note_on_c,0,53,35
2,135130, Note_off_c,0,46,64
2,135176, Note_off_c,0,53,64
2,135250, Note_off_c,0,70,64
2,135348, Note_on_c,0,58,24
2,135440, Note_off_c,0,58,64
2,135584, Note_on_c,0,82,69
2,135608, Note_on_c,0,62,29
2,135684, Note_off_c,0,62,64
2,135848, Note_off_c,0,82,64
2,135876, Note_on_c,0,65,21
2,135944, Note_off_c,0,65,64
2,136104, Note_on_c,0,70,29
2,136140, Note_on_c,0,82,77
2,136208, Note_off_c,0,70,64
2,136304, Note_off_c,0,82,64
2,136368, Note_on_c,0,60,25
2,136402, Note_on_c,0,82,58
2,136452, Control_c,0,64,0
2,136660, Control_c,0,64,127
2,136662, Note_on_c,0,63,32
2,136696, Note_off_c,0,60,64
2,136824, Note_off_c,0,63,64
2,136984, Note_on_c,0,53,46
2,136988, Note_on_c,0,80,62
2,137044, Note_off_c,0,82,64
2,137060, Note_off_c,0,53,64
2,137164, Note_off_c,0,80,64
2,137228, Note_on_c,0,80,60
2,137240, Note_on_c,0,58,20
2,137410, Control_c,0,64,0
2,137484, Note_on_c,0,62,34
2,137496, Note_on_c,0,79,79
2,137582, Control_c,0,64,127
2,137600, Note_off_c,0,80,64
2,137692, Note_off_c,0,62,64
2,137744, Note_off_c,0,58,64
2,137760, Note_on_c,0,68,30
2,137764, Note_on_c,0,78,73
2,137790, Note_off_c,0,79,64
2,137880, Note_off_c,0,68,64
2,137944, Note_off_c,0,78,64
2,137984, Note_on_c,0,58,27
2,138056, Note_on_c,0,78,48
2,138184, Control_c,0,64,0
2,138296, Note_on_c,0,62,29
2,138336, Note_off_c,0,58,64
2,138344, Control_c,0,64,127
2,138444, Note_off_c,0,62,64
2,138608, Note_on_c,0,51,20
2,138638, Note_on_c,0,79,45
2,138688, Note_off_c,0,78,64
2,138750, Control_c,0,64,0
2,138874, Note_on_c,0,56,23
2,138958, Note_off_c,0,51,64
2,138970, Control_c,0,64,127
2,139072, Note_off_c,0,56,64
2,139166, Note_on_c,0,60,20
2,139228, Note_on_c,0,80,62
2,139250, Note_off_c,0,60,64
2,139274, Note_off_c,0,79,64
2,139470, Note_on_c,0,67,25
2,139530, Note_off_c,0,67,64
2,139594, Note_on_c,0,75,55
2,139776, Note_on_c,0,56,31
2,139796, Note_on_c,0,79,74
2,139830, Note_off_c,0,80,64
2,139866, Note_off_c,0,75,64
2,139868, Control_c,0,64,0
2,140058, Note_on_c,0,60,41
2,140078, Control_c,0,64,127
2,140088, Note_off_c,0,56,64
2,140216, Note_off_c,0,60,64
2,140418, Note_on_c,0,50,18
2,140418, Note_on_c,0,77,53
2,140488, Note_off_c,0,79,64
2,140618, Control_c,0,64,0
2,140664, Note_on_c,0,55,32
2,140796, Note_off_c,0,50,64
2,140802, Control_c,0,64,127
2,140922, Note_on_c,0,79,78
2,140928, Note_on_c,0,59,25
2,140944, Note_off_c,0,55,64
2,140992, Note_off_c,0,77,64
2,141006, Note_off_c,0,59,64
2,141166, Note_on_c,0,65,26
2,141222, Note_off_c,0,65,64
2,141258, Note_on_c,0,74,70
2,141466, Note_on_c,0,77,76
2,141490, Note_on_c,0,55,21
2,141504, Control_c,0,64,0
2,141506, Note_off_c,0,74,64
2,141564, Note_off_c,0,79,64
2,141724, Control_c,0,64,127
2,141814, Note_on_c,0,75,65
2,141832, Note_on_c,0,60,23
2,141888, Note_off_c,0,77,64
2,141936, Note_off_c,0,55,64
2,141968, Note_off_c,0,60,64
2,142108, Note_on_c,0,74,71
2,142130, Note_on_c,0,48,18
2,142168, Note_off_c,0,75,64
2,142352, Note_on_c,0,72,68
2,142376, Control_c,0,64,0
2,142384, Note_on_c,0,53,47
2,142390, Note_off_c,0,74,64
2,142532, Note_on_c,0,74,69
2,142536, Note_off_c,0,72,64
2,142572, Control_c,0,64,127
2,142652, Note_off_c,0,48,64
2,142656, Note_on_c,0,72,54
2,142662, Note_off_c,0,74,64
2,142750, Note_off_c,0,72,64
2,142770, Note_on_c,0,71,63
2,142822, Note_on_c,0,57,22
2,142944, Note_on_c,0,72,65
2,142976, Note_off_c,0,71,64
2,143112, Control_c,0,64,0
2,143146, Note_on_c,0,74,52
2,143184, Note_off_c,0,72,64
2,143216, Note_on_c,0,63,25
2,143334, Note_off_c,0,53,64
2,143370, Control_c,0,64,127
2,143374, Note_off_c,0,63,64
2,143378, Note_off_c,0,74,64
2,143390, Note_off_c,0,57,64
2,143418, Note_on_c,0,75,39
2,143540, Note_off_c,0,75,64
2,143752, Note_on_c,0,53,35
2,143756, Note_on_c,0,65,44
2,143784, Note_on_c,0,60,12
2,143936, Control_c,0,64,0
2,144128, Note_on_c,0,56,28
2,144134, Control_c,0,64,127
2,144184, Note_off_c,0,53,64
2,144300, Note_off_c,0,56,64
2,144428, Note_on_c,0,46,24
2,144606, Note_off_c,0,60,64
2,144662, Control_c,0,64,0
2,144676, Note_on_c,0,67,48
2,144682, Note_on_c,0,62,29
2,144692, Note_on_c,0,56,19
2,144744, Note_off_c,0,65,64
2,144840, Note_off_c,0,46,64
2,144896, Control_c,0,64,127
2,145008, Note_off_c,0,56,64
2,145062, Note_on_c,0,60,9
2,145186, Note_off_c,0,67,64
2,145392, Note_off_c,0,60,64
2,145460, Note_on_c,0,67,32
2,145472, Note_on_c,0,58,12
2,145546, Note_off_c,0,58,64
2,145622, Note_off_c,0,62,64
2,145874, Note_on_c,0,63,42
2,145890, Note_on_c,0,39,18
2,145928, Control_c,0,64,0
2,146028, Note_off_c,0,67,64
2,146248, Control_c,0,64,127
2,146278, Note_on_c,0,46,17
2,146302, Note_off_c,0,39,64
2,146584, Note_off_c,0,46,64
2,146594, Note_on_c,0,51,32
2,146806, Note_off_c,0,51,64
2,146860, Note_off_c,0,63,64
2,146870, Note_on_c,0,55,39
2,147102, Note_off_c,0,55,64
2,147126, Note_on_c,0,75,61
2,147156, Note_on_c,0,58,21
2,147404, Note_off_c,0,58,64
2,147476, Note_on_c,0,63,43
2,147584, Note_on_c,0,74,66
2,147594, Note_off_c,0,75,64
2,147656, Note_off_c,0,63,64
2,147816, Note_on_c,0,72,65
2,147836, Note_on_c,0,60,20
2,147852, Note_on_c,0,67,17
2,147882, Control_c,0,64,0
2,147920, Note_off_c,0,74,64
2,148088, Note_on_c,0,63,27
2,148116, Control_c,0,64,127
2,148152, Note_off_c,0,60,64
2,148176, Note_off_c,0,63,64
2,148318, Note_on_c,0,53,47
2,148552, Note_off_c,0,67,64
2,148582, Note_on_c,0,74,61
2,148584, Note_on_c,0,63,41
2,148592, Note_on_c,0,69,22
2,148620, Control_c,0,64,0
2,148632, Note_off_c,0,53,64
2,148656, Note_off_c,0,72,64
2,148816, Control_c,0,64,127
2,148880, Note_off_c,0,63,64
2,148880, Note_on_c,0,67,34
2,149058, Note_off_c,0,74,64
2,149138, Note_off_c,0,67,64
2,149232, Note_on_c,0,74,57
2,149238, Note_on_c,0,65,31
2,149282, Note_off_c,0,65,64
2,149434, Note_off_c,0,69,64
2,149526, Note_on_c,0,70,43
2,149548, Note_on_c,0,46,22
2,149566, Control_c,0,64,0
2,149652, Note_off_c,0,74,64
2,149818, Note_on_c,0,53,55
2,149882, Note_off_c,0,46,64
2,149886, Control_c,0,64,127
2,149888, Note_off_c,0,53,64
2,149940, Note_off_c,0,70,64
2,150052, Note_on_c,0,58,40
2,150190, Note_off_c,0,58,64
2,150312, Note_on_c,0,82,74
2,150312, Note_on_c,0,62,36
2,150588, Note_on_c,0,65,52
2,150648, Note_off_c,0,62,64
2,150686, Note_off_c,0,82,64
2,150752, Note_off_c,0,65,64
2,150918, Note_on_c,0,70,28
2,150972, Note_off_c,0,70,64
2,150986, Note_on_c,0,82,74
2,151212, Note_off_c,0,82,64
2,151362, Note_on_c,0,82,63
2,151374, Control_c,0,64,0
2,151392, Note_on_c,0,36,29
2,151568, Note_off_c,0,36,64
2,151570, Control_c,0,64,127
2,151866, Note_on_c,0,64,30
2,152030, Note_off_c,0,64,64
2,152186, Note_on_c,0,58,23
2,152338, Note_off_c,0,58,64
2,152480, Note_on_c,0,72,53
2,152504, Note_on_c,0,55,25
2,152714, Note_off_c,0,82,64
2,152774, Note_off_c,0,55,64
2,152820, Note_on_c,0,64,38
2,153032, Note_off_c,0,64,64
2,153194, Note_on_c,0,74,72
2,153216, Note_on_c,0,58,20
2,153324, Note_off_c,0,72,64
2,153422, Note_off_c,0,58,64
2,153468, Note_on_c,0,75,62
2,153504, Note_off_c,0,74,64
2,153504, Note_on_c,0,53,44
2,153524, Control_c,0,64,0
2,153612, Note_on_c,0,77,73
2,153638, Note_off_c,0,75,64
2,153672, Control_c,0,64,127
2,153694, Note_on_c,0,75,61
2,153742, Note_off_c,0,77,64
2,153830, Note_on_c,0,63,29
2,153840, Note_on_c,0,74,79
2,153862, Note_off_c,0,75,64
2,153906, Control_c,0,64,0
2,154064, Control_c,0,64,127
2,154124, Note_on_c,0,75,70
2,154126, Note_off_c,0,63,64
2,154138, Note_on_c,0,57,23
2,154194, Note_off_c,0,74,64
2,154206, Note_off_c,0,53,64
2,154218, Note_off_c,0,57,64
2,154422, Control_c,0,64,0
2,154466, Note_on_c,0,79,66
2,154474, Note_on_c,0,46,22
2,154514, Note_off_c,0,75,64
2,154742, Control_c,0,64,127
2,154806, Note_off_c,0,46,64
2,154824, Note_off_c,0,79,64
2,154996, Note_on_c,0,62,14
2,155000, Note_on_c,0,79,52
2,155208, Note_off_c,0,62,64
2,155422, Note_on_c,0,56,16
2,155638, Note_off_c,0,56,64
2,155740, Note_on_c,0,77,37
2,155798, Note_off_c,0,79,64
2,155968, Note_off_c,0,77,64
2,155974, Note_on_c,0,75,38
2,156144, Note_off_c,0,75,64
2,156230, Note_on_c,0,39,17
2,156288, Note_on_c,0,75,30
2,156314, Control_c,0,64,0
2,156496, Note_off_c,0,39,64
2,156498, Note_on_c,0,46,20
2,156512, Control_c,0,64,127
2,156588, Note_off_c,0,46,64
2,156726, Note_on_c,0,55,14
2,156840, Note_off_c,0,55,64
2,156896, Note_on_c,0,51,9
2,156972, Note_off_c,0,51,64
2,157064, Note_on_c,0,58,19
2,157136, Note_off_c,0,58,64
2,157230, Note_on_c,0,55,19
2,157462, Note_off_c,0,55,64
2,157520, Note_on_c,0,63,17
2,157720, Note_off_c,0,63,64
2,157846, Note_on_c,0,67,24
2,157942, Note_off_c,0,75,64
2,158040, Note_on_c,0,68,32
2,158056, Note_off_c,0,67,64
2,158198, Note_on_c,0,70,41
2,158228, Note_off_c,0,68,64
2,158340, Note_off_c,0,70,64
2,158348, Note_on_c,0,74,54
2,158462, Note_off_c,0,74,64
2,158478, Note_on_c,0,72,52
2,158608, Note_on_c,0,39,21
2,158636, Note_on_c,0,70,46
2,158664, Note_off_c,0,72,64
2,158674, Control_c,0,64,0
2,158816, Note_off_c,0,39,64
2,158824, Note_on_c,0,46,19
2,158834, Control_c,0,64,127
2,158890, Note_off_c,0,46,64
2,158984, Note_on_c,0,55,41
2,159038, Note_off_c,0,55,64
2,159144, Note_on_c,0,51,44
2,159206, Note_off_c,0,51,64
2,159282, Note_on_c,0,58,29
2,159372, Note_off_c,0,58,64
2,159454, Note_on_c,0,55,32
2,159604, Note_off_c,0,55,64
2,159640, Note_on_c,0,63,34
2,159774, Note_off_c,0,63,64
2,159890, Note_on_c,0,67,39
2,159916, Note_off_c,0,70,64
2,160080, Note_on_c,0,68,54
2,160086, Note_off_c,0,67,64
2,160246, Note_on_c,0,70,50
2,160280, Note_off_c,0,68,64
2,160374, Note_off_c,0,70,64
2,160380, Note_on_c,0,74,58
2,160488, Note_off_c,0,74,64
2,160488, Note_on_c,0,72,55
2,160572, Note_on_c,0,39,28
2,160606, Note_on_c,0,70,50
2,160612, Note_off_c,0,72,64
2,160616, Control_c,0,64,0
2,160756, Note_off_c,0,39,64
2,160766, Control_c,0,64,127
2,160776, Note_on_c,0,46,23
2,160840, Note_off_c,0,46,64
2,160938, Note_on_c,0,56,23
2,161018, Note_off_c,0,56,64
2,161114, Note_on_c,0,53,47
2,161184, Note_off_c,0,53,64
2,161272, Note_on_c,0,58,15
2,161400, Note_off_c,0,58,64
2,161402, Note_on_c,0,56,41
2,161546, Note_off_c,0,70,64
2,161584, Note_off_c,0,56,64
2,161604, Note_on_c,0,62,38
2,161786, Note_off_c,0,62,64
2,161848, Note_on_c,0,65,44
2,162022, Note_on_c,0,68,60
2,162050, Note_off_c,0,65,64
2,162176, Note_on_c,0,70,58
2,162236, Note_off_c,0,68,64
2,162304, Note_on_c,0,74,72
2,162314, Note_off_c,0,70,64
2,162416, Note_on_c,0,72,65
2,162424, Note_off_c,0,74,64
2,162504, Note_on_c,0,39,22
2,162546, Note_on_c,0,70,64
2,162560, Control_c,0,64,0
2,162576, Note_off_c,0,72,64
2,162690, Note_on_c,0,46,35
2,162700, Note_off_c,0,39,64
2,162720, Control_c,0,64,127
2,162764, Note_off_c,0,46,64
2,162850, Note_on_c,0,55,52
2,162898, Note_off_c,0,55,64
2,162992, Note_on_c,0,61,60
2,163016, Note_off_c,0,70,64
2,163112, Note_on_c,0,63,66
2,163128, Note_off_c,0,61,64
2,163236, Note_off_c,0,63,64
2,163238, Note_on_c,0,67,61
2,163356, Note_on_c,0,72,58
2,163360, Note_off_c,0,67,64
2,163460, Note_on_c,0,70,56
2,163462, Note_off_c,0,72,64
2,163590, Note_on_c,0,68,58
2,163596, Note_off_c,0,70,64
2,163606, Note_on_c,0,39,29
2,163628, Control_c,0,64,0
2,163820, Note_on_c,0,47,29
2,163840, Note_off_c,0,39,64
2,163850, Control_c,0,64,127
2,164012, Note_off_c,0,47,64
2,164056, Note_on_c,0,56,20
2,164178, Note_off_c,0,56,64
2,164272, Note_on_c,0,59,33
2,164446, Note_off_c,0,59,64
2,164482, Note_on_c,0,63,41
2,164540, Note_off_c,0,68,64
2,164686, Note_on_c,0,65,31
2,164704, Note_off_c,0,63,64
2,164870, Control_c,0,64,0
2,164874, Note_on_c,0,39,20
2,164878, Note_on_c,0,67,40
2,164906, Note_off_c,0,65,64
2,165072, Note_off_c,0,39,64
2,165072, Note_on_c,0,46,28
2,165104, Control_c,0,64,127
2,165146, Note_off_c,0,46,64
2,165272, Note_on_c,0,55,16
2,165346, Note_off_c,0,55,64
2,165432, Note_on_c,0,51,26
2,165520, Note_off_c,0,51,64
2,165576, Note_on_c,0,58,19
2,165680, Note_off_c,0,58,64
2,165792, Note_on_c,0,55,22
2,165934, Note_off_c,0,67,64
2,166004, Note_off_c,0,55,64
2,166050, Note_on_c,0,63,14
2,166394, Note_off_c,0,63,64
2,166426, Note_on_c,0,67,20
2,166588, Note_on_c,0,68,43
2,166620, Note_off_c,0,67,64
2,166726, Note_on_c,0,70,40
2,166748, Note_off_c,0,68,64
2,166846, Note_on_c,0,74,50
2,166852, Note_off_c,0,70,64
2,166924, Note_off_c,0,74,64
2,166946, Note_on_c,0,72,46
2,167054, Note_on_c,0,39,22
2,167058, Control_c,0,64,0
2,167080, Note_off_c,0,72,64
2,167094, Note_on_c,0,70,42
2,167230, Control_c,0,64,127
2,167252, Note_off_c,0,39,64
2,167304, Note_on_c,0,46,13
2,167328, Note_off_c,0,70,64
2,167408, Note_off_c,0,46,64
2,167550, Note_on_c,0,55,23
2,167598, Note_on_c,0,82,55
2,167664, Note_off_c,0,55,64
2,167788, Note_on_c,0,51,26
2,167876, Note_off_c,0,51,64
2,167934, Note_on_c,0,58,17
2,168036, Note_off_c,0,58,64
2,168112, Note_on_c,0,55,28
2,168280, Note_off_c,0,55,64
2,168314, Note_off_c,0,82,64
2,168322, Note_on_c,0,63,26
2,168448, Note_off_c,0,63,64
2,168808, Note_on_c,0,67,25
2,168894, Note_off_c,0,67,64
2,168930, Note_on_c,0,68,39
2,169064, Note_off_c,0,68,64
2,169064, Note_on_c,0,70,28
2,169182, Note_on_c,0,74,41
2,169192, Note_off_c,0,70,64
2,169286, Note_off_c,0,74,64
2,169288, Note_on_c,0,72,38
2,169382, Control_c,0,64,0
2,169392, Note_on_c,0,39,24
2,169400, Note_on_c,0,70,43
2,169408, Note_off_c,0,72,64
2,169540, Control_c,0,64,127
2,169568, Note_off_c,0,39,64
2,169608, Note_on_c,0,46,20
2,169614, Note_off_c,0,70,64
2,169776, Note_off_c,0,46,64
2,169818, Note_on_c,0,56,21
2,169886, Note_on_c,0,82,59
2,170002, Note_off_c,0,56,64
2,170072, Note_on_c,0,53,49
2,170136, Note_off_c,0,53,64
2,170228, Note_on_c,0,58,32
2,170396, Note_on_c,0,56,32
2,170400, Note_off_c,0,58,64
2,170608, Note_off_c,0,56,64
2,170640, Note_on_c,0,62,36
2,170698, Note_off_c,0,82,64
2,171166, Note_off_c,0,62,64
2,171168, Note_on_c,0,65,30
2,171292, Note_on_c,0,68,37
2,171320, Note_off_c,0,65,64
2,171408, Note_on_c,0,70,38
2,171436, Note_off_c,0,68,64
2,171530, Note_off_c,0,70,64
2,171530, Note_on_c,0,74,57
2,171598, Note_off_c,0,74,64
2,171648, Note_on_c,0,72,52
2,171760, Note_on_c,0,70,59
2,171762, Note_on_c,0,39,23
2,171768, Note_off_c,0,72,64
2,171778, Control_c,0,64,0
2,171940, Note_off_c,0,39,64
2,171942, Note_on_c,0,46,33
2,171950, Control_c,0,64,127
2,172086, Note_off_c,0,46,64
2,172144, Note_on_c,0,55,47
2,172230, Note_off_c,0,55,64
2,172312, Note_on_c,0,61,57
2,172360, Note_off_c,0,70,64
2,172448, Note_on_c,0,63,58
2,172488, Note_off_c,0,61,64
2,172568, Note_off_c,0,63,64
2,172568, Note_on_c,0,67,57
2,172686, Note_on_c,0,72,58
2,172698, Note_off_c,0,67,64
2,172774, Note_on_c,0,70,54
2,172786, Note_off_c,0,72,64
2,172836, Control_c,0,64,0
2,172878, Note_on_c,0,39,28
2,172894, Note_on_c,0,68,58
2,172922, Note_off_c,0,70,64
2,173032, Control_c,0,64,127
2,173080, Note_off_c,0,39,64
2,173084, Note_on_c,0,47,29
2,173250, Note_on_c,0,56,27
2,173254, Note_off_c,0,47,64
2,173416, Note_off_c,0,56,64
2,173460, Note_on_c,0,59,40
2,173716, Note_on_c,0,63,43
2,173832, Note_off_c,0,68,64
2,173902, Note_off_c,0,59,64
2,173952, Note_on_c,0,65,38
2,174012, Note_off_c,0,63,64
2,174188, Note_on_c,0,39,17
2,174192, Note_on_c,0,67,39
2,174224, Note_off_c,0,65,64
2,174224, Control_c,0,64,0
2,174420, Note_on_c,0,46,23
2,174420, Control_c,0,64,127
2,174426, Note_off_c,0,39,64
2,174556, Note_off_c,0,46,64
2,174618, Note_on_c,0,55,31
2,174800, Note_on_c,0,51,46
2,174806, Note_off_c,0,55,64
2,174960, Note_on_c,0,58,32
2,174962, Note_off_c,0,51,64
2,175112, Note_off_c,0,58,64
2,175128, Note_off_c,0,67,64
2,175138, Note_on_c,0,55,36
2,175288, Note_off_c,0,55,64
2,175328, Note_on_c,0,63,43
2,175404, Note_off_c,0,63,64
2,175498, Note_on_c,0,67,59
2,175756, Note_on_c,0,70,53
2,175776, Note_off_c,0,67,64
2,176008, Note_off_c,0,70,64
2,176016, Note_on_c,0,79,82
2,176256, Note_on_c,0,77,68
2,176320, Note_off_c,0,79,64
2,176464, Note_on_c,0,75,70
2,176512, Note_off_c,0,77,64
2,176584, Control_c,0,64,0
2,176672, Note_on_c,0,43,27
2,176696, Note_on_c,0,74,65
2,176740, Note_off_c,0,75,64
2,176926, Note_on_c,0,50,37
2,176940, Control_c,0,64,127
2,176944, Note_off_c,0,43,64
2,177014, Note_off_c,0,50,64
2,177114, Note_on_c,0,58,20
2,177192, Note_off_c,0,58,64
2,177326, Note_on_c,0,55,36
2,177416, Note_off_c,0,55,64
2,177492, Note_on_c,0,62,42
2,177560, Note_off_c,0,62,64
2,177652, Note_on_c,0,58,30
2,177842, Note_off_c,0,58,64
2,177850, Note_on_c,0,67,49
2,177896, Note_off_c,0,74,64
2,177974, Note_off_c,0,67,64
2,178032, Note_on_c,0,70,55
2,178232, Note_on_c,0,74,76
2,178238, Note_off_c,0,70,64
2,178396, Note_off_c,0,74,64
2,178420, Note_on_c,0,82,68
2,178606, Note_on_c,0,74,64
2,178650, Note_off_c,0,82,64
2,178826, Note_on_c,0,75,58
2,178836, Note_off_c,0,74,64
2,179092, Note_on_c,0,46,23
2,179096, Note_on_c,0,76,50
2,179110, Note_off_c,0,75,64
2,179116, Control_c,0,64,0
2,179376, Control_c,0,64,127
2,179400, Note_on_c,0,53,43
2,179442, Note_off_c,0,46,64
2,179476, Note_off_c,0,53,64
2,179662, Note_on_c,0,62,19
2,179678, Note_on_c,0,77,57
2,179758, Note_off_c,0,76,64
2,179810, Note_off_c,0,62,64
2,179888, Note_on_c,0,58,17
2,180078, Note_on_c,0,65,24
2,180168, Note_off_c,0,58,64
2,180200, Note_off_c,0,65,64
2,180280, Note_on_c,0,62,16
2,180360, Note_off_c,0,77,64
2,180452, Note_off_c,0,62,64
2,180480, Note_on_c,0,70,10
2,180640, Note_off_c,0,70,64
2,180694, Note_on_c,0,74,48
2,180920, Note_off_c,0,74,64
2,180944, Note_on_c,0,77,53
2,181150, Note_off_c,0,77,64
2,181184, Note_on_c,0,86,54
2,181402, Note_on_c,0,84,67
2,181456, Note_off_c,0,86,64
2,181602, Note_on_c,0,82,59
2,181654, Note_off_c,0,84,64
2,181802, Note_on_c,0,80,61
2,181832, Note_on_c,0,50,27
2,181866, Note_off_c,0,82,64
2,181944, Control_c,0,64,0
2,182022, Note_off_c,0,80,64
2,182022, Note_on_c,0,81,58
2,182056, Note_on_c,0,57,24
2,182096, Note_off_c,0,50,64
2,182116, Control_c,0,64,127
2,182126, Note_off_c,0,57,64
2,182262, Note_off_c,0,81,64
2,182276, Note_on_c,0,65,16
2,182276, Note_on_c,0,89,46
2,182426, Note_off_c,0,65,64
2,182520, Note_on_c,0,88,49
2,182560, Note_on_c,0,62,21
2,182596, Note_off_c,0,89,64
2,182634, Note_off_c,0,62,64
2,182734, Note_on_c,0,86,58
2,182742, Note_on_c,0,69,23
2,182778, Note_off_c,0,88,64
2,182852, Note_off_c,0,69,64
2,182902, Note_off_c,0,86,64
2,182934, Note_on_c,0,81,48
2,182940, Note_on_c,0,65,32
2,182984, Note_off_c,0,65,64
2,183000, Note_off_c,0,81,64
2,183150, Note_on_c,0,74,46
2,183270, Note_off_c,0,74,64
2,183334, Note_on_c,0,69,38
2,183566, Note_on_c,0,65,46
2,183596, Note_off_c,0,69,64
2,183790, Note_on_c,0,62,52
2,183830, Note_off_c,0,65,64
2,183830, Control_c,0,64,0
2,183984, Control_c,0,64,127
2,184052, Note_on_c,0,64,48
2,184082, Note_off_c,0,62,64
2,184082, Control_c,0,64,0
2,184268, Control_c,0,64,127
2,184320, Note_off_c,0,64,64
2,184368, Note_on_c,0,67,22
2,184416, Control_c,0,64,0
2,184424, Note_on_c,0,65,36
2,184442, Note_off_c,0,67,64
2,184660, Control_c,0,64,127
2,184864, Note_on_c,0,52,43
2,184938, Note_off_c,0,65,64
2,184992, Control_c,0,64,0
2,185422, Note_on_c,0,40,40
2,185472, Control_c,0,64,127
2,185580, Note_off_c,0,40,64
2,185910, Note_on_c,0,40,38
2,185938, Control_c,0,64,0
2,186062, Control_c,0,64,127
2,186088, Note_off_c,0,40,64
2,186530, Note_on_c,0,62,44
2,186822, Note_on_c,0,64,54
2,186848, Note_on_c,0,40,32
2,186862, Control_c,0,64,0
2,186984, Control_c,0,64,127
2,186986, Note_off_c,0,40,64
2,187022, Note_on_c,0,68,61
2,187098, Note_off_c,0,64,64
2,187226, Note_on_c,0,72,53
2,187254, Control_c,0,64,0
2,187256, Note_on_c,0,40,42
2,187272, Note_off_c,0,68,64
2,187364, Control_c,0,64,127
2,187380, Note_off_c,0,40,64
2,187418, Note_on_c,0,71,72
2,187448, Note_off_c,0,62,64
2,187490, Note_off_c,0,72,64
2,187638, Note_on_c,0,69,63
2,187668, Note_off_c,0,71,64
2,187870, Control_c,0,64,0
2,187976, Note_on_c,0,40,40
2,187982, Note_on_c,0,64,27
2,187984, Note_on_c,0,60,22
2,188114, Control_c,0,64,127
2,188126, Note_off_c,0,40,64
2,188156, Note_off_c,0,60,64
2,188166, Note_off_c,0,64,64
2,188336, Note_off_c,0,52,64
2,188352, Note_on_c,0,64,34
2,188368, Note_on_c,0,60,17
2,188368, Note_on_c,0,40,31
2,188418, Note_off_c,0,40,64
2,188436, Note_off_c,0,60,64
2,188456, Note_off_c,0,64,64
2,188492, Note_off_c,0,69,64
2,188706, Note_on_c,0,76,69
2,188718, Note_on_c,0,64,57
2,189036, Control_c,0,64,0
2,189078, Note_on_c,0,57,20
2,189080, Note_on_c,0,69,18
2,189088, Note_on_c,0,52,31
2,189196, Control_c,0,64,127
2,189258, Note_off_c,0,57,64
2,189260, Note_off_c,0,69,64
2,189262, Note_off_c,0,52,64
2,189504, Note_on_c,0,69,20
2,189522, Note_on_c,0,57,11
2,189540, Note_on_c,0,52,23
2,189628, Note_off_c,0,64,64
2,189630, Note_off_c,0,52,64
2,189638, Note_off_c,0,57,64
2,189654, Note_off_c,0,69,64
2,189896, Note_on_c,0,74,42
2,189912, Note_on_c,0,62,37
2,190054, Note_off_c,0,76,64
2,190192, Control_c,0,64,0
2,190250, Note_on_c,0,57,20
2,190256, Note_on_c,0,65,22
2,190260, Note_on_c,0,69,7
2,190272, Note_on_c,0,52,38
2,190390, Note_off_c,0,52,64
2,190410, Note_off_c,0,65,64
2,190410, Control_c,0,64,127
2,190422, Note_off_c,0,57,64
2,190430, Note_off_c,0,69,64
2,190710, Note_on_c,0,69,8
2,190720, Note_on_c,0,65,15
2,190748, Note_on_c,0,57,4
2,190752, Note_on_c,0,52,17
2,190840, Note_off_c,0,62,64
2,190852, Note_off_c,0,57,64
2,190902, Note_off_c,0,74,64
2,190904, Note_off_c,0,65,64
2,190954, Note_off_c,0,69,64
2,191150, Note_off_c,0,52,64
2,191318, Note_on_c,0,62,42
2,191556, Note_on_c,0,64,50
2,191580, Note_on_c,0,40,32
2,191712, Note_on_c,0,68,60
2,191760, Note_off_c,0,40,64
2,191760, Note_off_c,0,64,64
2,191900, Note_on_c,0,72,63
2,191918, Note_on_c,0,40,38
2,191940, Note_off_c,0,68,64
2,191940, Control_c,0,64,0
2,192064, Note_off_c,0,40,64
2,192072, Control_c,0,64,127
2,192076, Note_on_c,0,71,75
2,192120, Note_off_c,0,62,64
2,192134, Note_off_c,0,72,64
2,192274, Note_on_c,0,69,67
2,192312, Note_off_c,0,71,64
2,192540, Control_c,0,64,0
2,192608, Note_on_c,0,64,29
2,192612, Note_on_c,0,40,37
2,192616, Note_on_c,0,60,32
2,192760, Note_off_c,0,60,64
2,192760, Note_off_c,0,40,64
2,192762, Control_c,0,64,127
2,192776, Note_off_c,0,64,64
2,192954, Note_on_c,0,64,37
2,192962, Note_on_c,0,40,38
2,192968, Note_on_c,0,60,27
2,193020, Note_off_c,0,40,64
2,193084, Note_off_c,0,60,64
2,193122, Note_off_c,0,64,64
2,193342, Note_on_c,0,66,55
2,193370, Note_on_c,0,54,55
2,193406, Note_off_c,0,69,64
2,193632, Control_c,0,64,0
2,193696, Note_on_c,0,60,25
2,193696, Note_on_c,0,64,34
2,193704, Note_on_c,0,57,32
2,193714, Note_on_c,0,40,47
2,193818, Note_off_c,0,40,64
2,193818, Control_c,0,64,127
2,193854, Note_off_c,0,57,64
2,193856, Note_off_c,0,60,64
2,193866, Note_off_c,0,64,64
2,193910, Note_off_c,0,54,64
2,194064, Note_on_c,0,60,26
2,194072, Note_on_c,0,57,23
2,194074, Note_on_c,0,64,29
2,194082, Note_on_c,0,40,36
2,194126, Note_off_c,0,40,64
2,194200, Note_off_c,0,57,64
2,194282, Note_off_c,0,60,64
2,194498, Note_on_c,0,68,38
2,194504, Note_on_c,0,56,41
2,194568, Note_off_c,0,64,64
2,194580, Control_c,0,64,0
2,194596, Note_off_c,0,66,64
2,194752, Control_c,0,64,127
2,194820, Note_off_c,0,56,64
2,195022, Note_on_c,0,64,25
2,195026, Note_on_c,0,59,13
2,195032, Note_on_c,0,40,27
2,195116, Note_off_c,0,40,64
2,195150, Note_off_c,0,59,64
2,195166, Note_off_c,0,64,64
2,195436, Note_on_c,0,64,24
2,195436, Note_on_c,0,59,17
2,195450, Note_on_c,0,40,19
2,195538, Note_off_c,0,40,64
2,195544, Note_off_c,0,59,64
2,195602, Note_off_c,0,64,64
2,195696, Note_off_c,0,68,64
2,195984, Note_on_c,0,62,42
2,196210, Note_on_c,0,64,60
2,196248, Note_on_c,0,40,34
2,196316, Note_off_c,0,40,64
2,196368, Note_on_c,0,68,63
2,196400, Note_off_c,0,64,64
2,196494, Note_off_c,0,62,64
2,196532, Note_on_c,0,72,67
2,196568, Note_off_c,0,68,64
2,196596, Note_on_c,0,40,29
2,196648, Note_off_c,0,40,64
2,196692, Note_on_c,0,71,91
2,196758, Note_off_c,0,72,64
2,196884, Note_on_c,0,69,73
2,196914, Note_off_c,0,71,64
2,197100, Control_c,0,64,0
2,197170, Note_on_c,0,64,47
2,197188, Note_on_c,0,60,34
2,197218, Note_on_c,0,40,36
2,197346, Control_c,0,64,127
2,197354, Note_off_c,0,40,64
2,197358, Note_off_c,0,64,64
2,197370, Note_off_c,0,60,64
2,197534, Note_on_c,0,64,40
2,197542, Note_on_c,0,60,13
2,197554, Note_on_c,0,40,45
2,197592, Note_off_c,0,64,64
2,197594, Note_off_c,0,40,64
2,197602, Note_off_c,0,60,64
2,197616, Note_off_c,0,69,64
2,197856, Note_on_c,0,76,87
2,197880, Note_on_c,0,64,74
2,198076, Note_off_c,0,64,64
2,198170, Note_on_c,0,72,39
2,198172, Note_on_c,0,69,28
2,198178, Note_on_c,0,60,39
2,198184, Note_on_c,0,52,4
2,198192, Note_on_c,0,57,23
2,198256, Note_off_c,0,52,64
2,198260, Note_off_c,0,57,64
2,198266, Note_off_c,0,69,64
2,198300, Note_off_c,0,72,64
2,198326, Note_off_c,0,60,64
2,198490, Note_on_c,0,60,56
2,198490, Note_on_c,0,69,41
2,198496, Note_on_c,0,72,57
2,198498, Note_on_c,0,57,39
2,198504, Note_on_c,0,52,47
2,198550, Note_off_c,0,52,64
2,198554, Note_off_c,0,57,64
2,198556, Note_off_c,0,69,64
2,198560, Note_off_c,0,72,64
2,198560, Note_off_c,0,60,64
2,198578, Note_off_c,0,76,64
2,198776, Note_on_c,0,78,92
2,198792, Note_on_c,0,66,75
2,198976, Note_off_c,0,66,64
2,199040, Note_off_c,0,78,64
2,199132, Note_on_c,0,72,53
2,199138, Note_on_c,0,64,33
2,199144, Note_on_c,0,60,34
2,199152, Note_on_c,0,69,19
2,199162, Note_on_c,0,52,26
2,199166, Note_on_c,0,57,17
2,199224, Note_off_c,0,52,64
2,199244, Note_off_c,0,57,64
2,199246, Note_off_c,0,69,64
2,199256, Note_off_c,0,64,64
2,199264, Note_off_c,0,72,64
2,199272, Note_off_c,0,60,64
2,199516, Note_on_c,0,72,39
2,199526, Note_on_c,0,60,12
2,199528, Note_on_c,0,57,19
2,199528, Note_on_c,0,69,20
2,199528, Note_on_c,0,64,30
2,199536, Note_on_c,0,52,23
2,199602, Note_off_c,0,64,64
2,199602, Note_off_c,0,69,64
2,199636, Note_off_c,0,60,64
2,199648, Note_off_c,0,57,64
2,199674, Note_off_c,0,52,64
2,199690, Note_off_c,0,72,64
2,199990, Note_on_c,0,60,60
2,200232, Note_on_c,0,64,75
2,200254, Note_on_c,0,40,45
2,200384, Note_on_c,0,68,68
2,200412, Note_off_c,0,60,64
2,200450, Note_off_c,0,40,64
2,200500, Note_off_c,0,64,64
2,200552, Note_on_c,0,71,88
2,200568, Note_on_c,0,40,63
2,200592, Note_off_c,0,68,64
2,200622, Note_off_c,0,40,64
2,200688, Note_on_c,0,69,76
2,200744, Note_off_c,0,71,64
2,200768, Note_off_c,0,69,64
2,200836, Note_on_c,0,69,42
2,201106, Control_c,0,64,0
2,201120, Note_on_c,0,64,51
2,201120, Note_on_c,0,60,46
2,201136, Note_on_c,0,40,53
2,201266, Control_c,0,64,127
2,201278, Note_off_c,0,40,64
2,201288, Note_off_c,0,64,64
2,201290, Note_off_c,0,60,64
2,201410, Note_on_c,0,40,74
2,201412, Note_on_c,0,60,42
2,201424, Note_on_c,0,64,41
2,201440, Note_off_c,0,40,64
2,201458, Note_off_c,0,60,64
2,201464, Note_off_c,0,64,64
2,201464, Note_off_c,0,69,64
2,201670, Note_on_c,0,78,97
2,201678, Note_on_c,0,66,79
2,201790, Note_off_c,0,66,64
2,201942, Note_on_c,0,69,30
2,201950, Note_on_c,0,72,33
2,201958, Note_on_c,0,60,40
2,201976, Note_on_c,0,52,34
2,202022, Note_off_c,0,60,64
2,202028, Note_off_c,0,52,64
2,202032, Note_off_c,0,72,64
2,202034, Note_off_c,0,69,64
2,202196, Note_on_c,0,57,35
2,202200, Note_on_c,0,69,43
2,202202, Note_on_c,0,72,62
2,202204, Note_on_c,0,60,49
2,202204, Note_on_c,0,52,52
2,202246, Note_off_c,0,52,64
2,202248, Note_off_c,0,57,64
2,202256, Note_off_c,0,60,64
2,202302, Note_off_c,0,69,64
2,202320, Note_off_c,0,72,64
2,202362, Note_off_c,0,78,64
2,202444, Note_on_c,0,80,98
2,202448, Note_on_c,0,68,86
2,202448, Control_c,0,64,0
2,202558, Control_c,0,64,127
2,202562, Note_off_c,0,68,64
2,202704, Note_on_c,0,69,40
2,202712, Note_on_c,0,60,43
2,202712, Note_on_c,0,75,41
2,202716, Note_on_c,0,72,40
2,202722, Note_on_c,0,57,27
2,202724, Note_on_c,0,52,23
2,202776, Note_off_c,0,60,64
2,202782, Note_off_c,0,72,64
2,202784, Note_off_c,0,57,64
2,202788, Note_off_c,0,52,64
2,202816, Note_off_c,0,69,64
2,202840, Note_off_c,0,75,64
2,202964, Note_on_c,0,75,49
2,202968, Note_on_c,0,60,49
2,202968, Note_on_c,0,69,36
2,202972, Note_on_c,0,57,39
2,202976, Note_on_c,0,52,47
2,202978, Note_on_c,0,72,31
2,202986, Note_off_c,0,80,64
2,203020, Note_off_c,0,52,64
2,203020, Note_off_c,0,57,64
2,203020, Note_off_c,0,60,64
2,203048, Note_off_c,0,72,64
2,203064, Note_off_c,0,69,64
2,203102, Note_off_c,0,75,64
2,203182, Note_on_c,0,78,95
2,203186, Note_on_c,0,66,78
2,203284, Note_off_c,0,66,64
2,203442, Note_on_c,0,75,55
2,203446, Note_on_c,0,69,38
2,203456, Note_on_c,0,60,48
2,203456, Note_on_c,0,72,36
2,203464, Note_on_c,0,57,31
2,203476, Note_on_c,0,52,40
2,203522, Note_off_c,0,52,64
2,203522, Note_off_c,0,60,64
2,203534, Note_off_c,0,57,64
2,203566, Note_off_c,0,72,64
2,203566, Note_off_c,0,69,64
2,203642, Note_off_c,0,75,64
2,203662, Note_off_c,0,78,64
2,203824, Note_on_c,0,80,97
2,203826, Note_on_c,0,68,89
2,203878, Note_off_c,0,68,64
2,203904, Note_off_c,0,80,64
2,203936, Control_c,0,64,0
2,203962, Note_on_c,0,80,86
2,203968, Note_on_c,0,68,95
2,204056, Control_c,0,64,127
2,204092, Note_off_c,0,68,64
2,204196, Note_on_c,0,75,56
2,204202, Note_on_c,0,69,42
2,204208, Note_on_c,0,60,59
2,204208, Note_on_c,0,57,46
2,204214, Note_on_c,0,72,46
2,204220, Note_on_c,0,52,64
2,204264, Note_off_c,0,60,64
2,204266, Note_off_c,0,52,64
2,204266, Note_off_c,0,57,64
2,204272, Note_off_c,0,72,64
2,204290, Note_off_c,0,69,64
2,204320, Note_off_c,0,75,64
2,204428, Note_on_c,0,57,58
2,204430, Note_on_c,0,60,63
2,204436, Note_on_c,0,69,50
2,204440, Note_on_c,0,75,59
2,204442, Note_on_c,0,72,50
2,204446, Note_on_c,0,52,42
2,204480, Note_off_c,0,60,64
2,204480, Note_off_c,0,57,64
2,204492, Note_off_c,0,52,64
2,204506, Note_off_c,0,69,64
2,204508, Note_off_c,0,72,64
2,204558, Note_off_c,0,75,64
2,204652, Note_on_c,0,66,83
2,204652, Note_on_c,0,78,92
2,204748, Note_off_c,0,80,64
2,204760, Note_off_c,0,66,64
2,204924, Note_on_c,0,75,62
2,204928, Note_on_c,0,69,47
2,204936, Note_on_c,0,60,67
2,204936, Note_on_c,0,57,52
2,204936, Note_on_c,0,72,47
2,204944, Note_on_c,0,52,56
2,204986, Note_off_c,0,52,64
2,204992, Note_off_c,0,57,64
2,204994, Note_off_c,0,60,64
2,205016, Note_off_c,0,72,64
2,205032, Note_off_c,0,69,64
2,205070, Note_off_c,0,78,64
2,205084, Note_off_c,0,75,64
2,205326, Note_on_c,0,80,95
2,205328, Note_on_c,0,68,87
2,205368, Note_off_c,0,68,64
2,205400, Note_off_c,0,80,64
2,205446, Control_c,0,64,0
2,205456, Note_on_c,0,80,92
2,205464, Note_on_c,0,68,103
2,205568, Control_c,0,64,127
2,205582, Note_off_c,0,68,64
2,205698, Note_on_c,0,69,49
2,205700, Note_on_c,0,75,62
2,205708, Note_on_c,0,60,59
2,205712, Note_on_c,0,57,52
2,205714, Note_on_c,0,52,69
2,205716, Note_on_c,0,72,47
2,205756, Note_off_c,0,52,64
2,205760, Note_off_c,0,60,64
2,205766, Note_off_c,0,57,64
2,205770, Note_off_c,0,72,64
2,205790, Note_off_c,0,69,64
2,205812, Note_off_c,0,75,64
2,205916, Note_on_c,0,57,73
2,205924, Note_on_c,0,60,74
2,205930, Note_on_c,0,75,67
2,205930, Note_on_c,0,69,51
2,205934, Note_on_c,0,52,61
2,205936, Note_on_c,0,72,58
2,205964, Note_off_c,0,60,64
2,205968, Note_off_c,0,57,64
2,205972, Note_off_c,0,52,64
2,206032, Note_off_c,0,69,64
2,206048, Note_off_c,0,72,64
2,206048, Note_off_c,0,75,64
2,206128, Note_on_c,0,78,95
2,206128, Note_on_c,0,66,93
2,206210, Note_off_c,0,80,64
2,206226, Note_off_c,0,66,64
2,206384, Note_on_c,0,75,73
2,206384, Note_on_c,0,69,63
2,206388, Note_on_c,0,60,77
2,206390, Note_on_c,0,52,76
2,206392, Note_on_c,0,57,55
2,206394, Note_on_c,0,72,65
2,206442, Control_c,0,64,0
2,206474, Note_off_c,0,52,64
2,206516, Control_c,0,64,127
2,206532, Note_off_c,0,57,64
2,206540, Note_off_c,0,72,64
2,206544, Note_off_c,0,60,64
2,206544, Note_off_c,0,69,64
2,206582, Note_off_c,0,75,64
2,206600, Note_off_c,0,78,64
2,206770, Note_on_c,0,80,100
2,206782, Note_on_c,0,68,86
2,206862, Note_off_c,0,68,64
2,206874, Note_off_c,0,80,64
2,206908, Control_c,0,64,0
2,206912, Note_on_c,0,81,111
2,206920, Note_on_c,0,69,98
2,207044, Control_c,0,64,127
2,207050, Note_off_c,0,69,64
2,207208, Note_on_c,0,78,73
2,207212, Note_on_c,0,75,67
2,207216, Note_on_c,0,60,87
2,207216, Note_on_c,0,72,67
2,207220, Note_on_c,0,57,67
2,207232, Note_on_c,0,52,66
2,207280, Note_off_c,0,57,64
2,207298, Note_off_c,0,60,64
2,207310, Note_off_c,0,52,64
2,207310, Note_off_c,0,72,64
2,207318, Note_off_c,0,75,64
2,207348, Note_off_c,0,78,64
2,207464, Note_on_c,0,78,76
2,207466, Note_on_c,0,75,67
2,207468, Note_on_c,0,60,83
2,207472, Note_on_c,0,72,69
2,207472, Note_on_c,0,57,68
2,207488, Note_on_c,0,52,55
2,207504, Note_off_c,0,60,64
2,207506, Note_off_c,0,57,64
2,207528, Note_off_c,0,52,64
2,207618, Note_off_c,0,78,64
2,207628, Note_off_c,0,75,64
2,207662, Note_off_c,0,72,64
2,207706, Note_on_c,0,80,100
2,207716, Note_on_c,0,68,103
2,207776, Note_off_c,0,81,64
2,207792, Note_off_c,0,68,64
2,208002, Note_on_c,0,57,66
2,208002, Note_on_c,0,52,74
2,208006, Note_on_c,0,60,72
2,208008, Note_on_c,0,78,74
2,208008, Note_on_c,0,72,63
2,208012, Note_on_c,0,75,61
2,208040, Note_off_c,0,52,64
2,208064, Note_off_c,0,60,64
2,208072, Note_off_c,0,57,64
2,208158, Note_on_c,0,52,97
2,208200, Control_c,0,64,0
2,208240, Note_on_c,0,57,80
2,208254, Note_off_c,0,78,64
2,208272, Control_c,0,64,127
2,208282, Note_off_c,0,75,64
2,208284, Note_off_c,0,52,64
2,208316, Note_off_c,0,72,64
2,208316, Note_on_c,0,60,88
2,208340, Note_off_c,0,57,64
2,208354, Note_off_c,0,60,64
2,208394, Note_off_c,0,80,64
2,208452, Note_on_c,0,81,110
2,208460, Note_on_c,0,72,95
2,208460, Note_on_c,0,78,79
2,208464, Note_on_c,0,69,103
2,208466, Note_on_c,0,75,64
2,208536, Note_off_c,0,69,64
2,208568, Note_off_c,0,78,64
2,208582, Note_off_c,0,75,64
2,208630, Note_off_c,0,72,64
2,208664, Note_off_c,0,81,64
2,208874, Control_c,0,64,0
2,208882, Note_on_c,0,83,119
2,208886, Note_on_c,0,80,85
2,208886, Note_on_c,0,71,103
2,208886, Note_on_c,0,40,110
2,208888, Note_on_c,0,76,83
2,208888, Note_on_c,0,28,85
2,208896, Note_on_c,0,74,81
2,209032, Note_off_c,0,40,64
2,209048, Control_c,0,64,127
2,209080, Note_off_c,0,28,64
2,209216, Note_on_c,0,62,80
2,209216, Note_on_c,0,56,65
2,209220, Note_on_c,0,52,72
2,209254, Note_off_c,0,52,64
2,209260, Note_off_c,0,56,64
2,209266, Note_off_c,0,62,64
2,209306, Note_off_c,0,76,64
2,209332, Note_off_c,0,74,64
2,209446, Note_off_c,0,71,64
2,209482, Note_off_c,0,80,64
2,209496, Note_on_c,0,56,83
2,209500, Note_on_c,0,64,87
2,209518, Note_on_c,0,62,67
2,209536, Note_off_c,0,83,64
2,209558, Note_off_c,0,62,64
2,209582, Note_off_c,0,64,64
2,209686, Note_off_c,0,56,64
2,209730, Note_on_c,0,85,104
2,209736, Note_on_c,0,68,83
2,209742, Note_on_c,0,74,86
2,209744, Note_on_c,0,80,75
2,209750, Note_on_c,0,76,79
2,209754, Note_on_c,0,59,55
2,209768, Note_on_c,0,62,59
2,209784, Note_off_c,0,76,64
2,209804, Note_off_c,0,62,64
2,209806, Note_off_c,0,74,64
2,209808, Note_off_c,0,59,64
2,209826, Note_off_c,0,68,64
2,209846, Note_off_c,0,80,64
2,209916, Note_off_c,0,85,64
2,209970, Note_on_c,0,56,76
2,209978, Note_on_c,0,62,54
2,209984, Note_on_c,0,64,72
2,210022, Note_off_c,0,64,64
2,210032, Note_off_c,0,62,64
2,210062, Note_off_c,0,56,64
2,210192, Note_on_c,0,56,68
2,210196, Note_on_c,0,85,100
2,210198, Note_on_c,0,52,74
2,210202, Note_on_c,0,62,43
2,210206, Note_on_c,0,74,88
2,210210, Note_on_c,0,76,83
2,210210, Note_on_c,0,80,72
2,210212, Note_on_c,0,64,48
2,210228, Note_off_c,0,56,64
2,210238, Note_off_c,0,76,64
2,210240, Note_off_c,0,80,64
2,210240, Note_off_c,0,74,64
2,210240, Note_off_c,0,52,64
2,210250, Note_off_c,0,62,64
2,210254, Note_off_c,0,64,64
2,210276, Note_off_c,0,85,64
2,210424, Control_c,0,64,0
2,210442, Note_on_c,0,81,105
2,210442, Note_on_c,0,33,97
2,210444, Note_on_c,0,69,88
2,210444, Note_on_c,0,45,89
2,210450, Note_on_c,0,73,75
2,210572, Control_c,0,64,127
2,210592, Note_off_c,0,45,64
2,210604, Note_off_c,0,33,64
2,210710, Note_on_c,0,61,73
2,210720, Note_on_c,0,52,75
2,210754, Note_off_c,0,69,64
2,210800, Note_off_c,0,61,64
2,210804, Note_off_c,0,73,64
2,210834, Note_off_c,0,52,64
2,210846, Note_off_c,0,81,64
2,210932, Note_on_c,0,64,91
2,210934, Note_on_c,0,57,75
2,210974, Note_off_c,0,57,64
2,211020, Note_off_c,0,64,64
2,211188, Note_on_c,0,93,109
2,211190, Note_on_c,0,81,102
2,211194, Note_on_c,0,85,87
2,211200, Note_on_c,0,69,70
2,211208, Note_on_c,0,61,69
2,211268, Note_off_c,0,69,64
2,211322, Note_off_c,0,61,64
2,211412, Note_on_c,0,64,81
2,211414, Note_on_c,0,57,58
2,211432, Note_off_c,0,81,64
2,211436, Note_off_c,0,93,64
2,211458, Note_off_c,0,85,64
2,211462, Note_off_c,0,64,64
2,211472, Note_off_c,0,57,64
2,211594, Note_on_c,0,92,97
2,211600, Note_on_c,0,80,90
2,211606, Note_on_c,0,85,79
2,211608, Note_on_c,0,52,56
2,211648, Note_off_c,0,52,64
2,211750, Note_off_c,0,80,64
2,211752, Note_off_c,0,92,64
2,211760, Note_off_c,0,85,64
2,211800, Control_c,0,64,0
2,211818, Note_on_c,0,90,103
2,211820, Note_on_c,0,78,100
2,211824, Note_on_c,0,85,72
2,211826, Note_on_c,0,47,85
2,211830, Note_on_c,0,35,99
2,211934, Note_off_c,0,35,64
2,211936, Control_c,0,64,127
2,211938, Note_off_c,0,47,64
2,212066, Note_on_c,0,59,69
2,212068, Note_on_c,0,54,70
2,212214, Note_off_c,0,78,64
2,212234, Note_off_c,0,59,64
2,212262, Note_on_c,0,63,77
2,212272, Note_off_c,0,85,64
2,212276, Note_on_c,0,57,59
2,212302, Note_off_c,0,54,64
2,212350, Note_off_c,0,63,64
2,212374, Note_off_c,0,90,64
2,212412, Note_off_c,0,57,64
2,212442, Note_on_c,0,92,95
2,212448, Note_on_c,0,87,80
2,212452, Note_on_c,0,83,109
2,212456, Note_on_c,0,66,64
2,212480, Note_on_c,0,59,61
2,212554, Note_off_c,0,66,64
2,212612, Note_off_c,0,87,64
2,212618, Note_off_c,0,59,64
2,212650, Note_off_c,0,83,64
2,212664, Note_on_c,0,63,77
2,212666, Note_off_c,0,92,64
2,212672, Note_on_c,0,57,59
2,212738, Note_off_c,0,57,64
2,212750, Note_off_c,0,63,64
2,212864, Note_on_c,0,92,95
2,212872, Note_on_c,0,87,78
2,212872, Note_on_c,0,81,94
2,212872, Note_on_c,0,59,55
2,212878, Note_on_c,0,54,62
2,212896, Note_off_c,0,87,64
2,212912, Note_off_c,0,54,64
2,212912, Note_off_c,0,59,64
2,212922, Note_off_c,0,81,64
2,212960, Note_off_c,0,92,64
2,213080, Control_c,0,64,0
2,213102, Note_on_c,0,88,95
2,213106, Note_on_c,0,80,76
2,213106, Note_on_c,0,76,81
2,213108, Note_on_c,0,40,98
2,213112, Note_on_c,0,52,88
2,213224, Note_off_c,0,40,64
2,213238, Note_off_c,0,52,64
2,213238, Control_c,0,64,127
2,213376, Note_on_c,0,59,75
2,213376, Note_on_c,0,52,75
2,213526, Note_off_c,0,59,64
2,213582, Note_on_c,0,64,81
2,213584, Note_on_c,0,56,68
2,213608, Note_off_c,0,52,64
2,213634, Note_off_c,0,88,64
2,213640, Note_off_c,0,76,64
2,213670, Note_off_c,0,80,64
2,213680, Note_off_c,0,64,64
2,213846, Note_on_c,0,88,108
2,213848, Note_on_c,0,76,99
2,213862, Note_on_c,0,68,68
2,213868, Note_off_c,0,56,64
2,213870, Note_on_c,0,59,59
2,213958, Note_off_c,0,68,64
2,213994, Note_off_c,0,59,64
2,214056, Note_on_c,0,56,71
2,214058, Note_on_c,0,64,81
2,214140, Note_off_c,0,64,64
2,214142, Note_off_c,0,88,64
2,214146, Note_off_c,0,76,64
2,214194, Note_off_c,0,56,64
2,214240, Note_on_c,0,88,106
2,214244, Note_on_c,0,76,97
2,214254, Note_on_c,0,59,76
2,214256, Note_on_c,0,52,70
2,214282, Note_off_c,0,59,64
2,214302, Note_off_c,0,52,64
2,214374, Note_off_c,0,76,64
2,214388, Note_off_c,0,88,64
2,214432, Control_c,0,64,0
2,214444, Note_on_c,0,88,94
2,214450, Note_on_c,0,76,90
2,214456, Note_on_c,0,81,89
2,214466, Note_on_c,0,54,87
2,214472, Note_on_c,0,42,83
2,214560, Note_off_c,0,54,64
2,214568, Note_off_c,0,42,64
2,214578, Control_c,0,64,127
2,214696, Note_on_c,0,54,74
2,214696, Note_on_c,0,62,83
2,214742, Note_off_c,0,54,64
2,214798, Note_off_c,0,88,64
2,214806, Note_off_c,0,76,64
2,214900, Note_on_c,0,69,55
2,214902, Note_on_c,0,86,102
2,214906, Note_on_c,0,74,98
2,214912, Note_on_c,0,57,66
2,214936, Note_off_c,0,62,64
2,214942, Note_off_c,0,69,64
2,214944, Note_off_c,0,57,64
2,214964, Note_off_c,0,81,64
2,215040, Note_off_c,0,74,64
2,215056, Note_off_c,0,86,64
2,215138, Note_on_c,0,86,94
2,215144, Note_on_c,0,74,104
2,215152, Note_on_c,0,35,94
2,215154, Note_on_c,0,47,80
2,215156, Control_c,0,64,0
2,215210, Note_off_c,0,74,64
2,215214, Note_off_c,0,86,64
2,215232, Note_off_c,0,47,64
2,215242, Note_off_c,0,35,64
2,215256, Control_c,0,64,127
2,215288, Note_on_c,0,88,103
2,215296, Note_on_c,0,76,92
2,215328, Note_off_c,0,76,64
2,215336, Note_off_c,0,88,64
2,215412, Note_on_c,0,74,103
2,215416, Note_on_c,0,86,101
2,215446, Note_off_c,0,86,64
2,215460, Note_off_c,0,74,64
2,215504, Note_on_c,0,54,63
2,215528, Note_on_c,0,62,56
2,215536, Note_on_c,0,85,93
2,215536, Note_on_c,0,73,93
2,215594, Note_off_c,0,85,64
2,215606, Note_off_c,0,73,64
2,215638, Note_off_c,0,54,64
2,215648, Note_on_c,0,86,99
2,215650, Note_on_c,0,74,91
2,215656, Note_on_c,0,59,56
2,215672, Note_off_c,0,86,64
2,215676, Note_off_c,0,74,64
2,215738, Note_on_c,0,69,74
2,215756, Note_on_c,0,90,93
2,215758, Note_on_c,0,78,87
2,215772, Note_off_c,0,69,64
2,215780, Note_off_c,0,90,64
2,215780, Note_off_c,0,62,64
2,215788, Note_off_c,0,78,64
2,215822, Note_off_c,0,59,64
2,215854, Note_on_c,0,88,98
2,215858, Note_on_c,0,76,88
2,215880, Note_off_c,0,88,64
2,215888, Note_off_c,0,76,64
2,215930, Control_c,0,64,0
2,215956, Note_on_c,0,86,109
2,215958, Note_on_c,0,74,106
2,215960, Note_on_c,0,40,109
2,215966, Note_on_c,0,52,100
2,215968, Note_on_c,0,80,85
2,216046, Note_off_c,0,40,64
2,216088, Note_off_c,0,52,64
2,216090, Control_c,0,64,127
2,216200, Note_on_c,0,61,89
2,216208, Note_on_c,0,52,88
2,216240, Note_off_c,0,52,64
2,216306, Note_off_c,0,86,64
2,216308, Note_off_c,0,74,64
2,216406, Note_on_c,0,73,94
2,216408, Note_on_c,0,68,82
2,216408, Note_on_c,0,85,96
2,216418, Note_on_c,0,56,63
2,216432, Note_off_c,0,68,64
2,216448, Note_off_c,0,61,64
2,216450, Note_off_c,0,80,64
2,216472, Note_off_c,0,56,64
2,216512, Note_off_c,0,73,64
2,216546, Note_off_c,0,85,64
2,216668, Note_on_c,0,85,93
2,216676, Note_on_c,0,73,95
2,216690, Note_on_c,0,45,90
2,216692, Note_on_c,0,33,97
2,216730, Control_c,0,64,0
2,216804, Note_off_c,0,33,64
2,216808, Note_off_c,0,73,64
2,216840, Control_c,0,64,127
2,216848, Note_on_c,0,86,98
2,216850, Note_off_c,0,45,64
2,216850, Note_on_c,0,74,96
2,216872, Note_off_c,0,85,64
2,216898, Note_off_c,0,74,64
2,216908, Note_off_c,0,86,64
2,216974, Note_on_c,0,85,95
2,216974, Note_on_c,0,73,95
2,217034, Note_off_c,0,85,64
2,217048, Note_off_c,0,73,64
2,217088, Note_on_c,0,61,75
2,217096, Note_on_c,0,52,78
2,217098, Note_on_c,0,84,98
2,217098, Note_on_c,0,72,94
2,217126, Note_off_c,0,52,64
2,217130, Note_off_c,0,84,64
2,217136, Note_off_c,0,72,64
2,217204, Note_on_c,0,85,96
2,217208, Note_on_c,0,73,87
2,217258, Note_off_c,0,73,64
2,217260, Note_on_c,0,57,67
2,217262, Note_off_c,0,61,64
2,217288, Note_off_c,0,85,64
2,217318, Note_on_c,0,88,102
2,217322, Note_on_c,0,76,83
2,217328, Note_on_c,0,68,92
2,217340, Note_off_c,0,88,64
2,217352, Note_off_c,0,76,64
2,217368, Note_off_c,0,68,64
2,217410, Note_off_c,0,57,64
2,217424, Note_on_c,0,86,104
2,217424, Note_on_c,0,74,101
2,217472, Note_off_c,0,74,64
2,217500, Note_off_c,0,86,64
2,217552, Note_on_c,0,85,103
2,217556, Note_on_c,0,73,95
2,217560, Note_on_c,0,78,86
2,217568, Note_on_c,0,50,103
2,217570, Note_on_c,0,38,98
2,217578, Control_c,0,64,0
2,217702, Note_off_c,0,38,64
2,217738, Control_c,0,64,127
2,217744, Note_off_c,0,50,64
2,217824, Note_off_c,0,85,64
2,217828, Note_off_c,0,73,64
2,217884, Note_on_c,0,59,75
2,217884, Note_on_c,0,83,117
2,217888, Note_on_c,0,71,95
2,217902, Note_on_c,0,50,70
2,217938, Note_off_c,0,50,64
2,218010, Note_off_c,0,71,64
2,218028, Note_off_c,0,83,64
2,218068, Note_off_c,0,78,64
2,218090, Note_on_c,0,66,81
2,218114, Note_on_c,0,54,68
2,218134, Note_off_c,0,59,64
2,218174, Note_off_c,0,66,64
2,218174, Note_on_c,0,82,96
2,218176, Note_on_c,0,70,90
2,218214, Note_off_c,0,54,64
2,218264, Note_off_c,0,70,64
2,218280, Note_off_c,0,82,64
2,218318, Note_on_c,0,83,118
2,218324, Note_on_c,0,71,101
2,218324, Note_on_c,0,77,84
2,218326, Control_c,0,64,0
2,218336, Note_on_c,0,49,80
2,218336, Note_on_c,0,37,92
2,218460, Note_off_c,0,37,64
2,218462, Control_c,0,64,127
2,218488, Note_off_c,0,71,64
2,218492, Note_off_c,0,49,64
2,218502, Note_off_c,0,83,64
2,218542, Note_on_c,0,84,108
2,218546, Note_on_c,0,72,90
2,218624, Note_off_c,0,77,64
2,218632, Note_off_c,0,72,64
2,218640, Note_off_c,0,84,64
2,218654, Note_on_c,0,56,67
2,218656, Note_on_c,0,61,78
2,218740, Note_on_c,0,85,101
2,218740, Note_on_c,0,73,95
2,218776, Note_off_c,0,56,64
2,218784, Note_off_c,0,61,64
2,218808, Note_off_c,0,73,64
2,218808, Note_off_c,0,85,64
2,218866, Note_on_c,0,65,83
2,218872, Note_on_c,0,59,81
2,218924, Note_off_c,0,65,64
2,218928, Note_on_c,0,68,94
2,218930, Note_on_c,0,80,100
2,218968, Note_off_c,0,59,64
2,219002, Note_off_c,0,68,64
2,219046, Note_off_c,0,80,64
2,219152, Note_on_c,0,71,97
2,219152, Note_on_c,0,83,119
2,219156, Note_on_c,0,78,80
2,219156, Note_on_c,0,73,79
2,219164, Control_c,0,64,0
2,219168, Note_on_c,0,42,94
2,219170, Note_on_c,0,30,102
2,219280, Note_off_c,0,30,64
2,219324, Control_c,0,64,127
2,219332, Note_off_c,0,42,64
2,219384, Note_off_c,0,83,64
2,219424, Note_off_c,0,71,64
2,219496, Note_on_c,0,81,98
2,219500, Note_on_c,0,61,77
2,219502, Note_on_c,0,69,79
2,219506, Note_on_c,0,54,57
2,219508, Note_off_c,0,73,64
2,219554, Note_off_c,0,78,64
2,219564, Note_off_c,0,54,64
2,219614, Note_off_c,0,61,64
2,219660, Note_off_c,0,81,64
2,219662, Note_off_c,0,69,64
2,219720, Note_on_c,0,66,78
2,219740, Note_on_c,0,57,61
2,219770, Note_off_c,0,66,64
2,219792, Note_off_c,0,57,64
2,219794, Note_on_c,0,80,97
2,219880, Note_off_c,0,80,64
2,219898, Note_on_c,0,78,82
2,219960, Note_on_c,0,80,73
2,219992, Note_off_c,0,78,64
2,220048, Note_on_c,0,78,81
2,220062, Note_on_c,0,71,83
2,220062, Note_on_c,0,69,77
2,220062, Control_c,0,64,0
2,220072, Note_on_c,0,47,93
2,220072, Note_on_c,0,35,101
2,220078, Note_on_c,0,75,47
2,220130, Note_off_c,0,75,64
2,220136, Note_off_c,0,80,64
2,220200, Note_off_c,0,35,64
2,220240, Note_off_c,0,47,64
2,220246, Control_c,0,64,127
2,220292, Note_off_c,0,71,64
2,220304, Note_off_c,0,69,64
2,220344, Note_off_c,0,78,64
2,220384, Note_on_c,0,77,98
2,220400, Note_on_c,0,69,32
2,220410, Note_on_c,0,71,54
2,220416, Note_on_c,0,59,66
2,220424, Note_on_c,0,54,64
2,220456, Note_off_c,0,71,64
2,220472, Note_off_c,0,69,64
2,220524, Note_off_c,0,77,64
2,220568, Note_on_c,0,78,95
2,220578, Note_on_c,0,69,63
2,220584, Note_on_c,0,75,62
2,220584, Note_on_c,0,71,78
2,220618, Note_off_c,0,71,64
2,220628, Note_off_c,0,75,64
2,220640, Note_off_c,0,69,64
2,220702, Note_off_c,0,78,64
2,220712, Note_off_c,0,54,64
2,220718, Note_on_c,0,57,51
2,220760, Note_on_c,0,80,97
2,220774, Note_on_c,0,71,69
2,220776, Note_on_c,0,69,67
2,220784, Note_on_c,0,75,49
2,220794, Note_on_c,0,63,90
2,220816, Note_off_c,0,57,64
2,220818, Note_off_c,0,71,64
2,220822, Note_off_c,0,63,64
2,220824, Note_off_c,0,59,64
2,220826, Note_off_c,0,75,64
2,220830, Note_off_c,0,69,64
2,220878, Note_off_c,0,80,64
2,220968, Note_on_c,0,81,102
2,220968, Note_on_c,0,69,85
2,220976, Note_on_c,0,75,65
2,220994, Note_off_c,0,81,64
2,220996, Note_on_c,0,71,49
2,221008, Note_off_c,0,75,64
2,221046, Note_off_c,0,71,64
2,221048, Note_off_c,0,69,64
2,221264, Note_on_c,0,71,105
2,221276, Note_on_c,0,68,74
2,221278, Note_on_c,0,62,92
2,221278, Note_on_c,0,28,100
2,221278, Note_on_c,0,40,106
2,221280, Note_on_c,0,64,86
2,221280, Control_c,0,64,0
2,221392, Note_off_c,0,28,64
2,221416, Note_off_c,0,40,64
2,221438, Control_c,0,64,127
2,221592, Note_on_c,0,56,76
2,221604, Note_on_c,0,47,55
2,221690, Note_off_c,0,64,64
2,221714, Note_off_c,0,62,64
2,221772, Note_off_c,0,68,64
2,221776, Note_off_c,0,56,64
2,221800, Note_off_c,0,71,64
2,221814, Note_off_c,0,47,64
2,221836, Note_on_c,0,59,81
2,221840, Note_on_c,0,52,86
2,221952, Note_off_c,0,59,64
2,222016, Note_off_c,0,52,64
2,222044, Note_on_c,0,73,100
2,222062, Note_on_c,0,62,71
2,222062, Note_on_c,0,76,86
2,222064, Note_on_c,0,64,81
2,222064, Note_on_c,0,56,62
2,222066, Note_on_c,0,68,57
2,222174, Note_off_c,0,62,64
2,222204, Note_off_c,0,68,64
2,222236, Note_off_c,0,76,64
2,222288, Note_off_c,0,56,64
2,222320, Note_on_c,0,59,71
2,222324, Note_on_c,0,52,76
2,222344, Note_off_c,0,73,64
2,222354, Note_off_c,0,64,64
2,222416, Note_off_c,0,59,64
2,222468, Note_off_c,0,52,64
2,222552, Note_on_c,0,56,72
2,222554, Note_on_c,0,73,88
2,222556, Note_on_c,0,47,72
2,222558, Note_on_c,0,76,88
2,222560, Note_on_c,0,64,90
2,222560, Note_on_c,0,68,72
2,222564, Note_on_c,0,62,93
2,222584, Note_off_c,0,76,64
2,222584, Note_off_c,0,56,64
2,222596, Note_off_c,0,68,64
2,222596, Note_off_c,0,47,64
2,222600, Note_off_c,0,62,64
2,222614, Note_off_c,0,64,64
2,222616, Note_off_c,0,73,64
2,222802, Control_c,0,64,0
2,222814, Note_on_c,0,69,94
2,222814, Note_on_c,0,45,89
2,222814, Note_on_c,0,33,96
2,222814, Note_on_c,0,57,95
2,222816, Note_on_c,0,61,86
2,222896, Note_off_c,0,45,64
2,222912, Note_off_c,0,57,64
2,222928, Note_off_c,0,33,64
2,222938, Note_off_c,0,61,64
2,222938, Control_c,0,64,127
2,222984, Note_off_c,0,69,64
2,223046, Note_on_c,0,61,92
2,223046, Note_on_c,0,52,91
2,223092, Note_off_c,0,52,64
2,223110, Note_off_c,0,61,64
2,223200, Note_on_c,0,69,100
2,223204, Note_on_c,0,81,108
2,223208, Note_on_c,0,73,82
2,223218, Note_on_c,0,57,59
2,223222, Note_on_c,0,64,72
2,223234, Note_off_c,0,69,64
2,223236, Note_off_c,0,73,64
2,223290, Note_off_c,0,57,64
2,223296, Note_off_c,0,81,64
2,223320, Note_off_c,0,64,64
2,223474, Note_on_c,0,93,111
2,223476, Note_on_c,0,81,107
2,223480, Note_on_c,0,85,92
2,223488, Note_on_c,0,69,65
2,223492, Note_on_c,0,61,69
2,223572, Note_off_c,0,69,64
2,223640, Note_off_c,0,61,64
2,223710, Note_on_c,0,64,72
2,223712, Note_on_c,0,57,61
2,223772, Note_off_c,0,93,64
2,223790, Note_off_c,0,81,64
2,223808, Note_off_c,0,57,64
2,223808, Note_off_c,0,64,64
2,223812, Note_off_c,0,85,64
2,223902, Note_on_c,0,61,76
2,223904, Note_on_c,0,92,99
2,223906, Note_on_c,0,80,103
2,223914, Note_on_c,0,52,78
2,223916, Note_on_c,0,85,91
2,223932, Note_off_c,0,61,64
2,223948, Note_off_c,0,52,64
2,224066, Note_off_c,0,92,64
2,224068, Note_off_c,0,80,64
2,224094, Note_off_c,0,85,64
2,224142, Control_c,0,64,0
2,224148, Note_on_c,0,90,103
2,224152, Note_on_c,0,78,106
2,224152, Note_on_c,0,85,78
2,224160, Note_on_c,0,47,90
2,224160, Note_on_c,0,35,100
2,224254, Note_off_c,0,47,64
2,224258, Note_off_c,0,35,64
2,224264, Control_c,0,64,127
2,224416, Note_on_c,0,54,81
2,224418, Note_on_c,0,59,70
2,224528, Note_off_c,0,78,64
2,224584, Note_off_c,0,59,64
2,224608, Note_off_c,0,85,64
2,224620, Note_on_c,0,63,83
2,224632, Note_on_c,0,57,59
2,224706, Note_off_c,0,90,64
2,224712, Note_off_c,0,63,64
2,224784, Note_off_c,0,57,64
2,224800, Note_on_c,0,92,98
2,224806, Note_on_c,0,83,114
2,224806, Note_on_c,0,66,68
2,224808, Note_on_c,0,87,80
2,224830, Note_on_c,0,59,63
2,224840, Note_off_c,0,54,64
2,224902, Note_off_c,0,66,64
2,224966, Note_off_c,0,59,64
2,224980, Note_off_c,0,87,64
2,225020, Note_on_c,0,57,70
2,225022, Note_off_c,0,83,64
2,225022, Note_on_c,0,63,78
2,225032, Note_off_c,0,92,64
2,225128, Note_off_c,0,57,64
2,225132, Note_off_c,0,63,64
2,225208, Note_on_c,0,92,91
2,225214, Note_on_c,0,87,76
2,225216, Note_on_c,0,59,63
2,225216, Note_on_c,0,81,94
2,225218, Note_on_c,0,54,74
2,225240, Note_off_c,0,87,64
2,225248, Note_off_c,0,59,64
2,225254, Note_off_c,0,54,64
2,225256, Note_off_c,0,81,64
2,225282, Note_off_c,0,92,64
2,225408, Control_c,0,64,0
2,225438, Note_on_c,0,88,97
2,225442, Note_on_c,0,76,85
2,225444, Note_on_c,0,80,75
2,225450, Note_on_c,0,52,88
2,225450, Note_on_c,0,40,88
2,225530, Note_off_c,0,40,64
2,225544, Note_off_c,0,52,64
2,225568, Control_c,0,64,127
2,225676, Note_on_c,0,59,76
2,225688, Note_off_c,0,76,64
2,225692, Note_on_c,0,52,36
2,225732, Note_off_c,0,80,64
2,225784, Note_off_c,0,88,64
2,225810, Note_off_c,0,59,64
2,225848, Note_on_c,0,56,65
2,225856, Note_off_c,0,52,64
2,225856, Note_on_c,0,64,75
2,225922, Note_off_c,0,64,64
2,226024, Note_on_c,0,100,108
2,226024, Note_on_c,0,88,101
2,226028, Note_on_c,0,68,79
2,226054, Note_on_c,0,59,42
2,226096, Note_off_c,0,56,64
2,226122, Note_off_c,0,68,64
2,226166, Note_off_c,0,59,64
2,226228, Note_on_c,0,56,76
2,226232, Note_on_c,0,64,77
2,226256, Note_off_c,0,88,64
2,226264, Note_off_c,0,100,64
2,226272, Note_off_c,0,64,64
2,226372, Note_off_c,0,56,64
2,226442, Note_on_c,0,52,77
2,226444, Note_on_c,0,59,83
2,226482, Note_off_c,0,59,64
2,226526, Note_off_c,0,52,64
2,226588, Note_on_c,0,100,107
2,226592, Note_on_c,0,88,104
2,226644, Note_off_c,0,88,64
2,226680, Note_off_c,0,100,64
2,226748, Control_c,0,64,0
2,226768, Note_on_c,0,100,97
2,226768, Note_on_c,0,88,103
2,226774, Note_on_c,0,52,94
2,226782, Note_on_c,0,40,100
2,226894, Note_off_c,0,52,64
2,226896, Control_c,0,64,127
2,226928, Note_off_c,0,40,64
2,226952, Note_off_c,0,100,64
2,226996, Note_off_c,0,88,64
2,227022, Note_on_c,0,52,88
2,227024, Note_on_c,0,58,59
2,227116, Note_off_c,0,58,64
2,227162, Note_off_c,0,52,64
2,227204, Note_on_c,0,61,72
2,227220, Note_on_c,0,54,69
2,227298, Note_off_c,0,61,64
2,227338, Note_off_c,0,54,64
2,227392, Note_on_c,0,78,104
2,227394, Note_on_c,0,66,97
2,227400, Note_on_c,0,64,80
2,227408, Note_on_c,0,58,59
2,227456, Note_off_c,0,64,64
2,227542, Note_off_c,0,58,64
2,227598, Note_on_c,0,61,78
2,227612, Note_on_c,0,54,65
2,227694, Note_off_c,0,61,64
2,227768, Note_on_c,0,58,67
2,227772, Note_off_c,0,54,64
2,227786, Note_on_c,0,52,71
2,227800, Note_off_c,0,58,64
2,227818, Note_off_c,0,52,64
2,228036, Note_on_c,0,40,106
2,228040, Note_on_c,0,28,94
2,228114, Note_off_c,0,78,64
2,228130, Note_off_c,0,40,64
2,228136, Note_off_c,0,28,64
2,228228, Note_on_c,0,78,48
2,228256, Note_off_c,0,66,64
2,228266, Note_on_c,0,80,82
2,228272, Note_off_c,0,78,64
2,228318, Note_on_c,0,78,87
2,228318, Note_on_c,0,66,67
2,228320, Note_on_c,0,52,80
2,228330, Note_on_c,0,58,54
2,228368, Note_off_c,0,52,64
2,228420, Note_off_c,0,80,64
2,228458, Note_off_c,0,58,64
2,228464, Note_off_c,0,66,64
2,228474, Note_off_c,0,78,64
2,228512, Note_on_c,0,61,72
2,228522, Note_on_c,0,54,70
2,228526, Note_on_c,0,77,88
2,228528, Note_on_c,0,65,84
2,228560, Note_off_c,0,65,64
2,228560, Note_off_c,0,77,64
2,228626, Note_off_c,0,61,64
2,228646, Note_on_c,0,66,88
2,228646, Note_on_c,0,78,91
2,228720, Note_off_c,0,66,64
2,228722, Note_off_c,0,78,64
2,228762, Note_on_c,0,64,68
2,228762, Note_on_c,0,58,57
2,228770, Note_off_c,0,54,64
2,228780, Note_on_c,0,68,83
2,228784, Note_on_c,0,80,90
2,228814, Note_off_c,0,80,64
2,228816, Note_off_c,0,68,64
2,228856, Note_off_c,0,64,64
2,228890, Note_on_c,0,82,91
2,228892, Note_on_c,0,70,85
2,228944, Note_off_c,0,82,64
2,228960, Note_off_c,0,70,64
2,228980, Note_off_c,0,58,64
2,228994, Note_on_c,0,71,100
2,228994, Note_on_c,0,61,66
2,228996, Note_on_c,0,83,109
2,229014, Note_on_c,0,54,56
2,229024, Note_off_c,0,83,64
2,229026, Note_off_c,0,71,64
2,229088, Note_on_c,0,85,103
2,229088, Note_on_c,0,73,94
2,229104, Note_off_c,0,61,64
2,229146, Note_off_c,0,73,64
2,229166, Note_on_c,0,58,60
2,229168, Note_off_c,0,85,64
2,229172, Note_on_c,0,52,65
2,229182, Note_off_c,0,54,64
2,229190, Note_on_c,0,86,100
2,229190, Note_on_c,0,74,98
2,229200, Note_off_c,0,58,64
2,229206, Note_off_c,0,52,64
2,229216, Note_off_c,0,74,64
2,229218, Note_off_c,0,86,64
2,229288, Note_on_c,0,88,103
2,229290, Note_on_c,0,76,91
2,229314, Note_off_c,0,88,64
2,229316, Note_off_c,0,76,64
2,229366, Control_c,0,64,0
2,229394, Note_on_c,0,90,102
2,229396, Note_on_c,0,78,102
2,229400, Note_on_c,0,40,108
2,229402, Note_on_c,0,52,97
2,229480, Note_off_c,0,52,64
2,229504, Note_off_c,0,78,64
2,229512, Note_off_c,0,40,64
2,229512, Note_off_c,0,90,64
2,229514, Control_c,0,64,127
2,229600, Note_on_c,0,60,89
2,229602, Note_on_c,0,52,98
2,229684, Note_off_c,0,60,64
2,229748, Note_off_c,0,52,64
2,229784, Note_on_c,0,63,89
2,229784, Note_on_c,0,56,71
2,229868, Note_off_c,0,63,64
2,229984, Note_on_c,0,66,74
2,229988, Note_on_c,0,80,103
2,229992, Note_on_c,0,68,96
2,230000, Note_off_c,0,56,64
2,230008, Note_on_c,0,60,68
2,230106, Note_off_c,0,66,64
2,230184, Note_off_c,0,60,64
2,230240, Note_on_c,0,63,64
2,230240, Note_on_c,0,56,55
2,230316, Note_off_c,0,63,64
2,230352, Note_off_c,0,68,64
2,230356, Note_off_c,0,80,64
2,230416, Note_off_c,0,56,64
2,230436, Note_on_c,0,60,76
2,230444, Note_on_c,0,80,97
2,230446, Note_on_c,0,68,100
2,230454, Note_on_c,0,52,70
2,230468, Note_off_c,0,60,64
2,230486, Note_off_c,0,52,64
2,230544, Note_off_c,0,68,64
2,230696, Note_on_c,0,68,103
2,230708, Note_on_c,0,28,85
2,230714, Note_on_c,0,40,74
2,230758, Note_off_c,0,80,64
2,230804, Note_off_c,0,28,64
2,230812, Note_off_c,0,40,64
2,230844, Note_on_c,0,80,79
2,230972, Note_on_c,0,60,84
2,230972, Note_on_c,0,81,94
2,230976, Note_off_c,0,68,64
2,230976, Note_on_c,0,52,92
2,231000, Note_off_c,0,80,64
2,231036, Note_off_c,0,60,64
2,231056, Note_on_c,0,80,81
2,231058, Note_on_c,0,68,78
2,231100, Note_off_c,0,81,64
2,231126, Note_off_c,0,80,64
2,231138, Note_off_c,0,68,64
2,231168, Note_on_c,0,79,98
2,231170, Note_on_c,0,67,87
2,231178, Note_on_c,0,63,78
2,231186, Note_on_c,0,56,59
2,231196, Note_off_c,0,52,64
2,231206, Note_off_c,0,67,64
2,231224, Note_off_c,0,79,64
2,231260, Note_off_c,0,63,64
2,231268, Note_on_c,0,80,95
2,231272, Note_on_c,0,68,92
2,231340, Note_off_c,0,80,64
2,231342, Note_off_c,0,68,64
2,231376, Note_on_c,0,66,65
2,231392, Note_on_c,0,82,95
2,231396, Note_on_c,0,70,86
2,231408, Note_on_c,0,60,61
2,231442, Note_off_c,0,56,64
2,231456, Note_off_c,0,70,64
2,231472, Note_off_c,0,66,64
2,231484, Note_off_c,0,82,64
2,231504, Note_on_c,0,84,100
2,231508, Note_on_c,0,72,84
2,231530, Note_off_c,0,84,64
2,231536, Note_off_c,0,72,64
2,231556, Note_off_c,0,60,64
2,231608, Note_on_c,0,73,96
2,231608, Note_on_c,0,85,92
2,231610, Note_on_c,0,63,73
2,231622, Note_on_c,0,56,54
2,231644, Note_off_c,0,73,64
2,231646, Note_off_c,0,85,64
2,231660, Note_off_c,0,63,64
2,231704, Note_on_c,0,87,91
2,231710, Note_on_c,0,75,84
2,231748, Note_off_c,0,75,64
2,231782, Note_off_c,0,87,64
2,231786, Note_off_c,0,56,64
2,231796, Note_on_c,0,52,71
2,231802, Note_on_c,0,60,60
2,231808, Note_on_c,0,88,99
2,231808, Note_on_c,0,76,86
2,231836, Note_off_c,0,88,64
2,231840, Note_off_c,0,60,64
2,231842, Note_off_c,0,76,64
2,231856, Note_off_c,0,52,64
2,231914, Note_on_c,0,78,96
2,231920, Note_on_c,0,90,100
2,231992, Note_off_c,0,78,64
2,232030, Note_off_c,0,90,64
2,232032, Control_c,0,64,0
2,232078, Note_on_c,0,52,101
2,232080, Note_on_c,0,40,108
2,232080, Note_on_c,0,92,103
2,232080, Note_on_c,0,80,98
2,232204, Note_off_c,0,52,64
2,232206, Control_c,0,64,127
2,232218, Note_off_c,0,40,64
2,232286, Note_on_c,0,52,89
2,232294, Note_on_c,0,61,72
2,232304, Note_off_c,0,80,64
2,232312, Note_off_c,0,92,64
2,232374, Note_off_c,0,61,64
2,232434, Note_off_c,0,52,64
2,232466, Note_on_c,0,64,84
2,232472, Note_on_c,0,56,78
2,232494, Note_off_c,0,64,64
2,232536, Note_off_c,0,56,64
2,232600, Control_c,0,64,0
2,232628, Note_on_c,0,80,97
2,232630, Note_on_c,0,68,93
2,232640, Note_on_c,0,51,88
2,232644, Note_on_c,0,39,88
2,232724, Note_off_c,0,51,64
2,232738, Note_off_c,0,39,64
2,232746, Control_c,0,64,127
2,232840, Note_on_c,0,51,79
2,232844, Note_on_c,0,58,18
2,232846, Note_on_c,0,59,83
2,232864, Note_off_c,0,68,64
2,232880, Note_off_c,0,80,64
2,232904, Note_off_c,0,59,64
2,232904, Note_off_c,0,58,64
2,232952, Note_off_c,0,51,64
2,232978, Note_on_c,0,68,93
2,232984, Note_on_c,0,80,91
2,233000, Note_on_c,0,63,81
2,233008, Note_on_c,0,56,66
2,233024, Note_off_c,0,80,64
2,233030, Note_off_c,0,63,64
2,233046, Note_off_c,0,56,64
2,233068, Note_off_c,0,68,64
2,233096, Note_on_c,0,80,67
2,233144, Note_on_c,0,82,69
2,233170, Note_off_c,0,80,64
2,233214, Control_c,0,64,0
2,233218, Note_on_c,0,80,82
2,233224, Note_on_c,0,68,101
2,233230, Note_on_c,0,49,93
2,233240, Note_on_c,0,37,94
2,233268, Note_off_c,0,82,64
2,233320, Note_off_c,0,49,64
2,233348, Control_c,0,64,127
2,233350, Note_off_c,0,37,64
2,233358, Note_off_c,0,68,64
2,233366, Note_off_c,0,80,64
2,233440, Note_on_c,0,67,87
2,233440, Note_on_c,0,79,90
2,233442, Note_on_c,0,49,67
2,233452, Note_on_c,0,56,63
2,233468, Note_off_c,0,79,64
2,233468, Note_off_c,0,67,64
2,233504, Note_off_c,0,56,64
2,233510, Note_off_c,0,49,64
2,233534, Note_on_c,0,68,86
2,233536, Note_on_c,0,80,88
2,233582, Note_off_c,0,68,64
2,233590, Note_off_c,0,80,64
2,233632, Note_on_c,0,61,77
2,233646, Note_on_c,0,52,79
2,233654, Note_on_c,0,82,89
2,233656, Note_on_c,0,70,83
2,233672, Note_off_c,0,61,64
2,233684, Note_off_c,0,52,64
2,233718, Note_off_c,0,82,64
2,233724, Note_off_c,0,70,64
2,233760, Note_on_c,0,83,107
2,233762, Note_on_c,0,71,89
2,233792, Note_off_c,0,71,64
2,233792, Note_off_c,0,83,64
2,233852, Control_c,0,64,0
2,233870, Note_on_c,0,44,101
2,233872, Note_on_c,0,32,89
2,233876, Note_on_c,0,73,94
2,233880, Note_on_c,0,85,93
2,233920, Note_off_c,0,73,64
2,233938, Note_off_c,0,85,64
2,233962, Control_c,0,64,127
2,233972, Note_off_c,0,44,64
2,233974, Note_off_c,0,32,64
2,233980, Note_on_c,0,87,90
2,233984, Note_on_c,0,75,81
2,234032, Note_off_c,0,75,64
2,234044, Note_off_c,0,87,64
2,234066, Note_on_c,0,56,91
2,234088, Note_on_c,0,89,95
2,234090, Note_on_c,0,77,89
2,234090, Note_on_c,0,47,35
2,234116, Note_off_c,0,77,64
2,234116, Note_off_c,0,89,64
2,234144, Note_off_c,0,47,64
2,234154, Note_off_c,0,56,64
2,234190, Note_on_c,0,91,105
2,234190, Note_on_c,0,79,105
2,234226, Note_off_c,0,79,64
2,234232, Note_off_c,0,91,64
2,234280, Note_on_c,0,59,81
2,234286, Note_on_c,0,51,83
2,234292, Note_on_c,0,80,92
2,234294, Note_on_c,0,92,89
2,234308, Note_off_c,0,59,64
2,234336, Note_off_c,0,80,64
2,234344, Note_off_c,0,51,64
2,234390, Note_off_c,0,92,64
2,234400, Note_on_c,0,94,95
2,234404, Note_on_c,0,82,85
2,234520, Note_off_c,0,82,64
2,234528, Note_off_c,0,94,64
2,234574, Note_on_c,0,95,105
2,234576, Note_on_c,0,83,119
2,234576, Note_on_c,0,41,108
2,234576, Note_on_c,0,29,113
2,234626, Control_c,0,64,0
2,234754, Note_off_c,0,29,64
2,234804, Note_off_c,0,41,64
2,234806, Note_off_c,0,95,64
2,234812, Control_c,0,64,127
2,234852, Note_off_c,0,83,64
2,234878, Note_on_c,0,92,87
2,234882, Note_on_c,0,95,75
2,234970, Note_on_c,0,89,81
2,235012, Note_off_c,0,95,64
2,235016, Note_on_c,0,53,102
2,235064, Note_on_c,0,59,80
2,235064, Note_on_c,0,87,80
2,235094, Note_off_c,0,92,64
2,235096, Note_off_c,0,53,64
2,235130, Note_off_c,0,89,64
2,235132, Note_on_c,0,83,103
2,235136, Note_on_c,0,63,84
2,235158, Note_off_c,0,83,64
2,235160, Note_off_c,0,87,64
2,235200, Note_on_c,0,68,105
2,235202, Note_off_c,0,59,64
2,235204, Note_on_c,0,83,100
2,235216, Note_on_c,0,80,87
2,235248, Note_off_c,0,63,64
2,235278, Note_off_c,0,68,64
2,235288, Note_on_c,0,77,89
2,235320, Note_off_c,0,83,64
2,235356, Note_on_c,0,75,79
2,235378, Note_off_c,0,80,64
2,235408, Note_off_c,0,77,64
2,235420, Note_on_c,0,71,84
2,235424, Note_off_c,0,75,64
2,235452, Note_off_c,0,71,64
2,235496, Note_on_c,0,71,73
2,235506, Note_on_c,0,68,80
2,235550, Note_on_c,0,65,59
2,235552, Note_off_c,0,71,64
2,235632, Note_on_c,0,63,81
2,235636, Note_off_c,0,68,64
2,235674, Note_off_c,0,65,64
2,235702, Note_off_c,0,63,64
2,235706, Note_on_c,0,59,73
2,235736, Note_off_c,0,59,64
2,235782, Note_on_c,0,56,77
2,235836, Note_on_c,0,53,83
2,235846, Note_on_c,0,54,27
2,235896, Note_off_c,0,56,64
2,235910, Note_on_c,0,51,84
2,235936, Note_off_c,0,54,64
2,235936, Note_off_c,0,53,64
2,235984, Note_on_c,0,47,73
2,236016, Note_off_c,0,51,64
2,236034, Note_off_c,0,47,64
2,236070, Note_on_c,0,56,82
2,236080, Note_on_c,0,59,89
2,236132, Note_on_c,0,53,78
2,236160, Note_off_c,0,59,64
2,236198, Note_on_c,0,51,73
2,236210, Note_off_c,0,56,64
2,236240, Note_off_c,0,53,64
2,236240, Note_on_c,0,47,55
2,236280, Note_off_c,0,47,64
2,236284, Note_off_c,0,51,64
2,236332, Note_on_c,0,59,65
2,236342, Note_on_c,0,56,50
2,236392, Note_off_c,0,59,64
2,236414, Note_off_c,0,56,64
2,236424, Note_on_c,0,53,76
2,236472, Control_c,0,64,0
2,236494, Note_off_c,0,53,64
2,236498, Note_on_c,0,58,73
2,236510, Note_on_c,0,34,88
2,236578, Note_on_c,0,56,70
2,236610, Note_off_c,0,34,64
2,236612, Note_off_c,0,58,64
2,236618, Control_c,0,64,127
2,236664, Note_on_c,0,59,57
2,236676, Note_off_c,0,56,64
2,236676, Note_on_c,0,50,74
2,236726, Note_on_c,0,53,85
2,236736, Note_off_c,0,50,64
2,236760, Note_off_c,0,59,64
2,236766, Control_c,0,64,0
2,236800, Note_on_c,0,58,47
2,236822, Note_off_c,0,53,64
2,236872, Note_on_c,0,56,61
2,236896, Note_off_c,0,58,64
2,236952, Note_on_c,0,34,67
2,236952, Note_on_c,0,59,78
2,236976, Note_off_c,0,56,64
2,236992, Note_off_c,0,34,64
2,237024, Note_on_c,0,53,83
2,237024, Control_c,0,64,127
2,237054, Note_off_c,0,59,64
2,237080, Note_off_c,0,53,64
2,237092, Note_on_c,0,58,57
2,237092, Note_on_c,0,50,65
2,237136, Control_c,0,64,0
2,237160, Note_on_c,0,56,61
2,237166, Note_off_c,0,50,64
2,237184, Note_off_c,0,58,64
2,237240, Note_on_c,0,59,72
2,237264, Note_off_c,0,56,64
2,237308, Note_on_c,0,53,76
2,237330, Note_off_c,0,59,64
2,237372, Note_off_c,0,53,64
2,237376, Note_on_c,0,34,65
2,237384, Note_on_c,0,58,45
2,237424, Note_off_c,0,34,64
2,237426, Note_on_c,0,56,60
2,237450, Note_off_c,0,58,64
2,237454, Control_c,0,64,127
2,237512, Note_on_c,0,50,61
2,237512, Note_on_c,0,59,61
2,237524, Note_off_c,0,56,64
2,237572, Note_on_c,0,53,72
2,237576, Control_c,0,64,0
2,237592, Note_off_c,0,50,64
2,237610, Note_off_c,0,59,64
2,237632, Note_off_c,0,53,64
2,237640, Note_on_c,0,58,44
2,237708, Note_on_c,0,56,56
2,237724, Note_off_c,0,58,64
2,237782, Note_on_c,0,34,67
2,237786, Note_on_c,0,59,61
2,237798, Note_off_c,0,56,64
2,237830, Note_off_c,0,34,64
2,237852, Note_on_c,0,53,74
2,237860, Control_c,0,64,127
2,237880, Note_off_c,0,59,64
2,237904, Note_off_c,0,53,64
2,237904, Note_on_c,0,58,44
2,237914, Note_on_c,0,50,67
2,237952, Note_off_c,0,50,64
2,237976, Note_on_c,0,56,55
2,237996, Control_c,0,64,0
2,238002, Note_off_c,0,58,64
2,238056, Note_on_c,0,59,55
2,238088, Note_off_c,0,56,64
2,238110, Note_on_c,0,53,80
2,238152, Note_off_c,0,59,64
2,238156, Note_off_c,0,53,64
2,238186, Note_on_c,0,50,75
2,238192, Note_on_c,0,58,56
2,238220, Note_off_c,0,50,64
2,238274, Note_on_c,0,56,55
2,238276, Control_c,0,64,127
2,238298, Note_off_c,0,58,64
2,238336, Note_on_c,0,65,55
2,238348, Note_on_c,0,59,57
2,238372, Note_off_c,0,65,64
2,238372, Note_off_c,0,56,64
2,238414, Note_on_c,0,53,59
2,238424, Note_off_c,0,59,64
2,238438, Control_c,0,64,0
2,238468, Note_off_c,0,53,64
2,238470, Note_on_c,0,58,46
2,238542, Note_on_c,0,56,62
2,238564, Note_off_c,0,58,64
2,238608, Note_on_c,0,50,69
2,238628, Note_on_c,0,59,61
2,238646, Note_off_c,0,56,64
2,238648, Note_off_c,0,50,64
2,238678, Note_on_c,0,53,80
2,238708, Control_c,0,64,127
2,238742, Note_off_c,0,59,64
2,238746, Note_on_c,0,58,48
2,238768, Note_on_c,0,65,47
2,238786, Note_off_c,0,53,64
2,238808, Note_off_c,0,65,64
2,238826, Note_on_c,0,56,52
2,238864, Note_off_c,0,58,64
2,238868, Control_c,0,64,0
2,238900, Note_on_c,0,59,64
2,238936, Note_off_c,0,56,64
2,238958, Note_on_c,0,53,76
2,238992, Note_off_c,0,59,64
2,238998, Note_off_c,0,53,64
2,239024, Note_on_c,0,50,70
2,239028, Note_on_c,0,58,65
2,239064, Note_off_c,0,50,64
2,239100, Note_on_c,0,56,64
2,239100, Control_c,0,64,127
2,239146, Note_off_c,0,58,64
2,239174, Note_on_c,0,59,60
2,239174, Note_on_c,0,65,57
2,239190, Note_off_c,0,56,64
2,239212, Note_off_c,0,65,64
2,239226, Note_on_c,0,53,65
2,239248, Control_c,0,64,0
2,239268, Note_off_c,0,59,64
2,239278, Note_off_c,0,53,64
2,239284, Note_on_c,0,58,52
2,239362, Note_on_c,0,56,53
2,239376, Note_off_c,0,58,64
2,239426, Note_on_c,0,50,55
2,239438, Note_off_c,0,56,64
2,239440, Note_on_c,0,59,50
2,239466, Note_off_c,0,50,64
2,239496, Note_on_c,0,53,63
2,239506, Control_c,0,64,127
2,239512, Note_off_c,0,59,64
2,239548, Note_off_c,0,53,64
2,239548, Note_on_c,0,58,32
2,239566, Note_on_c,0,65,45
2,239604, Note_off_c,0,65,64
2,239614, Note_on_c,0,56,57
2,239628, Note_off_c,0,58,64
2,239656, Control_c,0,64,0
2,239692, Note_on_c,0,53,77
2,239734, Note_off_c,0,56,64
2,239756, Note_on_c,0,59,52
2,239774, Note_off_c,0,53,64
2,239820, Note_on_c,0,58,62
2,239826, Note_on_c,0,34,60
2,239856, Note_off_c,0,59,64
2,239884, Note_off_c,0,58,64
2,239912, Control_c,0,64,127
2,239940, Note_off_c,0,34,64
2,239958, Note_on_c,0,58,49
2,240024, Note_on_c,0,62,64
2,240040, Note_off_c,0,58,64
2,240064, Note_off_c,0,62,64
2,240096, Note_on_c,0,59,54
2,240136, Note_off_c,0,59,64
2,240148, Note_on_c,0,62,54
2,240208, Control_c,0,64,0
2,240210, Note_off_c,0,62,64
2,240216, Note_on_c,0,56,46
2,240218, Note_on_c,0,61,70
2,240230, Note_on_c,0,53,64
2,240232, Note_on_c,0,46,34
2,240286, Note_off_c,0,53,64
2,240286, Note_on_c,0,65,61
2,240294, Control_c,0,64,127
2,240308, Note_off_c,0,61,64
2,240320, Note_off_c,0,65,64
2,240336, Note_off_c,0,46,64
2,240364, Note_off_c,0,56,64
2,240372, Note_on_c,0,62,53
2,240412, Note_off_c,0,62,64
2,240414, Note_on_c,0,68,69
2,240462, Note_off_c,0,68,64
2,240502, Note_on_c,0,64,67
2,240538, Note_off_c,0,64,64
2,240564, Note_on_c,0,68,68
2,240576, Control_c,0,64,0
2,240606, Note_on_c,0,62,54
2,240608, Note_on_c,0,56,50
2,240630, Note_on_c,0,53,51
2,240640, Note_on_c,0,65,71
2,240666, Note_off_c,0,68,64
2,240684, Note_off_c,0,65,64
2,240690, Note_on_c,0,71,70
2,240692, Note_off_c,0,53,64
2,240700, Control_c,0,64,127
2,240704, Note_off_c,0,56,64
2,240712, Note_off_c,0,62,64
2,240724, Note_off_c,0,71,64
2,240768, Note_on_c,0,67,74
2,240816, Note_off_c,0,67,64
2,240828, Note_on_c,0,71,52
2,240878, Note_on_c,0,68,79
2,240880, Note_off_c,0,71,64
2,240950, Note_on_c,0,74,74
2,240954, Note_off_c,0,68,64
2,240978, Note_off_c,0,74,64
2,240990, Note_on_c,0,65,44
2,240998, Note_on_c,0,56,39
2,241002, Note_on_c,0,62,43
2,241016, Note_on_c,0,70,76
2,241056, Note_off_c,0,62,64
2,241076, Note_on_c,0,74,60
2,241086, Note_off_c,0,65,64
2,241104, Note_off_c,0,70,64
2,241110, Note_off_c,0,74,64
2,241116, Note_off_c,0,56,64
2,241146, Note_on_c,0,71,84
2,241188, Note_off_c,0,71,64
2,241202, Note_on_c,0,74,59
2,241250, Note_off_c,0,74,64
2,241278, Note_on_c,0,73,75
2,241344, Note_off_c,0,73,64
2,241346, Note_on_c,0,77,62
2,241364, Control_c,0,64,0
2,241376, Note_off_c,0,77,64
2,241398, Note_on_c,0,68,48
2,241410, Note_on_c,0,74,81
2,241414, Note_on_c,0,65,38
2,241414, Note_on_c,0,58,27
2,241446, Note_off_c,0,74,64
2,241470, Note_on_c,0,80,68
2,241486, Control_c,0,64,127
2,241488, Note_off_c,0,58,64
2,241488, Note_off_c,0,65,64
2,241506, Note_off_c,0,80,64
2,241514, Note_off_c,0,68,64
2,241542, Note_on_c,0,76,64
2,241582, Note_off_c,0,76,64
2,241608, Note_on_c,0,80,69
2,241676, Note_on_c,0,77,69
2,241698, Note_off_c,0,80,64
2,241710, Note_off_c,0,77,64
2,241714, Note_on_c,0,83,90
2,241744, Note_off_c,0,83,64
2,241786, Note_on_c,0,79,84
2,241798, Note_on_c,0,74,57
2,241802, Note_on_c,0,68,41
2,241822, Note_on_c,0,65,28
2,241846, Note_on_c,0,83,76
2,241848, Note_off_c,0,74,64
2,241852, Note_off_c,0,79,64
2,241856, Note_off_c,0,68,64
2,241870, Note_off_c,0,65,64
2,241896, Note_off_c,0,83,64
2,241906, Note_on_c,0,80,79
2,241976, Note_on_c,0,86,52
2,241980, Note_off_c,0,80,64
2,242016, Note_off_c,0,86,64
2,242040, Note_on_c,0,82,80
2,242098, Note_on_c,0,86,44
2,242138, Note_off_c,0,82,64
2,242144, Note_off_c,0,86,64
2,242150, Control_c,0,64,0
2,242168, Note_on_c,0,77,54
2,242176, Note_on_c,0,68,42
2,242176, Note_on_c,0,83,103
2,242196, Note_on_c,0,74,42
2,242208, Note_off_c,0,83,64
2,242248, Note_off_c,0,74,64
2,242248, Note_on_c,0,86,49
2,242286, Control_c,0,64,127
2,242300, Note_off_c,0,68,64
2,242304, Note_off_c,0,86,64
2,242308, Note_off_c,0,77,64
2,242308, Note_on_c,0,85,79
2,242378, Note_on_c,0,89,50
2,242384, Note_off_c,0,85,64
2,242422, Note_off_c,0,89,64
2,242434, Note_on_c,0,86,75
2,242468, Note_off_c,0,86,64
2,242496, Note_on_c,0,92,55
2,242534, Note_off_c,0,92,64
2,242558, Note_on_c,0,88,76
2,242566, Note_on_c,0,80,49
2,242582, Note_on_c,0,77,39
2,242592, Note_on_c,0,70,23
2,242624, Note_off_c,0,77,64
2,242624, Note_on_c,0,92,57
2,242632, Note_off_c,0,80,64
2,242634, Note_off_c,0,88,64
2,242648, Note_off_c,0,70,64
2,242702, Note_on_c,0,89,68
2,242718, Note_off_c,0,92,64
2,242752, Note_off_c,0,89,64
2,242756, Note_on_c,0,95,67
2,242802, Note_off_c,0,95,64
2,242840, Note_on_c,0,91,65
2,242884, Note_off_c,0,91,64
2,242912, Note_on_c,0,95,35
2,242960, Note_on_c,0,94,55
2,242964, Note_off_c,0,95,64
2,242974, Note_on_c,0,86,89
2,242982, Note_on_c,0,80,66
2,242984, Note_on_c,0,77,75
2,243010, Control_c,0,64,0
2,243026, Note_on_c,0,92,61
2,243032, Note_off_c,0,94,64
2,243096, Note_on_c,0,95,61
2,243104, Note_off_c,0,92,64
2,243146, Note_off_c,0,95,64
2,243162, Note_on_c,0,89,46
2,243208, Control_c,0,64,127
2,243212, Note_off_c,0,89,64
2,243232, Note_on_c,0,94,62
2,243286, Note_off_c,0,94,64
2,243304, Note_on_c,0,92,46
2,243352, Note_off_c,0,92,64
2,243372, Note_on_c,0,96,76
2,243420, Note_off_c,0,96,64
2,243462, Note_on_c,0,89,17
2,243508, Note_on_c,0,94,41
2,243510, Note_off_c,0,89,64
2,243552, Note_off_c,0,94,64
2,243554, Note_on_c,0,92,52
2,243600, Note_off_c,0,92,64
2,243634, Note_on_c,0,97,55
2,243678, Note_off_c,0,97,64
2,243704, Note_on_c,0,89,53
2,243750, Note_off_c,0,89,64
2,243780, Note_on_c,0,94,59
2,243832, Note_off_c,0,94,64
2,243848, Note_on_c,0,92,61
2,243906, Note_off_c,0,92,64
2,243922, Note_on_c,0,98,72
2,243968, Note_off_c,0,98,64
2,243980, Note_on_c,0,89,62
2,244008, Note_off_c,0,77,64
2,244030, Note_off_c,0,89,64
2,244048, Note_on_c,0,94,55
2,244054, Note_off_c,0,86,64
2,244068, Note_off_c,0,80,64
2,244110, Note_on_c,0,92,52
2,244150, Note_off_c,0,94,64
2,244164, Note_on_c,0,84,83
2,244176, Note_on_c,0,99,70
2,244178, Note_on_c,0,75,42
2,244186, Note_off_c,0,92,64
2,244202, Note_on_c,0,80,32
2,244228, Control_c,0,64,0
2,244250, Note_on_c,0,89,58
2,244286, Note_off_c,0,99,64
2,244328, Note_on_c,0,94,64
2,244348, Note_off_c,0,89,64
2,244376, Control_c,0,64,127
2,244404, Note_on_c,0,92,62
2,244428, Note_off_c,0,94,64
2,244488, Note_on_c,0,100,65
2,244492, Note_off_c,0,92,64
2,244504, Note_off_c,0,75,64
2,244504, Note_off_c,0,84,64
2,244518, Note_off_c,0,80,64
2,244526, Note_off_c,0,100,64
2,244552, Note_on_c,0,89,64
2,244596, Note_off_c,0,89,64
2,244646, Control_c,0,64,0
2,244656, Note_on_c,0,80,39
2,244656, Note_on_c,0,84,64
2,244664, Note_on_c,0,101,64
2,244672, Note_on_c,0,75,41
2,244762, Note_on_c,0,98,61
2,244784, Note_off_c,0,101,64
2,244808, Note_off_c,0,98,64
2,244838, Note_on_c,0,97,52
2,244854, Control_c,0,64,127
2,244876, Note_off_c,0,97,64
2,244930, Note_on_c,0,100,44
2,244950, Note_off_c,0,80,64
2,244982, Note_off_c,0,100,64
2,244994, Note_off_c,0,75,64
2,244996, Note_off_c,0,84,64
2,245018, Note_on_c,0,99,50
2,245078, Note_off_c,0,99,64
2,245104, Note_on_c,0,96,50
2,245146, Note_off_c,0,96,64
2,245194, Note_on_c,0,95,48
2,245198, Note_on_c,0,82,35
2,245202, Note_on_c,0,80,32
2,245210, Control_c,0,64,0
2,245218, Note_on_c,0,74,39
2,245240, Note_off_c,0,95,64
2,245284, Note_on_c,0,98,52
2,245364, Note_on_c,0,97,42
2,245390, Note_off_c,0,98,64
2,245432, Control_c,0,64,127
2,245436, Note_on_c,0,94,47
2,245456, Control_c,0,64,0
2,245486, Note_off_c,0,97,64
2,245526, Note_off_c,0,94,64
2,245528, Note_on_c,0,93,46
2,245576, Note_off_c,0,93,64
2,245604, Note_on_c,0,96,48
2,245680, Note_off_c,0,96,64
2,245688, Note_on_c,0,95,44
2,245698, Note_off_c,0,82,64
2,245700, Note_off_c,0,80,64
2,245712, Note_off_c,0,74,64
2,245736, Note_off_c,0,95,64
2,245758, Note_on_c,0,92,44
2,245764, Control_c,0,64,127
2,245822, Note_off_c,0,92,64
2,245854, Note_on_c,0,91,38
2,245898, Control_c,0,64,0
2,245904, Note_off_c,0,91,64
2,245920, Note_on_c,0,94,41
2,246008, Note_on_c,0,92,37
2,246038, Note_off_c,0,94,64
2,246082, Note_on_c,0,89,48
2,246088, Note_off_c,0,92,64
2,246126, Note_off_c,0,89,64
2,246164, Note_on_c,0,86,54
2,246246, Note_on_c,0,82,55
2,246260, Note_off_c,0,86,64
2,246332, Note_on_c,0,81,66
2,246336, Note_off_c,0,82,64
2,246376, Note_off_c,0,81,64
2,246402, Note_on_c,0,82,52
2,246506, Note_on_c,0,80,69
2,246516, Note_off_c,0,82,64
2,246602, Note_on_c,0,82,44
2,246618, Note_off_c,0,80,64
2,246718, Note_on_c,0,51,45
2,246724, Note_on_c,0,78,52
2,246742, Note_off_c,0,82,64
2,246762, Note_off_c,0,51,64
2,246796, Control_c,0,64,127
2,246830, Note_off_c,0,78,64
2,246838, Note_on_c,0,79,60
2,246932, Note_off_c,0,79,64
2,246960, Note_on_c,0,91,52
2,246964, Note_on_c,0,72,40
2,246972, Note_on_c,0,67,37
2,246978, Note_on_c,0,63,36
2,247030, Note_off_c,0,63,64
2,247032, Note_off_c,0,67,64
2,247048, Note_off_c,0,72,64
2,247054, Note_on_c,0,86,46
2,247080, Note_off_c,0,91,64
2,247080, Control_c,0,64,0
2,247130, Note_off_c,0,86,64
2,247134, Note_on_c,0,70,48
2,247150, Note_on_c,0,87,52
2,247176, Note_off_c,0,70,64
2,247216, Note_off_c,0,87,64
2,247232, Note_on_c,0,83,84
2,247328, Note_on_c,0,46,53
2,247332, Note_on_c,0,84,74
2,247338, Note_off_c,0,83,64
2,247376, Note_off_c,0,46,64
2,247386, Control_c,0,64,127
2,247424, Note_on_c,0,79,57
2,247452, Note_off_c,0,84,64
2,247528, Note_on_c,0,82,56
2,247534, Note_off_c,0,79,64
2,247548, Note_on_c,0,68,65
2,247568, Note_on_c,0,57,29
2,247580, Note_on_c,0,62,26
2,247610, Note_on_c,0,80,67
2,247630, Note_off_c,0,57,64
2,247666, Note_off_c,0,82,64
2,247684, Control_c,0,64,0
2,247690, Note_off_c,0,68,64
2,247704, Note_on_c,0,79,78
2,247728, Note_on_c,0,58,50
2,247736, Note_off_c,0,62,64
2,247738, Note_off_c,0,80,64
2,247770, Note_off_c,0,58,64
2,247774, Note_off_c,0,79,64
2,247778, Note_on_c,0,77,62
2,247832, Note_off_c,0,77,64
2,247874, Note_on_c,0,51,70
2,247874, Note_on_c,0,78,68
2,247906, Note_off_c,0,51,64
2,247956, Note_on_c,0,79,80
2,247962, Note_off_c,0,78,64
2,247964, Control_c,0,64,127
2,248004, Note_off_c,0,79,64
2,248050, Note_on_c,0,72,55
2,248052, Note_on_c,0,91,75
2,248060, Note_on_c,0,63,46
2,248070, Note_on_c,0,67,35
2,248126, Note_off_c,0,67,64
2,248134, Note_off_c,0,72,64
2,248146, Note_off_c,0,63,64
2,248148, Note_on_c,0,86,57
2,248168, Note_off_c,0,91,64
2,248208, Note_on_c,0,70,49
2,248222, Control_c,0,64,0
2,248224, Note_off_c,0,86,64
2,248226, Note_on_c,0,87,64
2,248248, Note_off_c,0,70,64
2,248280, Note_off_c,0,87,64
2,248306, Note_on_c,0,83,80
2,248354, Note_off_c,0,83,64
2,248364, Note_on_c,0,46,77
2,248382, Note_on_c,0,84,84
2,248400, Note_off_c,0,46,64
2,248456, Control_c,0,64,127
2,248476, Note_on_c,0,79,69
2,248504, Note_off_c,0,84,64
2,248550, Note_on_c,0,82,68
2,248550, Note_on_c,0,68,70
2,248560, Note_on_c,0,57,56
2,248568, Note_off_c,0,79,64
2,248594, Note_on_c,0,62,18
2,248618, Note_on_c,0,80,72
2,248648, Note_off_c,0,57,64
2,248664, Note_off_c,0,68,64
2,248670, Note_off_c,0,62,64
2,248672, Note_off_c,0,82,64
2,248700, Control_c,0,64,0
2,248704, Note_on_c,0,79,78
2,248712, Note_on_c,0,58,56
2,248742, Note_off_c,0,80,64
2,248756, Note_off_c,0,58,64
2,248768, Note_off_c,0,79,64
2,248770, Note_on_c,0,77,74
2,248824, Note_off_c,0,77,64
2,248856, Note_on_c,0,78,83
2,248858, Note_on_c,0,51,75
2,248894, Note_off_c,0,51,64
2,248936, Note_on_c,0,79,88
2,248944, Note_off_c,0,78,64
2,248948, Control_c,0,64,127
2,248980, Note_off_c,0,79,64
2,249014, Note_on_c,0,68,69
2,249018, Note_on_c,0,91,92
2,249034, Note_on_c,0,63,54
2,249046, Note_on_c,0,58,27
2,249080, Note_off_c,0,68,64
2,249102, Note_on_c,0,86,71
2,249108, Note_off_c,0,58,64
2,249160, Note_off_c,0,91,64
2,249174, Note_on_c,0,67,74
2,249180, Note_on_c,0,87,70
2,249200, Note_off_c,0,86,64
2,249208, Note_off_c,0,67,64
2,249216, Note_off_c,0,63,64
2,249230, Control_c,0,64,0
2,249252, Note_on_c,0,83,93
2,249266, Note_off_c,0,87,64
2,249336, Note_on_c,0,84,88
2,249338, Note_on_c,0,44,86
2,249352, Note_off_c,0,83,64
2,249376, Note_off_c,0,44,64
2,249402, Control_c,0,64,127
2,249426, Note_on_c,0,79,84
2,249478, Note_off_c,0,84,64
2,249504, Note_on_c,0,82,67
2,249510, Note_on_c,0,67,76
2,249518, Note_on_c,0,56,47
2,249520, Note_on_c,0,60,61
2,249528, Note_off_c,0,79,64
2,249588, Note_on_c,0,80,67
2,249606, Note_off_c,0,67,64
2,249624, Note_off_c,0,56,64
2,249654, Note_off_c,0,82,64
2,249678, Note_on_c,0,79,83
2,249682, Note_on_c,0,65,48
2,249720, Note_off_c,0,80,64
2,249722, Note_off_c,0,65,64
2,249728, Note_off_c,0,60,64
2,249762, Note_off_c,0,79,64
2,249768, Note_on_c,0,77,73
2,249772, Control_c,0,64,0
2,249864, Note_on_c,0,46,48
2,249898, Note_on_c,0,75,73
2,249918, Note_off_c,0,77,64
2,249970, Note_off_c,0,46,64
2,249992, Control_c,0,64,127
2,250012, Note_on_c,0,80,59
2,250084, Note_on_c,0,63,49
2,250102, Note_on_c,0,56,29
2,250112, Note_on_c,0,77,54
2,250128, Note_off_c,0,80,64
2,250138, Note_off_c,0,63,64
2,250160, Note_off_c,0,77,64
2,250168, Note_off_c,0,75,64
2,250182, Note_on_c,0,74,68
2,250192, Note_off_c,0,56,64
2,250272, Note_on_c,0,56,15
2,250276, Note_on_c,0,62,27
2,250276, Note_on_c,0,80,59
2,250326, Note_off_c,0,56,64
2,250330, Note_off_c,0,62,64
2,250360, Control_c,0,64,0
2,250380, Note_on_c,0,77,48
2,250440, Note_off_c,0,80,64
2,250448, Note_off_c,0,74,64
2,250448, Note_on_c,0,46,48
2,250448, Note_on_c,0,72,65
2,250480, Note_off_c,0,77,64
2,250508, Control_c,0,64,127
2,250536, Note_on_c,0,80,42
2,250554, Note_off_c,0,46,64
2,250616, Note_on_c,0,56,38
2,250620, Note_on_c,0,60,46
2,250630, Note_on_c,0,77,44
2,250638, Note_on_c,0,53,67
2,250654, Note_off_c,0,80,64
2,250666, Note_off_c,0,72,64
2,250692, Note_off_c,0,53,64
2,250694, Note_off_c,0,77,64
2,250698, Note_on_c,0,70,41
2,250714, Note_off_c,0,60,64
2,250720, Note_off_c,0,56,64
2,250796, Note_off_c,0,70,64
2,250798, Note_on_c,0,58,43
2,250806, Note_on_c,0,80,56
2,250848, Note_off_c,0,58,64
2,250878, Control_c,0,64,0
2,250880, Note_on_c,0,77,56
2,250908, Note_off_c,0,80,64
2,250952, Note_on_c,0,51,52
2,250958, Note_off_c,0,77,64
2,250958, Note_on_c,0,78,72
2,250992, Note_off_c,0,51,64
2,251016, Note_off_c,0,78,64
2,251048, Note_on_c,0,79,83
2,251050, Control_c,0,64,127
2,251088, Note_off_c,0,79,64
2,251130, Note_on_c,0,72,61
2,251144, Note_on_c,0,91,75
2,251150, Note_on_c,0,67,30
2,251150, Note_on_c,0,63,45
2,251192, Note_off_c,0,72,64
2,251212, Note_off_c,0,67,64
2,251228, Note_off_c,0,63,64
2,251228, Note_on_c,0,86,54
2,251252, Note_off_c,0,91,64
2,251304, Note_on_c,0,70,38
2,251312, Note_on_c,0,87,59
2,251320, Note_off_c,0,86,64
2,251320, Control_c,0,64,0
2,251358, Note_off_c,0,70,64
2,251368, Note_off_c,0,87,64
2,251384, Note_on_c,0,83,91
2,251464, Note_on_c,0,46,65
2,251472, Note_on_c,0,84,76
2,251480, Note_off_c,0,83,64
2,251500, Note_off_c,0,46,64
2,251516, Control_c,0,64,127
2,251562, Note_on_c,0,79,54
2,251582, Note_off_c,0,84,64
2,251642, Note_off_c,0,79,64
2,251654, Note_on_c,0,82,62
2,251664, Note_on_c,0,57,64
2,251664, Note_on_c,0,68,64
2,251686, Note_on_c,0,62,38
2,251730, Note_off_c,0,57,64
2,251730, Note_on_c,0,80,64
2,251740, Note_off_c,0,62,64
2,251748, Note_off_c,0,68,64
2,251784, Note_off_c,0,82,64
2,251800, Control_c,0,64,0
2,251816, Note_on_c,0,79,76
2,251822, Note_on_c,0,58,54
2,251850, Note_off_c,0,80,64
2,251862, Note_off_c,0,58,64
2,251862, Note_off_c,0,79,64
2,251884, Note_on_c,0,77,58
2,251930, Note_off_c,0,77,64
2,251964, Note_on_c,0,51,70
2,251966, Note_on_c,0,78,74
2,251996, Note_off_c,0,51,64
2,252024, Note_off_c,0,78,64
2,252046, Note_on_c,0,79,83
2,252046, Control_c,0,64,127
2,252080, Note_off_c,0,79,64
2,252128, Note_on_c,0,91,83
2,252130, Note_on_c,0,72,57
2,252130, Note_on_c,0,67,61
2,252140, Note_on_c,0,63,42
2,252174, Note_off_c,0,72,64
2,252180, Note_off_c,0,67,64
2,252198, Note_off_c,0,63,64
2,252210, Note_on_c,0,86,62
2,252242, Note_off_c,0,91,64
2,252264, Note_on_c,0,70,47
2,252292, Control_c,0,64,0
2,252292, Note_on_c,0,87,61
2,252312, Note_off_c,0,70,64
2,252318, Note_off_c,0,86,64
2,252348, Note_off_c,0,87,64
2,252360, Note_on_c,0,83,89
2,252414, Note_on_c,0,46,76
2,252438, Note_on_c,0,84,87
2,252442, Note_off_c,0,83,64
2,252448, Note_off_c,0,46,64
2,252500, Control_c,0,64,127
2,252522, Note_on_c,0,79,64
2,252554, Note_off_c,0,84,64
2,252584, Note_on_c,0,68,72
2,252588, Note_on_c,0,57,63
2,252596, Note_on_c,0,82,63
2,252604, Note_on_c,0,62,43
2,252612, Note_off_c,0,79,64
2,252648, Note_off_c,0,57,64
2,252652, Note_on_c,0,80,72
2,252666, Note_off_c,0,68,64
2,252678, Note_off_c,0,62,64
2,252712, Note_off_c,0,82,64
2,252732, Note_on_c,0,79,79
2,252734, Control_c,0,64,0
2,252736, Note_on_c,0,58,57
2,252768, Note_off_c,0,80,64
2,252772, Note_off_c,0,79,64
2,252778, Note_off_c,0,58,64
2,252792, Note_on_c,0,77,68
2,252836, Note_off_c,0,77,64
2,252854, Note_on_c,0,51,79
2,252872, Note_on_c,0,78,79
2,252882, Note_off_c,0,51,64
2,252918, Note_off_c,0,78,64
2,252944, Control_c,0,64,127
2,252946, Note_on_c,0,79,81
2,252982, Note_off_c,0,79,64
2,253022, Note_on_c,0,77,88
2,253024, Note_on_c,0,91,89
2,253030, Note_on_c,0,67,57
2,253032, Note_on_c,0,70,52
2,253076, Note_off_c,0,67,64
2,253104, Note_off_c,0,77,64
2,253110, Note_on_c,0,86,63
2,253158, Note_off_c,0,91,64
2,253162, Note_on_c,0,75,63
2,253182, Note_on_c,0,87,69
2,253186, Note_off_c,0,70,64
2,253196, Note_off_c,0,75,64
2,253210, Note_off_c,0,86,64
2,253212, Control_c,0,64,0
2,253226, Note_off_c,0,87,64
2,253242, Note_on_c,0,83,91
2,253300, Note_off_c,0,83,64
2,253318, Note_on_c,0,44,90
2,253320, Note_on_c,0,84,88
2,253344, Note_off_c,0,44,64
2,253398, Control_c,0,64,127
2,253404, Note_on_c,0,79,79
2,253456, Note_off_c,0,84,64
2,253474, Note_on_c,0,60,84
2,253478, Note_on_c,0,82,56
2,253478, Note_on_c,0,67,76
2,253486, Note_on_c,0,56,21
2,253494, Note_off_c,0,79,64
2,253526, Note_on_c,0,80,77
2,253550, Note_off_c,0,56,64
2,253578, Note_off_c,0,67,64
2,253582, Note_off_c,0,60,64
2,253594, Note_off_c,0,82,64
2,253608, Note_on_c,0,79,88
2,253632, Note_on_c,0,65,60
2,253656, Note_off_c,0,80,64
2,253656, Control_c,0,64,0
2,253666, Note_off_c,0,65,64
2,253678, Note_on_c,0,77,71
2,253702, Note_off_c,0,79,64
2,253748, Note_on_c,0,76,84
2,253758, Note_on_c,0,46,81
2,253782, Note_off_c,0,77,64
2,253792, Note_off_c,0,46,64
2,253824, Note_on_c,0,75,78
2,253840, Control_c,0,64,127
2,253878, Note_off_c,0,76,64
2,253892, Note_on_c,0,62,83
2,253898, Note_on_c,0,74,77
2,253904, Note_on_c,0,56,56
2,253908, Note_off_c,0,75,64
2,253912, Note_on_c,0,53,80
2,253948, Note_off_c,0,62,64
2,253950, Note_off_c,0,53,64
2,253970, Note_off_c,0,56,64
2,253972, Note_on_c,0,73,73
2,253990, Note_off_c,0,74,64
2,254012, Control_c,0,64,0
2,254040, Note_on_c,0,72,75
2,254052, Note_on_c,0,56,52
2,254060, Note_on_c,0,62,70
2,254088, Note_on_c,0,53,30
2,254092, Note_off_c,0,73,64
2,254094, Note_off_c,0,62,64
2,254104, Note_on_c,0,71,75
2,254112, Note_off_c,0,56,64
2,254114, Note_off_c,0,72,64
2,254130, Note_off_c,0,53,64
2,254184, Note_on_c,0,70,76
2,254194, Note_on_c,0,53,84
2,254200, Note_on_c,0,56,57
2,254202, Note_on_c,0,62,63
2,254212, Note_off_c,0,71,64
2,254232, Note_off_c,0,53,64
2,254246, Note_off_c,0,62,64
2,254248, Note_off_c,0,56,64
2,254260, Note_on_c,0,69,71
2,254284, Note_off_c,0,70,64
2,254332, Note_off_c,0,69,64
2,254336, Note_on_c,0,62,62
2,254340, Note_on_c,0,56,46
2,254342, Note_on_c,0,72,65
2,254352, Note_on_c,0,53,64
2,254384, Note_off_c,0,62,64
2,254392, Note_off_c,0,53,64
2,254394, Note_off_c,0,56,64
2,254402, Note_on_c,0,70,51
2,254458, Note_off_c,0,72,64
2,254474, Note_on_c,0,69,54
2,254484, Note_on_c,0,62,61
2,254490, Note_on_c,0,56,47
2,254496, Note_on_c,0,53,44
2,254522, Note_off_c,0,62,64
2,254532, Note_off_c,0,70,64
2,254542, Note_off_c,0,53,64
2,254546, Note_off_c,0,56,64
2,254550, Note_on_c,0,68,66
2,254560, Note_off_c,0,69,64
2,254640, Note_off_c,0,68,64
2,254640, Note_on_c,0,67,64
2,254652, Note_on_c,0,61,70
2,254664, Note_on_c,0,58,47
2,254664, Note_on_c,0,51,60
2,254688, Note_off_c,0,61,64
2,254704, Note_off_c,0,58,64
2,254704, Note_off_c,0,67,64
2,254710, Note_on_c,0,68,52
2,254716, Note_off_c,0,51,64
2,254736, Control_c,0,64,127
2,254800, Note_on_c,0,69,53
2,254812, Note_off_c,0,68,64
2,254852, Note_on_c,0,51,57
2,254852, Note_on_c,0,39,64
2,254868, Note_on_c,0,70,50
2,254876, Note_off_c,0,69,64
2,254886, Note_off_c,0,39,64
2,254894, Note_off_c,0,51,64
2,254928, Note_off_c,0,70,64
2,254942, Note_on_c,0,72,63
2,254962, Note_on_c,0,51,65
2,254964, Note_on_c,0,39,49
2,255000, Note_off_c,0,39,64
2,255018, Note_on_c,0,70,53
2,255030, Note_off_c,0,51,64
2,255032, Control_c,0,64,0
2,255052, Note_off_c,0,72,64
2,255088, Note_on_c,0,68,68
2,255108, Note_off_c,0,70,64
2,255114, Note_on_c,0,56,86
2,255114, Note_on_c,0,60,83
2,255146, Note_off_c,0,60,64
2,255150, Note_off_c,0,56,64
2,255162, Note_on_c,0,70,60
2,255206, Note_off_c,0,68,64
2,255246, Note_on_c,0,71,75
2,255254, Note_off_c,0,70,64
2,255274, Note_on_c,0,55,85
2,255288, Note_on_c,0,43,70
2,255306, Note_off_c,0,55,64
2,255316, Note_on_c,0,72,72
2,255322, Note_off_c,0,43,64
2,255356, Note_off_c,0,71,64
2,255400, Note_on_c,0,73,66
2,255406, Note_off_c,0,72,64
2,255408, Note_on_c,0,54,81
2,255408, Note_on_c,0,42,73
2,255438, Note_off_c,0,42,64
2,255438, Note_off_c,0,54,64
2,255462, Note_on_c,0,72,62
2,255520, Note_off_c,0,73,64
2,255554, Note_on_c,0,63,86
2,255560, Note_on_c,0,57,71
2,255564, Note_on_c,0,69,58
2,255568, Note_off_c,0,72,64
2,255628, Note_off_c,0,57,64
2,255630, Note_off_c,0,63,64
2,255632, Note_on_c,0,70,68
2,255634, Control_c,0,64,127
2,255638, Note_off_c,0,69,64
2,255722, Note_on_c,0,71,78
2,255750, Note_off_c,0,70,64
2,255770, Note_on_c,0,53,74
2,255782, Note_on_c,0,41,17
2,255790, Note_on_c,0,72,58
2,255806, Note_off_c,0,71,64
2,255808, Note_off_c,0,53,64
2,255824, Note_off_c,0,41,64
2,255840, Note_off_c,0,72,64
2,255856, Note_on_c,0,53,103
2,255862, Note_on_c,0,74,75
2,255870, Note_on_c,0,41,87
2,255898, Note_off_c,0,41,64
2,255904, Note_off_c,0,53,64
2,255924, Note_on_c,0,72,67
2,255952, Note_off_c,0,74,64
2,255990, Note_on_c,0,70,74
2,256010, Note_off_c,0,72,64
2,256012, Note_on_c,0,58,65
2,256020, Note_on_c,0,62,42
2,256038, Note_on_c,0,60,32
2,256040, Control_c,0,64,0
2,256048, Note_off_c,0,58,64
2,256058, Note_on_c,0,72,77
2,256068, Note_off_c,0,62,64
2,256086, Note_off_c,0,70,64
2,256094, Note_off_c,0,60,64
2,256150, Note_on_c,0,73,75
2,256152, Note_on_c,0,57,89
2,256160, Note_on_c,0,45,73
2,256184, Note_off_c,0,57,64
2,256194, Note_off_c,0,45,64
2,256202, Note_off_c,0,72,64
2,256226, Note_on_c,0,74,78
2,256268, Note_off_c,0,73,64
2,256278, Note_on_c,0,56,88
2,256278, Note_on_c,0,44,92
2,256296, Note_on_c,0,75,80
2,256306, Note_off_c,0,44,64
2,256312, Note_off_c,0,74,64
2,256316, Note_off_c,0,56,64
2,256360, Control_c,0,64,127
2,256368, Note_on_c,0,74,81
2,256408, Control_c,0,64,0
2,256416, Note_off_c,0,75,64
2,256446, Note_on_c,0,59,96
2,256446, Note_on_c,0,65,92
2,256446, Note_on_c,0,71,89
2,256456, Note_off_c,0,74,64
2,256520, Note_on_c,0,72,78
2,256524, Note_off_c,0,59,64
2,256528, Note_off_c,0,65,64
2,256544, Note_off_c,0,71,64
2,256556, Control_c,0,64,127
2,256592, Note_on_c,0,73,72
2,256608, Note_off_c,0,72,64
2,256654, Note_on_c,0,43,90
2,256670, Note_on_c,0,74,81
2,256680, Note_off_c,0,43,64
2,256684, Note_off_c,0,73,64
2,256688, Note_on_c,0,55,20
2,256728, Note_off_c,0,74,64
2,256736, Note_off_c,0,55,64
2,256736, Note_on_c,0,75,76
2,256762, Note_on_c,0,43,12
2,256776, Note_on_c,0,55,32
2,256802, Note_off_c,0,43,64
2,256808, Note_on_c,0,74,64
2,256826, Note_off_c,0,55,64
2,256826, Control_c,0,64,0
2,256848, Note_on_c,0,72,78
2,256864, Note_off_c,0,75,64
2,256886, Note_off_c,0,74,64
2,256896, Note_on_c,0,63,94
2,256906, Note_on_c,0,60,80
2,256934, Note_off_c,0,72,64
2,256936, Note_off_c,0,63,64
2,256940, Note_on_c,0,73,78
2,256942, Note_off_c,0,60,64
2,256974, Control_c,0,64,127
2,257018, Note_on_c,0,74,81
2,257032, Note_off_c,0,73,64
2,257042, Note_on_c,0,48,78
2,257080, Note_off_c,0,48,64
2,257098, Note_on_c,0,75,79
2,257126, Note_off_c,0,74,64
2,257160, Note_on_c,0,76,75
2,257194, Control_c,0,64,0
2,257200, Note_off_c,0,75,64
2,257236, Note_on_c,0,77,74
2,257302, Note_off_c,0,76,64
2,257306, Note_on_c,0,79,93
2,257312, Note_on_c,0,63,84
2,257316, Note_off_c,0,77,64
2,257326, Note_on_c,0,56,65
2,257352, Note_off_c,0,63,64
2,257368, Note_off_c,0,56,64
2,257378, Note_on_c,0,77,61
2,257404, Control_c,0,64,127
2,257440, Note_on_c,0,76,61
2,257448, Note_off_c,0,79,64
2,257490, Note_off_c,0,77,64
2,257494, Note_on_c,0,47,57
2,257512, Note_on_c,0,75,73
2,257530, Note_off_c,0,47,64
2,257542, Note_off_c,0,76,64
2,257570, Note_off_c,0,75,64
2,257584, Note_on_c,0,74,66
2,257652, Note_off_c,0,74,64
2,257652, Note_on_c,0,73,61
2,257674, Control_c,0,64,0
2,257728, Note_on_c,0,72,68
2,257740, Note_on_c,0,62,50
2,257742, Note_on_c,0,56,61
2,257766, Note_off_c,0,73,64
2,257782, Note_off_c,0,62,64
2,257784, Note_off_c,0,56,64
2,257798, Note_off_c,0,72,64
2,257800, Note_on_c,0,71,72
2,257834, Control_c,0,64,127
2,257870, Note_on_c,0,70,66
2,257872, Note_off_c,0,71,64
2,257872, Note_on_c,0,46,47
2,257914, Note_off_c,0,46,64
2,257946, Note_on_c,0,69,67
2,257970, Note_off_c,0,70,64
2,257990, Note_off_c,0,69,64
2,258016, Note_on_c,0,70,66
2,258094, Note_on_c,0,68,57
2,258104, Control_c,0,64,0
2,258116, Note_off_c,0,70,64
2,258172, Note_on_c,0,51,41
2,258174, Note_on_c,0,39,46
2,258192, Note_on_c,0,67,63
2,258222, Note_off_c,0,39,64
2,258224, Note_off_c,0,68,64
2,258226, Note_off_c,0,51,64
2,258228, Note_off_c,0,67,64
2,258264, Control_c,0,64,127
2,258338, Note_on_c,0,58,59
2,258346, Note_on_c,0,55,73
2,258352, Note_on_c,0,43,62
2,258384, Note_off_c,0,55,64
2,258392, Note_off_c,0,43,64
2,258412, Note_on_c,0,70,59
2,258414, Note_off_c,0,58,64
2,258486, Note_on_c,0,62,55
2,258496, Note_on_c,0,56,65
2,258500, Note_off_c,0,70,64
2,258512, Note_on_c,0,44,61
2,258524, Note_off_c,0,62,64
2,258542, Note_off_c,0,56,64
2,258550, Note_on_c,0,71,70
2,258562, Note_off_c,0,44,64
2,258634, Note_on_c,0,58,69
2,258646, Note_off_c,0,71,64
2,258654, Note_on_c,0,55,78
2,258662, Note_on_c,0,43,64
2,258686, Note_off_c,0,55,64
2,258698, Note_off_c,0,43,64
2,258706, Note_on_c,0,70,55
2,258712, Note_off_c,0,58,64
2,258780, Note_on_c,0,63,73
2,258784, Note_on_c,0,51,79
2,258788, Note_on_c,0,39,78
2,258802, Note_off_c,0,70,64
2,258816, Note_off_c,0,39,64
2,258818, Note_off_c,0,51,64
2,258864, Note_on_c,0,67,57
2,258878, Note_off_c,0,63,64
2,258880, Control_c,0,64,0
2,258922, Note_on_c,0,64,76
2,258926, Note_on_c,0,58,79
2,258928, Note_on_c,0,46,79
2,258976, Note_off_c,0,67,64
2,258984, Note_on_c,0,73,70
2,259018, Note_off_c,0,64,64
2,259020, Note_off_c,0,58,64
2,259024, Note_off_c,0,46,64
2,259052, Control_c,0,64,127
2,259074, Note_off_c,0,73,64
2,259082, Note_on_c,0,57,80
2,259086, Note_on_c,0,60,70
2,259088, Note_on_c,0,45,76
2,259120, Note_off_c,0,57,64
2,259136, Note_off_c,0,60,64
2,259146, Note_off_c,0,45,64
2,259148, Note_on_c,0,72,72
2,259230, Note_on_c,0,65,66
2,259238, Note_on_c,0,53,101
2,259240, Note_on_c,0,41,88
2,259248, Note_off_c,0,72,64
2,259266, Note_off_c,0,53,64
2,259268, Note_off_c,0,41,64
2,259296, Note_on_c,0,69,63
2,259312, Note_off_c,0,65,64
2,259370, Control_c,0,64,0
2,259380, Note_on_c,0,58,83
2,259382, Note_on_c,0,64,74
2,259386, Note_on_c,0,46,82
2,259404, Note_off_c,0,69,64
2,259434, Note_on_c,0,73,71
2,259436, Note_off_c,0,64,64
2,259466, Note_off_c,0,58,64
2,259472, Note_off_c,0,46,64
2,259506, Control_c,0,64,127
2,259526, Note_off_c,0,73,64
2,259526, Note_on_c,0,60,80
2,259538, Note_on_c,0,57,83
2,259544, Note_on_c,0,45,82
2,259582, Note_off_c,0,57,64
2,259600, Note_on_c,0,72,71
2,259608, Note_off_c,0,60,64
2,259610, Note_off_c,0,45,64
2,259672, Note_on_c,0,65,64
2,259680, Note_on_c,0,53,102
2,259684, Note_on_c,0,41,91
2,259694, Note_off_c,0,72,64
2,259710, Note_off_c,0,53,64
2,259712, Note_off_c,0,41,64
2,259736, Note_on_c,0,69,62
2,259760, Note_off_c,0,65,64
2,259780, Note_off_c,0,69,64
2,259788, Control_c,0,64,0
2,259832, Note_on_c,0,66,75
2,259836, Note_on_c,0,60,92
2,259840, Note_on_c,0,48,87
2,259896, Note_off_c,0,60,64
2,259902, Note_on_c,0,75,80
2,259908, Note_off_c,0,48,64
2,259936, Control_c,0,64,127
2,259948, Note_off_c,0,66,64
2,259994, Note_on_c,0,62,84
2,260002, Note_on_c,0,59,84
2,260006, Note_on_c,0,47,83
2,260008, Note_off_c,0,75,64
2,260040, Note_off_c,0,59,64
2,260048, Note_off_c,0,47,64
2,260066, Note_on_c,0,74,75
2,260078, Note_off_c,0,62,64
2,260136, Note_on_c,0,67,68
2,260150, Note_on_c,0,55,92
2,260154, Note_on_c,0,43,88
2,260158, Note_off_c,0,74,64
2,260182, Note_off_c,0,43,64
2,260188, Note_off_c,0,55,64
2,260208, Note_on_c,0,71,84
2,260226, Note_off_c,0,67,64
2,260244, Control_c,0,64,0
2,260290, Note_on_c,0,66,76
2,260302, Note_on_c,0,60,93
2,260308, Note_on_c,0,48,87
2,260328, Note_off_c,0,71,64
2,260346, Note_off_c,0,60,64
2,260346, Note_on_c,0,75,79
2,260364, Note_off_c,0,48,64
2,260384, Note_off_c,0,66,64
2,260404, Control_c,0,64,127
2,260432, Note_off_c,0,75,64
2,260440, Note_on_c,0,62,84
2,260446, Note_on_c,0,59,71
2,260450, Note_on_c,0,47,84
2,260492, Note_off_c,0,47,64
2,260492, Note_off_c,0,59,64
2,260508, Note_off_c,0,62,64
2,260516, Note_on_c,0,74,78
2,260584, Note_on_c,0,67,64
2,260596, Note_on_c,0,55,89
2,260596, Note_on_c,0,43,91
2,260608, Note_off_c,0,74,64
2,260622, Note_off_c,0,43,64
2,260632, Note_off_c,0,55,64
2,260644, Note_on_c,0,71,88
2,260650, Note_off_c,0,67,64
2,260680, Note_off_c,0,71,64
2,260712, Control_c,0,64,0
2,260752, Note_on_c,0,68,84
2,260760, Note_on_c,0,62,102
2,260762, Note_on_c,0,50,104
2,260808, Note_off_c,0,50,64
2,260808, Note_on_c,0,77,82
2,260832, Note_off_c,0,68,64
2,260840, Note_off_c,0,62,64
2,260848, Control_c,0,64,127
2,260874, Note_off_c,0,77,64
2,260910, Note_on_c,0,64,83
2,260912, Note_on_c,0,61,93
2,260920, Note_on_c,0,49,88
2,260956, Note_off_c,0,61,64
2,260958, Note_off_c,0,49,64
2,260976, Note_on_c,0,76,76
2,261000, Note_off_c,0,64,64
2,261056, Note_on_c,0,69,63
2,261062, Note_on_c,0,45,91
2,261062, Note_on_c,0,57,88
2,261068, Note_off_c,0,76,64
2,261088, Note_off_c,0,45,64
2,261096, Note_off_c,0,57,64
2,261120, Note_on_c,0,73,79
2,261144, Note_off_c,0,69,64
2,261204, Note_off_c,0,73,64
2,261216, Control_c,0,64,0
2,261232, Note_on_c,0,70,87
2,261232, Note_on_c,0,64,108
2,261234, Note_on_c,0,52,110
2,261272, Note_on_c,0,79,87
2,261292, Note_off_c,0,64,64
2,261312, Note_off_c,0,52,64
2,261320, Note_off_c,0,70,64
2,261350, Control_c,0,64,127
2,261364, Note_off_c,0,79,64
2,261388, Note_on_c,0,66,85
2,261396, Note_on_c,0,63,95
2,261404, Note_on_c,0,51,88
2,261434, Note_off_c,0,63,64
2,261444, Note_off_c,0,51,64
2,261464, Note_on_c,0,78,87
2,261506, Note_off_c,0,66,64
2,261530, Note_on_c,0,71,75
2,261548, Note_on_c,0,59,92
2,261550, Note_on_c,0,47,93
2,261576, Note_off_c,0,47,64
2,261578, Note_off_c,0,59,64
2,261604, Note_on_c,0,75,76
2,261614, Note_off_c,0,71,64
2,261642, Note_off_c,0,78,64
2,261664, Note_off_c,0,75,64
2,261702, Note_on_c,0,72,89
2,261714, Note_on_c,0,62,89
2,261716, Note_on_c,0,50,98
2,261744, Note_off_c,0,62,64
2,261760, Note_off_c,0,50,64
2,261786, Note_on_c,0,81,91
2,261788, Note_off_c,0,72,64
2,261880, Control_c,0,64,0
2,261912, Note_on_c,0,73,103
2,261912, Note_on_c,0,78,84
2,261916, Note_on_c,0,85,100
2,261920, Note_on_c,0,49,105
2,261928, Note_on_c,0,37,108
2,262050, Note_off_c,0,49,64
2,262050, Control_c,0,64,127
2,262052, Note_off_c,0,37,64
2,262072, Note_off_c,0,85,64
2,262088, Note_off_c,0,73,64
2,262096, Note_off_c,0,78,64
2,262096, Note_off_c,0,81,64
2,262136, Note_on_c,0,72,69
2,262192, Note_off_c,0,72,64
2,262224, Note_on_c,0,69,46
2,262224, Note_on_c,0,61,42
2,262224, Note_on_c,0,57,44
2,262224, Note_on_c,0,73,62
2,262230, Note_on_c,0,66,64
2,262264, Note_off_c,0,66,64
2,262272, Note_off_c,0,57,64
2,262274, Note_off_c,0,61,64
2,262276, Note_off_c,0,69,64
2,262278, Note_on_c,0,75,74
2,262316, Note_on_c,0,57,44
2,262318, Note_on_c,0,61,50
2,262320, Note_on_c,0,69,52
2,262322, Note_on_c,0,66,62
2,262326, Note_off_c,0,73,64
2,262340, Note_off_c,0,75,64
2,262362, Note_off_c,0,69,64
2,262364, Note_off_c,0,57,64
2,262364, Note_on_c,0,77,82
2,262368, Note_off_c,0,61,64
2,262410, Note_off_c,0,66,64
2,262448, Note_on_c,0,78,80
2,262458, Note_on_c,0,69,76
2,262458, Note_on_c,0,66,55
2,262464, Note_on_c,0,57,44
2,262464, Note_on_c,0,61,55
2,262470, Note_off_c,0,77,64
2,262504, Note_off_c,0,69,64
2,262510, Note_off_c,0,61,64
2,262510, Note_on_c,0,80,84
2,262514, Note_off_c,0,57,64
2,262528, Note_off_c,0,66,64
2,262560, Note_off_c,0,78,64
2,262578, Note_off_c,0,80,64
2,262588, Note_on_c,0,81,88
2,262588, Note_on_c,0,57,52
2,262590, Note_on_c,0,69,77
2,262596, Note_on_c,0,66,53
2,262600, Note_on_c,0,61,55
2,262642, Note_off_c,0,61,64
2,262642, Note_off_c,0,66,64
2,262642, Note_off_c,0,57,64
2,262644, Note_off_c,0,69,64
2,262660, Note_on_c,0,83,111
2,262680, Note_off_c,0,81,64
2,262720, Note_on_c,0,85,89
2,262728, Note_on_c,0,69,74
2,262732, Note_on_c,0,66,61
2,262734, Note_on_c,0,57,66
2,262734, Note_on_c,0,61,58
2,262768, Note_off_c,0,83,64
2,262778, Note_off_c,0,66,64
2,262782, Note_off_c,0,61,64
2,262782, Note_off_c,0,57,64
2,262792, Note_off_c,0,69,64
2,262802, Note_on_c,0,87,77
2,262840, Note_off_c,0,85,64
2,262850, Note_off_c,0,87,64
2,262868, Note_on_c,0,69,91
2,262872, Note_on_c,0,61,65
2,262872, Note_on_c,0,57,83
2,262872, Note_on_c,0,66,73
2,262882, Note_on_c,0,89,96
2,262938, Note_off_c,0,69,64
2,262942, Note_on_c,0,90,85
2,262956, Note_off_c,0,57,64
2,262958, Note_off_c,0,89,64
2,262960, Note_off_c,0,66,64
2,262960, Note_off_c,0,61,64
2,263010, Note_on_c,0,92,74
2,263080, Note_on_c,0,93,89
2,263086, Note_off_c,0,90,64
2,263120, Note_off_c,0,92,64
2,263152, Note_on_c,0,90,70
2,263192, Note_off_c,0,93,64
2,263222, Note_on_c,0,85,82
2,263276, Note_off_c,0,90,64
2,263280, Note_on_c,0,81,88
2,263296, Note_off_c,0,85,64
2,263312, Note_off_c,0,81,64
2,263356, Note_on_c,0,78,84
2,263430, Note_on_c,0,73,64
2,263464, Note_off_c,0,78,64
2,263496, Note_off_c,0,73,64
2,263496, Note_on_c,0,69,69
2,263534, Note_off_c,0,69,64
2,263576, Note_on_c,0,66,72
2,263576, Note_on_c,0,49,88
2,263578, Note_on_c,0,37,84
2,263656, Note_on_c,0,61,78
2,263668, Note_off_c,0,37,64
2,263670, Note_off_c,0,49,64
2,263686, Note_off_c,0,66,64
2,263710, Control_c,0,64,0
2,263746, Note_on_c,0,57,91
2,263748, Note_on_c,0,48,97
2,263752, Note_on_c,0,36,106
2,263762, Note_off_c,0,61,64
2,263826, Note_off_c,0,57,64
2,263836, Note_on_c,0,66,69
2,263878, Note_off_c,0,36,64
2,263884, Note_off_c,0,48,64
2,263896, Control_c,0,64,127
2,263910, Note_on_c,0,63,71
2,263966, Note_off_c,0,66,64
2,263982, Note_off_c,0,63,64
2,264016, Note_on_c,0,69,51
2,264016, Note_on_c,0,57,58
2,264020, Note_on_c,0,63,81
2,264020, Note_on_c,0,54,60
2,264056, Note_off_c,0,54,64
2,264056, Note_off_c,0,69,64
2,264058, Note_off_c,0,57,64
2,264068, Note_off_c,0,63,64
2,264104, Note_on_c,0,69,57
2,264106, Note_on_c,0,63,85
2,264108, Note_on_c,0,57,67
2,264112, Note_on_c,0,54,60
2,264150, Note_off_c,0,69,64
2,264166, Note_on_c,0,78,75
2,264196, Note_off_c,0,63,64
2,264220, Note_off_c,0,54,64
2,264224, Note_off_c,0,57,64
2,264238, Note_on_c,0,75,76
2,264254, Note_on_c,0,54,67
2,264256, Note_on_c,0,63,82
2,264260, Note_on_c,0,57,55
2,264276, Note_off_c,0,78,64
2,264304, Note_off_c,0,57,64
2,264308, Note_on_c,0,81,74
2,264314, Note_off_c,0,63,64
2,264314, Note_off_c,0,54,64
2,264322, Note_off_c,0,75,64
2,264338, Note_off_c,0,81,64
2,264386, Note_on_c,0,81,81
2,264462, Note_on_c,0,90,78
2,264490, Note_off_c,0,81,64
2,264544, Note_on_c,0,87,86
2,264548, Note_on_c,0,48,96
2,264548, Note_on_c,0,36,105
2,264614, Note_on_c,0,93,84
2,264618, Note_off_c,0,90,64
2,264636, Note_off_c,0,48,64
2,264646, Note_off_c,0,36,64
2,264652, Note_off_c,0,87,64
2,264680, Control_c,0,64,0
2,264718, Note_on_c,0,90,92
2,264720, Note_off_c,0,93,64
2,264722, Note_on_c,0,47,106
2,264728, Note_on_c,0,35,111
2,264800, Note_on_c,0,93,73
2,264806, Note_off_c,0,47,64
2,264828, Note_off_c,0,35,64
2,264840, Control_c,0,64,127
2,264856, Note_off_c,0,90,64
2,264888, Note_on_c,0,87,66
2,264944, Note_off_c,0,93,64
2,264968, Note_off_c,0,87,64
2,264968, Note_on_c,0,81,63
2,264968, Note_on_c,0,63,84
2,264968, Note_on_c,0,57,57
2,264974, Note_on_c,0,54,76
2,265004, Note_off_c,0,63,64
2,265004, Note_off_c,0,81,64
2,265006, Note_off_c,0,57,64
2,265008, Note_off_c,0,54,64
2,265050, Note_on_c,0,78,83
2,265068, Note_on_c,0,63,90
2,265070, Note_on_c,0,57,68
2,265074, Note_on_c,0,54,72
2,265136, Note_on_c,0,81,67
2,265160, Note_off_c,0,63,64
2,265162, Note_off_c,0,54,64
2,265172, Note_off_c,0,78,64
2,265176, Note_off_c,0,57,64
2,265232, Note_on_c,0,75,75
2,265240, Note_on_c,0,63,82
2,265240, Note_on_c,0,57,50
2,265250, Note_on_c,0,54,67
2,265270, Note_off_c,0,81,64
2,265298, Note_on_c,0,69,75
2,265316, Note_off_c,0,63,64
2,265320, Note_off_c,0,75,64
2,265328, Note_off_c,0,57,64
2,265338, Note_off_c,0,69,64
2,265338, Note_off_c,0,54,64
2,265392, Note_on_c,0,66,84
2,265486, Note_on_c,0,69,81
2,265492, Control_c,0,64,0
2,265522, Note_off_c,0,66,64
2,265568, Note_on_c,0,63,84
2,265572, Note_on_c,0,35,84
2,265578, Note_on_c,0,47,76
2,265630, Control_c,0,64,127
2,265634, Note_off_c,0,69,64
2,265636, Note_on_c,0,57,87
2,265652, Note_off_c,0,35,64
2,265684, Note_off_c,0,47,64
2,265702, Note_off_c,0,63,64
2,265720, Note_off_c,0,57,64
2,265752, Control_c,0,64,0
2,265764, Note_on_c,0,67,62
2,265766, Note_on_c,0,63,75
2,265768, Note_on_c,0,58,97
2,265768, Note_on_c,0,70,90
2,265776, Note_on_c,0,46,99
2,265782, Note_on_c,0,34,94
2,265894, Note_off_c,0,63,64
2,265896, Note_off_c,0,70,64
2,265896, Note_off_c,0,67,64
2,265908, Note_off_c,0,46,64
2,265910, Control_c,0,64,127
2,265912, Note_off_c,0,34,64
2,265932, Note_off_c,0,58,64
2,265996, Note_on_c,0,57,72
2,266066, Note_on_c,0,58,64
2,266072, Note_off_c,0,57,64
2,266148, Note_on_c,0,60,78
2,266152, Note_off_c,0,58,64
2,266228, Note_on_c,0,62,65
2,266248, Note_off_c,0,60,64
2,266256, Control_c,0,64,0
2,266294, Note_on_c,0,63,79
2,266316, Note_off_c,0,62,64
2,266366, Note_on_c,0,64,68
2,266372, Note_off_c,0,63,64
2,266404, Note_off_c,0,64,64
2,266416, Note_on_c,0,57,38
2,266416, Note_on_c,0,60,41
2,266418, Note_on_c,0,63,50
2,266424, Note_on_c,0,67,76
2,266472, Note_off_c,0,60,64
2,266476, Note_off_c,0,67,64
2,266476, Control_c,0,64,127
2,266480, Note_off_c,0,57,64
2,266488, Note_off_c,0,63,64
2,266514, Note_on_c,0,65,69
2,266576, Note_on_c,0,56,55
2,266578, Note_on_c,0,58,44
2,266580, Note_on_c,0,62,67
2,266584, Note_off_c,0,65,64
2,266584, Note_on_c,0,67,79
2,266610, Control_c,0,64,0
2,266616, Note_off_c,0,62,64
2,266620, Note_off_c,0,67,64
2,266632, Note_off_c,0,56,64
2,266644, Note_off_c,0,58,64
2,266648, Note_on_c,0,65,71
2,266710, Note_on_c,0,63,97
2,266714, Note_on_c,0,55,78
2,266716, Note_on_c,0,58,44
2,266722, Note_on_c,0,72,84
2,266748, Note_off_c,0,65,64
2,266754, Note_off_c,0,55,64
2,266778, Note_off_c,0,63,64
2,266782, Note_on_c,0,70,64
2,266784, Control_c,0,64,127
2,266826, Note_off_c,0,58,64
2,266840, Note_off_c,0,72,64
2,266850, Note_on_c,0,69,76
2,266872, Note_off_c,0,70,64
2,266920, Note_on_c,0,70,73
2,266946, Note_off_c,0,69,64
2,266998, Note_off_c,0,70,64
2,267000, Note_on_c,0,72,78
2,267078, Note_on_c,0,74,77
2,267106, Note_off_c,0,72,64
2,267128, Control_c,0,64,0
2,267136, Note_on_c,0,75,83
2,267158, Note_off_c,0,74,64
2,267220, Note_on_c,0,76,80
2,267244, Note_off_c,0,75,64
2,267288, Note_off_c,0,76,64
2,267296, Note_on_c,0,79,100
2,267296, Note_on_c,0,69,57
2,267296, Note_on_c,0,75,61
2,267302, Note_on_c,0,72,53
2,267324, Control_c,0,64,127
2,267346, Note_off_c,0,72,64
2,267354, Note_off_c,0,69,64
2,267376, Note_on_c,0,77,83
2,267384, Note_off_c,0,75,64
2,267392, Note_off_c,0,79,64
2,267442, Note_off_c,0,77,64
2,267442, Note_on_c,0,79,88
2,267452, Note_on_c,0,74,81
2,267454, Note_on_c,0,68,65
2,267464, Note_on_c,0,70,54
2,267496, Note_off_c,0,74,64
2,267496, Note_off_c,0,79,64
2,267516, Note_on_c,0,77,77
2,267530, Note_off_c,0,68,64
2,267538, Note_off_c,0,70,64
2,267558, Control_c,0,64,0
2,267590, Note_on_c,0,75,93
2,267598, Note_on_c,0,84,102
2,267600, Note_off_c,0,77,64
2,267600, Note_on_c,0,70,46
2,267600, Note_on_c,0,67,78
2,267664, Note_off_c,0,75,64
2,267672, Note_on_c,0,82,67
2,267692, Note_off_c,0,67,64
2,267694, Control_c,0,64,127
2,267704, Note_off_c,0,70,64
2,267722, Note_off_c,0,84,64
2,267738, Note_on_c,0,81,84
2,267756, Note_off_c,0,82,64
2,267820, Note_on_c,0,82,65
2,267846, Note_off_c,0,81,64
2,267872, Note_off_c,0,82,64
2,267890, Note_on_c,0,84,91
2,267952, Control_c,0,64,0
2,267970, Note_on_c,0,86,84
2,267988, Note_off_c,0,84,64
2,268040, Note_on_c,0,87,77
2,268072, Note_off_c,0,86,64
2,268096, Note_off_c,0,87,64
2,268118, Note_on_c,0,88,83
2,268122, Control_c,0,64,127
2,268164, Note_off_c,0,88,64
2,268184, Note_on_c,0,81,45
2,268186, Note_on_c,0,84,38
2,268192, Note_on_c,0,91,88
2,268192, Note_on_c,0,87,58
2,268228, Note_off_c,0,84,64
2,268228, Note_off_c,0,81,64
2,268252, Note_off_c,0,91,64
2,268256, Note_off_c,0,87,64
2,268266, Note_on_c,0,89,74
2,268332, Control_c,0,64,0
2,268338, Note_on_c,0,91,83
2,268350, Note_on_c,0,86,67
2,268350, Note_on_c,0,82,42
2,268352, Note_on_c,0,80,59
2,268354, Note_off_c,0,89,64
2,268376, Note_off_c,0,91,64
2,268392, Note_off_c,0,86,64
2,268394, Note_off_c,0,82,64
2,268400, Note_on_c,0,89,86
2,268408, Note_off_c,0,80,64
2,268478, Note_on_c,0,87,90
2,268480, Note_on_c,0,94,90
2,268484, Note_on_c,0,82,44
2,268488, Note_off_c,0,89,64
2,268488, Note_on_c,0,79,87
2,268504, Control_c,0,64,127
2,268508, Note_off_c,0,94,64
2,268512, Note_off_c,0,87,64
2,268522, Note_off_c,0,79,64
2,268544, Note_off_c,0,82,64
2,268666, Note_on_c,0,81,85
2,268728, Note_on_c,0,82,79
2,268756, Note_off_c,0,81,64
2,268792, Note_off_c,0,82,64
2,268808, Note_on_c,0,84,88
2,268880, Note_on_c,0,86,90
2,268904, Note_off_c,0,84,64
2,268958, Note_on_c,0,87,81
2,268980, Note_off_c,0,86,64
2,269034, Note_off_c,0,87,64
2,269034, Note_on_c,0,88,87
2,269106, Note_on_c,0,87,59
2,269118, Note_on_c,0,91,97
2,269118, Note_on_c,0,81,59
2,269124, Note_on_c,0,84,70
2,269126, Note_off_c,0,88,64
2,269176, Note_off_c,0,84,64
2,269182, Note_off_c,0,81,64
2,269200, Note_off_c,0,91,64
2,269200, Note_on_c,0,89,89
2,269204, Note_off_c,0,87,64
2,269282, Note_on_c,0,86,83
2,269284, Note_on_c,0,80,66
2,269288, Note_off_c,0,89,64
2,269288, Note_on_c,0,82,61
2,269288, Note_on_c,0,91,92
2,269368, Note_off_c,0,91,64
2,269370, Note_on_c,0,89,91
2,269376, Note_off_c,0,86,64
2,269382, Note_off_c,0,80,64
2,269392, Note_off_c,0,82,64
2,269474, Control_c,0,64,0
2,269480, Note_on_c,0,87,94
2,269480, Note_on_c,0,94,103
2,269488, Note_on_c,0,79,92
2,269488, Note_on_c,0,82,62
2,269526, Note_off_c,0,89,64
2,269604, Note_off_c,0,79,64
2,269612, Note_off_c,0,87,64
2,269624, Control_c,0,64,127
2,269646, Note_off_c,0,82,64
2,269688, Note_off_c,0,94,64
2,269896, Note_on_c,0,89,95
2,270042, Note_on_c,0,69,87
2,270046, Note_on_c,0,63,79
2,270048, Note_on_c,0,65,81
2,270048, Note_on_c,0,101,104
2,270056, Note_on_c,0,60,59
2,270078, Control_c,0,64,0
2,270212, Control_c,0,64,127
2,270264, Note_on_c,0,100,93
2,270284, Note_off_c,0,89,64
2,270364, Note_off_c,0,101,64
2,270374, Note_on_c,0,99,86
2,270434, Note_off_c,0,100,64
2,270476, Note_on_c,0,98,92
2,270528, Note_off_c,0,99,64
2,270570, Note_on_c,0,96,86
2,270586, Note_off_c,0,98,64
2,270650, Note_on_c,0,94,81
2,270674, Note_off_c,0,96,64
2,270730, Note_on_c,0,93,85
2,270808, Note_off_c,0,94,64
2,270816, Note_on_c,0,91,85
2,270870, Note_off_c,0,93,64
2,270886, Note_on_c,0,89,75
2,270912, Note_off_c,0,91,64
2,270952, Note_on_c,0,88,86
2,270978, Note_off_c,0,89,64
2,271016, Note_off_c,0,65,64
2,271026, Note_off_c,0,69,64
2,271028, Note_on_c,0,87,66
2,271074, Note_off_c,0,60,64
2,271086, Note_off_c,0,63,64
2,271090, Note_off_c,0,88,64
2,271096, Note_on_c,0,86,80
2,271152, Note_off_c,0,87,64
2,271168, Note_on_c,0,84,83
2,271190, Note_off_c,0,86,64
2,271236, Note_on_c,0,82,85
2,271258, Note_off_c,0,84,64
2,271310, Note_on_c,0,81,71
2,271380, Note_on_c,0,79,90
2,271396, Note_off_c,0,82,64
2,271422, Note_off_c,0,81,64
2,271444, Note_off_c,0,79,64
2,271446, Note_on_c,0,77,76
2,271470, Note_on_c,0,47,59
2,271504, Note_off_c,0,47,64
2,271520, Note_on_c,0,76,86
2,271536, Note_off_c,0,77,64
2,271578, Note_on_c,0,63,97
2,271588, Note_on_c,0,56,73
2,271592, Note_on_c,0,51,62
2,271594, Note_on_c,0,75,81
2,271614, Control_c,0,64,0
2,271654, Note_off_c,0,76,64
2,271672, Note_on_c,0,73,83
2,271730, Note_off_c,0,75,64
2,271736, Control_c,0,64,127
2,271746, Note_on_c,0,71,88
2,271764, Note_off_c,0,73,64
2,271816, Note_on_c,0,70,78
2,271834, Note_off_c,0,63,64
2,271844, Note_off_c,0,71,64
2,271890, Note_on_c,0,68,65
2,271940, Note_off_c,0,56,64
2,271942, Note_off_c,0,51,64
2,271950, Note_off_c,0,70,64
2,271960, Note_on_c,0,66,73
2,272002, Note_off_c,0,68,64
2,272022, Note_on_c,0,65,74
2,272036, Note_off_c,0,66,64
2,272086, Note_on_c,0,63,89
2,272110, Note_off_c,0,65,64
2,272164, Note_on_c,0,61,83
2,272208, Note_off_c,0,63,64
2,272230, Note_on_c,0,59,87
2,272242, Note_off_c,0,61,64
2,272310, Note_on_c,0,58,79
2,272336, Note_off_c,0,59,64
2,272378, Note_on_c,0,56,71
2,272440, Note_off_c,0,58,64
2,272440, Note_on_c,0,54,92
2,272450, Note_on_c,0,35,111
2,272504, Note_off_c,0,56,64
2,272508, Note_on_c,0,53,103
2,272520, Note_off_c,0,54,64
2,272528, Note_off_c,0,35,64
2,272576, Note_on_c,0,51,90
2,272592, Note_off_c,0,53,64
2,272660, Note_on_c,0,49,90
2,272720, Note_off_c,0,51,64
2,272736, Note_on_c,0,47,92
2,272758, Note_off_c,0,49,64
2,272810, Note_on_c,0,46,84
2,272848, Note_off_c,0,47,64
2,272890, Note_on_c,0,44,78
2,272952, Note_off_c,0,46,64
2,272964, Note_on_c,0,42,86
2,273016, Note_off_c,0,44,64
2,273048, Note_on_c,0,41,95
2,273072, Note_off_c,0,42,64
2,273126, Note_on_c,0,39,88
2,273156, Note_off_c,0,41,64
2,273208, Note_on_c,0,37,86
2,273296, Note_on_c,0,35,105
2,273304, Note_off_c,0,39,64
2,273360, Note_off_c,0,37,64
2,273396, Note_off_c,0,35,64
2,273432, Note_on_c,0,34,100
2,273446, Control_c,0,64,0
2,273638, Note_on_c,0,41,85
2,273640, Control_c,0,64,127
2,273680, Note_off_c,0,34,64
2,273748, Note_on_c,0,46,71
2,273830, Note_off_c,0,41,64
2,273864, Note_on_c,0,50,88
2,273878, Note_off_c,0,46,64
2,273976, Note_on_c,0,46,68
2,274026, Note_off_c,0,50,64
2,274080, Note_on_c,0,41,78
2,274108, Note_off_c,0,46,64
2,274160, Note_on_c,0,67,103
2,274164, Note_on_c,0,58,78
2,274168, Note_on_c,0,62,84
2,274172, Note_on_c,0,34,70
2,274182, Note_off_c,0,41,64
2,274328, Note_off_c,0,34,64
2,274332, Note_on_c,0,41,58
2,274470, Note_on_c,0,46,55
2,274480, Note_off_c,0,41,64
2,274496, Note_off_c,0,62,64
2,274552, Note_off_c,0,67,64
2,274600, Note_off_c,0,46,64
2,274608, Note_on_c,0,53,95
2,274624, Note_off_c,0,58,64
2,274712, Note_off_c,0,53,64
2,274728, Note_on_c,0,67,97
2,274732, Note_on_c,0,56,86
2,274738, Note_on_c,0,46,75
2,274740, Note_on_c,0,62,74
2,274840, Note_on_c,0,41,57
2,274846, Note_off_c,0,62,64
2,274870, Note_off_c,0,46,64
2,274878, Note_off_c,0,41,64
2,274880, Note_off_c,0,56,64
2,274958, Note_on_c,0,63,95
2,274966, Note_on_c,0,39,79
2,274968, Note_on_c,0,55,71
2,274982, Control_c,0,64,0
2,274992, Note_off_c,0,67,64
2,275082, Note_on_c,0,46,68
2,275126, Note_off_c,0,39,64
2,275132, Note_off_c,0,55,64
2,275166, Control_c,0,64,127
2,275188, Note_off_c,0,63,64
2,275194, Note_on_c,0,51,72
2,275250, Note_off_c,0,46,64
2,275292, Note_on_c,0,55,74
2,275304, Note_off_c,0,51,64
2,275368, Note_on_c,0,75,99
2,275376, Note_on_c,0,67,58
2,275382, Note_on_c,0,63,67
2,275390, Note_on_c,0,51,67
2,275408, Note_off_c,0,55,64
2,275494, Note_off_c,0,51,64
2,275498, Note_on_c,0,46,66
2,275546, Note_off_c,0,46,64
2,275602, Note_on_c,0,39,80
2,275608, Note_off_c,0,63,64
2,275638, Note_off_c,0,39,64
2,275688, Note_on_c,0,48,71
2,275690, Note_off_c,0,67,64
2,275778, Note_on_c,0,51,75
2,275808, Note_off_c,0,48,64
2,275848, Note_off_c,0,75,64
2,275870, Note_on_c,0,58,70
2,275880, Note_off_c,0,51,64
2,275990, Note_on_c,0,74,101
2,275992, Note_off_c,0,58,64
2,275998, Note_on_c,0,63,78
2,276004, Note_on_c,0,70,50
2,276016, Note_on_c,0,51,60
2,276076, Note_off_c,0,70,64
2,276112, Note_off_c,0,63,64
2,276126, Note_on_c,0,48,63
2,276166, Note_off_c,0,51,64
2,276200, Note_off_c,0,74,64
2,276246, Note_on_c,0,41,84
2,276246, Note_on_c,0,72,89
2,276246, Note_on_c,0,70,63
2,276248, Note_on_c,0,63,88
2,276262, Note_off_c,0,48,64
2,276296, Control_c,0,64,0
2,276384, Note_on_c,0,48,70
2,276432, Note_off_c,0,41,64
2,276456, Control_c,0,64,127
2,276488, Note_on_c,0,51,73
2,276584, Note_off_c,0,51,64
2,276586, Note_on_c,0,58,66
2,276608, Note_off_c,0,48,64
2,276672, Note_off_c,0,58,64
2,276678, Note_on_c,0,51,70
2,276734, Note_off_c,0,63,64
2,276762, Note_on_c,0,48,49
2,276784, Note_off_c,0,51,64
2,276832, Note_on_c,0,74,99
2,276832, Note_on_c,0,65,84
2,276834, Note_on_c,0,69,67
2,276838, Note_on_c,0,41,81
2,276870, Note_off_c,0,48,64
2,276874, Note_off_c,0,70,64
2,276880, Note_off_c,0,72,64
2,276888, Control_c,0,64,0
2,276974, Note_on_c,0,48,37
2,277044, Note_off_c,0,41,64
2,277046, Control_c,0,64,127
2,277096, Note_on_c,0,51,71
2,277118, Note_off_c,0,48,64
2,277168, Note_off_c,0,65,64
2,277168, Note_off_c,0,74,64
2,277182, Note_off_c,0,69,64
2,277200, Note_off_c,0,51,64
2,277210, Note_on_c,0,57,57
2,277280, Note_on_c,0,74,100
2,277286, Note_on_c,0,63,76
2,277288, Note_on_c,0,69,42
2,277320, Note_on_c,0,51,64
2,277336, Note_off_c,0,57,64
2,277354, Note_off_c,0,69,64
2,277394, Note_on_c,0,48,50
2,277418, Note_off_c,0,63,64
2,277448, Note_off_c,0,48,64
2,277454, Note_off_c,0,51,64
2,277488, Note_on_c,0,70,83
2,277502, Note_on_c,0,46,63
2,277504, Note_on_c,0,62,67
2,277524, Note_off_c,0,74,64
2,277526, Control_c,0,64,0
2,277630, Note_on_c,0,53,91
2,277674, Note_off_c,0,46,64
2,277712, Control_c,0,64,127
2,277714, Note_off_c,0,62,64
2,277752, Note_on_c,0,58,64
2,277758, Note_off_c,0,53,64
2,277854, Note_on_c,0,62,83
2,277864, Note_off_c,0,58,64
2,277920, Note_off_c,0,70,64
2,277938, Note_off_c,0,62,64
2,277950, Note_on_c,0,58,50
2,278042, Note_on_c,0,53,87
2,278064, Note_off_c,0,58,64
2,278126, Note_on_c,0,82,95
2,278130, Note_off_c,0,53,64
2,278130, Note_on_c,0,70,76
2,278160, Note_on_c,0,46,58
2,278256, Note_on_c,0,53,65
2,278270, Note_off_c,0,46,64
2,278360, Note_on_c,0,58,61
2,278368, Note_off_c,0,53,64
2,278480, Note_on_c,0,65,80
2,278482, Note_off_c,0,58,64
2,278524, Note_off_c,0,70,64
2,278560, Note_off_c,0,82,64
2,278600, Note_off_c,0,65,64
2,278606, Note_on_c,0,83,118
2,278608, Note_on_c,0,71,97
2,278626, Note_on_c,0,58,52
2,278746, Note_on_c,0,53,80
2,278778, Note_off_c,0,53,64
2,278786, Note_off_c,0,58,64
2,278788, Note_off_c,0,71,64
2,278824, Note_off_c,0,83,64
2,278880, Note_on_c,0,46,73
2,278882, Note_on_c,0,84,108
2,278890, Note_on_c,0,72,95
2,278904, Control_c,0,64,0
2,279008, Note_off_c,0,72,64
2,279038, Control_c,0,64,127
2,279040, Note_on_c,0,55,66
2,279042, Note_off_c,0,84,64
2,279044, Note_off_c,0,46,64
2,279094, Note_on_c,0,85,97
2,279100, Note_off_c,0,55,64
2,279104, Note_on_c,0,82,83
2,279146, Note_on_c,0,60,52
2,279200, Note_off_c,0,82,64
2,279204, Note_off_c,0,85,64
2,279244, Note_off_c,0,60,64
2,279262, Note_on_c,0,84,106
2,279280, Note_on_c,0,76,66
2,279280, Note_on_c,0,64,77
2,279356, Note_off_c,0,76,64
2,279360, Note_off_c,0,84,64
2,279364, Note_off_c,0,64,64
2,279394, Note_on_c,0,83,112
2,279396, Note_on_c,0,82,83
2,279408, Note_on_c,0,60,69
2,279462, Note_off_c,0,83,64
2,279468, Note_off_c,0,82,64
2,279512, Note_off_c,0,60,64
2,279512, Note_on_c,0,84,103
2,279520, Note_on_c,0,76,75
2,279520, Note_on_c,0,55,73
2,279584, Note_off_c,0,76,64
2,279594, Note_off_c,0,84,64
2,279598, Note_off_c,0,55,64
2,279636, Note_on_c,0,84,109
2,279638, Note_on_c,0,80,84
2,279688, Control_c,0,64,0
2,279696, Note_on_c,0,46,72
2,279752, Note_off_c,0,80,64
2,279782, Note_off_c,0,84,64
2,279800, Control_c,0,64,127
2,279840, Note_on_c,0,92,97
2,279846, Note_off_c,0,46,64
2,279848, Note_on_c,0,80,87
2,279882, Note_off_c,0,80,64
2,279912, Note_off_c,0,92,64
2,279960, Note_on_c,0,56,65
2,280066, Note_on_c,0,60,75
2,280102, Note_off_c,0,56,64
2,280166, Note_off_c,0,60,64
2,280172, Note_on_c,0,65,78
2,280282, Note_on_c,0,60,83
2,280294, Note_off_c,0,65,64
2,280344, Note_on_c,0,84,101
2,280350, Note_on_c,0,75,79
2,280400, Note_off_c,0,75,64
2,280404, Note_on_c,0,56,69
2,280426, Note_off_c,0,60,64
2,280446, Note_off_c,0,84,64
2,280460, Note_off_c,0,56,64
2,280504, Note_on_c,0,82,91
2,280512, Note_on_c,0,74,87
2,280566, Note_on_c,0,46,44
2,280600, Control_c,0,64,0
2,280688, Note_on_c,0,53,71
2,280688, Note_on_c,0,84,100
2,280694, Note_on_c,0,80,90
2,280696, Control_c,0,64,127
2,280740, Note_off_c,0,82,64
2,280744, Note_off_c,0,74,64
2,280776, Note_off_c,0,46,64
2,280780, Note_off_c,0,80,64
2,280796, Note_on_c,0,56,62
2,280804, Note_off_c,0,84,64
2,280832, Note_on_c,0,74,81
2,280836, Note_on_c,0,82,86
2,280838, Note_off_c,0,53,64
2,280904, Note_off_c,0,56,64
2,280908, Note_off_c,0,82,64
2,280912, Note_off_c,0,74,64
2,280912, Note_on_c,0,62,73
2,280952, Note_on_c,0,80,86
2,280960, Note_on_c,0,81,94
2,281006, Note_off_c,0,81,64
2,281020, Note_off_c,0,62,64
2,281048, Note_off_c,0,80,64
2,281052, Note_on_c,0,56,56
2,281072, Note_on_c,0,82,78
2,281078, Note_on_c,0,74,86
2,281112, Note_off_c,0,74,64
2,281128, Note_on_c,0,53,92
2,281152, Note_off_c,0,82,64
2,281188, Note_on_c,0,82,96
2,281192, Note_on_c,0,79,76
2,281216, Note_off_c,0,53,64
2,281226, Note_off_c,0,56,64
2,281270, Note_off_c,0,82,64
2,281276, Note_off_c,0,79,64
2,281288, Note_on_c,0,46,78
2,281336, Note_on_c,0,91,104
2,281350, Note_on_c,0,79,80
2,281374, Control_c,0,64,0
2,281456, Note_on_c,0,51,67
2,281512, Note_off_c,0,46,64
2,281520, Control_c,0,64,127
2,281522, Note_off_c,0,79,64
2,281536, Note_off_c,0,91,64
2,281564, Note_on_c,0,55,70
2,281632, Note_off_c,0,55,64
2,281646, Note_on_c,0,63,83
2,281732, Note_off_c,0,51,64
2,281738, Note_off_c,0,63,64
2,281756, Note_on_c,0,55,74
2,281776, Note_on_c,0,82,95
2,281784, Note_on_c,0,74,91
2,281816, Note_off_c,0,74,64
2,281852, Note_off_c,0,82,64
2,281872, Note_off_c,0,55,64
2,281880, Note_on_c,0,51,70
2,281956, Note_on_c,0,80,95
2,281966, Note_on_c,0,72,81
2,281994, Note_on_c,0,46,67
2,281996, Note_off_c,0,51,64
2,282038, Control_c,0,64,0
2,282132, Note_on_c,0,51,69
2,282134, Note_on_c,0,82,91
2,282140, Note_on_c,0,75,84
2,282148, Control_c,0,64,127
2,282176, Note_off_c,0,46,64
2,282176, Note_off_c,0,80,64
2,282192, Note_off_c,0,72,64
2,282238, Note_off_c,0,75,64
2,282246, Note_on_c,0,56,54
2,282250, Note_off_c,0,82,64
2,282274, Note_off_c,0,51,64
2,282284, Note_on_c,0,80,91
2,282288, Note_on_c,0,72,81
2,282328, Note_off_c,0,72,64
2,282360, Note_off_c,0,56,64
2,282370, Note_on_c,0,60,65
2,282376, Note_off_c,0,80,64
2,282390, Note_on_c,0,75,81
2,282392, Note_on_c,0,79,90
2,282464, Note_off_c,0,75,64
2,282476, Note_on_c,0,56,71
2,282490, Note_off_c,0,60,64
2,282490, Note_on_c,0,80,92
2,282496, Note_on_c,0,72,84
2,282524, Note_off_c,0,72,64
2,282524, Note_off_c,0,79,64
2,282568, Note_off_c,0,80,64
2,282576, Note_on_c,0,51,69
2,282602, Note_off_c,0,56,64
2,282602, Note_on_c,0,77,85
2,282604, Note_on_c,0,80,101
2,282640, Note_off_c,0,77,64
2,282674, Note_off_c,0,51,64
2,282694, Note_off_c,0,80,64
2,282712, Note_on_c,0,46,79
2,282728, Note_on_c,0,77,70
2,282730, Note_on_c,0,89,98
2,282738, Control_c,0,64,0
2,282834, Note_on_c,0,53,93
2,282886, Control_c,0,64,127
2,282890, Note_off_c,0,46,64
2,282938, Note_on_c,0,56,65
2,282944, Note_off_c,0,77,64
2,282952, Note_off_c,0,89,64
2,282994, Note_off_c,0,53,64
2,283020, Note_on_c,0,62,81
2,283048, Note_off_c,0,56,64
2,283104, Note_on_c,0,80,93
2,283114, Note_on_c,0,56,61
2,283114, Note_on_c,0,77,74
2,283128, Note_off_c,0,62,64
2,283150, Note_off_c,0,77,64
2,283216, Note_on_c,0,53,97
2,283256, Note_off_c,0,56,64
2,283288, Note_off_c,0,80,64
2,283304, Note_on_c,0,47,85
2,283326, Note_on_c,0,77,80
2,283328, Note_off_c,0,53,64
2,283328, Note_on_c,0,79,103
2,283340, Control_c,0,64,0
2,283460, Note_on_c,0,53,94
2,283472, Note_off_c,0,77,64
2,283476, Control_c,0,64,127
2,283530, Note_off_c,0,47,64
2,283552, Note_off_c,0,79,64
2,283566, Note_on_c,0,55,64
2,283568, Note_on_c,0,82,73
2,283578, Note_off_c,0,53,64
2,283592, Note_on_c,0,80,93
2,283600, Note_on_c,0,77,88
2,283656, Note_off_c,0,55,64
2,283682, Note_on_c,0,62,69
2,283688, Note_off_c,0,77,64
2,283696, Note_off_c,0,82,64
2,283744, Note_off_c,0,80,64
2,283784, Note_off_c,0,62,64
2,283790, Note_on_c,0,55,67
2,283864, Note_on_c,0,79,99
2,283870, Note_on_c,0,77,88
2,283872, Note_on_c,0,53,83
2,283888, Note_off_c,0,55,64
2,283894, Note_off_c,0,77,64
2,283896, Note_off_c,0,79,64
2,283936, Note_on_c,0,79,103
2,283944, Note_on_c,0,75,90
2,283952, Note_on_c,0,48,61
2,283956, Note_off_c,0,53,64
2,283968, Control_c,0,64,0
2,284082, Note_on_c,0,51,56
2,284090, Control_c,0,64,127
2,284152, Note_off_c,0,48,64
2,284158, Note_off_c,0,75,64
2,284200, Note_on_c,0,80,100
2,284204, Note_on_c,0,75,79
2,284206, Note_on_c,0,55,69
2,284228, Note_off_c,0,51,64
2,284248, Note_off_c,0,79,64
2,284284, Note_off_c,0,75,64
2,284288, Note_off_c,0,80,64
2,284312, Note_off_c,0,55,64
2,284332, Note_on_c,0,63,82
2,284450, Note_off_c,0,63,64
2,284450, Note_on_c,0,54,83
2,284452, Note_on_c,0,81,99
2,284456, Note_on_c,0,75,81
2,284508, Note_off_c,0,75,64
2,284520, Note_off_c,0,81,64
2,284544, Note_on_c,0,51,71
2,284578, Note_off_c,0,54,64
2,284640, Note_off_c,0,51,64
2,284644, Control_c,0,64,0
2,284652, Note_on_c,0,82,92
2,284656, Note_on_c,0,77,97
2,284656, Note_on_c,0,50,92
2,284660, Note_on_c,0,70,66
2,284670, Note_on_c,0,68,84
2,284768, Note_on_c,0,56,68
2,284816, Control_c,0,64,127
2,284824, Note_off_c,0,50,64
2,284846, Note_off_c,0,68,64
2,284868, Note_on_c,0,58,64
2,284878, Note_off_c,0,70,64
2,284912, Note_off_c,0,56,64
2,284946, Note_off_c,0,82,64
2,284970, Note_on_c,0,65,66
2,284994, Note_off_c,0,58,64
2,285070, Note_on_c,0,58,53
2,285088, Note_off_c,0,65,64
2,285158, Note_on_c,0,56,83
2,285198, Note_off_c,0,58,64
2,285206, Note_off_c,0,56,64
2,285262, Note_off_c,0,77,64
2,285264, Note_on_c,0,82,89
2,285268, Note_on_c,0,79,94
2,285270, Note_on_c,0,68,77
2,285272, Note_on_c,0,70,62
2,285278, Note_on_c,0,74,75
2,285284, Note_on_c,0,46,84
2,285328, Note_off_c,0,46,64
2,285444, Note_off_c,0,68,64
2,285444, Note_on_c,0,53,88
2,285474, Note_off_c,0,70,64
2,285520, Note_off_c,0,74,64
2,285534, Note_off_c,0,82,64
2,285542, Note_off_c,0,79,64
2,285552, Note_on_c,0,58,52
2,285562, Note_off_c,0,53,64
2,285648, Note_on_c,0,62,76
2,285656, Note_off_c,0,58,64
2,285736, Note_off_c,0,62,64
2,285752, Note_on_c,0,82,86
2,285756, Note_on_c,0,79,92
2,285758, Note_on_c,0,68,76
2,285768, Note_on_c,0,58,69
2,285768, Note_on_c,0,74,71
2,285768, Note_on_c,0,70,47
2,285840, Note_on_c,0,53,85
2,285858, Note_off_c,0,58,64
2,285872, Note_off_c,0,53,64
2,285880, Note_off_c,0,82,64
2,285888, Note_off_c,0,70,64
2,285898, Note_off_c,0,79,64
2,285914, Note_off_c,0,68,64
2,285930, Note_off_c,0,74,64
2,285972, Note_on_c,0,75,90
2,285984, Note_on_c,0,67,82
2,285984, Control_c,0,64,0
2,285984, Note_on_c,0,39,86
2,286096, Note_on_c,0,46,68
2,286128, Note_off_c,0,39,64
2,286156, Control_c,0,64,127
2,286214, Note_on_c,0,51,74
2,286244, Note_off_c,0,67,64
2,286246, Note_off_c,0,46,64
2,286314, Note_off_c,0,51,64
2,286318, Note_on_c,0,55,74
2,286320, Note_off_c,0,75,64
2,286408, Note_off_c,0,55,64
2,286424, Note_on_c,0,58,64
2,286512, Note_on_c,0,63,83
2,286592, Note_on_c,0,87,100
2,286598, Note_on_c,0,75,80
2,286600, Note_on_c,0,79,85
2,286604, Note_off_c,0,58,64
2,286612, Note_off_c,0,63,64
2,286616, Note_on_c,0,67,83
2,286730, Note_off_c,0,67,64
2,286732, Note_on_c,0,63,76
2,286832, Note_off_c,0,79,64
2,286854, Note_on_c,0,58,58
2,286870, Note_off_c,0,75,64
2,286876, Note_off_c,0,63,64
2,286928, Note_off_c,0,58,64
2,286966, Note_off_c,0,87,64
2,286984, Note_on_c,0,55,90
2,287086, Note_off_c,0,55,64
2,287086, Note_on_c,0,86,100
2,287090, Note_on_c,0,51,78
2,287090, Note_on_c,0,75,93
2,287094, Note_on_c,0,82,78
2,287182, Note_on_c,0,46,68
2,287222, Note_off_c,0,86,64
2,287226, Note_off_c,0,75,64
2,287240, Note_off_c,0,82,64
2,287240, Note_off_c,0,51,64
2,287296, Note_on_c,0,84,103
2,287298, Note_on_c,0,75,81
2,287298, Note_on_c,0,82,62
2,287300, Note_off_c,0,46,64
2,287304, Note_on_c,0,41,92
2,287310, Control_c,0,64,0
2,287400, Note_on_c,0,48,73
2,287428, Note_off_c,0,41,64
2,287472, Control_c,0,64,127
2,287486, Note_on_c,0,51,73
2,287586, Note_on_c,0,58,70
2,287600, Note_off_c,0,51,64
2,287600, Note_off_c,0,48,64
2,287674, Note_on_c,0,51,68
2,287692, Note_off_c,0,58,64
2,287712, Note_off_c,0,75,64
2,287754, Note_on_c,0,48,45
2,287816, Note_off_c,0,51,64
2,287840, Note_on_c,0,86,106
2,287846, Note_on_c,0,41,89
2,287848, Note_on_c,0,77,91
2,287852, Note_on_c,0,81,83
2,287864, Control_c,0,64,0
2,287884, Note_off_c,0,48,64
2,287894, Note_off_c,0,84,64
2,287900, Note_off_c,0,82,64
2,287952, Note_on_c,0,48,43
2,288016, Note_off_c,0,41,64
2,288024, Control_c,0,64,127
2,288056, Note_on_c,0,51,79
2,288130, Note_off_c,0,77,64
2,288144, Note_off_c,0,86,64
2,288158, Note_off_c,0,81,64
2,288160, Note_on_c,0,57,79
2,288184, Note_off_c,0,51,64
2,288186, Note_off_c,0,48,64
2,288264, Note_on_c,0,51,66
2,288276, Note_on_c,0,86,105
2,288280, Note_on_c,0,81,83
2,288282, Note_on_c,0,75,89
2,288296, Note_off_c,0,57,64
2,288356, Note_on_c,0,48,73
2,288400, Note_off_c,0,51,64
2,288402, Note_off_c,0,81,64
2,288410, Note_off_c,0,48,64
2,288470, Note_off_c,0,75,64
2,288516, Control_c,0,64,0
2,288524, Note_on_c,0,82,89
2,288528, Note_on_c,0,34,88
2,288530, Note_on_c,0,74,79
2,288562, Note_off_c,0,86,64
2,288654, Note_on_c,0,46,70
2,288662, Control_c,0,64,127
2,288676, Note_off_c,0,34,64
2,288688, Note_off_c,0,46,64
2,288798, Note_on_c,0,53,97
2,288830, Note_off_c,0,74,64
2,288918, Note_on_c,0,58,78
2,288944, Note_off_c,0,53,64
2,288944, Note_off_c,0,82,64
2,289024, Note_off_c,0,58,64
2,289030, Note_on_c,0,62,81
2,289066, Note_off_c,0,62,64
2,289130, Note_on_c,0,65,88
2,289264, Note_on_c,0,94,100
2,289266, Note_on_c,0,82,98
2,289274, Note_on_c,0,74,92
2,289368, Note_off_c,0,65,64
2,289446, Note_off_c,0,74,64
2,289456, Note_on_c,0,70,75
2,289562, Note_off_c,0,70,64
2,289576, Note_on_c,0,65,71
2,289622, Note_off_c,0,65,64
2,289688, Note_on_c,0,62,91
2,289690, Note_off_c,0,82,64
2,289698, Note_off_c,0,94,64
2,289780, Note_off_c,0,62,64
2,289794, Note_on_c,0,58,67
2,289918, Note_on_c,0,53,101
2,289990, Note_off_c,0,58,64
2,289996, Note_on_c,0,82,101
2,289996, Note_on_c,0,94,99
2,290024, Note_off_c,0,53,64
2,290068, Note_off_c,0,82,64
2,290106, Note_off_c,0,94,64
2,290118, Note_on_c,0,46,81
2,290204, Note_on_c,0,94,101
2,290206, Note_on_c,0,82,104
2,290372, Control_c,0,64,0
2,290384, Note_on_c,0,52,77
2,290520, Control_c,0,64,127
2,290526, Note_on_c,0,55,66
2,290552, Note_off_c,0,52,64
2,290562, Note_off_c,0,46,64
2,290584, Note_off_c,0,94,64
2,290628, Note_off_c,0,55,64
2,290648, Note_off_c,0,82,64
2,290664, Note_on_c,0,60,41
2,290744, Note_off_c,0,60,64
2,290762, Note_on_c,0,55,63
2,290850, Note_on_c,0,52,79
2,290872, Note_off_c,0,55,64
2,290896, Note_off_c,0,52,64
2,290926, Note_on_c,0,72,95
2,290930, Note_on_c,0,60,89
2,290946, Note_on_c,0,46,55
2,290980, Note_on_c,0,62,13
2,291044, Note_off_c,0,60,64
2,291088, Note_on_c,0,52,60
2,291104, Note_off_c,0,46,64
2,291108, Note_off_c,0,62,64
2,291198, Note_off_c,0,52,64
2,291204, Note_on_c,0,55,65
2,291310, Note_off_c,0,55,64
2,291330, Note_on_c,0,60,60
2,291448, Note_off_c,0,60,64
2,291468, Note_off_c,0,72,64
2,291472, Note_on_c,0,55,77
2,291532, Note_on_c,0,74,110
2,291544, Note_on_c,0,62,87
2,291588, Note_off_c,0,62,64
2,291612, Note_on_c,0,52,65
2,291614, Note_off_c,0,55,64
2,291642, Note_off_c,0,74,64
2,291678, Note_off_c,0,52,64
2,291744, Note_on_c,0,46,76
2,291784, Control_c,0,64,0
2,291800, Note_on_c,0,63,102
2,291894, Note_on_c,0,75,88
2,291896, Control_c,0,64,127
2,291920, Note_off_c,0,46,64
2,291928, Note_off_c,0,63,64
2,291944, Note_on_c,0,53,71
2,292010, Note_on_c,0,77,83
2,292030, Note_off_c,0,75,64
2,292070, Note_off_c,0,77,64
2,292072, Note_on_c,0,75,81
2,292098, Note_on_c,0,57,55
2,292136, Note_off_c,0,53,64
2,292144, Note_on_c,0,77,69
2,292168, Note_off_c,0,75,64
2,292206, Note_off_c,0,57,64
2,292208, Note_on_c,0,75,88
2,292250, Note_off_c,0,77,64
2,292290, Note_off_c,0,75,64
2,292324, Note_on_c,0,74,107
2,292332, Note_on_c,0,62,93
2,292342, Note_on_c,0,60,51
2,292360, Note_off_c,0,62,64
2,292412, Note_off_c,0,74,64
2,292472, Note_on_c,0,57,60
2,292490, Note_off_c,0,60,64
2,292540, Note_on_c,0,75,99
2,292550, Note_on_c,0,63,86
2,292586, Note_off_c,0,57,64
2,292596, Note_off_c,0,63,64
2,292600, Note_on_c,0,53,91
2,292644, Note_off_c,0,53,64
2,292660, Note_off_c,0,75,64
2,292710, Note_on_c,0,46,87
2,292764, Note_on_c,0,79,109
2,292776, Note_on_c,0,74,73
2,292782, Note_on_c,0,67,72
2,292806, Control_c,0,64,0
2,292952, Note_off_c,0,67,64
2,292952, Note_on_c,0,53,97
2,292952, Control_c,0,64,127
2,293008, Note_off_c,0,74,64
2,293014, Note_off_c,0,46,64
2,293020, Note_on_c,0,68,91
2,293022, Note_off_c,0,79,64
2,293100, Note_off_c,0,68,64
2,293142, Note_on_c,0,79,108
2,293150, Note_on_c,0,74,84
2,293160, Note_off_c,0,53,64
2,293168, Note_on_c,0,56,49
2,293286, Note_off_c,0,56,64
2,293344, Note_on_c,0,62,75
2,293356, Note_on_c,0,70,85
2,293488, Note_off_c,0,62,64
2,293528, Note_off_c,0,70,64
2,293548, Note_off_c,0,74,64
2,293552, Note_on_c,0,56,62
2,293606, Note_on_c,0,68,84
2,293664, Note_off_c,0,56,64
2,293750, Note_on_c,0,77,89
2,293800, Note_off_c,0,79,64
2,293800, Note_on_c,0,53,67
2,293896, Note_off_c,0,53,64
2,293904, Note_on_c,0,75,80
2,293960, Note_off_c,0,77,64
2,294016, Note_off_c,0,75,64
2,294030, Note_off_c,0,68,64
2,294060, Note_on_c,0,39,66
2,294072, Note_on_c,0,75,73
2,294080, Note_on_c,0,67,71
2,294132, Control_c,0,64,0
2,294256, Note_on_c,0,46,39
2,294288, Note_off_c,0,39,64
2,294304, Control_c,0,64,127
2,294392, Note_on_c,0,51,44
2,294406, Note_off_c,0,46,64
2,294448, Note_off_c,0,51,64
2,294498, Note_on_c,0,55,61
2,294624, Note_on_c,0,51,64
2,294638, Note_off_c,0,55,64
2,294712, Note_off_c,0,51,64
2,294718, Note_on_c,0,46,55
2,294816, Note_on_c,0,39,68
2,294834, Note_off_c,0,46,64
2,294910, Note_off_c,0,67,64
2,294944, Note_on_c,0,46,49
2,294952, Note_off_c,0,39,64
2,295068, Note_on_c,0,51,60
2,295080, Note_off_c,0,75,64
2,295198, Note_on_c,0,58,58
2,295208, Note_on_c,0,67,84
2,295224, Note_off_c,0,51,64
2,295308, Note_off_c,0,58,64
2,295312, Note_on_c,0,68,83
2,295364, Note_on_c,0,51,52
2,295376, Note_off_c,0,67,64
2,295388, Note_off_c,0,46,64
2,295414, Note_on_c,0,70,80
2,295452, Note_off_c,0,68,64
2,295496, Note_off_c,0,51,64
2,295510, Note_on_c,0,74,89
2,295514, Note_on_c,0,46,52
2,295542, Note_off_c,0,70,64
2,295592, Note_on_c,0,72,89
2,295628, Note_off_c,0,46,64
2,295640, Note_on_c,0,39,60
2,295644, Note_off_c,0,74,64
2,295644, Control_c,0,64,0
2,295660, Note_on_c,0,70,84
2,295712, Note_off_c,0,72,64
2,295792, Note_on_c,0,46,50
2,295808, Note_off_c,0,39,64
2,295816, Control_c,0,64,127
2,295914, Note_off_c,0,46,64
2,295914, Note_on_c,0,51,55
2,295974, Note_off_c,0,51,64
2,296024, Note_on_c,0,55,61
2,296114, Note_off_c,0,55,64
2,296138, Note_on_c,0,51,66
2,296208, Note_off_c,0,51,64
2,296224, Note_on_c,0,46,56
2,296336, Note_on_c,0,39,72
2,296352, Note_off_c,0,46,64
2,296462, Note_on_c,0,46,59
2,296466, Note_off_c,0,39,64
2,296504, Note_off_c,0,70,64
2,296554, Note_on_c,0,51,64
2,296592, Note_off_c,0,46,64
2,296664, Note_on_c,0,67,84
2,296670, Note_on_c,0,58,57
2,296678, Note_off_c,0,51,64
2,296750, Note_on_c,0,68,81
2,296768, Note_off_c,0,58,64
2,296792, Note_off_c,0,67,64
2,296838, Note_on_c,0,70,79
2,296840, Note_on_c,0,51,61
2,296864, Note_off_c,0,68,64
2,296928, Note_on_c,0,74,83
2,296946, Note_off_c,0,70,64
2,296976, Note_off_c,0,51,64
2,296992, Note_on_c,0,46,50
2,297012, Note_on_c,0,72,87
2,297068, Note_off_c,0,74,64
2,297092, Note_on_c,0,70,86
2,297096, Note_on_c,0,39,69
2,297104, Note_off_c,0,46,64
2,297106, Control_c,0,64,0
2,297130, Note_off_c,0,72,64
2,297218, Note_on_c,0,46,57
2,297256, Note_off_c,0,39,64
2,297292, Control_c,0,64,127
2,297342, Note_on_c,0,50,55
2,297378, Note_off_c,0,46,64
2,297464, Note_off_c,0,50,64
2,297472, Note_on_c,0,56,61
2,297602, Note_on_c,0,50,60
2,297608, Note_off_c,0,56,64
2,297702, Note_off_c,0,50,64
2,297706, Note_on_c,0,46,55
2,297816, Note_on_c,0,39,68
2,297826, Note_off_c,0,46,64
2,297918, Note_off_c,0,39,64
2,297940, Note_on_c,0,46,44
2,298048, Note_on_c,0,50,62
2,298086, Note_off_c,0,46,64
2,298144, Note_on_c,0,65,76
2,298154, Note_off_c,0,70,64
2,298180, Note_off_c,0,50,64
2,298232, Note_on_c,0,58,37
2,298256, Note_on_c,0,68,84
2,298324, Note_off_c,0,65,64
2,298326, Note_off_c,0,58,64
2,298356, Note_on_c,0,70,75
2,298392, Note_on_c,0,50,61
2,298400, Note_off_c,0,68,64
2,298446, Note_on_c,0,74,91
2,298468, Note_off_c,0,70,64
2,298498, Note_off_c,0,50,64
2,298518, Note_on_c,0,46,46
2,298536, Note_on_c,0,72,62
2,298588, Note_off_c,0,74,64
2,298592, Note_off_c,0,46,64
2,298620, Note_on_c,0,70,88
2,298632, Note_on_c,0,39,58
2,298644, Control_c,0,64,0
2,298660, Note_off_c,0,72,64
2,298760, Note_on_c,0,46,52
2,298792, Note_off_c,0,39,64
2,298824, Control_c,0,64,127
2,298884, Note_on_c,0,51,62
2,298914, Note_off_c,0,70,64
2,298920, Note_off_c,0,46,64
2,298982, Note_on_c,0,55,46
2,298984, Note_off_c,0,51,64
2,299012, Note_on_c,0,61,83
2,299098, Note_off_c,0,61,64
2,299108, Note_off_c,0,55,64
2,299116, Note_on_c,0,63,84
2,299148, Note_on_c,0,51,53
2,299224, Note_on_c,0,67,83
2,299248, Note_off_c,0,63,64
2,299260, Note_off_c,0,51,64
2,299274, Note_on_c,0,46,34
2,299316, Note_on_c,0,72,75
2,299340, Note_off_c,0,67,64
2,299376, Note_off_c,0,46,64
2,299400, Note_on_c,0,70,79
2,299432, Note_off_c,0,72,64
2,299480, Control_c,0,64,0
2,299488, Note_on_c,0,39,44
2,299492, Note_on_c,0,68,81
2,299542, Note_off_c,0,70,64
2,299646, Note_off_c,0,39,64
2,299656, Note_on_c,0,47,50
2,299664, Control_c,0,64,127
2,299792, Note_off_c,0,47,64
2,299796, Note_on_c,0,51,47
2,299868, Note_off_c,0,51,64
2,299920, Note_on_c,0,59,78
2,299928, Note_on_c,0,56,51
2,300032, Note_off_c,0,56,64
2,300098, Note_off_c,0,59,64
2,300128, Note_on_c,0,63,84
2,300144, Note_on_c,0,51,55
2,300236, Note_off_c,0,68,64
2,300242, Note_off_c,0,51,64
2,300292, Note_on_c,0,65,76
2,300296, Note_on_c,0,47,50
2,300334, Note_off_c,0,47,64
2,300336, Note_off_c,0,63,64
2,300452, Control_c,0,64,0
2,300456, Note_on_c,0,67,78
2,300488, Note_on_c,0,39,42
2,300506, Note_off_c,0,65,64
2,300616, Note_on_c,0,46,41
2,300632, Note_off_c,0,39,64
2,300648, Control_c,0,64,127
2,300732, Note_off_c,0,46,64
2,300762, Note_on_c,0,51,34
2,300816, Note_off_c,0,51,64
2,300866, Note_on_c,0,55,52
2,300980, Note_off_c,0,55,64
2,300984, Note_on_c,0,51,50
2,301036, Note_off_c,0,51,64
2,301062, Note_off_c,0,67,64
2,301078, Note_on_c,0,46,39
2,301170, Note_off_c,0,46,64
2,301198, Note_on_c,0,39,55
2,301314, Note_off_c,0,39,64
2,301320, Note_on_c,0,46,48
2,301452, Note_on_c,0,51,47
2,301570, Note_on_c,0,58,50
2,301598, Note_off_c,0,51,64
2,301624, Note_on_c,0,67,76
2,301680, Note_off_c,0,58,64
2,301728, Note_on_c,0,68,84
2,301768, Note_on_c,0,51,55
2,301780, Note_off_c,0,67,64
2,301798, Note_off_c,0,46,64
2,301824, Note_on_c,0,70,79
2,301852, Note_off_c,0,68,64
2,301902, Note_off_c,0,51,64
2,301916, Note_on_c,0,74,88
2,301918, Note_on_c,0,46,49
2,301936, Note_off_c,0,70,64
2,301986, Control_c,0,64,0
2,301990, Note_on_c,0,72,87
2,302032, Note_on_c,0,39,59
2,302040, Note_off_c,0,74,64
2,302060, Note_off_c,0,46,64
2,302082, Note_on_c,0,70,90
2,302108, Note_off_c,0,72,64
2,302148, Control_c,0,64,127
2,302168, Note_off_c,0,70,64
2,302240, Note_on_c,0,46,38
2,302258, Note_off_c,0,39,64
2,302282, Note_on_c,0,82,86
2,302364, Note_off_c,0,82,64
2,302440, Note_on_c,0,51,43
2,302470, Note_off_c,0,46,64
2,302502, Note_on_c,0,94,79
2,302510, Note_off_c,0,51,64
2,302608, Note_on_c,0,55,43
2,302688, Note_off_c,0,55,64
2,302720, Note_on_c,0,51,50
2,302768, Note_off_c,0,51,64
2,302792, Note_off_c,0,94,64
2,302800, Note_on_c,0,46,48
2,302904, Note_off_c,0,46,64
2,302912, Note_on_c,0,39,66
2,303018, Note_off_c,0,39,64
2,303024, Note_on_c,0,46,52
2,303134, Note_on_c,0,51,55
2,303150, Note_off_c,0,46,64
2,303234, Note_on_c,0,67,84
2,303240, Note_off_c,0,51,64
2,303244, Note_on_c,0,58,57
2,303326, Note_off_c,0,58,64
2,303328, Note_on_c,0,68,83
2,303366, Note_off_c,0,67,64
2,303384, Note_on_c,0,51,57
2,303416, Note_on_c,0,70,81
2,303446, Note_off_c,0,68,64
2,303494, Note_off_c,0,51,64
2,303504, Note_on_c,0,46,46
2,303506, Note_on_c,0,74,84
2,303528, Note_off_c,0,70,64
2,303576, Note_on_c,0,72,88
2,303598, Control_c,0,64,0
2,303616, Note_off_c,0,74,64
2,303620, Note_on_c,0,39,66
2,303632, Note_off_c,0,46,64
2,303660, Note_on_c,0,70,90
2,303692, Note_off_c,0,72,64
2,303744, Note_off_c,0,70,64
2,303744, Control_c,0,64,127
2,303798, Note_on_c,0,46,42
2,303808, Note_off_c,0,39,64
2,303856, Note_on_c,0,82,86
2,303936, Note_off_c,0,82,64
2,303984, Note_off_c,0,46,64
2,304016, Note_on_c,0,50,41
2,304082, Note_off_c,0,50,64
2,304082, Note_on_c,0,94,82
2,304188, Note_on_c,0,56,43
2,304296, Note_off_c,0,94,64
2,304312, Note_off_c,0,56,64
2,304320, Note_on_c,0,50,53
2,304380, Note_off_c,0,50,64
2,304404, Note_on_c,0,46,52
2,304506, Note_off_c,0,46,64
2,304512, Note_on_c,0,39,69
2,304624, Note_off_c,0,39,64
2,304624, Note_on_c,0,46,49
2,304738, Note_on_c,0,50,58
2,304766, Note_off_c,0,46,64
2,304856, Note_off_c,0,50,64
2,304864, Note_on_c,0,65,75
2,304878, Note_on_c,0,58,55
2,304964, Note_on_c,0,68,85
2,304984, Note_off_c,0,58,64
2,305016, Note_off_c,0,65,64
2,305048, Note_on_c,0,50,54
2,305064, Note_on_c,0,70,80
2,305088, Note_off_c,0,68,64
2,305154, Note_on_c,0,74,86
2,305164, Note_off_c,0,50,64
2,305178, Note_off_c,0,70,64
2,305186, Note_on_c,0,46,38
2,305228, Note_on_c,0,72,87
2,305254, Note_off_c,0,46,64
2,305278, Note_off_c,0,74,64
2,305280, Control_c,0,64,0
2,305294, Note_on_c,0,39,69
2,305316, Note_on_c,0,70,86
2,305352, Note_off_c,0,72,64
2,305418, Note_on_c,0,46,62
2,305448, Note_off_c,0,39,64
2,305454, Control_c,0,64,127
2,305518, Note_off_c,0,70,64
2,305542, Note_on_c,0,51,65
2,305598, Note_off_c,0,46,64
2,305656, Note_off_c,0,51,64
2,305658, Note_on_c,0,55,64
2,305756, Note_on_c,0,61,86
2,305808, Note_off_c,0,55,64
2,305842, Note_on_c,0,51,47
2,305852, Note_off_c,0,61,64
2,305866, Note_on_c,0,63,82
2,305956, Note_off_c,0,51,64
2,305970, Note_on_c,0,67,81
2,305992, Note_off_c,0,63,64
2,306010, Note_on_c,0,46,44
2,306072, Note_on_c,0,72,73
2,306080, Note_off_c,0,67,64
2,306098, Note_off_c,0,46,64
2,306148, Note_on_c,0,70,74
2,306184, Note_off_c,0,72,64
2,306228, Control_c,0,64,0
2,306236, Note_on_c,0,39,48
2,306242, Note_on_c,0,68,76
2,306278, Note_off_c,0,70,64
2,306388, Note_off_c,0,39,64
2,306412, Note_on_c,0,47,61
2,306424, Control_c,0,64,127
2,306562, Note_off_c,0,47,64
2,306564, Note_on_c,0,51,51
2,306664, Note_off_c,0,51,64
2,306736, Note_on_c,0,59,72
2,306736, Note_on_c,0,56,45
2,306844, Note_off_c,0,56,64
2,306958, Note_on_c,0,63,75
2,306960, Note_off_c,0,59,64
2,306968, Note_on_c,0,51,47
2,307032, Note_off_c,0,51,64
2,307062, Note_off_c,0,68,64
2,307112, Note_on_c,0,47,48
2,307120, Note_on_c,0,65,68
2,307152, Note_off_c,0,47,64
2,307160, Note_off_c,0,63,64
2,307294, Note_on_c,0,67,63
2,307308, Control_c,0,64,0
2,307316, Note_on_c,0,39,41
2,307324, Note_off_c,0,65,64
2,307462, Note_on_c,0,46,39
2,307472, Note_off_c,0,39,64
2,307494, Control_c,0,64,127
2,307592, Note_off_c,0,46,64
2,307604, Note_on_c,0,51,26
2,307660, Note_off_c,0,51,64
2,307716, Note_on_c,0,55,53
2,307778, Note_off_c,0,55,64
2,307840, Note_on_c,0,51,53
2,307922, Note_off_c,0,51,64
2,307930, Note_off_c,0,67,64
2,307936, Note_on_c,0,46,48
2,308054, Note_off_c,0,46,64
2,308072, Note_on_c,0,39,63
2,308176, Note_off_c,0,39,64
2,308220, Note_on_c,0,67,83
2,308222, Note_on_c,0,46,36
2,308398, Note_on_c,0,70,77
2,308402, Note_off_c,0,67,64
2,308416, Note_on_c,0,51,38
2,308428, Note_off_c,0,46,64
2,308482, Note_off_c,0,51,64
2,308560, Note_on_c,0,58,38
2,308568, Note_off_c,0,70,64
2,308568, Note_on_c,0,79,92
2,308658, Note_off_c,0,58,64
2,308714, Note_on_c,0,77,86
2,308736, Note_on_c,0,51,51
2,308740, Note_off_c,0,79,64
2,308780, Note_off_c,0,51,64
2,308846, Note_on_c,0,75,79
2,308854, Note_on_c,0,46,35
2,308864, Note_off_c,0,77,64
2,308912, Note_off_c,0,46,64
2,308982, Control_c,0,64,0
2,308986, Note_on_c,0,70,64
2,308988, Note_on_c,0,39,40
2,309020, Note_off_c,0,75,64
2,309130, Note_on_c,0,46,47
2,309142, Control_c,0,64,127
2,309148, Note_off_c,0,39,64
2,309248, Note_off_c,0,46,64
2,309274, Note_on_c,0,51,45
2,309366, Note_off_c,0,51,64
2,309394, Note_on_c,0,55,48
2,309528, Note_off_c,0,55,64
2,309530, Note_on_c,0,51,50
2,309592, Note_off_c,0,51,64
2,309624, Note_on_c,0,46,41
2,309768, Note_off_c,0,46,64
2,309780, Note_on_c,0,39,48
2,309922, Note_off_c,0,39,64
2,309962, Note_on_c,0,46,31
2,309962, Note_on_c,0,67,71
2,309996, Note_off_c,0,70,64
2,310174, Note_off_c,0,46,64
2,310194, Note_off_c,0,67,64
2,310208, Note_on_c,0,51,40
2,310208, Note_on_c,0,70,63
2,310376, Note_off_c,0,51,64
2,310390, Note_on_c,0,58,30
2,310414, Note_on_c,0,79,77
2,310422, Note_off_c,0,70,64
2,310506, Note_off_c,0,58,64
2,310582, Note_on_c,0,77,71
2,310592, Note_on_c,0,51,46
2,310622, Note_off_c,0,79,64
2,310728, Note_on_c,0,46,33
2,310730, Note_on_c,0,75,72
2,310754, Note_off_c,0,51,64
2,310788, Note_off_c,0,77,64
2,310886, Note_on_c,0,43,49
2,310890, Note_off_c,0,46,64
2,310890, Note_on_c,0,74,69
2,310900, Control_c,0,64,0
2,310924, Note_off_c,0,75,64
2,311054, Note_on_c,0,50,52
2,311120, Control_c,0,64,127
2,311160, Note_off_c,0,43,64
2,311188, Note_off_c,0,50,64
2,311208, Note_on_c,0,55,54
2,311332, Note_off_c,0,55,64
2,311356, Note_on_c,0,58,48
2,311502, Note_on_c,0,62,62
2,311520, Note_off_c,0,58,64
2,311636, Note_off_c,0,62,64
2,311642, Note_on_c,0,58,50
2,311840, Note_off_c,0,58,64
2,311850, Note_on_c,0,67,43
2,311954, Note_off_c,0,74,64
2,311994, Note_off_c,0,67,64
2,312052, Note_on_c,0,70,49
2,312078, Note_on_c,0,62,39
2,312136, Note_off_c,0,62,64
2,312244, Note_off_c,0,70,64
2,312258, Note_on_c,0,74,65
2,312264, Note_on_c,0,58,29
2,312316, Note_off_c,0,58,64
2,312366, Note_off_c,0,74,64
2,312426, Note_on_c,0,82,59
2,312462, Note_on_c,0,55,34
2,312514, Note_off_c,0,55,64
2,312606, Note_on_c,0,81,61
2,312608, Note_on_c,0,50,36
2,312640, Note_off_c,0,82,64
2,312668, Note_off_c,0,50,64
2,312816, Note_on_c,0,79,50
2,312816, Note_on_c,0,43,19
2,312850, Note_off_c,0,81,64
2,312880, Note_off_c,0,43,64
2,313040, Note_on_c,0,31,34
2,313118, Note_on_c,0,74,54
2,313150, Note_off_c,0,79,64
2,313174, Note_off_c,0,31,64
2,313286, Note_on_c,0,43,11
2,313340, Note_off_c,0,43,64
2,313484, Note_on_c,0,50,34
2,313570, Note_off_c,0,50,64
2,313642, Note_on_c,0,55,49
2,313724, Note_off_c,0,55,64
2,313804, Note_on_c,0,58,43
2,313982, Note_off_c,0,58,64
2,313982, Note_on_c,0,62,44
2,314118, Note_off_c,0,62,64
2,314150, Note_on_c,0,70,37
2,314216, Note_off_c,0,70,64
2,314328, Note_on_c,0,70,55
2,314370, Note_off_c,0,74,64
2,314370, Note_on_c,0,67,23
2,314440, Note_off_c,0,67,64
2,314512, Note_off_c,0,70,64
2,314518, Note_on_c,0,74,62
2,314528, Note_on_c,0,62,33
2,314592, Note_off_c,0,62,64
2,314712, Note_on_c,0,58,17
2,314716, Note_on_c,0,82,61
2,314722, Note_off_c,0,74,64
2,314776, Note_off_c,0,58,64
2,314904, Note_on_c,0,81,65
2,314968, Note_on_c,0,55,2
2,314984, Note_off_c,0,82,64
2,315056, Note_off_c,0,55,64
2,315064, Note_on_c,0,79,75
2,315082, Note_off_c,0,81,64
2,315084, Note_on_c,0,50,18
2,315154, Note_off_c,0,50,64
2,315208, Note_off_c,0,79,64
2,315228, Note_on_c,0,43,25
2,315234, Note_on_c,0,74,60
2,315302, Note_off_c,0,43,64
2,315382, Note_on_c,0,70,56
2,315402, Note_off_c,0,74,64
2,315408, Note_on_c,0,50,34
2,315460, Note_off_c,0,50,64
2,315548, Note_off_c,0,70,64
2,315552, Note_on_c,0,74,68
2,315582, Note_on_c,0,62,36
2,315666, Note_off_c,0,74,64
2,315696, Note_on_c,0,82,60
2,315862, Note_on_c,0,81,67
2,315910, Note_off_c,0,82,64
2,315992, Note_on_c,0,50,2
2,316016, Note_on_c,0,79,65
2,316026, Note_off_c,0,81,64
2,316168, Note_off_c,0,79,64
2,316202, Note_on_c,0,74,48
2,316360, Note_off_c,0,74,64
2,316374, Note_on_c,0,70,40
2,316528, Note_off_c,0,70,64
2,316548, Note_on_c,0,74,55
2,316594, Note_off_c,0,74,64
2,316718, Note_on_c,0,82,52
2,316904, Note_on_c,0,81,63
2,316934, Note_off_c,0,50,64
2,316944, Note_off_c,0,62,64
2,316954, Note_off_c,0,82,64
2,317092, Note_on_c,0,79,67
2,317144, Note_off_c,0,81,64
2,317310, Note_on_c,0,74,59
2,317352, Note_off_c,0,79,64
2,317530, Note_on_c,0,81,72
2,317568, Note_off_c,0,74,64
2,317804, Note_on_c,0,84,60
2,317820, Control_c,0,64,0
2,317840, Note_off_c,0,81,64
2,318072, Note_on_c,0,82,54
2,318128, Control_c,0,64,127
2,318160, Note_off_c,0,84,64
2,318320, Note_on_c,0,79,62
2,318338, Note_off_c,0,82,64
2,318520, Control_c,0,64,0
2,318524, Note_on_c,0,75,52
2,318566, Note_off_c,0,79,64
2,318680, Control_c,0,64,127
2,318728, Note_on_c,0,70,54
2,318754, Control_c,0,64,0
2,318800, Note_off_c,0,75,64
2,318902, Control_c,0,64,127
2,318936, Note_on_c,0,67,59
2,318950, Control_c,0,64,0
2,318970, Note_off_c,0,70,64
2,319036, Control_c,0,64,127
2,319154, Note_on_c,0,60,45
2,319184, Control_c,0,64,0
2,319192, Note_off_c,0,67,64
2,319406, Note_on_c,0,62,50
2,319468, Note_off_c,0,60,64
2,319672, Note_on_c,0,65,39
2,319710, Note_off_c,0,62,64
2,319910, Control_c,0,64,127
2,319954, Note_on_c,0,63,48
2,320040, Note_off_c,0,65,64
2,320056, Control_c,0,64,0
2,320240, Control_c,0,64,127
2,320430, Note_on_c,0,50,30
2,320438, Control_c,0,64,0
2,320530, Note_off_c,0,63,64
2,320868, Control_c,0,64,127
2,321070, Note_on_c,0,38,15
2,321212, Note_off_c,0,38,64
2,321496, Note_on_c,0,38,23
2,321582, Note_off_c,0,38,64
2,322204, Note_on_c,0,60,29
2,322438, Note_on_c,0,62,36
2,322474, Note_on_c,0,38,18
2,322536, Note_off_c,0,38,64
2,322628, Note_on_c,0,66,38
2,322724, Note_off_c,0,66,64
2,322824, Note_on_c,0,70,30
2,322846, Note_on_c,0,38,20
2,322968, Note_off_c,0,70,64
2,322988, Note_off_c,0,38,64
2,323038, Note_on_c,0,69,32
2,323082, Note_off_c,0,62,64
2,323156, Note_off_c,0,60,64
2,323378, Note_on_c,0,67,31
2,323456, Note_off_c,0,69,64
2,323756, Control_c,0,64,0
2,323794, Note_on_c,0,62,27
2,323794, Note_on_c,0,38,19
2,323804, Note_on_c,0,58,7
2,323948, Note_off_c,0,38,64
2,323966, Control_c,0,64,127
2,323968, Note_off_c,0,62,64
2,323970, Note_off_c,0,58,64
2,324186, Note_on_c,0,58,15
2,324186, Note_on_c,0,62,28
2,324198, Note_on_c,0,38,26
2,324200, Note_off_c,0,50,64
2,324248, Note_off_c,0,38,64
2,324258, Note_off_c,0,62,64
2,324274, Note_off_c,0,58,64
2,324314, Note_off_c,0,67,64
2,324576, Note_on_c,0,74,59
2,324590, Note_on_c,0,62,51
2,324952, Note_on_c,0,55,25
2,324952, Note_on_c,0,50,19
2,324956, Note_on_c,0,67,19
2,325028, Note_off_c,0,50,64
2,325064, Note_off_c,0,55,64
2,325072, Note_off_c,0,67,64
2,325314, Note_on_c,0,67,25
2,325328, Note_on_c,0,55,15
2,325330, Note_on_c,0,50,22
2,325358, Note_off_c,0,62,64
2,325406, Note_off_c,0,50,64
2,325420, Note_off_c,0,55,64
2,325452, Note_off_c,0,67,64
2,325740, Note_on_c,0,72,45
2,325748, Note_on_c,0,60,37
2,325856, Note_off_c,0,74,64
2,326032, Control_c,0,64,0
2,326094, Note_on_c,0,63,23
2,326094, Note_on_c,0,55,29
2,326096, Note_on_c,0,50,31
2,326098, Note_on_c,0,67,25
2,326222, Note_off_c,0,50,64
2,326236, Note_off_c,0,63,64
2,326240, Control_c,0,64,127
2,326246, Note_off_c,0,55,64
2,326252, Note_off_c,0,67,64
2,326566, Note_on_c,0,67,12
2,326568, Note_on_c,0,63,15
2,326572, Note_on_c,0,50,19
2,326576, Note_on_c,0,55,2
2,326634, Note_off_c,0,60,64
2,326676, Note_off_c,0,67,64
2,326684, Note_off_c,0,55,64
2,326714, Note_off_c,0,50,64
2,326718, Note_off_c,0,63,64
2,326730, Note_off_c,0,72,64
2,327282, Note_on_c,0,60,55
2,327520, Note_on_c,0,62,57
2,327540, Note_on_c,0,38,27
2,327704, Note_on_c,0,66,50
2,327712, Note_off_c,0,38,64
2,327874, Control_c,0,64,0
2,327888, Note_on_c,0,70,54
2,327904, Note_on_c,0,38,29
2,327920, Note_off_c,0,66,64
2,328022, Control_c,0,64,127
2,328032, Note_off_c,0,38,64
2,328036, Note_off_c,0,70,64
2,328066, Note_on_c,0,69,39
2,328118, Note_off_c,0,62,64
2,328172, Note_off_c,0,60,64
2,328302, Note_on_c,0,67,49
2,328342, Note_off_c,0,69,64
2,328588, Control_c,0,64,0
2,328640, Note_on_c,0,38,28
2,328644, Note_on_c,0,62,34
2,328650, Note_on_c,0,58,19
2,328782, Note_off_c,0,38,64
2,328792, Note_off_c,0,58,64
2,328796, Control_c,0,64,127
2,328798, Note_off_c,0,62,64
2,329004, Note_on_c,0,62,28
2,329008, Note_on_c,0,58,20
2,329024, Note_on_c,0,38,17
2,329076, Note_off_c,0,62,64
2,329096, Note_off_c,0,38,64
2,329110, Note_off_c,0,67,64
2,329126, Note_off_c,0,58,64
2,329512, Note_on_c,0,64,57
2,329856, Control_c,0,64,0
2,329868, Note_on_c,0,61,38
2,329870, Note_on_c,0,38,16
2,329876, Note_on_c,0,58,21
2,329876, Note_on_c,0,55,28
2,330024, Note_off_c,0,55,64
2,330024, Note_off_c,0,38,64
2,330050, Note_off_c,0,58,64
2,330050, Control_c,0,64,127
2,330066, Note_off_c,0,61,64
2,330230, Note_on_c,0,61,27
2,330238, Note_on_c,0,55,27
2,330238, Note_on_c,0,38,24
2,330240, Note_on_c,0,58,22
2,330330, Note_off_c,0,38,64
2,330338, Note_off_c,0,55,64
2,330368, Note_off_c,0,58,64
2,330392, Note_off_c,0,64,64
2,330460, Note_off_c,0,61,64
2,330642, Note_on_c,0,66,35
2,331032, Control_c,0,64,0
2,331062, Note_on_c,0,54,14
2,331062, Note_on_c,0,38,19
2,331062, Note_on_c,0,57,18
2,331066, Note_on_c,0,62,25
2,331226, Note_off_c,0,38,64
2,331238, Note_off_c,0,54,64
2,331242, Control_c,0,64,127
2,331246, Note_off_c,0,57,64
2,331260, Note_off_c,0,62,64
2,331544, Note_on_c,0,62,18
2,331546, Note_on_c,0,54,12
2,331546, Note_on_c,0,38,15
2,331552, Note_on_c,0,57,3
2,331684, Note_off_c,0,38,64
2,331702, Note_off_c,0,54,64
2,331720, Note_off_c,0,57,64
2,331890, Note_off_c,0,62,64
2,332306, Note_on_c,0,60,36
2,332576, Note_on_c,0,62,55
2,332604, Note_on_c,0,38,16
2,332610, Note_off_c,0,66,64
2,332770, Note_off_c,0,38,64
2,332788, Note_on_c,0,66,57
2,332976, Note_on_c,0,70,57
2,332978, Note_off_c,0,66,64
2,332998, Note_on_c,0,38,19
2,333080, Note_off_c,0,62,64
2,333112, Note_off_c,0,70,64
2,333136, Note_off_c,0,38,64
2,333168, Note_on_c,0,69,54
2,333248, Note_off_c,0,60,64
2,333460, Note_on_c,0,67,47
2,333526, Note_off_c,0,69,64
2,333800, Control_c,0,64,0
2,333830, Note_on_c,0,58,17
2,333830, Note_on_c,0,38,22
2,333832, Note_on_c,0,62,30
2,333996, Control_c,0,64,127
2,333998, Note_off_c,0,62,64
2,334008, Note_off_c,0,58,64
2,334010, Note_off_c,0,38,64
2,334224, Note_on_c,0,62,33
2,334230, Note_on_c,0,58,20
2,334232, Note_on_c,0,38,28
2,334294, Note_off_c,0,62,64
2,334298, Note_off_c,0,58,64
2,334344, Note_off_c,0,67,64
2,334348, Note_off_c,0,38,64
2,334604, Note_on_c,0,74,73
2,334608, Note_on_c,0,62,49
2,334926, Note_on_c,0,55,20
2,334928, Note_on_c,0,58,17
2,334930, Note_on_c,0,70,28
2,334934, Note_on_c,0,50,24
2,334936, Note_on_c,0,67,32
2,335000, Note_off_c,0,55,64
2,335008, Note_off_c,0,50,64
2,335072, Note_off_c,0,58,64
2,335090, Note_off_c,0,70,64
2,335104, Note_off_c,0,67,64
2,335288, Note_on_c,0,70,42
2,335296, Note_on_c,0,58,28
2,335296, Note_on_c,0,67,33
2,335300, Note_on_c,0,55,32
2,335304, Note_on_c,0,50,29
2,335398, Note_off_c,0,55,64
2,335400, Note_off_c,0,50,64
2,335416, Note_off_c,0,62,64
2,335438, Note_off_c,0,58,64
2,335552, Note_off_c,0,70,64
2,335572, Note_off_c,0,67,64
2,335624, Note_on_c,0,76,80
2,335632, Note_on_c,0,64,80
2,335698, Note_off_c,0,74,64
2,335958, Note_on_c,0,58,32
2,335962, Note_on_c,0,55,37
2,335964, Note_on_c,0,70,38
2,335966, Note_on_c,0,67,36
2,335968, Note_on_c,0,50,39
2,336068, Note_off_c,0,55,64
2,336088, Note_off_c,0,50,64
2,336098, Note_off_c,0,67,64
2,336104, Note_off_c,0,70,64
2,336122, Note_off_c,0,58,64
2,336404, Note_on_c,0,70,25
2,336406, Note_on_c,0,67,35
2,336408, Note_on_c,0,58,21
2,336428, Note_on_c,0,50,25
2,336446, Note_on_c,0,55,31
2,336476, Note_off_c,0,64,64
2,336562, Note_off_c,0,55,64
2,336584, Note_off_c,0,67,64
2,336604, Note_off_c,0,76,64
2,336606, Note_off_c,0,70,64
2,336636, Note_off_c,0,58,64
2,336656, Note_off_c,0,50,64
2,337242, Note_on_c,0,58,26
2,337524, Note_on_c,0,61,46
2,337540, Note_on_c,0,38,28
2,337614, Note_off_c,0,58,64
2,337752, Note_off_c,0,38,64
2,337752, Note_on_c,0,64,57
2,337936, Note_off_c,0,64,64
2,337944, Note_off_c,0,61,64
2,337946, Note_on_c,0,69,42
2,337960, Note_on_c,0,38,37
2,338116, Note_off_c,0,38,64
2,338132, Note_on_c,0,67,61
2,338144, Note_off_c,0,69,64
2,338186, Note_off_c,0,67,64
2,338360, Note_on_c,0,67,51
2,338688, Note_on_c,0,58,24
2,338690, Note_on_c,0,64,36
2,338692, Note_on_c,0,61,33
2,338696, Note_on_c,0,38,35
2,338716, Control_c,0,64,0
2,338828, Note_off_c,0,61,64
2,338848, Note_off_c,0,64,64
2,338850, Control_c,0,64,127
2,338866, Note_off_c,0,38,64
2,338872, Note_off_c,0,58,64
2,339026, Note_on_c,0,64,47
2,339028, Note_on_c,0,38,57
2,339030, Note_on_c,0,58,33
2,339032, Note_on_c,0,61,31
2,339046, Note_off_c,0,67,64
2,339072, Note_off_c,0,38,64
2,339074, Note_off_c,0,58,64
2,339080, Note_off_c,0,61,64
2,339116, Note_off_c,0,64,64
2,339390, Note_on_c,0,76,84
2,339396, Note_on_c,0,64,74
2,339698, Note_on_c,0,70,32
2,339698, Note_on_c,0,73,44
2,339704, Note_on_c,0,67,39
2,339712, Note_on_c,0,50,18
2,339712, Note_on_c,0,58,28
2,339712, Note_on_c,0,55,48
2,339798, Note_off_c,0,55,64
2,339808, Note_off_c,0,50,64
2,339840, Note_off_c,0,67,64
2,339850, Note_off_c,0,58,64
2,339852, Note_off_c,0,70,64
2,339864, Note_off_c,0,73,64
2,339864, Note_off_c,0,64,64
2,339998, Note_on_c,0,73,48
2,340004, Note_on_c,0,70,34
2,340010, Note_on_c,0,67,41
2,340012, Note_on_c,0,50,43
2,340012, Note_on_c,0,58,43
2,340016, Note_on_c,0,55,43
2,340058, Note_off_c,0,50,64
2,340060, Note_off_c,0,55,64
2,340086, Note_off_c,0,58,64
2,340102, Note_off_c,0,76,64
2,340104, Note_off_c,0,67,64
2,340144, Note_off_c,0,70,64
2,340188, Note_off_c,0,73,64
2,340264, Note_on_c,0,78,93
2,340270, Note_on_c,0,66,80
2,340392, Note_off_c,0,66,64
2,340542, Note_on_c,0,67,39
2,340548, Note_on_c,0,73,36
2,340550, Note_on_c,0,58,38
2,340550, Note_on_c,0,70,31
2,340560, Note_on_c,0,55,39
2,340560, Note_on_c,0,50,41
2,340628, Note_off_c,0,50,64
2,340648, Note_off_c,0,55,64
2,340676, Note_off_c,0,58,64
2,340684, Note_off_c,0,67,64
2,340692, Note_off_c,0,73,64
2,340702, Note_off_c,0,70,64
2,340814, Note_on_c,0,73,59
2,340824, Note_on_c,0,55,47
2,340824, Note_on_c,0,70,43
2,340830, Note_on_c,0,58,39
2,340842, Note_on_c,0,67,34
2,340854, Note_on_c,0,50,34
2,340894, Note_off_c,0,78,64
2,340896, Note_off_c,0,55,64
2,340934, Note_off_c,0,58,64
2,340940, Note_off_c,0,50,64
2,340954, Note_off_c,0,67,64
2,340970, Note_off_c,0,70,64
2,341004, Note_off_c,0,73,64
2,341072, Note_on_c,0,76,90
2,341080, Note_on_c,0,64,80
2,341328, Note_on_c,0,73,57
2,341328, Note_on_c,0,67,58
2,341330, Note_on_c,0,70,46
2,341332, Note_on_c,0,58,39
2,341338, Note_on_c,0,50,50
2,341344, Note_on_c,0,55,42
2,341398, Note_off_c,0,64,64
2,341432, Note_off_c,0,55,64
2,341434, Note_off_c,0,50,64
2,341452, Note_off_c,0,67,64
2,341486, Note_off_c,0,58,64
2,341486, Note_off_c,0,70,64
2,341524, Note_off_c,0,76,64
2,341550, Note_off_c,0,73,64
2,341704, Note_on_c,0,78,96
2,341712, Note_on_c,0,66,84
2,341788, Note_off_c,0,66,64
2,341814, Note_off_c,0,78,64
2,341886, Note_on_c,0,78,84
2,341888, Note_on_c,0,66,90
2,342018, Note_off_c,0,66,64
2,342136, Note_on_c,0,73,55
2,342140, Note_on_c,0,58,53
2,342140, Note_on_c,0,67,54
2,342142, Note_on_c,0,70,45
2,342144, Note_on_c,0,50,60
2,342152, Note_on_c,0,55,47
2,342202, Note_off_c,0,55,64
2,342216, Note_off_c,0,50,64
2,342250, Note_off_c,0,67,64
2,342250, Note_off_c,0,58,64
2,342272, Note_off_c,0,70,64
2,342284, Note_off_c,0,73,64
2,342376, Note_on_c,0,58,62
2,342380, Note_on_c,0,67,65
2,342380, Note_on_c,0,55,64
2,342386, Note_on_c,0,70,54
2,342388, Note_on_c,0,73,62
2,342394, Note_on_c,0,50,49
2,342432, Note_off_c,0,78,64
2,342462, Note_off_c,0,55,64
2,342484, Note_off_c,0,67,64
2,342486, Note_off_c,0,58,64
2,342508, Note_off_c,0,50,64
2,342510, Note_off_c,0,70,64
2,342522, Note_off_c,0,73,64
2,342598, Note_on_c,0,76,95
2,342612, Note_on_c,0,64,92
2,342854, Note_on_c,0,73,67
2,342858, Note_on_c,0,70,53
2,342858, Note_on_c,0,67,68
2,342860, Note_on_c,0,50,66
2,342868, Note_on_c,0,58,50
2,342870, Note_on_c,0,55,55
2,342920, Control_c,0,64,0
2,342982, Note_off_c,0,64,64
2,342994, Note_off_c,0,50,64
2,342994, Note_off_c,0,67,64
2,343006, Control_c,0,64,127
2,343024, Note_off_c,0,55,64
2,343030, Note_off_c,0,70,64
2,343056, Note_off_c,0,58,64
2,343064, Note_off_c,0,76,64
2,343078, Note_off_c,0,73,64
2,343200, Note_on_c,0,78,102
2,343202, Note_on_c,0,66,90
2,343278, Note_off_c,0,66,64
2,343302, Note_off_c,0,78,64
2,343358, Note_on_c,0,78,88
2,343358, Note_on_c,0,66,88
2,343456, Note_off_c,0,66,64
2,343596, Note_on_c,0,73,62
2,343600, Note_on_c,0,67,63
2,343600, Note_on_c,0,58,65
2,343608, Note_on_c,0,70,48
2,343608, Note_on_c,0,55,63
2,343608, Note_on_c,0,50,63
2,343658, Note_off_c,0,55,64
2,343692, Note_off_c,0,58,64
2,343700, Note_off_c,0,50,64
2,343702, Note_off_c,0,67,64
2,343716, Note_off_c,0,70,64
2,343746, Note_off_c,0,73,64
2,343834, Note_on_c,0,58,60
2,343836, Note_on_c,0,67,76
2,343840, Note_on_c,0,55,64
2,343840, Note_on_c,0,70,58
2,343842, Note_on_c,0,73,60
2,343854, Note_on_c,0,50,60
2,343918, Note_off_c,0,78,64
2,343926, Note_off_c,0,55,64
2,343934, Note_off_c,0,50,64
2,343960, Note_off_c,0,67,64
2,343972, Note_off_c,0,70,64
2,343978, Note_off_c,0,58,64
2,343988, Note_off_c,0,73,64
2,344058, Note_on_c,0,76,101
2,344064, Note_on_c,0,64,97
2,344212, Note_off_c,0,64,64
2,344316, Note_on_c,0,73,68
2,344316, Note_on_c,0,67,74
2,344318, Note_on_c,0,55,78
2,344320, Note_on_c,0,70,50
2,344324, Note_on_c,0,58,57
2,344326, Note_on_c,0,50,59
2,344348, Note_off_c,0,76,64
2,344376, Note_off_c,0,50,64
2,344404, Note_off_c,0,55,64
2,344410, Note_off_c,0,58,64
2,344424, Note_off_c,0,70,64
2,344424, Note_off_c,0,67,64
2,344462, Note_off_c,0,73,64
2,344664, Note_on_c,0,78,100
2,344670, Note_on_c,0,66,96
2,344790, Note_off_c,0,66,64
2,344802, Note_off_c,0,78,64
2,344876, Note_on_c,0,81,111
2,344888, Note_on_c,0,69,102
2,345156, Note_on_c,0,70,64
2,345158, Note_on_c,0,73,63
2,345160, Note_on_c,0,76,74
2,345162, Note_on_c,0,58,64
2,345164, Note_on_c,0,64,83
2,345164, Note_on_c,0,61,72
2,345182, Control_c,0,64,0
2,345304, Control_c,0,64,127
2,345344, Note_off_c,0,64,64
2,345352, Note_off_c,0,61,64
2,345358, Note_off_c,0,76,64
2,345368, Note_off_c,0,73,64
2,345368, Note_off_c,0,70,64
2,345376, Note_off_c,0,58,64
2,345484, Note_on_c,0,70,61
2,345488, Note_on_c,0,73,57
2,345490, Note_on_c,0,76,68
2,345490, Note_on_c,0,61,61
2,345492, Note_on_c,0,58,55
2,345496, Note_on_c,0,64,69
2,345600, Note_off_c,0,61,64
2,345602, Note_off_c,0,64,64
2,345608, Note_off_c,0,69,64
2,345616, Note_off_c,0,58,64
2,345620, Note_off_c,0,81,64
2,345632, Note_off_c,0,70,64
2,345658, Note_off_c,0,73,64
2,345672, Note_off_c,0,76,64
2,345732, Note_on_c,0,79,108
2,345736, Note_on_c,0,67,109
2,346040, Note_on_c,0,70,73
2,346042, Note_on_c,0,61,73
2,346042, Note_on_c,0,73,68
2,346044, Note_on_c,0,58,57
2,346046, Note_on_c,0,76,78
2,346048, Note_on_c,0,64,75
2,346226, Note_off_c,0,61,64
2,346228, Note_off_c,0,67,64
2,346230, Note_off_c,0,64,64
2,346246, Note_off_c,0,58,64
2,346272, Note_off_c,0,70,64
2,346280, Note_off_c,0,73,64
2,346282, Note_off_c,0,79,64
2,346322, Note_off_c,0,76,64
2,346410, Note_on_c,0,81,110
2,346416, Note_on_c,0,69,100
2,346480, Note_off_c,0,69,64
2,346688, Note_off_c,0,81,64
2,346920, Note_on_c,0,82,96
2,346924, Note_on_c,0,70,90
2,346924, Note_on_c,0,74,92
2,346928, Note_on_c,0,26,101
2,346928, Note_on_c,0,38,98
2,347014, Control_c,0,64,0
2,347108, Note_off_c,0,26,64
2,347158, Note_off_c,0,38,64
2,347172, Control_c,0,64,127
2,347338, Note_off_c,0,70,64
2,347362, Note_off_c,0,74,64
2,347446, Note_off_c,0,82,64
2,347464, Note_on_c,0,58,78
2,347470, Note_on_c,0,50,80
2,347672, Note_on_c,0,94,102
2,347682, Note_on_c,0,86,96
2,347838, Note_off_c,0,86,64
2,347890, Note_off_c,0,94,64
2,347900, Note_off_c,0,50,64
2,347968, Note_on_c,0,96,111
2,347972, Note_on_c,0,87,95
2,347976, Note_off_c,0,58,64
2,347980, Note_on_c,0,62,87
2,347992, Note_on_c,0,55,79
2,348136, Note_off_c,0,87,64
2,348144, Note_off_c,0,96,64
2,348168, Note_off_c,0,62,64
2,348200, Note_on_c,0,94,92
2,348204, Note_off_c,0,55,64
2,348204, Note_on_c,0,86,92
2,348288, Note_off_c,0,86,64
2,348314, Note_off_c,0,94,64
2,348376, Note_on_c,0,93,105
2,348376, Note_on_c,0,84,104
2,348380, Note_on_c,0,67,83
2,348382, Note_on_c,0,58,59
2,348446, Note_off_c,0,93,64
2,348458, Note_off_c,0,84,64
2,348514, Note_off_c,0,67,64
2,348546, Note_on_c,0,91,98
2,348550, Note_on_c,0,82,88
2,348632, Note_off_c,0,82,64
2,348642, Note_off_c,0,91,64
2,348668, Note_off_c,0,58,64
2,348696, Note_on_c,0,90,99
2,348698, Note_on_c,0,81,100
2,348706, Note_on_c,0,62,65
2,348714, Note_on_c,0,55,74
2,348762, Note_off_c,0,81,64
2,348786, Note_off_c,0,90,64
2,348848, Note_on_c,0,91,105
2,348850, Note_on_c,0,82,95
2,348930, Note_off_c,0,62,64
2,348950, Note_off_c,0,91,64
2,348964, Note_off_c,0,82,64
2,348976, Note_off_c,0,55,64
2,349042, Note_on_c,0,89,108
2,349044, Note_on_c,0,81,104
2,349056, Note_on_c,0,58,72
2,349056, Note_on_c,0,50,70
2,349196, Note_off_c,0,58,64
2,349224, Note_off_c,0,50,64
2,349248, Note_off_c,0,89,64
2,349256, Note_off_c,0,81,64
2,349434, Note_on_c,0,87,95
2,349440, Note_on_c,0,79,95
2,349460, Note_off_c,0,87,64
2,349472, Note_off_c,0,79,64
2,349528, Note_on_c,0,79,98
2,349528, Note_on_c,0,87,91
2,349532, Note_on_c,0,38,96
2,349532, Control_c,0,64,0
2,349534, Note_on_c,0,26,99
2,349592, Note_off_c,0,26,64
2,349622, Note_off_c,0,38,64
2,349644, Control_c,0,64,127
2,349698, Note_off_c,0,79,64
2,349740, Note_off_c,0,87,64
2,349788, Note_on_c,0,78,95
2,349792, Note_on_c,0,86,101
2,349848, Note_off_c,0,78,64
2,349852, Note_off_c,0,86,64
2,349960, Note_on_c,0,75,90
2,349960, Note_on_c,0,84,98
2,349968, Note_on_c,0,50,75
2,349968, Note_on_c,0,60,71
2,349974, Note_on_c,0,54,62
2,350016, Note_off_c,0,54,64
2,350024, Note_off_c,0,50,64
2,350040, Note_off_c,0,75,64
2,350046, Note_off_c,0,84,64
2,350060, Note_off_c,0,60,64
2,350112, Note_on_c,0,82,89
2,350116, Note_on_c,0,74,94
2,350184, Note_off_c,0,82,64
2,350192, Note_off_c,0,74,64
2,350256, Note_on_c,0,81,97
2,350258, Note_on_c,0,72,91
2,350260, Note_on_c,0,62,68
2,350262, Note_on_c,0,54,75
2,350312, Note_off_c,0,72,64
2,350342, Note_off_c,0,81,64
2,350356, Note_off_c,0,62,64
2,350390, Note_on_c,0,70,92
2,350390, Note_on_c,0,79,100
2,350460, Note_off_c,0,79,64
2,350462, Note_off_c,0,70,64
2,350472, Note_on_c,0,60,55
2,350528, Note_on_c,0,62,53
2,350562, Note_on_c,0,78,96
2,350568, Note_on_c,0,69,85
2,350586, Note_on_c,0,66,80
2,350676, Note_off_c,0,69,64
2,350690, Note_off_c,0,78,64
2,350750, Note_off_c,0,62,64
2,350756, Note_on_c,0,75,85
2,350758, Note_on_c,0,72,88
2,350806, Note_off_c,0,60,64
2,350816, Note_off_c,0,66,64
2,350818, Note_off_c,0,54,64
2,350820, Note_off_c,0,72,64
2,350852, Note_off_c,0,75,64
2,350904, Note_on_c,0,74,98
2,350906, Note_on_c,0,72,80
2,350970, Note_off_c,0,74,64
2,351006, Note_off_c,0,72,64
2,351060, Note_on_c,0,54,79
2,351062, Note_on_c,0,62,84
2,351064, Note_on_c,0,71,103
2,351064, Note_on_c,0,74,97
2,351070, Note_on_c,0,60,69
2,351144, Note_off_c,0,74,64
2,351160, Note_off_c,0,71,64
2,351216, Note_on_c,0,70,93
2,351222, Note_on_c,0,74,84
2,351260, Note_off_c,0,74,64
2,351296, Note_off_c,0,70,64
2,351330, Note_on_c,0,74,98
2,351342, Note_on_c,0,69,84
2,351380, Note_off_c,0,69,64
2,351392, Note_off_c,0,74,64
2,351428, Note_off_c,0,60,64
2,351440, Note_on_c,0,68,97
2,351442, Note_on_c,0,74,93
2,351470, Note_off_c,0,62,64
2,351498, Note_off_c,0,74,64
2,351522, Note_off_c,0,68,64
2,351540, Note_on_c,0,74,106
2,351548, Note_on_c,0,69,84
2,351572, Note_off_c,0,54,64
2,351586, Note_off_c,0,69,64
2,351620, Note_off_c,0,74,64
2,351656, Note_on_c,0,70,95
2,351658, Note_on_c,0,74,111
2,351668, Note_on_c,0,60,95
2,351670, Note_on_c,0,54,78
2,351672, Note_on_c,0,50,79
2,351770, Note_off_c,0,74,64
2,351786, Note_off_c,0,70,64
2,351896, Note_on_c,0,74,104
2,351896, Note_on_c,0,69,104
2,352006, Note_off_c,0,74,64
2,352008, Note_off_c,0,69,64
2,352156, Note_on_c,0,72,102
2,352156, Note_on_c,0,74,108
2,352200, Control_c,0,64,0
2,352312, Control_c,0,64,127
2,352338, Note_off_c,0,74,64
2,352396, Note_off_c,0,72,64
2,352488, Note_on_c,0,70,101
2,352492, Note_on_c,0,74,101
2,352506, Note_off_c,0,60,64
2,352570, Note_off_c,0,54,64
2,352574, Note_off_c,0,50,64
2,352700, Note_off_c,0,74,64
2,352816, Note_off_c,0,70,64
2,352876, Control_c,0,64,0
2,352880, Note_on_c,0,67,107
2,352880, Note_on_c,0,74,110
2,352884, Note_on_c,0,31,106
2,352884, Note_on_c,0,43,106
2,352956, Note_off_c,0,31,64
2,352964, Note_off_c,0,67,64
2,352982, Note_off_c,0,43,64
2,352986, Control_c,0,64,127
2,352990, Note_off_c,0,74,64
2,353206, Note_on_c,0,94,92
2,353212, Note_on_c,0,91,87
2,353216, Note_on_c,0,86,85
2,353292, Note_off_c,0,91,64
2,353296, Note_off_c,0,94,64
2,353304, Note_on_c,0,81,79
2,353328, Note_off_c,0,86,64
2,353350, Note_off_c,0,81,64
2,353400, Note_on_c,0,62,63
2,353400, Note_on_c,0,58,51
2,353404, Note_on_c,0,67,66
2,353440, Note_off_c,0,67,64
2,353456, Note_off_c,0,62,64
2,353488, Note_on_c,0,91,76
2,353488, Note_on_c,0,86,56
2,353488, Note_on_c,0,82,56
2,353494, Note_off_c,0,58,64
2,353520, Note_off_c,0,91,64
2,353526, Note_off_c,0,86,64
2,353528, Note_off_c,0,82,64
2,353564, Control_c,0,64,0
2,353580, Note_on_c,0,91,61
2,353580, Note_on_c,0,86,94
2,353582, Note_on_c,0,46,93
2,353584, Note_on_c,0,82,74
2,353630, Note_off_c,0,46,64
2,353642, Note_off_c,0,91,64
2,353660, Note_on_c,0,78,92
2,353674, Control_c,0,64,127
2,353676, Note_off_c,0,86,64
2,353694, Note_off_c,0,82,64
2,353740, Note_off_c,0,78,64
2,353764, Note_on_c,0,67,78
2,353770, Note_on_c,0,58,56
2,353774, Note_on_c,0,62,68
2,353810, Note_off_c,0,67,64
2,353816, Note_off_c,0,62,64
2,353830, Note_on_c,0,86,68
2,353832, Note_on_c,0,79,67
2,353832, Note_on_c,0,82,55
2,353864, Note_off_c,0,86,64
2,353868, Note_off_c,0,82,64
2,353872, Note_off_c,0,79,64
2,353872, Note_off_c,0,58,64
2,353918, Note_on_c,0,86,72
2,353920, Note_on_c,0,79,99
2,353920, Note_on_c,0,82,67
2,353922, Control_c,0,64,0
2,353944, Note_on_c,0,50,97
2,353968, Note_off_c,0,50,64
2,353982, Control_c,0,64,127
2,353992, Note_off_c,0,86,64
2,354006, Note_off_c,0,79,64
2,354010, Note_on_c,0,73,84
2,354018, Note_off_c,0,82,64
2,354068, Note_off_c,0,73,64
2,354100, Note_on_c,0,67,67
2,354106, Note_on_c,0,62,46
2,354108, Note_on_c,0,58,47
2,354164, Note_on_c,0,82,65
2,354166, Note_off_c,0,62,64
2,354166, Note_on_c,0,74,79
2,354168, Note_on_c,0,79,76
2,354194, Note_off_c,0,82,64
2,354196, Note_off_c,0,74,64
2,354208, Note_off_c,0,67,64
2,354212, Note_off_c,0,58,64
2,354240, Note_off_c,0,79,64
2,354262, Note_on_c,0,55,89
2,354262, Note_on_c,0,82,59
2,354266, Note_on_c,0,74,69
2,354268, Note_on_c,0,79,94
2,354290, Control_c,0,64,0
2,354314, Note_off_c,0,55,64
2,354334, Note_on_c,0,70,78
2,354362, Note_off_c,0,74,64
2,354362, Control_c,0,64,127
2,354368, Note_off_c,0,79,64
2,354392, Note_off_c,0,82,64
2,354424, Note_off_c,0,70,64
2,354424, Note_on_c,0,67,78
2,354428, Note_on_c,0,60,65
2,354432, Note_on_c,0,63,69
2,354432, Note_on_c,0,57,59
2,354460, Note_off_c,0,67,64
2,354480, Note_off_c,0,63,64
2,354488, Note_off_c,0,60,64
2,354514, Note_on_c,0,84,73
2,354514, Note_on_c,0,75,51
2,354520, Note_off_c,0,57,64
2,354520, Note_on_c,0,79,39
2,354544, Note_off_c,0,84,64
2,354548, Control_c,0,64,0
2,354554, Note_off_c,0,75,64
2,354576, Note_off_c,0,79,64
2,354590, Note_on_c,0,84,94
2,354596, Note_on_c,0,75,75
2,354600, Note_on_c,0,79,65
2,354606, Note_on_c,0,45,64
2,354648, Note_off_c,0,45,64
2,354682, Control_c,0,64,127
2,354688, Note_off_c,0,84,64
2,354696, Note_off_c,0,79,64
2,354696, Note_on_c,0,74,79
2,354714, Note_off_c,0,75,64
2,354726, Note_off_c,0,74,64
2,354776, Note_on_c,0,73,82
2,354776, Note_on_c,0,67,57
2,354778, Note_on_c,0,60,26
2,354780, Note_on_c,0,63,43
2,354832, Note_off_c,0,63,64
2,354848, Note_on_c,0,72,79
2,354852, Note_off_c,0,60,64
2,354856, Note_off_c,0,67,64
2,354862, Note_off_c,0,73,64
2,354880, Note_off_c,0,72,64
2,354916, Control_c,0,64,0
2,354920, Note_on_c,0,79,97
2,354920, Note_on_c,0,84,101
2,354924, Note_on_c,0,57,73
2,354926, Note_on_c,0,75,86
2,354986, Note_off_c,0,57,64
2,355004, Note_off_c,0,84,64
2,355004, Note_on_c,0,74,89
2,355006, Note_off_c,0,79,64
2,355030, Note_off_c,0,75,64
2,355040, Note_off_c,0,74,64
2,355052, Control_c,0,64,127
2,355086, Note_on_c,0,73,79
2,355088, Note_on_c,0,66,63
2,355092, Note_on_c,0,62,59
2,355092, Note_on_c,0,60,64
2,355126, Note_off_c,0,66,64
2,355128, Note_off_c,0,62,64
2,355136, Note_off_c,0,60,64
2,355162, Note_off_c,0,73,64
2,355166, Note_on_c,0,72,85
2,355202, Note_off_c,0,72,64
2,355248, Note_on_c,0,75,90
2,355248, Note_on_c,0,84,103
2,355248, Control_c,0,64,0
2,355252, Note_on_c,0,50,98
2,355254, Note_on_c,0,78,73
2,355278, Note_off_c,0,50,64
2,355296, Note_off_c,0,78,64
2,355312, Note_off_c,0,84,64
2,355312, Note_on_c,0,74,90
2,355348, Note_off_c,0,75,64
2,355358, Note_off_c,0,74,64
2,355358, Control_c,0,64,127
2,355406, Note_on_c,0,73,78
2,355408, Note_on_c,0,66,79
2,355418, Note_on_c,0,62,39
2,355424, Note_on_c,0,60,63
2,355440, Note_on_c,0,78,53
2,355464, Note_off_c,0,62,64
2,355478, Note_off_c,0,78,64
2,355494, Note_on_c,0,72,70
2,355504, Note_off_c,0,66,64
2,355512, Note_off_c,0,60,64
2,355520, Note_off_c,0,73,64
2,355520, Control_c,0,64,0
2,355532, Note_off_c,0,72,64
2,355562, Note_on_c,0,81,84
2,355564, Note_on_c,0,78,65
2,355568, Note_on_c,0,74,85
2,355570, Note_on_c,0,57,92
2,355616, Control_c,0,64,127
2,355646, Note_off_c,0,57,64
2,355654, Note_off_c,0,74,64
2,355656, Note_off_c,0,81,64
2,355660, Note_on_c,0,72,70
2,355688, Note_off_c,0,78,64
2,355690, Control_c,0,64,0
2,355698, Note_off_c,0,72,64
2,355732, Note_on_c,0,82,85
2,355734, Note_on_c,0,70,93
2,355736, Note_on_c,0,74,67
2,355736, Note_on_c,0,55,81
2,355736, Note_on_c,0,79,67
2,355736, Note_on_c,0,62,73
2,355740, Note_on_c,0,67,95
2,355798, Note_off_c,0,70,64
2,355802, Note_off_c,0,67,64
2,355804, Note_off_c,0,62,64
2,355804, Note_off_c,0,74,64
2,355808, Note_off_c,0,55,64
2,355810, Note_off_c,0,79,64
2,355812, Note_off_c,0,82,64
2,355826, Control_c,0,64,127
2,355990, Note_on_c,0,94,92
2,355992, Note_on_c,0,43,100
2,355992, Note_on_c,0,91,85
2,356000, Note_on_c,0,86,90
2,356056, Note_off_c,0,94,64
2,356064, Note_off_c,0,43,64
2,356066, Note_on_c,0,81,87
2,356068, Note_off_c,0,91,64
2,356088, Note_off_c,0,86,64
2,356110, Note_off_c,0,81,64
2,356178, Note_on_c,0,67,76
2,356184, Note_on_c,0,62,67
2,356186, Note_on_c,0,58,55
2,356216, Note_off_c,0,67,64
2,356220, Note_off_c,0,62,64
2,356240, Note_on_c,0,82,85
2,356242, Note_on_c,0,91,85
2,356244, Note_on_c,0,86,73
2,356272, Note_off_c,0,91,64
2,356280, Note_off_c,0,82,64
2,356282, Note_off_c,0,58,64
2,356288, Note_off_c,0,86,64
2,356304, Control_c,0,64,0
2,356336, Note_on_c,0,86,85
2,356336, Note_on_c,0,82,85
2,356336, Note_on_c,0,91,44
2,356348, Note_on_c,0,46,92
2,356384, Note_off_c,0,46,64
2,356386, Note_off_c,0,91,64
2,356400, Note_on_c,0,78,86
2,356410, Note_off_c,0,86,64
2,356416, Note_off_c,0,82,64
2,356416, Control_c,0,64,127
2,356450, Note_off_c,0,78,64
2,356514, Note_on_c,0,67,84
2,356520, Note_on_c,0,58,66
2,356522, Note_on_c,0,62,75
2,356558, Note_off_c,0,62,64
2,356560, Note_off_c,0,67,64
2,356586, Note_on_c,0,82,69
2,356588, Note_on_c,0,86,72
2,356594, Note_on_c,0,79,73
2,356608, Note_off_c,0,58,64
2,356620, Note_off_c,0,86,64
2,356622, Note_off_c,0,82,64
2,356632, Note_off_c,0,79,64
2,356668, Note_on_c,0,86,80
2,356674, Note_on_c,0,82,70
2,356678, Note_on_c,0,79,95
2,356688, Control_c,0,64,0
2,356690, Note_on_c,0,50,98
2,356718, Note_off_c,0,50,64
2,356730, Note_off_c,0,86,64
2,356746, Note_on_c,0,73,77
2,356762, Note_off_c,0,79,64
2,356772, Note_off_c,0,82,64
2,356774, Control_c,0,64,127
2,356824, Note_off_c,0,73,64
2,356836, Note_on_c,0,67,72
2,356840, Note_on_c,0,58,51
2,356844, Note_on_c,0,62,51
2,356896, Note_off_c,0,62,64
2,356912, Note_on_c,0,79,62
2,356912, Note_on_c,0,74,72
2,356912, Note_on_c,0,82,74
2,356942, Note_off_c,0,58,64
2,356944, Note_off_c,0,67,64
2,356946, Note_off_c,0,74,64
2,356948, Note_off_c,0,82,64
2,356952, Note_off_c,0,79,64
2,357006, Note_on_c,0,55,92
2,357006, Note_on_c,0,82,72
2,357016, Note_on_c,0,79,102
2,357016, Note_on_c,0,74,76
2,357018, Control_c,0,64,0
2,357078, Note_on_c,0,70,77
2,357090, Note_off_c,0,55,64
2,357104, Note_off_c,0,74,64
2,357104, Note_off_c,0,79,64
2,357118, Control_c,0,64,127
2,357134, Note_off_c,0,82,64
2,357166, Note_off_c,0,70,64
2,357174, Note_on_c,0,67,83
2,357176, Note_on_c,0,57,59
2,357182, Note_on_c,0,60,63
2,357184, Note_on_c,0,63,70
2,357210, Note_off_c,0,67,64
2,357224, Note_off_c,0,63,64
2,357232, Note_off_c,0,60,64
2,357256, Note_off_c,0,57,64
2,357256, Note_on_c,0,79,49
2,357260, Note_on_c,0,75,64
2,357260, Note_on_c,0,84,81
2,357288, Note_off_c,0,84,64
2,357292, Note_off_c,0,75,64
2,357302, Note_off_c,0,79,64
2,357302, Control_c,0,64,0
2,357334, Note_on_c,0,84,87
2,357336, Note_on_c,0,79,88
2,357344, Note_on_c,0,75,58
2,357382, Note_on_c,0,45,57
2,357416, Note_off_c,0,79,64
2,357424, Control_c,0,64,127
2,357434, Note_off_c,0,84,64
2,357434, Note_on_c,0,74,77
2,357446, Note_off_c,0,45,64
2,357460, Note_off_c,0,75,64
2,357464, Note_off_c,0,74,64
2,357520, Note_on_c,0,73,76
2,357520, Note_on_c,0,63,60
2,357522, Note_on_c,0,67,72
2,357524, Note_on_c,0,60,60
2,357592, Note_on_c,0,72,62
2,357596, Note_off_c,0,67,64
2,357600, Note_off_c,0,63,64
2,357608, Note_off_c,0,73,64
2,357616, Note_off_c,0,60,64
2,357626, Note_off_c,0,72,64
2,357660, Note_on_c,0,57,84
2,357662, Note_on_c,0,84,103
2,357662, Note_on_c,0,79,94
2,357670, Note_on_c,0,75,80
2,357670, Control_c,0,64,0
2,357738, Note_on_c,0,74,90
2,357752, Note_off_c,0,84,64
2,357754, Note_off_c,0,79,64
2,357772, Note_off_c,0,57,64
2,357776, Note_off_c,0,75,64
2,357800, Note_off_c,0,74,64
2,357818, Control_c,0,64,127
2,357824, Note_on_c,0,73,83
2,357828, Note_on_c,0,66,71
2,357838, Note_on_c,0,60,71
2,357848, Note_on_c,0,62,57
2,357872, Note_off_c,0,66,64
2,357886, Note_off_c,0,62,64
2,357886, Note_off_c,0,60,64
2,357898, Note_on_c,0,72,84
2,357916, Note_off_c,0,73,64
2,357942, Note_off_c,0,72,64
2,357984, Note_on_c,0,84,101
2,357984, Note_on_c,0,75,89
2,357988, Note_on_c,0,78,64
2,357996, Note_on_c,0,50,90
2,358048, Note_on_c,0,74,85
2,358052, Note_off_c,0,78,64
2,358060, Note_off_c,0,50,64
2,358070, Note_off_c,0,84,64
2,358082, Note_off_c,0,75,64
2,358106, Note_off_c,0,74,64
2,358136, Note_on_c,0,73,80
2,358136, Note_on_c,0,66,72
2,358156, Note_on_c,0,60,54
2,358168, Note_on_c,0,62,47
2,358194, Note_on_c,0,78,11
2,358210, Note_off_c,0,62,64
2,358216, Note_off_c,0,60,64
2,358220, Note_on_c,0,72,73
2,358228, Note_off_c,0,66,64
2,358234, Note_off_c,0,78,64
2,358248, Note_off_c,0,73,64
2,358256, Note_off_c,0,72,64
2,358302, Note_on_c,0,81,88
2,358304, Note_on_c,0,57,84
2,358306, Note_on_c,0,78,52
2,358306, Note_on_c,0,74,50
2,358310, Control_c,0,64,0
2,358384, Note_off_c,0,81,64
2,358386, Note_off_c,0,74,64
2,358388, Note_off_c,0,57,64
2,358390, Note_on_c,0,72,60
2,358408, Control_c,0,64,127
2,358420, Note_off_c,0,78,64
2,358480, Note_off_c,0,72,64
2,358480, Note_on_c,0,82,87
2,358480, Control_c,0,64,0
2,358482, Note_on_c,0,55,69
2,358484, Note_on_c,0,70,92
2,358484, Note_on_c,0,67,84
2,358484, Note_on_c,0,79,86
2,358484, Note_on_c,0,58,70
2,358486, Note_on_c,0,74,70
2,358488, Note_on_c,0,62,65
2,358564, Note_off_c,0,67,64
2,358566, Note_off_c,0,70,64
2,358568, Note_off_c,0,62,64
2,358568, Note_off_c,0,74,64
2,358572, Note_off_c,0,58,64
2,358572, Note_off_c,0,55,64
2,358576, Note_off_c,0,79,64
2,358592, Control_c,0,64,127
2,358602, Note_off_c,0,82,64
2,358696, Note_on_c,0,80,101
2,358700, Note_on_c,0,48,91
2,358704, Control_c,0,64,0
2,358790, Note_on_c,0,92,65
2,358794, Note_on_c,0,87,56
2,358816, Note_off_c,0,80,64
2,358874, Control_c,0,64,127
2,358880, Note_on_c,0,80,75
2,358888, Note_off_c,0,87,64
2,358888, Note_off_c,0,92,64
2,358910, Note_off_c,0,48,64
2,358930, Note_off_c,0,80,64
2,359008, Note_on_c,0,80,62
2,359014, Note_on_c,0,75,55
2,359060, Note_off_c,0,75,64
2,359078, Note_on_c,0,67,75
2,359080, Note_on_c,0,63,71
2,359080, Note_on_c,0,56,54
2,359096, Note_off_c,0,80,64
2,359120, Note_off_c,0,67,64
2,359170, Note_on_c,0,79,90
2,359176, Note_on_c,0,75,59
2,359180, Note_off_c,0,63,64
2,359200, Note_off_c,0,79,64
2,359212, Note_off_c,0,75,64
2,359224, Note_off_c,0,56,64
2,359288, Note_on_c,0,66,87
2,359294, Note_on_c,0,50,92
2,359328, Control_c,0,64,0
2,359392, Note_off_c,0,66,64
2,359392, Note_on_c,0,78,80
2,359456, Note_off_c,0,78,64
2,359478, Control_c,0,64,127
2,359506, Note_on_c,0,78,73
2,359512, Note_on_c,0,60,45
2,359512, Note_on_c,0,57,53
2,359512, Note_on_c,0,62,61
2,359552, Note_off_c,0,57,64
2,359564, Note_off_c,0,60,64
2,359568, Note_off_c,0,62,64
2,359584, Note_off_c,0,78,64
2,359606, Note_on_c,0,90,81
2,359616, Note_on_c,0,81,29
2,359624, Note_off_c,0,50,64
2,359672, Note_off_c,0,81,64
2,359712, Note_on_c,0,79,79
2,359722, Note_off_c,0,90,64
2,359734, Note_on_c,0,43,83
2,359752, Note_off_c,0,79,64
2,359792, Note_off_c,0,43,64
2,359792, Note_on_c,0,82,47
2,359792, Note_on_c,0,91,97
2,359860, Note_off_c,0,91,64
2,359882, Note_off_c,0,82,64
2,359896, Note_on_c,0,79,66
2,359902, Note_on_c,0,62,72
2,359904, Note_on_c,0,58,53
2,359912, Note_on_c,0,55,61
2,359936, Note_off_c,0,79,64
2,359938, Note_off_c,0,62,64
2,359956, Note_off_c,0,55,64
2,359956, Note_off_c,0,58,64
2,359970, Note_on_c,0,79,59
2,359988, Note_on_c,0,70,43
2,360012, Note_off_c,0,79,64
2,360040, Note_off_c,0,70,64
2,360080, Note_on_c,0,68,86
2,360082, Note_on_c,0,48,89
2,360116, Control_c,0,64,0
2,360164, Note_on_c,0,80,72
2,360168, Note_off_c,0,68,64
2,360174, Note_on_c,0,75,59
2,360206, Note_off_c,0,75,64
2,360250, Note_off_c,0,80,64
2,360272, Note_on_c,0,63,69
2,360272, Note_on_c,0,56,52
2,360288, Control_c,0,64,127
2,360290, Note_on_c,0,80,88
2,360362, Note_off_c,0,80,64
2,360372, Note_on_c,0,92,72
2,360374, Note_on_c,0,87,61
2,360460, Note_off_c,0,92,64
2,360460, Note_on_c,0,80,85
2,360462, Note_off_c,0,87,64
2,360468, Note_off_c,0,56,64
2,360472, Note_off_c,0,63,64
2,360488, Note_off_c,0,48,64
2,360496, Note_off_c,0,80,64
2,360586, Note_on_c,0,80,59
2,360596, Note_on_c,0,75,57
2,360648, Note_off_c,0,75,64
2,360680, Note_off_c,0,80,64
2,360684, Note_on_c,0,56,60
2,360688, Note_on_c,0,63,74
2,360688, Note_on_c,0,67,77
2,360734, Note_off_c,0,67,64
2,360776, Note_off_c,0,63,64
2,360776, Note_on_c,0,79,47
2,360778, Note_on_c,0,75,50
2,360816, Note_off_c,0,75,64
2,360824, Note_off_c,0,56,64
2,360830, Note_off_c,0,79,64
2,360868, Note_on_c,0,66,90
2,360872, Note_on_c,0,50,94
2,360914, Control_c,0,64,0
2,360968, Note_off_c,0,66,64
2,360984, Note_on_c,0,78,83
2,361056, Note_off_c,0,78,64
2,361064, Control_c,0,64,127
2,361070, Note_on_c,0,60,43
2,361072, Note_on_c,0,62,57
2,361076, Note_on_c,0,57,54
2,361094, Note_on_c,0,78,87
2,361152, Note_off_c,0,62,64
2,361152, Note_off_c,0,60,64
2,361156, Note_off_c,0,57,64
2,361188, Note_off_c,0,78,64
2,361192, Note_on_c,0,90,79
2,361192, Note_on_c,0,81,41
2,361208, Note_off_c,0,50,64
2,361236, Note_off_c,0,81,64
2,361288, Note_on_c,0,79,83
2,361310, Note_off_c,0,90,64
2,361312, Note_on_c,0,43,83
2,361332, Note_off_c,0,79,64
2,361374, Note_off_c,0,43,64
2,361380, Note_on_c,0,91,90
2,361382, Note_on_c,0,82,57
2,361422, Note_off_c,0,82,64
2,361454, Note_off_c,0,91,64
2,361478, Note_on_c,0,79,96
2,361480, Note_on_c,0,62,66
2,361482, Note_on_c,0,58,48
2,361484, Note_on_c,0,55,32
2,361508, Note_off_c,0,79,64
2,361518, Note_off_c,0,62,64
2,361534, Note_off_c,0,55,64
2,361536, Note_off_c,0,58,64
2,361574, Note_on_c,0,70,74
2,361576, Note_on_c,0,79,81
2,361640, Control_c,0,64,0
2,361656, Note_off_c,0,79,64
2,361664, Note_on_c,0,47,99
2,361680, Note_off_c,0,70,64
2,361696, Note_on_c,0,65,93
2,361768, Note_off_c,0,47,64
2,361776, Note_off_c,0,65,64
2,361782, Note_on_c,0,68,48
2,361782, Note_on_c,0,77,70
2,361800, Control_c,0,64,127
2,361824, Note_off_c,0,68,64
2,361836, Note_off_c,0,77,64
2,361888, Note_on_c,0,77,89
2,361898, Note_on_c,0,62,71
2,361912, Note_on_c,0,56,60
2,361912, Note_on_c,0,53,79
2,361944, Note_off_c,0,77,64
2,361970, Note_off_c,0,62,64
2,361978, Note_on_c,0,89,88
2,361984, Note_on_c,0,80,69
2,361996, Note_off_c,0,53,64
2,362014, Note_off_c,0,56,64
2,362044, Note_off_c,0,89,64
2,362056, Note_on_c,0,77,88
2,362074, Note_on_c,0,48,93
2,362078, Note_off_c,0,80,64
2,362082, Note_off_c,0,77,64
2,362168, Note_on_c,0,75,81
2,362184, Note_on_c,0,68,54
2,362224, Note_off_c,0,68,64
2,362250, Note_off_c,0,75,64
2,362252, Note_on_c,0,63,88
2,362256, Note_on_c,0,60,74
2,362258, Note_on_c,0,56,66
2,362264, Note_on_c,0,51,67
2,362304, Note_off_c,0,48,64
2,362328, Note_off_c,0,63,64
2,362336, Note_on_c,0,75,61
2,362340, Note_on_c,0,68,73
2,362364, Note_off_c,0,60,64
2,362388, Note_off_c,0,51,64
2,362392, Note_off_c,0,68,64
2,362392, Note_off_c,0,56,64
2,362414, Note_off_c,0,75,64
2,362414, Control_c,0,64,0
2,362432, Note_on_c,0,50,96
2,362438, Note_on_c,0,62,92
2,362492, Note_off_c,0,62,64
2,362522, Note_on_c,0,74,69
2,362532, Note_on_c,0,68,27
2,362552, Note_off_c,0,74,64
2,362562, Control_c,0,64,127
2,362590, Note_off_c,0,68,64
2,362606, Note_on_c,0,74,74
2,362608, Note_on_c,0,59,69
2,362610, Note_on_c,0,56,57
2,362614, Note_on_c,0,53,80
2,362662, Note_off_c,0,53,64
2,362670, Note_off_c,0,56,64
2,362680, Note_off_c,0,74,64
2,362690, Note_off_c,0,59,64
2,362690, Note_on_c,0,80,79
2,362690, Note_on_c,0,86,83
2,362716, Note_off_c,0,50,64
2,362770, Note_off_c,0,86,64
2,362784, Note_off_c,0,80,64
2,362784, Note_on_c,0,74,61
2,362790, Note_on_c,0,51,95
2,362816, Note_off_c,0,74,64
2,362870, Note_on_c,0,68,78
2,362880, Note_on_c,0,72,36
2,362936, Note_off_c,0,72,64
2,362942, Note_on_c,0,56,74
2,362952, Note_on_c,0,60,94
2,362988, Note_off_c,0,68,64
2,363028, Note_off_c,0,60,64
2,363030, Note_off_c,0,56,64
2,363030, Control_c,0,64,0
2,363036, Note_on_c,0,72,68
2,363040, Note_on_c,0,63,67
2,363048, Note_off_c,0,51,64
2,363088, Note_off_c,0,63,64
2,363110, Note_on_c,0,42,88
2,363116, Note_on_c,0,60,95
2,363128, Note_off_c,0,72,64
2,363178, Note_off_c,0,42,64
2,363190, Note_on_c,0,72,67
2,363190, Control_c,0,64,127
2,363192, Note_off_c,0,60,64
2,363224, Note_off_c,0,72,64
2,363294, Note_on_c,0,72,74
2,363298, Note_on_c,0,63,76
2,363306, Note_on_c,0,54,58
2,363308, Note_on_c,0,60,42
2,363366, Note_on_c,0,84,86
2,363368, Note_off_c,0,60,64
2,363368, Note_on_c,0,75,68
2,363376, Note_off_c,0,72,64
2,363396, Note_off_c,0,63,64
2,363406, Note_off_c,0,54,64
2,363432, Note_off_c,0,75,64
2,363464, Note_off_c,0,84,64
2,363476, Note_on_c,0,72,90
2,363488, Note_on_c,0,58,62
2,363492, Note_on_c,0,62,73
2,363502, Note_on_c,0,74,49
2,363504, Note_on_c,0,55,43
2,363522, Note_off_c,0,62,64
2,363538, Note_off_c,0,58,64
2,363544, Note_off_c,0,74,64
2,363544, Note_on_c,0,84,73
2,363548, Note_off_c,0,55,64
2,363548, Note_on_c,0,75,67
2,363564, Note_off_c,0,72,64
2,363590, Note_on_c,0,79,32
2,363592, Note_off_c,0,75,64
2,363610, Note_off_c,0,84,64
2,363646, Note_off_c,0,79,64
2,363648, Note_on_c,0,70,92
2,363652, Note_on_c,0,43,87
2,363722, Note_on_c,0,82,75
2,363736, Note_off_c,0,43,64
2,363738, Note_on_c,0,74,49
2,363752, Note_off_c,0,70,64
2,363754, Control_c,0,64,0
2,363792, Note_off_c,0,74,64
2,363808, Note_on_c,0,48,82
2,363810, Note_on_c,0,70,77
2,363824, Note_off_c,0,82,64
2,363856, Note_off_c,0,48,64
2,363886, Note_on_c,0,82,69
2,363914, Control_c,0,64,127
2,363916, Note_on_c,0,74,55
2,363930, Note_off_c,0,70,64
2,363952, Note_off_c,0,74,64
2,363966, Note_off_c,0,82,64
2,363984, Note_on_c,0,69,74
2,363994, Note_on_c,0,67,77
2,363994, Note_on_c,0,63,64
2,363994, Note_on_c,0,57,47
2,364026, Note_off_c,0,67,64
2,364028, Note_off_c,0,63,64
2,364040, Note_off_c,0,57,64
2,364060, Note_on_c,0,72,68
2,364066, Note_on_c,0,81,75
2,364080, Note_off_c,0,69,64
2,364130, Note_off_c,0,72,64
2,364146, Note_on_c,0,67,90
2,364152, Note_off_c,0,81,64
2,364154, Note_on_c,0,50,96
2,364172, Control_c,0,64,0
2,364230, Note_on_c,0,70,73
2,364232, Note_on_c,0,79,92
2,364264, Note_off_c,0,67,64
2,364268, Note_off_c,0,79,64
2,364268, Note_off_c,0,50,64
2,364296, Control_c,0,64,127
2,364306, Note_on_c,0,66,87
2,364308, Note_on_c,0,62,69
2,364312, Note_on_c,0,60,57
2,364312, Note_on_c,0,57,62
2,364320, Note_off_c,0,70,64
2,364358, Note_off_c,0,62,64
2,364366, Note_on_c,0,78,90
2,364370, Note_off_c,0,57,64
2,364370, Note_off_c,0,60,64
2,364372, Note_on_c,0,69,44
2,364404, Note_off_c,0,66,64
2,364448, Note_off_c,0,78,64
2,364454, Note_off_c,0,69,64
2,364492, Control_c,0,64,0
2,364500, Note_on_c,0,70,78
2,364502, Note_on_c,0,79,108
2,364504, Note_on_c,0,67,92
2,364508, Note_on_c,0,62,78
2,364508, Note_on_c,0,55,71
2,364508, Note_on_c,0,58,57
2,364574, Note_off_c,0,70,64
2,364576, Note_off_c,0,67,64
2,364596, Note_off_c,0,79,64
2,364600, Note_off_c,0,62,64
2,364608, Note_off_c,0,55,64
2,364612, Note_off_c,0,58,64
2,364616, Control_c,0,64,127
2,364688, Control_c,0,64,0
2,364696, Note_on_c,0,48,78
2,364696, Note_on_c,0,80,99
2,364788, Note_on_c,0,92,75
2,364794, Note_on_c,0,87,70
2,364810, Note_off_c,0,80,64
2,364836, Control_c,0,64,127
2,364880, Note_on_c,0,80,86
2,364882, Note_off_c,0,92,64
2,364884, Note_off_c,0,87,64
2,364884, Note_off_c,0,48,64
2,364936, Note_off_c,0,80,64
2,365002, Note_on_c,0,80,67
2,365010, Note_on_c,0,75,38
2,365102, Note_on_c,0,63,62
2,365106, Note_on_c,0,67,81
2,365110, Note_off_c,0,80,64
2,365112, Note_off_c,0,75,64
2,365112, Note_on_c,0,56,53
2,365154, Note_off_c,0,67,64
2,365184, Note_on_c,0,75,42
2,365188, Note_on_c,0,79,87
2,365190, Note_off_c,0,63,64
2,365228, Note_off_c,0,75,64
2,365230, Note_off_c,0,79,64
2,365246, Note_off_c,0,56,64
2,365300, Note_on_c,0,50,80
2,365304, Note_on_c,0,66,84
2,365316, Control_c,0,64,0
2,365406, Note_off_c,0,66,64
2,365416, Note_on_c,0,69,17
2,365420, Note_on_c,0,78,82
2,365464, Control_c,0,64,127
2,365466, Note_off_c,0,69,64
2,365492, Note_off_c,0,78,64
2,365528, Note_on_c,0,78,93
2,365530, Note_on_c,0,62,46
2,365536, Note_on_c,0,60,36
2,365538, Note_on_c,0,57,41
2,365576, Note_off_c,0,62,64
2,365582, Note_off_c,0,57,64
2,365588, Note_off_c,0,60,64
2,365614, Note_off_c,0,78,64
2,365626, Note_on_c,0,90,79
2,365638, Note_on_c,0,81,49
2,365648, Note_off_c,0,50,64
2,365680, Note_off_c,0,81,64
2,365728, Note_on_c,0,79,83
2,365736, Note_off_c,0,90,64
2,365742, Note_on_c,0,43,73
2,365768, Note_off_c,0,79,64
2,365772, Note_off_c,0,43,64
2,365810, Note_on_c,0,91,94
2,365820, Note_on_c,0,82,47
2,365878, Note_off_c,0,91,64
2,365916, Note_off_c,0,82,64
2,365922, Note_on_c,0,62,61
2,365924, Note_on_c,0,79,91
2,365924, Note_on_c,0,58,51
2,365928, Note_on_c,0,55,61
2,365954, Note_off_c,0,79,64
2,365976, Note_off_c,0,62,64
2,365988, Note_off_c,0,55,64
2,365990, Note_off_c,0,58,64
2,366016, Note_on_c,0,79,91
2,366046, Note_off_c,0,79,64
2,366084, Note_on_c,0,48,91
2,366084, Note_on_c,0,68,73
2,366102, Control_c,0,64,0
2,366172, Note_off_c,0,68,64
2,366192, Note_on_c,0,80,72
2,366196, Note_on_c,0,75,66
2,366264, Control_c,0,64,127
2,366270, Note_off_c,0,80,64
2,366278, Note_on_c,0,63,66
2,366288, Note_off_c,0,48,64
2,366288, Note_on_c,0,56,58
2,366296, Note_on_c,0,80,83
2,366300, Note_off_c,0,75,64
2,366376, Note_off_c,0,80,64
2,366376, Note_on_c,0,92,72
2,366380, Note_on_c,0,87,66
2,366454, Note_off_c,0,92,64
2,366464, Note_on_c,0,80,81
2,366484, Note_off_c,0,87,64
2,366486, Note_on_c,0,50,89
2,366496, Note_off_c,0,80,64
2,366580, Note_on_c,0,80,46
2,366582, Note_on_c,0,75,73
2,366602, Note_off_c,0,50,64
2,366666, Note_off_c,0,80,64
2,366676, Note_on_c,0,67,90
2,366684, Note_on_c,0,51,89
2,366716, Note_off_c,0,75,64
2,366728, Note_off_c,0,63,64
2,366744, Note_off_c,0,67,64
2,366754, Note_on_c,0,72,48
2,366756, Note_on_c,0,79,79
2,366790, Note_off_c,0,79,64
2,366792, Note_off_c,0,56,64
2,366796, Note_off_c,0,72,64
2,366838, Note_off_c,0,51,64
2,366868, Note_on_c,0,50,98
2,366868, Note_on_c,0,66,87
2,366902, Control_c,0,64,0
2,366962, Note_on_c,0,69,29
2,366966, Note_off_c,0,66,64
2,366970, Note_on_c,0,78,85
2,367024, Note_off_c,0,69,64
2,367040, Note_off_c,0,78,64
2,367050, Note_on_c,0,60,50
2,367052, Note_on_c,0,62,72
2,367054, Note_on_c,0,57,64
2,367062, Control_c,0,64,127
2,367078, Note_on_c,0,78,88
2,367126, Note_off_c,0,60,64
2,367134, Note_off_c,0,62,64
2,367136, Note_off_c,0,57,64
2,367170, Note_on_c,0,81,57
2,367176, Note_off_c,0,78,64
2,367176, Note_on_c,0,90,76
2,367182, Note_off_c,0,50,64
2,367216, Note_off_c,0,81,64
2,367278, Note_on_c,0,43,64
2,367278, Note_on_c,0,79,86
2,367296, Note_off_c,0,90,64
2,367318, Note_off_c,0,79,64
2,367320, Note_off_c,0,43,64
2,367368, Note_on_c,0,91,92
2,367376, Note_on_c,0,82,62
2,367440, Note_off_c,0,91,64
2,367448, Note_on_c,0,79,91
2,367464, Note_on_c,0,58,70
2,367464, Note_on_c,0,62,87
2,367472, Note_off_c,0,82,64
2,367472, Note_on_c,0,55,72
2,367478, Note_off_c,0,79,64
2,367490, Note_off_c,0,62,64
2,367500, Note_off_c,0,58,64
2,367510, Note_off_c,0,55,64
2,367544, Note_on_c,0,79,53
2,367552, Note_on_c,0,70,80
2,367622, Note_off_c,0,79,64
2,367626, Control_c,0,64,0
2,367692, Note_off_c,0,70,64
2,367692, Note_on_c,0,65,96
2,367694, Note_on_c,0,47,100
2,367696, Note_on_c,0,35,110
2,367768, Note_off_c,0,65,64
2,367788, Note_on_c,0,77,81
2,367792, Note_on_c,0,68,32
2,367800, Control_c,0,64,127
2,367828, Note_off_c,0,47,64
2,367830, Note_off_c,0,77,64
2,367846, Note_off_c,0,35,64
2,367852, Note_off_c,0,68,64
2,367904, Note_on_c,0,77,83
2,367928, Note_on_c,0,62,81
2,367932, Note_on_c,0,56,69
2,367932, Note_on_c,0,53,78
2,367960, Note_off_c,0,62,64
2,367978, Note_off_c,0,53,64
2,367994, Note_off_c,0,77,64
2,367996, Note_off_c,0,56,64
2,368002, Note_on_c,0,80,77
2,368002, Note_on_c,0,89,63
2,368112, Note_off_c,0,89,64
2,368118, Control_c,0,64,0
2,368138, Note_on_c,0,77,97
2,368144, Note_on_c,0,36,111
2,368148, Note_on_c,0,48,95
2,368150, Note_off_c,0,80,64
2,368164, Note_off_c,0,77,64
2,368248, Note_on_c,0,75,76
2,368262, Note_on_c,0,67,81
2,368264, Note_off_c,0,48,64
2,368268, Note_off_c,0,36,64
2,368278, Control_c,0,64,127
2,368314, Note_off_c,0,67,64
2,368350, Note_on_c,0,63,89
2,368356, Note_off_c,0,75,64
2,368366, Note_on_c,0,55,86
2,368376, Note_on_c,0,60,59
2,368376, Note_on_c,0,51,69
2,368382, Note_on_c,0,59,43
2,368400, Note_off_c,0,55,64
2,368418, Note_off_c,0,60,64
2,368424, Note_off_c,0,59,64
2,368428, Note_on_c,0,75,62
2,368430, Note_on_c,0,67,72
2,368446, Note_off_c,0,51,64
2,368450, Note_off_c,0,63,64
2,368474, Control_c,0,64,0
2,368486, Note_off_c,0,67,64
2,368540, Note_off_c,0,75,64
2,368540, Note_on_c,0,62,95
2,368544, Note_on_c,0,38,108
2,368550, Note_on_c,0,50,102
2,368612, Note_off_c,0,62,64
2,368612, Note_on_c,0,66,44
2,368626, Note_on_c,0,74,81
2,368648, Control_c,0,64,127
2,368652, Note_off_c,0,74,64
2,368656, Note_off_c,0,66,64
2,368682, Note_off_c,0,50,64
2,368684, Note_off_c,0,38,64
2,368716, Note_on_c,0,74,49
2,368732, Note_on_c,0,57,75
2,368732, Note_on_c,0,54,84
2,368776, Note_off_c,0,54,64
2,368784, Note_off_c,0,57,64
2,368798, Note_off_c,0,74,64
2,368804, Note_on_c,0,78,76
2,368804, Note_on_c,0,86,84
2,368832, Control_c,0,64,0
2,368894, Note_on_c,0,74,94
2,368906, Note_off_c,0,86,64
2,368906, Note_on_c,0,40,117
2,368908, Note_on_c,0,52,105
2,368918, Note_off_c,0,78,64
2,368920, Note_off_c,0,74,64
2,368992, Control_c,0,64,127
2,369000, Note_on_c,0,73,73
2,369014, Note_on_c,0,64,80
2,369034, Note_off_c,0,52,64
2,369044, Note_off_c,0,40,64
2,369084, Note_on_c,0,58,67
2,369092, Note_on_c,0,55,70
2,369092, Note_on_c,0,61,92
2,369112, Note_off_c,0,73,64
2,369124, Note_off_c,0,64,64
2,369130, Note_off_c,0,55,64
2,369132, Note_off_c,0,58,64
2,369138, Control_c,0,64,0
2,369176, Note_off_c,0,61,64
2,369176, Note_on_c,0,73,60
2,369182, Note_on_c,0,64,76
2,369242, Note_off_c,0,64,64
2,369256, Note_on_c,0,42,97
2,369258, Note_on_c,0,54,100
2,369278, Note_on_c,0,60,98
2,369286, Note_off_c,0,73,64
2,369332, Note_off_c,0,42,64
2,369334, Note_off_c,0,54,64
2,369336, Control_c,0,64,127
2,369360, Note_off_c,0,60,64
2,369374, Note_on_c,0,72,76
2,369400, Note_off_c,0,72,64
2,369456, Note_on_c,0,72,61
2,369464, Note_on_c,0,63,88
2,369480, Note_on_c,0,54,75
2,369490, Note_on_c,0,60,52
2,369544, Note_off_c,0,60,64
2,369544, Note_off_c,0,72,64
2,369544, Note_on_c,0,75,70
2,369546, Note_off_c,0,63,64
2,369552, Note_on_c,0,84,79
2,369592, Note_off_c,0,54,64
2,369594, Control_c,0,64,0
2,369628, Note_off_c,0,84,64
2,369628, Note_off_c,0,75,64
2,369656, Note_on_c,0,63,88
2,369662, Note_on_c,0,71,105
2,369666, Note_on_c,0,55,75
2,369670, Note_on_c,0,60,64
2,369700, Note_off_c,0,63,64
2,369706, Note_off_c,0,60,64
2,369718, Note_off_c,0,55,64
2,369752, Note_on_c,0,75,52
2,369752, Note_on_c,0,83,85
2,369760, Note_off_c,0,71,64
2,369766, Control_c,0,64,127
2,369792, Note_off_c,0,75,64
2,369824, Note_off_c,0,83,64
2,369848, Note_on_c,0,72,91
2,369852, Note_on_c,0,55,92
2,369852, Note_on_c,0,43,95
2,369878, Note_off_c,0,55,64
2,369880, Note_off_c,0,43,64
2,369922, Note_on_c,0,75,62
2,369932, Note_off_c,0,72,64
2,369932, Note_on_c,0,84,77
2,369962, Control_c,0,64,0
2,369992, Note_off_c,0,75,64
2,370020, Note_off_c,0,84,64
2,370024, Note_on_c,0,56,99
2,370026, Note_on_c,0,44,101
2,370028, Note_on_c,0,72,97
2,370094, Note_off_c,0,44,64
2,370100, Note_off_c,0,72,64
2,370100, Note_off_c,0,56,64
2,370100, Note_on_c,0,75,60
2,370114, Note_on_c,0,84,60
2,370120, Control_c,0,64,127
2,370136, Note_off_c,0,75,64
2,370160, Note_off_c,0,84,64
2,370210, Note_on_c,0,66,86
2,370210, Note_on_c,0,75,74
2,370216, Note_on_c,0,56,73
2,370232, Note_on_c,0,63,51
2,370272, Note_off_c,0,63,64
2,370276, Note_off_c,0,75,64
2,370288, Note_on_c,0,87,64
2,370294, Note_on_c,0,78,57
2,370298, Note_off_c,0,66,64
2,370306, Note_off_c,0,56,64
2,370342, Note_off_c,0,78,64
2,370384, Note_off_c,0,87,64
2,370384, Note_on_c,0,66,73
2,370390, Note_on_c,0,63,75
2,370392, Note_on_c,0,74,98
2,370394, Note_on_c,0,57,72
2,370416, Note_off_c,0,66,64
2,370424, Note_off_c,0,63,64
2,370436, Note_off_c,0,57,64
2,370452, Note_on_c,0,86,77
2,370468, Note_on_c,0,78,61
2,370480, Note_off_c,0,74,64
2,370508, Note_off_c,0,78,64
2,370534, Note_off_c,0,86,64
2,370562, Note_on_c,0,75,97
2,370568, Note_on_c,0,57,83
2,370568, Note_on_c,0,45,91
2,370596, Note_off_c,0,45,64
2,370596, Note_off_c,0,57,64
2,370636, Note_on_c,0,87,70
2,370648, Note_on_c,0,78,56
2,370652, Control_c,0,64,0
2,370660, Note_off_c,0,75,64
2,370688, Note_off_c,0,78,64
2,370724, Note_on_c,0,75,86
2,370734, Note_on_c,0,58,93
2,370736, Note_on_c,0,46,95
2,370752, Note_off_c,0,87,64
2,370796, Note_off_c,0,58,64
2,370804, Note_off_c,0,46,64
2,370820, Note_on_c,0,78,40
2,370822, Control_c,0,64,127
2,370824, Note_on_c,0,87,52
2,370830, Note_off_c,0,75,64
2,370868, Note_off_c,0,78,64
2,370892, Note_off_c,0,87,64
2,370912, Note_on_c,0,66,90
2,370914, Note_on_c,0,63,31
2,370914, Note_on_c,0,58,54
2,370920, Note_on_c,0,78,80
2,370960, Note_off_c,0,58,64
2,370974, Note_off_c,0,63,64
2,371000, Note_off_c,0,66,64
2,371000, Note_on_c,0,90,78
2,371008, Note_on_c,0,82,60
2,371030, Note_off_c,0,78,64
2,371054, Note_off_c,0,82,64
2,371094, Note_off_c,0,90,64
2,371106, Note_on_c,0,77,89
2,371108, Note_on_c,0,63,78
2,371108, Note_on_c,0,69,78
2,371110, Note_on_c,0,59,78
2,371140, Note_off_c,0,69,64
2,371150, Note_off_c,0,63,64
2,371154, Note_off_c,0,59,64
2,371164, Note_on_c,0,89,69
2,371178, Note_on_c,0,80,53
2,371198, Note_off_c,0,77,64
2,371258, Note_off_c,0,80,64
2,371272, Note_off_c,0,89,64
2,371290, Note_on_c,0,78,101
2,371294, Note_on_c,0,59,92
2,371294, Note_on_c,0,47,90
2,371320, Note_off_c,0,59,64
2,371324, Note_off_c,0,47,64
2,371376, Note_on_c,0,90,62
2,371400, Note_off_c,0,78,64
2,371402, Note_on_c,0,81,35
2,371424, Control_c,0,64,0
2,371450, Note_off_c,0,81,64
2,371470, Note_on_c,0,48,97
2,371470, Note_on_c,0,78,88
2,371476, Note_on_c,0,60,100
2,371490, Note_off_c,0,90,64
2,371554, Note_off_c,0,48,64
2,371568, Note_off_c,0,60,64
2,371572, Note_on_c,0,81,103
2,371576, Note_on_c,0,90,68
2,371592, Note_off_c,0,78,64
2,371598, Control_c,0,64,127
2,371646, Note_off_c,0,81,64
2,371680, Note_off_c,0,90,64
2,371692, Note_on_c,0,69,81
2,371696, Note_on_c,0,66,54
2,371696, Note_on_c,0,60,51
2,371696, Note_on_c,0,81,103
2,371696, Note_on_c,0,62,63
2,371770, Note_off_c,0,81,64
2,371816, Note_on_c,0,93,87
2,371816, Note_on_c,0,84,75
2,371894, Note_off_c,0,66,64
2,371896, Note_off_c,0,84,64
2,371898, Note_off_c,0,93,64
2,371902, Note_off_c,0,60,64
2,371916, Note_off_c,0,62,64
2,371950, Note_off_c,0,69,64
2,371950, Note_on_c,0,82,101
2,372034, Note_on_c,0,94,43
2,372034, Note_on_c,0,86,39
2,372068, Note_off_c,0,82,64
2,372118, Note_off_c,0,86,64
2,372138, Note_off_c,0,94,64
2,372146, Note_on_c,0,66,61
2,372152, Note_on_c,0,69,74
2,372152, Note_on_c,0,60,59
2,372154, Note_on_c,0,62,60
2,372156, Note_on_c,0,84,104
2,372190, Note_off_c,0,66,64
2,372192, Note_off_c,0,69,64
2,372198, Note_off_c,0,62,64
2,372216, Note_off_c,0,60,64
2,372250, Note_on_c,0,96,96
2,372250, Note_on_c,0,87,69
2,372256, Note_off_c,0,84,64
2,372336, Note_off_c,0,87,64
2,372360, Control_c,0,64,0
2,372396, Note_off_c,0,96,64
2,372400, Note_on_c,0,84,109
2,372404, Note_on_c,0,58,86
2,372406, Note_on_c,0,46,90
2,372464, Note_off_c,0,58,64
2,372466, Note_off_c,0,46,64
2,372498, Note_on_c,0,87,65
2,372498, Note_on_c,0,96,70
2,372506, Control_c,0,64,127
2,372512, Note_off_c,0,84,64
2,372582, Note_off_c,0,96,64
2,372600, Note_off_c,0,87,64
2,372640, Note_on_c,0,67,83
2,372648, Note_on_c,0,62,74
2,372650, Note_on_c,0,82,79
2,372654, Note_on_c,0,55,63
2,372668, Note_off_c,0,67,64
2,372678, Note_off_c,0,62,64
2,372698, Note_off_c,0,55,64
2,372732, Note_on_c,0,94,68
2,372738, Note_on_c,0,86,52
2,372744, Note_off_c,0,82,64
2,372862, Note_off_c,0,86,64
2,372874, Note_off_c,0,94,64
2,372876, Control_c,0,64,0
2,372880, Note_on_c,0,82,93
2,372890, Note_on_c,0,60,86
2,372890, Note_on_c,0,48,87
2,372974, Note_off_c,0,48,64
2,372984, Note_on_c,0,94,66
2,372990, Note_off_c,0,60,64
2,372994, Note_on_c,0,86,52
2,372998, Control_c,0,64,127
2,373014, Note_off_c,0,82,64
2,373084, Note_off_c,0,94,64
2,373092, Note_off_c,0,86,64
2,373096, Note_on_c,0,67,81
2,373100, Note_on_c,0,63,71
2,373104, Note_on_c,0,81,85
2,373112, Note_on_c,0,57,57
2,373134, Note_off_c,0,67,64
2,373148, Note_off_c,0,63,64
2,373166, Note_off_c,0,57,64
2,373182, Note_on_c,0,84,76
2,373192, Note_off_c,0,81,64
2,373192, Note_on_c,0,93,80
2,373264, Note_off_c,0,84,64
2,373268, Control_c,0,64,0
2,373270, Note_off_c,0,93,64
2,373298, Note_on_c,0,81,87
2,373300, Note_on_c,0,50,103
2,373302, Note_on_c,0,62,91
2,373346, Note_off_c,0,50,64
2,373356, Note_off_c,0,62,64
2,373370, Note_on_c,0,84,53
2,373382, Note_on_c,0,93,61
2,373392, Control_c,0,64,127
2,373412, Note_off_c,0,81,64
2,373442, Note_off_c,0,93,64
2,373444, Note_off_c,0,84,64
2,373488, Note_on_c,0,70,77
2,373494, Note_on_c,0,62,57
2,373496, Note_on_c,0,79,74
2,373496, Note_on_c,0,67,58
2,373528, Note_off_c,0,70,64
2,373534, Note_off_c,0,67,64
2,373538, Note_off_c,0,62,64
2,373564, Note_on_c,0,91,78
2,373592, Note_off_c,0,79,64
2,373614, Note_off_c,0,91,64
2,373666, Note_on_c,0,79,61
2,373666, Note_on_c,0,48,37
2,373668, Note_on_c,0,60,55
2,373714, Note_off_c,0,60,64
2,373722, Note_off_c,0,48,64
2,373746, Note_on_c,0,91,84
2,373752, Note_on_c,0,82,67
2,373758, Note_off_c,0,79,64
2,373800, Note_off_c,0,91,64
2,373838, Note_off_c,0,82,64
2,373852, Note_on_c,0,69,69
2,373854, Note_on_c,0,62,59
2,373854, Note_on_c,0,60,55
2,373854, Note_on_c,0,66,59
2,373860, Note_on_c,0,74,80
2,373886, Note_off_c,0,69,64
2,373888, Note_off_c,0,74,64
2,373888, Note_off_c,0,62,64
2,373890, Note_off_c,0,66,64
2,373902, Note_off_c,0,60,64
2,373904, Note_on_c,0,86,73
2,373924, Note_on_c,0,78,27
2,373978, Note_off_c,0,78,64
2,373984, Note_off_c,0,86,64
2,374032, Control_c,0,64,0
2,374044, Note_on_c,0,58,92
2,374048, Note_on_c,0,46,97
2,374128, Note_off_c,0,46,64
2,374136, Note_off_c,0,58,64
2,374142, Note_on_c,0,82,78
2,374166, Control_c,0,64,127
2,374232, Note_off_c,0,82,64
2,374236, Note_on_c,0,67,94
2,374236, Note_on_c,0,94,85
2,374240, Note_on_c,0,86,74
2,374246, Note_on_c,0,62,67
2,374248, Note_on_c,0,55,69
2,374264, Note_off_c,0,67,64
2,374280, Note_off_c,0,62,64
2,374300, Note_off_c,0,55,64
2,374314, Note_on_c,0,82,68
2,374336, Note_off_c,0,86,64
2,374352, Note_off_c,0,94,64
2,374392, Note_off_c,0,82,64
2,374400, Control_c,0,64,0
2,374420, Note_on_c,0,94,75
2,374422, Note_on_c,0,48,100
2,374426, Note_on_c,0,60,97
2,374428, Note_on_c,0,85,82
2,374448, Note_off_c,0,48,64
2,374458, Note_off_c,0,60,64
2,374492, Note_on_c,0,82,72
2,374522, Control_c,0,64,127
2,374526, Note_off_c,0,94,64
2,374536, Note_off_c,0,82,64
2,374538, Note_off_c,0,85,64
2,374600, Note_on_c,0,63,79
2,374600, Note_on_c,0,67,81
2,374606, Note_on_c,0,93,95
2,374608, Note_on_c,0,57,68
2,374608, Note_on_c,0,84,80
2,374634, Note_off_c,0,67,64
2,374640, Note_off_c,0,63,64
2,374654, Note_off_c,0,57,64
2,374664, Note_on_c,0,81,67
2,374694, Note_off_c,0,93,64
2,374700, Note_off_c,0,84,64
2,374748, Note_off_c,0,81,64
2,374768, Control_c,0,64,0
2,374776, Note_on_c,0,93,101
2,374780, Note_on_c,0,84,55
2,374786, Note_on_c,0,50,107
2,374786, Note_on_c,0,62,95
2,374848, Note_on_c,0,81,74
2,374852, Note_off_c,0,50,64
2,374864, Note_off_c,0,62,64
2,374876, Note_off_c,0,93,64
2,374880, Control_c,0,64,127
2,374886, Note_off_c,0,84,64
2,374920, Note_off_c,0,81,64
2,374964, Note_on_c,0,62,51
2,374968, Note_on_c,0,70,75
2,374968, Note_on_c,0,67,62
2,374968, Note_on_c,0,91,97
2,374974, Note_on_c,0,82,77
2,375034, Note_off_c,0,70,64
2,375036, Note_off_c,0,67,64
2,375048, Note_off_c,0,62,64
2,375056, Note_off_c,0,91,64
2,375058, Note_on_c,0,79,78
2,375064, Note_off_c,0,82,64
2,375128, Note_off_c,0,79,64
2,375150, Control_c,0,64,0
2,375154, Note_on_c,0,82,83
2,375156, Note_on_c,0,91,100
2,375160, Note_on_c,0,60,106
2,375160, Note_on_c,0,48,105
2,375216, Note_off_c,0,48,64
2,375224, Note_off_c,0,60,64
2,375228, Note_on_c,0,79,85
2,375248, Control_c,0,64,127
2,375250, Note_off_c,0,91,64
2,375284, Note_off_c,0,82,64
2,375302, Note_off_c,0,79,64
2,375342, Note_on_c,0,66,72
2,375344, Note_on_c,0,62,57
2,375344, Note_on_c,0,60,72
2,375344, Note_on_c,0,69,71
2,375368, Note_on_c,0,86,91
2,375376, Note_on_c,0,78,81
2,375378, Note_off_c,0,69,64
2,375378, Note_off_c,0,62,64
2,375384, Note_off_c,0,60,64
2,375386, Note_off_c,0,66,64
2,375456, Note_on_c,0,74,82
2,375510, Note_off_c,0,78,64
2,375514, Note_off_c,0,74,64
2,375558, Note_off_c,0,86,64
2,375592, Control_c,0,64,0
2,375612, Note_on_c,0,58,101
2,375616, Note_on_c,0,46,101
2,375734, Note_off_c,0,46,64
2,375740, Note_off_c,0,58,64
2,375740, Control_c,0,64,127
2,375760, Note_on_c,0,86,82
2,375808, Note_off_c,0,86,64
2,375864, Note_on_c,0,94,89
2,375868, Note_on_c,0,98,111
2,375870, Note_on_c,0,91,86
2,375974, Note_on_c,0,86,78
2,376008, Note_off_c,0,86,64
2,376008, Note_off_c,0,98,64
2,376016, Note_off_c,0,91,64
2,376032, Note_off_c,0,94,64
2,376078, Note_on_c,0,79,86
2,376080, Note_on_c,0,86,72
2,376082, Note_on_c,0,82,76
2,376160, Note_off_c,0,86,64
2,376162, Note_off_c,0,82,64
2,376176, Note_on_c,0,74,75
2,376184, Note_off_c,0,79,64
2,376244, Note_off_c,0,74,64
2,376280, Note_on_c,0,86,85
2,376280, Note_on_c,0,82,88
2,376282, Note_on_c,0,79,78
2,376376, Note_on_c,0,74,64
2,376384, Note_off_c,0,79,64
2,376384, Note_off_c,0,86,64
2,376392, Note_off_c,0,82,64
2,376408, Note_off_c,0,74,64
2,376464, Note_on_c,0,74,60
2,376466, Note_on_c,0,67,78
2,376470, Note_on_c,0,70,69
2,376506, Note_off_c,0,74,64
2,376544, Note_on_c,0,62,78
2,376552, Note_off_c,0,70,64
2,376560, Note_off_c,0,67,64
2,376576, Note_off_c,0,62,64
2,376648, Note_on_c,0,74,92
2,376656, Note_on_c,0,70,70
2,376656, Note_on_c,0,67,67
2,376718, Note_on_c,0,62,88
2,376732, Note_off_c,0,67,64
2,376738, Note_off_c,0,74,64
2,376746, Note_off_c,0,62,64
2,376758, Note_off_c,0,70,64
2,376816, Note_on_c,0,62,59
2,376824, Note_on_c,0,55,82
2,376824, Note_on_c,0,58,65
2,376854, Note_off_c,0,62,64
2,376902, Note_on_c,0,50,83
2,376912, Note_off_c,0,58,64
2,376922, Note_off_c,0,55,64
2,376940, Note_off_c,0,50,64
2,377014, Note_on_c,0,62,88
2,377018, Note_on_c,0,55,45
2,377020, Note_on_c,0,58,68
2,377088, Note_off_c,0,55,64
2,377088, Note_on_c,0,50,95
2,377148, Note_off_c,0,58,64
2,377148, Note_off_c,0,62,64
2,377176, Note_off_c,0,50,64
2,377178, Control_c,0,64,0
2,377182, Note_on_c,0,42,98
2,377186, Note_on_c,0,30,92
2,377232, Note_off_c,0,42,64
2,377236, Note_off_c,0,30,64
2,377272, Note_on_c,0,43,92
2,377276, Note_on_c,0,31,88
2,377302, Control_c,0,64,127
2,377334, Note_off_c,0,43,64
2,377336, Note_off_c,0,31,64
2,377374, Note_on_c,0,58,64
2,377376, Note_on_c,0,55,72
2,377376, Note_on_c,0,64,78
2,377408, Note_off_c,0,64,64
2,377458, Note_on_c,0,50,85
2,377488, Note_off_c,0,55,64
2,377520, Note_off_c,0,58,64
2,377534, Control_c,0,64,0
2,377542, Note_off_c,0,50,64
2,377552, Note_on_c,0,49,99
2,377556, Note_on_c,0,37,95
2,377596, Note_off_c,0,37,64
2,377640, Note_on_c,0,50,94
2,377640, Note_on_c,0,38,90
2,377642, Note_off_c,0,49,64
2,377656, Control_c,0,64,127
2,377708, Note_off_c,0,50,64
2,377736, Note_off_c,0,38,64
2,377736, Note_on_c,0,58,67
2,377736, Note_on_c,0,64,85
2,377742, Note_on_c,0,55,75
2,377768, Note_off_c,0,64,64
2,377824, Note_on_c,0,50,88
2,377896, Note_off_c,0,58,64
2,377902, Note_off_c,0,55,64
2,377904, Control_c,0,64,0
2,377918, Note_on_c,0,42,103
2,377918, Note_on_c,0,30,99
2,377932, Note_off_c,0,50,64
2,377968, Note_off_c,0,30,64
2,377988, Note_off_c,0,42,64
2,378006, Note_on_c,0,43,97
2,378016, Note_on_c,0,31,69
2,378050, Control_c,0,64,127
2,378084, Note_off_c,0,31,64
2,378100, Note_off_c,0,43,64
2,378110, Note_on_c,0,55,79
2,378116, Note_on_c,0,58,69
2,378120, Note_on_c,0,64,71
2,378156, Note_off_c,0,64,64
2,378196, Note_on_c,0,50,89
2,378272, Note_off_c,0,55,64
2,378300, Note_off_c,0,58,64
2,378308, Note_on_c,0,49,108
2,378310, Note_off_c,0,50,64
2,378314, Note_on_c,0,37,100
2,378320, Control_c,0,64,0
2,378424, Note_off_c,0,37,64
2,378432, Note_off_c,0,49,64
2,378434, Note_on_c,0,50,92
2,378442, Note_on_c,0,38,88
2,378468, Control_c,0,64,127
2,378552, Note_off_c,0,50,64
2,378562, Note_on_c,0,58,74
2,378568, Note_on_c,0,55,83
2,378568, Note_on_c,0,64,85
2,378582, Note_off_c,0,38,64
2,378632, Note_off_c,0,64,64
2,378690, Note_on_c,0,50,91
2,378828, Note_off_c,0,55,64
2,378912, Note_off_c,0,50,64
2,378912, Note_off_c,0,58,64
2,378944, Note_on_c,0,26,110
2,378950, Note_on_c,0,38,102
2,378998, Control_c,0,64,0
2,379374, Note_on_c,0,55,84
2,379402, Control_c,0,64,127
2,379526, Note_on_c,0,56,75
2,379534, Note_off_c,0,55,64
2,379616, Note_off_c,0,38,64
2,379630, Note_off_c,0,26,64
2,379638, Note_on_c,0,57,68
2,379650, Note_off_c,0,56,64
2,379732, Note_on_c,0,58,67
2,379744, Note_off_c,0,57,64
2,379824, Note_on_c,0,59,81
2,379844, Note_off_c,0,58,64
2,379912, Note_on_c,0,60,84
2,379944, Note_off_c,0,59,64
2,380000, Note_on_c,0,61,86
2,380032, Note_off_c,0,60,64
2,380086, Note_on_c,0,62,84
2,380104, Note_off_c,0,61,64
2,380160, Note_off_c,0,62,64
2,380170, Note_on_c,0,63,87
2,380254, Note_on_c,0,64,89
2,380256, Note_off_c,0,63,64
2,380326, Note_on_c,0,65,83
2,380354, Note_off_c,0,64,64
2,380388, Note_on_c,0,66,79
2,380416, Note_off_c,0,65,64
2,380448, Note_on_c,0,64,87
2,380450, Note_on_c,0,58,50
2,380452, Note_on_c,0,61,63
2,380452, Note_on_c,0,55,73
2,380466, Note_on_c,0,67,89
2,380474, Note_off_c,0,66,64
2,380544, Note_on_c,0,68,81
2,380568, Note_off_c,0,67,64
2,380602, Note_off_c,0,55,64
2,380606, Note_on_c,0,69,78
2,380622, Note_off_c,0,61,64
2,380628, Note_off_c,0,64,64
2,380640, Note_off_c,0,58,64
2,380650, Note_off_c,0,68,64
2,380688, Note_on_c,0,70,73
2,380736, Note_off_c,0,69,64
2,380770, Note_off_c,0,70,64
2,380770, Note_on_c,0,71,79
2,380802, Note_on_c,0,61,67
2,380804, Note_on_c,0,64,96
2,380806, Note_on_c,0,58,62
2,380808, Note_on_c,0,55,85
2,380842, Note_off_c,0,64,64
2,380844, Note_off_c,0,61,64
2,380848, Note_off_c,0,55,64
2,380850, Note_on_c,0,72,84
2,380872, Note_off_c,0,58,64
2,380874, Note_off_c,0,71,64
2,380928, Note_on_c,0,73,82
2,380944, Note_off_c,0,72,64
2,380944, Note_on_c,0,66,101
2,380948, Note_on_c,0,61,47
2,380950, Note_on_c,0,58,42
2,380956, Note_on_c,0,55,84
2,381016, Note_on_c,0,74,93
2,381020, Note_off_c,0,73,64
2,381088, Note_on_c,0,75,79
2,381100, Note_off_c,0,74,64
2,381150, Note_off_c,0,61,64
2,381158, Note_on_c,0,76,80
2,381170, Note_off_c,0,75,64
2,381188, Note_off_c,0,58,64
2,381210, Note_off_c,0,55,64
2,381238, Note_on_c,0,77,83
2,381280, Note_off_c,0,66,64
2,381282, Note_off_c,0,76,64
2,381296, Note_on_c,0,78,84
2,381324, Note_off_c,0,77,64
2,381372, Note_off_c,0,78,64
2,381378, Note_on_c,0,64,108
2,381382, Note_on_c,0,79,94
2,381384, Note_on_c,0,58,71
2,381386, Note_on_c,0,55,87
2,381386, Note_on_c,0,61,82
2,381442, Note_on_c,0,80,87
2,381486, Note_off_c,0,55,64
2,381488, Note_off_c,0,79,64
2,381494, Note_off_c,0,58,64
2,381496, Note_off_c,0,61,64
2,381506, Note_off_c,0,64,64
2,381512, Note_on_c,0,81,87
2,381546, Note_off_c,0,80,64
2,381592, Note_on_c,0,82,71
2,381632, Note_off_c,0,81,64
2,381660, Note_off_c,0,82,64
2,381680, Note_on_c,0,83,98
2,381690, Note_on_c,0,61,67
2,381692, Note_on_c,0,64,92
2,381696, Note_on_c,0,55,81
2,381700, Note_on_c,0,58,60
2,381724, Note_off_c,0,64,64
2,381732, Note_off_c,0,61,64
2,381736, Note_off_c,0,55,64
2,381758, Note_on_c,0,84,78
2,381760, Note_off_c,0,58,64
2,381776, Note_off_c,0,83,64
2,381812, Note_on_c,0,66,102
2,381814, Note_on_c,0,85,86
2,381820, Note_on_c,0,58,53
2,381820, Note_on_c,0,61,60
2,381824, Note_on_c,0,55,73
2,381838, Note_off_c,0,84,64
2,381888, Note_off_c,0,85,64
2,381888, Note_on_c,0,86,91
2,381956, Note_on_c,0,87,85
2,381980, Note_off_c,0,86,64
2,382022, Note_off_c,0,61,64
2,382032, Note_off_c,0,87,64
2,382032, Note_on_c,0,88,91
2,382080, Note_off_c,0,58,64
2,382108, Note_on_c,0,89,84
2,382112, Note_off_c,0,55,64
2,382128, Note_off_c,0,66,64
2,382152, Note_off_c,0,88,64
2,382160, Note_on_c,0,90,84
2,382210, Note_off_c,0,89,64
2,382234, Note_off_c,0,90,64
2,382234, Note_on_c,0,64,110
2,382234, Note_on_c,0,61,92
2,382236, Note_on_c,0,58,78
2,382244, Note_on_c,0,55,91
2,382248, Note_on_c,0,91,92
2,382312, Note_on_c,0,92,78
2,382332, Note_off_c,0,55,64
2,382348, Note_off_c,0,61,64
2,382350, Note_off_c,0,58,64
2,382352, Note_off_c,0,91,64
2,382364, Note_off_c,0,64,64
2,382374, Note_on_c,0,93,87
2,382440, Note_off_c,0,92,64
2,382452, Note_on_c,0,94,74
2,382498, Note_off_c,0,93,64
2,382524, Note_off_c,0,94,64
2,382532, Note_on_c,0,95,91
2,382568, Note_on_c,0,50,100
2,382586, Control_c,0,64,0
2,382630, Note_on_c,0,57,84
2,382632, Note_on_c,0,96,94
2,382680, Note_off_c,0,95,64
2,382722, Note_on_c,0,60,84
2,382732, Note_on_c,0,97,81
2,382734, Control_c,0,64,127
2,382782, Note_off_c,0,96,64
2,382876, Note_on_c,0,99,92
2,382888, Note_on_c,0,67,115
2,382910, Note_off_c,0,97,64
2,382980, Note_on_c,0,98,94
2,383024, Note_off_c,0,99,64
2,383084, Note_on_c,0,101,77
2,383088, Note_off_c,0,98,64
2,383154, Note_on_c,0,99,73
2,383216, Note_on_c,0,98,90
2,383224, Note_off_c,0,101,64
2,383264, Note_off_c,0,99,64
2,383268, Note_off_c,0,98,64
2,383276, Note_on_c,0,96,80
2,383350, Note_off_c,0,96,64
2,383350, Note_on_c,0,95,84
2,383410, Note_on_c,0,98,95
2,383424, Note_off_c,0,95,64
2,383468, Note_on_c,0,96,87
2,383518, Note_on_c,0,94,75
2,383544, Note_off_c,0,98,64
2,383592, Note_on_c,0,93,64
2,383594, Note_off_c,0,96,64
2,383630, Note_off_c,0,94,64
2,383634, Note_off_c,0,93,64
2,383634, Note_on_c,0,91,74
2,383698, Note_on_c,0,90,79
2,383718, Note_off_c,0,91,64
2,383752, Note_off_c,0,90,64
2,383766, Note_on_c,0,93,68
2,383822, Note_on_c,0,91,88
2,383864, Note_on_c,0,90,67
2,383880, Note_off_c,0,93,64
2,383916, Note_on_c,0,87,73
2,383920, Note_off_c,0,91,64
2,383942, Note_off_c,0,90,64
2,383960, Note_on_c,0,86,72
2,383980, Note_off_c,0,87,64
2,383996, Note_off_c,0,86,64
2,384024, Note_on_c,0,87,73
2,384090, Note_on_c,0,86,80
2,384120, Note_off_c,0,87,64
2,384134, Note_off_c,0,86,64
2,384144, Note_on_c,0,89,76
2,384192, Note_on_c,0,87,53
2,384226, Note_off_c,0,89,64
2,384244, Note_on_c,0,86,75
2,384288, Note_off_c,0,86,64
2,384288, Note_off_c,0,87,64
2,384292, Note_on_c,0,84,83
2,384338, Note_off_c,0,84,64
2,384362, Note_on_c,0,83,101
2,384398, Note_off_c,0,83,64
2,384422, Note_on_c,0,86,64
2,384474, Note_on_c,0,84,82
2,384532, Note_on_c,0,82,66
2,384534, Note_off_c,0,86,64
2,384584, Note_off_c,0,84,64
2,384596, Note_on_c,0,81,75
2,384624, Note_off_c,0,67,64
2,384632, Note_off_c,0,81,64
2,384636, Note_off_c,0,82,64
2,384646, Note_on_c,0,79,76
2,384714, Note_on_c,0,78,80
2,384720, Note_off_c,0,79,64
2,384748, Note_off_c,0,50,64
2,384752, Note_on_c,0,66,102
2,384768, Note_on_c,0,81,60
2,384784, Note_off_c,0,57,64
2,384794, Note_off_c,0,78,64
2,384794, Note_off_c,0,60,64
2,384820, Note_off_c,0,66,64
2,384832, Note_on_c,0,79,92
2,384880, Note_on_c,0,78,58
2,384896, Note_off_c,0,81,64
2,384932, Note_on_c,0,75,77
2,384936, Note_off_c,0,79,64
2,384968, Note_off_c,0,78,64
2,384982, Note_on_c,0,74,76
2,385008, Note_off_c,0,75,64
2,385030, Note_off_c,0,74,64
2,385042, Note_on_c,0,75,72
2,385112, Note_on_c,0,74,88
2,385136, Note_off_c,0,75,64
2,385178, Note_on_c,0,77,87
2,385200, Note_off_c,0,74,64
2,385232, Note_on_c,0,75,69
2,385280, Note_on_c,0,74,72
2,385284, Note_off_c,0,77,64
2,385328, Note_off_c,0,75,64
2,385328, Note_on_c,0,72,71
2,385352, Note_off_c,0,74,64
2,385372, Note_off_c,0,72,64
2,385400, Note_on_c,0,71,81
2,385446, Note_off_c,0,71,64
2,385448, Note_on_c,0,74,59
2,385504, Note_on_c,0,72,81
2,385554, Note_on_c,0,70,67
2,385560, Note_off_c,0,74,64
2,385612, Note_on_c,0,69,72
2,385618, Note_off_c,0,72,64
2,385664, Note_off_c,0,70,64
2,385664, Note_on_c,0,67,77
2,385680, Note_off_c,0,69,64
2,385726, Note_on_c,0,66,82
2,385736, Note_off_c,0,67,64
2,385784, Note_on_c,0,63,76
2,385832, Note_on_c,0,62,80
2,385856, Note_off_c,0,66,64
2,385872, Note_on_c,0,60,80
2,385874, Note_off_c,0,62,64
2,385876, Note_off_c,0,63,64
2,385936, Note_on_c,0,58,83
2,385964, Note_off_c,0,60,64
2,386008, Note_on_c,0,57,84
2,386050, Note_off_c,0,58,64
2,386058, Note_on_c,0,55,86
2,386068, Note_off_c,0,57,64
2,386120, Note_on_c,0,54,92
2,386144, Note_off_c,0,55,64
2,386170, Note_on_c,0,51,80
2,386228, Note_on_c,0,50,87
2,386242, Note_off_c,0,54,64
2,386280, Note_off_c,0,51,64
2,386280, Note_on_c,0,48,75
2,386286, Note_off_c,0,50,64
2,386334, Note_on_c,0,46,81
2,386348, Note_off_c,0,48,64
2,386404, Note_on_c,0,45,88
2,386456, Note_off_c,0,46,64
2,386472, Note_on_c,0,43,92
2,386482, Note_off_c,0,45,64
2,386528, Note_on_c,0,42,83
2,386558, Note_off_c,0,43,64
2,386584, Note_on_c,0,39,81
2,386640, Note_off_c,0,42,64
2,386648, Note_on_c,0,38,86
2,386696, Note_off_c,0,39,64
2,386702, Note_off_c,0,38,64
2,386708, Note_on_c,0,36,85
2,386766, Note_on_c,0,34,87
2,386790, Note_off_c,0,36,64
2,386832, Note_on_c,0,33,101
2,386892, Note_off_c,0,34,64
2,386894, Note_on_c,0,31,119
2,386912, Note_off_c,0,33,64
2,387110, Control_c,0,64,0
2,388362, Control_c,0,64,127
2,388426, Note_on_c,0,45,37
2,388428, Note_on_c,0,33,45
2,388472, Note_off_c,0,31,64
2,388524, Note_on_c,0,34,48
2,388526, Note_off_c,0,45,64
2,388530, Note_on_c,0,46,48
2,388552, Note_off_c,0,33,64
2,388600, Note_off_c,0,46,64
2,388612, Note_on_c,0,48,49
2,388614, Note_on_c,0,36,45
2,388648, Note_off_c,0,34,64
2,388670, Note_off_c,0,36,64
2,388674, Note_on_c,0,38,66
2,388676, Note_on_c,0,50,73
2,388678, Note_off_c,0,48,64
2,388752, Note_off_c,0,50,64
2,388754, Note_on_c,0,52,80
2,388758, Note_on_c,0,40,73
2,388768, Note_off_c,0,38,64
2,388818, Note_on_c,0,54,81
2,388824, Note_on_c,0,42,68
2,388842, Note_off_c,0,40,64
2,388848, Note_off_c,0,52,64
2,388874, Note_off_c,0,54,64
2,388876, Note_on_c,0,55,81
2,388878, Note_off_c,0,42,64
2,388878, Note_on_c,0,43,78
2,388934, Note_off_c,0,43,64
2,388936, Note_on_c,0,45,78
2,388938, Note_on_c,0,57,83
2,388964, Note_off_c,0,55,64
2,388986, Note_on_c,0,46,74
2,388988, Note_on_c,0,58,72
2,389022, Note_off_c,0,57,64
2,389034, Note_on_c,0,48,80
2,389034, Note_on_c,0,60,76
2,389046, Note_off_c,0,45,64
2,389054, Note_off_c,0,58,64
2,389090, Note_on_c,0,50,87
2,389090, Note_on_c,0,62,94
2,389092, Note_off_c,0,46,64
2,389104, Note_off_c,0,48,64
2,389118, Note_off_c,0,60,64
2,389156, Note_on_c,0,52,97
2,389160, Note_on_c,0,64,78
2,389180, Note_off_c,0,50,64
2,389200, Note_off_c,0,62,64
2,389206, Note_on_c,0,66,73
2,389208, Note_on_c,0,54,86
2,389230, Note_off_c,0,64,64
2,389234, Note_off_c,0,52,64
2,389268, Note_off_c,0,66,64
2,389268, Note_on_c,0,67,73
2,389272, Note_on_c,0,55,88
2,389288, Note_off_c,0,54,64
2,389336, Note_off_c,0,55,64
2,389336, Note_on_c,0,69,80
2,389340, Note_on_c,0,57,81
2,389360, Note_off_c,0,67,64
2,389394, Note_on_c,0,58,72
2,389400, Note_on_c,0,70,75
2,389426, Note_off_c,0,69,64
2,389440, Note_on_c,0,60,81
2,389440, Note_on_c,0,72,72
2,389448, Note_off_c,0,57,64
2,389466, Note_off_c,0,70,64
2,389496, Note_off_c,0,58,64
2,389508, Note_on_c,0,74,86
2,389512, Note_off_c,0,60,64
2,389512, Note_on_c,0,62,73
2,389542, Note_off_c,0,72,64
2,389574, Note_on_c,0,76,57
2,389578, Note_on_c,0,64,78
2,389586, Note_off_c,0,62,64
2,389616, Note_off_c,0,74,64
2,389644, Note_on_c,0,78,75
2,389650, Note_on_c,0,66,60
2,389664, Note_off_c,0,64,64
2,389704, Note_off_c,0,76,64
2,389706, Note_on_c,0,79,109
2,389708, Note_on_c,0,67,102
2,389714, Note_off_c,0,66,64
2,389758, Note_off_c,0,78,64
2,389768, Note_off_c,0,67,64
2,389938, Note_off_c,0,79,64
2,390010, Control_c,0,64,0
2,391066, Note_on_c,0,58,36
2,391070, Note_on_c,0,55,39
2,391070, Note_on_c,0,43,31
2,391070, Note_on_c,0,50,41
2,391070, Note_on_c,0,31,30
2,391412, Control_c,0,64,127
2,391564, Note_off_c,0,43,64
2,391608, Note_off_c,0,55,64
2,391610, Note_off_c,0,31,64
2,391670, Note_off_c,0,50,64
2,391678, Note_off_c,0,58,64
2,392600, Note_on_c,0,55,17
2,392600, Note_on_c,0,58,19
2,392602, Note_on_c,0,50,15
2,392602, Note_on_c,0,43,22
2,392606, Note_on_c,0,31,14
2,392744, Note_off_c,0,50,64
2,392746, Note_off_c,0,55,64
2,392754, Note_off_c,0,31,64
2,392754, Note_off_c,0,43,64
2,392762, Note_off_c,0,58,64
2,393140, Note_on_c,0,50,7
2,393142, Note_on_c,0,58,20
2,393142, Note_on_c,0,43,13
2,393144, Note_on_c,0,55,15
2,393144, Note_on_c,0,31,12
2,393396, Note_off_c,0,43,64
2,393504, Note_off_c,0,31,64
2,393816, Note_off_c,0,50,64
2,394712, Note_off_c,0,55,64
2,394774, Note_off_c,0,58,64
2,395088, Control_c,0,64,0
2,395244, Note_on_c,0,50,104
2,395250, Note_on_c,0,38,94
2,395486, Note_off_c,0,50,64
2,395514, Note_on_c,0,55,100
2,395520, Note_on_c,0,43,97
2,395564, Note_off_c,0,38,64
2,395580, Control_c,0,64,127
2,395744, Note_on_c,0,57,99
2,395754, Note_on_c,0,45,95
2,395784, Note_off_c,0,55,64
2,395814, Note_off_c,0,43,64
2,395886, Control_c,0,64,0
2,395928, Note_on_c,0,60,105
2,395932, Note_on_c,0,48,101
2,395952, Note_off_c,0,45,64
2,395952, Note_off_c,0,57,64
2,396058, Control_c,0,64,127
2,396058, Note_on_c,0,58,92
2,396070, Note_on_c,0,46,93
2,396090, Note_off_c,0,60,64
2,396100, Note_off_c,0,48,64
2,396138, Note_off_c,0,46,64
2,396144, Note_off_c,0,58,64
2,396194, Note_on_c,0,58,93
2,396202, Note_on_c,0,46,93
2,396290, Note_off_c,0,46,64
2,396376, Note_off_c,0,58,64
2,396624, Control_c,0,64,0
2,397086, Note_on_c,0,46,97
2,397086, Note_on_c,0,31,116
2,397484, Control_c,0,64,127
2,398084, Note_on_c,0,48,57
2,398096, Note_off_c,0,46,64
2,398096, Note_on_c,0,33,65
2,398106, Note_off_c,0,31,64
2,398220, Note_on_c,0,50,75
2,398228, Note_on_c,0,34,58
2,398242, Note_off_c,0,48,64
2,398260, Note_off_c,0,33,64
2,398334, Note_on_c,0,52,81
2,398336, Note_on_c,0,36,65
2,398342, Note_off_c,0,50,64
2,398362, Note_off_c,0,34,64
2,398432, Note_on_c,0,54,80
2,398432, Note_on_c,0,38,75
2,398438, Note_off_c,0,36,64
2,398452, Note_off_c,0,52,64
2,398512, Note_off_c,0,38,64
2,398516, Note_on_c,0,40,97
2,398516, Note_on_c,0,55,80
2,398534, Note_off_c,0,54,64
2,398600, Note_on_c,0,42,69
2,398600, Note_on_c,0,57,81
2,398612, Note_off_c,0,55,64
2,398632, Note_off_c,0,40,64
2,398662, Note_on_c,0,58,70
2,398666, Note_on_c,0,43,73
2,398698, Note_off_c,0,57,64
2,398700, Note_off_c,0,42,64
2,398732, Note_on_c,0,60,79
2,398736, Note_on_c,0,45,72
2,398740, Note_off_c,0,43,64
2,398746, Note_off_c,0,58,64
2,398792, Note_on_c,0,62,97
2,398796, Note_on_c,0,46,82
2,398818, Note_off_c,0,60,64
2,398824, Note_off_c,0,45,64
2,398848, Note_on_c,0,64,81
2,398852, Note_on_c,0,48,75
2,398900, Note_off_c,0,46,64
2,398904, Note_off_c,0,62,64
2,398906, Note_on_c,0,50,97
2,398906, Note_on_c,0,66,79
2,398930, Note_off_c,0,64,64
2,398934, Note_off_c,0,48,64
2,398976, Note_on_c,0,52,100
2,398976, Note_on_c,0,67,90
2,398988, Note_off_c,0,66,64
2,398998, Note_off_c,0,50,64
2,399026, Note_on_c,0,54,94
2,399026, Note_on_c,0,69,83
2,399064, Note_off_c,0,67,64
2,399076, Note_on_c,0,55,85
2,399078, Note_off_c,0,52,64
2,399078, Note_on_c,0,70,79
2,399122, Note_on_c,0,57,88
2,399126, Note_on_c,0,72,75
2,399128, Note_off_c,0,70,64
2,399128, Note_off_c,0,54,64
2,399132, Note_off_c,0,69,64
2,399138, Note_off_c,0,55,64
2,399194, Note_on_c,0,58,76
2,399196, Note_on_c,0,74,100
2,399200, Note_off_c,0,57,64
2,399210, Note_off_c,0,72,64
2,399244, Note_on_c,0,60,89
2,399248, Note_on_c,0,76,71
2,399292, Note_on_c,0,78,83
2,399294, Note_off_c,0,74,64
2,399300, Note_off_c,0,58,64
2,399300, Note_on_c,0,62,92
2,399318, Note_off_c,0,76,64
2,399324, Note_off_c,0,60,64
2,399360, Note_off_c,0,78,64
2,399364, Note_on_c,0,79,98
2,399368, Note_on_c,0,64,91
2,399392, Note_off_c,0,62,64
2,399412, Note_on_c,0,81,89
2,399416, Note_on_c,0,66,79
2,399442, Note_off_c,0,79,64
2,399464, Note_on_c,0,67,84
2,399468, Note_off_c,0,64,64
2,399470, Note_on_c,0,82,83
2,399490, Note_off_c,0,81,64
2,399514, Note_off_c,0,66,64
2,399520, Note_on_c,0,84,94
2,399522, Note_on_c,0,69,79
2,399540, Note_off_c,0,82,64
2,399540, Note_off_c,0,67,64
2,399588, Note_on_c,0,86,87
2,399592, Note_on_c,0,70,77
2,399600, Note_off_c,0,69,64
2,399618, Note_off_c,0,84,64
2,399652, Note_on_c,0,88,72
2,399656, Note_on_c,0,72,60
2,399686, Note_off_c,0,86,64
2,399692, Note_off_c,0,70,64
2,399702, Note_on_c,0,90,81
2,399714, Note_off_c,0,72,64
2,399716, Note_on_c,0,74,87
2,399728, Note_off_c,0,88,64
2,399770, Note_off_c,0,90,64
2,399782, Note_on_c,0,91,85
2,399784, Note_on_c,0,76,75
2,399792, Note_off_c,0,74,64
2,399844, Note_on_c,0,78,87
2,399844, Note_on_c,0,93,79
2,399872, Note_off_c,0,76,64
2,399876, Note_off_c,0,91,64
2,399904, Note_on_c,0,94,103
2,399906, Note_on_c,0,79,113
2,399908, Note_off_c,0,93,64
2,399918, Note_off_c,0,78,64
2,399966, Note_off_c,0,79,64
2,400112, Note_off_c,0,94,64
2,400262, Control_c,0,64,0
2,401602, Note_on_c,0,58,37
2,401602, Note_on_c,0,62,50
2,401604, Note_on_c,0,50,35
2,401604, Note_on_c,0,31,39
2,401606, Note_on_c,0,55,44
2,401606, Note_on_c,0,43,34
2,401872, Control_c,0,64,127
2,402060, Note_off_c,0,43,64
2,402276, Note_off_c,0,55,64
2,402288, Note_off_c,0,62,64
2,402322, Note_off_c,0,58,64
2,402400, Note_off_c,0,31,64
2,402438, Note_off_c,0,50,64
2,403122, Note_on_c,0,62,35
2,403124, Note_on_c,0,58,21
2,403124, Note_on_c,0,55,12
2,403124, Note_on_c,0,50,14
2,403124, Note_on_c,0,43,22
2,403124, Note_on_c,0,31,20
2,403270, Note_off_c,0,55,64
2,403272, Note_off_c,0,43,64
2,403284, Note_off_c,0,31,64
2,403292, Note_off_c,0,58,64
2,403294, Note_off_c,0,50,64
2,403328, Note_off_c,0,62,64
2,403710, Note_on_c,0,31,12
2,403712, Note_on_c,0,62,19
2,403712, Note_on_c,0,43,14
2,403712, Note_on_c,0,58,9
2,403714, Note_on_c,0,50,8
2,403714, Note_on_c,0,55,8
2,403928, Note_off_c,0,43,64
2,404182, Note_off_c,0,50,64
2,405076, Note_off_c,0,55,64
2,405136, Note_off_c,0,31,64
2,405208, Note_off_c,0,58,64
2,405244, Note_off_c,0,62,64
2,405536, Control_c,0,64,0
2,405816, Note_on_c,0,62,100
2,405824, Note_on_c,0,50,81
2,406138, Note_on_c,0,67,103
2,406146, Note_on_c,0,55,91
2,406200, Note_off_c,0,62,64
2,406208, Note_off_c,0,50,64
2,406408, Note_on_c,0,70,93
2,406410, Note_on_c,0,58,84
2,406412, Note_off_c,0,67,64
2,406440, Note_off_c,0,55,64
2,406608, Note_off_c,0,58,64
2,406616, Note_on_c,0,63,87
2,406616, Note_on_c,0,75,98
2,406634, Note_off_c,0,70,64
2,406666, Control_c,0,64,127
2,406740, Note_off_c,0,75,64
2,406758, Note_off_c,0,63,64
2,406782, Note_on_c,0,74,106
2,406788, Note_on_c,0,62,98
2,406856, Note_off_c,0,62,64
2,406868, Note_off_c,0,74,64
2,406916, Note_on_c,0,74,108
2,406924, Note_on_c,0,62,84
2,406984, Control_c,0,64,0
2,407220, Control_c,0,64,127
2,407226, Note_off_c,0,62,64
2,407228, Note_off_c,0,74,64
2,407552, Control_c,0,64,0
2,408250, Note_on_c,0,100,97
2,408256, Note_on_c,0,34,92
2,408326, Control_c,0,64,127
2,408336, Note_on_c,0,88,110
2,408340, Note_on_c,0,46,85
2,408448, Note_off_c,0,46,64
2,408640, Note_off_c,0,88,64
2,408692, Note_off_c,0,34,64
2,408730, Note_off_c,0,100,64
2,409048, Note_on_c,0,99,108
2,409056, Note_on_c,0,35,115
2,409152, Note_on_c,0,87,101
2,409152, Note_on_c,0,47,101
2,409334, Control_c,0,64,0
2,409454, Note_off_c,0,47,64
2,409454, Note_off_c,0,35,64
2,409488, Note_off_c,0,87,64
2,409490, Note_off_c,0,99,64
2,409494, Control_c,0,64,127
2,409592, Note_on_c,0,36,104
2,409600, Note_on_c,0,98,117
2,409650, Note_on_c,0,86,100
2,409658, Note_on_c,0,48,88
2,409678, Control_c,0,64,0
2,409838, Control_c,0,64,127
2,409862, Note_off_c,0,48,64
2,409872, Note_off_c,0,98,64
2,409872, Note_off_c,0,36,64
2,409896, Note_off_c,0,86,64
2,409966, Note_on_c,0,37,97
2,409974, Note_on_c,0,97,102
2,409984, Control_c,0,64,0
2,410012, Note_on_c,0,85,101
2,410016, Note_on_c,0,49,103
2,410144, Control_c,0,64,127
2,410170, Note_off_c,0,49,64
2,410170, Note_off_c,0,37,64
2,410178, Note_off_c,0,85,64
2,410190, Note_off_c,0,97,64
2,410216, Note_on_c,0,38,94
2,410230, Note_on_c,0,96,102
2,410248, Note_on_c,0,84,115
2,410264, Note_on_c,0,50,103
2,410320, Note_off_c,0,38,64
2,410336, Note_off_c,0,96,64
2,410342, Note_off_c,0,50,64
2,410354, Note_off_c,0,84,64
2,410416, Note_on_c,0,51,102
2,410418, Note_on_c,0,83,119
2,410420, Note_on_c,0,95,106
2,410420, Note_on_c,0,39,91
2,410460, Note_on_c,0,84,14
2,410480, Note_off_c,0,83,64
2,410488, Note_off_c,0,95,64
2,410500, Note_off_c,0,84,64
2,410522, Note_off_c,0,51,64
2,410526, Note_off_c,0,39,64
2,410584, Note_on_c,0,82,104
2,410584, Note_on_c,0,94,99
2,410592, Note_on_c,0,40,111
2,410594, Note_on_c,0,52,103
2,410600, Control_c,0,64,0
2,410648, Note_on_c,0,50,9
2,410674, Note_off_c,0,40,64
2,410682, Note_off_c,0,50,64
2,410692, Note_off_c,0,52,64
2,410704, Note_off_c,0,94,64
2,410704, Note_off_c,0,82,64
2,410722, Control_c,0,64,127
2,410744, Note_on_c,0,93,103
2,410744, Note_on_c,0,41,106
2,410744, Note_on_c,0,53,115
2,410748, Note_on_c,0,81,104
2,410786, Note_off_c,0,53,64
2,410794, Note_off_c,0,41,64
2,410816, Note_off_c,0,81,64
2,410832, Note_off_c,0,93,64
2,410864, Note_on_c,0,54,102
2,410868, Note_on_c,0,80,108
2,410870, Note_on_c,0,92,99
2,410872, Note_on_c,0,42,90
2,410920, Note_off_c,0,42,64
2,410936, Note_off_c,0,80,64
2,410942, Note_off_c,0,92,64
2,410952, Note_off_c,0,54,64
2,410980, Control_c,0,64,0
2,411006, Note_on_c,0,55,112
2,411008, Note_on_c,0,91,110
2,411008, Note_on_c,0,43,110
2,411008, Note_on_c,0,79,115
2,411062, Note_off_c,0,91,64
2,411064, Note_off_c,0,55,64
2,411072, Note_off_c,0,43,64
2,411080, Note_off_c,0,79,64
2,411092, Control_c,0,64,127
2,411148, Note_on_c,0,54,101
2,411148, Note_on_c,0,78,103
2,411150, Note_on_c,0,90,98
2,411152, Note_on_c,0,42,96
2,411216, Note_off_c,0,54,64
2,411218, Note_off_c,0,78,64
2,411220, Note_off_c,0,42,64
2,411228, Note_off_c,0,90,64
2,411270, Note_on_c,0,89,103
2,411272, Note_on_c,0,41,108
2,411272, Note_on_c,0,53,117
2,411272, Note_on_c,0,77,102
2,411322, Note_off_c,0,77,64
2,411324, Note_off_c,0,89,64
2,411334, Note_off_c,0,53,64
2,411354, Note_off_c,0,41,64
2,411392, Note_on_c,0,76,101
2,411394, Note_on_c,0,88,108
2,411398, Note_on_c,0,40,112
2,411400, Note_on_c,0,52,102
2,411424, Note_off_c,0,88,64
2,411428, Note_off_c,0,40,64
2,411432, Note_off_c,0,52,64
2,411452, Note_off_c,0,76,64
2,411500, Note_on_c,0,75,105
2,411500, Note_on_c,0,87,97
2,411506, Note_on_c,0,51,99
2,411512, Note_on_c,0,39,96
2,411546, Note_off_c,0,39,64
2,411556, Note_off_c,0,75,64
2,411562, Note_off_c,0,51,64
2,411564, Note_off_c,0,87,64
2,411602, Note_on_c,0,50,105
2,411606, Note_on_c,0,38,103
2,411608, Note_on_c,0,86,106
2,411608, Note_on_c,0,74,105
2,411640, Note_off_c,0,86,64
2,411642, Note_off_c,0,38,64
2,411654, Note_off_c,0,74,64
2,411658, Note_off_c,0,50,64
2,411708, Note_on_c,0,49,103
2,411710, Note_on_c,0,85,102
2,411710, Note_on_c,0,73,103
2,411714, Note_on_c,0,37,99
2,411744, Note_off_c,0,37,64
2,411776, Note_off_c,0,85,64
2,411778, Note_off_c,0,49,64
2,411792, Note_off_c,0,73,64
2,411800, Note_on_c,0,48,98
2,411800, Note_on_c,0,36,106
2,411808, Note_on_c,0,84,107
2,411808, Note_on_c,0,72,100
2,411840, Note_off_c,0,72,64
2,411840, Note_off_c,0,48,64
2,411844, Note_off_c,0,84,64
2,411860, Note_off_c,0,36,64
2,411898, Note_on_c,0,47,96
2,411900, Note_on_c,0,35,108
2,411912, Note_on_c,0,71,107
2,411920, Note_on_c,0,83,108
2,411922, Note_off_c,0,35,64
2,411928, Note_off_c,0,47,64
2,411942, Note_off_c,0,83,64
2,411944, Note_off_c,0,71,64
2,411990, Note_on_c,0,46,97
2,412002, Note_on_c,0,34,88
2,412004, Note_on_c,0,70,97
2,412006, Note_on_c,0,82,97
2,412032, Note_off_c,0,34,64
2,412046, Note_off_c,0,46,64
2,412072, Note_off_c,0,82,64
2,412082, Note_off_c,0,70,64
2,412088, Note_on_c,0,45,93
2,412096, Note_on_c,0,33,97
2,412104, Note_on_c,0,81,105
2,412104, Note_on_c,0,69,97
2,412128, Note_off_c,0,81,64
2,412128, Note_off_c,0,33,64
2,412146, Note_off_c,0,69,64
2,412148, Note_off_c,0,45,64
2,412192, Note_on_c,0,44,99
2,412202, Note_on_c,0,32,86
2,412204, Note_on_c,0,68,94
2,412204, Note_on_c,0,80,97
2,412240, Note_off_c,0,32,64
2,412274, Note_off_c,0,44,64
2,412276, Note_off_c,0,80,64
2,412280, Note_off_c,0,68,64
2,412298, Note_on_c,0,67,111
2,412300, Note_on_c,0,79,113
2,412304, Note_on_c,0,43,108
2,412304, Note_on_c,0,31,111
2,412320, Control_c,0,64,0
2,412692, Note_off_c,0,31,64
2,412712, Note_off_c,0,67,64
2,412714, Control_c,0,64,127
2,412738, Note_off_c,0,43,64
2,412782, Note_off_c,0,79,64
2,413194, Note_on_c,0,55,105
2,413194, Note_on_c,0,91,101
2,413196, Note_on_c,0,94,103
2,413196, Note_on_c,0,62,98
2,413196, Note_on_c,0,86,102
2,413196, Note_on_c,0,67,107
2,413196, Note_on_c,0,82,109
2,413512, Note_off_c,0,55,64
2,413560, Note_off_c,0,67,64
2,413588, Note_off_c,0,62,64
2,413654, Note_off_c,0,94,64
2,413658, Note_off_c,0,91,64
2,413668, Note_off_c,0,82,64
2,413696, Note_off_c,0,86,64
2,414258, Note_on_c,0,55,113
2,414260, Note_on_c,0,43,110
2,414260, Note_on_c,0,31,114
2,414472, Control_c,0,64,0
2,415332, Control_c,0,64,127
2,415598, Note_off_c,0,43,64
2,435300, Note_off_c,0,55,3
2,435304, Note_off_c,0,31,3
2,435374, End_track,,,
