2,0, Start_track,,,
2,0, MIDI_port,0,,
2,0, Title_t," ""Pianoforte""",,
2,0, Control_c,0,0,0
2,0, Control_c,0,32,0
2,0, Program_c,0,0,
2,0, Control_c,0,7,124
2,0, Control_c,0,10,64
2,0, Control_c,0,91,49
2,9004, Control_c,0,64,24
2,9080, Control_c,0,64,72
2,9096, Control_c,0,64,104
2,9112, Control_c,0,64,127
2,9266, Control_c,0,91,127
2,9268, Control_c,0,64,56
2,9284, Control_c,0,64,0
2,9308, Note_on_c,0,56,77
2,9308, Note_on_c,0,61,75
2,9308, Note_on_c,0,53,82
2,9308, Note_on_c,0,65,92
2,9316, Note_on_c,0,37,70
2,9320, Note_on_c,0,49,67
2,9360, Control_c,0,64,72
2,9376, Control_c,0,64,127
2,9384, Note_on_c,0,53,0
2,9400, Note_on_c,0,37,0
2,9408, Note_on_c,0,56,0
2,9412, Note_on_c,0,49,0
2,9432, Note_on_c,0,61,0
2,9564, Note_on_c,0,65,0
2,9864, Note_on_c,0,77,96
2,9868, Note_on_c,0,68,76
2,9868, Note_on_c,0,73,72
2,9872, Note_on_c,0,65,82
2,9876, Note_on_c,0,61,61
2,9880, Note_on_c,0,49,70
2,9880, Note_on_c,0,56,54
2,9884, Note_on_c,0,53,56
2,9912, Note_on_c,0,53,0
2,9924, Note_on_c,0,49,0
2,9928, Note_on_c,0,65,0
2,9940, Note_on_c,0,68,0
2,9944, Note_on_c,0,61,0
2,9944, Note_on_c,0,56,0
2,9956, Note_on_c,0,73,0
2,9996, Note_on_c,0,77,0
2,10428, Note_on_c,0,101,93
2,10428, Note_on_c,0,97,77
2,10428, Note_on_c,0,92,75
2,10436, Note_on_c,0,89,84
2,10436, Note_on_c,0,85,60
2,10444, Note_on_c,0,80,58
2,10448, Note_on_c,0,77,60
2,10448, Note_on_c,0,73,65
2,10488, Note_on_c,0,77,0
2,10500, Note_on_c,0,85,0
2,10508, Note_on_c,0,80,0
2,10512, Note_on_c,0,89,0
2,10512, Note_on_c,0,101,0
2,10516, Note_on_c,0,73,0
2,10524, Note_on_c,0,97,0
2,10532, Note_on_c,0,92,0
2,11004, Control_c,0,64,40
2,11012, Note_on_c,0,56,78
2,11016, Note_on_c,0,65,94
2,11016, Note_on_c,0,61,76
2,11020, Note_on_c,0,53,87
2,11020, Control_c,0,64,0
2,11024, Note_on_c,0,37,70
2,11024, Note_on_c,0,49,71
2,11044, Note_on_c,0,44,54
2,11072, Note_on_c,0,44,0
2,11092, Note_on_c,0,53,0
2,11096, Note_on_c,0,37,0
2,11096, Note_on_c,0,49,0
2,11096, Control_c,0,64,56
2,11112, Control_c,0,64,127
2,11124, Note_on_c,0,56,0
2,11144, Note_on_c,0,61,0
2,11172, Note_on_c,0,65,0
2,11584, Note_on_c,0,77,96
2,11584, Note_on_c,0,68,70
2,11588, Note_on_c,0,65,78
2,11588, Note_on_c,0,73,65
2,11592, Note_on_c,0,61,55
2,11596, Note_on_c,0,49,61
2,11600, Note_on_c,0,56,45
2,11608, Note_on_c,0,53,48
2,11640, Note_on_c,0,53,0
2,11640, Note_on_c,0,56,0
2,11644, Note_on_c,0,65,0
2,11652, Note_on_c,0,49,0
2,11656, Note_on_c,0,68,0
2,11664, Note_on_c,0,61,0
2,11680, Note_on_c,0,73,0
2,11720, Note_on_c,0,77,0
2,12160, Note_on_c,0,101,92
2,12164, Note_on_c,0,89,82
2,12164, Note_on_c,0,97,76
2,12168, Note_on_c,0,85,62
2,12168, Note_on_c,0,92,77
2,12176, Note_on_c,0,80,47
2,12180, Note_on_c,0,73,44
2,12192, Note_on_c,0,77,46
2,12232, Note_on_c,0,77,0
2,12232, Note_on_c,0,85,0
2,12240, Note_on_c,0,101,0
2,12248, Note_on_c,0,80,0
2,12248, Note_on_c,0,73,0
2,12264, Note_on_c,0,89,0
2,12264, Note_on_c,0,97,0
2,12276, Note_on_c,0,92,0
2,12740, Control_c,0,64,88
2,12748, Note_on_c,0,65,94
2,12756, Note_on_c,0,56,73
2,12756, Note_on_c,0,53,82
2,12756, Note_on_c,0,61,73
2,12756, Control_c,0,64,0
2,12760, Note_on_c,0,37,70
2,12768, Note_on_c,0,44,66
2,12776, Note_on_c,0,49,60
2,12836, Note_on_c,0,37,0
2,12836, Note_on_c,0,53,0
2,12840, Note_on_c,0,49,0
2,12848, Note_on_c,0,44,0
2,12848, Control_c,0,64,88
2,12856, Note_on_c,0,56,0
2,12864, Control_c,0,64,127
2,12876, Note_on_c,0,61,0
2,12896, Note_on_c,0,65,0
2,13336, Note_on_c,0,77,100
2,13336, Note_on_c,0,68,73
2,13340, Note_on_c,0,73,71
2,13340, Note_on_c,0,65,82
2,13344, Note_on_c,0,61,56
2,13352, Note_on_c,0,49,55
2,13364, Note_on_c,0,56,58
2,13368, Note_on_c,0,53,56
2,13388, Note_on_c,0,49,0
2,13392, Note_on_c,0,65,0
2,13400, Note_on_c,0,53,0
2,13400, Note_on_c,0,56,0
2,13416, Note_on_c,0,68,0
2,13432, Note_on_c,0,61,0
2,13452, Note_on_c,0,73,0
2,13472, Note_on_c,0,77,0
2,13928, Note_on_c,0,101,96
2,13928, Note_on_c,0,92,77
2,13936, Note_on_c,0,97,75
2,13936, Note_on_c,0,89,83
2,13936, Note_on_c,0,85,58
2,13948, Note_on_c,0,73,50
2,13948, Note_on_c,0,80,49
2,13960, Note_on_c,0,77,49
2,13996, Note_on_c,0,77,0
2,14004, Note_on_c,0,85,0
2,14004, Note_on_c,0,89,0
2,14016, Note_on_c,0,73,0
2,14016, Note_on_c,0,101,0
2,14016, Note_on_c,0,80,0
2,14020, Note_on_c,0,92,0
2,14032, Note_on_c,0,97,0
2,14476, Control_c,0,64,104
2,14492, Control_c,0,64,24
2,14504, Control_c,0,64,0
2,14532, Note_on_c,0,65,94
2,14532, Note_on_c,0,56,73
2,14532, Note_on_c,0,61,71
2,14532, Note_on_c,0,53,85
2,14548, Note_on_c,0,49,71
2,14548, Note_on_c,0,37,75
2,14552, Note_on_c,0,44,63
2,14564, Note_on_c,0,41,63
2,14584, Control_c,0,64,40
2,14600, Note_on_c,0,41,0
2,14600, Control_c,0,64,127
2,14612, Note_on_c,0,37,0
2,14612, Note_on_c,0,53,0
2,14616, Note_on_c,0,49,0
2,14624, Note_on_c,0,56,0
2,14624, Note_on_c,0,44,0
2,14660, Note_on_c,0,61,0
2,14688, Note_on_c,0,65,0
2,15144, Note_on_c,0,49,60
2,15148, Note_on_c,0,77,97
2,15148, Note_on_c,0,68,73
2,15152, Note_on_c,0,56,59
2,15152, Note_on_c,0,65,82
2,15156, Note_on_c,0,61,55
2,15156, Note_on_c,0,73,65
2,15208, Note_on_c,0,49,0
2,15212, Note_on_c,0,65,0
2,15228, Note_on_c,0,56,0
2,15228, Note_on_c,0,68,0
2,15232, Note_on_c,0,61,0
2,15264, Note_on_c,0,73,0
2,15276, Note_on_c,0,77,0
2,15700, Note_on_c,0,101,94
2,15704, Note_on_c,0,92,75
2,15704, Note_on_c,0,89,85
2,15708, Note_on_c,0,97,75
2,15708, Note_on_c,0,85,59
2,15724, Note_on_c,0,80,55
2,15728, Note_on_c,0,73,58
2,15740, Note_on_c,0,77,58
2,15776, Note_on_c,0,80,0
2,15780, Note_on_c,0,85,0
2,15784, Note_on_c,0,77,0
2,15784, Note_on_c,0,101,0
2,15792, Note_on_c,0,89,0
2,15800, Note_on_c,0,73,0
2,15804, Note_on_c,0,97,0
2,15804, Note_on_c,0,92,0
2,16272, Control_c,0,64,72
2,16288, Note_on_c,0,63,90
2,16288, Control_c,0,64,0
2,16292, Note_on_c,0,51,88
2,16296, Note_on_c,0,54,74
2,16296, Note_on_c,0,58,71
2,16312, Note_on_c,0,49,74
2,16312, Note_on_c,0,37,70
2,16364, Note_on_c,0,51,0
2,16372, Note_on_c,0,37,0
2,16376, Note_on_c,0,49,0
2,16384, Control_c,0,64,127
2,16392, Note_on_c,0,54,0
2,16424, Note_on_c,0,58,0
2,16444, Note_on_c,0,63,0
2,16852, Note_on_c,0,75,95
2,16860, Note_on_c,0,63,78
2,16868, Note_on_c,0,66,71
2,16876, Note_on_c,0,70,64
2,16876, Note_on_c,0,54,68
2,16876, Note_on_c,0,58,66
2,16884, Note_on_c,0,46,70
2,16896, Note_on_c,0,51,63
2,16900, Note_on_c,0,70,0
2,16916, Note_on_c,0,63,0
2,16932, Note_on_c,0,51,0
2,16932, Note_on_c,0,66,0
2,16944, Note_on_c,0,54,0
2,16944, Note_on_c,0,46,0
2,16948, Note_on_c,0,58,0
2,16980, Note_on_c,0,75,0
2,17460, Note_on_c,0,99,97
2,17468, Note_on_c,0,87,83
2,17472, Note_on_c,0,82,67
2,17472, Note_on_c,0,94,72
2,17476, Note_on_c,0,78,59
2,17480, Note_on_c,0,90,71
2,17480, Note_on_c,0,70,60
2,17480, Note_on_c,0,75,60
2,17500, Note_on_c,0,99,0
2,17528, Note_on_c,0,82,0
2,17540, Note_on_c,0,78,0
2,17552, Note_on_c,0,87,0
2,17556, Note_on_c,0,75,0
2,17556, Note_on_c,0,70,0
2,17560, Note_on_c,0,94,0
2,17568, Note_on_c,0,90,0
2,18056, Control_c,0,64,72
2,18068, Note_on_c,0,51,88
2,18072, Note_on_c,0,63,90
2,18072, Control_c,0,64,0
2,18076, Note_on_c,0,58,69
2,18076, Note_on_c,0,54,74
2,18088, Note_on_c,0,37,75
2,18088, Note_on_c,0,49,81
2,18132, Note_on_c,0,51,0
2,18132, Control_c,0,64,40
2,18148, Control_c,0,64,127
2,18152, Note_on_c,0,37,0
2,18152, Note_on_c,0,49,0
2,18164, Note_on_c,0,54,0
2,18188, Note_on_c,0,58,0
2,18212, Note_on_c,0,63,0
2,18628, Note_on_c,0,75,92
2,18628, Note_on_c,0,63,81
2,18636, Note_on_c,0,66,69
2,18640, Note_on_c,0,70,65
2,18644, Note_on_c,0,58,64
2,18648, Note_on_c,0,46,58
2,18652, Note_on_c,0,54,53
2,18664, Note_on_c,0,51,75
2,18680, Note_on_c,0,54,0
2,18688, Note_on_c,0,63,0
2,18692, Note_on_c,0,51,0
2,18692, Note_on_c,0,46,0
2,18704, Note_on_c,0,66,0
2,18708, Note_on_c,0,58,0
2,18728, Note_on_c,0,70,0
2,18748, Note_on_c,0,75,0
2,19204, Note_on_c,0,99,95
2,19216, Note_on_c,0,87,77
2,19224, Note_on_c,0,82,65
2,19224, Note_on_c,0,90,67
2,19224, Note_on_c,0,94,68
2,19228, Note_on_c,0,70,51
2,19228, Note_on_c,0,78,49
2,19228, Note_on_c,0,75,44
2,19284, Note_on_c,0,82,0
2,19288, Note_on_c,0,78,0
2,19296, Note_on_c,0,87,0
2,19300, Note_on_c,0,99,0
2,19304, Note_on_c,0,75,0
2,19304, Note_on_c,0,70,0
2,19316, Note_on_c,0,90,0
2,19316, Note_on_c,0,94,0
2,19808, Control_c,0,64,56
2,19820, Control_c,0,64,0
2,19824, Note_on_c,0,68,92
2,19824, Note_on_c,0,56,85
2,19832, Note_on_c,0,63,76
2,19836, Note_on_c,0,60,86
2,19840, Note_on_c,0,37,75
2,19844, Note_on_c,0,49,70
2,19848, Note_on_c,0,44,63
2,19888, Note_on_c,0,56,0
2,19900, Note_on_c,0,37,0
2,19900, Note_on_c,0,49,0
2,19900, Control_c,0,64,72
2,19912, Note_on_c,0,60,0
2,19912, Note_on_c,0,44,0
2,19912, Control_c,0,64,127
2,19948, Note_on_c,0,63,0
2,19968, Note_on_c,0,68,0
2,20400, Note_on_c,0,80,87
2,20408, Note_on_c,0,68,77
2,20416, Note_on_c,0,75,90
2,20416, Note_on_c,0,72,84
2,20424, Note_on_c,0,63,59
2,20428, Note_on_c,0,51,64
2,20428, Note_on_c,0,56,58
2,20428, Note_on_c,0,60,63
2,20444, Note_on_c,0,72,0
2,20456, Note_on_c,0,60,0
2,20456, Note_on_c,0,68,0
2,20468, Note_on_c,0,51,0
2,20484, Note_on_c,0,63,0
2,20500, Note_on_c,0,56,0
2,20508, Note_on_c,0,75,0
2,20536, Note_on_c,0,80,0
2,20992, Note_on_c,0,104,95
2,20992, Note_on_c,0,87,59
2,20996, Note_on_c,0,92,79
2,21000, Note_on_c,0,99,73
2,21000, Note_on_c,0,84,64
2,21004, Note_on_c,0,75,46
2,21004, Note_on_c,0,80,46
2,21012, Note_on_c,0,96,73
2,21040, Note_on_c,0,96,0
2,21052, Note_on_c,0,87,0
2,21068, Note_on_c,0,84,0
2,21072, Note_on_c,0,92,0
2,21080, Note_on_c,0,104,0
2,21088, Note_on_c,0,75,0
2,21092, Note_on_c,0,80,0
2,21100, Note_on_c,0,99,0
2,21572, Note_on_c,0,68,92
2,21572, Control_c,0,64,40
2,21584, Note_on_c,0,56,83
2,21584, Note_on_c,0,63,74
2,21584, Control_c,0,64,0
2,21592, Note_on_c,0,60,83
2,21592, Note_on_c,0,37,75
2,21596, Note_on_c,0,49,73
2,21636, Control_c,0,64,40
2,21644, Note_on_c,0,56,0
2,21648, Control_c,0,64,127
2,21660, Note_on_c,0,37,0
2,21664, Note_on_c,0,49,0
2,21668, Note_on_c,0,60,0
2,21704, Note_on_c,0,63,0
2,21728, Note_on_c,0,68,0
2,22164, Note_on_c,0,56,60
2,22168, Note_on_c,0,68,75
2,22168, Note_on_c,0,75,95
2,22172, Note_on_c,0,63,60
2,22176, Note_on_c,0,60,60
2,22176, Note_on_c,0,51,60
2,22180, Note_on_c,0,72,78
2,22204, Note_on_c,0,72,0
2,22208, Note_on_c,0,60,0
2,22212, Note_on_c,0,51,0
2,22224, Note_on_c,0,68,0
2,22232, Note_on_c,0,63,0
2,22244, Note_on_c,0,56,0
2,22272, Note_on_c,0,75,0
2,22728, Note_on_c,0,104,98
2,22736, Note_on_c,0,92,76
2,22736, Note_on_c,0,99,75
2,22736, Note_on_c,0,87,67
2,22740, Note_on_c,0,80,58
2,22744, Note_on_c,0,75,50
2,22748, Note_on_c,0,96,76
2,22748, Note_on_c,0,84,63
2,22776, Note_on_c,0,84,0
2,22792, Note_on_c,0,87,0
2,22808, Note_on_c,0,92,0
2,22816, Note_on_c,0,104,0
2,22820, Note_on_c,0,75,0
2,22824, Note_on_c,0,80,0
2,22828, Note_on_c,0,96,0
2,22832, Note_on_c,0,99,0
2,23280, Control_c,0,64,56
2,23292, Control_c,0,64,0
2,23316, Note_on_c,0,65,97
2,23320, Note_on_c,0,56,77
2,23320, Note_on_c,0,61,73
2,23320, Note_on_c,0,53,88
2,23336, Note_on_c,0,49,85
2,23340, Note_on_c,0,37,75
2,23372, Control_c,0,64,56
2,23384, Control_c,0,64,127
2,23392, Note_on_c,0,53,0
2,23400, Note_on_c,0,37,0
2,23404, Note_on_c,0,49,0
2,23420, Note_on_c,0,56,0
2,23444, Note_on_c,0,61,0
2,23472, Note_on_c,0,65,0
2,23888, Note_on_c,0,77,96
2,23888, Note_on_c,0,68,71
2,23888, Note_on_c,0,56,60
2,23892, Note_on_c,0,73,69
2,23892, Note_on_c,0,49,61
2,23896, Note_on_c,0,65,75
2,23896, Note_on_c,0,61,66
2,23952, Note_on_c,0,65,0
2,23952, Note_on_c,0,49,0
2,23960, Note_on_c,0,56,0
2,23964, Note_on_c,0,68,0
2,23968, Note_on_c,0,61,0
2,23996, Note_on_c,0,73,0
2,24024, Note_on_c,0,77,0
2,24456, Note_on_c,0,101,98
2,24460, Note_on_c,0,92,68
2,24460, Note_on_c,0,97,74
2,24464, Note_on_c,0,89,80
2,24472, Note_on_c,0,85,65
2,24472, Note_on_c,0,80,55
2,24488, Note_on_c,0,77,60
2,24488, Note_on_c,0,73,60
2,24524, Note_on_c,0,77,0
2,24532, Note_on_c,0,85,0
2,24548, Note_on_c,0,101,0
2,24548, Note_on_c,0,80,0
2,24556, Note_on_c,0,89,0
2,24564, Note_on_c,0,73,0
2,24568, Note_on_c,0,97,0
2,24580, Note_on_c,0,92,0
2,25028, Control_c,0,64,72
2,25044, Control_c,0,64,0
2,25056, Note_on_c,0,63,92
2,25060, Note_on_c,0,51,90
2,25064, Note_on_c,0,56,73
2,25072, Note_on_c,0,60,78
2,25092, Note_on_c,0,44,75
2,25096, Note_on_c,0,32,75
2,25128, Note_on_c,0,51,0
2,25136, Control_c,0,64,127
2,25156, Note_on_c,0,56,0
2,25164, Note_on_c,0,44,0
2,25172, Note_on_c,0,32,0
2,25176, Note_on_c,0,60,0
2,25208, Note_on_c,0,63,0
2,25628, Note_on_c,0,92,96
2,25640, Note_on_c,0,87,77
2,25640, Note_on_c,0,80,74
2,25652, Note_on_c,0,84,76
2,25652, Note_on_c,0,75,70
2,25656, Note_on_c,0,68,64
2,25664, Note_on_c,0,72,65
2,25680, Note_on_c,0,84,0
2,25692, Note_on_c,0,72,0
2,25716, Note_on_c,0,75,0
2,25720, Note_on_c,0,80,0
2,25736, Note_on_c,0,68,0
2,25760, Note_on_c,0,92,0
2,25760, Note_on_c,0,87,0
2,26192, Note_on_c,0,80,90
2,26196, Note_on_c,0,68,77
2,26204, Note_on_c,0,75,69
2,26208, Note_on_c,0,56,62
2,26216, Note_on_c,0,72,70
2,26220, Note_on_c,0,63,67
2,26224, Note_on_c,0,60,74
2,26244, Note_on_c,0,72,0
2,26252, Note_on_c,0,60,0
2,26264, Note_on_c,0,68,0
2,26272, Note_on_c,0,63,0
2,26288, Note_on_c,0,56,0
2,26300, Note_on_c,0,75,0
2,26300, Note_on_c,0,80,0
2,26748, Control_c,0,64,56
2,26764, Control_c,0,64,0
2,26784, Note_on_c,0,65,96
2,26788, Note_on_c,0,56,76
2,26788, Note_on_c,0,61,75
2,26792, Note_on_c,0,53,86
2,26804, Note_on_c,0,49,83
2,26804, Note_on_c,0,37,75
2,26844, Control_c,0,64,72
2,26852, Note_on_c,0,53,0
2,26860, Control_c,0,64,127
2,26864, Note_on_c,0,49,0
2,26864, Note_on_c,0,37,0
2,26880, Note_on_c,0,56,0
2,26908, Note_on_c,0,61,0
2,26924, Note_on_c,0,65,0
2,27320, Note_on_c,0,77,97
2,27320, Note_on_c,0,68,76
2,27320, Note_on_c,0,65,87
2,27320, Note_on_c,0,73,74
2,27328, Note_on_c,0,61,56
2,27328, Note_on_c,0,49,60
2,27344, Note_on_c,0,56,60
2,27372, Note_on_c,0,56,0
2,27376, Note_on_c,0,65,0
2,27392, Note_on_c,0,49,0
2,27400, Note_on_c,0,61,0
2,27408, Note_on_c,0,68,0
2,27440, Note_on_c,0,73,0
2,27460, Note_on_c,0,77,0
2,27892, Note_on_c,0,101,98
2,27896, Note_on_c,0,92,73
2,27900, Note_on_c,0,97,71
2,27904, Note_on_c,0,89,81
2,27904, Note_on_c,0,85,72
2,27916, Note_on_c,0,73,55
2,27916, Note_on_c,0,80,60
2,27928, Note_on_c,0,77,60
2,27964, Note_on_c,0,77,0
2,27972, Note_on_c,0,85,0
2,27980, Note_on_c,0,101,0
2,27980, Note_on_c,0,80,0
2,27984, Note_on_c,0,89,0
2,27996, Note_on_c,0,73,0
2,27996, Note_on_c,0,97,0
2,28012, Note_on_c,0,92,0
2,28456, Control_c,0,64,72
2,28472, Note_on_c,0,65,94
2,28472, Control_c,0,64,0
2,28476, Note_on_c,0,56,75
2,28476, Note_on_c,0,53,86
2,28476, Note_on_c,0,61,71
2,28500, Note_on_c,0,41,75
2,28500, Note_on_c,0,29,75
2,28552, Note_on_c,0,53,0
2,28552, Control_c,0,64,72
2,28568, Note_on_c,0,41,0
2,28568, Control_c,0,64,127
2,28577, Note_on_c,0,29,0
2,28580, Note_on_c,0,56,0
2,28616, Note_on_c,0,61,0
2,28632, Note_on_c,0,65,0
2,29056, Note_on_c,0,73,71
2,29056, Note_on_c,0,68,71
2,29056, Note_on_c,0,77,95
2,29056, Note_on_c,0,65,83
2,29076, Note_on_c,0,61,54
2,29076, Note_on_c,0,56,59
2,29084, Note_on_c,0,49,59
2,29092, Note_on_c,0,53,57
2,29116, Note_on_c,0,49,0
2,29120, Note_on_c,0,65,0
2,29124, Note_on_c,0,53,0
2,29132, Note_on_c,0,68,0
2,29136, Note_on_c,0,61,0
2,29152, Note_on_c,0,56,0
2,29164, Note_on_c,0,73,0
2,29188, Note_on_c,0,77,0
2,29632, Note_on_c,0,101,98
2,29636, Note_on_c,0,97,74
2,29636, Note_on_c,0,92,75
2,29640, Note_on_c,0,89,85
2,29640, Note_on_c,0,85,64
2,29644, Note_on_c,0,73,57
2,29648, Note_on_c,0,80,60
2,29664, Note_on_c,0,77,60
2,29704, Note_on_c,0,77,0
2,29704, Note_on_c,0,85,0
2,29720, Note_on_c,0,80,0
2,29724, Note_on_c,0,101,0
2,29732, Note_on_c,0,89,0
2,29732, Note_on_c,0,73,0
2,29744, Note_on_c,0,97,0
2,29748, Note_on_c,0,92,0
2,30228, Control_c,0,64,72
2,30244, Control_c,0,64,0
2,30252, Note_on_c,0,63,93
2,30252, Note_on_c,0,51,91
2,30256, Note_on_c,0,54,73
2,30260, Note_on_c,0,58,67
2,30264, Note_on_c,0,61,61
2,30268, Note_on_c,0,42,74
2,30276, Note_on_c,0,30,75
2,30316, Note_on_c,0,51,0
2,30324, Control_c,0,64,56
2,30332, Note_on_c,0,42,0
2,30332, Note_on_c,0,30,0
2,30340, Control_c,0,64,127
2,30344, Note_on_c,0,54,0
2,30368, Note_on_c,0,58,0
2,30384, Note_on_c,0,61,0
2,30400, Note_on_c,0,63,0
2,30820, Note_on_c,0,75,95
2,30820, Note_on_c,0,63,85
2,30824, Note_on_c,0,70,75
2,30828, Note_on_c,0,66,72
2,30836, Note_on_c,0,58,62
2,30836, Note_on_c,0,46,59
2,30844, Note_on_c,0,54,54
2,30844, Note_on_c,0,51,53
2,30880, Note_on_c,0,51,0
2,30888, Note_on_c,0,46,0
2,30888, Note_on_c,0,63,0
2,30892, Note_on_c,0,66,0
2,30896, Note_on_c,0,54,0
2,30900, Note_on_c,0,58,0
2,30928, Note_on_c,0,70,0
2,30960, Note_on_c,0,75,0
2,31408, Note_on_c,0,87,79
2,31416, Note_on_c,0,90,68
2,31416, Note_on_c,0,99,97
2,31416, Note_on_c,0,94,68
2,31416, Note_on_c,0,82,60
2,31420, Note_on_c,0,70,51
2,31424, Note_on_c,0,78,60
2,31432, Note_on_c,0,75,60
2,31476, Note_on_c,0,75,0
2,31480, Note_on_c,0,82,0
2,31488, Note_on_c,0,87,0
2,31488, Note_on_c,0,78,0
2,31504, Note_on_c,0,70,0
2,31508, Note_on_c,0,94,0
2,31508, Note_on_c,0,99,0
2,31512, Note_on_c,0,90,0
2,31996, Control_c,0,64,40
2,32012, Control_c,0,64,0
2,32024, Note_on_c,0,66,92
2,32028, Note_on_c,0,54,85
2,32036, Note_on_c,0,58,69
2,32040, Note_on_c,0,60,77
2,32048, Note_on_c,0,27,75
2,32052, Note_on_c,0,39,72
2,32064, Note_on_c,0,63,65
2,32092, Note_on_c,0,63,0
2,32092, Control_c,0,64,56
2,32108, Note_on_c,0,27,0
2,32108, Control_c,0,64,127
2,32112, Note_on_c,0,39,0
2,32116, Note_on_c,0,54,0
2,32128, Note_on_c,0,60,0
2,32132, Note_on_c,0,58,0
2,32188, Note_on_c,0,66,0
2,32640, Note_on_c,0,78,95
2,32648, Note_on_c,0,66,77
2,32656, Note_on_c,0,51,65
2,32656, Note_on_c,0,72,79
2,32660, Note_on_c,0,70,68
2,32660, Note_on_c,0,63,65
2,32660, Note_on_c,0,60,66
2,32664, Note_on_c,0,58,65
2,32692, Note_on_c,0,60,0
2,32704, Note_on_c,0,66,0
2,32708, Note_on_c,0,51,0
2,32716, Note_on_c,0,63,0
2,32724, Note_on_c,0,70,0
2,32728, Note_on_c,0,72,0
2,32748, Note_on_c,0,58,0
2,32780, Note_on_c,0,78,0
2,33208, Note_on_c,0,102,97
2,33216, Note_on_c,0,90,76
2,33224, Note_on_c,0,87,67
2,33224, Note_on_c,0,94,67
2,33232, Note_on_c,0,96,74
2,33232, Note_on_c,0,84,64
2,33232, Note_on_c,0,82,60
2,33244, Note_on_c,0,75,60
2,33260, Note_on_c,0,84,0
2,33272, Note_on_c,0,90,0
2,33280, Note_on_c,0,87,0
2,33296, Note_on_c,0,94,0
2,33300, Note_on_c,0,96,0
2,33308, Note_on_c,0,82,0
2,33312, Note_on_c,0,102,0
2,33316, Note_on_c,0,75,0
2,33656, Control_c,0,64,24
2,33672, Control_c,0,64,0
2,33692, Note_on_c,0,53,67
2,33736, Note_on_c,0,77,68
2,33748, Control_c,0,64,72
2,33752, Note_on_c,0,60,59
2,33764, Note_on_c,0,53,0
2,33764, Note_on_c,0,81,72
2,33764, Control_c,0,64,127
2,33792, Note_on_c,0,84,66
2,33816, Note_on_c,0,65,59
2,33828, Note_on_c,0,77,0
2,33836, Note_on_c,0,60,0
2,33852, Note_on_c,0,89,90
2,33856, Note_on_c,0,81,0
2,33856, Note_on_c,0,69,60
2,33868, Note_on_c,0,65,0
2,33872, Note_on_c,0,84,0
2,33888, Note_on_c,0,69,0
2,33904, Note_on_c,0,89,0
2,34216, Note_on_c,0,58,60
2,34244, Control_c,0,64,56
2,34260, Control_c,0,64,0
2,34288, Note_on_c,0,77,67
2,34292, Note_on_c,0,62,64
2,34292, Control_c,0,64,40
2,34308, Control_c,0,64,104
2,34312, Note_on_c,0,58,0
2,34320, Control_c,0,64,127
2,34328, Note_on_c,0,80,69
2,34340, Note_on_c,0,68,51
2,34372, Note_on_c,0,86,74
2,34380, Note_on_c,0,70,65
2,34384, Note_on_c,0,77,0
2,34412, Note_on_c,0,80,0
2,34412, Note_on_c,0,89,93
2,34444, Note_on_c,0,70,0
2,34448, Note_on_c,0,86,0
2,34452, Note_on_c,0,62,0
2,34452, Note_on_c,0,68,0
2,34472, Note_on_c,0,89,0
2,34792, Note_on_c,0,51,52
2,34816, Control_c,0,64,40
2,34832, Control_c,0,64,0
2,34848, Note_on_c,0,51,0
2,34848, Note_on_c,0,58,51
2,34852, Note_on_c,0,75,61
2,34864, Control_c,0,64,56
2,34876, Control_c,0,64,104
2,34892, Control_c,0,64,127
2,34900, Note_on_c,0,63,57
2,34904, Note_on_c,0,79,69
2,34928, Note_on_c,0,82,65
2,34944, Note_on_c,0,75,0
2,34944, Note_on_c,0,58,0
2,34956, Note_on_c,0,67,68
2,34956, Note_on_c,0,87,93
2,34968, Note_on_c,0,79,0
2,34984, Note_on_c,0,63,0
2,34996, Note_on_c,0,82,0
2,34996, Note_on_c,0,67,0
2,35024, Note_on_c,0,87,0
2,35316, Note_on_c,0,56,49
2,35316, Control_c,0,64,104
2,35328, Control_c,0,64,40
2,35344, Control_c,0,64,0
2,35372, Note_on_c,0,63,60
2,35372, Control_c,0,64,72
2,35380, Note_on_c,0,75,69
2,35384, Note_on_c,0,56,0
2,35392, Control_c,0,64,127
2,35416, Note_on_c,0,66,58
2,35428, Note_on_c,0,78,61
2,35460, Note_on_c,0,80,76
2,35468, Note_on_c,0,75,0
2,35484, Note_on_c,0,63,0
2,35488, Note_on_c,0,72,66
2,35496, Note_on_c,0,78,0
2,35512, Note_on_c,0,87,90
2,35516, Note_on_c,0,72,0
2,35520, Note_on_c,0,66,0
2,35528, Note_on_c,0,80,0
2,35568, Note_on_c,0,87,0
2,35872, Note_on_c,0,49,61
2,35900, Control_c,0,64,40
2,35908, Note_on_c,0,73,57
2,35916, Control_c,0,64,0
2,35928, Note_on_c,0,56,55
2,35948, Note_on_c,0,49,0
2,35948, Note_on_c,0,77,71
2,35964, Control_c,0,64,40
2,35976, Note_on_c,0,80,67
2,35980, Control_c,0,64,127
2,36008, Note_on_c,0,61,60
2,36020, Note_on_c,0,73,0
2,36032, Note_on_c,0,77,0
2,36032, Note_on_c,0,85,92
2,36052, Note_on_c,0,65,40
2,36056, Note_on_c,0,80,0
2,36060, Note_on_c,0,56,0
2,36084, Note_on_c,0,65,0
2,36084, Note_on_c,0,61,0
2,36092, Note_on_c,0,85,0
2,36396, Note_on_c,0,43,64
2,36428, Control_c,0,64,72
2,36440, Control_c,0,64,0
2,36464, Note_on_c,0,43,0
2,36464, Note_on_c,0,49,52
2,36468, Note_on_c,0,70,71
2,36472, Note_on_c,0,53,53
2,36492, Control_c,0,64,56
2,36496, Note_on_c,0,73,69
2,36508, Control_c,0,64,127
2,36520, Note_on_c,0,77,76
2,36540, Note_on_c,0,58,60
2,36552, Note_on_c,0,70,0
2,36552, Note_on_c,0,82,90
2,36560, Note_on_c,0,49,0
2,36572, Note_on_c,0,53,0
2,36572, Note_on_c,0,73,0
2,36572, Note_on_c,0,58,0
2,36592, Note_on_c,0,77,0
2,36608, Note_on_c,0,82,0
2,36904, Note_on_c,0,44,49
2,36952, Note_on_c,0,68,51
2,36960, Note_on_c,0,49,32
2,36984, Note_on_c,0,73,64
2,36988, Control_c,0,64,40
2,36996, Note_on_c,0,53,26
2,37004, Control_c,0,64,0
2,37024, Note_on_c,0,77,60
2,37052, Note_on_c,0,44,0
2,37052, Control_c,0,64,24
2,37060, Note_on_c,0,56,64
2,37064, Control_c,0,64,127
2,37084, Note_on_c,0,68,0
2,37088, Note_on_c,0,80,90
2,37096, Note_on_c,0,49,0
2,37100, Note_on_c,0,53,0
2,37104, Note_on_c,0,77,0
2,37108, Note_on_c,0,73,0
2,37116, Note_on_c,0,56,0
2,37144, Note_on_c,0,80,0
2,37448, Note_on_c,0,49,45
2,37464, Note_on_c,0,65,61
2,37480, Note_on_c,0,68,60
2,37492, Note_on_c,0,53,60
2,37512, Note_on_c,0,73,70
2,37516, Note_on_c,0,56,55
2,37556, Note_on_c,0,65,0
2,37560, Note_on_c,0,49,0
2,37564, Note_on_c,0,61,56
2,37580, Note_on_c,0,77,90
2,37584, Note_on_c,0,53,0
2,37584, Note_on_c,0,68,0
2,37600, Note_on_c,0,73,0
2,37612, Note_on_c,0,56,0
2,37616, Note_on_c,0,61,0
2,37640, Note_on_c,0,77,0
2,37948, Note_on_c,0,65,55
2,37980, Note_on_c,0,53,55
2,38000, Note_on_c,0,56,28
2,38008, Note_on_c,0,68,61
2,38072, Note_on_c,0,61,61
2,38088, Note_on_c,0,65,0
2,38100, Note_on_c,0,73,89
2,38116, Note_on_c,0,53,0
2,38124, Note_on_c,0,68,0
2,38136, Note_on_c,0,61,0
2,38140, Note_on_c,0,56,0
2,38164, Note_on_c,0,73,0
2,38484, Note_on_c,0,51,60
2,38496, Note_on_c,0,63,61
2,38524, Control_c,0,64,104
2,38536, Control_c,0,64,0
2,38560, Note_on_c,0,67,69
2,38564, Note_on_c,0,55,58
2,38616, Note_on_c,0,70,88
2,38620, Note_on_c,0,58,54
2,38628, Control_c,0,64,127
2,38644, Note_on_c,0,67,0
2,38652, Note_on_c,0,55,0
2,38652, Note_on_c,0,63,0
2,38656, Note_on_c,0,58,0
2,38688, Note_on_c,0,70,0
2,38692, Note_on_c,0,51,0
2,38960, Note_on_c,0,39,56
2,39000, Note_on_c,0,46,61
2,39012, Note_on_c,0,58,60
2,39024, Note_on_c,0,39,0
2,39072, Note_on_c,0,63,65
2,39076, Note_on_c,0,51,50
2,39112, Note_on_c,0,58,0
2,39116, Note_on_c,0,46,0
2,39120, Note_on_c,0,55,58
2,39120, Note_on_c,0,67,85
2,39156, Note_on_c,0,63,0
2,39156, Note_on_c,0,51,0
2,39164, Note_on_c,0,55,0
2,39180, Note_on_c,0,67,0
2,39544, Note_on_c,0,54,68
2,39560, Note_on_c,0,44,51
2,39560, Control_c,0,64,40
2,39572, Control_c,0,64,0
2,39588, Note_on_c,0,56,58
2,39616, Note_on_c,0,60,70
2,39636, Note_on_c,0,54,0
2,39652, Control_c,0,64,56
2,39668, Note_on_c,0,66,87
2,39668, Control_c,0,64,127
2,39676, Note_on_c,0,56,0
2,39676, Note_on_c,0,51,68
2,39700, Note_on_c,0,60,0
2,39724, Note_on_c,0,44,0
2,39728, Note_on_c,0,51,0
2,39732, Note_on_c,0,66,0
2,40032, Note_on_c,0,53,54
2,40072, Note_on_c,0,56,49
2,40116, Note_on_c,0,61,71
2,40116, Control_c,0,64,88
2,40132, Control_c,0,64,0
2,40136, Note_on_c,0,37,54
2,40160, Note_on_c,0,53,0
2,40196, Note_on_c,0,65,89
2,40216, Note_on_c,0,49,57
2,40220, Note_on_c,0,56,0
2,40224, Note_on_c,0,61,0
2,40228, Control_c,0,64,40
2,40240, Control_c,0,64,127
2,40244, Note_on_c,0,37,0
2,40256, Note_on_c,0,65,0
2,40268, Note_on_c,0,49,0
2,41792, Control_c,0,64,56
2,41808, Control_c,0,64,0
2,41868, Control_c,0,64,56
2,41884, Control_c,0,64,127
2,42444, Note_on_c,0,80,88
2,42444, Note_on_c,0,68,85
2,42452, Note_on_c,0,73,76
2,42460, Note_on_c,0,65,69
2,42464, Note_on_c,0,56,60
2,42468, Note_on_c,0,61,51
2,42476, Note_on_c,0,73,0
2,42484, Note_on_c,0,68,0
2,42488, Note_on_c,0,65,0
2,42488, Note_on_c,0,80,0
2,42492, Note_on_c,0,56,0
2,42496, Note_on_c,0,61,0
2,42524, Note_on_c,0,80,93
2,42524, Note_on_c,0,68,85
2,42536, Note_on_c,0,73,75
2,42544, Note_on_c,0,56,49
2,42552, Note_on_c,0,61,38
2,42560, Note_on_c,0,65,47
2,42584, Note_on_c,0,73,0
2,42592, Note_on_c,0,65,0
2,42604, Note_on_c,0,80,0
2,42604, Note_on_c,0,68,0
2,42612, Note_on_c,0,61,0
2,42620, Note_on_c,0,56,0
2,42708, Note_on_c,0,65,82
2,42712, Note_on_c,0,68,77
2,42712, Note_on_c,0,56,60
2,42720, Note_on_c,0,77,74
2,42724, Note_on_c,0,61,44
2,42732, Note_on_c,0,53,56
2,42736, Note_on_c,0,68,0
2,42736, Note_on_c,0,65,0
2,42744, Note_on_c,0,77,0
2,42744, Note_on_c,0,56,0
2,42752, Note_on_c,0,61,0
2,42760, Note_on_c,0,53,0
2,42780, Note_on_c,0,77,92
2,42784, Control_c,0,64,72
2,42788, Note_on_c,0,65,79
2,42792, Note_on_c,0,68,68
2,42800, Note_on_c,0,61,65
2,42800, Control_c,0,64,0
2,42804, Note_on_c,0,56,64
2,42812, Note_on_c,0,53,78
2,42840, Note_on_c,0,53,0
2,42860, Note_on_c,0,61,0
2,42860, Control_c,0,64,72
2,42868, Note_on_c,0,65,0
2,42868, Note_on_c,0,56,0
2,42872, Note_on_c,0,77,0
2,42876, Control_c,0,64,127
2,42900, Note_on_c,0,68,0
2,42972, Note_on_c,0,63,86
2,42976, Note_on_c,0,75,85
2,42984, Note_on_c,0,68,55
2,42988, Note_on_c,0,61,72
2,42996, Note_on_c,0,51,49
2,43000, Note_on_c,0,75,0
2,43008, Note_on_c,0,68,0
2,43012, Note_on_c,0,61,0
2,43016, Note_on_c,0,63,0
2,43024, Note_on_c,0,51,0
2,43060, Note_on_c,0,63,87
2,43060, Note_on_c,0,75,91
2,43068, Note_on_c,0,51,68
2,43072, Note_on_c,0,61,60
2,43076, Note_on_c,0,56,61
2,43084, Note_on_c,0,68,44
2,43108, Note_on_c,0,68,0
2,43124, Note_on_c,0,61,0
2,43136, Note_on_c,0,56,0
2,43144, Note_on_c,0,51,0
2,43148, Note_on_c,0,63,0
2,43176, Note_on_c,0,75,0
2,43260, Note_on_c,0,56,71
2,43268, Note_on_c,0,61,73
2,43268, Note_on_c,0,49,71
2,43272, Note_on_c,0,73,88
2,43276, Note_on_c,0,65,82
2,43280, Note_on_c,0,68,65
2,43304, Note_on_c,0,68,0
2,43304, Note_on_c,0,73,0
2,43304, Note_on_c,0,65,0
2,43312, Note_on_c,0,61,0
2,43312, Note_on_c,0,49,0
2,43320, Note_on_c,0,56,0
2,43372, Note_on_c,0,73,96
2,43372, Note_on_c,0,65,85
2,43380, Note_on_c,0,49,60
2,43384, Note_on_c,0,68,64
2,43388, Note_on_c,0,56,46
2,43396, Note_on_c,0,61,54
2,43452, Control_c,0,64,56
2,43468, Control_c,0,64,0
2,43516, Note_on_c,0,68,0
2,43520, Note_on_c,0,65,0
2,43548, Control_c,0,64,40
2,43560, Control_c,0,64,127
2,43568, Note_on_c,0,49,0
2,43584, Note_on_c,0,73,0
2,43584, Note_on_c,0,61,0
2,43592, Note_on_c,0,56,0
2,43972, Note_on_c,0,56,62
2,43972, Note_on_c,0,89,102
2,43972, Note_on_c,0,65,77
2,43972, Note_on_c,0,61,67
2,43972, Note_on_c,0,77,96
2,43972, Note_on_c,0,53,77
2,43976, Note_on_c,0,80,80
2,43980, Note_on_c,0,85,64
2,44012, Note_on_c,0,85,0
2,44036, Note_on_c,0,85,23
2,44148, Control_c,0,64,88
2,44164, Control_c,0,64,0
2,44272, Control_c,0,64,104
2,44288, Control_c,0,64,127
2,44436, Note_on_c,0,89,0
2,44472, Note_on_c,0,53,0
2,44504, Note_on_c,0,77,0
2,44504, Note_on_c,0,65,0
2,44604, Note_on_c,0,85,0
2,44648, Note_on_c,0,61,0
2,44712, Note_on_c,0,80,0
2,44808, Note_on_c,0,75,97
2,44812, Note_on_c,0,87,96
2,44816, Note_on_c,0,51,71
2,44820, Note_on_c,0,63,83
2,44852, Note_on_c,0,56,0
2,44868, Note_on_c,0,51,0
2,44884, Note_on_c,0,75,0
2,44884, Note_on_c,0,63,0
2,44928, Note_on_c,0,87,0
2,45164, Note_on_c,0,90,96
2,45168, Note_on_c,0,78,97
2,45176, Note_on_c,0,85,79
2,45176, Note_on_c,0,80,84
2,45176, Note_on_c,0,66,76
2,45176, Note_on_c,0,56,60
2,45184, Note_on_c,0,61,67
2,45184, Note_on_c,0,54,65
2,45296, Control_c,0,64,88
2,45312, Control_c,0,64,24
2,45328, Control_c,0,64,0
2,45452, Control_c,0,64,40
2,45468, Control_c,0,64,104
2,45480, Control_c,0,64,127
2,45612, Note_on_c,0,80,0
2,45632, Note_on_c,0,54,0
2,45636, Note_on_c,0,78,0
2,45644, Note_on_c,0,90,0
2,45656, Note_on_c,0,85,0
2,45672, Note_on_c,0,56,0
2,45684, Note_on_c,0,66,0
2,45684, Note_on_c,0,61,0
2,45896, Note_on_c,0,65,67
2,45904, Note_on_c,0,89,86
2,45904, Note_on_c,0,53,66
2,45908, Note_on_c,0,77,80
2,45924, Note_on_c,0,65,0
2,45936, Note_on_c,0,53,0
2,45956, Note_on_c,0,89,0
2,45960, Note_on_c,0,77,0
2,46068, Note_on_c,0,60,74
2,46072, Note_on_c,0,48,81
2,46080, Note_on_c,0,84,88
2,46092, Note_on_c,0,60,0
2,46092, Note_on_c,0,72,71
2,46100, Note_on_c,0,48,0
2,46116, Note_on_c,0,72,0
2,46136, Note_on_c,0,84,0
2,46212, Note_on_c,0,49,79
2,46212, Note_on_c,0,61,80
2,46212, Note_on_c,0,85,87
2,46220, Note_on_c,0,73,82
2,46256, Note_on_c,0,49,0
2,46260, Note_on_c,0,61,0
2,46268, Note_on_c,0,73,0
2,46272, Note_on_c,0,85,0
2,46352, Note_on_c,0,63,74
2,46356, Note_on_c,0,51,79
2,46356, Note_on_c,0,75,80
2,46360, Note_on_c,0,87,84
2,46388, Note_on_c,0,63,0
2,46392, Note_on_c,0,51,0
2,46396, Note_on_c,0,75,0
2,46404, Note_on_c,0,87,0
2,46468, Note_on_c,0,85,89
2,46476, Note_on_c,0,73,80
2,46488, Note_on_c,0,61,67
2,46500, Note_on_c,0,49,46
2,46516, Note_on_c,0,61,0
2,46520, Note_on_c,0,73,0
2,46524, Note_on_c,0,49,0
2,46540, Note_on_c,0,85,0
2,46604, Note_on_c,0,84,82
2,46608, Note_on_c,0,72,78
2,46616, Note_on_c,0,60,61
2,46620, Note_on_c,0,48,68
2,46632, Note_on_c,0,84,0
2,46636, Note_on_c,0,72,0
2,46644, Note_on_c,0,60,0
2,46648, Note_on_c,0,48,0
2,46704, Note_on_c,0,49,79
2,46704, Note_on_c,0,85,93
2,46704, Note_on_c,0,73,88
2,46712, Note_on_c,0,61,77
2,46740, Note_on_c,0,61,0
2,46744, Note_on_c,0,49,0
2,46764, Note_on_c,0,73,0
2,46768, Note_on_c,0,85,0
2,46860, Note_on_c,0,82,85
2,46868, Note_on_c,0,70,89
2,46880, Note_on_c,0,58,69
2,46888, Note_on_c,0,46,69
2,46956, Control_c,0,64,88
2,46972, Control_c,0,64,0
2,47064, Control_c,0,64,56
2,47080, Control_c,0,64,127
2,47100, Note_on_c,0,46,0
2,47104, Note_on_c,0,70,0
2,47112, Note_on_c,0,58,0
2,47156, Note_on_c,0,82,0
2,47456, Note_on_c,0,87,91
2,47456, Note_on_c,0,75,87
2,47468, Note_on_c,0,82,68
2,47468, Note_on_c,0,78,68
2,47476, Note_on_c,0,63,68
2,47476, Note_on_c,0,51,65
2,47484, Note_on_c,0,58,53
2,47484, Note_on_c,0,54,51
2,47608, Control_c,0,64,56
2,47624, Control_c,0,64,0
2,47684, Control_c,0,64,40
2,47700, Control_c,0,64,127
2,48052, Note_on_c,0,78,0
2,48056, Note_on_c,0,75,0
2,48064, Note_on_c,0,51,0
2,48064, Note_on_c,0,82,0
2,48100, Note_on_c,0,87,0
2,48108, Note_on_c,0,54,0
2,48140, Note_on_c,0,63,0
2,48180, Note_on_c,0,58,0
2,48312, Note_on_c,0,89,85
2,48316, Note_on_c,0,77,82
2,48320, Note_on_c,0,65,68
2,48332, Note_on_c,0,53,66
2,48344, Note_on_c,0,65,0
2,48360, Note_on_c,0,53,0
2,48368, Note_on_c,0,89,0
2,48384, Note_on_c,0,77,0
2,48648, Note_on_c,0,82,83
2,48656, Note_on_c,0,70,73
2,48664, Note_on_c,0,75,59
2,48664, Note_on_c,0,78,57
2,48672, Note_on_c,0,54,54
2,48672, Note_on_c,0,58,48
2,48676, Note_on_c,0,46,55
2,48684, Note_on_c,0,51,46
2,48756, Control_c,0,64,88
2,48768, Control_c,0,64,0
2,48876, Control_c,0,64,56
2,48892, Control_c,0,64,127
2,49052, Note_on_c,0,46,0
2,49056, Note_on_c,0,70,0
2,49060, Note_on_c,0,75,0
2,49088, Note_on_c,0,78,0
2,49092, Note_on_c,0,54,0
2,49092, Note_on_c,0,51,0
2,49096, Note_on_c,0,82,0
2,49112, Note_on_c,0,58,0
2,49380, Note_on_c,0,87,84
2,49384, Note_on_c,0,75,88
2,49392, Note_on_c,0,78,67
2,49392, Note_on_c,0,63,77
2,49392, Note_on_c,0,51,65
2,49396, Note_on_c,0,82,55
2,49400, Note_on_c,0,58,48
2,49400, Note_on_c,0,54,45
2,49416, Note_on_c,0,78,0
2,49420, Note_on_c,0,51,0
2,49420, Note_on_c,0,82,0
2,49428, Note_on_c,0,75,0
2,49428, Note_on_c,0,54,0
2,49428, Note_on_c,0,58,0
2,49432, Note_on_c,0,87,0
2,49432, Note_on_c,0,63,0
2,49464, Note_on_c,0,75,88
2,49468, Note_on_c,0,87,92
2,49472, Note_on_c,0,51,60
2,49480, Note_on_c,0,78,57
2,49480, Note_on_c,0,63,68
2,49484, Note_on_c,0,82,51
2,49484, Note_on_c,0,54,44
2,49496, Note_on_c,0,58,29
2,49512, Note_on_c,0,63,0
2,49516, Note_on_c,0,78,0
2,49524, Note_on_c,0,58,0
2,49532, Note_on_c,0,51,0
2,49536, Note_on_c,0,87,0
2,49536, Note_on_c,0,54,0
2,49540, Note_on_c,0,82,0
2,49544, Note_on_c,0,75,0
2,49644, Note_on_c,0,72,87
2,49644, Note_on_c,0,75,77
2,49644, Note_on_c,0,60,81
2,49644, Note_on_c,0,84,76
2,49644, Note_on_c,0,51,71
2,49652, Note_on_c,0,78,44
2,49668, Note_on_c,0,75,0
2,49668, Note_on_c,0,72,0
2,49672, Note_on_c,0,51,0
2,49672, Note_on_c,0,84,0
2,49672, Note_on_c,0,60,0
2,49676, Note_on_c,0,78,0
2,49720, Note_on_c,0,84,73
2,49724, Note_on_c,0,72,87
2,49724, Note_on_c,0,75,62
2,49724, Note_on_c,0,78,71
2,49732, Note_on_c,0,60,66
2,49732, Note_on_c,0,51,58
2,49736, Note_on_c,0,48,63
2,49736, Note_on_c,0,54,55
2,49764, Note_on_c,0,54,0
2,49764, Note_on_c,0,48,0
2,49768, Note_on_c,0,84,0
2,49776, Note_on_c,0,60,0
2,49776, Note_on_c,0,72,0
2,49788, Note_on_c,0,51,0
2,49804, Note_on_c,0,75,0
2,49816, Note_on_c,0,78,0
2,49888, Note_on_c,0,58,72
2,49888, Note_on_c,0,54,70
2,49896, Note_on_c,0,70,76
2,49896, Note_on_c,0,82,65
2,49908, Note_on_c,0,75,61
2,49908, Note_on_c,0,78,40
2,49916, Note_on_c,0,54,0
2,49916, Note_on_c,0,58,0
2,49924, Note_on_c,0,82,0
2,49924, Note_on_c,0,70,0
2,49932, Note_on_c,0,75,0
2,49936, Note_on_c,0,78,0
2,49968, Note_on_c,0,70,77
2,49968, Note_on_c,0,82,70
2,49968, Note_on_c,0,46,53
2,49972, Note_on_c,0,75,69
2,49972, Note_on_c,0,78,73
2,49976, Note_on_c,0,58,58
2,49976, Note_on_c,0,54,62
2,49980, Note_on_c,0,51,70
2,50008, Note_on_c,0,51,0
2,50028, Note_on_c,0,54,0
2,50028, Note_on_c,0,46,0
2,50028, Note_on_c,0,58,0
2,50044, Note_on_c,0,82,0
2,50052, Note_on_c,0,70,0
2,50056, Note_on_c,0,78,0
2,50060, Note_on_c,0,75,0
2,50148, Note_on_c,0,80,92
2,50152, Note_on_c,0,68,92
2,50160, Note_on_c,0,56,82
2,50160, Note_on_c,0,54,76
2,50160, Note_on_c,0,78,61
2,50160, Note_on_c,0,75,62
2,50172, Note_on_c,0,51,56
2,50184, Note_on_c,0,56,0
2,50188, Note_on_c,0,78,0
2,50188, Note_on_c,0,54,0
2,50188, Note_on_c,0,75,0
2,50196, Note_on_c,0,68,0
2,50200, Note_on_c,0,51,0
2,50200, Note_on_c,0,80,0
2,50240, Note_on_c,0,80,88
2,50244, Note_on_c,0,68,88
2,50256, Note_on_c,0,75,64
2,50256, Note_on_c,0,56,67
2,50260, Note_on_c,0,78,58
2,50264, Note_on_c,0,54,56
2,50264, Note_on_c,0,44,55
2,50268, Note_on_c,0,51,35
2,50320, Control_c,0,64,88
2,50336, Control_c,0,64,0
2,50412, Note_on_c,0,68,0
2,50412, Control_c,0,64,72
2,50416, Note_on_c,0,44,0
2,50424, Control_c,0,64,127
2,50440, Note_on_c,0,56,0
2,50444, Note_on_c,0,51,0
2,50448, Note_on_c,0,54,0
2,50448, Note_on_c,0,75,0
2,50468, Note_on_c,0,78,0
2,50472, Note_on_c,0,80,0
2,50784, Note_on_c,0,87,95
2,50792, Note_on_c,0,75,88
2,50792, Note_on_c,0,84,83
2,50796, Note_on_c,0,80,76
2,50796, Note_on_c,0,63,73
2,50804, Note_on_c,0,56,56
2,50804, Note_on_c,0,51,62
2,50808, Note_on_c,0,60,70
2,50924, Control_c,0,64,56
2,50940, Control_c,0,64,0
2,51036, Control_c,0,64,104
2,51048, Control_c,0,64,127
2,51268, Note_on_c,0,75,0
2,51296, Note_on_c,0,51,0
2,51316, Note_on_c,0,87,0
2,51340, Note_on_c,0,80,0
2,51340, Note_on_c,0,84,0
2,51344, Note_on_c,0,56,0
2,51360, Note_on_c,0,63,0
2,51360, Note_on_c,0,60,0
2,51592, Note_on_c,0,77,96
2,51592, Note_on_c,0,89,97
2,51600, Note_on_c,0,65,75
2,51604, Note_on_c,0,53,64
2,51632, Note_on_c,0,53,0
2,51660, Note_on_c,0,77,0
2,51664, Note_on_c,0,65,0
2,51696, Note_on_c,0,89,0
2,51940, Note_on_c,0,92,99
2,51948, Note_on_c,0,87,77
2,51948, Note_on_c,0,80,80
2,51952, Note_on_c,0,68,70
2,51960, Note_on_c,0,84,74
2,51960, Note_on_c,0,60,64
2,51964, Note_on_c,0,63,54
2,51964, Note_on_c,0,56,49
2,52056, Control_c,0,64,40
2,52072, Control_c,0,64,0
2,52196, Control_c,0,64,72
2,52212, Control_c,0,64,127
2,52340, Note_on_c,0,92,0
2,52372, Note_on_c,0,84,0
2,52372, Note_on_c,0,68,0
2,52380, Note_on_c,0,60,0
2,52384, Note_on_c,0,87,0
2,52392, Note_on_c,0,63,0
2,52400, Note_on_c,0,80,0
2,52408, Note_on_c,0,56,0
2,52640, Note_on_c,0,87,79
2,52644, Note_on_c,0,75,80
2,52652, Note_on_c,0,63,52
2,52656, Note_on_c,0,51,61
2,52732, Note_on_c,0,63,0
2,52740, Note_on_c,0,75,0
2,52744, Note_on_c,0,51,0
2,52748, Note_on_c,0,87,0
2,52844, Note_on_c,0,86,87
2,52852, Note_on_c,0,74,79
2,52860, Note_on_c,0,62,65
2,52880, Note_on_c,0,50,52
2,52904, Note_on_c,0,74,0
2,52912, Note_on_c,0,50,0
2,52916, Note_on_c,0,62,0
2,52932, Note_on_c,0,86,0
2,53028, Note_on_c,0,87,92
2,53036, Note_on_c,0,75,92
2,53036, Note_on_c,0,51,82
2,53036, Note_on_c,0,63,76
2,53084, Note_on_c,0,63,0
2,53084, Note_on_c,0,51,0
2,53100, Note_on_c,0,75,0
2,53132, Note_on_c,0,87,0
2,53192, Note_on_c,0,89,100
2,53196, Note_on_c,0,65,80
2,53196, Note_on_c,0,77,94
2,53208, Note_on_c,0,53,61
2,53228, Note_on_c,0,65,0
2,53236, Note_on_c,0,53,0
2,53244, Note_on_c,0,77,0
2,53252, Note_on_c,0,89,0
2,53336, Note_on_c,0,90,95
2,53340, Note_on_c,0,66,84
2,53344, Note_on_c,0,78,97
2,53348, Note_on_c,0,54,77
2,53360, Note_on_c,0,56,61
2,53384, Note_on_c,0,56,0
2,53388, Note_on_c,0,54,0
2,53392, Note_on_c,0,66,0
2,53396, Note_on_c,0,78,0
2,53428, Note_on_c,0,90,0
2,53568, Note_on_c,0,92,100
2,53580, Note_on_c,0,80,83
2,53580, Note_on_c,0,89,80
2,53584, Note_on_c,0,61,68
2,53588, Note_on_c,0,65,76
2,53588, Note_on_c,0,85,65
2,53592, Note_on_c,0,68,71
2,53596, Note_on_c,0,56,60
2,53668, Control_c,0,64,72
2,53688, Control_c,0,64,0
2,53836, Control_c,0,64,72
2,53856, Control_c,0,64,127
2,54068, Note_on_c,0,89,0
2,54068, Note_on_c,0,92,0
2,54072, Note_on_c,0,56,0
2,54092, Note_on_c,0,65,0
2,54092, Note_on_c,0,61,0
2,54100, Note_on_c,0,85,0
2,54104, Note_on_c,0,80,0
2,54120, Note_on_c,0,68,0
2,54340, Note_on_c,0,89,96
2,54344, Note_on_c,0,77,92
2,54360, Note_on_c,0,53,71
2,54364, Note_on_c,0,65,78
2,54396, Note_on_c,0,53,0
2,54404, Note_on_c,0,77,0
2,54424, Note_on_c,0,65,0
2,54432, Note_on_c,0,89,0
2,54596, Note_on_c,0,94,88
2,54600, Note_on_c,0,82,86
2,54616, Note_on_c,0,70,75
2,54616, Note_on_c,0,58,68
2,54664, Note_on_c,0,70,0
2,54672, Note_on_c,0,58,0
2,54712, Note_on_c,0,82,0
2,54716, Note_on_c,0,94,0
2,54844, Note_on_c,0,68,77
2,54852, Note_on_c,0,92,99
2,54852, Note_on_c,0,80,91
2,54856, Note_on_c,0,56,62
2,54892, Note_on_c,0,56,0
2,54896, Note_on_c,0,68,0
2,54920, Note_on_c,0,80,0
2,54956, Note_on_c,0,92,0
2,55116, Note_on_c,0,92,97
2,55120, Note_on_c,0,80,88
2,55132, Note_on_c,0,68,76
2,55140, Note_on_c,0,56,73
2,55220, Control_c,0,64,56
2,55232, Control_c,0,64,0
2,55344, Control_c,0,64,72
2,55356, Control_c,0,64,127
2,55604, Note_on_c,0,92,0
2,55616, Note_on_c,0,68,0
2,55636, Note_on_c,0,80,0
2,55640, Note_on_c,0,56,0
2,55872, Note_on_c,0,75,92
2,55872, Note_on_c,0,87,92
2,55888, Note_on_c,0,63,79
2,55888, Note_on_c,0,51,80
2,55928, Note_on_c,0,75,0
2,55940, Note_on_c,0,51,0
2,55940, Note_on_c,0,63,0
2,55956, Note_on_c,0,87,0
2,56112, Note_on_c,0,94,88
2,56120, Note_on_c,0,82,85
2,56124, Note_on_c,0,70,79
2,56124, Note_on_c,0,58,73
2,56172, Note_on_c,0,70,0
2,56180, Note_on_c,0,58,0
2,56184, Note_on_c,0,82,0
2,56216, Note_on_c,0,94,0
2,56336, Note_on_c,0,68,83
2,56340, Note_on_c,0,92,97
2,56348, Note_on_c,0,80,95
2,56352, Note_on_c,0,56,53
2,56352, Note_on_c,0,58,49
2,56376, Note_on_c,0,58,0
2,56380, Note_on_c,0,56,0
2,56392, Note_on_c,0,68,0
2,56416, Note_on_c,0,80,0
2,56444, Note_on_c,0,92,0
2,56576, Note_on_c,0,92,100
2,56584, Note_on_c,0,80,89
2,56588, Note_on_c,0,68,82
2,56592, Note_on_c,0,56,72
2,56628, Control_c,0,64,88
2,56644, Control_c,0,64,0
2,56752, Control_c,0,64,88
2,56768, Control_c,0,64,127
2,56992, Note_on_c,0,92,0
2,57020, Note_on_c,0,80,0
2,57020, Note_on_c,0,68,0
2,57060, Note_on_c,0,56,0
2,57252, Note_on_c,0,77,102
2,57256, Note_on_c,0,89,102
2,57272, Note_on_c,0,53,78
2,57276, Note_on_c,0,65,82
2,57312, Note_on_c,0,53,0
2,57312, Note_on_c,0,77,0
2,57332, Note_on_c,0,65,0
2,57344, Note_on_c,0,89,0
2,57536, Note_on_c,0,95,110
2,57544, Note_on_c,0,83,99
2,57548, Note_on_c,0,71,86
2,57556, Note_on_c,0,59,75
2,57612, Note_on_c,0,59,0
2,57612, Note_on_c,0,83,0
2,57624, Note_on_c,0,71,0
2,57636, Note_on_c,0,95,0
2,57768, Note_on_c,0,70,85
2,57776, Note_on_c,0,58,77
2,57784, Note_on_c,0,94,100
2,57784, Note_on_c,0,82,89
2,57824, Note_on_c,0,58,0
2,57824, Note_on_c,0,70,0
2,57864, Note_on_c,0,82,0
2,57888, Note_on_c,0,94,0
2,58016, Note_on_c,0,94,95
2,58020, Note_on_c,0,82,85
2,58032, Note_on_c,0,70,81
2,58036, Note_on_c,0,58,77
2,58100, Control_c,0,64,72
2,58116, Control_c,0,64,0
2,58208, Control_c,0,64,72
2,58224, Control_c,0,64,127
2,58288, Note_on_c,0,58,0
2,58288, Note_on_c,0,70,0
2,58288, Note_on_c,0,82,0
2,58292, Note_on_c,0,94,0
2,58696, Note_on_c,0,78,85
2,58700, Note_on_c,0,90,97
2,58708, Note_on_c,0,66,82
2,58712, Note_on_c,0,54,73
2,58740, Note_on_c,0,54,0
2,58760, Note_on_c,0,66,0
2,58760, Note_on_c,0,78,0
2,58788, Note_on_c,0,90,0
2,58980, Note_on_c,0,97,103
2,58988, Note_on_c,0,85,97
2,58992, Note_on_c,0,73,92
2,58992, Note_on_c,0,61,81
2,59092, Note_on_c,0,61,0
2,59120, Note_on_c,0,85,0
2,59136, Note_on_c,0,73,0
2,59148, Note_on_c,0,97,0
2,59212, Note_on_c,0,84,99
2,59212, Note_on_c,0,96,102
2,59216, Note_on_c,0,72,84
2,59220, Note_on_c,0,60,76
2,59280, Note_on_c,0,60,0
2,59288, Note_on_c,0,72,0
2,59308, Note_on_c,0,84,0
2,59320, Note_on_c,0,96,0
2,59432, Note_on_c,0,96,107
2,59440, Note_on_c,0,84,102
2,59448, Note_on_c,0,72,100
2,59452, Note_on_c,0,60,88
2,59496, Control_c,0,64,88
2,59512, Control_c,0,64,0
2,59604, Control_c,0,64,88
2,59620, Control_c,0,64,127
2,59644, Note_on_c,0,72,0
2,59644, Note_on_c,0,96,0
2,59652, Note_on_c,0,60,0
2,59680, Note_on_c,0,84,0
2,60040, Control_c,0,64,56
2,60054, Note_on_c,0,68,95
2,60054, Note_on_c,0,80,100
2,60054, Note_on_c,0,92,110
2,60054, Note_on_c,0,56,87
2,60056, Control_c,0,64,0
2,60088, Control_c,0,64,72
2,60102, Note_on_c,0,56,0
2,60104, Control_c,0,64,127
2,60106, Note_on_c,0,68,0
2,60114, Note_on_c,0,80,0
2,60150, Note_on_c,0,92,0
2,60300, Note_on_c,0,97,100
2,60308, Note_on_c,0,85,99
2,60316, Note_on_c,0,73,92
2,60316, Note_on_c,0,61,82
2,60364, Note_on_c,0,85,0
2,60396, Note_on_c,0,97,0
2,60428, Note_on_c,0,61,0
2,60432, Note_on_c,0,73,0
2,60524, Note_on_c,0,72,86
2,60528, Note_on_c,0,96,100
2,60536, Note_on_c,0,84,96
2,60540, Note_on_c,0,60,64
2,60564, Note_on_c,0,72,0
2,60576, Note_on_c,0,60,0
2,60580, Note_on_c,0,84,0
2,60592, Note_on_c,0,96,0
2,60700, Note_on_c,0,92,97
2,60700, Note_on_c,0,80,95
2,60704, Note_on_c,0,68,75
2,60708, Note_on_c,0,56,74
2,60732, Note_on_c,0,56,0
2,60732, Note_on_c,0,68,0
2,60756, Note_on_c,0,80,0
2,60764, Note_on_c,0,92,0
2,60852, Note_on_c,0,67,74
2,60856, Note_on_c,0,79,94
2,60856, Note_on_c,0,91,94
2,60864, Note_on_c,0,55,66
2,60880, Note_on_c,0,67,0
2,60892, Note_on_c,0,55,0
2,60900, Note_on_c,0,91,0
2,60908, Note_on_c,0,79,0
2,60992, Note_on_c,0,80,66
2,61000, Control_c,0,64,72
2,61012, Note_on_c,0,60,70
2,61016, Note_on_c,0,89,90
2,61016, Control_c,0,64,24
2,61020, Note_on_c,0,65,83
2,61020, Note_on_c,0,56,67
2,61020, Note_on_c,0,77,80
2,61024, Note_on_c,0,53,74
2,61024, Note_on_c,0,84,66
2,61048, Control_c,0,64,56
2,61064, Note_on_c,0,65,0
2,61064, Note_on_c,0,89,0
2,61064, Control_c,0,64,127
2,61072, Note_on_c,0,77,0
2,61072, Note_on_c,0,60,0
2,61072, Note_on_c,0,53,0
2,61088, Note_on_c,0,56,0
2,61096, Note_on_c,0,80,0
2,61096, Note_on_c,0,84,0
2,61164, Note_on_c,0,61,76
2,61172, Note_on_c,0,49,77
2,61176, Note_on_c,0,85,88
2,61176, Note_on_c,0,73,75
2,61188, Note_on_c,0,61,0
2,61196, Note_on_c,0,49,0
2,61200, Note_on_c,0,85,0
2,61212, Note_on_c,0,73,0
2,61296, Note_on_c,0,60,80
2,61300, Note_on_c,0,84,94
2,61300, Note_on_c,0,72,92
2,61308, Note_on_c,0,48,66
2,61320, Note_on_c,0,60,0
2,61336, Note_on_c,0,48,0
2,61352, Note_on_c,0,72,0
2,61360, Note_on_c,0,84,0
2,61416, Note_on_c,0,56,80
2,61428, Note_on_c,0,59,81
2,61428, Note_on_c,0,53,70
2,61428, Note_on_c,0,80,68
2,61436, Note_on_c,0,83,86
2,61440, Note_on_c,0,71,79
2,61444, Note_on_c,0,47,70
2,61448, Note_on_c,0,77,70
2,61472, Note_on_c,0,47,0
2,61476, Note_on_c,0,59,0
2,61488, Note_on_c,0,77,0
2,61488, Note_on_c,0,83,0
2,61488, Note_on_c,0,71,0
2,61492, Note_on_c,0,56,0
2,61492, Note_on_c,0,80,0
2,61492, Note_on_c,0,53,0
2,61560, Note_on_c,0,84,89
2,61560, Note_on_c,0,60,81
2,61560, Note_on_c,0,72,86
2,61580, Note_on_c,0,48,68
2,61588, Note_on_c,0,72,0
2,61588, Note_on_c,0,60,0
2,61604, Note_on_c,0,84,0
2,61608, Note_on_c,0,48,0
2,61688, Note_on_c,0,56,70
2,61688, Note_on_c,0,80,86
2,61692, Note_on_c,0,68,70
2,61692, Note_on_c,0,44,69
2,61716, Note_on_c,0,56,0
2,61720, Note_on_c,0,44,0
2,61720, Note_on_c,0,68,0
2,61748, Note_on_c,0,80,0
2,61820, Note_on_c,0,55,83
2,61824, Note_on_c,0,79,90
2,61824, Note_on_c,0,43,84
2,61824, Note_on_c,0,67,88
2,61856, Note_on_c,0,55,0
2,61864, Note_on_c,0,79,0
2,61864, Note_on_c,0,43,0
2,61876, Note_on_c,0,67,0
2,61936, Note_on_c,0,56,77
2,61944, Note_on_c,0,44,76
2,61952, Note_on_c,0,68,79
2,61956, Note_on_c,0,80,90
2,61980, Note_on_c,0,44,0
2,61980, Note_on_c,0,56,0
2,61996, Note_on_c,0,68,0
2,62008, Note_on_c,0,80,0
2,62076, Note_on_c,0,53,74
2,62080, Note_on_c,0,77,90
2,62088, Note_on_c,0,65,77
2,62088, Note_on_c,0,41,72
2,62104, Note_on_c,0,53,0
2,62112, Note_on_c,0,77,0
2,62112, Note_on_c,0,41,0
2,62116, Note_on_c,0,65,0
2,62212, Note_on_c,0,49,89
2,62216, Note_on_c,0,37,76
2,62224, Note_on_c,0,73,89
2,62224, Note_on_c,0,61,78
2,62248, Note_on_c,0,49,0
2,62252, Note_on_c,0,37,0
2,62252, Note_on_c,0,61,0
2,62272, Note_on_c,0,73,0
2,62344, Note_on_c,0,72,88
2,62344, Note_on_c,0,60,89
2,62344, Note_on_c,0,48,88
2,62352, Note_on_c,0,36,73
2,62368, Note_on_c,0,48,0
2,62380, Note_on_c,0,36,0
2,62384, Note_on_c,0,72,0
2,62392, Note_on_c,0,60,0
2,62472, Note_on_c,0,71,87
2,62472, Note_on_c,0,59,84
2,62476, Note_on_c,0,47,69
2,62500, Note_on_c,0,35,42
2,62504, Note_on_c,0,47,0
2,62516, Note_on_c,0,71,0
2,62520, Note_on_c,0,59,0
2,62528, Note_on_c,0,35,0
2,62584, Control_c,0,64,104
2,62600, Control_c,0,64,40
2,62608, Note_on_c,0,72,90
2,62608, Note_on_c,0,48,96
2,62616, Note_on_c,0,60,87
2,62616, Control_c,0,64,0
2,62624, Note_on_c,0,36,73
2,62632, Control_c,0,64,24
2,62648, Note_on_c,0,36,0
2,62648, Control_c,0,64,56
2,62660, Note_on_c,0,72,0
2,62660, Note_on_c,0,48,0
2,62660, Control_c,0,64,127
2,62664, Note_on_c,0,60,0
2,62768, Note_on_c,0,68,87
2,62768, Note_on_c,0,56,81
2,62776, Note_on_c,0,44,68
2,62808, Note_on_c,0,44,0
2,62812, Note_on_c,0,56,0
2,62820, Note_on_c,0,68,0
2,62912, Note_on_c,0,67,96
2,62916, Note_on_c,0,55,87
2,62936, Note_on_c,0,43,73
2,62964, Note_on_c,0,55,0
2,62980, Note_on_c,0,43,0
2,62980, Note_on_c,0,67,0
2,63088, Note_on_c,0,53,88
2,63092, Note_on_c,0,65,90
2,63148, Note_on_c,0,65,0
2,63152, Note_on_c,0,53,0
2,63276, Note_on_c,0,49,82
2,63284, Note_on_c,0,37,70
2,63288, Note_on_c,0,61,92
2,63344, Note_on_c,0,49,0
2,63388, Note_on_c,0,37,0
2,63404, Note_on_c,0,61,0
2,63468, Note_on_c,0,60,97
2,63484, Note_on_c,0,48,86
2,63488, Note_on_c,0,36,75
2,63536, Note_on_c,0,48,0
2,63548, Note_on_c,0,36,0
2,63616, Note_on_c,0,60,0
2,63660, Note_on_c,0,59,93
2,63668, Control_c,0,64,24
2,63680, Note_on_c,0,47,82
2,63680, Control_c,0,64,0
2,63688, Note_on_c,0,35,77
2,63728, Note_on_c,0,35,0
2,63740, Note_on_c,0,47,0
2,63748, Control_c,0,64,56
2,63760, Control_c,0,64,127
2,63840, Note_on_c,0,59,0
2,63904, Note_on_c,0,60,87
2,63912, Note_on_c,0,48,86
2,63920, Note_on_c,0,36,70
2,63972, Note_on_c,0,48,0
2,63976, Note_on_c,0,36,0
2,64000, Note_on_c,0,60,0
2,64092, Note_on_c,0,44,70
2,64120, Note_on_c,0,44,0
2,64172, Note_on_c,0,56,86
2,64172, Note_on_c,0,44,83
2,64188, Note_on_c,0,32,81
2,64212, Control_c,0,64,72
2,64228, Control_c,0,64,24
2,64244, Control_c,0,64,40
2,64260, Control_c,0,64,88
2,64276, Control_c,0,64,127
2,64340, Note_on_c,0,32,0
2,64352, Note_on_c,0,44,0
2,64384, Note_on_c,0,56,0
2,64424, Note_on_c,0,55,96
2,64428, Note_on_c,0,43,88
2,64436, Note_on_c,0,31,70
2,64496, Note_on_c,0,43,0
2,64500, Note_on_c,0,31,0
2,64528, Note_on_c,0,55,0
2,64704, Control_c,0,64,88
2,64724, Control_c,0,64,0
2,64736, Note_on_c,0,65,97
2,64740, Note_on_c,0,59,83
2,64744, Note_on_c,0,53,88
2,64744, Note_on_c,0,56,76
2,64764, Note_on_c,0,41,93
2,64768, Note_on_c,0,29,75
2,64800, Control_c,0,64,40
2,64816, Control_c,0,64,127
2,64824, Note_on_c,0,29,0
2,64832, Note_on_c,0,41,0
2,64980, Note_on_c,0,53,0
2,65012, Note_on_c,0,56,0
2,65036, Note_on_c,0,59,0
2,65068, Note_on_c,0,39,99
2,65068, Note_on_c,0,27,78
2,65092, Note_on_c,0,65,0
2,65176, Note_on_c,0,27,0
2,65204, Note_on_c,0,39,0
2,65436, Note_on_c,0,26,85
2,65436, Control_c,0,64,56
2,65440, Note_on_c,0,38,103
2,65452, Control_c,0,64,0
2,65500, Note_on_c,0,26,0
2,65512, Control_c,0,64,56
2,65528, Control_c,0,64,127
2,65536, Note_on_c,0,38,0
2,65796, Note_on_c,0,50,70
2,65832, Note_on_c,0,56,60
2,65848, Note_on_c,0,59,59
2,65864, Note_on_c,0,50,0
2,65908, Note_on_c,0,56,0
2,65916, Note_on_c,0,65,70
2,65920, Note_on_c,0,59,0
2,65944, Note_on_c,0,65,0
2,65944, Note_on_c,0,68,70
2,65984, Note_on_c,0,71,74
2,66008, Note_on_c,0,68,0
2,66056, Note_on_c,0,74,61
2,66064, Note_on_c,0,77,75
2,66068, Note_on_c,0,71,0
2,66080, Note_on_c,0,74,0
2,66098, Note_on_c,0,80,100
2,66148, Note_on_c,0,77,0
2,66150, Note_on_c,0,80,0
2,66402, Note_on_c,0,59,96
2,66434, Control_c,0,64,24
2,66442, Control_c,0,64,56
2,66450, Control_c,0,64,104
2,66458, Control_c,0,64,127
2,66482, Note_on_c,0,59,0
2,66686, Note_on_c,0,56,95
2,66758, Note_on_c,0,56,0
2,66974, Note_on_c,0,54,98
2,67042, Note_on_c,0,54,0
2,67278, Note_on_c,0,53,100
2,67278, Note_on_c,0,44,82
2,67286, Note_on_c,0,47,84
2,67286, Note_on_c,0,26,76
2,67290, Note_on_c,0,38,85
2,67298, Note_on_c,0,47,0
2,67302, Control_c,0,64,56
2,67306, Note_on_c,0,44,0
2,67310, Control_c,0,64,127
2,67322, Note_on_c,0,26,0
2,67330, Note_on_c,0,38,0
2,67334, Note_on_c,0,53,0
2,67410, Note_on_c,0,53,76
2,67410, Note_on_c,0,44,65
2,67442, Note_on_c,0,53,0
2,67462, Note_on_c,0,44,0
2,67466, Note_on_c,0,56,75
2,67466, Note_on_c,0,47,72
2,67522, Note_on_c,0,59,72
2,67522, Note_on_c,0,50,67
2,67538, Note_on_c,0,47,0
2,67542, Note_on_c,0,56,0
2,67558, Note_on_c,0,50,0
2,67562, Note_on_c,0,62,68
2,67562, Note_on_c,0,53,79
2,67578, Note_on_c,0,59,0
2,67586, Note_on_c,0,62,0
2,67602, Note_on_c,0,53,0
2,67622, Note_on_c,0,65,74
2,67622, Note_on_c,0,56,58
2,67662, Note_on_c,0,56,0
2,67662, Note_on_c,0,65,0
2,67674, Note_on_c,0,68,71
2,67678, Note_on_c,0,59,56
2,67722, Note_on_c,0,71,73
2,67722, Note_on_c,0,62,66
2,67734, Note_on_c,0,59,0
2,67742, Note_on_c,0,68,0
2,67758, Note_on_c,0,62,0
2,67758, Note_on_c,0,74,74
2,67758, Note_on_c,0,65,70
2,67778, Note_on_c,0,71,0
2,67786, Note_on_c,0,65,0
2,67790, Note_on_c,0,74,0
2,67818, Note_on_c,0,77,85
2,67818, Note_on_c,0,68,53
2,67850, Note_on_c,0,68,0
2,67862, Note_on_c,0,77,0
2,67870, Note_on_c,0,80,69
2,67870, Note_on_c,0,71,68
2,67910, Note_on_c,0,83,78
2,67910, Note_on_c,0,74,64
2,67918, Note_on_c,0,71,0
2,67930, Note_on_c,0,80,0
2,67942, Note_on_c,0,86,72
2,67942, Note_on_c,0,77,74
2,67946, Note_on_c,0,74,0
2,67954, Note_on_c,0,83,0
2,67970, Note_on_c,0,86,0
2,67978, Note_on_c,0,77,0
2,67994, Note_on_c,0,89,84
2,67994, Note_on_c,0,80,61
2,68022, Note_on_c,0,80,0
2,68030, Note_on_c,0,89,0
2,68042, Note_on_c,0,92,84
2,68042, Note_on_c,0,83,62
2,68090, Note_on_c,0,92,0
2,68094, Note_on_c,0,83,0
2,68102, Note_on_c,0,95,90
2,68102, Note_on_c,0,86,79
2,68118, Note_on_c,0,86,0
2,68142, Note_on_c,0,95,0
2,68402, Note_on_c,0,62,99
2,68442, Control_c,0,64,88
2,68454, Control_c,0,64,72
2,68462, Control_c,0,64,88
2,68470, Control_c,0,64,127
2,68622, Note_on_c,0,62,0
2,68674, Note_on_c,0,59,97
2,68734, Note_on_c,0,59,0
2,68922, Note_on_c,0,58,96
2,68990, Note_on_c,0,58,0
2,69182, Control_c,0,64,104
2,69190, Note_on_c,0,56,99
2,69190, Control_c,0,64,0
2,69194, Note_on_c,0,47,88
2,69202, Note_on_c,0,29,82
2,69210, Note_on_c,0,41,90
2,69210, Note_on_c,0,50,71
2,69226, Control_c,0,64,72
2,69230, Note_on_c,0,47,0
2,69234, Control_c,0,64,127
2,69238, Note_on_c,0,29,0
2,69246, Note_on_c,0,50,0
2,69250, Note_on_c,0,41,0
2,69266, Note_on_c,0,56,0
2,69334, Note_on_c,0,56,75
2,69334, Note_on_c,0,47,74
2,69370, Note_on_c,0,56,0
2,69382, Note_on_c,0,47,0
2,69406, Note_on_c,0,59,81
2,69406, Note_on_c,0,50,80
2,69450, Note_on_c,0,50,0
2,69450, Note_on_c,0,59,0
2,69462, Note_on_c,0,62,83
2,69462, Note_on_c,0,53,72
2,69506, Note_on_c,0,53,0
2,69518, Note_on_c,0,65,80
2,69518, Note_on_c,0,56,62
2,69534, Note_on_c,0,62,0
2,69562, Note_on_c,0,68,78
2,69562, Note_on_c,0,59,77
2,69574, Note_on_c,0,56,0
2,69578, Note_on_c,0,65,0
2,69590, Note_on_c,0,68,0
2,69614, Note_on_c,0,59,0
2,69618, Note_on_c,0,71,85
2,69618, Note_on_c,0,62,80
2,69662, Note_on_c,0,62,0
2,69666, Note_on_c,0,71,0
2,69670, Note_on_c,0,74,79
2,69670, Note_on_c,0,65,67
2,69710, Note_on_c,0,77,82
2,69710, Note_on_c,0,68,67
2,69718, Note_on_c,0,65,0
2,69734, Note_on_c,0,74,0
2,69742, Note_on_c,0,68,0
2,69750, Note_on_c,0,80,81
2,69750, Note_on_c,0,71,69
2,69766, Note_on_c,0,77,0
2,69786, Note_on_c,0,80,0
2,69802, Note_on_c,0,83,88
2,69802, Note_on_c,0,74,73
2,69810, Note_on_c,0,71,0
2,69834, Note_on_c,0,74,0
2,69842, Note_on_c,0,83,0
2,69854, Note_on_c,0,86,81
2,69854, Note_on_c,0,77,74
2,69894, Note_on_c,0,77,0
2,69898, Note_on_c,0,89,84
2,69898, Note_on_c,0,80,66
2,69922, Note_on_c,0,86,0
2,69926, Note_on_c,0,80,0
2,69942, Note_on_c,0,83,82
2,69942, Note_on_c,0,92,77
2,69950, Note_on_c,0,89,0
2,69970, Note_on_c,0,92,0
2,69982, Note_on_c,0,95,94
2,69982, Note_on_c,0,86,76
2,69998, Note_on_c,0,83,0
2,70026, Note_on_c,0,95,0
2,70038, Note_on_c,0,98,95
2,70038, Note_on_c,0,89,85
2,70062, Note_on_c,0,86,0
2,70066, Note_on_c,0,89,0
2,70090, Note_on_c,0,98,0
2,70350, Note_on_c,0,65,99
2,70570, Note_on_c,0,65,0
2,70610, Note_on_c,0,62,100
2,70778, Note_on_c,0,62,0
2,70866, Note_on_c,0,61,102
2,70934, Note_on_c,0,61,0
2,71122, Control_c,0,64,40
2,71130, Note_on_c,0,59,99
2,71130, Control_c,0,64,0
2,71138, Note_on_c,0,50,87
2,71138, Note_on_c,0,53,86
2,71146, Note_on_c,0,32,79
2,71150, Note_on_c,0,44,96
2,71166, Control_c,0,64,56
2,71170, Note_on_c,0,53,0
2,71170, Note_on_c,0,50,0
2,71174, Control_c,0,64,127
2,71182, Note_on_c,0,44,0
2,71186, Note_on_c,0,32,0
2,71206, Note_on_c,0,59,0
2,71350, Note_on_c,0,62,79
2,71358, Note_on_c,0,65,73
2,71362, Note_on_c,0,44,67
2,71378, Note_on_c,0,50,66
2,71382, Note_on_c,0,71,64
2,71386, Note_on_c,0,53,63
2,71394, Note_on_c,0,62,0
2,71402, Note_on_c,0,74,88
2,71406, Note_on_c,0,44,0
2,71410, Note_on_c,0,65,0
2,71418, Note_on_c,0,50,0
2,71418, Note_on_c,0,59,74
2,71422, Note_on_c,0,71,0
2,71430, Note_on_c,0,53,0
2,71434, Note_on_c,0,74,0
2,71442, Note_on_c,0,59,0
2,71594, Note_on_c,0,65,70
2,71594, Note_on_c,0,44,61
2,71606, Note_on_c,0,71,69
2,71606, Note_on_c,0,50,58
2,71610, Note_on_c,0,53,59
2,71622, Note_on_c,0,74,81
2,71630, Note_on_c,0,44,0
2,71634, Note_on_c,0,65,0
2,71646, Note_on_c,0,59,72
2,71650, Note_on_c,0,77,94
2,71654, Note_on_c,0,50,0
2,71654, Note_on_c,0,71,0
2,71670, Note_on_c,0,74,0
2,71674, Note_on_c,0,53,0
2,71678, Note_on_c,0,77,0
2,71686, Note_on_c,0,59,0
2,71778, Note_on_c,0,44,59
2,71810, Note_on_c,0,50,68
2,71810, Note_on_c,0,53,62
2,71822, Note_on_c,0,44,0
2,71826, Note_on_c,0,71,76
2,71846, Note_on_c,0,74,72
2,71854, Note_on_c,0,77,76
2,71862, Note_on_c,0,50,0
2,71862, Note_on_c,0,59,78
2,71878, Note_on_c,0,53,0
2,71878, Note_on_c,0,71,0
2,71890, Note_on_c,0,74,0
2,71890, Note_on_c,0,83,97
2,71894, Note_on_c,0,59,0
2,71902, Note_on_c,0,77,0
2,71926, Note_on_c,0,83,0
2,72046, Note_on_c,0,56,61
2,72054, Note_on_c,0,62,54
2,72074, Note_on_c,0,74,78
2,72074, Note_on_c,0,65,64
2,72082, Note_on_c,0,77,84
2,72094, Note_on_c,0,56,0
2,72110, Note_on_c,0,83,53
2,72114, Note_on_c,0,62,0
2,72118, Note_on_c,0,71,76
2,72126, Note_on_c,0,74,0
2,72126, Note_on_c,0,86,94
2,72138, Note_on_c,0,77,0
2,72138, Note_on_c,0,65,0
2,72146, Note_on_c,0,71,0
2,72146, Note_on_c,0,83,0
2,72158, Note_on_c,0,86,0
2,72282, Note_on_c,0,56,67
2,72306, Note_on_c,0,62,55
2,72310, Note_on_c,0,77,79
2,72314, Note_on_c,0,65,56
2,72330, Note_on_c,0,56,0
2,72334, Note_on_c,0,83,70
2,72350, Note_on_c,0,86,70
2,72362, Note_on_c,0,71,78
2,72370, Note_on_c,0,62,0
2,72386, Note_on_c,0,83,0
2,72386, Note_on_c,0,89,109
2,72390, Note_on_c,0,77,0
2,72394, Note_on_c,0,65,0
2,72402, Note_on_c,0,71,0
2,72406, Note_on_c,0,86,0
2,72426, Note_on_c,0,89,0
2,72562, Note_on_c,0,55,82
2,72582, Control_c,0,64,104
2,72590, Control_c,0,64,0
2,72594, Note_on_c,0,61,72
2,72610, Note_on_c,0,64,72
2,72626, Note_on_c,0,55,0
2,72634, Control_c,0,64,88
2,72642, Control_c,0,64,127
2,72674, Note_on_c,0,88,102
2,72678, Note_on_c,0,76,89
2,72682, Note_on_c,0,70,82
2,72682, Note_on_c,0,79,76
2,72682, Note_on_c,0,82,72
2,72682, Note_on_c,0,85,75
2,72714, Note_on_c,0,70,0
2,72718, Note_on_c,0,76,0
2,72718, Note_on_c,0,64,0
2,72718, Note_on_c,0,79,0
2,72730, Note_on_c,0,88,0
2,72734, Note_on_c,0,85,0
2,72738, Note_on_c,0,61,0
2,72738, Note_on_c,0,82,0
2,72910, Note_on_c,0,52,93
2,72910, Note_on_c,0,43,80
2,72966, Note_on_c,0,52,0
2,72970, Note_on_c,0,43,0
2,72974, Note_on_c,0,46,60
2,72974, Note_on_c,0,55,83
2,73022, Note_on_c,0,49,55
2,73022, Note_on_c,0,58,69
2,73026, Note_on_c,0,46,0
2,73042, Note_on_c,0,55,0
2,73066, Note_on_c,0,49,0
2,73074, Note_on_c,0,61,68
2,73074, Note_on_c,0,52,74
2,73086, Note_on_c,0,58,0
2,73102, Note_on_c,0,61,0
2,73110, Note_on_c,0,52,0
2,73130, Note_on_c,0,64,87
2,73130, Note_on_c,0,55,70
2,73170, Note_on_c,0,55,0
2,73178, Note_on_c,0,64,0
2,73182, Note_on_c,0,58,56
2,73182, Note_on_c,0,67,77
2,73218, Note_on_c,0,58,0
2,73222, Note_on_c,0,61,47
2,73222, Note_on_c,0,70,73
2,73250, Note_on_c,0,67,0
2,73266, Note_on_c,0,61,0
2,73266, Note_on_c,0,73,73
2,73266, Note_on_c,0,64,64
2,73282, Note_on_c,0,70,0
2,73286, Note_on_c,0,73,0
2,73290, Note_on_c,0,64,0
2,73318, Note_on_c,0,76,90
2,73318, Note_on_c,0,67,70
2,73354, Note_on_c,0,67,0
2,73362, Note_on_c,0,79,82
2,73362, Note_on_c,0,70,56
2,73370, Note_on_c,0,76,0
2,73394, Note_on_c,0,70,0
2,73398, Note_on_c,0,73,60
2,73398, Note_on_c,0,82,67
2,73422, Note_on_c,0,79,0
2,73434, Note_on_c,0,85,65
2,73434, Note_on_c,0,76,43
2,73454, Note_on_c,0,76,0
2,73454, Note_on_c,0,73,0
2,73454, Note_on_c,0,82,0
2,73454, Note_on_c,0,85,0
2,73482, Note_on_c,0,88,85
2,73482, Note_on_c,0,79,73
2,73518, Note_on_c,0,88,0
2,73522, Note_on_c,0,79,0
2,73530, Note_on_c,0,91,78
2,73530, Note_on_c,0,82,65
2,73570, Note_on_c,0,82,0
2,73578, Note_on_c,0,94,74
2,73578, Note_on_c,0,85,62
2,73590, Note_on_c,0,91,0
2,73630, Note_on_c,0,97,90
2,73630, Note_on_c,0,88,80
2,73634, Note_on_c,0,85,0
2,73642, Note_on_c,0,94,0
2,73658, Note_on_c,0,88,0
2,73670, Note_on_c,0,97,0
2,73998, Note_on_c,0,61,98
2,74130, Note_on_c,0,61,0
2,74262, Note_on_c,0,58,100
2,74438, Note_on_c,0,58,0
2,74506, Note_on_c,0,56,101
2,74642, Note_on_c,0,56,0
2,74758, Control_c,0,64,88
2,74770, Control_c,0,64,0
2,74782, Note_on_c,0,55,103
2,74786, Note_on_c,0,49,90
2,74786, Note_on_c,0,46,90
2,74794, Note_on_c,0,28,78
2,74798, Note_on_c,0,40,92
2,74810, Control_c,0,64,127
2,74814, Note_on_c,0,46,0
2,74822, Note_on_c,0,28,0
2,74826, Note_on_c,0,49,0
2,74842, Note_on_c,0,40,0
2,74846, Note_on_c,0,55,0
2,74926, Note_on_c,0,55,66
2,74934, Note_on_c,0,46,71
2,74954, Note_on_c,0,55,0
2,74970, Note_on_c,0,58,61
2,74974, Note_on_c,0,46,0
2,74986, Note_on_c,0,49,60
2,75014, Note_on_c,0,61,65
2,75038, Note_on_c,0,52,66
2,75046, Note_on_c,0,49,0
2,75046, Note_on_c,0,58,0
2,75058, Note_on_c,0,64,73
2,75078, Note_on_c,0,52,0
2,75082, Note_on_c,0,61,0
2,75082, Note_on_c,0,55,77
2,75086, Note_on_c,0,64,0
2,75122, Note_on_c,0,55,0
2,75122, Note_on_c,0,67,77
2,75150, Note_on_c,0,58,59
2,75170, Note_on_c,0,67,0
2,75174, Note_on_c,0,70,67
2,75182, Note_on_c,0,61,56
2,75190, Note_on_c,0,58,0
2,75214, Note_on_c,0,73,67
2,75230, Note_on_c,0,64,68
2,75234, Note_on_c,0,61,0
2,75238, Note_on_c,0,70,0
2,75250, Note_on_c,0,76,68
2,75262, Note_on_c,0,64,0
2,75266, Note_on_c,0,76,0
2,75266, Note_on_c,0,73,0
2,75274, Note_on_c,0,67,73
2,75306, Note_on_c,0,79,77
2,75310, Note_on_c,0,67,0
2,75346, Note_on_c,0,79,0
2,75346, Note_on_c,0,70,57
2,75346, Note_on_c,0,82,63
2,75366, Note_on_c,0,73,56
2,75370, Note_on_c,0,70,0
2,75386, Note_on_c,0,85,69
2,75406, Note_on_c,0,82,0
2,75410, Note_on_c,0,73,0
2,75410, Note_on_c,0,76,65
2,75422, Note_on_c,0,88,68
2,75438, Note_on_c,0,88,0
2,75438, Note_on_c,0,85,0
2,75446, Note_on_c,0,76,0
2,75454, Note_on_c,0,79,70
2,75474, Note_on_c,0,79,0
2,75482, Note_on_c,0,89,39
2,75482, Note_on_c,0,91,64
2,75498, Note_on_c,0,89,0
2,75514, Note_on_c,0,91,0
2,75514, Note_on_c,0,82,63
2,75518, Note_on_c,0,94,70
2,75526, Note_on_c,0,85,69
2,75554, Note_on_c,0,82,0
2,75570, Note_on_c,0,94,0
2,75578, Note_on_c,0,97,87
2,75582, Note_on_c,0,85,0
2,75586, Note_on_c,0,88,89
2,75610, Note_on_c,0,88,0
2,75630, Note_on_c,0,97,0
2,75854, Note_on_c,0,64,99
2,76062, Note_on_c,0,64,0
2,76106, Note_on_c,0,61,101
2,76230, Note_on_c,0,61,0
2,76354, Note_on_c,0,60,100
2,76466, Note_on_c,0,60,0
2,76614, Control_c,0,64,88
2,76618, Note_on_c,0,58,103
2,76622, Note_on_c,0,49,89
2,76622, Control_c,0,64,0
2,76630, Note_on_c,0,31,82
2,76634, Note_on_c,0,43,105
2,76658, Control_c,0,64,40
2,76662, Note_on_c,0,49,0
2,76666, Control_c,0,64,127
2,76682, Note_on_c,0,31,0
2,76686, Note_on_c,0,58,0
2,76702, Note_on_c,0,43,0
2,76802, Note_on_c,0,58,77
2,76810, Note_on_c,0,49,74
2,76862, Note_on_c,0,61,71
2,76866, Note_on_c,0,58,0
2,76874, Note_on_c,0,49,0
2,76878, Note_on_c,0,52,71
2,76890, Note_on_c,0,61,0
2,76910, Note_on_c,0,52,0
2,76918, Note_on_c,0,55,79
2,76922, Note_on_c,0,64,74
2,76958, Note_on_c,0,55,0
2,76962, Note_on_c,0,64,0
2,76974, Note_on_c,0,67,79
2,76982, Note_on_c,0,58,62
2,77014, Note_on_c,0,61,56
2,77018, Note_on_c,0,70,73
2,77026, Note_on_c,0,58,0
2,77038, Note_on_c,0,67,0
2,77058, Note_on_c,0,73,73
2,77062, Note_on_c,0,64,64
2,77066, Note_on_c,0,61,0
2,77074, Note_on_c,0,70,0
2,77082, Note_on_c,0,73,0
2,77102, Note_on_c,0,64,0
2,77110, Note_on_c,0,67,73
2,77114, Note_on_c,0,76,84
2,77150, Note_on_c,0,67,0
2,77158, Note_on_c,0,76,0
2,77158, Note_on_c,0,79,81
2,77174, Note_on_c,0,70,63
2,77198, Note_on_c,0,82,68
2,77202, Note_on_c,0,73,62
2,77218, Note_on_c,0,70,0
2,77218, Note_on_c,0,79,0
2,77230, Note_on_c,0,85,65
2,77246, Note_on_c,0,85,0
2,77246, Note_on_c,0,82,0
2,77250, Note_on_c,0,76,71
2,77258, Note_on_c,0,73,0
2,77282, Note_on_c,0,88,83
2,77286, Note_on_c,0,76,0
2,77294, Note_on_c,0,79,74
2,77322, Note_on_c,0,88,0
2,77326, Note_on_c,0,91,82
2,77334, Note_on_c,0,79,0
2,77354, Note_on_c,0,82,65
2,77366, Note_on_c,0,85,71
2,77370, Note_on_c,0,94,73
2,77386, Note_on_c,0,82,0
2,77390, Note_on_c,0,91,0
2,77402, Note_on_c,0,97,75
2,77410, Note_on_c,0,85,0
2,77414, Note_on_c,0,88,83
2,77438, Note_on_c,0,94,0
2,77466, Note_on_c,0,100,97
2,77470, Note_on_c,0,91,88
2,77482, Note_on_c,0,88,0
2,77482, Note_on_c,0,97,0
2,77494, Note_on_c,0,91,0
2,77506, Note_on_c,0,100,0
2,77758, Note_on_c,0,67,100
2,77958, Note_on_c,0,67,0
2,78034, Note_on_c,0,64,100
2,78126, Note_on_c,0,64,0
2,78270, Note_on_c,0,63,102
2,78346, Note_on_c,0,63,0
2,78530, Control_c,0,64,88
2,78538, Control_c,0,64,0
2,78542, Note_on_c,0,61,96
2,78550, Note_on_c,0,52,87
2,78550, Note_on_c,0,55,82
2,78558, Note_on_c,0,34,74
2,78562, Note_on_c,0,46,99
2,78570, Control_c,0,64,72
2,78578, Note_on_c,0,55,0
2,78578, Note_on_c,0,52,0
2,78582, Control_c,0,64,127
2,78590, Note_on_c,0,46,0
2,78598, Note_on_c,0,34,0
2,78614, Note_on_c,0,61,0
2,78786, Note_on_c,0,64,58
2,78794, Note_on_c,0,46,64
2,78802, Note_on_c,0,67,59
2,78814, Note_on_c,0,73,66
2,78822, Note_on_c,0,52,64
2,78822, Note_on_c,0,76,96
2,78826, Note_on_c,0,55,69
2,78826, Control_c,0,64,40
2,78842, Control_c,0,64,88
2,78846, Note_on_c,0,64,0
2,78850, Note_on_c,0,52,0
2,78850, Note_on_c,0,46,0
2,78858, Note_on_c,0,67,0
2,78858, Control_c,0,64,127
2,78862, Note_on_c,0,61,56
2,78882, Note_on_c,0,73,0
2,78894, Note_on_c,0,76,0
2,78894, Note_on_c,0,55,0
2,78982, Note_on_c,0,61,0
2,79022, Note_on_c,0,46,64
2,79034, Note_on_c,0,55,64
2,79046, Note_on_c,0,52,65
2,79058, Note_on_c,0,76,83
2,79062, Note_on_c,0,79,97
2,79062, Note_on_c,0,73,56
2,79070, Note_on_c,0,46,0
2,79074, Note_on_c,0,52,0
2,79078, Note_on_c,0,61,69
2,79086, Note_on_c,0,73,0
2,79090, Note_on_c,0,55,0
2,79110, Note_on_c,0,76,0
2,79114, Note_on_c,0,79,0
2,79118, Note_on_c,0,61,0
2,79290, Note_on_c,0,73,72
2,79310, Note_on_c,0,76,69
2,79310, Note_on_c,0,79,86
2,79326, Note_on_c,0,85,93
2,79326, Note_on_c,0,67,68
2,79338, Note_on_c,0,76,0
2,79338, Note_on_c,0,58,60
2,79346, Note_on_c,0,73,0
2,79350, Note_on_c,0,64,55
2,79362, Note_on_c,0,79,0
2,79366, Note_on_c,0,58,0
2,79382, Note_on_c,0,73,38
2,79390, Note_on_c,0,64,0
2,79398, Note_on_c,0,85,0
2,79406, Note_on_c,0,67,0
2,79418, Note_on_c,0,73,0
2,79522, Note_on_c,0,76,68
2,79534, Note_on_c,0,79,43
2,79546, Note_on_c,0,67,60
2,79550, Note_on_c,0,58,65
2,79554, Note_on_c,0,88,107
2,79558, Note_on_c,0,85,70
2,79558, Note_on_c,0,64,48
2,79562, Note_on_c,0,76,0
2,79578, Note_on_c,0,58,0
2,79578, Note_on_c,0,79,0
2,79582, Note_on_c,0,85,0
2,79582, Note_on_c,0,73,71
2,79590, Note_on_c,0,64,0
2,79618, Note_on_c,0,88,0
2,79630, Note_on_c,0,67,0
2,79658, Note_on_c,0,73,0
2,79762, Note_on_c,0,58,66
2,79770, Note_on_c,0,67,64
2,79782, Note_on_c,0,64,65
2,79794, Note_on_c,0,79,77
2,79802, Note_on_c,0,85,52
2,79810, Note_on_c,0,88,84
2,79818, Note_on_c,0,58,0
2,79818, Note_on_c,0,91,102
2,79830, Note_on_c,0,73,83
2,79834, Note_on_c,0,64,0
2,79842, Note_on_c,0,79,0
2,79846, Note_on_c,0,67,0
2,79850, Note_on_c,0,85,0
2,79862, Note_on_c,0,88,0
2,79870, Note_on_c,0,73,0
2,79882, Note_on_c,0,91,0
2,80058, Note_on_c,0,85,84
2,80070, Note_on_c,0,70,59
2,80082, Note_on_c,0,88,63
2,80082, Note_on_c,0,79,69
2,80082, Note_on_c,0,76,60
2,80082, Note_on_c,0,91,68
2,80106, Note_on_c,0,70,0
2,80114, Note_on_c,0,85,0
2,80122, Note_on_c,0,88,0
2,80122, Note_on_c,0,97,95
2,80134, Note_on_c,0,85,76
2,80146, Note_on_c,0,91,0
2,80158, Note_on_c,0,76,0
2,80178, Note_on_c,0,79,0
2,80186, Note_on_c,0,97,0
2,80198, Note_on_c,0,85,0
2,80306, Note_on_c,0,70,61
2,80350, Note_on_c,0,79,64
2,80350, Note_on_c,0,76,52
2,80358, Note_on_c,0,88,80
2,80370, Note_on_c,0,70,0
2,80370, Note_on_c,0,91,71
2,80382, Note_on_c,0,76,0
2,80394, Note_on_c,0,85,78
2,80398, Note_on_c,0,97,73
2,80410, Note_on_c,0,88,0
2,80410, Note_on_c,0,100,105
2,80430, Note_on_c,0,91,0
2,80450, Note_on_c,0,97,0
2,80478, Note_on_c,0,100,0
2,80478, Note_on_c,0,79,0
2,80490, Note_on_c,0,85,0
2,80558, Note_on_c,0,70,74
2,80594, Note_on_c,0,76,74
2,80614, Note_on_c,0,79,75
2,80618, Note_on_c,0,70,0
2,80638, Note_on_c,0,76,0
2,80658, Note_on_c,0,85,82
2,80682, Note_on_c,0,91,80
2,80690, Note_on_c,0,79,0
2,80702, Note_on_c,0,97,74
2,80706, Note_on_c,0,85,0
2,80742, Note_on_c,0,100,74
2,80770, Note_on_c,0,91,0
2,80798, Note_on_c,0,97,0
2,80798, Note_on_c,0,103,107
2,80822, Note_on_c,0,100,0
2,80846, Note_on_c,0,103,0
2,81530, Control_c,0,64,24
2,81538, Control_c,0,64,40
2,81550, Control_c,0,64,56
2,81566, Control_c,0,64,72
2,81578, Control_c,0,64,88
2,81586, Control_c,0,64,104
2,81606, Control_c,0,64,127
2,81626, Note_on_c,0,100,78
2,81634, Note_on_c,0,91,55
2,81634, Note_on_c,0,94,38
2,81638, Note_on_c,0,85,47
2,81722, Note_on_c,0,94,0
2,81750, Note_on_c,0,100,0
2,81786, Note_on_c,0,102,71
2,81802, Note_on_c,0,90,56
2,81814, Note_on_c,0,91,0
2,81826, Note_on_c,0,85,0
2,81882, Note_on_c,0,102,0
2,81902, Note_on_c,0,90,0
2,81902, Note_on_c,0,103,78
2,81910, Note_on_c,0,88,55
2,81930, Note_on_c,0,88,0
2,81950, Note_on_c,0,103,0
2,82018, Note_on_c,0,97,71
2,82022, Note_on_c,0,88,60
2,82022, Note_on_c,0,91,52
2,82026, Note_on_c,0,82,44
2,82050, Note_on_c,0,91,0
2,82078, Note_on_c,0,97,0
2,82090, Note_on_c,0,88,0
2,82118, Note_on_c,0,87,58
2,82122, Note_on_c,0,99,74
2,82154, Note_on_c,0,82,0
2,82186, Note_on_c,0,87,0
2,82194, Note_on_c,0,99,0
2,82210, Note_on_c,0,85,60
2,82218, Note_on_c,0,100,73
2,82258, Note_on_c,0,100,0
2,82258, Note_on_c,0,85,0
2,82314, Note_on_c,0,79,54
2,82318, Note_on_c,0,85,56
2,82322, Note_on_c,0,94,68
2,82330, Note_on_c,0,88,47
2,82354, Note_on_c,0,88,0
2,82374, Note_on_c,0,94,0
2,82406, Note_on_c,0,85,0
2,82410, Note_on_c,0,95,80
2,82414, Note_on_c,0,83,56
2,82430, Note_on_c,0,79,0
2,82474, Note_on_c,0,95,0
2,82478, Note_on_c,0,83,0
2,82486, Note_on_c,0,82,56
2,82498, Note_on_c,0,97,69
2,82530, Note_on_c,0,82,0
2,82550, Note_on_c,0,97,0
2,82578, Note_on_c,0,82,36
2,82590, Note_on_c,0,76,56
2,82606, Note_on_c,0,91,66
2,82610, Note_on_c,0,85,32
2,82634, Note_on_c,0,85,0
2,82642, Note_on_c,0,91,0
2,82670, Note_on_c,0,76,0
2,82674, Note_on_c,0,82,0
2,82674, Note_on_c,0,80,62
2,82678, Note_on_c,0,92,74
2,82738, Note_on_c,0,92,0
2,82758, Note_on_c,0,94,68
2,82762, Note_on_c,0,80,0
2,82766, Note_on_c,0,79,66
2,82798, Note_on_c,0,79,0
2,82814, Note_on_c,0,94,0
2,82858, Note_on_c,0,88,74
2,82858, Note_on_c,0,82,37
2,82862, Note_on_c,0,79,62
2,82866, Note_on_c,0,73,51
2,82886, Note_on_c,0,82,0
2,82906, Note_on_c,0,88,0
2,82930, Note_on_c,0,90,73
2,82934, Note_on_c,0,79,0
2,82934, Note_on_c,0,78,69
2,82970, Note_on_c,0,73,0
2,83018, Note_on_c,0,78,0
2,83018, Note_on_c,0,91,78
2,83026, Note_on_c,0,76,52
2,83034, Note_on_c,0,90,0
2,83046, Note_on_c,0,76,0
2,83058, Note_on_c,0,91,0
2,83106, Note_on_c,0,85,73
2,83110, Note_on_c,0,76,65
2,83114, Note_on_c,0,79,60
2,83122, Note_on_c,0,70,49
2,83146, Note_on_c,0,79,0
2,83166, Note_on_c,0,85,0
2,83174, Note_on_c,0,76,0
2,83190, Note_on_c,0,87,76
2,83194, Note_on_c,0,75,65
2,83214, Note_on_c,0,70,0
2,83250, Note_on_c,0,87,0
2,83270, Note_on_c,0,88,74
2,83274, Note_on_c,0,75,0
2,83278, Note_on_c,0,73,61
2,83306, Note_on_c,0,88,0
2,83318, Note_on_c,0,73,0
2,83350, Note_on_c,0,73,58
2,83358, Note_on_c,0,82,73
2,83358, Note_on_c,0,67,62
2,83362, Note_on_c,0,76,51
2,83386, Note_on_c,0,76,0
2,83398, Note_on_c,0,82,0
2,83430, Note_on_c,0,73,0
2,83434, Note_on_c,0,83,82
2,83438, Note_on_c,0,71,64
2,83454, Note_on_c,0,67,0
2,83494, Note_on_c,0,83,0
2,83502, Note_on_c,0,71,0
2,83506, Note_on_c,0,70,65
2,83506, Note_on_c,0,85,75
2,83542, Note_on_c,0,70,0
2,83558, Note_on_c,0,85,0
2,83586, Note_on_c,0,70,54
2,83590, Note_on_c,0,79,81
2,83590, Note_on_c,0,73,55
2,83594, Note_on_c,0,64,59
2,83634, Note_on_c,0,79,0
2,83642, Note_on_c,0,70,0
2,83650, Note_on_c,0,73,0
2,83662, Note_on_c,0,64,0
2,83666, Note_on_c,0,80,74
2,83666, Note_on_c,0,68,61
2,83726, Note_on_c,0,80,0
2,83738, Note_on_c,0,82,63
2,83742, Note_on_c,0,67,65
2,83746, Note_on_c,0,68,0
2,83762, Note_on_c,0,67,0
2,83790, Note_on_c,0,82,0
2,83818, Note_on_c,0,70,45
2,83822, Note_on_c,0,76,73
2,83826, Note_on_c,0,67,58
2,83834, Note_on_c,0,61,52
2,83858, Note_on_c,0,70,0
2,83866, Note_on_c,0,76,0
2,83886, Note_on_c,0,67,0
2,83890, Note_on_c,0,78,73
2,83890, Note_on_c,0,66,56
2,83926, Note_on_c,0,61,0
2,83962, Note_on_c,0,64,63
2,83966, Note_on_c,0,66,0
2,83966, Note_on_c,0,79,78
2,83982, Note_on_c,0,64,0
2,84002, Note_on_c,0,79,0
2,84006, Note_on_c,0,78,0
2,84050, Note_on_c,0,73,76
2,84050, Note_on_c,0,64,73
2,84050, Note_on_c,0,67,56
2,84062, Note_on_c,0,58,48
2,84098, Note_on_c,0,67,0
2,84102, Note_on_c,0,73,0
2,84110, Note_on_c,0,64,0
2,84126, Note_on_c,0,75,73
2,84130, Note_on_c,0,63,60
2,84154, Note_on_c,0,58,0
2,84186, Note_on_c,0,75,0
2,84194, Note_on_c,0,76,77
2,84206, Note_on_c,0,61,61
2,84214, Note_on_c,0,63,0
2,84238, Note_on_c,0,76,0
2,84254, Note_on_c,0,61,0
2,84282, Note_on_c,0,61,63
2,84282, Note_on_c,0,70,75
2,84290, Note_on_c,0,55,73
2,84290, Note_on_c,0,64,53
2,84310, Note_on_c,0,64,0
2,84326, Note_on_c,0,70,0
2,84354, Note_on_c,0,71,82
2,84362, Note_on_c,0,59,66
2,84366, Note_on_c,0,55,0
2,84366, Note_on_c,0,61,0
2,84414, Note_on_c,0,71,0
2,84426, Note_on_c,0,73,73
2,84430, Note_on_c,0,59,0
2,84430, Note_on_c,0,58,53
2,84450, Note_on_c,0,58,0
2,84478, Note_on_c,0,73,0
2,84494, Note_on_c,0,58,56
2,84506, Note_on_c,0,67,78
2,84506, Note_on_c,0,52,66
2,84510, Note_on_c,0,61,52
2,84554, Note_on_c,0,67,0
2,84566, Note_on_c,0,52,0
2,84570, Note_on_c,0,58,0
2,84574, Note_on_c,0,56,64
2,84582, Note_on_c,0,68,72
2,84610, Note_on_c,0,61,0
2,84642, Note_on_c,0,68,0
2,84650, Note_on_c,0,55,70
2,84654, Note_on_c,0,56,0
2,84654, Note_on_c,0,70,71
2,84666, Note_on_c,0,55,0
2,84698, Note_on_c,0,70,0
2,84722, Note_on_c,0,58,60
2,84726, Note_on_c,0,64,80
2,84730, Note_on_c,0,55,73
2,84734, Note_on_c,0,49,67
2,84766, Note_on_c,0,58,0
2,84774, Note_on_c,0,55,0
2,84782, Note_on_c,0,64,0
2,84794, Note_on_c,0,54,62
2,84794, Note_on_c,0,66,71
2,84822, Note_on_c,0,49,0
2,84862, Note_on_c,0,67,77
2,84862, Note_on_c,0,52,75
2,84874, Note_on_c,0,54,0
2,84886, Note_on_c,0,66,0
2,84886, Note_on_c,0,52,0
2,84906, Note_on_c,0,67,0
2,84946, Note_on_c,0,61,80
2,84946, Note_on_c,0,52,81
2,84950, Note_on_c,0,55,62
2,84954, Note_on_c,0,46,62
2,84982, Note_on_c,0,55,0
2,85002, Note_on_c,0,61,0
2,85002, Note_on_c,0,52,0
2,85018, Note_on_c,0,63,76
2,85018, Note_on_c,0,51,76
2,85046, Note_on_c,0,46,0
2,85082, Note_on_c,0,64,83
2,85086, Note_on_c,0,49,75
2,85098, Note_on_c,0,51,0
2,85114, Note_on_c,0,63,0
2,85126, Note_on_c,0,64,0
2,85142, Note_on_c,0,49,0
2,85170, Note_on_c,0,58,81
2,85170, Note_on_c,0,49,79
2,85174, Note_on_c,0,52,66
2,85174, Note_on_c,0,43,75
2,85222, Note_on_c,0,52,0
2,85222, Note_on_c,0,58,0
2,85246, Note_on_c,0,59,74
2,85250, Note_on_c,0,47,76
2,85254, Note_on_c,0,49,0
2,85282, Note_on_c,0,43,0
2,85306, Note_on_c,0,59,0
2,85314, Note_on_c,0,61,78
2,85314, Note_on_c,0,46,70
2,85318, Note_on_c,0,47,0
2,85350, Note_on_c,0,46,0
2,85366, Note_on_c,0,61,0
2,85386, Note_on_c,0,46,71
2,85394, Note_on_c,0,55,87
2,85394, Note_on_c,0,40,64
2,85394, Note_on_c,0,49,64
2,85434, Note_on_c,0,49,0
2,85442, Note_on_c,0,55,0
2,85458, Note_on_c,0,44,67
2,85462, Note_on_c,0,40,0
2,85466, Note_on_c,0,56,81
2,85470, Note_on_c,0,46,0
2,85538, Note_on_c,0,56,0
2,85538, Note_on_c,0,58,74
2,85538, Note_on_c,0,43,79
2,85558, Note_on_c,0,44,0
2,85574, Note_on_c,0,43,0
2,85586, Note_on_c,0,58,0
2,85622, Note_on_c,0,52,88
2,85622, Note_on_c,0,43,80
2,85626, Note_on_c,0,46,65
2,85630, Note_on_c,0,37,71
2,85670, Note_on_c,0,46,0
2,85682, Note_on_c,0,52,0
2,85694, Note_on_c,0,42,80
2,85698, Note_on_c,0,43,0
2,85698, Note_on_c,0,54,78
2,85726, Note_on_c,0,37,0
2,85766, Note_on_c,0,40,74
2,85774, Note_on_c,0,55,84
2,85786, Note_on_c,0,42,0
2,85798, Note_on_c,0,54,0
2,85802, Note_on_c,0,40,0
2,85814, Note_on_c,0,55,0
2,85862, Note_on_c,0,40,83
2,85862, Note_on_c,0,49,92
2,85870, Note_on_c,0,43,70
2,85870, Note_on_c,0,34,71
2,85906, Note_on_c,0,43,0
2,85922, Note_on_c,0,49,0
2,85942, Note_on_c,0,40,0
2,85946, Note_on_c,0,51,88
2,85946, Note_on_c,0,39,74
2,85970, Note_on_c,0,34,0
2,86014, Note_on_c,0,51,0
2,86030, Note_on_c,0,52,88
2,86042, Note_on_c,0,37,77
2,86050, Note_on_c,0,39,0
2,86078, Note_on_c,0,52,0
2,86146, Note_on_c,0,37,0
2,86190, Control_c,0,64,104
2,86198, Note_on_c,0,51,99
2,86198, Note_on_c,0,37,83
2,86198, Note_on_c,0,42,88
2,86202, Note_on_c,0,33,84
2,86202, Control_c,0,64,0
2,86242, Note_on_c,0,42,0
2,86246, Control_c,0,64,56
2,86254, Control_c,0,64,127
2,86258, Note_on_c,0,33,0
2,86270, Note_on_c,0,37,0
2,86322, Note_on_c,0,51,0
2,86346, Note_on_c,0,45,72
2,86346, Note_on_c,0,37,64
2,86382, Note_on_c,0,45,0
2,86390, Note_on_c,0,37,0
2,86418, Note_on_c,0,49,85
2,86418, Note_on_c,0,40,63
2,86462, Note_on_c,0,40,0
2,86482, Note_on_c,0,49,0
2,86490, Note_on_c,0,51,81
2,86490, Note_on_c,0,42,75
2,86554, Note_on_c,0,42,0
2,86554, Note_on_c,0,54,75
2,86554, Note_on_c,0,45,83
2,86570, Note_on_c,0,51,0
2,86590, Note_on_c,0,45,0
2,86594, Note_on_c,0,54,0
2,86634, Note_on_c,0,57,82
2,86634, Note_on_c,0,49,82
2,86662, Note_on_c,0,57,0
2,86698, Note_on_c,0,49,0
2,86698, Note_on_c,0,61,78
2,86698, Note_on_c,0,51,78
2,86766, Note_on_c,0,63,74
2,86766, Note_on_c,0,54,69
2,86770, Note_on_c,0,51,0
2,86790, Note_on_c,0,61,0
2,86826, Note_on_c,0,57,77
2,86826, Note_on_c,0,66,81
2,86834, Note_on_c,0,54,0
2,86850, Note_on_c,0,63,0
2,86870, Note_on_c,0,57,0
2,86870, Note_on_c,0,66,0
2,86890, Note_on_c,0,61,73
2,86890, Note_on_c,0,69,89
2,86942, Note_on_c,0,61,0
2,86946, Note_on_c,0,69,0
2,86954, Note_on_c,0,63,69
2,86954, Note_on_c,0,73,79
2,87014, Note_on_c,0,66,60
2,87014, Note_on_c,0,75,77
2,87026, Note_on_c,0,63,0
2,87054, Note_on_c,0,73,0
2,87070, Note_on_c,0,66,0
2,87070, Note_on_c,0,69,77
2,87070, Note_on_c,0,78,84
2,87094, Note_on_c,0,75,0
2,87110, Note_on_c,0,78,0
2,87110, Note_on_c,0,69,0
2,87142, Note_on_c,0,73,77
2,87142, Note_on_c,0,81,82
2,87182, Note_on_c,0,81,0
2,87202, Note_on_c,0,73,0
2,87202, Note_on_c,0,75,69
2,87202, Note_on_c,0,85,89
2,87270, Note_on_c,0,87,85
2,87274, Note_on_c,0,78,76
2,87278, Note_on_c,0,75,0
2,87306, Note_on_c,0,85,0
2,87326, Note_on_c,0,78,0
2,87330, Note_on_c,0,81,82
2,87330, Note_on_c,0,90,77
2,87346, Note_on_c,0,87,0
2,87366, Note_on_c,0,90,0
2,87370, Note_on_c,0,81,0
2,87398, Note_on_c,0,85,77
2,87398, Note_on_c,0,93,83
2,87434, Note_on_c,0,93,0
2,87458, Note_on_c,0,85,0
2,87458, Note_on_c,0,87,75
2,87458, Note_on_c,0,97,91
2,87502, Note_on_c,0,97,0
2,87518, Note_on_c,0,87,0
2,87518, Note_on_c,0,90,76
2,87518, Note_on_c,0,99,92
2,87566, Note_on_c,0,99,0
2,87574, Note_on_c,0,90,0
2,87582, Note_on_c,0,93,83
2,87582, Note_on_c,0,102,94
2,87650, Note_on_c,0,93,0
2,87670, Note_on_c,0,102,0
2,87670, Note_on_c,0,97,95
2,87670, Note_on_c,0,105,103
2,87710, Note_on_c,0,97,0
2,87722, Note_on_c,0,105,0
2,88322, Control_c,0,64,0
2,88662, Note_on_c,0,45,82
2,88662, Note_on_c,0,33,80
2,88662, Note_on_c,0,57,80
2,88702, Note_on_c,0,33,0
2,88706, Note_on_c,0,57,0
2,88706, Note_on_c,0,45,0
2,88926, Note_on_c,0,54,81
2,88930, Note_on_c,0,42,79
2,88930, Note_on_c,0,30,71
2,88970, Note_on_c,0,54,0
2,88974, Note_on_c,0,30,0
2,88974, Note_on_c,0,42,0
2,89174, Note_on_c,0,28,75
2,89178, Note_on_c,0,52,87
2,89178, Note_on_c,0,40,79
2,89230, Note_on_c,0,52,0
2,89242, Note_on_c,0,40,0
2,89250, Note_on_c,0,28,0
2,89442, Note_on_c,0,51,95
2,89446, Note_on_c,0,39,86
2,89450, Note_on_c,0,27,81
2,89482, Control_c,0,64,40
2,89490, Note_on_c,0,39,0
2,89498, Control_c,0,64,104
2,89510, Note_on_c,0,27,0
2,89514, Note_on_c,0,51,0
2,89514, Control_c,0,64,127
2,89862, Note_on_c,0,51,62
2,89882, Note_on_c,0,69,61
2,89902, Note_on_c,0,57,52
2,89906, Note_on_c,0,73,68
2,89910, Note_on_c,0,61,60
2,89946, Note_on_c,0,51,0
2,89954, Note_on_c,0,78,69
2,89962, Note_on_c,0,66,87
2,89966, Note_on_c,0,81,89
2,89974, Note_on_c,0,69,0
2,89974, Note_on_c,0,61,0
2,89986, Note_on_c,0,66,0
2,89994, Note_on_c,0,73,0
2,89998, Note_on_c,0,57,0
2,90002, Note_on_c,0,78,0
2,90010, Note_on_c,0,81,0
2,90206, Control_c,0,64,0
2,90222, Note_on_c,0,49,97
2,90222, Note_on_c,0,61,82
2,90222, Note_on_c,0,37,73
2,90254, Note_on_c,0,37,0
2,90258, Note_on_c,0,61,0
2,90258, Note_on_c,0,49,0
2,90350, Control_c,0,64,0
2,90478, Note_on_c,0,45,87
2,90478, Note_on_c,0,57,90
2,90478, Note_on_c,0,33,63
2,90502, Note_on_c,0,33,0
2,90526, Note_on_c,0,45,0
2,90542, Note_on_c,0,57,0
2,90714, Note_on_c,0,56,92
2,90714, Note_on_c,0,32,77
2,90714, Note_on_c,0,44,81
2,90758, Note_on_c,0,44,0
2,90762, Note_on_c,0,32,0
2,90790, Note_on_c,0,56,0
2,90982, Note_on_c,0,54,93
2,90994, Note_on_c,0,42,91
2,90998, Note_on_c,0,30,73
2,91034, Note_on_c,0,54,0
2,91034, Control_c,0,64,104
2,91042, Note_on_c,0,42,0
2,91046, Note_on_c,0,30,0
2,91050, Control_c,0,64,127
2,91346, Note_on_c,0,54,67
2,91394, Note_on_c,0,60,75
2,91406, Note_on_c,0,72,84
2,91406, Note_on_c,0,63,65
2,91418, Note_on_c,0,75,73
2,91434, Note_on_c,0,54,0
2,91450, Note_on_c,0,81,68
2,91450, Note_on_c,0,69,86
2,91474, Note_on_c,0,60,0
2,91474, Note_on_c,0,72,0
2,91474, Note_on_c,0,84,92
2,91482, Note_on_c,0,69,0
2,91486, Note_on_c,0,75,0
2,91494, Note_on_c,0,63,0
2,91510, Note_on_c,0,81,0
2,91510, Note_on_c,0,84,0
2,91726, Note_on_c,0,51,95
2,91730, Note_on_c,0,63,87
2,91738, Note_on_c,0,39,83
2,91762, Control_c,0,64,72
2,91770, Note_on_c,0,51,0
2,91778, Control_c,0,64,24
2,91782, Note_on_c,0,39,0
2,91790, Control_c,0,64,0
2,91794, Note_on_c,0,63,0
2,91970, Note_on_c,0,36,77
2,91974, Note_on_c,0,60,89
2,91974, Note_on_c,0,48,87
2,92010, Note_on_c,0,36,0
2,92030, Note_on_c,0,48,0
2,92042, Note_on_c,0,60,0
2,92206, Note_on_c,0,58,87
2,92206, Note_on_c,0,34,75
2,92206, Note_on_c,0,46,80
2,92258, Note_on_c,0,46,0
2,92266, Note_on_c,0,34,0
2,92294, Note_on_c,0,58,0
2,92474, Note_on_c,0,57,92
2,92490, Note_on_c,0,45,92
2,92494, Note_on_c,0,33,58
2,92506, Control_c,0,64,40
2,92518, Note_on_c,0,33,0
2,92518, Note_on_c,0,57,0
2,92522, Control_c,0,64,104
2,92538, Control_c,0,64,127
2,92546, Note_on_c,0,45,0
2,92830, Note_on_c,0,63,60
2,92834, Note_on_c,0,72,78
2,92834, Note_on_c,0,66,63
2,92842, Note_on_c,0,75,85
2,92846, Note_on_c,0,87,85
2,92846, Note_on_c,0,60,59
2,92850, Note_on_c,0,78,70
2,92862, Note_on_c,0,84,66
2,92870, Note_on_c,0,60,0
2,92874, Note_on_c,0,72,0
2,92878, Note_on_c,0,78,0
2,92886, Note_on_c,0,84,0
2,92886, Note_on_c,0,75,0
2,92890, Note_on_c,0,66,0
2,92890, Note_on_c,0,63,0
2,92894, Note_on_c,0,87,0
2,92930, Note_on_c,0,75,85
2,92930, Note_on_c,0,87,96
2,92930, Note_on_c,0,72,80
2,92930, Note_on_c,0,66,64
2,92930, Note_on_c,0,63,60
2,92938, Note_on_c,0,78,67
2,92942, Note_on_c,0,60,53
2,92946, Note_on_c,0,84,59
2,92966, Note_on_c,0,60,0
2,92970, Note_on_c,0,84,0
2,92982, Note_on_c,0,63,0
2,92982, Note_on_c,0,75,0
2,92982, Note_on_c,0,72,0
2,92982, Note_on_c,0,66,0
2,92982, Note_on_c,0,78,0
2,92994, Note_on_c,0,87,0
2,93482, Control_c,0,64,104
2,93502, Control_c,0,64,72
2,93514, Control_c,0,64,40
2,93530, Control_c,0,64,24
2,93542, Control_c,0,64,0
2,93654, Note_on_c,0,66,82
2,93654, Note_on_c,0,54,81
2,93654, Note_on_c,0,42,79
2,93702, Note_on_c,0,42,0
2,93702, Note_on_c,0,54,0
2,93706, Note_on_c,0,66,0
2,93894, Note_on_c,0,63,81
2,93894, Note_on_c,0,51,88
2,93898, Note_on_c,0,39,80
2,93946, Note_on_c,0,39,0
2,93950, Note_on_c,0,51,0
2,93966, Note_on_c,0,63,0
2,94122, Note_on_c,0,61,88
2,94122, Note_on_c,0,49,78
2,94122, Note_on_c,0,37,82
2,94166, Note_on_c,0,37,0
2,94166, Note_on_c,0,61,0
2,94170, Note_on_c,0,49,0
2,94382, Note_on_c,0,60,94
2,94386, Note_on_c,0,48,88
2,94402, Note_on_c,0,36,77
2,94414, Note_on_c,0,48,0
2,94430, Control_c,0,64,56
2,94434, Note_on_c,0,36,0
2,94442, Control_c,0,64,127
2,94458, Note_on_c,0,60,0
2,94774, Note_on_c,0,72,79
2,94774, Note_on_c,0,75,83
2,94774, Note_on_c,0,87,85
2,94774, Note_on_c,0,66,56
2,94774, Note_on_c,0,69,70
2,94786, Note_on_c,0,60,64
2,94786, Note_on_c,0,84,69
2,94790, Note_on_c,0,63,39
2,94790, Note_on_c,0,81,66
2,94814, Note_on_c,0,81,0
2,94814, Note_on_c,0,75,0
2,94814, Note_on_c,0,63,0
2,94814, Note_on_c,0,66,0
2,94814, Note_on_c,0,84,0
2,94814, Note_on_c,0,60,0
2,94818, Note_on_c,0,72,0
2,94818, Note_on_c,0,87,0
2,94822, Note_on_c,0,69,0
2,94866, Note_on_c,0,87,86
2,94866, Note_on_c,0,75,82
2,94866, Note_on_c,0,84,64
2,94874, Note_on_c,0,81,61
2,94878, Note_on_c,0,60,66
2,94878, Note_on_c,0,69,75
2,94878, Note_on_c,0,72,80
2,94882, Note_on_c,0,66,58
2,94894, Note_on_c,0,63,37
2,94898, Note_on_c,0,84,0
2,94902, Note_on_c,0,81,0
2,94918, Note_on_c,0,63,0
2,94918, Note_on_c,0,75,0
2,94918, Note_on_c,0,60,0
2,94918, Note_on_c,0,72,0
2,94926, Note_on_c,0,66,0
2,94930, Note_on_c,0,87,0
2,94930, Note_on_c,0,69,0
2,95482, Control_c,0,64,104
2,95498, Control_c,0,64,72
2,95514, Control_c,0,64,56
2,95530, Control_c,0,64,24
2,95546, Control_c,0,64,0
2,95602, Note_on_c,0,69,92
2,95606, Note_on_c,0,45,83
2,95610, Note_on_c,0,57,80
2,95654, Note_on_c,0,69,0
2,95658, Note_on_c,0,57,0
2,95662, Note_on_c,0,45,0
2,95838, Note_on_c,0,66,84
2,95838, Note_on_c,0,42,73
2,95838, Note_on_c,0,54,86
2,95898, Note_on_c,0,54,0
2,95906, Note_on_c,0,42,0
2,95914, Note_on_c,0,66,0
2,96086, Note_on_c,0,65,86
2,96090, Note_on_c,0,53,81
2,96098, Note_on_c,0,41,71
2,96154, Note_on_c,0,53,0
2,96154, Note_on_c,0,65,0
2,96178, Note_on_c,0,41,0
2,96334, Note_on_c,0,39,75
2,96334, Note_on_c,0,63,89
2,96338, Note_on_c,0,51,90
2,96370, Note_on_c,0,51,0
2,96378, Control_c,0,64,104
2,96386, Note_on_c,0,39,0
2,96394, Control_c,0,64,127
2,96398, Note_on_c,0,63,0
2,96706, Note_on_c,0,72,78
2,96706, Note_on_c,0,69,69
2,96710, Note_on_c,0,66,54
2,96710, Note_on_c,0,90,93
2,96714, Note_on_c,0,78,85
2,96714, Note_on_c,0,60,54
2,96722, Note_on_c,0,84,77
2,96726, Note_on_c,0,81,71
2,96746, Note_on_c,0,60,0
2,96750, Note_on_c,0,81,0
2,96750, Note_on_c,0,84,0
2,96758, Note_on_c,0,72,0
2,96758, Note_on_c,0,69,0
2,96762, Note_on_c,0,90,0
2,96762, Note_on_c,0,66,0
2,96766, Note_on_c,0,78,0
2,96810, Note_on_c,0,90,87
2,96814, Note_on_c,0,78,95
2,96814, Note_on_c,0,66,69
2,96818, Note_on_c,0,60,64
2,96818, Note_on_c,0,81,77
2,96818, Note_on_c,0,72,87
2,96818, Note_on_c,0,84,81
2,96822, Note_on_c,0,69,74
2,96838, Note_on_c,0,63,31
2,96850, Note_on_c,0,60,0
2,96858, Note_on_c,0,81,0
2,96858, Note_on_c,0,84,0
2,96866, Note_on_c,0,78,0
2,96866, Note_on_c,0,72,0
2,96870, Note_on_c,0,69,0
2,96870, Note_on_c,0,63,0
2,96870, Note_on_c,0,66,0
2,96882, Note_on_c,0,90,0
2,97386, Control_c,0,64,88
2,97402, Control_c,0,64,56
2,97418, Control_c,0,64,24
2,97434, Control_c,0,64,0
2,97546, Note_on_c,0,48,87
2,97546, Note_on_c,0,72,97
2,97550, Note_on_c,0,60,96
2,97598, Note_on_c,0,60,0
2,97598, Note_on_c,0,48,0
2,97614, Note_on_c,0,72,0
2,97794, Note_on_c,0,57,86
2,97794, Note_on_c,0,45,96
2,97798, Note_on_c,0,69,93
2,97850, Note_on_c,0,57,0
2,97854, Note_on_c,0,45,0
2,97866, Note_on_c,0,69,0
2,98026, Note_on_c,0,68,85
2,98026, Note_on_c,0,56,87
2,98034, Note_on_c,0,44,71
2,98102, Note_on_c,0,56,0
2,98110, Note_on_c,0,44,0
2,98138, Note_on_c,0,68,0
2,98274, Note_on_c,0,66,85
2,98274, Note_on_c,0,54,85
2,98274, Note_on_c,0,42,73
2,98286, Control_c,0,64,24
2,98302, Control_c,0,64,88
2,98314, Note_on_c,0,54,0
2,98318, Control_c,0,64,127
2,98326, Note_on_c,0,42,0
2,98346, Note_on_c,0,66,0
2,98550, Control_c,0,64,104
2,98566, Control_c,0,64,72
2,98578, Control_c,0,64,56
2,98594, Control_c,0,64,40
2,98610, Control_c,0,64,24
2,98626, Control_c,0,64,0
2,99482, Note_on_c,0,78,83
2,99490, Note_on_c,0,66,85
2,99494, Note_on_c,0,54,72
2,99550, Note_on_c,0,54,0
2,99554, Note_on_c,0,66,0
2,99562, Note_on_c,0,78,0
2,99730, Note_on_c,0,75,89
2,99734, Note_on_c,0,63,82
2,99742, Note_on_c,0,51,83
2,99798, Note_on_c,0,63,0
2,99802, Note_on_c,0,51,0
2,99818, Note_on_c,0,75,0
2,99958, Note_on_c,0,73,90
2,99962, Note_on_c,0,49,69
2,99966, Note_on_c,0,61,84
2,100026, Note_on_c,0,61,0
2,100054, Note_on_c,0,49,0
2,100070, Note_on_c,0,73,0
2,100206, Note_on_c,0,72,94
2,100210, Note_on_c,0,60,82
2,100210, Note_on_c,0,48,83
2,100238, Control_c,0,64,56
2,100254, Control_c,0,64,127
2,100262, Note_on_c,0,60,0
2,100270, Note_on_c,0,48,0
2,100278, Note_on_c,0,72,0
2,100594, Control_c,0,64,88
2,100610, Control_c,0,64,72
2,100626, Control_c,0,64,56
2,100642, Control_c,0,64,40
2,100658, Control_c,0,64,24
2,100674, Control_c,0,64,0
2,101442, Note_on_c,0,84,88
2,101442, Note_on_c,0,72,84
2,101442, Note_on_c,0,60,78
2,101498, Note_on_c,0,72,0
2,101502, Note_on_c,0,84,0
2,101510, Note_on_c,0,60,0
2,101690, Note_on_c,0,57,80
2,101694, Note_on_c,0,81,89
2,101694, Note_on_c,0,69,84
2,101746, Note_on_c,0,57,0
2,101758, Note_on_c,0,69,0
2,101770, Note_on_c,0,81,0
2,101922, Note_on_c,0,80,85
2,101926, Note_on_c,0,68,82
2,101926, Note_on_c,0,56,77
2,101998, Note_on_c,0,68,0
2,102002, Note_on_c,0,56,0
2,102010, Note_on_c,0,80,0
2,102170, Note_on_c,0,54,75
2,102170, Note_on_c,0,66,79
2,102170, Note_on_c,0,78,87
2,102190, Control_c,0,64,40
2,102202, Control_c,0,64,88
2,102222, Control_c,0,64,127
2,102226, Note_on_c,0,66,0
2,102238, Note_on_c,0,54,0
2,102242, Note_on_c,0,78,0
2,102486, Control_c,0,64,104
2,102502, Control_c,0,64,88
2,102530, Control_c,0,64,72
2,102542, Control_c,0,64,56
2,102578, Control_c,0,64,40
2,102622, Control_c,0,64,24
2,102670, Control_c,0,64,0
2,103230, Control_c,0,64,40
2,103246, Control_c,0,64,72
2,103262, Control_c,0,64,104
2,103278, Control_c,0,64,127
2,103334, Note_on_c,0,90,76
2,103334, Note_on_c,0,78,67
2,103334, Note_on_c,0,66,65
2,103442, Note_on_c,0,78,0
2,103450, Note_on_c,0,90,0
2,103562, Note_on_c,0,66,0
2,103606, Note_on_c,0,87,87
2,103606, Note_on_c,0,75,82
2,103614, Note_on_c,0,63,62
2,103706, Note_on_c,0,75,0
2,103714, Note_on_c,0,87,0
2,103842, Note_on_c,0,63,0
2,103854, Note_on_c,0,61,61
2,103858, Note_on_c,0,73,85
2,103858, Note_on_c,0,85,89
2,103950, Note_on_c,0,85,0
2,103994, Note_on_c,0,73,0
2,104110, Note_on_c,0,61,0
2,104114, Note_on_c,0,72,87
2,104114, Note_on_c,0,84,94
2,104134, Note_on_c,0,60,74
2,104158, Note_on_c,0,72,0
2,104194, Note_on_c,0,84,0
2,104338, Note_on_c,0,60,0
2,104462, Note_on_c,0,93,102
2,104470, Note_on_c,0,81,77
2,104470, Note_on_c,0,69,71
2,104594, Note_on_c,0,93,0
2,104630, Note_on_c,0,81,0
2,104678, Note_on_c,0,69,0
2,104818, Note_on_c,0,78,85
2,104822, Note_on_c,0,90,93
2,104850, Note_on_c,0,66,70
2,104918, Note_on_c,0,78,0
2,104926, Note_on_c,0,90,0
2,105078, Note_on_c,0,87,89
2,105078, Note_on_c,0,75,85
2,105078, Note_on_c,0,63,71
2,105090, Note_on_c,0,66,0
2,105170, Note_on_c,0,87,0
2,105170, Note_on_c,0,75,0
2,105314, Note_on_c,0,63,0
2,105318, Note_on_c,0,60,69
2,105318, Note_on_c,0,84,93
2,105330, Note_on_c,0,72,86
2,105410, Note_on_c,0,84,0
2,105422, Note_on_c,0,72,0
2,105562, Note_on_c,0,58,64
2,105566, Note_on_c,0,60,0
2,105574, Note_on_c,0,82,90
2,105574, Note_on_c,0,70,85
2,105698, Note_on_c,0,82,0
2,105726, Note_on_c,0,70,0
2,105794, Note_on_c,0,58,0
2,105814, Note_on_c,0,81,96
2,105814, Note_on_c,0,57,64
2,105822, Note_on_c,0,69,86
2,105902, Note_on_c,0,69,0
2,106010, Note_on_c,0,81,0
2,106066, Note_on_c,0,80,91
2,106070, Note_on_c,0,68,79
2,106074, Note_on_c,0,56,78
2,106078, Note_on_c,0,57,0
2,106222, Note_on_c,0,68,0
2,106230, Note_on_c,0,80,0
2,106378, Note_on_c,0,79,90
2,106386, Note_on_c,0,56,0
2,106386, Note_on_c,0,55,82
2,106386, Note_on_c,0,67,75
2,106422, Control_c,0,64,104
2,106438, Control_c,0,64,40
2,106454, Control_c,0,64,0
2,106486, Control_c,0,64,40
2,106502, Control_c,0,64,127
2,106510, Note_on_c,0,67,0
2,106534, Note_on_c,0,79,0
2,106538, Note_on_c,0,55,0
2,107518, Note_on_c,0,37,84
2,107518, Note_on_c,0,25,73
2,107538, Note_on_c,0,25,0
2,107538, Control_c,0,64,72
2,107550, Note_on_c,0,37,0
2,107550, Control_c,0,64,127
2,107734, Note_on_c,0,53,74
2,107734, Note_on_c,0,61,71
2,107738, Note_on_c,0,73,68
2,107738, Note_on_c,0,56,61
2,107750, Note_on_c,0,68,48
2,107750, Note_on_c,0,65,59
2,107750, Note_on_c,0,49,37
2,107750, Note_on_c,0,44,31
2,107758, Note_on_c,0,56,0
2,107766, Note_on_c,0,68,0
2,107766, Note_on_c,0,49,0
2,107770, Note_on_c,0,44,0
2,107770, Note_on_c,0,65,0
2,107778, Note_on_c,0,53,0
2,107778, Note_on_c,0,61,0
2,107782, Note_on_c,0,73,0
2,107810, Note_on_c,0,61,69
2,107814, Note_on_c,0,73,77
2,107814, Note_on_c,0,49,56
2,107818, Note_on_c,0,65,62
2,107818, Note_on_c,0,53,68
2,107818, Note_on_c,0,56,71
2,107818, Note_on_c,0,68,61
2,107838, Note_on_c,0,53,0
2,107838, Note_on_c,0,65,0
2,107850, Note_on_c,0,49,0
2,107850, Note_on_c,0,61,0
2,107854, Note_on_c,0,56,0
2,107862, Note_on_c,0,68,0
2,107870, Note_on_c,0,73,0
2,108014, Note_on_c,0,77,85
2,108014, Note_on_c,0,65,78
2,108018, Note_on_c,0,61,65
2,108018, Note_on_c,0,73,68
2,108018, Note_on_c,0,56,62
2,108018, Note_on_c,0,68,73
2,108018, Note_on_c,0,53,62
2,108038, Note_on_c,0,53,0
2,108038, Note_on_c,0,73,0
2,108038, Note_on_c,0,65,0
2,108038, Note_on_c,0,77,0
2,108038, Note_on_c,0,68,0
2,108042, Note_on_c,0,61,0
2,108050, Note_on_c,0,56,0
2,108086, Note_on_c,0,56,58
2,108094, Note_on_c,0,77,86
2,108094, Note_on_c,0,61,58
2,108094, Note_on_c,0,65,81
2,108098, Note_on_c,0,73,73
2,108098, Note_on_c,0,49,37
2,108102, Note_on_c,0,53,44
2,108114, Note_on_c,0,65,0
2,108122, Note_on_c,0,49,0
2,108122, Note_on_c,0,53,0
2,108134, Note_on_c,0,61,0
2,108134, Note_on_c,0,56,0
2,108134, Note_on_c,0,77,0
2,108138, Note_on_c,0,73,0
2,108210, Note_on_c,0,56,25
2,108238, Note_on_c,0,56,0
2,108274, Control_c,0,64,72
2,108286, Control_c,0,64,0
2,108294, Note_on_c,0,56,62
2,108298, Note_on_c,0,80,77
2,108298, Note_on_c,0,68,80
2,108302, Note_on_c,0,61,60
2,108302, Note_on_c,0,65,65
2,108306, Note_on_c,0,77,68
2,108306, Note_on_c,0,73,57
2,108306, Note_on_c,0,53,53
2,108322, Note_on_c,0,73,0
2,108326, Note_on_c,0,77,0
2,108326, Note_on_c,0,65,0
2,108330, Note_on_c,0,53,0
2,108334, Note_on_c,0,68,0
2,108338, Note_on_c,0,61,0
2,108338, Note_on_c,0,80,0
2,108346, Note_on_c,0,56,0
2,108350, Control_c,0,64,40
2,108362, Control_c,0,64,104
2,108370, Note_on_c,0,80,78
2,108370, Note_on_c,0,68,71
2,108374, Note_on_c,0,56,65
2,108374, Control_c,0,64,127
2,108378, Note_on_c,0,77,74
2,108382, Note_on_c,0,73,61
2,108386, Note_on_c,0,61,37
2,108390, Note_on_c,0,65,51
2,108398, Note_on_c,0,73,0
2,108410, Note_on_c,0,68,0
2,108410, Note_on_c,0,61,0
2,108418, Note_on_c,0,77,0
2,108422, Note_on_c,0,65,0
2,108426, Note_on_c,0,56,0
2,108426, Note_on_c,0,80,0
2,108574, Note_on_c,0,65,62
2,108578, Note_on_c,0,80,75
2,108578, Note_on_c,0,73,80
2,108578, Note_on_c,0,85,75
2,108578, Note_on_c,0,61,55
2,108582, Note_on_c,0,68,53
2,108590, Note_on_c,0,77,70
2,108602, Note_on_c,0,68,0
2,108606, Note_on_c,0,77,0
2,108614, Note_on_c,0,73,0
2,108614, Note_on_c,0,85,0
2,108618, Note_on_c,0,80,0
2,108622, Note_on_c,0,61,0
2,108622, Note_on_c,0,65,0
2,108654, Note_on_c,0,73,79
2,108654, Note_on_c,0,85,71
2,108658, Note_on_c,0,80,71
2,108662, Note_on_c,0,68,71
2,108666, Note_on_c,0,61,58
2,108666, Note_on_c,0,65,48
2,108666, Note_on_c,0,77,57
2,108670, Note_on_c,0,56,30
2,108686, Note_on_c,0,56,0
2,108690, Note_on_c,0,77,0
2,108690, Note_on_c,0,73,0
2,108690, Note_on_c,0,65,0
2,108698, Note_on_c,0,61,0
2,108702, Note_on_c,0,80,0
2,108710, Note_on_c,0,85,0
2,108710, Note_on_c,0,68,0
2,108778, Note_on_c,0,80,42
2,108798, Note_on_c,0,80,0
2,108862, Note_on_c,0,85,72
2,108862, Note_on_c,0,77,82
2,108866, Note_on_c,0,80,77
2,108866, Note_on_c,0,89,82
2,108866, Note_on_c,0,73,61
2,108866, Note_on_c,0,68,60
2,108866, Note_on_c,0,65,58
2,108894, Note_on_c,0,65,0
2,108894, Note_on_c,0,77,0
2,108898, Note_on_c,0,73,0
2,108898, Note_on_c,0,85,0
2,108898, Note_on_c,0,80,0
2,108902, Note_on_c,0,89,0
2,108906, Note_on_c,0,68,0
2,108946, Note_on_c,0,89,86
2,108946, Note_on_c,0,77,93
2,108950, Note_on_c,0,85,67
2,108950, Note_on_c,0,68,46
2,108950, Note_on_c,0,73,58
2,108950, Note_on_c,0,80,62
2,108954, Note_on_c,0,65,47
2,108966, Note_on_c,0,61,44
2,108970, Note_on_c,0,80,0
2,108974, Note_on_c,0,73,0
2,108986, Note_on_c,0,65,0
2,108986, Note_on_c,0,68,0
2,108986, Note_on_c,0,85,0
2,108986, Note_on_c,0,77,0
2,109002, Note_on_c,0,89,0
2,109010, Note_on_c,0,61,0
2,109198, Control_c,0,64,104
2,109210, Control_c,0,64,72
2,109218, Control_c,0,64,24
2,109226, Control_c,0,64,0
2,109258, Note_on_c,0,25,78
2,109262, Note_on_c,0,37,89
2,109294, Note_on_c,0,25,0
2,109294, Control_c,0,64,72
2,109302, Note_on_c,0,37,0
2,109306, Control_c,0,64,127
2,109486, Note_on_c,0,61,77
2,109490, Note_on_c,0,53,71
2,109490, Note_on_c,0,73,75
2,109494, Note_on_c,0,68,63
2,109494, Note_on_c,0,56,58
2,109494, Note_on_c,0,49,54
2,109498, Note_on_c,0,65,64
2,109510, Note_on_c,0,44,28
2,109514, Note_on_c,0,49,0
2,109514, Note_on_c,0,56,0
2,109518, Note_on_c,0,65,0
2,109522, Note_on_c,0,61,0
2,109530, Note_on_c,0,44,0
2,109534, Note_on_c,0,73,0
2,109534, Note_on_c,0,53,0
2,109534, Note_on_c,0,68,0
2,109570, Note_on_c,0,61,76
2,109570, Note_on_c,0,73,78
2,109570, Note_on_c,0,68,71
2,109570, Note_on_c,0,53,74
2,109570, Note_on_c,0,49,58
2,109574, Note_on_c,0,44,38
2,109578, Note_on_c,0,56,70
2,109578, Note_on_c,0,65,59
2,109590, Note_on_c,0,44,0
2,109594, Note_on_c,0,65,0
2,109602, Note_on_c,0,61,0
2,109602, Note_on_c,0,53,0
2,109610, Note_on_c,0,49,0
2,109614, Note_on_c,0,56,0
2,109614, Note_on_c,0,68,0
2,109630, Note_on_c,0,73,0
2,109766, Control_c,0,64,88
2,109778, Control_c,0,64,40
2,109786, Note_on_c,0,68,71
2,109786, Note_on_c,0,65,77
2,109786, Note_on_c,0,61,68
2,109786, Note_on_c,0,53,64
2,109786, Note_on_c,0,77,73
2,109786, Note_on_c,0,73,56
2,109790, Note_on_c,0,56,56
2,109790, Control_c,0,64,0
2,109806, Note_on_c,0,65,0
2,109810, Note_on_c,0,77,0
2,109810, Note_on_c,0,53,0
2,109810, Note_on_c,0,73,0
2,109814, Note_on_c,0,61,0
2,109814, Note_on_c,0,56,0
2,109822, Note_on_c,0,68,0
2,109822, Control_c,0,64,88
2,109834, Control_c,0,64,127
2,109866, Note_on_c,0,65,81
2,109866, Note_on_c,0,77,82
2,109866, Note_on_c,0,73,68
2,109874, Note_on_c,0,61,64
2,109874, Note_on_c,0,53,56
2,109874, Note_on_c,0,68,39
2,109878, Note_on_c,0,56,54
2,109890, Note_on_c,0,68,0
2,109890, Note_on_c,0,65,0
2,109894, Note_on_c,0,53,0
2,109898, Note_on_c,0,56,0
2,109910, Note_on_c,0,73,0
2,109914, Note_on_c,0,61,0
2,109918, Note_on_c,0,77,0
2,110074, Note_on_c,0,56,64
2,110078, Note_on_c,0,80,76
2,110078, Note_on_c,0,68,76
2,110082, Note_on_c,0,61,61
2,110086, Note_on_c,0,65,62
2,110086, Note_on_c,0,77,68
2,110086, Note_on_c,0,73,54
2,110090, Note_on_c,0,53,45
2,110106, Note_on_c,0,73,0
2,110106, Note_on_c,0,77,0
2,110106, Note_on_c,0,65,0
2,110114, Note_on_c,0,53,0
2,110114, Note_on_c,0,68,0
2,110114, Note_on_c,0,61,0
2,110114, Note_on_c,0,80,0
2,110118, Note_on_c,0,56,0
2,110150, Note_on_c,0,56,62
2,110150, Note_on_c,0,68,68
2,110150, Note_on_c,0,80,75
2,110158, Note_on_c,0,61,51
2,110162, Note_on_c,0,77,73
2,110166, Note_on_c,0,73,45
2,110166, Note_on_c,0,65,56
2,110182, Note_on_c,0,73,0
2,110186, Note_on_c,0,68,0
2,110186, Note_on_c,0,61,0
2,110194, Note_on_c,0,77,0
2,110194, Note_on_c,0,65,0
2,110198, Note_on_c,0,56,0
2,110210, Note_on_c,0,80,0
2,110362, Note_on_c,0,65,63
2,110370, Note_on_c,0,73,76
2,110370, Note_on_c,0,80,72
2,110370, Note_on_c,0,85,71
2,110370, Note_on_c,0,68,58
2,110374, Note_on_c,0,61,44
2,110374, Note_on_c,0,77,68
2,110390, Note_on_c,0,68,0
2,110394, Note_on_c,0,61,0
2,110394, Note_on_c,0,77,0
2,110402, Note_on_c,0,73,0
2,110402, Note_on_c,0,85,0
2,110410, Note_on_c,0,80,0
2,110410, Note_on_c,0,65,0
2,110446, Note_on_c,0,80,73
2,110446, Note_on_c,0,85,69
2,110446, Note_on_c,0,73,74
2,110450, Note_on_c,0,68,77
2,110454, Note_on_c,0,65,58
2,110454, Note_on_c,0,61,51
2,110474, Note_on_c,0,65,0
2,110478, Note_on_c,0,73,0
2,110490, Note_on_c,0,80,0
2,110490, Note_on_c,0,61,0
2,110498, Note_on_c,0,68,0
2,110502, Note_on_c,0,85,0
2,110570, Note_on_c,0,80,27
2,110590, Note_on_c,0,80,0
2,110658, Note_on_c,0,80,77
2,110662, Note_on_c,0,77,81
2,110662, Note_on_c,0,89,83
2,110662, Note_on_c,0,85,73
2,110662, Note_on_c,0,68,61
2,110662, Note_on_c,0,73,64
2,110670, Note_on_c,0,65,49
2,110686, Note_on_c,0,77,0
2,110690, Note_on_c,0,73,0
2,110694, Note_on_c,0,80,0
2,110694, Note_on_c,0,65,0
2,110698, Note_on_c,0,85,0
2,110698, Note_on_c,0,89,0
2,110702, Note_on_c,0,68,0
2,110742, Note_on_c,0,77,85
2,110746, Note_on_c,0,68,53
2,110746, Note_on_c,0,89,80
2,110746, Note_on_c,0,85,65
2,110746, Note_on_c,0,80,68
2,110750, Note_on_c,0,73,62
2,110754, Note_on_c,0,65,42
2,110762, Note_on_c,0,61,52
2,110770, Note_on_c,0,73,0
2,110778, Note_on_c,0,80,0
2,110786, Note_on_c,0,85,0
2,110786, Note_on_c,0,77,0
2,110786, Note_on_c,0,68,0
2,110786, Note_on_c,0,65,0
2,110790, Note_on_c,0,89,0
2,110806, Note_on_c,0,61,0
2,111010, Control_c,0,64,88
2,111022, Control_c,0,64,40
2,111034, Control_c,0,64,0
2,111058, Note_on_c,0,25,76
2,111058, Note_on_c,0,37,86
2,111094, Note_on_c,0,37,0
2,111094, Note_on_c,0,25,0
2,111094, Control_c,0,64,56
2,111110, Control_c,0,64,127
2,111274, Note_on_c,0,63,77
2,111278, Note_on_c,0,75,71
2,111278, Note_on_c,0,66,63
2,111282, Note_on_c,0,58,68
2,111282, Note_on_c,0,70,61
2,111286, Note_on_c,0,54,61
2,111290, Note_on_c,0,51,51
2,111294, Note_on_c,0,46,36
2,111302, Note_on_c,0,70,0
2,111306, Note_on_c,0,51,0
2,111310, Note_on_c,0,46,0
2,111310, Note_on_c,0,58,0
2,111310, Note_on_c,0,63,0
2,111310, Note_on_c,0,54,0
2,111314, Note_on_c,0,75,0
2,111314, Note_on_c,0,66,0
2,111354, Note_on_c,0,63,77
2,111358, Note_on_c,0,75,74
2,111358, Note_on_c,0,66,57
2,111362, Note_on_c,0,70,69
2,111362, Note_on_c,0,46,49
2,111366, Note_on_c,0,54,58
2,111366, Note_on_c,0,58,60
2,111370, Note_on_c,0,51,49
2,111378, Note_on_c,0,66,0
2,111382, Note_on_c,0,46,0
2,111390, Note_on_c,0,51,0
2,111390, Note_on_c,0,63,0
2,111394, Note_on_c,0,58,0
2,111398, Note_on_c,0,54,0
2,111406, Note_on_c,0,70,0
2,111414, Note_on_c,0,75,0
2,111570, Note_on_c,0,66,83
2,111570, Note_on_c,0,78,80
2,111574, Note_on_c,0,63,69
2,111578, Note_on_c,0,58,56
2,111578, Note_on_c,0,54,49
2,111582, Note_on_c,0,70,60
2,111582, Note_on_c,0,75,61
2,111598, Note_on_c,0,70,0
2,111602, Note_on_c,0,54,0
2,111602, Note_on_c,0,63,0
2,111602, Note_on_c,0,75,0
2,111606, Note_on_c,0,66,0
2,111610, Note_on_c,0,58,0
2,111610, Note_on_c,0,78,0
2,111650, Note_on_c,0,78,72
2,111650, Note_on_c,0,66,73
2,111654, Note_on_c,0,51,53
2,111658, Note_on_c,0,58,55
2,111658, Note_on_c,0,70,69
2,111658, Note_on_c,0,75,69
2,111658, Note_on_c,0,63,69
2,111658, Note_on_c,0,54,55
2,111678, Note_on_c,0,70,0
2,111682, Note_on_c,0,51,0
2,111686, Note_on_c,0,66,0
2,111690, Note_on_c,0,54,0
2,111694, Note_on_c,0,58,0
2,111694, Note_on_c,0,63,0
2,111706, Note_on_c,0,75,0
2,111710, Note_on_c,0,78,0
2,111854, Control_c,0,64,72
2,111858, Note_on_c,0,63,73
2,111858, Note_on_c,0,70,89
2,111858, Note_on_c,0,82,81
2,111858, Note_on_c,0,66,69
2,111858, Note_on_c,0,58,57
2,111858, Note_on_c,0,78,74
2,111866, Note_on_c,0,75,56
2,111866, Control_c,0,64,24
2,111870, Note_on_c,0,54,34
2,111878, Control_c,0,64,0
2,111882, Note_on_c,0,66,0
2,111886, Note_on_c,0,54,0
2,111886, Note_on_c,0,70,0
2,111886, Note_on_c,0,75,0
2,111886, Control_c,0,64,24
2,111894, Note_on_c,0,78,0
2,111898, Note_on_c,0,63,0
2,111898, Note_on_c,0,82,0
2,111902, Note_on_c,0,58,0
2,111902, Control_c,0,64,56
2,111910, Control_c,0,64,127
2,111938, Note_on_c,0,82,81
2,111942, Note_on_c,0,70,81
2,111942, Note_on_c,0,58,53
2,111946, Note_on_c,0,54,44
2,111946, Note_on_c,0,66,71
2,111950, Note_on_c,0,63,57
2,111950, Note_on_c,0,78,68
2,111962, Note_on_c,0,54,0
2,111962, Note_on_c,0,75,39
2,111974, Note_on_c,0,70,0
2,111978, Note_on_c,0,63,0
2,111982, Note_on_c,0,58,0
2,111982, Note_on_c,0,75,0
2,111990, Note_on_c,0,78,0
2,111990, Note_on_c,0,66,0
2,111998, Note_on_c,0,82,0
2,112146, Note_on_c,0,70,68
2,112146, Note_on_c,0,63,58
2,112146, Note_on_c,0,66,63
2,112150, Note_on_c,0,87,81
2,112150, Note_on_c,0,75,85
2,112154, Note_on_c,0,82,61
2,112154, Note_on_c,0,78,61
2,112170, Note_on_c,0,70,0
2,112174, Note_on_c,0,82,0
2,112174, Note_on_c,0,78,0
2,112178, Note_on_c,0,63,0
2,112182, Note_on_c,0,75,0
2,112182, Note_on_c,0,66,0
2,112186, Note_on_c,0,87,0
2,112218, Control_c,0,64,88
2,112230, Control_c,0,64,56
2,112234, Note_on_c,0,87,79
2,112234, Note_on_c,0,75,88
2,112234, Note_on_c,0,66,59
2,112234, Note_on_c,0,70,72
2,112234, Note_on_c,0,63,58
2,112234, Note_on_c,0,58,43
2,112242, Note_on_c,0,78,69
2,112242, Note_on_c,0,82,72
2,112242, Control_c,0,64,72
2,112250, Control_c,0,64,127
2,112258, Note_on_c,0,78,0
2,112258, Note_on_c,0,58,0
2,112270, Note_on_c,0,75,0
2,112274, Note_on_c,0,70,0
2,112274, Note_on_c,0,66,0
2,112278, Note_on_c,0,82,0
2,112278, Note_on_c,0,63,0
2,112298, Note_on_c,0,87,0
2,112426, Control_c,0,64,88
2,112438, Control_c,0,64,0
2,112446, Note_on_c,0,78,89
2,112446, Note_on_c,0,90,81
2,112450, Note_on_c,0,70,57
2,112450, Note_on_c,0,75,68
2,112450, Note_on_c,0,66,47
2,112454, Note_on_c,0,87,70
2,112458, Note_on_c,0,82,58
2,112470, Note_on_c,0,87,0
2,112470, Control_c,0,64,40
2,112474, Note_on_c,0,82,0
2,112478, Note_on_c,0,70,0
2,112478, Note_on_c,0,75,0
2,112482, Note_on_c,0,78,0
2,112482, Control_c,0,64,104
2,112490, Note_on_c,0,66,0
2,112490, Note_on_c,0,90,0
2,112494, Control_c,0,64,127
2,112530, Note_on_c,0,90,80
2,112538, Note_on_c,0,75,77
2,112538, Note_on_c,0,78,86
2,112538, Note_on_c,0,66,44
2,112538, Note_on_c,0,87,78
2,112542, Note_on_c,0,70,57
2,112542, Note_on_c,0,82,67
2,112542, Note_on_c,0,63,47
2,112570, Note_on_c,0,70,0
2,112574, Note_on_c,0,75,0
2,112582, Note_on_c,0,78,0
2,112590, Note_on_c,0,87,0
2,112590, Note_on_c,0,90,0
2,112590, Note_on_c,0,82,0
2,112598, Note_on_c,0,66,0
2,112602, Note_on_c,0,63,0
2,112822, Control_c,0,64,72
2,112834, Control_c,0,64,0
2,112854, Note_on_c,0,25,82
2,112858, Note_on_c,0,37,88
2,112890, Control_c,0,64,24
2,112894, Note_on_c,0,37,0
2,112894, Note_on_c,0,25,0
2,112898, Control_c,0,64,104
2,112910, Control_c,0,64,127
2,113066, Note_on_c,0,63,82
2,113066, Note_on_c,0,75,75
2,113070, Note_on_c,0,66,64
2,113070, Note_on_c,0,70,64
2,113074, Note_on_c,0,54,63
2,113074, Note_on_c,0,58,63
2,113082, Note_on_c,0,51,47
2,113086, Note_on_c,0,46,28
2,113098, Note_on_c,0,51,0
2,113102, Note_on_c,0,58,0
2,113106, Note_on_c,0,54,0
2,113106, Note_on_c,0,46,0
2,113106, Note_on_c,0,66,0
2,113106, Note_on_c,0,70,0
2,113106, Note_on_c,0,63,0
2,113110, Note_on_c,0,75,0
2,113146, Note_on_c,0,63,78
2,113150, Note_on_c,0,75,73
2,113150, Note_on_c,0,46,55
2,113154, Note_on_c,0,70,65
2,113154, Note_on_c,0,66,60
2,113158, Note_on_c,0,58,73
2,113158, Note_on_c,0,54,58
2,113158, Note_on_c,0,51,57
2,113170, Note_on_c,0,46,0
2,113174, Note_on_c,0,66,0
2,113182, Note_on_c,0,51,0
2,113186, Note_on_c,0,63,0
2,113186, Note_on_c,0,54,0
2,113190, Note_on_c,0,58,0
2,113198, Note_on_c,0,70,0
2,113210, Note_on_c,0,75,0
2,113362, Note_on_c,0,66,79
2,113362, Note_on_c,0,78,74
2,113362, Note_on_c,0,63,69
2,113366, Note_on_c,0,58,55
2,113366, Note_on_c,0,70,61
2,113370, Note_on_c,0,54,50
2,113370, Note_on_c,0,75,55
2,113374, Note_on_c,0,51,48
2,113374, Control_c,0,64,56
2,113382, Control_c,0,64,0
2,113390, Note_on_c,0,51,0
2,113390, Note_on_c,0,75,0
2,113390, Note_on_c,0,70,0
2,113390, Note_on_c,0,63,0
2,113390, Note_on_c,0,54,0
2,113394, Note_on_c,0,58,0
2,113398, Note_on_c,0,66,0
2,113402, Note_on_c,0,78,0
2,113406, Control_c,0,64,24
2,113414, Control_c,0,64,72
2,113426, Control_c,0,64,127
2,113438, Note_on_c,0,78,71
2,113438, Note_on_c,0,66,58
2,113446, Note_on_c,0,70,58
2,113450, Note_on_c,0,63,69
2,113450, Note_on_c,0,75,64
2,113450, Note_on_c,0,54,52
2,113450, Note_on_c,0,51,42
2,113454, Note_on_c,0,58,49
2,113466, Note_on_c,0,70,0
2,113470, Note_on_c,0,51,0
2,113478, Note_on_c,0,58,0
2,113478, Note_on_c,0,66,0
2,113486, Note_on_c,0,54,0
2,113490, Note_on_c,0,63,0
2,113494, Note_on_c,0,75,0
2,113502, Note_on_c,0,78,0
2,113634, Control_c,0,64,104
2,113646, Control_c,0,64,40
2,113650, Note_on_c,0,63,71
2,113650, Note_on_c,0,82,83
2,113654, Note_on_c,0,66,67
2,113654, Note_on_c,0,70,81
2,113654, Note_on_c,0,58,49
2,113658, Note_on_c,0,78,69
2,113658, Control_c,0,64,24
2,113662, Note_on_c,0,75,51
2,113662, Note_on_c,0,54,32
2,113666, Control_c,0,64,56
2,113674, Note_on_c,0,78,0
2,113678, Control_c,0,64,104
2,113682, Note_on_c,0,54,0
2,113682, Note_on_c,0,70,0
2,113682, Note_on_c,0,66,0
2,113682, Note_on_c,0,75,0
2,113686, Note_on_c,0,82,0
2,113686, Note_on_c,0,58,0
2,113690, Note_on_c,0,63,0
2,113690, Control_c,0,64,127
2,113730, Note_on_c,0,70,65
2,113730, Note_on_c,0,82,78
2,113734, Note_on_c,0,78,77
2,113738, Note_on_c,0,63,56
2,113738, Note_on_c,0,66,63
2,113738, Note_on_c,0,58,44
2,113738, Note_on_c,0,75,51
2,113738, Note_on_c,0,54,37
2,113754, Note_on_c,0,54,0
2,113758, Note_on_c,0,75,0
2,113762, Note_on_c,0,70,0
2,113762, Note_on_c,0,58,0
2,113774, Note_on_c,0,63,0
2,113778, Note_on_c,0,78,0
2,113786, Note_on_c,0,66,0
2,113790, Note_on_c,0,82,0
2,113934, Note_on_c,0,75,83
2,113934, Note_on_c,0,66,56
2,113934, Note_on_c,0,87,77
2,113934, Note_on_c,0,70,60
2,113934, Note_on_c,0,63,51
2,113938, Note_on_c,0,82,59
2,113942, Note_on_c,0,78,65
2,113954, Note_on_c,0,70,0
2,113958, Note_on_c,0,82,0
2,113958, Note_on_c,0,63,0
2,113958, Note_on_c,0,66,0
2,113958, Note_on_c,0,78,0
2,113962, Note_on_c,0,75,0
2,113974, Note_on_c,0,87,0
2,114010, Note_on_c,0,87,78
2,114014, Note_on_c,0,75,86
2,114018, Note_on_c,0,82,75
2,114018, Note_on_c,0,70,77
2,114022, Note_on_c,0,58,43
2,114022, Note_on_c,0,78,69
2,114026, Note_on_c,0,66,64
2,114026, Note_on_c,0,63,58
2,114038, Note_on_c,0,78,0
2,114038, Note_on_c,0,58,0
2,114046, Note_on_c,0,66,0
2,114050, Note_on_c,0,63,0
2,114050, Note_on_c,0,75,0
2,114058, Note_on_c,0,82,0
2,114062, Note_on_c,0,70,0
2,114074, Note_on_c,0,87,0
2,114230, Note_on_c,0,75,69
2,114234, Note_on_c,0,66,43
2,114234, Note_on_c,0,70,50
2,114238, Note_on_c,0,78,89
2,114238, Note_on_c,0,90,84
2,114242, Note_on_c,0,87,69
2,114246, Note_on_c,0,82,63
2,114254, Note_on_c,0,70,0
2,114266, Note_on_c,0,87,0
2,114266, Note_on_c,0,66,0
2,114266, Note_on_c,0,75,0
2,114266, Note_on_c,0,82,0
2,114270, Note_on_c,0,78,0
2,114270, Note_on_c,0,90,0
2,114314, Note_on_c,0,90,73
2,114314, Note_on_c,0,78,81
2,114318, Note_on_c,0,75,57
2,114322, Note_on_c,0,87,73
2,114322, Note_on_c,0,82,61
2,114330, Note_on_c,0,63,34
2,114330, Note_on_c,0,66,22
2,114334, Note_on_c,0,75,0
2,114342, Note_on_c,0,82,0
2,114354, Note_on_c,0,78,0
2,114358, Note_on_c,0,66,0
2,114362, Note_on_c,0,90,0
2,114366, Note_on_c,0,87,0
2,114374, Note_on_c,0,63,0
2,114590, Control_c,0,64,56
2,114602, Control_c,0,64,0
2,114618, Note_on_c,0,25,83
2,114622, Note_on_c,0,37,86
2,114650, Note_on_c,0,25,0
2,114658, Note_on_c,0,37,0
2,114666, Control_c,0,64,104
2,114678, Control_c,0,64,127
2,114830, Note_on_c,0,56,70
2,114834, Note_on_c,0,63,74
2,114838, Note_on_c,0,75,65
2,114842, Note_on_c,0,60,66
2,114842, Note_on_c,0,68,56
2,114850, Note_on_c,0,72,57
2,114850, Note_on_c,0,51,30
2,114862, Note_on_c,0,68,0
2,114862, Note_on_c,0,60,0
2,114870, Note_on_c,0,72,0
2,114870, Note_on_c,0,63,0
2,114870, Note_on_c,0,56,0
2,114870, Note_on_c,0,51,0
2,114874, Note_on_c,0,75,0
2,114910, Note_on_c,0,75,78
2,114910, Note_on_c,0,63,82
2,114910, Note_on_c,0,72,68
2,114914, Note_on_c,0,68,62
2,114918, Note_on_c,0,56,58
2,114922, Note_on_c,0,60,74
2,114922, Note_on_c,0,51,58
2,114938, Note_on_c,0,68,0
2,114942, Note_on_c,0,63,0
2,114942, Note_on_c,0,51,0
2,114950, Note_on_c,0,72,0
2,114958, Note_on_c,0,60,0
2,114962, Note_on_c,0,56,0
2,114966, Note_on_c,0,75,0
2,115118, Note_on_c,0,60,71
2,115118, Note_on_c,0,63,62
2,115118, Control_c,0,64,104
2,115122, Note_on_c,0,68,74
2,115122, Note_on_c,0,75,71
2,115122, Note_on_c,0,80,77
2,115122, Note_on_c,0,56,45
2,115130, Note_on_c,0,51,38
2,115130, Control_c,0,64,40
2,115134, Note_on_c,0,72,62
2,115138, Control_c,0,64,0
2,115146, Note_on_c,0,56,0
2,115146, Note_on_c,0,63,0
2,115150, Note_on_c,0,51,0
2,115154, Note_on_c,0,72,0
2,115158, Note_on_c,0,60,0
2,115158, Note_on_c,0,80,0
2,115158, Note_on_c,0,68,0
2,115162, Note_on_c,0,75,0
2,115170, Control_c,0,64,56
2,115182, Control_c,0,64,104
2,115194, Note_on_c,0,80,76
2,115194, Note_on_c,0,68,74
2,115194, Note_on_c,0,75,78
2,115194, Control_c,0,64,127
2,115202, Note_on_c,0,72,66
2,115202, Note_on_c,0,56,56
2,115206, Note_on_c,0,63,70
2,115210, Note_on_c,0,60,53
2,115210, Note_on_c,0,51,38
2,115222, Note_on_c,0,72,0
2,115226, Note_on_c,0,51,0
2,115230, Note_on_c,0,68,0
2,115230, Note_on_c,0,60,0
2,115242, Note_on_c,0,56,0
2,115246, Note_on_c,0,75,0
2,115254, Note_on_c,0,63,0
2,115258, Note_on_c,0,80,0
2,115330, Note_on_c,0,60,26
2,115350, Note_on_c,0,60,0
2,115402, Note_on_c,0,60,54
2,115406, Note_on_c,0,68,70
2,115406, Note_on_c,0,63,61
2,115410, Note_on_c,0,84,82
2,115410, Note_on_c,0,75,76
2,115414, Note_on_c,0,80,68
2,115414, Note_on_c,0,72,77
2,115434, Note_on_c,0,72,0
2,115438, Note_on_c,0,68,0
2,115438, Note_on_c,0,63,0
2,115438, Note_on_c,0,84,0
2,115442, Note_on_c,0,60,0
2,115442, Note_on_c,0,75,0
2,115442, Note_on_c,0,80,0
2,115486, Note_on_c,0,84,86
2,115490, Note_on_c,0,80,72
2,115490, Note_on_c,0,60,66
2,115494, Note_on_c,0,72,71
2,115494, Note_on_c,0,68,69
2,115494, Note_on_c,0,75,52
2,115494, Note_on_c,0,63,60
2,115502, Note_on_c,0,56,27
2,115510, Note_on_c,0,75,0
2,115510, Note_on_c,0,60,0
2,115510, Note_on_c,0,72,0
2,115522, Note_on_c,0,56,0
2,115522, Note_on_c,0,63,0
2,115534, Note_on_c,0,80,0
2,115538, Note_on_c,0,84,0
2,115550, Note_on_c,0,68,0
2,115690, Note_on_c,0,63,57
2,115690, Control_c,0,64,56
2,115694, Note_on_c,0,87,77
2,115694, Note_on_c,0,75,83
2,115698, Note_on_c,0,60,68
2,115698, Note_on_c,0,68,58
2,115698, Note_on_c,0,84,72
2,115698, Note_on_c,0,72,59
2,115698, Note_on_c,0,80,64
2,115698, Control_c,0,64,0
2,115714, Note_on_c,0,60,0
2,115718, Note_on_c,0,80,0
2,115718, Note_on_c,0,68,0
2,115718, Note_on_c,0,84,0
2,115722, Note_on_c,0,72,0
2,115722, Control_c,0,64,56
2,115726, Note_on_c,0,75,0
2,115726, Note_on_c,0,87,0
2,115730, Note_on_c,0,63,0
2,115730, Control_c,0,64,88
2,115742, Control_c,0,64,127
2,115770, Note_on_c,0,75,79
2,115770, Note_on_c,0,87,79
2,115774, Note_on_c,0,84,79
2,115774, Note_on_c,0,80,71
2,115778, Note_on_c,0,63,56
2,115782, Note_on_c,0,72,72
2,115782, Note_on_c,0,68,61
2,115794, Note_on_c,0,80,0
2,115802, Note_on_c,0,75,0
2,115802, Note_on_c,0,68,0
2,115814, Note_on_c,0,63,0
2,115814, Note_on_c,0,84,0
2,115822, Note_on_c,0,72,0
2,115826, Note_on_c,0,87,0
2,115974, Note_on_c,0,72,73
2,115978, Note_on_c,0,75,68
2,115978, Note_on_c,0,80,80
2,115978, Note_on_c,0,92,81
2,115982, Note_on_c,0,87,65
2,115982, Note_on_c,0,68,52
2,115982, Note_on_c,0,84,70
2,116006, Note_on_c,0,84,0
2,116006, Note_on_c,0,75,0
2,116014, Note_on_c,0,87,0
2,116014, Note_on_c,0,80,0
2,116018, Note_on_c,0,72,0
2,116018, Note_on_c,0,92,0
2,116018, Note_on_c,0,68,0
2,116058, Note_on_c,0,72,64
2,116058, Note_on_c,0,92,83
2,116058, Note_on_c,0,80,84
2,116062, Note_on_c,0,68,61
2,116066, Note_on_c,0,87,74
2,116066, Note_on_c,0,75,57
2,116070, Note_on_c,0,84,76
2,116074, Note_on_c,0,63,37
2,116082, Note_on_c,0,75,0
2,116082, Note_on_c,0,72,0
2,116086, Note_on_c,0,84,0
2,116098, Note_on_c,0,80,0
2,116110, Note_on_c,0,68,0
2,116110, Note_on_c,0,92,0
2,116118, Note_on_c,0,87,0
2,116122, Note_on_c,0,63,0
2,116326, Control_c,0,64,104
2,116338, Control_c,0,64,24
2,116346, Control_c,0,64,0
2,116386, Note_on_c,0,25,78
2,116386, Note_on_c,0,37,96
2,116426, Note_on_c,0,37,0
2,116426, Note_on_c,0,25,0
2,116426, Control_c,0,64,127
2,116606, Note_on_c,0,63,76
2,116610, Note_on_c,0,51,62
2,116610, Note_on_c,0,75,65
2,116614, Note_on_c,0,56,55
2,116614, Note_on_c,0,60,64
2,116614, Note_on_c,0,68,57
2,116618, Note_on_c,0,72,63
2,116634, Note_on_c,0,51,0
2,116638, Note_on_c,0,68,0
2,116638, Note_on_c,0,60,0
2,116638, Note_on_c,0,72,0
2,116642, Note_on_c,0,63,0
2,116642, Note_on_c,0,56,0
2,116650, Note_on_c,0,75,0
2,116682, Note_on_c,0,63,75
2,116686, Note_on_c,0,75,71
2,116686, Note_on_c,0,68,60
2,116690, Note_on_c,0,72,65
2,116698, Note_on_c,0,56,69
2,116702, Note_on_c,0,51,69
2,116706, Note_on_c,0,60,69
2,116718, Note_on_c,0,63,0
2,116722, Note_on_c,0,51,0
2,116726, Note_on_c,0,68,0
2,116726, Note_on_c,0,72,0
2,116726, Note_on_c,0,60,0
2,116742, Note_on_c,0,56,0
2,116746, Note_on_c,0,75,0
2,116886, Control_c,0,64,88
2,116890, Note_on_c,0,56,61
2,116890, Note_on_c,0,60,73
2,116890, Note_on_c,0,63,61
2,116894, Note_on_c,0,68,76
2,116894, Note_on_c,0,80,76
2,116894, Note_on_c,0,75,73
2,116898, Control_c,0,64,24
2,116902, Note_on_c,0,72,68
2,116906, Note_on_c,0,51,33
2,116910, Control_c,0,64,0
2,116914, Note_on_c,0,63,0
2,116914, Note_on_c,0,60,0
2,116922, Note_on_c,0,51,0
2,116922, Note_on_c,0,72,0
2,116930, Note_on_c,0,56,0
2,116930, Note_on_c,0,68,0
2,116930, Control_c,0,64,40
2,116934, Note_on_c,0,80,0
2,116938, Note_on_c,0,75,0
2,116942, Control_c,0,64,104
2,116954, Control_c,0,64,127
2,116974, Note_on_c,0,68,73
2,116974, Note_on_c,0,80,79
2,116974, Note_on_c,0,56,58
2,116974, Note_on_c,0,75,69
2,116978, Note_on_c,0,63,78
2,116978, Note_on_c,0,51,49
2,116986, Note_on_c,0,60,61
2,116990, Note_on_c,0,72,51
2,116998, Note_on_c,0,51,0
2,117002, Note_on_c,0,60,0
2,117006, Note_on_c,0,68,0
2,117010, Note_on_c,0,72,0
2,117018, Note_on_c,0,75,0
2,117018, Note_on_c,0,56,0
2,117030, Note_on_c,0,63,0
2,117038, Note_on_c,0,80,0
2,117094, Note_on_c,0,75,42
2,117114, Note_on_c,0,75,0
2,117186, Note_on_c,0,75,86
2,117186, Note_on_c,0,84,86
2,117190, Note_on_c,0,72,83
2,117190, Note_on_c,0,80,65
2,117190, Note_on_c,0,68,64
2,117190, Note_on_c,0,60,55
2,117190, Note_on_c,0,63,51
2,117206, Note_on_c,0,72,0
2,117206, Note_on_c,0,84,0
2,117210, Note_on_c,0,80,0
2,117214, Note_on_c,0,68,0
2,117214, Note_on_c,0,60,0
2,117214, Note_on_c,0,63,0
2,117218, Note_on_c,0,75,0
2,117266, Note_on_c,0,84,92
2,117270, Note_on_c,0,72,88
2,117270, Note_on_c,0,80,78
2,117270, Note_on_c,0,75,58
2,117270, Note_on_c,0,56,30
2,117274, Note_on_c,0,68,67
2,117278, Note_on_c,0,63,55
2,117278, Note_on_c,0,60,43
2,117290, Note_on_c,0,72,0
2,117294, Note_on_c,0,56,0
2,117294, Note_on_c,0,75,0
2,117298, Note_on_c,0,60,0
2,117302, Note_on_c,0,63,0
2,117310, Note_on_c,0,80,0
2,117314, Note_on_c,0,84,0
2,117322, Note_on_c,0,68,0
2,117466, Control_c,0,64,104
2,117470, Note_on_c,0,63,68
2,117474, Note_on_c,0,75,85
2,117474, Note_on_c,0,87,76
2,117478, Note_on_c,0,68,60
2,117478, Note_on_c,0,84,70
2,117478, Note_on_c,0,72,68
2,117482, Note_on_c,0,80,65
2,117482, Control_c,0,64,40
2,117486, Note_on_c,0,60,56
2,117498, Note_on_c,0,72,0
2,117498, Note_on_c,0,84,0
2,117506, Note_on_c,0,60,0
2,117506, Note_on_c,0,75,0
2,117506, Note_on_c,0,80,0
2,117510, Note_on_c,0,68,0
2,117514, Note_on_c,0,87,0
2,117514, Note_on_c,0,63,0
2,117514, Control_c,0,64,127
2,117550, Note_on_c,0,75,77
2,117554, Note_on_c,0,87,76
2,117554, Note_on_c,0,63,60
2,117558, Note_on_c,0,80,69
2,117566, Note_on_c,0,72,74
2,117570, Note_on_c,0,68,48
2,117586, Note_on_c,0,75,0
2,117590, Note_on_c,0,68,0
2,117594, Note_on_c,0,80,0
2,117598, Note_on_c,0,72,0
2,117606, Note_on_c,0,63,0
2,117614, Note_on_c,0,87,0
2,117762, Note_on_c,0,72,69
2,117762, Note_on_c,0,75,65
2,117770, Note_on_c,0,68,50
2,117770, Note_on_c,0,92,88
2,117770, Note_on_c,0,80,84
2,117774, Note_on_c,0,87,75
2,117778, Note_on_c,0,84,74
2,117778, Note_on_c,0,63,27
2,117798, Note_on_c,0,63,0
2,117798, Note_on_c,0,84,0
2,117798, Note_on_c,0,75,0
2,117802, Note_on_c,0,80,0
2,117802, Note_on_c,0,68,0
2,117806, Note_on_c,0,72,0
2,117810, Note_on_c,0,87,0
2,117818, Note_on_c,0,92,0
2,117850, Note_on_c,0,92,87
2,117850, Note_on_c,0,80,84
2,117854, Note_on_c,0,75,71
2,117854, Note_on_c,0,87,71
2,117858, Note_on_c,0,68,54
2,117858, Note_on_c,0,72,63
2,117858, Note_on_c,0,84,80
2,117870, Note_on_c,0,63,37
2,117878, Note_on_c,0,84,0
2,117878, Note_on_c,0,72,0
2,117886, Note_on_c,0,75,0
2,117894, Note_on_c,0,80,0
2,117906, Note_on_c,0,92,0
2,117906, Note_on_c,0,68,0
2,117910, Note_on_c,0,87,0
2,117922, Note_on_c,0,63,0
2,118126, Control_c,0,64,104
2,118138, Control_c,0,64,40
2,118150, Control_c,0,64,0
2,118174, Note_on_c,0,25,77
2,118174, Note_on_c,0,37,89
2,118206, Note_on_c,0,25,0
2,118206, Control_c,0,64,40
2,118214, Note_on_c,0,37,0
2,118218, Control_c,0,64,127
2,118378, Note_on_c,0,68,69
2,118382, Note_on_c,0,65,73
2,118386, Note_on_c,0,73,61
2,118390, Note_on_c,0,77,70
2,118390, Note_on_c,0,61,65
2,118398, Note_on_c,0,56,48
2,118402, Note_on_c,0,53,54
2,118410, Note_on_c,0,49,26
2,118414, Note_on_c,0,61,0
2,118414, Note_on_c,0,77,0
2,118418, Note_on_c,0,56,0
2,118418, Note_on_c,0,53,0
2,118422, Note_on_c,0,73,0
2,118422, Note_on_c,0,68,0
2,118422, Note_on_c,0,65,0
2,118426, Note_on_c,0,49,0
2,118462, Note_on_c,0,49,63
2,118462, Note_on_c,0,65,81
2,118466, Note_on_c,0,73,69
2,118466, Note_on_c,0,77,86
2,118466, Note_on_c,0,53,58
2,118466, Note_on_c,0,61,71
2,118466, Note_on_c,0,56,53
2,118470, Note_on_c,0,68,62
2,118490, Note_on_c,0,53,0
2,118494, Note_on_c,0,68,0
2,118494, Note_on_c,0,49,0
2,118498, Note_on_c,0,65,0
2,118502, Note_on_c,0,56,0
2,118506, Note_on_c,0,61,0
2,118514, Note_on_c,0,73,0
2,118518, Note_on_c,0,77,0
2,118666, Control_c,0,64,40
2,118670, Note_on_c,0,56,73
2,118674, Note_on_c,0,80,73
2,118674, Note_on_c,0,61,69
2,118674, Note_on_c,0,65,77
2,118674, Note_on_c,0,68,75
2,118678, Control_c,0,64,0
2,118682, Note_on_c,0,77,68
2,118686, Note_on_c,0,73,57
2,118690, Note_on_c,0,53,38
2,118698, Note_on_c,0,65,0
2,118698, Control_c,0,64,24
2,118702, Note_on_c,0,73,0
2,118702, Note_on_c,0,77,0
2,118710, Note_on_c,0,68,0
2,118710, Control_c,0,64,72
2,118714, Note_on_c,0,61,0
2,118714, Note_on_c,0,53,0
2,118714, Note_on_c,0,56,0
2,118718, Note_on_c,0,80,0
2,118722, Control_c,0,64,127
2,118746, Note_on_c,0,68,69
2,118750, Note_on_c,0,56,60
2,118750, Note_on_c,0,80,80
2,118754, Note_on_c,0,77,78
2,118758, Note_on_c,0,73,63
2,118762, Note_on_c,0,61,44
2,118766, Note_on_c,0,65,64
2,118778, Note_on_c,0,73,0
2,118782, Note_on_c,0,68,0
2,118790, Note_on_c,0,61,0
2,118794, Note_on_c,0,56,0
2,118794, Note_on_c,0,65,0
2,118798, Note_on_c,0,77,0
2,118806, Note_on_c,0,80,0
2,118946, Note_on_c,0,65,64
2,118954, Control_c,0,64,88
2,118958, Note_on_c,0,85,77
2,118958, Note_on_c,0,68,64
2,118958, Note_on_c,0,73,77
2,118958, Note_on_c,0,61,50
2,118958, Note_on_c,0,80,72
2,118962, Control_c,0,64,40
2,118966, Note_on_c,0,77,74
2,118974, Control_c,0,64,72
2,118978, Note_on_c,0,68,0
2,118982, Note_on_c,0,77,0
2,118986, Control_c,0,64,104
2,118990, Note_on_c,0,73,0
2,118994, Note_on_c,0,65,0
2,118994, Control_c,0,64,127
2,118998, Note_on_c,0,61,0
2,119002, Note_on_c,0,80,0
2,119002, Note_on_c,0,85,0
2,119034, Note_on_c,0,85,79
2,119034, Note_on_c,0,73,81
2,119034, Note_on_c,0,61,62
2,119038, Note_on_c,0,80,75
2,119042, Note_on_c,0,68,77
2,119046, Note_on_c,0,65,58
2,119054, Note_on_c,0,77,64
2,119062, Note_on_c,0,65,0
2,119070, Note_on_c,0,73,0
2,119070, Note_on_c,0,77,0
2,119078, Note_on_c,0,61,0
2,119086, Note_on_c,0,68,0
2,119090, Note_on_c,0,80,0
2,119098, Note_on_c,0,85,0
2,119238, Control_c,0,64,88
2,119242, Note_on_c,0,73,79
2,119246, Note_on_c,0,80,80
2,119246, Note_on_c,0,68,65
2,119246, Note_on_c,0,65,66
2,119246, Note_on_c,0,85,71
2,119250, Note_on_c,0,77,83
2,119250, Control_c,0,64,56
2,119254, Note_on_c,0,89,70
2,119258, Control_c,0,64,88
2,119262, Note_on_c,0,61,60
2,119266, Note_on_c,0,77,0
2,119270, Control_c,0,64,127
2,119278, Note_on_c,0,80,0
2,119278, Note_on_c,0,85,0
2,119278, Note_on_c,0,73,0
2,119278, Note_on_c,0,89,0
2,119282, Note_on_c,0,65,0
2,119282, Note_on_c,0,68,0
2,119318, Note_on_c,0,61,0
2,119326, Note_on_c,0,89,86
2,119326, Note_on_c,0,85,80
2,119326, Note_on_c,0,77,96
2,119330, Note_on_c,0,73,74
2,119330, Note_on_c,0,68,59
2,119330, Note_on_c,0,65,66
2,119330, Note_on_c,0,80,69
2,119334, Note_on_c,0,61,65
2,119350, Note_on_c,0,65,0
2,119350, Note_on_c,0,77,0
2,119354, Note_on_c,0,80,0
2,119362, Note_on_c,0,61,0
2,119366, Note_on_c,0,68,0
2,119374, Note_on_c,0,73,0
2,119378, Note_on_c,0,89,0
2,119382, Note_on_c,0,85,0
2,119514, Note_on_c,0,68,65
2,119522, Note_on_c,0,73,76
2,119522, Note_on_c,0,80,81
2,119522, Note_on_c,0,92,83
2,119526, Note_on_c,0,77,77
2,119530, Note_on_c,0,89,71
2,119530, Note_on_c,0,65,59
2,119530, Note_on_c,0,85,61
2,119546, Note_on_c,0,77,0
2,119550, Note_on_c,0,85,0
2,119550, Note_on_c,0,89,0
2,119554, Note_on_c,0,65,0
2,119558, Note_on_c,0,80,0
2,119558, Note_on_c,0,73,0
2,119562, Note_on_c,0,92,0
2,119570, Note_on_c,0,68,0
2,119578, Control_c,0,64,104
2,119590, Control_c,0,64,24
2,119602, Note_on_c,0,68,60
2,119602, Note_on_c,0,92,86
2,119602, Note_on_c,0,65,66
2,119602, Control_c,0,64,0
2,119606, Note_on_c,0,80,80
2,119606, Note_on_c,0,73,57
2,119610, Note_on_c,0,89,79
2,119610, Note_on_c,0,85,73
2,119614, Note_on_c,0,77,71
2,119622, Control_c,0,64,24
2,119634, Note_on_c,0,77,0
2,119634, Control_c,0,64,72
2,119638, Note_on_c,0,68,0
2,119646, Note_on_c,0,73,0
2,119646, Note_on_c,0,65,0
2,119646, Control_c,0,64,127
2,119658, Note_on_c,0,80,0
2,119658, Note_on_c,0,85,0
2,119662, Note_on_c,0,89,0
2,119670, Note_on_c,0,92,0
2,120082, Control_c,0,64,88
2,120094, Control_c,0,64,40
2,120106, Control_c,0,64,0
2,120158, Control_c,0,64,40
2,120170, Control_c,0,64,127
2,120178, Note_on_c,0,92,84
2,120178, Note_on_c,0,75,66
2,120178, Note_on_c,0,72,66
2,120178, Note_on_c,0,68,66
2,120178, Note_on_c,0,63,66
2,120182, Note_on_c,0,80,80
2,120182, Note_on_c,0,87,70
2,120190, Note_on_c,0,84,74
2,120206, Note_on_c,0,84,0
2,120222, Note_on_c,0,80,0
2,120222, Note_on_c,0,68,0
2,120222, Note_on_c,0,75,0
2,120222, Note_on_c,0,72,0
2,120222, Note_on_c,0,63,0
2,120226, Note_on_c,0,87,0
2,120234, Note_on_c,0,92,0
2,120262, Note_on_c,0,92,86
2,120262, Note_on_c,0,63,66
2,120262, Note_on_c,0,68,66
2,120262, Note_on_c,0,72,66
2,120262, Note_on_c,0,75,66
2,120266, Note_on_c,0,80,77
2,120270, Note_on_c,0,87,72
2,120278, Note_on_c,0,84,74
2,120298, Note_on_c,0,84,0
2,120306, Note_on_c,0,75,0
2,120306, Note_on_c,0,72,0
2,120306, Note_on_c,0,68,0
2,120306, Note_on_c,0,63,0
2,120322, Note_on_c,0,92,0
2,120322, Note_on_c,0,80,0
2,120326, Note_on_c,0,87,0
2,120490, Note_on_c,0,87,74
2,120490, Note_on_c,0,75,77
2,120490, Note_on_c,0,72,66
2,120490, Note_on_c,0,68,66
2,120490, Note_on_c,0,63,66
2,120498, Note_on_c,0,80,61
2,120498, Note_on_c,0,84,67
2,120518, Note_on_c,0,84,0
2,120522, Note_on_c,0,80,0
2,120526, Note_on_c,0,75,0
2,120534, Note_on_c,0,68,0
2,120534, Note_on_c,0,87,0
2,120534, Note_on_c,0,72,0
2,120534, Note_on_c,0,63,0
2,120534, Note_on_c,0,63,56
2,120550, Note_on_c,0,63,0
2,120570, Note_on_c,0,84,85
2,120574, Note_on_c,0,75,80
2,120574, Note_on_c,0,87,71
2,120578, Note_on_c,0,68,68
2,120582, Note_on_c,0,80,67
2,120582, Note_on_c,0,72,84
2,120582, Note_on_c,0,63,74
2,120610, Note_on_c,0,87,0
2,120618, Note_on_c,0,72,0
2,120618, Note_on_c,0,63,0
2,120622, Note_on_c,0,68,0
2,120622, Note_on_c,0,80,0
2,120626, Note_on_c,0,75,0
2,120626, Note_on_c,0,84,0
2,120794, Note_on_c,0,72,92
2,120794, Note_on_c,0,84,82
2,120794, Note_on_c,0,68,73
2,120794, Note_on_c,0,80,70
2,120794, Note_on_c,0,75,73
2,120794, Note_on_c,0,63,67
2,120806, Note_on_c,0,60,54
2,120826, Note_on_c,0,60,0
2,120826, Note_on_c,0,68,0
2,120830, Note_on_c,0,75,0
2,120830, Note_on_c,0,80,0
2,120834, Note_on_c,0,72,0
2,120834, Note_on_c,0,63,0
2,120834, Note_on_c,0,84,0
2,120870, Note_on_c,0,84,82
2,120870, Note_on_c,0,72,86
2,120870, Note_on_c,0,80,70
2,120874, Note_on_c,0,75,64
2,120874, Note_on_c,0,63,56
2,120878, Note_on_c,0,68,68
2,120878, Note_on_c,0,60,55
2,120910, Note_on_c,0,68,0
2,120914, Note_on_c,0,84,0
2,120914, Note_on_c,0,63,0
2,120918, Note_on_c,0,75,0
2,120918, Note_on_c,0,60,0
2,120922, Note_on_c,0,72,0
2,120930, Note_on_c,0,80,0
2,121082, Note_on_c,0,63,63
2,121082, Note_on_c,0,60,61
2,121086, Note_on_c,0,68,83
2,121086, Note_on_c,0,80,83
2,121090, Note_on_c,0,75,69
2,121090, Note_on_c,0,72,75
2,121098, Note_on_c,0,51,44
2,121102, Control_c,0,64,56
2,121110, Note_on_c,0,72,0
2,121114, Control_c,0,64,0
2,121118, Note_on_c,0,68,0
2,121118, Note_on_c,0,63,0
2,121118, Note_on_c,0,51,0
2,121126, Note_on_c,0,75,0
2,121130, Note_on_c,0,80,0
2,121130, Note_on_c,0,60,0
2,121138, Control_c,0,64,40
2,121150, Control_c,0,64,104
2,121158, Control_c,0,64,127
2,121162, Note_on_c,0,80,80
2,121162, Note_on_c,0,51,57
2,121162, Note_on_c,0,56,49
2,121166, Note_on_c,0,68,78
2,121166, Note_on_c,0,75,73
2,121166, Note_on_c,0,60,70
2,121170, Note_on_c,0,63,57
2,121182, Note_on_c,0,72,74
2,121198, Note_on_c,0,72,0
2,121198, Note_on_c,0,60,0
2,121206, Note_on_c,0,63,0
2,121210, Note_on_c,0,51,0
2,121210, Note_on_c,0,56,0
2,121218, Note_on_c,0,80,0
2,121222, Note_on_c,0,75,0
2,121226, Note_on_c,0,68,0
2,121378, Note_on_c,0,51,72
2,121378, Note_on_c,0,60,81
2,121378, Note_on_c,0,56,63
2,121378, Note_on_c,0,63,73
2,121382, Note_on_c,0,75,73
2,121386, Note_on_c,0,68,50
2,121390, Note_on_c,0,72,64
2,121390, Note_on_c,0,48,48
2,121402, Control_c,0,64,72
2,121406, Note_on_c,0,72,0
2,121410, Control_c,0,64,40
2,121414, Note_on_c,0,48,0
2,121414, Note_on_c,0,63,0
2,121418, Note_on_c,0,75,0
2,121418, Note_on_c,0,56,0
2,121422, Note_on_c,0,51,0
2,121422, Note_on_c,0,68,0
2,121422, Note_on_c,0,60,0
2,121426, Control_c,0,64,72
2,121434, Control_c,0,64,104
2,121446, Control_c,0,64,127
2,121458, Note_on_c,0,63,71
2,121458, Note_on_c,0,75,64
2,121458, Note_on_c,0,68,63
2,121466, Note_on_c,0,72,68
2,121470, Note_on_c,0,51,55
2,121474, Note_on_c,0,60,59
2,121478, Note_on_c,0,56,54
2,121494, Note_on_c,0,60,0
2,121494, Note_on_c,0,63,0
2,121498, Note_on_c,0,56,0
2,121506, Note_on_c,0,72,0
2,121510, Note_on_c,0,68,0
2,121514, Note_on_c,0,75,0
2,121522, Note_on_c,0,51,0
2,121742, Control_c,0,64,104
2,121754, Control_c,0,64,24
2,121766, Control_c,0,64,0
2,121782, Note_on_c,0,25,79
2,121786, Note_on_c,0,37,95
2,121822, Note_on_c,0,25,0
2,121826, Note_on_c,0,37,0
2,121830, Control_c,0,64,72
2,121842, Control_c,0,64,127
2,121998, Note_on_c,0,61,76
2,122002, Note_on_c,0,73,74
2,122002, Note_on_c,0,68,62
2,122010, Note_on_c,0,65,64
2,122018, Note_on_c,0,44,27
2,122022, Note_on_c,0,53,29
2,122030, Note_on_c,0,65,0
2,122038, Note_on_c,0,44,0
2,122038, Note_on_c,0,61,0
2,122042, Note_on_c,0,73,0
2,122042, Note_on_c,0,68,0
2,122046, Note_on_c,0,53,0
2,122078, Note_on_c,0,61,64
2,122078, Note_on_c,0,44,45
2,122078, Note_on_c,0,73,76
2,122078, Note_on_c,0,68,69
2,122082, Note_on_c,0,53,72
2,122082, Note_on_c,0,49,62
2,122086, Note_on_c,0,56,64
2,122090, Note_on_c,0,65,62
2,122106, Note_on_c,0,65,0
2,122114, Note_on_c,0,44,0
2,122118, Note_on_c,0,61,0
2,122122, Note_on_c,0,53,0
2,122126, Note_on_c,0,49,0
2,122138, Note_on_c,0,68,0
2,122142, Note_on_c,0,56,0
2,122146, Note_on_c,0,73,0
2,122214, Note_on_c,0,68,43
2,122230, Note_on_c,0,68,0
2,122290, Note_on_c,0,68,75
2,122290, Control_c,0,64,104
2,122294, Note_on_c,0,61,61
2,122294, Note_on_c,0,56,60
2,122294, Note_on_c,0,53,59
2,122298, Note_on_c,0,65,73
2,122298, Note_on_c,0,73,60
2,122298, Note_on_c,0,77,69
2,122302, Control_c,0,64,24
2,122314, Note_on_c,0,65,0
2,122314, Control_c,0,64,0
2,122318, Note_on_c,0,53,0
2,122318, Note_on_c,0,61,0
2,122318, Note_on_c,0,77,0
2,122322, Note_on_c,0,56,0
2,122322, Note_on_c,0,73,0
2,122322, Control_c,0,64,24
2,122330, Note_on_c,0,68,0
2,122334, Control_c,0,64,72
2,122346, Control_c,0,64,127
2,122370, Note_on_c,0,65,82
2,122370, Note_on_c,0,68,60
2,122370, Note_on_c,0,73,70
2,122374, Note_on_c,0,77,74
2,122374, Note_on_c,0,61,64
2,122378, Note_on_c,0,56,58
2,122378, Note_on_c,0,49,39
2,122378, Note_on_c,0,53,57
2,122398, Note_on_c,0,53,0
2,122398, Note_on_c,0,49,0
2,122402, Note_on_c,0,65,0
2,122410, Note_on_c,0,68,0
2,122418, Note_on_c,0,61,0
2,122418, Note_on_c,0,77,0
2,122418, Note_on_c,0,56,0
2,122422, Note_on_c,0,73,0
2,122578, Note_on_c,0,56,56
2,122586, Note_on_c,0,68,78
2,122590, Note_on_c,0,80,73
2,122594, Note_on_c,0,73,57
2,122594, Note_on_c,0,53,60
2,122594, Note_on_c,0,61,48
2,122594, Note_on_c,0,65,47
2,122598, Note_on_c,0,77,52
2,122610, Control_c,0,64,40
2,122614, Note_on_c,0,53,0
2,122614, Note_on_c,0,73,0
2,122618, Note_on_c,0,61,0
2,122618, Note_on_c,0,65,0
2,122622, Note_on_c,0,68,0
2,122622, Note_on_c,0,77,0
2,122622, Note_on_c,0,56,0
2,122622, Control_c,0,64,0
2,122630, Note_on_c,0,80,0
2,122642, Control_c,0,64,40
2,122654, Control_c,0,64,88
2,122666, Note_on_c,0,80,78
2,122666, Note_on_c,0,68,68
2,122666, Control_c,0,64,127
2,122670, Note_on_c,0,56,52
2,122674, Note_on_c,0,77,70
2,122674, Note_on_c,0,73,68
2,122678, Note_on_c,0,65,56
2,122682, Note_on_c,0,61,49
2,122702, Note_on_c,0,68,0
2,122706, Note_on_c,0,73,0
2,122706, Note_on_c,0,61,0
2,122718, Note_on_c,0,65,0
2,122722, Note_on_c,0,77,0
2,122722, Note_on_c,0,56,0
2,122730, Note_on_c,0,80,0
2,122870, Control_c,0,64,104
2,122878, Note_on_c,0,85,77
2,122878, Note_on_c,0,65,75
2,122878, Note_on_c,0,73,75
2,122878, Note_on_c,0,68,69
2,122882, Note_on_c,0,80,70
2,122886, Note_on_c,0,77,68
2,122886, Note_on_c,0,61,42
2,122886, Control_c,0,64,56
2,122890, Note_on_c,0,56,33
2,122906, Note_on_c,0,77,0
2,122906, Note_on_c,0,68,0
2,122906, Control_c,0,64,104
2,122910, Note_on_c,0,56,0
2,122910, Note_on_c,0,61,0
2,122914, Note_on_c,0,73,0
2,122914, Note_on_c,0,85,0
2,122918, Note_on_c,0,80,0
2,122918, Control_c,0,64,127
2,122922, Note_on_c,0,65,0
2,122958, Note_on_c,0,73,72
2,122962, Note_on_c,0,80,76
2,122962, Note_on_c,0,85,76
2,122966, Note_on_c,0,68,74
2,122966, Note_on_c,0,65,65
2,122966, Note_on_c,0,61,57
2,122966, Note_on_c,0,56,37
2,122974, Note_on_c,0,77,68
2,122986, Note_on_c,0,56,0
2,122990, Note_on_c,0,77,0
2,122998, Note_on_c,0,73,0
2,123002, Note_on_c,0,65,0
2,123010, Note_on_c,0,61,0
2,123014, Note_on_c,0,80,0
2,123022, Note_on_c,0,85,0
2,123026, Note_on_c,0,68,0
2,123082, Note_on_c,0,80,46
2,123102, Note_on_c,0,80,0
2,123174, Note_on_c,0,73,62
2,123174, Note_on_c,0,80,75
2,123178, Note_on_c,0,77,82
2,123178, Note_on_c,0,89,83
2,123182, Note_on_c,0,85,68
2,123182, Note_on_c,0,65,55
2,123182, Note_on_c,0,68,50
2,123206, Note_on_c,0,68,0
2,123206, Note_on_c,0,77,0
2,123210, Note_on_c,0,89,0
2,123214, Note_on_c,0,85,0
2,123214, Note_on_c,0,73,0
2,123214, Note_on_c,0,65,0
2,123214, Note_on_c,0,80,0
2,123262, Note_on_c,0,85,83
2,123262, Note_on_c,0,77,93
2,123262, Note_on_c,0,80,79
2,123266, Note_on_c,0,89,87
2,123270, Note_on_c,0,73,69
2,123274, Note_on_c,0,68,62
2,123278, Note_on_c,0,65,45
2,123282, Note_on_c,0,61,52
2,123286, Note_on_c,0,77,0
2,123290, Note_on_c,0,73,0
2,123298, Note_on_c,0,68,0
2,123302, Note_on_c,0,80,0
2,123302, Note_on_c,0,89,0
2,123302, Note_on_c,0,65,0
2,123306, Note_on_c,0,85,0
2,123330, Note_on_c,0,61,0
2,123510, Control_c,0,64,56
2,123522, Control_c,0,64,0
2,123586, Note_on_c,0,29,80
2,123594, Note_on_c,0,41,94
2,123610, Control_c,0,64,127
2,123622, Note_on_c,0,29,0
2,123634, Note_on_c,0,41,0
2,123806, Note_on_c,0,61,69
2,123810, Note_on_c,0,73,65
2,123810, Note_on_c,0,53,74
2,123818, Note_on_c,0,68,46
2,123822, Note_on_c,0,65,57
2,123822, Note_on_c,0,56,44
2,123826, Note_on_c,0,49,36
2,123838, Note_on_c,0,56,0
2,123838, Note_on_c,0,68,0
2,123842, Note_on_c,0,65,0
2,123842, Note_on_c,0,53,0
2,123846, Note_on_c,0,61,0
2,123846, Note_on_c,0,49,0
2,123850, Note_on_c,0,73,0
2,123890, Note_on_c,0,61,70
2,123890, Note_on_c,0,73,69
2,123894, Note_on_c,0,49,57
2,123894, Note_on_c,0,68,67
2,123894, Note_on_c,0,65,55
2,123894, Note_on_c,0,44,47
2,123898, Note_on_c,0,56,70
2,123898, Note_on_c,0,53,58
2,123918, Note_on_c,0,53,0
2,123918, Note_on_c,0,44,0
2,123918, Note_on_c,0,65,0
2,123926, Note_on_c,0,61,0
2,123934, Note_on_c,0,49,0
2,123934, Note_on_c,0,56,0
2,123938, Note_on_c,0,68,0
2,123954, Note_on_c,0,73,0
2,124014, Note_on_c,0,68,39
2,124038, Note_on_c,0,68,0
2,124094, Note_on_c,0,68,80
2,124098, Note_on_c,0,61,73
2,124098, Note_on_c,0,56,68
2,124102, Note_on_c,0,65,77
2,124102, Note_on_c,0,73,65
2,124102, Note_on_c,0,77,71
2,124102, Note_on_c,0,53,63
2,124102, Control_c,0,64,72
2,124114, Control_c,0,64,24
2,124118, Note_on_c,0,65,0
2,124122, Note_on_c,0,77,0
2,124122, Note_on_c,0,53,0
2,124130, Note_on_c,0,61,0
2,124130, Note_on_c,0,68,0
2,124130, Note_on_c,0,73,0
2,124138, Note_on_c,0,56,0
2,124146, Control_c,0,64,104
2,124154, Control_c,0,64,127
2,124178, Note_on_c,0,65,84
2,124178, Note_on_c,0,73,73
2,124178, Note_on_c,0,68,60
2,124178, Note_on_c,0,77,82
2,124186, Note_on_c,0,61,65
2,124186, Note_on_c,0,56,50
2,124190, Note_on_c,0,53,60
2,124190, Note_on_c,0,49,34
2,124206, Note_on_c,0,65,0
2,124210, Note_on_c,0,53,0
2,124214, Note_on_c,0,49,0
2,124214, Note_on_c,0,68,0
2,124226, Note_on_c,0,73,0
2,124226, Note_on_c,0,61,0
2,124230, Note_on_c,0,56,0
2,124230, Note_on_c,0,77,0
2,124382, Note_on_c,0,56,62
2,124386, Note_on_c,0,80,70
2,124386, Note_on_c,0,73,65
2,124386, Note_on_c,0,68,73
2,124386, Note_on_c,0,61,59
2,124390, Note_on_c,0,77,72
2,124390, Note_on_c,0,65,63
2,124398, Control_c,0,64,88
2,124402, Note_on_c,0,53,44
2,124410, Note_on_c,0,77,0
2,124410, Control_c,0,64,104
2,124414, Note_on_c,0,65,0
2,124414, Note_on_c,0,61,0
2,124418, Note_on_c,0,80,0
2,124422, Note_on_c,0,68,0
2,124422, Note_on_c,0,53,0
2,124422, Control_c,0,64,127
2,124426, Note_on_c,0,56,0
2,124426, Note_on_c,0,73,0
2,124462, Note_on_c,0,80,72
2,124462, Note_on_c,0,68,69
2,124466, Note_on_c,0,73,69
2,124466, Note_on_c,0,56,49
2,124470, Note_on_c,0,77,75
2,124482, Note_on_c,0,65,59
2,124502, Note_on_c,0,68,0
2,124506, Note_on_c,0,73,0
2,124510, Note_on_c,0,65,0
2,124514, Note_on_c,0,56,0
2,124518, Note_on_c,0,77,0
2,124526, Note_on_c,0,80,0
2,124662, Control_c,0,64,104
2,124666, Note_on_c,0,65,66
2,124674, Note_on_c,0,73,80
2,124674, Note_on_c,0,85,77
2,124674, Note_on_c,0,80,73
2,124674, Note_on_c,0,68,64
2,124674, Control_c,0,64,72
2,124678, Note_on_c,0,56,46
2,124678, Note_on_c,0,77,74
2,124682, Note_on_c,0,61,51
2,124686, Control_c,0,64,104
2,124694, Control_c,0,64,127
2,124698, Note_on_c,0,77,0
2,124702, Note_on_c,0,68,0
2,124706, Note_on_c,0,61,0
2,124706, Note_on_c,0,73,0
2,124706, Note_on_c,0,56,0
2,124714, Note_on_c,0,65,0
2,124714, Note_on_c,0,80,0
2,124714, Note_on_c,0,85,0
2,124754, Note_on_c,0,73,77
2,124758, Note_on_c,0,85,73
2,124762, Note_on_c,0,68,78
2,124762, Note_on_c,0,61,61
2,124762, Note_on_c,0,80,75
2,124762, Note_on_c,0,65,62
2,124766, Note_on_c,0,77,78
2,124770, Note_on_c,0,56,45
2,124786, Note_on_c,0,77,0
2,124790, Note_on_c,0,56,0
2,124794, Note_on_c,0,73,0
2,124794, Note_on_c,0,65,0
2,124806, Note_on_c,0,61,0
2,124806, Note_on_c,0,80,0
2,124814, Note_on_c,0,68,0
2,124822, Note_on_c,0,85,0
2,124890, Note_on_c,0,80,31
2,124910, Note_on_c,0,80,0
2,124962, Note_on_c,0,73,65
2,124962, Note_on_c,0,80,65
2,124966, Note_on_c,0,85,67
2,124966, Note_on_c,0,77,74
2,124966, Note_on_c,0,68,50
2,124966, Note_on_c,0,65,53
2,124970, Note_on_c,0,89,70
2,124986, Note_on_c,0,77,0
2,124990, Note_on_c,0,68,0
2,124994, Note_on_c,0,73,0
2,124994, Note_on_c,0,89,0
2,124998, Note_on_c,0,80,0
2,124998, Note_on_c,0,65,0
2,124998, Note_on_c,0,85,0
2,125054, Note_on_c,0,89,88
2,125054, Note_on_c,0,77,94
2,125054, Note_on_c,0,80,71
2,125054, Note_on_c,0,73,76
2,125054, Note_on_c,0,68,64
2,125054, Note_on_c,0,85,68
2,125058, Note_on_c,0,65,51
2,125074, Note_on_c,0,61,34
2,125086, Note_on_c,0,65,0
2,125086, Note_on_c,0,73,0
2,125090, Note_on_c,0,89,0
2,125094, Note_on_c,0,77,0
2,125098, Note_on_c,0,68,0
2,125098, Note_on_c,0,80,0
2,125110, Note_on_c,0,85,0
2,125118, Note_on_c,0,61,0
2,125298, Control_c,0,64,72
2,125310, Control_c,0,64,0
2,125366, Note_on_c,0,30,76
2,125374, Note_on_c,0,42,96
2,125398, Control_c,0,64,88
2,125406, Note_on_c,0,30,0
2,125410, Note_on_c,0,42,0
2,125410, Control_c,0,64,127
2,125574, Note_on_c,0,61,78
2,125578, Note_on_c,0,73,68
2,125578, Note_on_c,0,63,68
2,125586, Note_on_c,0,70,50
2,125586, Note_on_c,0,58,67
2,125590, Note_on_c,0,51,54
2,125594, Note_on_c,0,54,49
2,125594, Note_on_c,0,49,31
2,125606, Note_on_c,0,70,0
2,125610, Note_on_c,0,54,0
2,125610, Note_on_c,0,51,0
2,125614, Note_on_c,0,49,0
2,125614, Note_on_c,0,61,0
2,125618, Note_on_c,0,58,0
2,125618, Note_on_c,0,73,0
2,125622, Note_on_c,0,63,0
2,125658, Note_on_c,0,61,72
2,125662, Note_on_c,0,73,79
2,125666, Note_on_c,0,63,65
2,125666, Note_on_c,0,58,81
2,125670, Note_on_c,0,70,61
2,125674, Note_on_c,0,51,61
2,125674, Note_on_c,0,49,57
2,125682, Note_on_c,0,54,44
2,125686, Note_on_c,0,63,0
2,125694, Note_on_c,0,70,0
2,125694, Note_on_c,0,49,0
2,125698, Note_on_c,0,51,0
2,125702, Note_on_c,0,54,0
2,125706, Note_on_c,0,61,0
2,125714, Note_on_c,0,58,0
2,125726, Note_on_c,0,73,0
2,125870, Note_on_c,0,75,86
2,125870, Note_on_c,0,63,88
2,125874, Note_on_c,0,61,74
2,125878, Note_on_c,0,54,55
2,125878, Note_on_c,0,58,60
2,125878, Note_on_c,0,73,60
2,125882, Note_on_c,0,51,40
2,125886, Note_on_c,0,70,44
2,125898, Note_on_c,0,73,0
2,125902, Note_on_c,0,70,0
2,125902, Note_on_c,0,61,0
2,125902, Note_on_c,0,51,0
2,125906, Note_on_c,0,54,0
2,125906, Note_on_c,0,63,0
2,125914, Note_on_c,0,75,0
2,125918, Note_on_c,0,58,0
2,125954, Note_on_c,0,63,77
2,125954, Note_on_c,0,75,79
2,125966, Note_on_c,0,61,71
2,125966, Note_on_c,0,51,54
2,125966, Note_on_c,0,73,73
2,125966, Note_on_c,0,54,46
2,125966, Note_on_c,0,58,46
2,125970, Note_on_c,0,70,56
2,125990, Note_on_c,0,70,0
2,125990, Note_on_c,0,51,0
2,125990, Note_on_c,0,63,0
2,125994, Note_on_c,0,54,0
2,126002, Note_on_c,0,58,0
2,126006, Note_on_c,0,61,0
2,126010, Note_on_c,0,75,0
2,126018, Note_on_c,0,73,0
2,126162, Note_on_c,0,70,86
2,126162, Note_on_c,0,75,82
2,126162, Note_on_c,0,82,75
2,126162, Note_on_c,0,63,75
2,126166, Note_on_c,0,73,61
2,126170, Note_on_c,0,58,44
2,126174, Note_on_c,0,61,44
2,126178, Note_on_c,0,54,32
2,126186, Note_on_c,0,73,0
2,126190, Note_on_c,0,70,0
2,126194, Note_on_c,0,82,0
2,126194, Note_on_c,0,61,0
2,126198, Note_on_c,0,63,0
2,126198, Note_on_c,0,54,0
2,126198, Note_on_c,0,58,0
2,126198, Note_on_c,0,75,0
2,126242, Note_on_c,0,70,88
2,126246, Note_on_c,0,82,84
2,126246, Note_on_c,0,75,76
2,126250, Note_on_c,0,73,71
2,126250, Note_on_c,0,63,80
2,126258, Note_on_c,0,54,46
2,126258, Note_on_c,0,58,46
2,126270, Note_on_c,0,73,0
2,126278, Note_on_c,0,70,0
2,126278, Note_on_c,0,54,0
2,126282, Note_on_c,0,58,0
2,126290, Note_on_c,0,63,0
2,126294, Note_on_c,0,75,0
2,126310, Note_on_c,0,82,0
2,126454, Note_on_c,0,73,95
2,126454, Note_on_c,0,85,85
2,126458, Note_on_c,0,75,74
2,126458, Note_on_c,0,82,57
2,126458, Note_on_c,0,68,48
2,126466, Note_on_c,0,66,51
2,126474, Note_on_c,0,75,0
2,126474, Note_on_c,0,80,26
2,126482, Note_on_c,0,68,0
2,126482, Note_on_c,0,82,0
2,126486, Note_on_c,0,66,0
2,126490, Note_on_c,0,73,0
2,126494, Note_on_c,0,80,0
2,126494, Note_on_c,0,85,0
2,126538, Note_on_c,0,85,77
2,126538, Note_on_c,0,73,92
2,126538, Note_on_c,0,61,78
2,126542, Note_on_c,0,70,85
2,126546, Note_on_c,0,75,77
2,126546, Note_on_c,0,82,72
2,126546, Note_on_c,0,66,71
2,126562, Note_on_c,0,75,0
2,126578, Note_on_c,0,61,0
2,126586, Note_on_c,0,70,0
2,126586, Note_on_c,0,73,0
2,126590, Note_on_c,0,82,0
2,126598, Note_on_c,0,66,0
2,126606, Note_on_c,0,85,0
2,126742, Note_on_c,0,73,84
2,126746, Note_on_c,0,87,85
2,126750, Note_on_c,0,75,91
2,126754, Note_on_c,0,85,67
2,126758, Note_on_c,0,70,48
2,126758, Note_on_c,0,66,42
2,126758, Note_on_c,0,82,48
2,126770, Note_on_c,0,85,0
2,126778, Note_on_c,0,70,0
2,126778, Note_on_c,0,73,0
2,126778, Note_on_c,0,82,0
2,126782, Note_on_c,0,75,0
2,126782, Note_on_c,0,66,0
2,126790, Note_on_c,0,87,0
2,126830, Note_on_c,0,87,83
2,126834, Note_on_c,0,75,87
2,126834, Note_on_c,0,66,44
2,126838, Note_on_c,0,73,73
2,126838, Note_on_c,0,85,77
2,126842, Note_on_c,0,63,46
2,126846, Note_on_c,0,70,55
2,126846, Note_on_c,0,82,58
2,126866, Note_on_c,0,82,0
2,126866, Note_on_c,0,70,0
2,126866, Note_on_c,0,75,0
2,126866, Note_on_c,0,73,0
2,126878, Note_on_c,0,85,0
2,126882, Note_on_c,0,87,0
2,126890, Note_on_c,0,66,0
2,126898, Note_on_c,0,63,0
2,127090, Control_c,0,64,72
2,127102, Control_c,0,64,0
2,127122, Note_on_c,0,39,89
2,127122, Note_on_c,0,27,75
2,127154, Note_on_c,0,27,0
2,127154, Note_on_c,0,39,0
2,127170, Control_c,0,64,88
2,127178, Control_c,0,64,127
2,127326, Note_on_c,0,60,83
2,127326, Note_on_c,0,72,82
2,127330, Note_on_c,0,66,51
2,127330, Note_on_c,0,70,53
2,127334, Note_on_c,0,58,60
2,127342, Note_on_c,0,54,50
2,127346, Note_on_c,0,48,52
2,127350, Note_on_c,0,70,0
2,127354, Note_on_c,0,58,0
2,127354, Note_on_c,0,66,0
2,127358, Note_on_c,0,54,0
2,127362, Note_on_c,0,60,0
2,127366, Note_on_c,0,72,0
2,127370, Note_on_c,0,48,0
2,127402, Note_on_c,0,72,85
2,127402, Note_on_c,0,60,81
2,127406, Note_on_c,0,70,77
2,127410, Note_on_c,0,48,65
2,127410, Note_on_c,0,58,75
2,127410, Note_on_c,0,66,60
2,127410, Note_on_c,0,51,57
2,127414, Note_on_c,0,54,61
2,127422, Note_on_c,0,49,56
2,127430, Note_on_c,0,66,0
2,127430, Note_on_c,0,48,0
2,127438, Note_on_c,0,54,0
2,127442, Note_on_c,0,49,0
2,127442, Note_on_c,0,60,0
2,127450, Note_on_c,0,58,0
2,127450, Note_on_c,0,51,0
2,127458, Note_on_c,0,72,0
2,127466, Note_on_c,0,70,0
2,127614, Note_on_c,0,58,58
2,127614, Note_on_c,0,54,63
2,127614, Note_on_c,0,66,77
2,127614, Note_on_c,0,78,78
2,127618, Note_on_c,0,72,77
2,127622, Note_on_c,0,51,50
2,127622, Note_on_c,0,70,54
2,127622, Control_c,0,64,72
2,127626, Note_on_c,0,60,48
2,127626, Note_on_c,0,62,41
2,127630, Control_c,0,64,0
2,127638, Note_on_c,0,72,0
2,127642, Note_on_c,0,70,0
2,127642, Note_on_c,0,51,0
2,127646, Note_on_c,0,60,0
2,127650, Note_on_c,0,62,0
2,127650, Note_on_c,0,66,0
2,127650, Control_c,0,64,24
2,127654, Note_on_c,0,54,0
2,127654, Note_on_c,0,78,0
2,127658, Note_on_c,0,58,0
2,127662, Control_c,0,64,56
2,127674, Control_c,0,64,127
2,127690, Note_on_c,0,66,68
2,127690, Note_on_c,0,78,83
2,127694, Note_on_c,0,72,83
2,127698, Note_on_c,0,70,67
2,127698, Note_on_c,0,58,53
2,127698, Note_on_c,0,54,53
2,127698, Note_on_c,0,60,68
2,127702, Note_on_c,0,51,50
2,127722, Note_on_c,0,51,0
2,127722, Note_on_c,0,70,0
2,127726, Note_on_c,0,66,0
2,127734, Note_on_c,0,72,0
2,127738, Note_on_c,0,54,0
2,127742, Note_on_c,0,60,0
2,127742, Note_on_c,0,58,0
2,127754, Note_on_c,0,78,0
2,127894, Note_on_c,0,66,73
2,127894, Note_on_c,0,70,74
2,127894, Note_on_c,0,82,70
2,127894, Note_on_c,0,72,76
2,127894, Control_c,0,64,104
2,127898, Note_on_c,0,63,61
2,127898, Note_on_c,0,60,62
2,127902, Note_on_c,0,78,47
2,127902, Control_c,0,64,56
2,127914, Control_c,0,64,24
2,127918, Note_on_c,0,60,0
2,127922, Note_on_c,0,70,0
2,127922, Note_on_c,0,66,0
2,127922, Note_on_c,0,78,0
2,127926, Note_on_c,0,82,0
2,127926, Control_c,0,64,56
2,127934, Note_on_c,0,63,0
2,127934, Note_on_c,0,72,0
2,127938, Control_c,0,64,88
2,127946, Control_c,0,64,127
2,127970, Note_on_c,0,70,81
2,127970, Note_on_c,0,82,73
2,127974, Note_on_c,0,72,81
2,127974, Note_on_c,0,63,62
2,127974, Note_on_c,0,66,76
2,127978, Note_on_c,0,60,64
2,127982, Note_on_c,0,78,56
2,127982, Note_on_c,0,58,48
2,127994, Note_on_c,0,72,0
2,127998, Note_on_c,0,58,0
2,127998, Note_on_c,0,60,0
2,128006, Note_on_c,0,78,0
2,128022, Note_on_c,0,63,0
2,128022, Note_on_c,0,66,0
2,128034, Note_on_c,0,70,0
2,128038, Note_on_c,0,82,0
2,128174, Note_on_c,0,70,64
2,128178, Note_on_c,0,84,86
2,128178, Note_on_c,0,66,52
2,128182, Note_on_c,0,72,85
2,128182, Note_on_c,0,63,45
2,128182, Note_on_c,0,82,61
2,128182, Control_c,0,64,56
2,128186, Note_on_c,0,78,61
2,128190, Note_on_c,0,60,41
2,128190, Control_c,0,64,24
2,128198, Note_on_c,0,82,0
2,128198, Control_c,0,64,56
2,128206, Note_on_c,0,78,0
2,128206, Note_on_c,0,66,0
2,128210, Note_on_c,0,72,0
2,128210, Note_on_c,0,70,0
2,128210, Control_c,0,64,104
2,128214, Note_on_c,0,60,0
2,128214, Note_on_c,0,84,0
2,128218, Note_on_c,0,63,0
2,128222, Control_c,0,64,127
2,128250, Note_on_c,0,84,76
2,128258, Note_on_c,0,72,84
2,128258, Note_on_c,0,82,77
2,128258, Note_on_c,0,63,62
2,128262, Note_on_c,0,70,65
2,128266, Note_on_c,0,78,57
2,128266, Note_on_c,0,66,52
2,128286, Note_on_c,0,78,0
2,128290, Note_on_c,0,72,0
2,128290, Note_on_c,0,66,0
2,128298, Note_on_c,0,63,0
2,128310, Note_on_c,0,84,0
2,128322, Note_on_c,0,82,0
2,128334, Note_on_c,0,70,0
2,128458, Note_on_c,0,90,81
2,128458, Note_on_c,0,72,80
2,128458, Note_on_c,0,78,85
2,128458, Note_on_c,0,70,63
2,128462, Note_on_c,0,66,60
2,128462, Note_on_c,0,84,79
2,128466, Note_on_c,0,82,54
2,128466, Control_c,0,64,88
2,128474, Control_c,0,64,56
2,128478, Note_on_c,0,63,31
2,128486, Note_on_c,0,82,0
2,128494, Note_on_c,0,78,0
2,128498, Note_on_c,0,84,0
2,128498, Control_c,0,64,104
2,128502, Note_on_c,0,63,0
2,128502, Note_on_c,0,90,0
2,128502, Note_on_c,0,66,0
2,128502, Note_on_c,0,72,0
2,128506, Note_on_c,0,70,0
2,128510, Control_c,0,64,127
2,128534, Note_on_c,0,90,77
2,128538, Note_on_c,0,78,85
2,128542, Note_on_c,0,84,85
2,128546, Note_on_c,0,82,74
2,128546, Note_on_c,0,66,40
2,128546, Note_on_c,0,63,42
2,128554, Note_on_c,0,72,68
2,128554, Note_on_c,0,70,42
2,128566, Note_on_c,0,82,0
2,128570, Note_on_c,0,72,0
2,128582, Note_on_c,0,70,0
2,128582, Note_on_c,0,78,0
2,128594, Note_on_c,0,84,0
2,128606, Note_on_c,0,90,0
2,128606, Note_on_c,0,66,0
2,128614, Note_on_c,0,63,0
2,128794, Control_c,0,64,88
2,128802, Control_c,0,64,0
2,128850, Note_on_c,0,29,79
2,128854, Note_on_c,0,41,84
2,128882, Control_c,0,64,72
2,128890, Control_c,0,64,127
2,128898, Note_on_c,0,29,0
2,128906, Note_on_c,0,41,0
2,129062, Note_on_c,0,77,89
2,129062, Note_on_c,0,89,86
2,129062, Note_on_c,0,84,76
2,129066, Note_on_c,0,81,72
2,129082, Note_on_c,0,81,0
2,129082, Note_on_c,0,84,0
2,129098, Note_on_c,0,89,0
2,129098, Note_on_c,0,77,0
2,129150, Note_on_c,0,89,79
2,129150, Note_on_c,0,77,88
2,129150, Note_on_c,0,81,82
2,129154, Note_on_c,0,84,88
2,129154, Note_on_c,0,69,73
2,129154, Note_on_c,0,65,64
2,129158, Note_on_c,0,60,58
2,129162, Note_on_c,0,57,55
2,129186, Note_on_c,0,69,0
2,129186, Note_on_c,0,77,0
2,129194, Note_on_c,0,81,0
2,129198, Note_on_c,0,84,0
2,129198, Note_on_c,0,65,0
2,129206, Note_on_c,0,89,0
2,129210, Note_on_c,0,60,0
2,129226, Note_on_c,0,57,0
2,129418, Control_c,0,64,56
2,129430, Control_c,0,64,0
2,129450, Note_on_c,0,34,69
2,129454, Note_on_c,0,46,91
2,129482, Note_on_c,0,34,0
2,129498, Control_c,0,64,104
2,129502, Note_on_c,0,46,0
2,129506, Control_c,0,64,127
2,129654, Note_on_c,0,80,85
2,129658, Note_on_c,0,77,88
2,129658, Note_on_c,0,89,86
2,129666, Note_on_c,0,86,67
2,129682, Note_on_c,0,86,0
2,129694, Note_on_c,0,89,0
2,129698, Note_on_c,0,77,0
2,129698, Note_on_c,0,80,0
2,129750, Note_on_c,0,77,89
2,129750, Note_on_c,0,89,79
2,129750, Note_on_c,0,80,85
2,129754, Note_on_c,0,86,76
2,129754, Note_on_c,0,70,73
2,129754, Note_on_c,0,68,67
2,129762, Note_on_c,0,62,62
2,129770, Note_on_c,0,58,40
2,129786, Note_on_c,0,62,0
2,129790, Note_on_c,0,77,0
2,129794, Note_on_c,0,89,0
2,129802, Note_on_c,0,70,0
2,129802, Note_on_c,0,68,0
2,129806, Note_on_c,0,80,0
2,129810, Note_on_c,0,86,0
2,129838, Note_on_c,0,58,0
2,130022, Control_c,0,64,104
2,130034, Control_c,0,64,0
2,130062, Note_on_c,0,39,95
2,130066, Note_on_c,0,27,79
2,130090, Note_on_c,0,27,0
2,130098, Note_on_c,0,39,0
2,130098, Control_c,0,64,88
2,130110, Control_c,0,64,127
2,130274, Note_on_c,0,87,79
2,130274, Note_on_c,0,75,84
2,130282, Note_on_c,0,82,65
2,130286, Note_on_c,0,79,72
2,130306, Note_on_c,0,79,0
2,130318, Note_on_c,0,82,0
2,130318, Note_on_c,0,75,0
2,130322, Note_on_c,0,87,0
2,130362, Note_on_c,0,87,72
2,130362, Note_on_c,0,75,77
2,130362, Note_on_c,0,58,58
2,130366, Note_on_c,0,67,73
2,130366, Note_on_c,0,82,67
2,130366, Note_on_c,0,63,64
2,130374, Note_on_c,0,79,75
2,130374, Note_on_c,0,55,65
2,130390, Note_on_c,0,79,0
2,130406, Note_on_c,0,63,0
2,130406, Note_on_c,0,67,0
2,130410, Note_on_c,0,75,0
2,130426, Note_on_c,0,58,0
2,130430, Note_on_c,0,55,0
2,130430, Note_on_c,0,82,0
2,130430, Note_on_c,0,87,0
2,130606, Control_c,0,64,88
2,130614, Control_c,0,64,0
2,130674, Note_on_c,0,32,64
2,130674, Note_on_c,0,44,87
2,130706, Note_on_c,0,32,0
2,130706, Control_c,0,64,104
2,130714, Note_on_c,0,44,0
2,130714, Control_c,0,64,127
2,130878, Note_on_c,0,87,77
2,130878, Note_on_c,0,75,83
2,130882, Note_on_c,0,78,69
2,130894, Note_on_c,0,84,65
2,130910, Note_on_c,0,84,0
2,130922, Note_on_c,0,75,0
2,130926, Note_on_c,0,78,0
2,130926, Note_on_c,0,87,0
2,130962, Note_on_c,0,75,84
2,130966, Note_on_c,0,87,73
2,130970, Note_on_c,0,78,62
2,130974, Note_on_c,0,68,77
2,130978, Note_on_c,0,84,72
2,130978, Note_on_c,0,66,65
2,130982, Note_on_c,0,60,64
2,130986, Note_on_c,0,56,39
2,131006, Note_on_c,0,60,0
2,131010, Note_on_c,0,78,0
2,131014, Note_on_c,0,75,0
2,131018, Note_on_c,0,84,0
2,131018, Note_on_c,0,68,0
2,131018, Note_on_c,0,66,0
2,131022, Note_on_c,0,87,0
2,131050, Note_on_c,0,56,0
2,131242, Control_c,0,64,104
2,131254, Control_c,0,64,24
2,131266, Control_c,0,64,0
2,131274, Note_on_c,0,49,95
2,131278, Note_on_c,0,37,77
2,131310, Note_on_c,0,37,0
2,131318, Note_on_c,0,49,0
2,131318, Control_c,0,64,72
2,131330, Control_c,0,64,127
2,131470, Note_on_c,0,85,81
2,131470, Note_on_c,0,73,84
2,131474, Note_on_c,0,80,70
2,131478, Note_on_c,0,77,74
2,131498, Note_on_c,0,77,0
2,131506, Note_on_c,0,80,0
2,131506, Note_on_c,0,73,0
2,131514, Note_on_c,0,85,0
2,131550, Note_on_c,0,85,74
2,131550, Note_on_c,0,73,81
2,131554, Note_on_c,0,80,76
2,131558, Note_on_c,0,65,75
2,131558, Note_on_c,0,56,63
2,131562, Note_on_c,0,61,64
2,131566, Note_on_c,0,77,66
2,131566, Note_on_c,0,53,64
2,131586, Note_on_c,0,77,0
2,131594, Note_on_c,0,65,0
2,131598, Note_on_c,0,73,0
2,131602, Note_on_c,0,85,0
2,131602, Note_on_c,0,61,0
2,131606, Note_on_c,0,80,0
2,131618, Note_on_c,0,56,0
2,131626, Note_on_c,0,53,0
2,131802, Control_c,0,64,104
2,131814, Control_c,0,64,40
2,131822, Control_c,0,64,0
2,131846, Note_on_c,0,31,69
2,131850, Note_on_c,0,43,92
2,131870, Note_on_c,0,31,0
2,131890, Control_c,0,64,104
2,131898, Note_on_c,0,43,0
2,131902, Control_c,0,64,127
2,132046, Note_on_c,0,82,73
2,132046, Note_on_c,0,70,65
2,132050, Note_on_c,0,73,65
2,132058, Note_on_c,0,77,65
2,132078, Note_on_c,0,77,0
2,132090, Note_on_c,0,82,0
2,132090, Note_on_c,0,70,0
2,132094, Note_on_c,0,73,0
2,132130, Note_on_c,0,70,67
2,132130, Note_on_c,0,82,73
2,132134, Note_on_c,0,73,60
2,132138, Note_on_c,0,77,71
2,132166, Note_on_c,0,65,76
2,132166, Note_on_c,0,61,60
2,132170, Note_on_c,0,58,55
2,132170, Note_on_c,0,55,62
2,132174, Note_on_c,0,70,0
2,132178, Note_on_c,0,73,0
2,132194, Note_on_c,0,77,0
2,132206, Note_on_c,0,65,0
2,132210, Note_on_c,0,61,0
2,132214, Note_on_c,0,82,0
2,132222, Note_on_c,0,55,0
2,132226, Note_on_c,0,58,0
2,132418, Control_c,0,64,72
2,132430, Control_c,0,64,0
2,132446, Note_on_c,0,32,72
2,132450, Note_on_c,0,44,96
2,132478, Note_on_c,0,32,0
2,132482, Control_c,0,64,72
2,132486, Note_on_c,0,44,0
2,132490, Control_c,0,64,127
2,132670, Note_on_c,0,92,87
2,132674, Note_on_c,0,80,86
2,132678, Note_on_c,0,85,73
2,132678, Note_on_c,0,89,80
2,132682, Note_on_c,0,68,54
2,132686, Note_on_c,0,73,58
2,132686, Note_on_c,0,65,68
2,132686, Note_on_c,0,77,67
2,132706, Note_on_c,0,65,0
2,132710, Note_on_c,0,77,0
2,132710, Note_on_c,0,92,0
2,132710, Note_on_c,0,80,0
2,132714, Note_on_c,0,68,0
2,132714, Note_on_c,0,89,0
2,132714, Note_on_c,0,73,0
2,132718, Note_on_c,0,85,0
2,132754, Note_on_c,0,92,86
2,132754, Note_on_c,0,80,83
2,132754, Note_on_c,0,85,71
2,132758, Note_on_c,0,89,82
2,132758, Note_on_c,0,77,66
2,132758, Note_on_c,0,73,56
2,132762, Note_on_c,0,65,60
2,132762, Note_on_c,0,68,54
2,132778, Note_on_c,0,77,0
2,132782, Note_on_c,0,65,0
2,132782, Note_on_c,0,73,0
2,132798, Note_on_c,0,85,0
2,132802, Note_on_c,0,68,0
2,132806, Note_on_c,0,89,0
2,132810, Note_on_c,0,92,0
2,132810, Note_on_c,0,80,0
2,132874, Note_on_c,0,90,45
2,132894, Note_on_c,0,90,0
2,132962, Note_on_c,0,73,81
2,132962, Note_on_c,0,89,88
2,132966, Note_on_c,0,77,94
2,132966, Note_on_c,0,80,79
2,132970, Note_on_c,0,85,69
2,132970, Note_on_c,0,68,59
2,132974, Note_on_c,0,65,63
2,132986, Note_on_c,0,85,0
2,132990, Note_on_c,0,68,0
2,132998, Note_on_c,0,80,0
2,132998, Note_on_c,0,73,0
2,132998, Note_on_c,0,65,0
2,132998, Control_c,0,64,88
2,133002, Note_on_c,0,89,0
2,133002, Note_on_c,0,77,0
2,133022, Control_c,0,64,127
2,133042, Note_on_c,0,77,93
2,133042, Note_on_c,0,89,83
2,133046, Note_on_c,0,85,77
2,133050, Note_on_c,0,73,68
2,133050, Note_on_c,0,80,69
2,133050, Note_on_c,0,65,47
2,133054, Note_on_c,0,68,56
2,133058, Note_on_c,0,61,30
2,133074, Note_on_c,0,68,0
2,133078, Note_on_c,0,89,0
2,133082, Note_on_c,0,61,0
2,133082, Note_on_c,0,73,0
2,133086, Note_on_c,0,80,0
2,133086, Note_on_c,0,65,0
2,133098, Note_on_c,0,77,0
2,133098, Note_on_c,0,85,0
2,133158, Note_on_c,0,68,32
2,133182, Note_on_c,0,68,0
2,133258, Note_on_c,0,85,80
2,133258, Note_on_c,0,65,66
2,133258, Note_on_c,0,73,81
2,133258, Note_on_c,0,68,58
2,133266, Note_on_c,0,80,62
2,133266, Note_on_c,0,77,63
2,133270, Note_on_c,0,56,31
2,133278, Note_on_c,0,61,51
2,133282, Note_on_c,0,77,0
2,133282, Note_on_c,0,68,0
2,133282, Note_on_c,0,80,0
2,133294, Note_on_c,0,85,0
2,133294, Note_on_c,0,73,0
2,133294, Note_on_c,0,56,0
2,133298, Note_on_c,0,61,0
2,133298, Note_on_c,0,65,0
2,133338, Note_on_c,0,85,80
2,133338, Note_on_c,0,73,73
2,133342, Note_on_c,0,61,43
2,133342, Note_on_c,0,80,72
2,133342, Note_on_c,0,56,42
2,133346, Note_on_c,0,68,64
2,133346, Note_on_c,0,65,63
2,133350, Note_on_c,0,77,66
2,133366, Note_on_c,0,65,0
2,133370, Note_on_c,0,77,0
2,133374, Note_on_c,0,68,0
2,133382, Note_on_c,0,61,0
2,133386, Note_on_c,0,85,0
2,133390, Note_on_c,0,56,0
2,133390, Note_on_c,0,80,0
2,133394, Note_on_c,0,73,0
2,133542, Note_on_c,0,80,75
2,133542, Note_on_c,0,56,65
2,133542, Note_on_c,0,68,75
2,133546, Note_on_c,0,61,65
2,133546, Note_on_c,0,73,58
2,133546, Note_on_c,0,65,70
2,133550, Note_on_c,0,53,64
2,133550, Note_on_c,0,77,71
2,133566, Note_on_c,0,65,0
2,133570, Note_on_c,0,77,0
2,133570, Note_on_c,0,53,0
2,133570, Control_c,0,64,88
2,133574, Note_on_c,0,68,0
2,133578, Note_on_c,0,73,0
2,133578, Note_on_c,0,80,0
2,133582, Note_on_c,0,61,0
2,133582, Control_c,0,64,40
2,133586, Note_on_c,0,56,0
2,133614, Control_c,0,64,127
2,133622, Note_on_c,0,68,67
2,133622, Note_on_c,0,80,75
2,133626, Note_on_c,0,73,60
2,133626, Note_on_c,0,77,72
2,133626, Note_on_c,0,56,49
2,133638, Note_on_c,0,65,68
2,133638, Note_on_c,0,53,59
2,133642, Note_on_c,0,61,40
2,133658, Note_on_c,0,61,0
2,133658, Note_on_c,0,65,0
2,133662, Note_on_c,0,53,0
2,133670, Note_on_c,0,73,0
2,133674, Note_on_c,0,77,0
2,133674, Note_on_c,0,80,0
2,133678, Note_on_c,0,68,0
2,133682, Note_on_c,0,56,0
2,133826, Note_on_c,0,61,71
2,133830, Note_on_c,0,65,85
2,133834, Note_on_c,0,68,74
2,133834, Note_on_c,0,73,69
2,133834, Note_on_c,0,56,64
2,133834, Note_on_c,0,77,80
2,133838, Note_on_c,0,53,61
2,133858, Note_on_c,0,77,0
2,133862, Note_on_c,0,61,0
2,133862, Note_on_c,0,65,0
2,133862, Note_on_c,0,68,0
2,133866, Note_on_c,0,73,0
2,133866, Note_on_c,0,56,0
2,133866, Note_on_c,0,53,0
2,133910, Note_on_c,0,65,86
2,133914, Note_on_c,0,77,85
2,133914, Note_on_c,0,73,69
2,133914, Note_on_c,0,68,64
2,133918, Note_on_c,0,53,60
2,133922, Note_on_c,0,61,64
2,133926, Note_on_c,0,56,52
2,133938, Note_on_c,0,68,0
2,133946, Note_on_c,0,65,0
2,133946, Note_on_c,0,56,0
2,133950, Note_on_c,0,53,0
2,133950, Note_on_c,0,61,0
2,133970, Note_on_c,0,73,0
2,133978, Note_on_c,0,77,0
2,134186, Control_c,0,64,104
2,134194, Control_c,0,64,24
2,134206, Control_c,0,64,0
2,134222, Note_on_c,0,27,79
2,134230, Note_on_c,0,39,82
2,134254, Control_c,0,64,56
2,134258, Note_on_c,0,39,0
2,134258, Note_on_c,0,27,0
2,134262, Control_c,0,64,127
2,134442, Note_on_c,0,75,79
2,134442, Note_on_c,0,67,71
2,134442, Note_on_c,0,87,77
2,134446, Note_on_c,0,82,67
2,134454, Note_on_c,0,79,72
2,134462, Note_on_c,0,58,25
2,134474, Note_on_c,0,79,0
2,134474, Note_on_c,0,67,0
2,134482, Note_on_c,0,82,0
2,134482, Note_on_c,0,75,0
2,134482, Note_on_c,0,58,0
2,134486, Note_on_c,0,87,0
2,134514, Note_on_c,0,58,59
2,134518, Note_on_c,0,87,79
2,134518, Note_on_c,0,70,81
2,134522, Note_on_c,0,67,74
2,134522, Note_on_c,0,75,76
2,134526, Note_on_c,0,82,71
2,134526, Note_on_c,0,63,60
2,134530, Note_on_c,0,79,68
2,134546, Note_on_c,0,63,0
2,134550, Note_on_c,0,79,0
2,134550, Note_on_c,0,70,0
2,134554, Note_on_c,0,67,0
2,134566, Note_on_c,0,58,0
2,134566, Note_on_c,0,82,0
2,134570, Note_on_c,0,87,0
2,134582, Note_on_c,0,75,0
2,134706, Note_on_c,0,58,69
2,134710, Note_on_c,0,63,71
2,134714, Note_on_c,0,67,75
2,134714, Note_on_c,0,70,63
2,134714, Note_on_c,0,82,56
2,134726, Note_on_c,0,79,52
2,134730, Note_on_c,0,75,38
2,134734, Note_on_c,0,67,0
2,134746, Note_on_c,0,70,0
2,134746, Note_on_c,0,79,0
2,134750, Note_on_c,0,82,0
2,134750, Note_on_c,0,75,0
2,134750, Note_on_c,0,63,0
2,134754, Note_on_c,0,58,0
2,134794, Note_on_c,0,82,71
2,134798, Note_on_c,0,70,76
2,134798, Note_on_c,0,58,57
2,134802, Note_on_c,0,79,60
2,134802, Note_on_c,0,75,48
2,134802, Note_on_c,0,67,82
2,134806, Note_on_c,0,63,72
2,134806, Note_on_c,0,55,58
2,134830, Note_on_c,0,55,0
2,134834, Note_on_c,0,67,0
2,134842, Note_on_c,0,79,0
2,134842, Note_on_c,0,63,0
2,134846, Note_on_c,0,75,0
2,134850, Note_on_c,0,82,0
2,134858, Note_on_c,0,58,0
2,134862, Note_on_c,0,70,0
2,135006, Note_on_c,0,63,76
2,135014, Note_on_c,0,67,84
2,135014, Note_on_c,0,79,84
2,135014, Note_on_c,0,70,69
2,135018, Note_on_c,0,55,63
2,135018, Note_on_c,0,58,51
2,135018, Note_on_c,0,75,64
2,135034, Note_on_c,0,55,0
2,135042, Note_on_c,0,58,0
2,135042, Note_on_c,0,63,0
2,135042, Note_on_c,0,75,0
2,135050, Note_on_c,0,79,0
2,135050, Note_on_c,0,70,0
2,135054, Note_on_c,0,67,0
2,135066, Control_c,0,64,88
2,135074, Control_c,0,64,24
2,135094, Note_on_c,0,67,78
2,135094, Note_on_c,0,79,82
2,135098, Note_on_c,0,75,73
2,135098, Note_on_c,0,70,62
2,135098, Control_c,0,64,56
2,135102, Note_on_c,0,63,72
2,135106, Note_on_c,0,58,58
2,135106, Note_on_c,0,55,61
2,135106, Control_c,0,64,104
2,135118, Note_on_c,0,51,25
2,135118, Control_c,0,64,127
2,135130, Note_on_c,0,58,0
2,135130, Note_on_c,0,67,0
2,135130, Note_on_c,0,63,0
2,135134, Note_on_c,0,70,0
2,135146, Note_on_c,0,79,0
2,135146, Note_on_c,0,55,0
2,135154, Note_on_c,0,75,0
2,135162, Note_on_c,0,51,0
2,135362, Control_c,0,64,88
2,135370, Control_c,0,64,0
2,135390, Note_on_c,0,32,71
2,135390, Note_on_c,0,44,91
2,135414, Control_c,0,64,24
2,135422, Note_on_c,0,32,0
2,135426, Note_on_c,0,44,0
2,135426, Control_c,0,64,88
2,135438, Control_c,0,64,127
2,135582, Note_on_c,0,78,76
2,135586, Note_on_c,0,66,74
2,135586, Note_on_c,0,68,67
2,135598, Note_on_c,0,72,69
2,135614, Note_on_c,0,72,0
2,135626, Note_on_c,0,66,0
2,135634, Note_on_c,0,68,0
2,135634, Note_on_c,0,78,0
2,135670, Note_on_c,0,66,77
2,135670, Note_on_c,0,78,77
2,135674, Note_on_c,0,68,69
2,135682, Note_on_c,0,72,77
2,135682, Note_on_c,0,75,51
2,135690, Note_on_c,0,63,76
2,135690, Note_on_c,0,60,78
2,135690, Control_c,0,64,56
2,135694, Note_on_c,0,56,58
2,135694, Note_on_c,0,54,61
2,135702, Control_c,0,64,0
2,135714, Control_c,0,64,40
2,135718, Note_on_c,0,66,0
2,135722, Note_on_c,0,72,0
2,135722, Note_on_c,0,68,0
2,135722, Control_c,0,64,88
2,135734, Note_on_c,0,78,0
2,135734, Note_on_c,0,75,0
2,135734, Note_on_c,0,63,0
2,135734, Control_c,0,64,127
2,135738, Note_on_c,0,60,0
2,135750, Note_on_c,0,56,0
2,135762, Note_on_c,0,54,0
2,135966, Control_c,0,64,104
2,135974, Control_c,0,64,24
2,135986, Control_c,0,64,0
2,135998, Note_on_c,0,25,78
2,136002, Note_on_c,0,37,85
2,136030, Control_c,0,64,72
2,136034, Note_on_c,0,25,0
2,136038, Note_on_c,0,37,0
2,136038, Control_c,0,64,127
2,136202, Note_on_c,0,68,73
2,136202, Note_on_c,0,73,68
2,136206, Note_on_c,0,65,74
2,136206, Note_on_c,0,77,77
2,136210, Note_on_c,0,61,69
2,136210, Note_on_c,0,56,67
2,136214, Note_on_c,0,53,62
2,136214, Note_on_c,0,49,57
2,136218, Control_c,0,64,88
2,136230, Control_c,0,64,24
2,136234, Note_on_c,0,49,0
2,136234, Note_on_c,0,53,0
2,136238, Note_on_c,0,77,0
2,136238, Note_on_c,0,61,0
2,136242, Note_on_c,0,65,0
2,136242, Note_on_c,0,68,0
2,136242, Note_on_c,0,73,0
2,136242, Note_on_c,0,56,0
2,136262, Control_c,0,64,104
2,136270, Control_c,0,64,127
2,136290, Note_on_c,0,77,83
2,136290, Note_on_c,0,65,88
2,136294, Note_on_c,0,73,72
2,136294, Note_on_c,0,68,71
2,136294, Note_on_c,0,61,68
2,136302, Note_on_c,0,56,55
2,136302, Note_on_c,0,53,62
2,136302, Note_on_c,0,49,54
2,136342, Note_on_c,0,61,0
2,136350, Note_on_c,0,49,0
2,136354, Note_on_c,0,68,0
2,136354, Note_on_c,0,56,0
2,136358, Note_on_c,0,53,0
2,136362, Note_on_c,0,77,0
2,136366, Note_on_c,0,73,0
2,136366, Note_on_c,0,65,0
2,136494, Note_on_c,0,61,70
2,136498, Note_on_c,0,56,58
2,136498, Note_on_c,0,73,80
2,136498, Note_on_c,0,53,63
2,136502, Note_on_c,0,68,65
2,136502, Note_on_c,0,65,72
2,136514, Note_on_c,0,49,25
2,136522, Note_on_c,0,53,0
2,136526, Note_on_c,0,61,0
2,136534, Note_on_c,0,56,0
2,136534, Note_on_c,0,49,0
2,136538, Note_on_c,0,65,0
2,136538, Note_on_c,0,68,0
2,136542, Note_on_c,0,73,0
2,136578, Control_c,0,64,104
2,136586, Note_on_c,0,73,85
2,136586, Note_on_c,0,49,55
2,136586, Note_on_c,0,65,74
2,136590, Note_on_c,0,61,69
2,136590, Note_on_c,0,68,67
2,136590, Note_on_c,0,53,59
2,136590, Control_c,0,64,0
2,136598, Note_on_c,0,56,50
2,136634, Note_on_c,0,68,0
2,136634, Control_c,0,64,40
2,136646, Note_on_c,0,65,0
2,136646, Control_c,0,64,127
2,136650, Note_on_c,0,49,0
2,136654, Note_on_c,0,61,0
2,136654, Note_on_c,0,53,0
2,136658, Note_on_c,0,56,0
2,136662, Note_on_c,0,73,0
2,137094, Control_c,0,64,104
2,137106, Control_c,0,64,72
2,137118, Control_c,0,64,40
2,137126, Control_c,0,64,0
2,138052, Control_c,0,64,0
2,138060, Note_on_c,0,98,78
2,138060, Note_on_c,0,86,55
2,138060, Note_on_c,0,92,57
2,138060, Note_on_c,0,83,57
2,138060, Note_on_c,0,80,57
2,138124, Note_on_c,0,80,0
2,138124, Note_on_c,0,92,0
2,138124, Note_on_c,0,83,0
2,138124, Note_on_c,0,86,0
2,138144, Note_on_c,0,98,0
2,138248, Note_on_c,0,95,78
2,138248, Note_on_c,0,83,58
2,138248, Note_on_c,0,80,58
2,138248, Note_on_c,0,77,55
2,138304, Note_on_c,0,77,0
2,138304, Note_on_c,0,80,0
2,138304, Note_on_c,0,83,0
2,138308, Note_on_c,0,95,0
2,138432, Note_on_c,0,92,76
2,138432, Note_on_c,0,80,55
2,138432, Note_on_c,0,83,55
2,138432, Note_on_c,0,77,55
2,138432, Note_on_c,0,71,55
2,138488, Note_on_c,0,71,0
2,138488, Note_on_c,0,83,0
2,138488, Note_on_c,0,77,0
2,138488, Note_on_c,0,80,0
2,138492, Note_on_c,0,92,0
2,138600, Note_on_c,0,89,79
2,138600, Note_on_c,0,80,55
2,138600, Note_on_c,0,77,55
2,138600, Note_on_c,0,68,55
2,138656, Note_on_c,0,68,0
2,138656, Note_on_c,0,77,0
2,138656, Note_on_c,0,80,0
2,138696, Note_on_c,0,89,0
2,138772, Note_on_c,0,83,68
2,138772, Note_on_c,0,77,55
2,138772, Note_on_c,0,71,55
2,138772, Note_on_c,0,65,55
2,138828, Note_on_c,0,65,0
2,138828, Note_on_c,0,71,0
2,138828, Note_on_c,0,77,0
2,138852, Note_on_c,0,83,0
2,138956, Note_on_c,0,80,69
2,138956, Note_on_c,0,71,55
2,138956, Note_on_c,0,68,55
2,138956, Note_on_c,0,59,55
2,139012, Note_on_c,0,59,0
2,139012, Note_on_c,0,68,0
2,139012, Note_on_c,0,71,0
2,139036, Note_on_c,0,80,0
2,139136, Note_on_c,0,77,67
2,139136, Note_on_c,0,68,55
2,139136, Note_on_c,0,65,55
2,139136, Note_on_c,0,56,55
2,139192, Note_on_c,0,56,0
2,139192, Note_on_c,0,65,0
2,139192, Note_on_c,0,68,0
2,139212, Note_on_c,0,77,0
2,139320, Note_on_c,0,71,64
2,139320, Note_on_c,0,68,55
2,139320, Note_on_c,0,62,55
2,139320, Note_on_c,0,59,55
2,139320, Note_on_c,0,56,55
2,139320, Note_on_c,0,50,55
2,139376, Note_on_c,0,50,0
2,139376, Note_on_c,0,68,0
2,139376, Note_on_c,0,62,0
2,139376, Note_on_c,0,59,0
2,139376, Note_on_c,0,56,0
2,139396, Note_on_c,0,71,0
2,139540, Note_on_c,0,69,66
2,139540, Note_on_c,0,66,50
2,139540, Note_on_c,0,61,50
2,139540, Note_on_c,0,57,50
2,139540, Note_on_c,0,54,50
2,139540, Note_on_c,0,49,50
2,139740, Note_on_c,0,49,0
2,139740, Note_on_c,0,66,0
2,139740, Note_on_c,0,61,0
2,139740, Note_on_c,0,57,0
2,139740, Note_on_c,0,54,0
2,139752, Note_on_c,0,69,0
2,141384, Note_on_c,0,96,74
2,141384, Note_on_c,0,84,55
2,141384, Note_on_c,0,90,55
2,141384, Note_on_c,0,81,55
2,141384, Note_on_c,0,78,55
2,141444, Note_on_c,0,78,0
2,141444, Note_on_c,0,90,0
2,141444, Note_on_c,0,81,0
2,141444, Note_on_c,0,84,0
2,141468, Note_on_c,0,96,0
2,141556, Note_on_c,0,93,79
2,141556, Note_on_c,0,81,55
2,141556, Note_on_c,0,78,55
2,141556, Note_on_c,0,72,55
2,141616, Note_on_c,0,72,0
2,141616, Note_on_c,0,78,0
2,141616, Note_on_c,0,81,0
2,141628, Note_on_c,0,93,0
2,141732, Note_on_c,0,90,73
2,141732, Note_on_c,0,78,55
2,141732, Note_on_c,0,84,55
2,141732, Note_on_c,0,75,55
2,141732, Note_on_c,0,72,55
2,141784, Note_on_c,0,90,0
2,141792, Note_on_c,0,75,0
2,141792, Note_on_c,0,78,0
2,141792, Note_on_c,0,84,0
2,141792, Note_on_c,0,72,0
2,141916, Note_on_c,0,87,67
2,141916, Note_on_c,0,78,55
2,141916, Note_on_c,0,75,55
2,141916, Note_on_c,0,66,55
2,141976, Note_on_c,0,66,0
2,141976, Note_on_c,0,75,0
2,141976, Note_on_c,0,78,0
2,142032, Note_on_c,0,87,0
2,142104, Note_on_c,0,84,60
2,142104, Note_on_c,0,75,55
2,142104, Note_on_c,0,72,55
2,142104, Note_on_c,0,63,55
2,142164, Note_on_c,0,63,0
2,142164, Note_on_c,0,72,0
2,142164, Note_on_c,0,75,0
2,142168, Note_on_c,0,84,0
2,142288, Note_on_c,0,78,58
2,142288, Note_on_c,0,72,55
2,142288, Note_on_c,0,66,55
2,142288, Note_on_c,0,60,55
2,142348, Note_on_c,0,60,0
2,142348, Note_on_c,0,66,0
2,142348, Note_on_c,0,72,0
2,142352, Note_on_c,0,78,0
2,142472, Note_on_c,0,75,68
2,142472, Note_on_c,0,66,55
2,142472, Note_on_c,0,63,50
2,142472, Note_on_c,0,54,50
2,142532, Note_on_c,0,54,0
2,142532, Note_on_c,0,75,0
2,142532, Note_on_c,0,66,0
2,142532, Note_on_c,0,63,0
2,142660, Note_on_c,0,72,70
2,142660, Note_on_c,0,66,50
2,142660, Note_on_c,0,63,50
2,142660, Note_on_c,0,60,50
2,142660, Note_on_c,0,54,50
2,142660, Note_on_c,0,51,50
2,142720, Note_on_c,0,51,0
2,142720, Note_on_c,0,66,0
2,142720, Note_on_c,0,63,0
2,142720, Note_on_c,0,60,0
2,142720, Note_on_c,0,54,0
2,142736, Note_on_c,0,72,0
2,142876, Note_on_c,0,73,64
2,142876, Note_on_c,0,68,50
2,142876, Note_on_c,0,65,50
2,142876, Note_on_c,0,61,50
2,142876, Note_on_c,0,56,50
2,142876, Note_on_c,0,53,50
2,143076, Note_on_c,0,53,0
2,143076, Note_on_c,0,68,0
2,143076, Note_on_c,0,65,0
2,143076, Note_on_c,0,61,0
2,143076, Note_on_c,0,56,0
2,143196, Note_on_c,0,73,0
2,144728, Note_on_c,0,86,74
2,144728, Note_on_c,0,83,55
2,144728, Note_on_c,0,80,55
2,144784, Note_on_c,0,80,0
2,144784, Note_on_c,0,83,0
2,144828, Note_on_c,0,86,0
2,144912, Note_on_c,0,83,70
2,144912, Note_on_c,0,80,55
2,144912, Note_on_c,0,77,55
2,144968, Note_on_c,0,77,0
2,144968, Note_on_c,0,80,0
2,144980, Note_on_c,0,83,0
2,145088, Note_on_c,0,80,70
2,145088, Note_on_c,0,77,55
2,145088, Note_on_c,0,71,55
2,145144, Note_on_c,0,71,0
2,145144, Note_on_c,0,77,0
2,145156, Note_on_c,0,80,0
2,145264, Note_on_c,0,77,69
2,145264, Note_on_c,0,71,55
2,145264, Note_on_c,0,68,55
2,145320, Note_on_c,0,68,0
2,145320, Note_on_c,0,71,0
2,145336, Note_on_c,0,77,0
2,145452, Note_on_c,0,71,68
2,145452, Note_on_c,0,68,50
2,145452, Note_on_c,0,65,50
2,145508, Note_on_c,0,65,0
2,145508, Note_on_c,0,68,0
2,145516, Note_on_c,0,71,0
2,145632, Note_on_c,0,68,67
2,145632, Note_on_c,0,65,50
2,145632, Note_on_c,0,59,50
2,145688, Note_on_c,0,59,0
2,145688, Note_on_c,0,65,0
2,145704, Note_on_c,0,68,0
2,145804, Note_on_c,0,65,70
2,145804, Note_on_c,0,59,50
2,145804, Note_on_c,0,56,50
2,145860, Note_on_c,0,56,0
2,145860, Note_on_c,0,59,0
2,145864, Note_on_c,0,65,0
2,146000, Note_on_c,0,59,65
2,146000, Note_on_c,0,56,50
2,146000, Note_on_c,0,50,50
2,146056, Note_on_c,0,50,0
2,146056, Note_on_c,0,56,0
2,146084, Note_on_c,0,59,0
2,146216, Note_on_c,0,57,61
2,146216, Note_on_c,0,54,47
2,146216, Note_on_c,0,49,47
2,146432, Note_on_c,0,49,0
2,146452, Note_on_c,0,54,0
2,146568, Note_on_c,0,57,0
2,148092, Note_on_c,0,84,70
2,148092, Note_on_c,0,81,55
2,148092, Note_on_c,0,78,55
2,148148, Note_on_c,0,78,0
2,148148, Note_on_c,0,81,0
2,148164, Note_on_c,0,84,0
2,148272, Note_on_c,0,81,69
2,148272, Note_on_c,0,78,55
2,148272, Note_on_c,0,75,55
2,148328, Note_on_c,0,75,0
2,148328, Note_on_c,0,78,0
2,148344, Note_on_c,0,81,0
2,148460, Note_on_c,0,78,67
2,148460, Note_on_c,0,75,52
2,148460, Note_on_c,0,72,52
2,148516, Note_on_c,0,72,0
2,148516, Note_on_c,0,75,0
2,148520, Note_on_c,0,78,0
2,148648, Note_on_c,0,75,69
2,148648, Note_on_c,0,72,52
2,148648, Note_on_c,0,66,52
2,148704, Note_on_c,0,66,0
2,148704, Note_on_c,0,72,0
2,148756, Note_on_c,0,75,0
2,148824, Note_on_c,0,72,69
2,148824, Note_on_c,0,66,50
2,148824, Note_on_c,0,63,50
2,148876, Note_on_c,0,72,0
2,148880, Note_on_c,0,63,0
2,148880, Note_on_c,0,66,0
2,149020, Note_on_c,0,66,62
2,149020, Note_on_c,0,63,50
2,149020, Note_on_c,0,60,50
2,149076, Note_on_c,0,60,0
2,149076, Note_on_c,0,63,0
2,149076, Note_on_c,0,66,0
2,149208, Note_on_c,0,63,60
2,149208, Note_on_c,0,60,50
2,149208, Note_on_c,0,54,50
2,149264, Note_on_c,0,54,0
2,149264, Note_on_c,0,60,0
2,149272, Note_on_c,0,63,0
2,149400, Note_on_c,0,60,61
2,149400, Note_on_c,0,54,46
2,149400, Note_on_c,0,51,46
2,149456, Note_on_c,0,51,0
2,149456, Note_on_c,0,54,0
2,149468, Note_on_c,0,60,0
2,149612, Note_on_c,0,61,61
2,149612, Note_on_c,0,56,46
2,149612, Note_on_c,0,53,46
2,149832, Note_on_c,0,53,0
2,149832, Note_on_c,0,56,0
2,150124, Note_on_c,0,61,0
2,165016, Control_c,0,64,127
2,165300, Note_on_c,0,72,62
2,165300, Note_on_c,0,48,49
2,165300, Note_on_c,0,60,49
2,165356, Note_on_c,0,60,0
2,165452, Note_on_c,0,48,0
2,165480, Note_on_c,0,72,0
2,165580, Note_on_c,0,50,57
2,165580, Note_on_c,0,74,66
2,165580, Note_on_c,0,62,52
2,165624, Note_on_c,0,62,0
2,165652, Note_on_c,0,74,0
2,165748, Note_on_c,0,50,0
2,165820, Note_on_c,0,77,71
2,165820, Note_on_c,0,65,57
2,165820, Note_on_c,0,53,55
2,165868, Note_on_c,0,65,0
2,165884, Note_on_c,0,53,0
2,165884, Note_on_c,0,77,0
2,166068, Note_on_c,0,56,55
2,166080, Note_on_c,0,80,74
2,166080, Note_on_c,0,68,51
2,166140, Note_on_c,0,56,0
2,166144, Note_on_c,0,80,0
2,166156, Note_on_c,0,68,0
2,166328, Note_on_c,0,84,76
2,166336, Note_on_c,0,72,65
2,166376, Note_on_c,0,60,49
2,166404, Note_on_c,0,72,0
2,166428, Note_on_c,0,84,0
2,166576, Note_on_c,0,60,0
2,166588, Control_c,0,64,40
2,166600, Control_c,0,64,0
2,166608, Note_on_c,0,85,77
2,166632, Note_on_c,0,73,53
2,166636, Note_on_c,0,61,45
2,166692, Control_c,0,64,72
2,166708, Control_c,0,64,127
2,166720, Note_on_c,0,73,0
2,166724, Note_on_c,0,85,0
2,166788, Note_on_c,0,61,0
2,166872, Note_on_c,0,79,77
2,166876, Note_on_c,0,67,56
2,166896, Note_on_c,0,55,46
2,166912, Note_on_c,0,67,0
2,166936, Note_on_c,0,79,0
2,167108, Note_on_c,0,55,0
2,167124, Note_on_c,0,84,87
2,167128, Note_on_c,0,72,81
2,167144, Note_on_c,0,60,46
2,167204, Note_on_c,0,72,0
2,167208, Note_on_c,0,84,0
2,167336, Note_on_c,0,60,0
2,167380, Note_on_c,0,86,92
2,167384, Note_on_c,0,74,79
2,167388, Note_on_c,0,62,54
2,167444, Note_on_c,0,74,0
2,167472, Note_on_c,0,86,0
2,167644, Note_on_c,0,89,90
2,167648, Note_on_c,0,65,59
2,167648, Note_on_c,0,77,80
2,167660, Note_on_c,0,62,0
2,167712, Note_on_c,0,77,0
2,167736, Note_on_c,0,65,0
2,167736, Note_on_c,0,89,0
2,167916, Note_on_c,0,91,90
2,167920, Note_on_c,0,79,75
2,167944, Note_on_c,0,67,58
2,167972, Note_on_c,0,79,0
2,168004, Note_on_c,0,91,0
2,168240, Note_on_c,0,67,0
2,168268, Note_on_c,0,96,87
2,168276, Note_on_c,0,84,73
2,168288, Note_on_c,0,72,58
2,168312, Control_c,0,64,56
2,168328, Control_c,0,64,0
2,168380, Note_on_c,0,84,0
2,168432, Control_c,0,64,88
2,168448, Control_c,0,64,127
2,168464, Note_on_c,0,96,0
2,168528, Note_on_c,0,72,0
2,168556, Note_on_c,0,97,84
2,168576, Note_on_c,0,85,71
2,168584, Note_on_c,0,73,56
2,168676, Note_on_c,0,85,0
2,168784, Note_on_c,0,97,0
2,168832, Note_on_c,0,73,0
2,168856, Note_on_c,0,98,85
2,168856, Note_on_c,0,86,71
2,168876, Note_on_c,0,74,62
2,168932, Note_on_c,0,86,0
2,168944, Note_on_c,0,98,0
2,169104, Note_on_c,0,91,83
2,169112, Note_on_c,0,79,74
2,169132, Note_on_c,0,74,0
2,169132, Note_on_c,0,67,52
2,169144, Note_on_c,0,79,0
2,169164, Note_on_c,0,91,0
2,169352, Note_on_c,0,94,84
2,169360, Note_on_c,0,82,69
2,169372, Note_on_c,0,70,53
2,169380, Note_on_c,0,67,0
2,169436, Note_on_c,0,82,0
2,169452, Note_on_c,0,94,0
2,169564, Note_on_c,0,70,0
2,169600, Note_on_c,0,81,72
2,169604, Note_on_c,0,69,55
2,169604, Note_on_c,0,93,84
2,169668, Note_on_c,0,81,0
2,169672, Note_on_c,0,93,0
2,169820, Note_on_c,0,69,0
2,169864, Control_c,0,64,72
2,169880, Control_c,0,64,24
2,169888, Note_on_c,0,96,85
2,169896, Note_on_c,0,84,72
2,169896, Control_c,0,64,0
2,169912, Note_on_c,0,72,58
2,169948, Control_c,0,64,56
2,169968, Note_on_c,0,84,0
2,169968, Control_c,0,64,127
2,169976, Note_on_c,0,96,0
2,170132, Note_on_c,0,72,0
2,170136, Note_on_c,0,66,50
2,170136, Note_on_c,0,90,77
2,170148, Note_on_c,0,78,64
2,170196, Note_on_c,0,78,0
2,170212, Note_on_c,0,90,0
2,170352, Control_c,0,64,72
2,170364, Note_on_c,0,66,0
2,170368, Control_c,0,64,56
2,170384, Note_on_c,0,92,77
2,170384, Note_on_c,0,80,64
2,170384, Note_on_c,0,68,54
2,170420, Control_c,0,64,127
2,170496, Note_on_c,0,80,0
2,170508, Note_on_c,0,92,0
2,170584, Note_on_c,0,68,0
2,170632, Note_on_c,0,91,76
2,170640, Note_on_c,0,79,66
2,170656, Note_on_c,0,67,51
2,170708, Note_on_c,0,91,0
2,170720, Note_on_c,0,79,0
2,170872, Note_on_c,0,67,0
2,170892, Note_on_c,0,88,78
2,170892, Note_on_c,0,76,64
2,170904, Note_on_c,0,64,51
2,170952, Note_on_c,0,76,0
2,170960, Note_on_c,0,88,0
2,171076, Note_on_c,0,64,0
2,171140, Note_on_c,0,83,77
2,171144, Note_on_c,0,71,64
2,171148, Note_on_c,0,59,50
2,171176, Note_on_c,0,71,0
2,171204, Note_on_c,0,83,0
2,171324, Control_c,0,64,88
2,171344, Control_c,0,64,24
2,171360, Control_c,0,64,0
2,171376, Note_on_c,0,59,0
2,171396, Note_on_c,0,85,67
2,171400, Note_on_c,0,73,58
2,171400, Note_on_c,0,61,51
2,171432, Control_c,0,64,24
2,171452, Control_c,0,64,88
2,171468, Control_c,0,64,127
2,171484, Note_on_c,0,73,0
2,171508, Note_on_c,0,85,0
2,171576, Note_on_c,0,61,0
2,171628, Note_on_c,0,84,71
2,171644, Note_on_c,0,60,55
2,171648, Note_on_c,0,72,56
2,171680, Note_on_c,0,72,0
2,171700, Note_on_c,0,84,0
2,171836, Note_on_c,0,60,0
2,171872, Note_on_c,0,80,71
2,171876, Note_on_c,0,56,50
2,171876, Note_on_c,0,68,60
2,171948, Note_on_c,0,68,0
2,171960, Note_on_c,0,80,0
2,172044, Note_on_c,0,56,0
2,172120, Note_on_c,0,79,71
2,172128, Note_on_c,0,67,59
2,172144, Note_on_c,0,55,51
2,172192, Note_on_c,0,67,0
2,172192, Note_on_c,0,79,0
2,172328, Note_on_c,0,55,0
2,172364, Note_on_c,0,76,74
2,172364, Note_on_c,0,52,51
2,172364, Note_on_c,0,64,59
2,172416, Note_on_c,0,64,0
2,172428, Note_on_c,0,76,0
2,172460, Note_on_c,0,52,0
2,172604, Note_on_c,0,71,80
2,172612, Note_on_c,0,47,51
2,172612, Note_on_c,0,59,60
2,172652, Note_on_c,0,59,0
2,172676, Note_on_c,0,71,0
2,172792, Control_c,0,64,88
2,172808, Note_on_c,0,47,0
2,172808, Control_c,0,64,0
2,172864, Note_on_c,0,73,69
2,172872, Note_on_c,0,49,49
2,172876, Note_on_c,0,61,48
2,172896, Control_c,0,64,24
2,172912, Control_c,0,64,72
2,172928, Control_c,0,64,127
2,172948, Note_on_c,0,61,0
2,172948, Note_on_c,0,73,0
2,173036, Note_on_c,0,49,0
2,173112, Note_on_c,0,72,73
2,173112, Note_on_c,0,48,58
2,173120, Note_on_c,0,60,62
2,173180, Note_on_c,0,72,0
2,173192, Note_on_c,0,60,0
2,173288, Note_on_c,0,48,0
2,173372, Note_on_c,0,68,63
2,173376, Note_on_c,0,56,52
2,173380, Note_on_c,0,44,51
2,173456, Note_on_c,0,56,0
2,173480, Note_on_c,0,68,0
2,173560, Control_c,0,64,72
2,173572, Note_on_c,0,44,0
2,173572, Control_c,0,64,40
2,173612, Note_on_c,0,64,70
2,173612, Note_on_c,0,52,64
2,173612, Note_on_c,0,40,49
2,173628, Control_c,0,64,72
2,173644, Control_c,0,64,104
2,173664, Control_c,0,64,127
2,173684, Note_on_c,0,64,0
2,173704, Note_on_c,0,52,0
2,173780, Note_on_c,0,40,0
2,173880, Note_on_c,0,59,74
2,173880, Note_on_c,0,35,51
2,173880, Note_on_c,0,47,49
2,173920, Note_on_c,0,47,0
2,173948, Note_on_c,0,59,0
2,173988, Note_on_c,0,35,0
2,174132, Note_on_c,0,60,76
2,174132, Note_on_c,0,36,55
2,174144, Note_on_c,0,48,62
2,174180, Note_on_c,0,48,0
2,174200, Note_on_c,0,60,0
2,174224, Note_on_c,0,36,0
2,174292, Control_c,0,64,104
2,174308, Control_c,0,64,88
2,174324, Control_c,0,64,72
2,174344, Control_c,0,64,40
2,174360, Control_c,0,64,24
2,174376, Control_c,0,64,0
2,174436, Note_on_c,0,61,74
2,174436, Note_on_c,0,49,65
2,174436, Note_on_c,0,37,53
2,174516, Note_on_c,0,37,0
2,174516, Note_on_c,0,49,0
2,174536, Note_on_c,0,61,0
2,174968, Note_on_c,0,55,56
2,174968, Note_on_c,0,31,48
2,174968, Note_on_c,0,43,45
2,175036, Note_on_c,0,43,0
2,175040, Note_on_c,0,31,0
2,175068, Note_on_c,0,55,0
2,175492, Note_on_c,0,60,53
2,175492, Note_on_c,0,36,48
2,175492, Note_on_c,0,48,46
2,175580, Note_on_c,0,36,0
2,175648, Note_on_c,0,60,0
2,175652, Note_on_c,0,48,0
2,188929, Note_on_c,0,52,59
2,188929, Note_on_c,0,64,68
2,188941, Note_on_c,0,40,51
2,188957, Note_on_c,0,52,0
2,188969, Note_on_c,0,64,0
2,189021, Note_on_c,0,40,0
2,189021, Note_on_c,0,41,59
2,189025, Note_on_c,0,65,67
2,189025, Note_on_c,0,53,55
2,189053, Note_on_c,0,65,0
2,189061, Note_on_c,0,53,0
2,189061, Note_on_c,0,41,0
2,189217, Note_on_c,0,66,67
2,189217, Note_on_c,0,42,57
2,189225, Note_on_c,0,54,54
2,189249, Note_on_c,0,54,0
2,189281, Note_on_c,0,66,0
2,189313, Note_on_c,0,53,66
2,189313, Note_on_c,0,65,65
2,189317, Note_on_c,0,41,53
2,189333, Note_on_c,0,42,0
2,189341, Note_on_c,0,53,0
2,189345, Note_on_c,0,41,0
2,189369, Note_on_c,0,65,0
2,189493, Note_on_c,0,58,55
2,189497, Note_on_c,0,46,55
2,189501, Note_on_c,0,70,57
2,189521, Note_on_c,0,58,0
2,189525, Note_on_c,0,70,0
2,189577, Note_on_c,0,46,0
2,189585, Note_on_c,0,69,72
2,189585, Note_on_c,0,57,58
2,189601, Note_on_c,0,45,57
2,189629, Note_on_c,0,45,0
2,189629, Note_on_c,0,57,0
2,189637, Note_on_c,0,69,0
2,189761, Note_on_c,0,44,52
2,189765, Note_on_c,0,68,64
2,189765, Note_on_c,0,56,59
2,189805, Note_on_c,0,56,0
2,189821, Note_on_c,0,68,0
2,189841, Note_on_c,0,44,0
2,189865, Note_on_c,0,69,79
2,189869, Note_on_c,0,45,69
2,189869, Note_on_c,0,57,66
2,189889, Note_on_c,0,45,0
2,189905, Note_on_c,0,57,0
2,189921, Note_on_c,0,69,0
2,190049, Note_on_c,0,47,64
2,190053, Note_on_c,0,71,82
2,190053, Note_on_c,0,59,71
2,190077, Note_on_c,0,59,0
2,190077, Note_on_c,0,71,0
2,190117, Note_on_c,0,47,0
2,190145, Note_on_c,0,72,87
2,190149, Note_on_c,0,60,76
2,190157, Note_on_c,0,48,62
2,190177, Note_on_c,0,48,0
2,190193, Note_on_c,0,60,0
2,190201, Note_on_c,0,72,0
2,190325, Note_on_c,0,49,68
2,190329, Note_on_c,0,73,71
2,190333, Note_on_c,0,61,67
2,190361, Note_on_c,0,61,0
2,190381, Note_on_c,0,73,0
2,190389, Note_on_c,0,49,0
2,190425, Note_on_c,0,72,85
2,190425, Note_on_c,0,60,69
2,190433, Note_on_c,0,48,67
2,190453, Note_on_c,0,60,0
2,190465, Note_on_c,0,48,0
2,190481, Note_on_c,0,72,0
2,190617, Note_on_c,0,78,79
2,190617, Note_on_c,0,66,63
2,190617, Note_on_c,0,54,54
2,190649, Note_on_c,0,66,0
2,190661, Note_on_c,0,78,0
2,190689, Note_on_c,0,54,0
2,190709, Note_on_c,0,77,82
2,190709, Note_on_c,0,65,65
2,190713, Note_on_c,0,53,61
2,190745, Note_on_c,0,53,0
2,190769, Note_on_c,0,65,0
2,190777, Note_on_c,0,77,0
2,190885, Note_on_c,0,76,82
2,190885, Note_on_c,0,52,63
2,190889, Note_on_c,0,64,70
2,190917, Note_on_c,0,64,0
2,190941, Note_on_c,0,76,0
2,190981, Note_on_c,0,77,96
2,190989, Note_on_c,0,52,0
2,190989, Note_on_c,0,53,63
2,190989, Note_on_c,0,65,59
2,191013, Note_on_c,0,53,0
2,191017, Note_on_c,0,65,0
2,191049, Note_on_c,0,77,0
2,191169, Note_on_c,0,80,78
2,191173, Note_on_c,0,68,71
2,191177, Note_on_c,0,56,57
2,191225, Note_on_c,0,68,0
2,191225, Note_on_c,0,80,0
2,191265, Note_on_c,0,56,0
2,191269, Note_on_c,0,81,82
2,191269, Note_on_c,0,69,74
2,191285, Note_on_c,0,57,52
2,191313, Note_on_c,0,69,0
2,191317, Note_on_c,0,57,0
2,191321, Note_on_c,0,81,0
2,191445, Note_on_c,0,58,59
2,191449, Note_on_c,0,82,69
2,191449, Note_on_c,0,70,62
2,191497, Note_on_c,0,70,0
2,191505, Note_on_c,0,82,0
2,191541, Note_on_c,0,58,0
2,191541, Note_on_c,0,81,83
2,191541, Note_on_c,0,69,74
2,191561, Note_on_c,0,57,56
2,191581, Note_on_c,0,69,0
2,191597, Note_on_c,0,57,0
2,191613, Note_on_c,0,81,0
2,191737, Note_on_c,0,85,83
2,191737, Note_on_c,0,73,73
2,191737, Note_on_c,0,61,60
2,191781, Note_on_c,0,73,0
2,191785, Note_on_c,0,85,0
2,191821, Note_on_c,0,61,0
2,191829, Note_on_c,0,84,84
2,191841, Note_on_c,0,72,71
2,191845, Note_on_c,0,60,59
2,191877, Note_on_c,0,60,0
2,191885, Note_on_c,0,72,0
2,191905, Note_on_c,0,84,0
2,192009, Note_on_c,0,83,81
2,192013, Note_on_c,0,59,58
2,192013, Note_on_c,0,71,66
2,192057, Note_on_c,0,71,0
2,192061, Note_on_c,0,83,0
2,192089, Note_on_c,0,59,0
2,192105, Note_on_c,0,84,92
2,192113, Note_on_c,0,60,64
2,192121, Note_on_c,0,72,59
2,192145, Note_on_c,0,72,0
2,192145, Note_on_c,0,60,0
2,192181, Note_on_c,0,84,0
2,192289, Note_on_c,0,90,85
2,192293, Note_on_c,0,78,74
2,192293, Note_on_c,0,66,67
2,192329, Note_on_c,0,78,0
2,192341, Note_on_c,0,90,0
2,192373, Note_on_c,0,89,81
2,192385, Note_on_c,0,77,75
2,192397, Note_on_c,0,66,0
2,192401, Note_on_c,0,65,58
2,192433, Note_on_c,0,65,0
2,192441, Note_on_c,0,77,0
2,192461, Note_on_c,0,89,0
2,192561, Note_on_c,0,76,78
2,192565, Note_on_c,0,88,71
2,192573, Note_on_c,0,64,64
2,192589, Note_on_c,0,76,0
2,192613, Note_on_c,0,88,0
2,192657, Note_on_c,0,64,0
2,192665, Note_on_c,0,89,93
2,192673, Note_on_c,0,77,74
2,192681, Note_on_c,0,65,54
2,192705, Note_on_c,0,77,0
2,192713, Note_on_c,0,65,0
2,192729, Note_on_c,0,89,0
2,192849, Note_on_c,0,90,85
2,192849, Note_on_c,0,66,69
2,192853, Note_on_c,0,78,82
2,192901, Note_on_c,0,78,0
2,192913, Note_on_c,0,90,0
2,192917, Note_on_c,0,66,0
2,192945, Note_on_c,0,89,93
2,192953, Note_on_c,0,77,82
2,192961, Note_on_c,0,65,49
2,193001, Note_on_c,0,65,0
2,193005, Note_on_c,0,77,0
2,193009, Note_on_c,0,89,0
2,193109, Note_on_c,0,88,83
2,193117, Note_on_c,0,76,63
2,193121, Note_on_c,0,64,56
2,193141, Note_on_c,0,76,0
2,193165, Note_on_c,0,88,0
2,193189, Note_on_c,0,64,0
2,193213, Note_on_c,0,89,89
2,193221, Note_on_c,0,77,68
2,193221, Note_on_c,0,65,58
2,193249, Note_on_c,0,65,0
2,193249, Note_on_c,0,77,0
2,193265, Note_on_c,0,89,0
2,193389, Note_on_c,0,61,52
2,193393, Note_on_c,0,85,79
2,193397, Note_on_c,0,73,71
2,193441, Note_on_c,0,73,0
2,193441, Note_on_c,0,85,0
2,193453, Note_on_c,0,61,0
2,193489, Note_on_c,0,60,56
2,193493, Note_on_c,0,84,85
2,193505, Note_on_c,0,72,71
2,193541, Note_on_c,0,60,0
2,193549, Note_on_c,0,72,0
2,193569, Note_on_c,0,84,0
2,193673, Note_on_c,0,83,81
2,193677, Note_on_c,0,71,64
2,193681, Note_on_c,0,59,64
2,193697, Note_on_c,0,71,0
2,193721, Note_on_c,0,83,0
2,193733, Note_on_c,0,59,0
2,193769, Note_on_c,0,84,89
2,193773, Note_on_c,0,60,57
2,193777, Note_on_c,0,72,67
2,193805, Note_on_c,0,72,0
2,193805, Note_on_c,0,60,0
2,193837, Note_on_c,0,84,0
2,193953, Note_on_c,0,85,76
2,193953, Note_on_c,0,61,67
2,193961, Note_on_c,0,73,73
2,194009, Note_on_c,0,73,0
2,194025, Note_on_c,0,61,0
2,194033, Note_on_c,0,85,0
2,194045, Note_on_c,0,60,60
2,194049, Note_on_c,0,84,75
2,194057, Note_on_c,0,72,70
2,194097, Note_on_c,0,60,0
2,194109, Note_on_c,0,72,0
2,194117, Note_on_c,0,84,0
2,194217, Note_on_c,0,83,82
2,194225, Note_on_c,0,71,68
2,194237, Note_on_c,0,59,68
2,194249, Note_on_c,0,71,0
2,194273, Note_on_c,0,83,0
2,194289, Note_on_c,0,59,0
2,194321, Note_on_c,0,84,85
2,194329, Note_on_c,0,60,59
2,194329, Note_on_c,0,72,66
2,194365, Note_on_c,0,72,0
2,194365, Note_on_c,0,60,0
2,194373, Note_on_c,0,84,0
2,194497, Note_on_c,0,82,69
2,194505, Note_on_c,0,70,64
2,194509, Note_on_c,0,58,58
2,194545, Note_on_c,0,70,0
2,194569, Note_on_c,0,82,0
2,194589, Note_on_c,0,58,0
2,194601, Note_on_c,0,81,70
2,194613, Note_on_c,0,57,45
2,194613, Note_on_c,0,69,46
2,194649, Note_on_c,0,69,0
2,194649, Note_on_c,0,57,0
2,194665, Note_on_c,0,81,0
2,194773, Note_on_c,0,68,64
2,194773, Note_on_c,0,80,73
2,194785, Note_on_c,0,56,59
2,194821, Note_on_c,0,68,0
2,194849, Note_on_c,0,80,0
2,194857, Note_on_c,0,56,0
2,194881, Note_on_c,0,81,69
2,194881, Note_on_c,0,57,55
2,194881, Note_on_c,0,69,60
2,194913, Note_on_c,0,69,0
2,194913, Note_on_c,0,57,0
2,194929, Note_on_c,0,81,0
2,195053, Note_on_c,0,78,65
2,195057, Note_on_c,0,66,50
2,195061, Note_on_c,0,54,54
2,195085, Note_on_c,0,66,0
2,195101, Note_on_c,0,78,0
2,195129, Note_on_c,0,54,0
2,195141, Note_on_c,0,77,79
2,195153, Note_on_c,0,65,56
2,195161, Note_on_c,0,53,48
2,195189, Note_on_c,0,65,0
2,195193, Note_on_c,0,53,0
2,195217, Note_on_c,0,77,0
2,195325, Note_on_c,0,76,76
2,195325, Note_on_c,0,64,60
2,195345, Note_on_c,0,52,64
2,195357, Note_on_c,0,64,0
2,195373, Note_on_c,0,76,0
2,195417, Note_on_c,0,77,88
2,195417, Note_on_c,0,65,60
2,195445, Note_on_c,0,53,60
2,195453, Note_on_c,0,52,0
2,195469, Note_on_c,0,53,0
2,195481, Note_on_c,0,65,0
2,195481, Note_on_c,0,77,0
2,195605, Note_on_c,0,82,73
2,195609, Note_on_c,0,70,65
2,195609, Note_on_c,0,58,64
2,195641, Note_on_c,0,70,0
2,195669, Note_on_c,0,82,0
2,195701, Note_on_c,0,58,0
2,195713, Note_on_c,0,84,79
2,195713, Note_on_c,0,72,68
2,195717, Note_on_c,0,60,64
2,195745, Note_on_c,0,72,0
2,195757, Note_on_c,0,60,0
2,195765, Note_on_c,0,84,0
2,195881, Note_on_c,0,85,69
2,195881, Note_on_c,0,73,65
2,195889, Note_on_c,0,61,55
2,195921, Note_on_c,0,73,0
2,195937, Note_on_c,0,85,0
2,195973, Note_on_c,0,61,0
2,195981, Note_on_c,0,60,63
2,195981, Note_on_c,0,84,80
2,195985, Note_on_c,0,72,68
2,196005, Note_on_c,0,72,0
2,196013, Note_on_c,0,60,0
2,196037, Note_on_c,0,84,0
2,196145, Note_on_c,0,87,76
2,196145, Note_on_c,0,63,63
2,196153, Note_on_c,0,75,64
2,196177, Note_on_c,0,75,0
2,196189, Note_on_c,0,87,0
2,196237, Note_on_c,0,85,83
2,196241, Note_on_c,0,73,71
2,196245, Note_on_c,0,63,0
2,196245, Note_on_c,0,61,57
2,196277, Note_on_c,0,61,0
2,196305, Note_on_c,0,73,0
2,196349, Note_on_c,0,85,0
2,196417, Note_on_c,0,84,82
2,196421, Note_on_c,0,60,68
2,196425, Note_on_c,0,72,59
2,196453, Note_on_c,0,72,0
2,196461, Note_on_c,0,84,0
2,196505, Note_on_c,0,60,0
2,196513, Note_on_c,0,58,46
2,196521, Note_on_c,0,82,81
2,196521, Note_on_c,0,70,71
2,196545, Note_on_c,0,58,0
2,196573, Note_on_c,0,70,0
2,196597, Note_on_c,0,82,0
2,196701, Note_on_c,0,81,82
2,196717, Note_on_c,0,69,52
2,196725, Note_on_c,0,57,48
2,196757, Note_on_c,0,81,0
2,196777, Note_on_c,0,69,0
2,196801, Note_on_c,0,57,0
2,196805, Note_on_c,0,77,77
2,196817, Note_on_c,0,65,68
2,196825, Note_on_c,0,53,48
2,197029, Note_on_c,0,65,0
2,197061, Note_on_c,0,53,0
2,197069, Note_on_c,0,77,0
2,197277, Note_on_c,0,81,79
2,197285, Note_on_c,0,69,64
2,197301, Note_on_c,0,57,56
2,197309, Note_on_c,0,69,0
2,197317, Note_on_c,0,81,0
2,197377, Note_on_c,0,57,0
2,197377, Note_on_c,0,77,78
2,197385, Note_on_c,0,65,66
2,197397, Note_on_c,0,53,51
2,197533, Note_on_c,0,53,0
2,197533, Note_on_c,0,65,0
2,197561, Note_on_c,0,77,0
2,197813, Note_on_c,0,64,72
2,197817, Note_on_c,0,76,78
2,197817, Note_on_c,0,52,59
2,197857, Note_on_c,0,64,0
2,197865, Note_on_c,0,76,0
2,197893, Note_on_c,0,52,0
2,197901, Note_on_c,0,77,94
2,197901, Note_on_c,0,65,60
2,197905, Note_on_c,0,53,74
2,197945, Note_on_c,0,53,0
2,197949, Note_on_c,0,65,0
2,197965, Note_on_c,0,77,0
2,198073, Note_on_c,0,58,68
2,198077, Note_on_c,0,82,71
2,198089, Note_on_c,0,70,60
2,198125, Note_on_c,0,82,0
2,198141, Note_on_c,0,70,0
2,198149, Note_on_c,0,58,0
2,198169, Note_on_c,0,53,69
2,198173, Note_on_c,0,65,74
2,198173, Note_on_c,0,77,83
2,198205, Note_on_c,0,65,0
2,198225, Note_on_c,0,77,0
2,198245, Note_on_c,0,53,0
2,198353, Note_on_c,0,51,64
2,198361, Note_on_c,0,75,73
2,198369, Note_on_c,0,63,57
2,198397, Note_on_c,0,63,0
2,198409, Note_on_c,0,75,0
2,198449, Note_on_c,0,51,0
2,198457, Note_on_c,0,73,78
2,198461, Note_on_c,0,61,65
2,198469, Note_on_c,0,49,62
2,198549, Note_on_c,0,61,0
2,198561, Note_on_c,0,73,0
2,198565, Note_on_c,0,49,0
2,198629, Note_on_c,0,48,74
2,198653, Note_on_c,0,72,79
2,198657, Note_on_c,0,60,59
2,198677, Note_on_c,0,72,0
2,198681, Note_on_c,0,60,0
2,198689, Note_on_c,0,48,0
2,198741, Note_on_c,0,70,81
2,198741, Note_on_c,0,58,69
2,198753, Note_on_c,0,46,80
2,198781, Note_on_c,0,58,0
2,198805, Note_on_c,0,46,0
2,198825, Note_on_c,0,70,0
2,198953, Note_on_c,0,60,83
2,198957, Note_on_c,0,72,90
2,198961, Note_on_c,0,48,80
2,198989, Note_on_c,0,48,0
2,198993, Note_on_c,0,60,0
2,199021, Note_on_c,0,72,0
2,199253, Note_on_c,0,84,92
2,199257, Note_on_c,0,72,88
2,199257, Note_on_c,0,60,74
2,199301, Note_on_c,0,72,0
2,199313, Note_on_c,0,60,0
2,199333, Note_on_c,0,84,0
2,199533, Control_c,0,64,40
2,199541, Note_on_c,0,96,92
2,199545, Note_on_c,0,84,84
2,199549, Control_c,0,64,88
2,199553, Note_on_c,0,72,81
2,199561, Control_c,0,64,127
2,199593, Note_on_c,0,84,0
2,199597, Note_on_c,0,72,0
2,199605, Note_on_c,0,96,0
2,199889, Control_c,0,64,104
2,199901, Control_c,0,64,72
2,199913, Control_c,0,64,56
2,199929, Control_c,0,64,24
2,199945, Control_c,0,64,0
2,200125, Note_on_c,0,70,58
2,200125, Note_on_c,0,58,47
2,200129, Note_on_c,0,82,77
2,200169, Note_on_c,0,70,0
2,200173, Note_on_c,0,82,0
2,200213, Note_on_c,0,58,0
2,200217, Note_on_c,0,72,74
2,200225, Note_on_c,0,84,62
2,200233, Note_on_c,0,60,64
2,200253, Note_on_c,0,60,0
2,200257, Note_on_c,0,72,0
2,200273, Note_on_c,0,84,0
2,200389, Note_on_c,0,85,70
2,200389, Note_on_c,0,73,68
2,200401, Note_on_c,0,61,61
2,200437, Note_on_c,0,73,0
2,200445, Note_on_c,0,85,0
2,200485, Note_on_c,0,84,85
2,200489, Note_on_c,0,72,74
2,200493, Note_on_c,0,60,59
2,200513, Note_on_c,0,61,0
2,200517, Note_on_c,0,72,0
2,200525, Note_on_c,0,60,0
2,200537, Note_on_c,0,84,0
2,200661, Note_on_c,0,87,82
2,200665, Note_on_c,0,63,59
2,200665, Note_on_c,0,75,69
2,200697, Note_on_c,0,75,0
2,200709, Note_on_c,0,87,0
2,200761, Note_on_c,0,73,65
2,200761, Note_on_c,0,85,79
2,200761, Note_on_c,0,61,64
2,200769, Note_on_c,0,63,0
2,200809, Note_on_c,0,73,0
2,200817, Note_on_c,0,61,0
2,200841, Note_on_c,0,85,0
2,200933, Note_on_c,0,84,83
2,200937, Note_on_c,0,60,66
2,200945, Note_on_c,0,72,69
2,200969, Note_on_c,0,72,0
2,200981, Note_on_c,0,84,0
2,201017, Note_on_c,0,60,0
2,201033, Note_on_c,0,58,45
2,201045, Note_on_c,0,82,82
2,201045, Note_on_c,0,70,72
2,201073, Note_on_c,0,58,0
2,201089, Note_on_c,0,70,0
2,201121, Note_on_c,0,82,0
2,201221, Note_on_c,0,81,80
2,201225, Note_on_c,0,57,45
2,201233, Note_on_c,0,69,66
2,201233, Control_c,0,64,24
2,201245, Control_c,0,64,56
2,201253, Note_on_c,0,69,0
2,201257, Control_c,0,64,72
2,201261, Note_on_c,0,81,0
2,201269, Control_c,0,64,88
2,201285, Control_c,0,64,104
2,201313, Note_on_c,0,57,0
2,201333, Note_on_c,0,77,81
2,201337, Note_on_c,0,65,71
2,201341, Control_c,0,64,72
2,201345, Note_on_c,0,53,51
2,201353, Control_c,0,64,56
2,201365, Control_c,0,64,40
2,201381, Control_c,0,64,24
2,201421, Control_c,0,64,72
2,201433, Control_c,0,64,104
2,201449, Note_on_c,0,65,0
2,201449, Control_c,0,64,127
2,201469, Note_on_c,0,53,0
2,201493, Note_on_c,0,77,0
2,201569, Control_c,0,64,104
2,201585, Control_c,0,64,88
2,201597, Control_c,0,64,72
2,201613, Control_c,0,64,56
2,201625, Control_c,0,64,40
2,201637, Control_c,0,64,24
2,201665, Control_c,0,64,0
2,201785, Control_c,0,64,40
2,201801, Control_c,0,64,72
2,201805, Note_on_c,0,81,75
2,201813, Control_c,0,64,88
2,201817, Note_on_c,0,69,44
2,201825, Control_c,0,64,104
2,201829, Note_on_c,0,57,49
2,201833, Note_on_c,0,81,0
2,201845, Note_on_c,0,69,0
2,201897, Note_on_c,0,57,0
2,201917, Note_on_c,0,77,85
2,201921, Control_c,0,64,56
2,201925, Note_on_c,0,65,63
2,201933, Note_on_c,0,53,43
2,201937, Control_c,0,64,24
2,201949, Control_c,0,64,0
2,202001, Note_on_c,0,65,0
2,202005, Control_c,0,64,24
2,202017, Control_c,0,64,72
2,202021, Note_on_c,0,53,0
2,202029, Control_c,0,64,104
2,202045, Control_c,0,64,127
2,202053, Note_on_c,0,77,0
2,202137, Control_c,0,64,104
2,202153, Control_c,0,64,88
2,202181, Control_c,0,64,72
2,202193, Control_c,0,64,56
2,202209, Control_c,0,64,40
2,202221, Control_c,0,64,24
2,202237, Control_c,0,64,0
2,202337, Note_on_c,0,76,80
2,202337, Note_on_c,0,64,74
2,202373, Note_on_c,0,52,60
2,202377, Note_on_c,0,64,0
2,202393, Note_on_c,0,76,0
2,202401, Control_c,0,64,24
2,202433, Note_on_c,0,77,92
2,202437, Note_on_c,0,65,70
2,202453, Note_on_c,0,52,0
2,202453, Note_on_c,0,53,73
2,202469, Note_on_c,0,65,0
2,202493, Note_on_c,0,77,0
2,202497, Note_on_c,0,53,0
2,202509, Control_c,0,64,0
2,202553, Control_c,0,64,24
2,202569, Control_c,0,64,56
2,202581, Control_c,0,64,72
2,202593, Note_on_c,0,82,79
2,202593, Note_on_c,0,58,69
2,202593, Control_c,0,64,88
2,202605, Note_on_c,0,70,57
2,202617, Note_on_c,0,82,0
2,202649, Note_on_c,0,70,0
2,202665, Note_on_c,0,58,0
2,202673, Control_c,0,64,72
2,202689, Control_c,0,64,56
2,202693, Note_on_c,0,77,83
2,202697, Note_on_c,0,65,82
2,202697, Note_on_c,0,53,66
2,202701, Control_c,0,64,40
2,202729, Note_on_c,0,65,0
2,202729, Control_c,0,64,24
2,202737, Note_on_c,0,77,0
2,202741, Control_c,0,64,0
2,202769, Note_on_c,0,53,0
2,202881, Note_on_c,0,51,62
2,202889, Note_on_c,0,75,79
2,202893, Note_on_c,0,63,53
2,202921, Note_on_c,0,75,0
2,202929, Note_on_c,0,63,0
2,202957, Note_on_c,0,51,0
2,202989, Note_on_c,0,73,77
2,202989, Note_on_c,0,61,61
2,202989, Note_on_c,0,49,56
2,203057, Note_on_c,0,49,0
2,203065, Note_on_c,0,61,0
2,203081, Note_on_c,0,73,0
2,203153, Note_on_c,0,48,56
2,203189, Note_on_c,0,72,74
2,203189, Note_on_c,0,60,57
2,203229, Note_on_c,0,72,0
2,203229, Note_on_c,0,48,0
2,203233, Note_on_c,0,60,0
2,203277, Note_on_c,0,58,48
2,203277, Note_on_c,0,70,71
2,203277, Note_on_c,0,46,62
2,203297, Note_on_c,0,58,0
2,203329, Note_on_c,0,70,0
2,203333, Note_on_c,0,46,0
2,203489, Note_on_c,0,63,73
2,203493, Note_on_c,0,75,85
2,203493, Note_on_c,0,51,68
2,203525, Note_on_c,0,51,0
2,203529, Note_on_c,0,63,0
2,203537, Note_on_c,0,75,0
2,203781, Note_on_c,0,63,70
2,203781, Note_on_c,0,75,78
2,203781, Note_on_c,0,87,85
2,203821, Note_on_c,0,75,0
2,203821, Note_on_c,0,63,0
2,203841, Note_on_c,0,87,0
2,204045, Control_c,0,64,24
2,204057, Control_c,0,64,40
2,204069, Control_c,0,64,72
2,204077, Note_on_c,0,75,81
2,204085, Note_on_c,0,99,86
2,204085, Note_on_c,0,87,81
2,204085, Control_c,0,64,127
2,204125, Note_on_c,0,75,0
2,204137, Note_on_c,0,87,0
2,204141, Note_on_c,0,99,0
2,204505, Control_c,0,64,88
2,204521, Control_c,0,64,72
2,204533, Control_c,0,64,56
2,204545, Control_c,0,64,24
2,204557, Control_c,0,64,0
2,204653, Note_on_c,0,79,78
2,204661, Note_on_c,0,67,56
2,204677, Note_on_c,0,55,61
2,204685, Note_on_c,0,67,0
2,204697, Note_on_c,0,79,0
2,204745, Note_on_c,0,80,84
2,204745, Note_on_c,0,68,74
2,204749, Note_on_c,0,55,0
2,204765, Note_on_c,0,56,55
2,204793, Note_on_c,0,56,0
2,204793, Note_on_c,0,68,0
2,204825, Note_on_c,0,80,0
2,204921, Note_on_c,0,85,83
2,204925, Control_c,0,64,24
2,204929, Note_on_c,0,73,71
2,204933, Note_on_c,0,61,64
2,204949, Note_on_c,0,73,0
2,204965, Note_on_c,0,85,0
2,205021, Note_on_c,0,80,83
2,205025, Note_on_c,0,61,0
2,205029, Note_on_c,0,68,74
2,205037, Note_on_c,0,56,50
2,205077, Note_on_c,0,56,0
2,205077, Note_on_c,0,68,0
2,205085, Note_on_c,0,80,0
2,205201, Note_on_c,0,78,78
2,205205, Note_on_c,0,54,50
2,205209, Note_on_c,0,66,62
2,205241, Note_on_c,0,66,0
2,205253, Note_on_c,0,78,0
2,205297, Note_on_c,0,54,0
2,205313, Note_on_c,0,77,89
2,205317, Note_on_c,0,53,64
2,205325, Note_on_c,0,65,62
2,205333, Control_c,0,64,0
2,205349, Note_on_c,0,65,0
2,205369, Note_on_c,0,77,0
2,205417, Note_on_c,0,53,0
2,205489, Note_on_c,0,75,73
2,205497, Note_on_c,0,63,58
2,205513, Note_on_c,0,51,62
2,205521, Note_on_c,0,63,0
2,205529, Note_on_c,0,75,0
2,205585, Note_on_c,0,73,83
2,205585, Note_on_c,0,61,77
2,205621, Note_on_c,0,61,0
2,205641, Note_on_c,0,73,0
2,205669, Note_on_c,0,51,0
2,205781, Note_on_c,0,55,66
2,205785, Note_on_c,0,79,88
2,205793, Note_on_c,0,67,70
2,205809, Note_on_c,0,55,0
2,205817, Note_on_c,0,67,0
2,205861, Note_on_c,0,79,0
2,205877, Control_c,0,64,24
2,205969, Control_c,0,64,0
2,206081, Note_on_c,0,91,90
2,206081, Note_on_c,0,79,82
2,206089, Note_on_c,0,67,70
2,206121, Note_on_c,0,79,0
2,206129, Note_on_c,0,67,0
2,206153, Note_on_c,0,91,0
2,206381, Note_on_c,0,103,89
2,206385, Note_on_c,0,91,80
2,206397, Note_on_c,0,79,69
2,206405, Control_c,0,64,72
2,206417, Control_c,0,64,127
2,206433, Note_on_c,0,91,0
2,206441, Note_on_c,0,103,0
2,206449, Note_on_c,0,79,0
2,206745, Control_c,0,64,104
2,206757, Control_c,0,64,88
2,206769, Control_c,0,64,72
2,206785, Control_c,0,64,56
2,206793, Control_c,0,64,40
2,206809, Control_c,0,64,24
2,206825, Control_c,0,64,0
2,206913, Note_on_c,0,83,83
2,206917, Note_on_c,0,71,58
2,206921, Note_on_c,0,59,58
2,206949, Note_on_c,0,71,0
2,206957, Note_on_c,0,83,0
2,206989, Note_on_c,0,59,0
2,207009, Note_on_c,0,84,94
2,207009, Note_on_c,0,72,87
2,207021, Note_on_c,0,60,68
2,207057, Note_on_c,0,72,0
2,207061, Note_on_c,0,60,0
2,207073, Note_on_c,0,84,0
2,207185, Note_on_c,0,89,81
2,207189, Note_on_c,0,65,60
2,207197, Note_on_c,0,77,25
2,207225, Note_on_c,0,77,0
2,207229, Note_on_c,0,89,0
2,207241, Note_on_c,0,65,0
2,207277, Note_on_c,0,84,92
2,207285, Note_on_c,0,72,79
2,207297, Note_on_c,0,60,60
2,207313, Note_on_c,0,72,0
2,207329, Note_on_c,0,60,0
2,207329, Note_on_c,0,84,0
2,207393, Control_c,0,64,24
2,207465, Note_on_c,0,87,75
2,207469, Note_on_c,0,75,77
2,207469, Note_on_c,0,63,62
2,207493, Note_on_c,0,75,0
2,207509, Note_on_c,0,87,0
2,207557, Note_on_c,0,85,83
2,207561, Note_on_c,0,73,72
2,207569, Note_on_c,0,63,0
2,207581, Note_on_c,0,61,44
2,207609, Note_on_c,0,61,0
2,207625, Note_on_c,0,73,0
2,207661, Note_on_c,0,85,0
2,207745, Note_on_c,0,60,55
2,207753, Note_on_c,0,84,76
2,207753, Note_on_c,0,72,60
2,207761, Control_c,0,64,0
2,207777, Note_on_c,0,72,0
2,207777, Note_on_c,0,84,0
2,207789, Note_on_c,0,60,0
2,207841, Note_on_c,0,58,47
2,207845, Note_on_c,0,82,74
2,207845, Note_on_c,0,70,54
2,207869, Note_on_c,0,70,0
2,207901, Note_on_c,0,82,0
2,207909, Note_on_c,0,58,0
2,208057, Note_on_c,0,72,76
2,208057, Note_on_c,0,84,72
2,208061, Note_on_c,0,60,68
2,208081, Note_on_c,0,72,0
2,208085, Note_on_c,0,60,0
2,208109, Note_on_c,0,84,0
2,208353, Note_on_c,0,96,81
2,208361, Note_on_c,0,72,65
2,208361, Note_on_c,0,84,70
2,208385, Note_on_c,0,72,0
2,208397, Note_on_c,0,84,0
2,208401, Note_on_c,0,96,0
2,208657, Note_on_c,0,60,66
2,208657, Note_on_c,0,84,76
2,208665, Note_on_c,0,72,70
2,208681, Note_on_c,0,60,0
2,208693, Note_on_c,0,72,0
2,208705, Note_on_c,0,84,0
2,208961, Note_on_c,0,72,74
2,208965, Note_on_c,0,48,64
2,208965, Note_on_c,0,60,57
2,208985, Note_on_c,0,48,0
2,208993, Note_on_c,0,60,0
2,209029, Note_on_c,0,72,0
2,209257, Note_on_c,0,83,83
2,209261, Note_on_c,0,71,73
2,209281, Note_on_c,0,59,49
2,209289, Note_on_c,0,71,0
2,209305, Note_on_c,0,83,0
2,209353, Note_on_c,0,59,0
2,209357, Note_on_c,0,84,90
2,209357, Note_on_c,0,72,77
2,209361, Note_on_c,0,60,73
2,209381, Note_on_c,0,72,0
2,209393, Note_on_c,0,60,0
2,209417, Note_on_c,0,84,0
2,209513, Note_on_c,0,89,96
2,209517, Note_on_c,0,77,77
2,209521, Note_on_c,0,65,65
2,209537, Note_on_c,0,89,0
2,209541, Note_on_c,0,77,0
2,209581, Note_on_c,0,65,0
2,209613, Note_on_c,0,84,97
2,209617, Note_on_c,0,72,96
2,209633, Note_on_c,0,60,59
2,209641, Note_on_c,0,72,0
2,209649, Note_on_c,0,84,0
2,209661, Note_on_c,0,60,0
2,209813, Note_on_c,0,87,74
2,209813, Note_on_c,0,63,67
2,209817, Note_on_c,0,75,79
2,209833, Note_on_c,0,87,0
2,209841, Note_on_c,0,75,0
2,209905, Note_on_c,0,85,83
2,209909, Note_on_c,0,73,69
2,209913, Note_on_c,0,63,0
2,209921, Note_on_c,0,61,53
2,209961, Note_on_c,0,73,0
2,209969, Note_on_c,0,61,0
2,210009, Note_on_c,0,85,0
2,210093, Note_on_c,0,60,56
2,210093, Note_on_c,0,84,66
2,210093, Note_on_c,0,72,63
2,210113, Note_on_c,0,72,0
2,210117, Note_on_c,0,84,0
2,210125, Note_on_c,0,60,0
2,210177, Note_on_c,0,58,57
2,210185, Note_on_c,0,82,74
2,210189, Note_on_c,0,70,67
2,210217, Note_on_c,0,70,0
2,210253, Note_on_c,0,82,0
2,210253, Note_on_c,0,58,0
2,210393, Note_on_c,0,72,81
2,210397, Note_on_c,0,84,80
2,210397, Note_on_c,0,60,70
2,210417, Note_on_c,0,72,0
2,210421, Note_on_c,0,60,0
2,210457, Note_on_c,0,84,0
2,210685, Note_on_c,0,96,80
2,210689, Note_on_c,0,84,70
2,210693, Note_on_c,0,72,62
2,210717, Note_on_c,0,72,0
2,210725, Note_on_c,0,84,0
2,210729, Note_on_c,0,96,0
2,210981, Note_on_c,0,60,61
2,210981, Note_on_c,0,84,78
2,210989, Note_on_c,0,72,68
2,211005, Note_on_c,0,60,0
2,211021, Note_on_c,0,72,0
2,211037, Note_on_c,0,84,0
2,211277, Note_on_c,0,72,72
2,211285, Note_on_c,0,48,65
2,211293, Note_on_c,0,60,46
2,211309, Note_on_c,0,48,0
2,211317, Note_on_c,0,60,0
2,211337, Note_on_c,0,72,0
2,211549, Note_on_c,0,83,82
2,211569, Note_on_c,0,59,60
2,211569, Note_on_c,0,71,66
2,211589, Note_on_c,0,71,0
2,211601, Note_on_c,0,83,0
2,211637, Note_on_c,0,59,0
2,211645, Note_on_c,0,84,90
2,211645, Note_on_c,0,72,82
2,211653, Note_on_c,0,60,67
2,211673, Note_on_c,0,72,0
2,211685, Note_on_c,0,60,0
2,211705, Note_on_c,0,84,0
2,211809, Note_on_c,0,89,90
2,211809, Note_on_c,0,77,78
2,211809, Note_on_c,0,65,66
2,211829, Note_on_c,0,89,0
2,211833, Note_on_c,0,77,0
2,211865, Note_on_c,0,65,0
2,211909, Note_on_c,0,84,94
2,211909, Note_on_c,0,72,86
2,211909, Note_on_c,0,60,58
2,211929, Note_on_c,0,72,0
2,211937, Note_on_c,0,60,0
2,211945, Note_on_c,0,84,0
2,212105, Note_on_c,0,87,77
2,212105, Note_on_c,0,75,77
2,212105, Note_on_c,0,63,71
2,212129, Note_on_c,0,75,0
2,212129, Note_on_c,0,87,0
2,212189, Note_on_c,0,85,80
2,212197, Note_on_c,0,73,74
2,212201, Note_on_c,0,63,0
2,212213, Note_on_c,0,61,58
2,212245, Note_on_c,0,73,0
2,212257, Note_on_c,0,61,0
2,212285, Note_on_c,0,85,0
2,212369, Note_on_c,0,60,62
2,212373, Note_on_c,0,84,80
2,212373, Note_on_c,0,72,75
2,212393, Note_on_c,0,84,0
2,212397, Note_on_c,0,72,0
2,212441, Note_on_c,0,60,0
2,212461, Note_on_c,0,82,85
2,212465, Note_on_c,0,58,58
2,212465, Note_on_c,0,70,79
2,212509, Note_on_c,0,70,0
2,212517, Note_on_c,0,58,0
2,212533, Note_on_c,0,82,0
2,212661, Note_on_c,0,85,85
2,212665, Note_on_c,0,73,81
2,212665, Note_on_c,0,61,63
2,212701, Note_on_c,0,73,0
2,212713, Note_on_c,0,85,0
2,212729, Note_on_c,0,61,0
2,212753, Note_on_c,0,86,96
2,212753, Note_on_c,0,74,85
2,212757, Note_on_c,0,62,73
2,212805, Note_on_c,0,74,0
2,212813, Note_on_c,0,62,0
2,212833, Note_on_c,0,86,0
2,212937, Note_on_c,0,91,96
2,212941, Note_on_c,0,67,71
2,212945, Note_on_c,0,79,84
2,212969, Note_on_c,0,79,0
2,212985, Note_on_c,0,91,0
2,213025, Note_on_c,0,67,0
2,213033, Note_on_c,0,62,68
2,213049, Note_on_c,0,86,89
2,213057, Note_on_c,0,74,58
2,213065, Note_on_c,0,62,0
2,213085, Note_on_c,0,86,0
2,213093, Note_on_c,0,74,0
2,213213, Note_on_c,0,89,96
2,213213, Note_on_c,0,77,87
2,213221, Note_on_c,0,65,64
2,213245, Note_on_c,0,77,0
2,213253, Note_on_c,0,89,0
2,213289, Note_on_c,0,65,0
2,213313, Note_on_c,0,64,70
2,213317, Note_on_c,0,88,94
2,213321, Note_on_c,0,76,82
2,213365, Note_on_c,0,64,0
2,213373, Note_on_c,0,76,0
2,213385, Note_on_c,0,88,0
2,213493, Note_on_c,0,61,55
2,213501, Note_on_c,0,85,79
2,213505, Note_on_c,0,73,73
2,213545, Note_on_c,0,73,0
2,213557, Note_on_c,0,85,0
2,213577, Note_on_c,0,61,0
2,213593, Note_on_c,0,84,86
2,213605, Note_on_c,0,72,74
2,213605, Note_on_c,0,60,56
2,213653, Note_on_c,0,60,0
2,213657, Note_on_c,0,72,0
2,213669, Note_on_c,0,84,0
2,213773, Note_on_c,0,83,86
2,213829, Note_on_c,0,83,0
2,213861, Note_on_c,0,84,96
2,213949, Note_on_c,0,84,0
2,214049, Note_on_c,0,71,78
2,214101, Note_on_c,0,71,0
2,214137, Note_on_c,0,84,83
2,214141, Note_on_c,0,72,84
2,214181, Note_on_c,0,84,0
2,214189, Note_on_c,0,72,0
2,214333, Note_on_c,0,71,89
2,214385, Note_on_c,0,71,0
2,214437, Note_on_c,0,72,85
2,214509, Note_on_c,0,72,0
2,214625, Note_on_c,0,59,91
2,214685, Note_on_c,0,59,0
2,214713, Note_on_c,0,72,85
2,214717, Note_on_c,0,60,81
2,214765, Note_on_c,0,72,0
2,214769, Note_on_c,0,60,0
2,214917, Note_on_c,0,59,84
2,214969, Note_on_c,0,59,0
2,215001, Note_on_c,0,60,93
2,215093, Note_on_c,0,60,0
2,215193, Note_on_c,0,47,97
2,215257, Note_on_c,0,47,0
2,215289, Note_on_c,0,60,86
2,215297, Note_on_c,0,48,82
2,215349, Note_on_c,0,60,0
2,215353, Note_on_c,0,48,0
2,215481, Note_on_c,0,47,83
2,215533, Note_on_c,0,47,0
2,215569, Note_on_c,0,48,88
2,215657, Note_on_c,0,48,0
2,215745, Note_on_c,0,35,84
2,215809, Note_on_c,0,35,0
2,215853, Note_on_c,0,48,78
2,215853, Note_on_c,0,36,71
2,215913, Note_on_c,0,36,0
2,215925, Note_on_c,0,48,0
2,216053, Note_on_c,0,35,70
2,216133, Note_on_c,0,35,0
2,216145, Note_on_c,0,36,74
2,216205, Note_on_c,0,36,0
2,216333, Note_on_c,0,35,74
2,216389, Note_on_c,0,35,0
2,216433, Note_on_c,0,36,72
2,216481, Note_on_c,0,36,0
2,216609, Note_on_c,0,39,75
2,216681, Note_on_c,0,39,0
2,216709, Note_on_c,0,40,74
2,216761, Note_on_c,0,40,0
2,216885, Note_on_c,0,42,82
2,216961, Note_on_c,0,42,0
2,216973, Note_on_c,0,43,80
2,217025, Note_on_c,0,43,0
2,217173, Note_on_c,0,47,88
2,217241, Note_on_c,0,47,0
2,217257, Note_on_c,0,48,82
2,217313, Note_on_c,0,48,0
2,217453, Note_on_c,0,51,79
2,217509, Note_on_c,0,51,0
2,217541, Note_on_c,0,52,75
2,217597, Note_on_c,0,52,0
2,217745, Note_on_c,0,54,75
2,217801, Note_on_c,0,54,0
2,217829, Note_on_c,0,55,72
2,217889, Note_on_c,0,55,0
2,218037, Note_on_c,0,59,78
2,218105, Note_on_c,0,59,0
2,218133, Note_on_c,0,60,77
2,218217, Note_on_c,0,60,0
2,218453, Note_on_c,0,41,65
2,218525, Control_c,0,64,56
2,218537, Control_c,0,64,104
2,218549, Control_c,0,64,127
2,218553, Note_on_c,0,48,68
2,218637, Note_on_c,0,41,0
2,218657, Note_on_c,0,53,66
2,218661, Note_on_c,0,48,0
2,218709, Note_on_c,0,53,0
2,218757, Note_on_c,0,60,76
2,218821, Note_on_c,0,60,0
2,218857, Note_on_c,0,68,55
2,218861, Note_on_c,0,65,63
2,218865, Note_on_c,0,72,69
2,218901, Note_on_c,0,65,0
2,218905, Note_on_c,0,68,0
2,218913, Note_on_c,0,72,0
2,219049, Control_c,0,64,88
2,219061, Control_c,0,64,24
2,219073, Note_on_c,0,44,70
2,219073, Control_c,0,64,0
2,219125, Control_c,0,64,24
2,219137, Note_on_c,0,44,0
2,219137, Control_c,0,64,72
2,219149, Control_c,0,64,127
2,219177, Note_on_c,0,53,66
2,219249, Note_on_c,0,53,0
2,219273, Note_on_c,0,60,66
2,219321, Note_on_c,0,60,0
2,219377, Note_on_c,0,65,77
2,219441, Note_on_c,0,65,0
2,219477, Note_on_c,0,72,70
2,219485, Note_on_c,0,77,75
2,219533, Note_on_c,0,72,0
2,219545, Note_on_c,0,77,0
2,219677, Control_c,0,64,72
2,219689, Control_c,0,64,0
2,219717, Note_on_c,0,43,75
2,219777, Control_c,0,64,40
2,219789, Control_c,0,64,104
2,219797, Control_c,0,64,127
2,219805, Note_on_c,0,43,0
2,219817, Note_on_c,0,51,74
2,219893, Note_on_c,0,51,0
2,219913, Note_on_c,0,58,76
2,219953, Note_on_c,0,58,0
2,220017, Note_on_c,0,63,77
2,220089, Note_on_c,0,63,0
2,220117, Note_on_c,0,75,71
2,220121, Note_on_c,0,70,65
2,220125, Note_on_c,0,73,59
2,220169, Note_on_c,0,70,0
2,220173, Note_on_c,0,73,0
2,220177, Note_on_c,0,75,0
2,220325, Control_c,0,64,88
2,220333, Note_on_c,0,39,78
2,220341, Control_c,0,64,24
2,220353, Control_c,0,64,0
2,220401, Control_c,0,64,24
2,220413, Control_c,0,64,72
2,220417, Note_on_c,0,39,0
2,220425, Control_c,0,64,127
2,220433, Note_on_c,0,46,73
2,220497, Note_on_c,0,46,0
2,220533, Note_on_c,0,55,69
2,220581, Note_on_c,0,55,0
2,220641, Note_on_c,0,58,67
2,220713, Note_on_c,0,58,0
2,220749, Note_on_c,0,70,68
2,220753, Note_on_c,0,63,55
2,220757, Note_on_c,0,67,59
2,220793, Note_on_c,0,63,0
2,220793, Note_on_c,0,70,0
2,220805, Note_on_c,0,67,0
2,220929, Control_c,0,64,104
2,220961, Note_on_c,0,44,71
2,220961, Control_c,0,64,40
2,220969, Control_c,0,64,0
2,221041, Control_c,0,64,24
2,221057, Control_c,0,64,88
2,221061, Note_on_c,0,44,0
2,221061, Note_on_c,0,51,77
2,221069, Control_c,0,64,127
2,221157, Note_on_c,0,56,75
2,221177, Note_on_c,0,51,0
2,221201, Note_on_c,0,56,0
2,221257, Note_on_c,0,60,80
2,221313, Note_on_c,0,60,0
2,221357, Note_on_c,0,68,59
2,221361, Note_on_c,0,72,76
2,221361, Note_on_c,0,63,48
2,221381, Note_on_c,0,63,0
2,221401, Note_on_c,0,68,0
2,221421, Note_on_c,0,72,0
2,221573, Control_c,0,64,88
2,221585, Control_c,0,64,0
2,221589, Note_on_c,0,48,80
2,221637, Note_on_c,0,48,0
2,221657, Control_c,0,64,40
2,221669, Control_c,0,64,88
2,221681, Control_c,0,64,127
2,221685, Note_on_c,0,56,74
2,221769, Note_on_c,0,56,0
2,221793, Note_on_c,0,63,77
2,221833, Note_on_c,0,63,0
2,221889, Note_on_c,0,68,77
2,221977, Note_on_c,0,68,0
2,221989, Note_on_c,0,80,83
2,221993, Note_on_c,0,75,73
2,222033, Note_on_c,0,75,0
2,222045, Note_on_c,0,80,0
2,222197, Control_c,0,64,72
2,222205, Note_on_c,0,47,83
2,222209, Control_c,0,64,0
2,222257, Note_on_c,0,47,0
2,222281, Control_c,0,64,72
2,222293, Control_c,0,64,127
2,222313, Note_on_c,0,55,72
2,222389, Note_on_c,0,55,0
2,222417, Note_on_c,0,62,74
2,222461, Note_on_c,0,62,0
2,222521, Note_on_c,0,67,71
2,222585, Note_on_c,0,67,0
2,222621, Note_on_c,0,74,63
2,222621, Note_on_c,0,79,81
2,222621, Note_on_c,0,77,67
2,222661, Note_on_c,0,79,0
2,222665, Note_on_c,0,74,0
2,222669, Note_on_c,0,77,0
2,222845, Note_on_c,0,43,78
2,222873, Control_c,0,64,56
2,222885, Control_c,0,64,0
2,222945, Control_c,0,64,40
2,222949, Note_on_c,0,50,79
2,222957, Control_c,0,64,104
2,222961, Note_on_c,0,43,0
2,222969, Control_c,0,64,127
2,223045, Note_on_c,0,50,0
2,223045, Note_on_c,0,55,80
2,223089, Note_on_c,0,55,0
2,223137, Note_on_c,0,62,77
2,223209, Note_on_c,0,62,0
2,223241, Note_on_c,0,67,61
2,223253, Note_on_c,0,74,70
2,223261, Note_on_c,0,71,52
2,223289, Note_on_c,0,71,0
2,223289, Note_on_c,0,67,0
2,223305, Note_on_c,0,74,0
2,223449, Note_on_c,0,48,83
2,223473, Control_c,0,64,72
2,223485, Control_c,0,64,24
2,223497, Control_c,0,64,0
2,223537, Note_on_c,0,55,70
2,223557, Control_c,0,64,56
2,223569, Control_c,0,64,127
2,223581, Note_on_c,0,48,0
2,223637, Note_on_c,0,60,80
2,223661, Note_on_c,0,55,0
2,223697, Note_on_c,0,60,0
2,223745, Note_on_c,0,67,78
2,223813, Note_on_c,0,67,0
2,223853, Note_on_c,0,79,74
2,223853, Note_on_c,0,72,71
2,223885, Note_on_c,0,72,0
2,223917, Note_on_c,0,79,0
2,224061, Note_on_c,0,55,76
2,224073, Control_c,0,64,88
2,224085, Control_c,0,64,24
2,224097, Control_c,0,64,0
2,224145, Control_c,0,64,72
2,224149, Note_on_c,0,55,0
2,224153, Note_on_c,0,60,67
2,224157, Control_c,0,64,127
2,224253, Note_on_c,0,67,75
2,224293, Note_on_c,0,60,0
2,224317, Note_on_c,0,67,0
2,224349, Note_on_c,0,72,81
2,224425, Note_on_c,0,72,0
2,224449, Note_on_c,0,79,76
2,224449, Note_on_c,0,76,68
2,224457, Note_on_c,0,84,79
2,224473, Note_on_c,0,76,0
2,224497, Note_on_c,0,84,0
2,224497, Note_on_c,0,79,0
2,224673, Note_on_c,0,50,79
2,224697, Control_c,0,64,72
2,224709, Control_c,0,64,0
2,224745, Note_on_c,0,50,0
2,224753, Note_on_c,0,53,68
2,224769, Control_c,0,64,56
2,224781, Control_c,0,64,127
2,224829, Note_on_c,0,53,0
2,224833, Note_on_c,0,55,74
2,224885, Note_on_c,0,55,0
2,224913, Note_on_c,0,62,69
2,224965, Note_on_c,0,62,0
2,224989, Note_on_c,0,69,74
2,225041, Note_on_c,0,69,0
2,225069, Note_on_c,0,67,84
2,225145, Note_on_c,0,67,0
2,225149, Note_on_c,0,79,77
2,225149, Note_on_c,0,77,64
2,225193, Note_on_c,0,77,0
2,225229, Note_on_c,0,67,79
2,225273, Note_on_c,0,67,0
2,225289, Note_on_c,0,79,0
2,225297, Control_c,0,64,104
2,225305, Note_on_c,0,62,82
2,225309, Control_c,0,64,24
2,225321, Control_c,0,64,0
2,225357, Control_c,0,64,24
2,225369, Control_c,0,64,88
2,225381, Note_on_c,0,62,0
2,225381, Control_c,0,64,127
2,225385, Note_on_c,0,65,66
2,225457, Note_on_c,0,65,0
2,225465, Note_on_c,0,67,67
2,225513, Note_on_c,0,67,0
2,225545, Note_on_c,0,74,64
2,225593, Note_on_c,0,74,0
2,225625, Note_on_c,0,78,82
2,225689, Note_on_c,0,78,0
2,225705, Note_on_c,0,79,92
2,225777, Note_on_c,0,79,0
2,225785, Note_on_c,0,91,84
2,225785, Note_on_c,0,89,68
2,225825, Note_on_c,0,89,0
2,225849, Note_on_c,0,91,0
2,225865, Note_on_c,0,79,72
2,225905, Note_on_c,0,79,0
2,225941, Note_on_c,0,48,83
2,225945, Control_c,0,64,104
2,225957, Control_c,0,64,0
2,226029, Note_on_c,0,48,0
2,226029, Control_c,0,64,56
2,226041, Note_on_c,0,55,70
2,226045, Control_c,0,64,127
2,226133, Note_on_c,0,55,0
2,226137, Note_on_c,0,60,66
2,226185, Note_on_c,0,60,0
2,226241, Note_on_c,0,67,75
2,226297, Note_on_c,0,67,0
2,226345, Note_on_c,0,72,70
2,226345, Note_on_c,0,79,71
2,226365, Note_on_c,0,72,0
2,226397, Note_on_c,0,79,0
2,226557, Note_on_c,0,55,80
2,226573, Control_c,0,64,40
2,226585, Control_c,0,64,0
2,226641, Note_on_c,0,55,0
2,226645, Control_c,0,64,72
2,226657, Control_c,0,64,127
2,226665, Note_on_c,0,60,60
2,226749, Note_on_c,0,67,70
2,226773, Note_on_c,0,60,0
2,226801, Note_on_c,0,67,0
2,226845, Note_on_c,0,72,78
2,226909, Note_on_c,0,72,0
2,226945, Note_on_c,0,84,78
2,226945, Note_on_c,0,79,63
2,226945, Note_on_c,0,76,64
2,226977, Note_on_c,0,79,0
2,226981, Note_on_c,0,76,0
2,226989, Note_on_c,0,84,0
2,227173, Note_on_c,0,50,77
2,227185, Control_c,0,64,56
2,227197, Control_c,0,64,0
2,227249, Note_on_c,0,50,0
2,227253, Note_on_c,0,53,65
2,227257, Control_c,0,64,40
2,227273, Control_c,0,64,104
2,227285, Control_c,0,64,127
2,227333, Note_on_c,0,55,73
2,227337, Note_on_c,0,53,0
2,227385, Note_on_c,0,55,0
2,227413, Note_on_c,0,62,64
2,227445, Note_on_c,0,62,0
2,227493, Note_on_c,0,69,77
2,227545, Note_on_c,0,69,0
2,227573, Note_on_c,0,67,78
2,227653, Note_on_c,0,67,0
2,227653, Note_on_c,0,77,64
2,227653, Note_on_c,0,79,70
2,227697, Note_on_c,0,77,0
2,227709, Note_on_c,0,79,0
2,227737, Note_on_c,0,67,77
2,227781, Note_on_c,0,67,0
2,227825, Note_on_c,0,62,82
2,227841, Control_c,0,64,72
2,227853, Control_c,0,64,0
2,227901, Note_on_c,0,62,0
2,227901, Control_c,0,64,72
2,227913, Control_c,0,64,127
2,227917, Note_on_c,0,65,63
2,227969, Note_on_c,0,67,63
2,227997, Note_on_c,0,65,0
2,228025, Note_on_c,0,67,0
2,228033, Note_on_c,0,74,64
2,228077, Note_on_c,0,74,0
2,228121, Note_on_c,0,78,75
2,228173, Note_on_c,0,78,0
2,228193, Note_on_c,0,79,86
2,228261, Note_on_c,0,79,0
2,228289, Note_on_c,0,91,74
2,228293, Note_on_c,0,89,58
2,228333, Note_on_c,0,89,0
2,228353, Note_on_c,0,91,0
2,228365, Note_on_c,0,79,58
2,228389, Note_on_c,0,79,0
2,228441, Note_on_c,0,72,80
2,228453, Control_c,0,64,40
2,228465, Control_c,0,64,0
2,228509, Note_on_c,0,72,0
2,228513, Control_c,0,64,72
2,228517, Note_on_c,0,79,63
2,228521, Control_c,0,64,127
2,228585, Note_on_c,0,84,74
2,228593, Note_on_c,0,79,0
2,228653, Note_on_c,0,88,76
2,228661, Note_on_c,0,84,0
2,228705, Note_on_c,0,88,0
2,228741, Note_on_c,0,90,80
2,228793, Note_on_c,0,90,0
2,228821, Note_on_c,0,91,93
2,228889, Note_on_c,0,91,0
2,228909, Note_on_c,0,103,88
2,228913, Note_on_c,0,96,81
2,228917, Note_on_c,0,100,68
2,228949, Note_on_c,0,100,0
2,228949, Note_on_c,0,96,0
2,228973, Note_on_c,0,103,0
2,228985, Note_on_c,0,91,85
2,229033, Note_on_c,0,91,0
2,229041, Control_c,0,64,56
2,229053, Control_c,0,64,0
2,229061, Note_on_c,0,78,71
2,229061, Note_on_c,0,88,78
2,229089, Control_c,0,64,24
2,229101, Control_c,0,64,88
2,229113, Control_c,0,64,127
2,229125, Note_on_c,0,78,0
2,229145, Note_on_c,0,84,59
2,229145, Note_on_c,0,79,74
2,229157, Note_on_c,0,88,0
2,229173, Note_on_c,0,79,0
2,229185, Note_on_c,0,84,0
2,229233, Note_on_c,0,100,82
2,229233, Note_on_c,0,91,81
2,229237, Note_on_c,0,96,70
2,229297, Note_on_c,0,91,0
2,229297, Note_on_c,0,100,0
2,229301, Note_on_c,0,96,0
2,229301, Note_on_c,0,88,76
2,229357, Note_on_c,0,88,0
2,229377, Control_c,0,64,104
2,229385, Note_on_c,0,84,82
2,229389, Note_on_c,0,75,73
2,229389, Control_c,0,64,40
2,229425, Control_c,0,64,127
2,229449, Note_on_c,0,75,0
2,229473, Note_on_c,0,76,74
2,229473, Note_on_c,0,79,67
2,229477, Note_on_c,0,84,0
2,229489, Note_on_c,0,79,0
2,229497, Note_on_c,0,76,0
2,229549, Note_on_c,0,88,72
2,229557, Note_on_c,0,96,82
2,229557, Note_on_c,0,91,74
2,229621, Note_on_c,0,88,0
2,229625, Note_on_c,0,91,0
2,229625, Note_on_c,0,96,0
2,229637, Note_on_c,0,84,76
2,229689, Note_on_c,0,84,0
2,229709, Note_on_c,0,67,73
2,229737, Control_c,0,64,56
2,229749, Control_c,0,64,0
2,229773, Control_c,0,64,24
2,229777, Note_on_c,0,67,0
2,229785, Control_c,0,64,72
2,229797, Control_c,0,64,127
2,229809, Note_on_c,0,72,74
2,229877, Note_on_c,0,72,0
2,229877, Note_on_c,0,76,81
2,229957, Note_on_c,0,76,0
2,229957, Note_on_c,0,77,78
2,229981, Note_on_c,0,77,0
2,230025, Note_on_c,0,78,80
2,230081, Note_on_c,0,78,0
2,230109, Note_on_c,0,79,87
2,230181, Note_on_c,0,79,0
2,230197, Note_on_c,0,91,86
2,230201, Note_on_c,0,84,74
2,230209, Note_on_c,0,88,64
2,230237, Note_on_c,0,84,0
2,230257, Note_on_c,0,88,0
2,230261, Note_on_c,0,91,0
2,230285, Note_on_c,0,79,75
2,230325, Control_c,0,64,104
2,230337, Control_c,0,64,24
2,230341, Note_on_c,0,79,0
2,230349, Control_c,0,64,0
2,230353, Note_on_c,0,76,76
2,230353, Note_on_c,0,66,56
2,230385, Control_c,0,64,40
2,230397, Control_c,0,64,88
2,230409, Control_c,0,64,127
2,230413, Note_on_c,0,76,0
2,230421, Note_on_c,0,66,0
2,230441, Note_on_c,0,72,73
2,230453, Note_on_c,0,67,55
2,230461, Note_on_c,0,72,0
2,230481, Note_on_c,0,67,0
2,230533, Note_on_c,0,79,72
2,230533, Note_on_c,0,88,80
2,230537, Note_on_c,0,84,62
2,230593, Note_on_c,0,88,0
2,230601, Note_on_c,0,79,0
2,230605, Note_on_c,0,84,0
2,230605, Note_on_c,0,76,75
2,230661, Note_on_c,0,76,0
2,230685, Note_on_c,0,72,82
2,230685, Note_on_c,0,63,71
2,230697, Control_c,0,64,72
2,230709, Control_c,0,64,0
2,230745, Control_c,0,64,88
2,230757, Control_c,0,64,127
2,230761, Note_on_c,0,63,0
2,230769, Note_on_c,0,67,69
2,230773, Note_on_c,0,64,70
2,230781, Note_on_c,0,72,0
2,230789, Note_on_c,0,67,0
2,230801, Note_on_c,0,64,0
2,230873, Note_on_c,0,84,78
2,230873, Note_on_c,0,76,67
2,230873, Note_on_c,0,79,71
2,230933, Note_on_c,0,76,0
2,230941, Note_on_c,0,79,0
2,230945, Note_on_c,0,84,0
2,230961, Note_on_c,0,72,70
2,231013, Note_on_c,0,72,0
2,231025, Note_on_c,0,55,78
2,231033, Control_c,0,64,88
2,231045, Control_c,0,64,24
2,231057, Control_c,0,64,0
2,231093, Note_on_c,0,55,0
2,231105, Control_c,0,64,56
2,231109, Note_on_c,0,60,66
2,231117, Control_c,0,64,127
2,231185, Note_on_c,0,64,74
2,231189, Note_on_c,0,60,0
2,231269, Note_on_c,0,64,0
2,231269, Note_on_c,0,65,70
2,231297, Note_on_c,0,65,0
2,231353, Note_on_c,0,66,73
2,231409, Note_on_c,0,66,0
2,231417, Note_on_c,0,67,82
2,231493, Note_on_c,0,67,0
2,231505, Note_on_c,0,79,79
2,231509, Note_on_c,0,72,70
2,231517, Note_on_c,0,76,64
2,231545, Note_on_c,0,72,0
2,231573, Note_on_c,0,76,0
2,231573, Note_on_c,0,79,0
2,231589, Note_on_c,0,67,70
2,231633, Control_c,0,64,72
2,231645, Control_c,0,64,0
2,231649, Note_on_c,0,67,0
2,231649, Note_on_c,0,64,66
2,231649, Note_on_c,0,54,57
2,231705, Control_c,0,64,40
2,231717, Control_c,0,64,104
2,231729, Control_c,0,64,127
2,231733, Note_on_c,0,54,0
2,231745, Note_on_c,0,60,63
2,231753, Note_on_c,0,64,0
2,231757, Note_on_c,0,55,44
2,231765, Note_on_c,0,60,0
2,231785, Note_on_c,0,55,0
2,231837, Note_on_c,0,76,76
2,231837, Note_on_c,0,67,69
2,231845, Note_on_c,0,72,66
2,231897, Note_on_c,0,67,0
2,231897, Note_on_c,0,76,0
2,231905, Note_on_c,0,72,0
2,231909, Note_on_c,0,64,67
2,231969, Note_on_c,0,64,0
2,231981, Note_on_c,0,60,77
2,231981, Control_c,0,64,40
2,231985, Note_on_c,0,51,67
2,231993, Control_c,0,64,0
2,232033, Control_c,0,64,24
2,232045, Control_c,0,64,72
2,232057, Control_c,0,64,127
2,232061, Note_on_c,0,51,0
2,232069, Note_on_c,0,52,67
2,232069, Note_on_c,0,55,58
2,232081, Note_on_c,0,60,0
2,232097, Note_on_c,0,55,0
2,232109, Note_on_c,0,52,0
2,232169, Note_on_c,0,72,67
2,232173, Note_on_c,0,64,53
2,232181, Note_on_c,0,67,44
2,232229, Note_on_c,0,67,0
2,232233, Note_on_c,0,64,0
2,232241, Note_on_c,0,72,0
2,232253, Note_on_c,0,60,74
2,232313, Note_on_c,0,60,0
2,232317, Note_on_c,0,47,73
2,232321, Control_c,0,64,40
2,232325, Note_on_c,0,55,61
2,232333, Control_c,0,64,0
2,232337, Note_on_c,0,53,45
2,232365, Note_on_c,0,53,0
2,232381, Control_c,0,64,40
2,232393, Control_c,0,64,127
2,232405, Note_on_c,0,47,0
2,232413, Note_on_c,0,55,0
2,232417, Note_on_c,0,52,74
2,232437, Note_on_c,0,48,50
2,232457, Note_on_c,0,52,0
2,232461, Note_on_c,0,48,0
2,232497, Note_on_c,0,67,71
2,232505, Note_on_c,0,64,64
2,232505, Note_on_c,0,60,64
2,232565, Note_on_c,0,60,0
2,232573, Note_on_c,0,67,0
2,232581, Note_on_c,0,64,0
2,232585, Note_on_c,0,55,76
2,232637, Note_on_c,0,55,0
2,232657, Control_c,0,64,72
2,232661, Note_on_c,0,42,70
2,232669, Note_on_c,0,52,83
2,232669, Control_c,0,64,0
2,232729, Control_c,0,64,72
2,232737, Control_c,0,64,127
2,232745, Note_on_c,0,42,0
2,232749, Note_on_c,0,48,82
2,232757, Note_on_c,0,52,0
2,232761, Note_on_c,0,43,56
2,232769, Note_on_c,0,48,0
2,232785, Note_on_c,0,43,0
2,232849, Note_on_c,0,64,71
2,232857, Note_on_c,0,60,55
2,232857, Note_on_c,0,55,62
2,232913, Note_on_c,0,55,0
2,232921, Note_on_c,0,64,0
2,232933, Note_on_c,0,60,0
2,232937, Note_on_c,0,52,75
2,232993, Note_on_c,0,52,0
2,232993, Control_c,0,64,56
2,233005, Note_on_c,0,39,71
2,233005, Control_c,0,64,0
2,233009, Note_on_c,0,48,85
2,233073, Control_c,0,64,56
2,233085, Note_on_c,0,39,0
2,233089, Control_c,0,64,127
2,233093, Note_on_c,0,40,68
2,233097, Note_on_c,0,43,67
2,233109, Note_on_c,0,48,0
2,233121, Note_on_c,0,43,0
2,233145, Note_on_c,0,40,0
2,233197, Note_on_c,0,60,74
2,233197, Note_on_c,0,52,62
2,233197, Note_on_c,0,55,55
2,233237, Note_on_c,0,55,0
2,233249, Note_on_c,0,52,0
2,233281, Note_on_c,0,60,0
2,233289, Note_on_c,0,48,72
2,233341, Note_on_c,0,48,0
2,233341, Control_c,0,64,40
2,233353, Control_c,0,64,0
2,233365, Note_on_c,0,43,65
2,233365, Note_on_c,0,35,66
2,233413, Control_c,0,64,40
2,233425, Control_c,0,64,104
2,233437, Control_c,0,64,127
2,233449, Note_on_c,0,35,0
2,233453, Note_on_c,0,40,70
2,233457, Note_on_c,0,36,46
2,233461, Note_on_c,0,43,0
2,233501, Note_on_c,0,40,0
2,233509, Note_on_c,0,36,0
2,233545, Note_on_c,0,55,66
2,233545, Note_on_c,0,48,61
2,233545, Note_on_c,0,52,58
2,233589, Note_on_c,0,48,0
2,233621, Note_on_c,0,52,0
2,233633, Note_on_c,0,43,63
2,233653, Note_on_c,0,55,0
2,233681, Note_on_c,0,43,0
2,233733, Note_on_c,0,24,78
2,233801, Control_c,0,64,127
2,233837, Note_on_c,0,31,69
2,233857, Note_on_c,0,24,0
2,233889, Note_on_c,0,31,0
2,233929, Note_on_c,0,36,65
2,234005, Note_on_c,0,36,0
2,234009, Note_on_c,0,40,67
2,234041, Note_on_c,0,40,0
2,234105, Note_on_c,0,43,70
2,234169, Note_on_c,0,43,0
2,234213, Note_on_c,0,48,70
2,234289, Note_on_c,0,52,76
2,234293, Note_on_c,0,48,0
2,234373, Note_on_c,0,55,73
2,234397, Note_on_c,0,52,0
2,234441, Note_on_c,0,55,0
2,234457, Note_on_c,0,48,88
2,234489, Control_c,0,64,0
2,234537, Note_on_c,0,48,0
2,234553, Note_on_c,0,55,78
2,234577, Control_c,0,64,88
2,234593, Control_c,0,64,127
2,234621, Note_on_c,0,55,0
2,234641, Note_on_c,0,60,70
2,234721, Note_on_c,0,64,73
2,234733, Note_on_c,0,60,0
2,234745, Note_on_c,0,64,0
2,234809, Note_on_c,0,67,80
2,234853, Note_on_c,0,67,0
2,234893, Note_on_c,0,72,80
2,234969, Note_on_c,0,72,0
2,234969, Note_on_c,0,76,82
2,235061, Note_on_c,0,79,79
2,235065, Note_on_c,0,76,0
2,235117, Note_on_c,0,79,0
2,235153, Control_c,0,64,0
2,235153, Note_on_c,0,84,96
2,235201, Note_on_c,0,84,0
2,236613, Note_on_c,0,24,75
2,236617, Control_c,0,64,56
2,236629, Control_c,0,64,0
2,236693, Control_c,0,64,72
2,236701, Note_on_c,0,32,73
2,236709, Note_on_c,0,24,0
2,236709, Control_c,0,64,127
2,236769, Note_on_c,0,32,0
2,236789, Note_on_c,0,36,66
2,236825, Note_on_c,0,36,0
2,236873, Note_on_c,0,41,67
2,236917, Note_on_c,0,41,0
2,236969, Note_on_c,0,44,73
2,237053, Note_on_c,0,48,76
2,237061, Note_on_c,0,44,0
2,237129, Note_on_c,0,53,68
2,237137, Note_on_c,0,48,0
2,237217, Note_on_c,0,56,68
2,237229, Note_on_c,0,53,0
2,237297, Note_on_c,0,56,0
2,237305, Note_on_c,0,48,82
2,237329, Control_c,0,64,88
2,237341, Control_c,0,64,0
2,237393, Note_on_c,0,48,0
2,237397, Note_on_c,0,56,67
2,237405, Control_c,0,64,72
2,237421, Control_c,0,64,127
2,237461, Note_on_c,0,56,0
2,237485, Note_on_c,0,60,58
2,237557, Note_on_c,0,60,0
2,237561, Note_on_c,0,65,62
2,237589, Note_on_c,0,65,0
2,237653, Note_on_c,0,68,67
2,237733, Note_on_c,0,72,79
2,237741, Note_on_c,0,68,0
2,237805, Note_on_c,0,77,76
2,237825, Note_on_c,0,72,0
2,237881, Note_on_c,0,80,78
2,237905, Note_on_c,0,77,0
2,237941, Note_on_c,0,80,0
2,237993, Control_c,0,64,0
2,237993, Note_on_c,0,84,94
2,238041, Note_on_c,0,84,0
2,239405, Control_c,0,64,40
2,239417, Control_c,0,64,0
2,239433, Note_on_c,0,48,83
2,239509, Note_on_c,0,48,0
2,239509, Control_c,0,64,127
2,239529, Note_on_c,0,53,70
2,239593, Note_on_c,0,53,0
2,239605, Note_on_c,0,57,70
2,239681, Note_on_c,0,57,0
2,239681, Note_on_c,0,63,67
2,239721, Note_on_c,0,63,0
2,239761, Note_on_c,0,64,69
2,239833, Note_on_c,0,64,0
2,239833, Note_on_c,0,65,70
2,239925, Note_on_c,0,69,72
2,239937, Note_on_c,0,65,0
2,240009, Note_on_c,0,72,74
2,240013, Note_on_c,0,69,0
2,240065, Note_on_c,0,72,0
2,240097, Control_c,0,64,0
2,240097, Note_on_c,0,77,86
2,240149, Note_on_c,0,77,0
2,240721, Control_c,0,64,56
2,240737, Control_c,0,64,0
2,240785, Note_on_c,0,48,82
2,240837, Control_c,0,64,127
2,240841, Note_on_c,0,48,0
2,240881, Note_on_c,0,53,64
2,240949, Note_on_c,0,53,0
2,240961, Note_on_c,0,58,67
2,241033, Note_on_c,0,61,67
2,241045, Note_on_c,0,58,0
2,241081, Note_on_c,0,61,0
2,241121, Note_on_c,0,64,69
2,241197, Note_on_c,0,64,0
2,241197, Note_on_c,0,65,77
2,241273, Note_on_c,0,70,71
2,241297, Note_on_c,0,65,0
2,241345, Note_on_c,0,73,73
2,241381, Note_on_c,0,70,0
2,241397, Note_on_c,0,73,0
2,241453, Control_c,0,64,0
2,241453, Note_on_c,0,77,85
2,241505, Note_on_c,0,77,0
2,242105, Control_c,0,64,24
2,242117, Control_c,0,64,0
2,242141, Note_on_c,0,48,80
2,242193, Control_c,0,64,127
2,242197, Note_on_c,0,48,0
2,242233, Note_on_c,0,55,69
2,242281, Note_on_c,0,55,0
2,242309, Note_on_c,0,59,72
2,242397, Note_on_c,0,59,0
2,242397, Note_on_c,0,62,76
2,242421, Note_on_c,0,62,0
2,242481, Note_on_c,0,66,67
2,242537, Note_on_c,0,66,0
2,242565, Note_on_c,0,67,80
2,242645, Note_on_c,0,67,0
2,242645, Note_on_c,0,71,74
2,242717, Note_on_c,0,74,74
2,242733, Note_on_c,0,71,0
2,242781, Note_on_c,0,74,0
2,242825, Control_c,0,64,0
2,242825, Note_on_c,0,79,87
2,242877, Note_on_c,0,79,0
2,243473, Control_c,0,64,0
2,243493, Note_on_c,0,48,84
2,243549, Note_on_c,0,48,0
2,243565, Control_c,0,64,127
2,243593, Note_on_c,0,55,67
2,243649, Note_on_c,0,55,0
2,243665, Note_on_c,0,58,65
2,243753, Note_on_c,0,58,0
2,243757, Note_on_c,0,64,78
2,243797, Note_on_c,0,64,0
2,243841, Note_on_c,0,66,73
2,243885, Note_on_c,0,66,0
2,243925, Note_on_c,0,67,78
2,243989, Note_on_c,0,67,0
2,244005, Note_on_c,0,72,85
2,244093, Note_on_c,0,76,81
2,244101, Note_on_c,0,72,0
2,244149, Note_on_c,0,76,0
2,244205, Control_c,0,64,0
2,244205, Note_on_c,0,79,93
2,244253, Note_on_c,0,79,0
2,244917, Control_c,0,64,88
2,244929, Control_c,0,64,0
2,244937, Note_on_c,0,60,69
2,244993, Note_on_c,0,60,0
2,245009, Control_c,0,64,104
2,245021, Control_c,0,64,127
2,245029, Note_on_c,0,65,56
2,245101, Note_on_c,0,65,0
2,245113, Note_on_c,0,69,69
2,245177, Note_on_c,0,69,0
2,245177, Note_on_c,0,75,67
2,245217, Note_on_c,0,75,0
2,245253, Note_on_c,0,76,77
2,245305, Note_on_c,0,76,0
2,245329, Note_on_c,0,77,82
2,245405, Note_on_c,0,81,78
2,245421, Note_on_c,0,77,0
2,245489, Note_on_c,0,84,83
2,245493, Note_on_c,0,81,0
2,245557, Note_on_c,0,84,0
2,245597, Control_c,0,64,0
2,245597, Note_on_c,0,89,89
2,245649, Note_on_c,0,89,0
2,245797, Control_c,0,64,0
2,246181, Control_c,0,64,127
2,246261, Note_on_c,0,75,69
2,246261, Note_on_c,0,88,77
2,246265, Note_on_c,0,76,80
2,246273, Note_on_c,0,87,67
2,246277, Note_on_c,0,81,65
2,246281, Note_on_c,0,69,50
2,246293, Note_on_c,0,65,29
2,246301, Note_on_c,0,81,0
2,246301, Note_on_c,0,87,0
2,246301, Note_on_c,0,75,0
2,246309, Note_on_c,0,88,0
2,246309, Note_on_c,0,69,0
2,246313, Note_on_c,0,76,0
2,246317, Note_on_c,0,65,0
2,246353, Note_on_c,0,75,78
2,246353, Note_on_c,0,81,79
2,246357, Note_on_c,0,65,70
2,246357, Note_on_c,0,69,60
2,246357, Note_on_c,0,89,73
2,246357, Note_on_c,0,76,63
2,246361, Note_on_c,0,87,59
2,246361, Note_on_c,0,88,74
2,246365, Note_on_c,0,77,80
2,246381, Note_on_c,0,65,0
2,246385, Note_on_c,0,77,0
2,246389, Note_on_c,0,69,0
2,246397, Note_on_c,0,76,0
2,246397, Note_on_c,0,75,0
2,246405, Note_on_c,0,81,0
2,246417, Note_on_c,0,88,0
2,246421, Note_on_c,0,87,0
2,246421, Note_on_c,0,89,0
2,246589, Note_on_c,0,75,85
2,246589, Note_on_c,0,90,85
2,246597, Note_on_c,0,69,69
2,246597, Note_on_c,0,81,63
2,246597, Note_on_c,0,78,71
2,246601, Note_on_c,0,87,58
2,246601, Note_on_c,0,65,67
2,246625, Note_on_c,0,65,0
2,246625, Note_on_c,0,69,0
2,246633, Note_on_c,0,75,0
2,246649, Note_on_c,0,78,0
2,246657, Note_on_c,0,81,0
2,246661, Note_on_c,0,87,0
2,246665, Note_on_c,0,90,0
2,246697, Note_on_c,0,89,92
2,246701, Note_on_c,0,77,87
2,246701, Note_on_c,0,87,72
2,246701, Note_on_c,0,81,81
2,246701, Note_on_c,0,69,65
2,246705, Note_on_c,0,75,81
2,246709, Note_on_c,0,65,67
2,246729, Note_on_c,0,65,0
2,246745, Note_on_c,0,77,0
2,246745, Note_on_c,0,75,0
2,246749, Note_on_c,0,81,0
2,246753, Note_on_c,0,89,0
2,246757, Note_on_c,0,69,0
2,246761, Note_on_c,0,87,0
2,247609, Control_c,0,64,0
2,247633, Note_on_c,0,64,74
2,247633, Note_on_c,0,52,67
2,247633, Note_on_c,0,51,70
2,247641, Note_on_c,0,45,69
2,247641, Note_on_c,0,57,62
2,247641, Note_on_c,0,41,57
2,247665, Note_on_c,0,41,0
2,247665, Note_on_c,0,45,0
2,247673, Note_on_c,0,51,0
2,247677, Note_on_c,0,52,0
2,247681, Note_on_c,0,57,0
2,247693, Note_on_c,0,64,0
2,247729, Note_on_c,0,65,83
2,247733, Note_on_c,0,51,71
2,247737, Note_on_c,0,45,69
2,247741, Note_on_c,0,53,61
2,247741, Note_on_c,0,57,54
2,247741, Note_on_c,0,64,46
2,247741, Note_on_c,0,41,41
2,247761, Note_on_c,0,45,0
2,247765, Note_on_c,0,53,0
2,247769, Note_on_c,0,64,0
2,247769, Note_on_c,0,41,0
2,247777, Note_on_c,0,51,0
2,247793, Note_on_c,0,57,0
2,247801, Note_on_c,0,65,0
2,247949, Note_on_c,0,66,72
2,247953, Note_on_c,0,54,64
2,247961, Note_on_c,0,51,72
2,247965, Note_on_c,0,45,70
2,247965, Note_on_c,0,57,57
2,247965, Note_on_c,0,41,62
2,247965, Note_on_c,0,63,51
2,247993, Note_on_c,0,41,0
2,247993, Note_on_c,0,45,0
2,248001, Note_on_c,0,57,0
2,248001, Note_on_c,0,54,0
2,248005, Note_on_c,0,51,0
2,248009, Note_on_c,0,63,0
2,248013, Note_on_c,0,66,0
2,248049, Note_on_c,0,65,86
2,248053, Note_on_c,0,57,62
2,248057, Note_on_c,0,53,83
2,248057, Note_on_c,0,63,71
2,248061, Note_on_c,0,51,71
2,248065, Note_on_c,0,45,68
2,248069, Note_on_c,0,41,54
2,248093, Note_on_c,0,41,0
2,248101, Note_on_c,0,45,0
2,248105, Note_on_c,0,53,0
2,248109, Note_on_c,0,51,0
2,248109, Note_on_c,0,57,0
2,248117, Note_on_c,0,65,0
2,248125, Note_on_c,0,63,0
2,248265, Note_on_c,0,64,82
2,248277, Note_on_c,0,52,70
2,248281, Note_on_c,0,51,72
2,248281, Note_on_c,0,57,64
2,248281, Note_on_c,0,63,60
2,248285, Note_on_c,0,45,70
2,248293, Note_on_c,0,41,51
2,248301, Note_on_c,0,52,0
2,248309, Note_on_c,0,45,0
2,248313, Note_on_c,0,57,0
2,248313, Note_on_c,0,51,0
2,248321, Note_on_c,0,64,0
2,248321, Note_on_c,0,63,0
2,248321, Note_on_c,0,41,0
2,248373, Note_on_c,0,53,85
2,248373, Note_on_c,0,65,87
2,248373, Note_on_c,0,57,70
2,248377, Note_on_c,0,51,73
2,248377, Note_on_c,0,45,67
2,248377, Note_on_c,0,41,58
2,248377, Note_on_c,0,63,56
2,248417, Note_on_c,0,41,0
2,248421, Note_on_c,0,51,0
2,248425, Note_on_c,0,53,0
2,248433, Note_on_c,0,45,0
2,248441, Note_on_c,0,65,0
2,248441, Note_on_c,0,57,0
2,248449, Note_on_c,0,63,0
2,248589, Note_on_c,0,66,74
2,248589, Note_on_c,0,54,67
2,248597, Note_on_c,0,57,62
2,248597, Note_on_c,0,51,74
2,248601, Note_on_c,0,45,71
2,248601, Note_on_c,0,63,48
2,248601, Note_on_c,0,41,59
2,248629, Note_on_c,0,41,0
2,248629, Note_on_c,0,45,0
2,248633, Note_on_c,0,63,0
2,248637, Note_on_c,0,57,0
2,248637, Note_on_c,0,54,0
2,248641, Note_on_c,0,51,0
2,248653, Note_on_c,0,66,0
2,248697, Note_on_c,0,65,86
2,248697, Note_on_c,0,57,69
2,248697, Note_on_c,0,53,82
2,248701, Note_on_c,0,63,62
2,248705, Note_on_c,0,51,79
2,248713, Note_on_c,0,45,69
2,248717, Note_on_c,0,41,58
2,248733, Note_on_c,0,45,0
2,248741, Note_on_c,0,53,0
2,248741, Note_on_c,0,41,0
2,248749, Note_on_c,0,65,0
2,248757, Note_on_c,0,51,0
2,248757, Note_on_c,0,57,0
2,248769, Note_on_c,0,63,0
2,248905, Note_on_c,0,64,78
2,248917, Note_on_c,0,57,67
2,248917, Note_on_c,0,52,67
2,248917, Note_on_c,0,51,83
2,248921, Note_on_c,0,45,73
2,248925, Note_on_c,0,41,64
2,248929, Note_on_c,0,63,34
2,248937, Note_on_c,0,52,0
2,248945, Note_on_c,0,45,0
2,248949, Note_on_c,0,63,0
2,248953, Note_on_c,0,41,0
2,248957, Note_on_c,0,57,0
2,248961, Note_on_c,0,64,0
2,248961, Note_on_c,0,51,0
2,249013, Note_on_c,0,65,87
2,249013, Note_on_c,0,53,81
2,249013, Note_on_c,0,57,68
2,249017, Note_on_c,0,63,55
2,249021, Note_on_c,0,51,71
2,249029, Note_on_c,0,45,68
2,249029, Note_on_c,0,41,55
2,249057, Note_on_c,0,41,0
2,249061, Note_on_c,0,45,0
2,249069, Note_on_c,0,53,0
2,249073, Note_on_c,0,51,0
2,249077, Note_on_c,0,57,0
2,249085, Note_on_c,0,65,0
2,249089, Note_on_c,0,63,0
2,249217, Note_on_c,0,64,74
2,249225, Note_on_c,0,52,63
2,249229, Note_on_c,0,51,68
2,249229, Note_on_c,0,45,71
2,249233, Note_on_c,0,57,60
2,249233, Note_on_c,0,41,58
2,249253, Note_on_c,0,52,0
2,249265, Note_on_c,0,57,0
2,249265, Note_on_c,0,41,0
2,249269, Note_on_c,0,51,0
2,249269, Note_on_c,0,64,0
2,249277, Note_on_c,0,45,0
2,249325, Note_on_c,0,65,79
2,249337, Note_on_c,0,45,66
2,249337, Note_on_c,0,51,71
2,249337, Note_on_c,0,41,58
2,249341, Note_on_c,0,53,56
2,249345, Note_on_c,0,57,46
2,249365, Note_on_c,0,53,0
2,249381, Note_on_c,0,65,0
2,249381, Note_on_c,0,51,0
2,249381, Note_on_c,0,57,0
2,249389, Note_on_c,0,41,0
2,249397, Note_on_c,0,45,0
2,249533, Note_on_c,0,47,66
2,249541, Note_on_c,0,45,56
2,249541, Note_on_c,0,59,73
2,249545, Note_on_c,0,41,55
2,249549, Note_on_c,0,53,56
2,249553, Note_on_c,0,57,56
2,249577, Note_on_c,0,53,0
2,249581, Note_on_c,0,41,0
2,249581, Note_on_c,0,57,0
2,249589, Note_on_c,0,45,0
2,249593, Note_on_c,0,59,0
2,249597, Note_on_c,0,47,0
2,249645, Note_on_c,0,48,82
2,249653, Note_on_c,0,60,80
2,249661, Note_on_c,0,53,60
2,249665, Note_on_c,0,41,34
2,249665, Note_on_c,0,45,32
2,249689, Note_on_c,0,41,0
2,249689, Note_on_c,0,53,0
2,249697, Note_on_c,0,45,0
2,249701, Note_on_c,0,48,0
2,249717, Note_on_c,0,60,0
2,249861, Note_on_c,0,47,63
2,249861, Note_on_c,0,45,55
2,249869, Note_on_c,0,59,61
2,249873, Note_on_c,0,41,38
2,249877, Note_on_c,0,53,39
2,249885, Note_on_c,0,57,36
2,249893, Note_on_c,0,47,0
2,249897, Note_on_c,0,59,0
2,249905, Note_on_c,0,41,0
2,249909, Note_on_c,0,45,0
2,249909, Note_on_c,0,53,0
2,249913, Note_on_c,0,57,0
2,249969, Note_on_c,0,60,75
2,249969, Note_on_c,0,53,55
2,249973, Note_on_c,0,48,74
2,249977, Note_on_c,0,41,42
2,249977, Note_on_c,0,45,26
2,249981, Note_on_c,0,59,28
2,249985, Note_on_c,0,57,21
2,250005, Note_on_c,0,57,0
2,250005, Note_on_c,0,59,0
2,250009, Note_on_c,0,41,0
2,250013, Note_on_c,0,45,0
2,250017, Note_on_c,0,60,0
2,250017, Note_on_c,0,53,0
2,250017, Note_on_c,0,48,0
2,250177, Note_on_c,0,44,65
2,250189, Note_on_c,0,41,55
2,250193, Note_on_c,0,56,67
2,250201, Note_on_c,0,48,68
2,250201, Note_on_c,0,36,35
2,250205, Note_on_c,0,53,60
2,250209, Note_on_c,0,39,23
2,250233, Note_on_c,0,39,0
2,250233, Note_on_c,0,36,0
2,250233, Note_on_c,0,48,0
2,250233, Note_on_c,0,41,0
2,250233, Note_on_c,0,53,0
2,250237, Note_on_c,0,44,0
2,250249, Note_on_c,0,56,0
2,250285, Note_on_c,0,45,82
2,250293, Note_on_c,0,57,81
2,250293, Note_on_c,0,41,46
2,250301, Note_on_c,0,48,66
2,250305, Note_on_c,0,53,49
2,250309, Note_on_c,0,36,31
2,250329, Note_on_c,0,53,0
2,250333, Note_on_c,0,48,0
2,250333, Note_on_c,0,36,0
2,250345, Note_on_c,0,45,0
2,250345, Note_on_c,0,41,0
2,250353, Note_on_c,0,57,0
2,250509, Note_on_c,0,44,67
2,250517, Note_on_c,0,41,56
2,250517, Note_on_c,0,56,69
2,250529, Note_on_c,0,48,57
2,250529, Note_on_c,0,53,54
2,250533, Note_on_c,0,36,33
2,250557, Note_on_c,0,36,0
2,250557, Note_on_c,0,48,0
2,250557, Note_on_c,0,41,0
2,250557, Note_on_c,0,53,0
2,250561, Note_on_c,0,44,0
2,250569, Note_on_c,0,56,0
2,250621, Note_on_c,0,57,70
2,250625, Note_on_c,0,45,79
2,250629, Note_on_c,0,41,40
2,250629, Note_on_c,0,48,51
2,250653, Note_on_c,0,36,21
2,250665, Note_on_c,0,41,0
2,250673, Note_on_c,0,36,0
2,250677, Note_on_c,0,48,0
2,250685, Note_on_c,0,45,0
2,250685, Note_on_c,0,57,0
2,250833, Note_on_c,0,40,74
2,250841, Note_on_c,0,52,75
2,250841, Note_on_c,0,36,61
2,250841, Note_on_c,0,48,74
2,250841, Note_on_c,0,45,68
2,250853, Note_on_c,0,33,49
2,250881, Note_on_c,0,48,0
2,250881, Note_on_c,0,36,0
2,250885, Note_on_c,0,45,0
2,250885, Note_on_c,0,33,0
2,250889, Note_on_c,0,40,0
2,250901, Note_on_c,0,52,0
2,250937, Note_on_c,0,53,77
2,250949, Note_on_c,0,45,59
2,250949, Note_on_c,0,41,64
2,250961, Note_on_c,0,48,48
2,250989, Note_on_c,0,48,0
2,250993, Note_on_c,0,41,0
2,250997, Note_on_c,0,45,0
2,251005, Note_on_c,0,53,0
2,251149, Note_on_c,0,36,63
2,251157, Note_on_c,0,40,65
2,251157, Note_on_c,0,52,71
2,251157, Note_on_c,0,45,56
2,251165, Note_on_c,0,33,46
2,251165, Note_on_c,0,48,47
2,251189, Note_on_c,0,45,0
2,251189, Note_on_c,0,40,0
2,251193, Note_on_c,0,48,0
2,251197, Note_on_c,0,33,0
2,251205, Note_on_c,0,36,0
2,251209, Note_on_c,0,52,0
2,251257, Note_on_c,0,53,69
2,251261, Note_on_c,0,41,71
2,251269, Note_on_c,0,45,46
2,251301, Note_on_c,0,45,0
2,251313, Note_on_c,0,53,0
2,251321, Note_on_c,0,41,0
2,251473, Note_on_c,0,35,68
2,251481, Note_on_c,0,47,70
2,251489, Note_on_c,0,45,55
2,251517, Note_on_c,0,45,0
2,251529, Note_on_c,0,47,0
2,251533, Note_on_c,0,35,0
2,251585, Note_on_c,0,48,77
2,251589, Note_on_c,0,36,68
2,251593, Note_on_c,0,33,49
2,251593, Note_on_c,0,45,47
2,251629, Note_on_c,0,45,0
2,251649, Note_on_c,0,48,0
2,251649, Note_on_c,0,36,0
2,251649, Note_on_c,0,33,0
2,251801, Note_on_c,0,35,65
2,251809, Note_on_c,0,47,63
2,251817, Note_on_c,0,45,48
2,251817, Note_on_c,0,33,43
2,251845, Note_on_c,0,45,0
2,251849, Note_on_c,0,33,0
2,251849, Note_on_c,0,47,0
2,251861, Note_on_c,0,35,0
2,251917, Note_on_c,0,48,74
2,251917, Note_on_c,0,45,64
2,251925, Note_on_c,0,36,68
2,251933, Note_on_c,0,33,55
2,251969, Note_on_c,0,48,0
2,251973, Note_on_c,0,45,0
2,251977, Note_on_c,0,36,0
2,251985, Note_on_c,0,33,0
2,252121, Note_on_c,0,44,61
2,252121, Note_on_c,0,32,61
2,252169, Note_on_c,0,32,0
2,252173, Note_on_c,0,44,0
2,252229, Note_on_c,0,45,78
2,252233, Note_on_c,0,33,53
2,252289, Note_on_c,0,45,0
2,252293, Note_on_c,0,33,0
2,252453, Note_on_c,0,44,57
2,252453, Note_on_c,0,32,57
2,252497, Note_on_c,0,32,0
2,252517, Note_on_c,0,44,0
2,252553, Note_on_c,0,33,52
2,252553, Note_on_c,0,45,65
2,252601, Note_on_c,0,33,0
2,252605, Note_on_c,0,45,0
2,252713, Note_on_c,0,28,57
2,252757, Note_on_c,0,28,0
2,252793, Note_on_c,0,40,45
2,252833, Note_on_c,0,40,0
2,252873, Note_on_c,0,29,58
2,252921, Note_on_c,0,29,0
2,252965, Note_on_c,0,41,51
2,253001, Note_on_c,0,41,0
2,253025, Note_on_c,0,28,62
2,253081, Note_on_c,0,28,0
2,253117, Note_on_c,0,40,58
2,253173, Note_on_c,0,40,0
2,253177, Note_on_c,0,29,59
2,253221, Note_on_c,0,29,0
2,253265, Note_on_c,0,41,57
2,253297, Note_on_c,0,41,0
2,253329, Note_on_c,0,32,69
2,253389, Note_on_c,0,32,0
2,253417, Note_on_c,0,44,62
2,253473, Note_on_c,0,44,0
2,253485, Note_on_c,0,33,63
2,253541, Note_on_c,0,33,0
2,253573, Note_on_c,0,45,69
2,253613, Note_on_c,0,45,0
2,253633, Note_on_c,0,32,75
2,253701, Note_on_c,0,32,0
2,253721, Note_on_c,0,44,67
2,253781, Note_on_c,0,44,0
2,253785, Note_on_c,0,33,73
2,253837, Note_on_c,0,33,0
2,253885, Note_on_c,0,45,60
2,253921, Note_on_c,0,45,0
2,253941, Note_on_c,0,35,81
2,253993, Note_on_c,0,35,0
2,254025, Note_on_c,0,47,77
2,254081, Note_on_c,0,47,0
2,254097, Note_on_c,0,36,73
2,254153, Note_on_c,0,36,0
2,254181, Note_on_c,0,48,83
2,254233, Note_on_c,0,48,0
2,254245, Note_on_c,0,35,82
2,254313, Note_on_c,0,35,0
2,254341, Note_on_c,0,47,82
2,254397, Note_on_c,0,36,75
2,254401, Note_on_c,0,47,0
2,254449, Note_on_c,0,36,0
2,254481, Note_on_c,0,48,71
2,254509, Note_on_c,0,48,0
2,254549, Note_on_c,0,40,82
2,254601, Note_on_c,0,40,0
2,254625, Note_on_c,0,52,74
2,254657, Note_on_c,0,52,0
2,254701, Note_on_c,0,41,76
2,254753, Note_on_c,0,41,0
2,254777, Note_on_c,0,53,73
2,254829, Note_on_c,0,53,0
2,254849, Note_on_c,0,40,81
2,254913, Note_on_c,0,40,0
2,254921, Note_on_c,0,52,75
2,254985, Note_on_c,0,52,0
2,254985, Note_on_c,0,41,74
2,255041, Note_on_c,0,41,0
2,255057, Note_on_c,0,53,71
2,255129, Note_on_c,0,53,0
2,255149, Note_on_c,0,32,79
2,255209, Note_on_c,0,32,0
2,255233, Note_on_c,0,56,64
2,255237, Note_on_c,0,44,54
2,255269, Note_on_c,0,44,0
2,255277, Note_on_c,0,56,0
2,255305, Note_on_c,0,33,79
2,255357, Note_on_c,0,33,0
2,255385, Note_on_c,0,45,67
2,255389, Note_on_c,0,57,61
2,255413, Note_on_c,0,45,0
2,255417, Note_on_c,0,57,0
2,255457, Note_on_c,0,32,74
2,255525, Note_on_c,0,32,0
2,255525, Note_on_c,0,44,62
2,255529, Note_on_c,0,56,58
2,255581, Note_on_c,0,44,0
2,255589, Note_on_c,0,56,0
2,255605, Note_on_c,0,33,80
2,255657, Note_on_c,0,33,0
2,255681, Note_on_c,0,45,70
2,255681, Note_on_c,0,57,73
2,255709, Note_on_c,0,45,0
2,255729, Note_on_c,0,57,0
2,255761, Note_on_c,0,35,84
2,255821, Note_on_c,0,35,0
2,255821, Note_on_c,0,47,62
2,255821, Note_on_c,0,59,75
2,255869, Note_on_c,0,47,0
2,255873, Note_on_c,0,59,0
2,255913, Note_on_c,0,36,77
2,255969, Note_on_c,0,36,0
2,255977, Note_on_c,0,60,74
2,255977, Note_on_c,0,48,66
2,256025, Note_on_c,0,48,0
2,256025, Note_on_c,0,60,0
2,256069, Note_on_c,0,35,82
2,256137, Note_on_c,0,35,0
2,256137, Note_on_c,0,59,76
2,256137, Note_on_c,0,47,68
2,256177, Note_on_c,0,47,0
2,256181, Note_on_c,0,59,0
2,256209, Note_on_c,0,36,79
2,256273, Note_on_c,0,36,0
2,256289, Note_on_c,0,48,62
2,256293, Note_on_c,0,60,76
2,256317, Note_on_c,0,48,0
2,256337, Note_on_c,0,60,0
2,256373, Note_on_c,0,40,84
2,256421, Note_on_c,0,40,0
2,256441, Note_on_c,0,64,81
2,256445, Note_on_c,0,52,73
2,256481, Note_on_c,0,52,0
2,256489, Note_on_c,0,64,0
2,256517, Note_on_c,0,41,77
2,256569, Note_on_c,0,41,0
2,256589, Note_on_c,0,53,71
2,256589, Note_on_c,0,65,74
2,256637, Note_on_c,0,65,0
2,256637, Note_on_c,0,53,0
2,256669, Note_on_c,0,40,83
2,256737, Note_on_c,0,40,0
2,256737, Note_on_c,0,64,80
2,256737, Note_on_c,0,52,70
2,256765, Note_on_c,0,52,0
2,256785, Note_on_c,0,64,0
2,256813, Note_on_c,0,41,77
2,256869, Note_on_c,0,41,0
2,256885, Note_on_c,0,65,77
2,256885, Note_on_c,0,53,72
2,256929, Note_on_c,0,53,0
2,256933, Note_on_c,0,65,0
2,256961, Note_on_c,0,44,79
2,257029, Note_on_c,0,44,0
2,257033, Note_on_c,0,68,65
2,257033, Note_on_c,0,56,65
2,257093, Note_on_c,0,56,0
2,257093, Note_on_c,0,68,0
2,257113, Note_on_c,0,45,89
2,257161, Note_on_c,0,45,0
2,257189, Note_on_c,0,69,73
2,257189, Note_on_c,0,57,59
2,257217, Note_on_c,0,57,0
2,257217, Note_on_c,0,69,0
2,257261, Note_on_c,0,44,74
2,257329, Note_on_c,0,68,66
2,257329, Note_on_c,0,56,61
2,257337, Note_on_c,0,44,0
2,257385, Note_on_c,0,56,0
2,257389, Note_on_c,0,68,0
2,257397, Note_on_c,0,45,85
2,257453, Note_on_c,0,45,0
2,257477, Note_on_c,0,69,81
2,257477, Note_on_c,0,57,68
2,257521, Note_on_c,0,57,0
2,257529, Note_on_c,0,69,0
2,257553, Note_on_c,0,47,96
2,257613, Note_on_c,0,47,0
2,257633, Note_on_c,0,59,55
2,257633, Note_on_c,0,71,73
2,257673, Note_on_c,0,71,0
2,257673, Note_on_c,0,59,0
2,257713, Note_on_c,0,48,86
2,257773, Note_on_c,0,48,0
2,257781, Note_on_c,0,72,88
2,257785, Note_on_c,0,60,80
2,257837, Note_on_c,0,60,0
2,257837, Note_on_c,0,72,0
2,257861, Note_on_c,0,47,88
2,257933, Note_on_c,0,47,0
2,257933, Note_on_c,0,71,82
2,257937, Note_on_c,0,59,70
2,257981, Note_on_c,0,59,0
2,257989, Note_on_c,0,71,0
2,258009, Note_on_c,0,48,83
2,258069, Note_on_c,0,48,0
2,258081, Note_on_c,0,72,84
2,258085, Note_on_c,0,60,74
2,258129, Note_on_c,0,60,0
2,258133, Note_on_c,0,72,0
2,258161, Note_on_c,0,52,76
2,258217, Note_on_c,0,52,0
2,258237, Note_on_c,0,76,86
2,258241, Note_on_c,0,64,74
2,258277, Note_on_c,0,64,0
2,258285, Note_on_c,0,76,0
2,258313, Note_on_c,0,53,79
2,258377, Note_on_c,0,53,0
2,258377, Note_on_c,0,77,84
2,258385, Note_on_c,0,65,70
2,258429, Note_on_c,0,65,0
2,258429, Note_on_c,0,77,0
2,258469, Note_on_c,0,52,88
2,258521, Note_on_c,0,76,82
2,258529, Note_on_c,0,64,68
2,258541, Note_on_c,0,52,0
2,258565, Note_on_c,0,64,0
2,258573, Note_on_c,0,76,0
2,258613, Note_on_c,0,53,81
2,258677, Note_on_c,0,53,0
2,258685, Note_on_c,0,77,85
2,258685, Note_on_c,0,65,70
2,258729, Note_on_c,0,65,0
2,258737, Note_on_c,0,77,0
2,258757, Note_on_c,0,56,77
2,258825, Note_on_c,0,56,0
2,258833, Note_on_c,0,68,68
2,258833, Note_on_c,0,80,75
2,258897, Note_on_c,0,68,0
2,258905, Note_on_c,0,80,0
2,258913, Note_on_c,0,57,82
2,258965, Note_on_c,0,57,0
2,258985, Note_on_c,0,81,79
2,258989, Note_on_c,0,69,69
2,259025, Note_on_c,0,69,0
2,259041, Note_on_c,0,81,0
2,259061, Note_on_c,0,56,73
2,259129, Note_on_c,0,80,70
2,259133, Note_on_c,0,68,65
2,259137, Note_on_c,0,56,0
2,259189, Note_on_c,0,68,0
2,259197, Note_on_c,0,80,0
2,259205, Note_on_c,0,57,76
2,259249, Note_on_c,0,57,0
2,259277, Note_on_c,0,81,82
2,259281, Note_on_c,0,69,71
2,259321, Note_on_c,0,69,0
2,259329, Note_on_c,0,81,0
2,259353, Note_on_c,0,59,87
2,259417, Note_on_c,0,59,0
2,259437, Note_on_c,0,71,58
2,259445, Note_on_c,0,83,71
2,259469, Note_on_c,0,71,0
2,259489, Note_on_c,0,83,0
2,259509, Note_on_c,0,60,80
2,259581, Note_on_c,0,60,0
2,259581, Note_on_c,0,84,82
2,259589, Note_on_c,0,72,79
2,259629, Note_on_c,0,84,0
2,259633, Note_on_c,0,72,0
2,259661, Note_on_c,0,59,83
2,259729, Note_on_c,0,83,78
2,259729, Note_on_c,0,71,70
2,259745, Note_on_c,0,59,0
2,259781, Note_on_c,0,71,0
2,259785, Note_on_c,0,83,0
2,259817, Note_on_c,0,60,79
2,259873, Note_on_c,0,84,85
2,259877, Note_on_c,0,72,77
2,259881, Note_on_c,0,60,0
2,259917, Note_on_c,0,72,0
2,259929, Note_on_c,0,84,0
2,259965, Note_on_c,0,64,88
2,260029, Note_on_c,0,64,0
2,260037, Note_on_c,0,88,83
2,260041, Note_on_c,0,76,72
2,260073, Note_on_c,0,76,0
2,260085, Note_on_c,0,88,0
2,260125, Note_on_c,0,65,74
2,260193, Note_on_c,0,89,80
2,260197, Note_on_c,0,65,0
2,260197, Note_on_c,0,77,72
2,260237, Note_on_c,0,89,0
2,260245, Note_on_c,0,77,0
2,260277, Note_on_c,0,59,77
2,260357, Note_on_c,0,59,0
2,260361, Note_on_c,0,83,79
2,260369, Note_on_c,0,71,63
2,260389, Note_on_c,0,71,0
2,260405, Note_on_c,0,83,0
2,260425, Note_on_c,0,60,82
2,260489, Note_on_c,0,60,0
2,260497, Note_on_c,0,84,82
2,260497, Note_on_c,0,72,79
2,260537, Note_on_c,0,72,0
2,260545, Note_on_c,0,84,0
2,260577, Note_on_c,0,64,89
2,260645, Note_on_c,0,64,0
2,260649, Note_on_c,0,88,84
2,260653, Note_on_c,0,76,70
2,260693, Note_on_c,0,76,0
2,260701, Note_on_c,0,88,0
2,260737, Note_on_c,0,65,74
2,260797, Note_on_c,0,89,79
2,260805, Note_on_c,0,77,66
2,260825, Note_on_c,0,65,0
2,260861, Note_on_c,0,77,0
2,260861, Note_on_c,0,89,0
2,260885, Note_on_c,0,59,79
2,260965, Note_on_c,0,59,0
2,260969, Note_on_c,0,83,80
2,260973, Note_on_c,0,71,64
2,261001, Note_on_c,0,71,0
2,261021, Note_on_c,0,83,0
2,261025, Note_on_c,0,60,84
2,261093, Note_on_c,0,60,0
2,261109, Note_on_c,0,84,77
2,261113, Note_on_c,0,72,74
2,261137, Note_on_c,0,72,0
2,261157, Note_on_c,0,84,0
2,261181, Note_on_c,0,64,87
2,261253, Note_on_c,0,88,84
2,261257, Note_on_c,0,64,0
2,261261, Note_on_c,0,76,57
2,261285, Note_on_c,0,76,0
2,261301, Note_on_c,0,88,0
2,261337, Note_on_c,0,65,82
2,261409, Note_on_c,0,89,63
2,261425, Note_on_c,0,65,0
2,261425, Note_on_c,0,88,50
2,261429, Note_on_c,0,77,35
2,261445, Note_on_c,0,89,0
2,261449, Note_on_c,0,88,0
2,261453, Note_on_c,0,77,0
2,261493, Note_on_c,0,62,86
2,261557, Note_on_c,0,86,80
2,261565, Note_on_c,0,74,65
2,261573, Note_on_c,0,62,0
2,261585, Note_on_c,0,74,0
2,261605, Note_on_c,0,86,0
2,261641, Note_on_c,0,63,78
2,261693, Note_on_c,0,87,70
2,261701, Note_on_c,0,75,62
2,261713, Note_on_c,0,63,0
2,261737, Note_on_c,0,75,0
2,261753, Note_on_c,0,87,0
2,261793, Note_on_c,0,60,83
2,261853, Note_on_c,0,84,79
2,261857, Note_on_c,0,72,67
2,261861, Note_on_c,0,60,0
2,261885, Note_on_c,0,72,0
2,261905, Note_on_c,0,84,0
2,261941, Note_on_c,0,61,71
2,261997, Note_on_c,0,85,69
2,262001, Note_on_c,0,73,62
2,262013, Note_on_c,0,61,0
2,262053, Note_on_c,0,73,0
2,262053, Note_on_c,0,85,0
2,262085, Note_on_c,0,59,77
2,262149, Note_on_c,0,83,72
2,262149, Note_on_c,0,71,63
2,262157, Note_on_c,0,59,0
2,262181, Note_on_c,0,71,0
2,262193, Note_on_c,0,83,0
2,262233, Note_on_c,0,60,77
2,262285, Note_on_c,0,60,0
2,262301, Note_on_c,0,84,78
2,262305, Note_on_c,0,72,62
2,262341, Note_on_c,0,72,0
2,262357, Note_on_c,0,84,0
2,262389, Note_on_c,0,58,71
2,262449, Note_on_c,0,58,0
2,262461, Note_on_c,0,82,64
2,262465, Note_on_c,0,70,61
2,262517, Note_on_c,0,70,0
2,262529, Note_on_c,0,82,0
2,262537, Note_on_c,0,60,78
2,262597, Note_on_c,0,60,0
2,262613, Note_on_c,0,84,82
2,262617, Note_on_c,0,72,67
2,262645, Note_on_c,0,72,0
2,262665, Note_on_c,0,84,0
2,262681, Note_on_c,0,61,80
2,262749, Note_on_c,0,61,0
2,262757, Note_on_c,0,85,68
2,262761, Note_on_c,0,73,63
2,262817, Note_on_c,0,73,0
2,262829, Note_on_c,0,85,0
2,262837, Note_on_c,0,60,82
2,262889, Note_on_c,0,60,0
2,262909, Note_on_c,0,84,80
2,262917, Note_on_c,0,72,67
2,262949, Note_on_c,0,72,0
2,262957, Note_on_c,0,84,0
2,262985, Note_on_c,0,63,82
2,263045, Note_on_c,0,63,0
2,263057, Note_on_c,0,87,77
2,263057, Note_on_c,0,75,71
2,263109, Note_on_c,0,75,0
2,263113, Note_on_c,0,87,0
2,263133, Note_on_c,0,61,81
2,263201, Note_on_c,0,61,0
2,263205, Note_on_c,0,85,74
2,263205, Note_on_c,0,73,63
2,263257, Note_on_c,0,73,0
2,263265, Note_on_c,0,85,0
2,263285, Note_on_c,0,60,74
2,263341, Note_on_c,0,84,81
2,263345, Note_on_c,0,60,0
2,263349, Note_on_c,0,72,70
2,263385, Note_on_c,0,72,0
2,263397, Note_on_c,0,84,0
2,263441, Note_on_c,0,58,67
2,263485, Note_on_c,0,58,0
2,263497, Note_on_c,0,82,72
2,263501, Note_on_c,0,70,64
2,263549, Note_on_c,0,70,0
2,263553, Note_on_c,0,82,0
2,263585, Note_on_c,0,56,77
2,263641, Note_on_c,0,56,0
2,263657, Note_on_c,0,80,71
2,263657, Note_on_c,0,68,64
2,263725, Note_on_c,0,68,0
2,263737, Note_on_c,0,80,0
2,263741, Note_on_c,0,57,68
2,263801, Note_on_c,0,57,0
2,263817, Note_on_c,0,81,70
2,263825, Note_on_c,0,69,61
2,263853, Note_on_c,0,69,0
2,263853, Note_on_c,0,81,0
2,263897, Note_on_c,0,52,76
2,263961, Note_on_c,0,52,0
2,263973, Note_on_c,0,76,81
2,263973, Note_on_c,0,64,66
2,263997, Note_on_c,0,76,0
2,264001, Note_on_c,0,64,0
2,264049, Note_on_c,0,53,86
2,264109, Note_on_c,0,53,0
2,264113, Note_on_c,0,65,67
2,264117, Note_on_c,0,77,81
2,264145, Note_on_c,0,65,0
2,264161, Note_on_c,0,77,0
2,264201, Note_on_c,0,56,85
2,264265, Note_on_c,0,56,0
2,264265, Note_on_c,0,68,69
2,264265, Note_on_c,0,80,76
2,264273, Control_c,0,64,24
2,264281, Control_c,0,64,40
2,264329, Note_on_c,0,68,0
2,264337, Note_on_c,0,80,0
2,264353, Note_on_c,0,57,69
2,264361, Control_c,0,64,0
2,264405, Note_on_c,0,57,0
2,264421, Note_on_c,0,81,76
2,264429, Note_on_c,0,69,63
2,264457, Note_on_c,0,69,0
2,264465, Note_on_c,0,81,0
2,264509, Note_on_c,0,52,75
2,264573, Note_on_c,0,52,0
2,264573, Note_on_c,0,76,82
2,264577, Note_on_c,0,64,67
2,264601, Note_on_c,0,64,0
2,264613, Note_on_c,0,76,0
2,264661, Note_on_c,0,53,82
2,264713, Note_on_c,0,53,0
2,264713, Note_on_c,0,65,70
2,264717, Note_on_c,0,77,82
2,264757, Note_on_c,0,65,0
2,264761, Note_on_c,0,77,0
2,264813, Note_on_c,0,52,78
2,264869, Note_on_c,0,76,84
2,264869, Note_on_c,0,64,70
2,264873, Note_on_c,0,52,0
2,264901, Note_on_c,0,64,0
2,264917, Note_on_c,0,76,0
2,264949, Note_on_c,0,53,82
2,265009, Note_on_c,0,77,82
2,265013, Note_on_c,0,53,0
2,265013, Note_on_c,0,65,67
2,265049, Note_on_c,0,65,0
2,265061, Note_on_c,0,77,0
2,265093, Note_on_c,0,58,89
2,265161, Note_on_c,0,82,78
2,265165, Note_on_c,0,58,0
2,265169, Note_on_c,0,70,64
2,265205, Note_on_c,0,70,0
2,265209, Note_on_c,0,82,0
2,265241, Note_on_c,0,53,80
2,265313, Note_on_c,0,77,86
2,265317, Note_on_c,0,53,0
2,265317, Note_on_c,0,65,69
2,265353, Note_on_c,0,65,0
2,265361, Note_on_c,0,77,0
2,265393, Note_on_c,0,51,85
2,265469, Note_on_c,0,51,0
2,265469, Note_on_c,0,63,69
2,265469, Note_on_c,0,75,69
2,265517, Note_on_c,0,63,0
2,265521, Note_on_c,0,75,0
2,265553, Note_on_c,0,49,69
2,265621, Note_on_c,0,49,0
2,265621, Note_on_c,0,73,72
2,265621, Note_on_c,0,61,67
2,265673, Note_on_c,0,61,0
2,265685, Note_on_c,0,48,78
2,265689, Note_on_c,0,73,0
2,265753, Note_on_c,0,48,0
2,265769, Note_on_c,0,72,74
2,265773, Note_on_c,0,60,49
2,265809, Note_on_c,0,72,0
2,265817, Note_on_c,0,60,0
2,265837, Note_on_c,0,46,77
2,265909, Note_on_c,0,58,60
2,265913, Note_on_c,0,70,62
2,265917, Note_on_c,0,46,0
2,265965, Note_on_c,0,58,0
2,265981, Note_on_c,0,70,0
2,265985, Note_on_c,0,48,85
2,266057, Note_on_c,0,48,0
2,266065, Note_on_c,0,60,67
2,266073, Note_on_c,0,72,74
2,266117, Note_on_c,0,72,0
2,266117, Note_on_c,0,60,0
2,266149, Note_on_c,0,49,80
2,266209, Note_on_c,0,49,0
2,266229, Note_on_c,0,73,69
2,266229, Note_on_c,0,61,56
2,266277, Note_on_c,0,61,0
2,266285, Note_on_c,0,73,0
2,266301, Note_on_c,0,47,81
2,266369, Note_on_c,0,47,0
2,266377, Note_on_c,0,59,53
2,266381, Note_on_c,0,71,69
2,266405, Note_on_c,0,59,0
2,266413, Note_on_c,0,71,0
2,266453, Note_on_c,0,48,75
2,266517, Note_on_c,0,48,0
2,266517, Note_on_c,0,72,74
2,266521, Note_on_c,0,60,63
2,266549, Note_on_c,0,60,0
2,266565, Note_on_c,0,72,0
2,266601, Note_on_c,0,49,74
2,266661, Note_on_c,0,73,69
2,266661, Note_on_c,0,61,60
2,266669, Note_on_c,0,49,0
2,266721, Note_on_c,0,61,0
2,266725, Note_on_c,0,73,0
2,266749, Note_on_c,0,48,87
2,266817, Note_on_c,0,48,0
2,266821, Note_on_c,0,72,81
2,266821, Note_on_c,0,60,68
2,266853, Note_on_c,0,60,0
2,266869, Note_on_c,0,72,0
2,266913, Note_on_c,0,54,79
2,266977, Note_on_c,0,54,0
2,266981, Note_on_c,0,66,61
2,266985, Note_on_c,0,78,67
2,267037, Note_on_c,0,66,0
2,267041, Note_on_c,0,78,0
2,267065, Note_on_c,0,53,68
2,267125, Note_on_c,0,53,0
2,267137, Note_on_c,0,65,64
2,267141, Note_on_c,0,77,82
2,267169, Note_on_c,0,65,0
2,267189, Note_on_c,0,77,0
2,267225, Note_on_c,0,58,88
2,267269, Control_c,0,64,24
2,267277, Control_c,0,64,56
2,267281, Note_on_c,0,58,0
2,267293, Control_c,0,64,72
2,267297, Note_on_c,0,70,71
2,267297, Note_on_c,0,82,70
2,267345, Note_on_c,0,70,0
2,267361, Note_on_c,0,82,0
2,267369, Control_c,0,64,56
2,267381, Note_on_c,0,60,78
2,267381, Control_c,0,64,40
2,267397, Control_c,0,64,24
2,267409, Control_c,0,64,0
2,267445, Note_on_c,0,60,0
2,267453, Note_on_c,0,84,82
2,267457, Note_on_c,0,72,67
2,267481, Note_on_c,0,72,0
2,267501, Note_on_c,0,84,0
2,267537, Note_on_c,0,61,77
2,267589, Note_on_c,0,73,73
2,267589, Note_on_c,0,85,71
2,267593, Note_on_c,0,61,0
2,267645, Note_on_c,0,73,0
2,267657, Note_on_c,0,85,0
2,267685, Note_on_c,0,60,79
2,267737, Note_on_c,0,60,0
2,267745, Note_on_c,0,84,84
2,267749, Note_on_c,0,72,74
2,267781, Note_on_c,0,72,0
2,267789, Note_on_c,0,84,0
2,267829, Note_on_c,0,63,81
2,267897, Note_on_c,0,63,0
2,267897, Note_on_c,0,87,80
2,267901, Note_on_c,0,75,73
2,267941, Note_on_c,0,75,0
2,267945, Note_on_c,0,87,0
2,267981, Note_on_c,0,61,80
2,268041, Note_on_c,0,61,0
2,268045, Note_on_c,0,73,71
2,268045, Note_on_c,0,85,75
2,268101, Note_on_c,0,73,0
2,268105, Note_on_c,0,85,0
2,268121, Note_on_c,0,60,74
2,268193, Note_on_c,0,60,0
2,268197, Note_on_c,0,84,81
2,268197, Note_on_c,0,72,70
2,268229, Note_on_c,0,72,0
2,268249, Note_on_c,0,84,0
2,268285, Note_on_c,0,58,71
2,268333, Note_on_c,0,58,0
2,268345, Note_on_c,0,82,72
2,268349, Note_on_c,0,70,65
2,268393, Note_on_c,0,70,0
2,268397, Note_on_c,0,82,0
2,268433, Note_on_c,0,56,85
2,268497, Note_on_c,0,56,0
2,268497, Note_on_c,0,80,69
2,268497, Note_on_c,0,68,68
2,268569, Note_on_c,0,68,0
2,268577, Note_on_c,0,80,0
2,268597, Note_on_c,0,57,57
2,268653, Note_on_c,0,57,0
2,268661, Note_on_c,0,81,73
2,268669, Note_on_c,0,69,56
2,268697, Note_on_c,0,69,0
2,268701, Note_on_c,0,81,0
2,268741, Note_on_c,0,52,73
2,268797, Note_on_c,0,52,0
2,268809, Note_on_c,0,76,79
2,268809, Note_on_c,0,64,63
2,268833, Note_on_c,0,64,0
2,268833, Note_on_c,0,76,0
2,268881, Note_on_c,0,53,85
2,268941, Note_on_c,0,65,62
2,268945, Note_on_c,0,53,0
2,268945, Note_on_c,0,77,78
2,268981, Note_on_c,0,65,0
2,268993, Note_on_c,0,77,0
2,269045, Note_on_c,0,56,81
2,269101, Note_on_c,0,56,0
2,269101, Note_on_c,0,68,64
2,269101, Note_on_c,0,80,69
2,269161, Note_on_c,0,68,0
2,269165, Note_on_c,0,80,0
2,269197, Note_on_c,0,57,63
2,269253, Note_on_c,0,57,0
2,269253, Note_on_c,0,81,74
2,269261, Note_on_c,0,69,63
2,269289, Note_on_c,0,69,0
2,269293, Note_on_c,0,81,0
2,269345, Note_on_c,0,52,77
2,269401, Note_on_c,0,52,0
2,269409, Note_on_c,0,76,82
2,269413, Note_on_c,0,64,66
2,269437, Note_on_c,0,64,0
2,269449, Note_on_c,0,76,0
2,269497, Note_on_c,0,53,85
2,269549, Note_on_c,0,77,84
2,269553, Note_on_c,0,65,71
2,269557, Note_on_c,0,53,0
2,269593, Note_on_c,0,65,0
2,269593, Note_on_c,0,77,0
2,269649, Note_on_c,0,52,80
2,269705, Note_on_c,0,52,0
2,269709, Note_on_c,0,76,84
2,269713, Note_on_c,0,64,72
2,269749, Note_on_c,0,64,0
2,269761, Note_on_c,0,76,0
2,269793, Note_on_c,0,53,86
2,269853, Note_on_c,0,53,0
2,269857, Note_on_c,0,77,86
2,269857, Note_on_c,0,65,66
2,269889, Note_on_c,0,65,0
2,269905, Note_on_c,0,77,0
2,269941, Note_on_c,0,58,88
2,269969, Control_c,0,64,24
2,269981, Control_c,0,64,56
2,269993, Control_c,0,64,72
2,270005, Note_on_c,0,58,0
2,270005, Control_c,0,64,88
2,270013, Note_on_c,0,82,84
2,270013, Note_on_c,0,70,79
2,270041, Note_on_c,0,70,0
2,270057, Note_on_c,0,82,0
2,270069, Control_c,0,64,72
2,270085, Control_c,0,64,56
2,270089, Note_on_c,0,53,77
2,270097, Control_c,0,64,40
2,270109, Control_c,0,64,24
2,270121, Control_c,0,64,0
2,270161, Note_on_c,0,53,0
2,270161, Note_on_c,0,77,85
2,270161, Note_on_c,0,65,74
2,270193, Note_on_c,0,65,0
2,270197, Note_on_c,0,77,0
2,270233, Note_on_c,0,51,78
2,270309, Note_on_c,0,75,73
2,270309, Note_on_c,0,63,73
2,270317, Note_on_c,0,51,0
2,270361, Note_on_c,0,63,0
2,270361, Note_on_c,0,75,0
2,270401, Note_on_c,0,49,60
2,270445, Note_on_c,0,49,0
2,270461, Note_on_c,0,73,70
2,270465, Note_on_c,0,61,64
2,270505, Note_on_c,0,61,0
2,270525, Note_on_c,0,73,0
2,270533, Note_on_c,0,48,76
2,270589, Note_on_c,0,48,0
2,270613, Note_on_c,0,72,70
2,270617, Note_on_c,0,60,56
2,270637, Note_on_c,0,72,0
2,270645, Note_on_c,0,60,0
2,270689, Note_on_c,0,46,71
2,270753, Note_on_c,0,58,54
2,270753, Note_on_c,0,70,56
2,270761, Note_on_c,0,46,0
2,270785, Note_on_c,0,58,0
2,270817, Note_on_c,0,70,0
2,270837, Note_on_c,0,48,65
2,270901, Note_on_c,0,60,61
2,270905, Note_on_c,0,48,0
2,270905, Note_on_c,0,72,62
2,270929, Note_on_c,0,60,0
2,270949, Note_on_c,0,72,0
2,270977, Note_on_c,0,49,83
2,271045, Note_on_c,0,61,65
2,271045, Note_on_c,0,73,76
2,271061, Note_on_c,0,49,0
2,271089, Note_on_c,0,61,0
2,271105, Note_on_c,0,73,0
2,271129, Note_on_c,0,53,90
2,271157, Control_c,0,64,24
2,271169, Control_c,0,64,56
2,271181, Control_c,0,64,88
2,271193, Control_c,0,64,127
2,271201, Note_on_c,0,53,0
2,271205, Note_on_c,0,77,85
2,271209, Note_on_c,0,65,74
2,271249, Note_on_c,0,65,0
2,271249, Note_on_c,0,77,0
2,271289, Note_on_c,0,49,82
2,271297, Control_c,0,64,88
2,271309, Control_c,0,64,72
2,271321, Control_c,0,64,56
2,271333, Control_c,0,64,40
2,271345, Note_on_c,0,49,0
2,271349, Note_on_c,0,73,74
2,271349, Note_on_c,0,61,61
2,271349, Control_c,0,64,24
2,271365, Control_c,0,64,0
2,271385, Note_on_c,0,61,0
2,271401, Note_on_c,0,73,0
2,271437, Note_on_c,0,48,74
2,271497, Note_on_c,0,48,0
2,271505, Note_on_c,0,72,71
2,271513, Note_on_c,0,60,58
2,271541, Note_on_c,0,60,0
2,271541, Note_on_c,0,72,0
2,271593, Note_on_c,0,46,73
2,271649, Note_on_c,0,46,0
2,271661, Note_on_c,0,70,62
2,271661, Note_on_c,0,58,51
2,271697, Note_on_c,0,58,0
2,271697, Note_on_c,0,70,0
2,271749, Note_on_c,0,42,64
2,271809, Note_on_c,0,42,0
2,271813, Note_on_c,0,66,63
2,271821, Note_on_c,0,54,42
2,271853, Note_on_c,0,54,0
2,271877, Note_on_c,0,66,0
2,271889, Note_on_c,0,41,63
2,271953, Note_on_c,0,41,0
2,271961, Note_on_c,0,65,77
2,271969, Note_on_c,0,53,64
2,271997, Note_on_c,0,53,0
2,272013, Note_on_c,0,65,0
2,272045, Note_on_c,0,40,75
2,272109, Note_on_c,0,52,66
2,272109, Note_on_c,0,64,78
2,272113, Note_on_c,0,40,0
2,272137, Note_on_c,0,52,0
2,272145, Note_on_c,0,64,0
2,272189, Note_on_c,0,41,81
2,272253, Note_on_c,0,41,0
2,272261, Note_on_c,0,53,68
2,272261, Note_on_c,0,65,62
2,272289, Note_on_c,0,65,0
2,272293, Note_on_c,0,53,0
2,272337, Note_on_c,0,46,91
2,272393, Control_c,0,64,72
2,272409, Note_on_c,0,46,0
2,272409, Control_c,0,64,127
2,272417, Note_on_c,0,70,73
2,272417, Note_on_c,0,58,64
2,272441, Note_on_c,0,58,0
2,272457, Note_on_c,0,70,0
2,272485, Note_on_c,0,41,79
2,272565, Note_on_c,0,41,0
2,272565, Note_on_c,0,65,75
2,272565, Note_on_c,0,53,68
2,272577, Control_c,0,64,104
2,272585, Note_on_c,0,65,0
2,272593, Note_on_c,0,53,0
2,272601, Control_c,0,64,88
2,272613, Control_c,0,64,72
2,272629, Control_c,0,64,56
2,272641, Control_c,0,64,40
2,272645, Note_on_c,0,39,73
2,272653, Control_c,0,64,24
2,272665, Control_c,0,64,0
2,272713, Note_on_c,0,63,69
2,272721, Note_on_c,0,39,0
2,272721, Note_on_c,0,51,71
2,272757, Note_on_c,0,51,0
2,272769, Note_on_c,0,63,0
2,272797, Note_on_c,0,37,60
2,272857, Note_on_c,0,61,65
2,272865, Note_on_c,0,37,0
2,272865, Note_on_c,0,49,61
2,272901, Note_on_c,0,49,0
2,272925, Note_on_c,0,61,0
2,272933, Note_on_c,0,36,70
2,272997, Note_on_c,0,60,73
2,273005, Note_on_c,0,48,67
2,273009, Note_on_c,0,36,0
2,273049, Note_on_c,0,48,0
2,273057, Note_on_c,0,60,0
2,273085, Note_on_c,0,34,75
2,273121, Control_c,0,64,24
2,273141, Note_on_c,0,58,73
2,273145, Note_on_c,0,46,70
2,273157, Note_on_c,0,34,0
2,273185, Note_on_c,0,46,0
2,273209, Control_c,0,64,0
2,273213, Note_on_c,0,58,0
2,273229, Note_on_c,0,33,76
2,273229, Note_on_c,0,45,70
2,273297, Note_on_c,0,45,0
2,273297, Note_on_c,0,57,69
2,273301, Note_on_c,0,33,0
2,273373, Note_on_c,0,57,0
2,273373, Note_on_c,0,34,82
2,273373, Note_on_c,0,46,70
2,273441, Note_on_c,0,46,0
2,273441, Note_on_c,0,34,0
2,273449, Note_on_c,0,58,76
2,273525, Note_on_c,0,58,0
2,273533, Note_on_c,0,30,68
2,273533, Note_on_c,0,42,68
2,273593, Note_on_c,0,30,0
2,273601, Note_on_c,0,42,0
2,273613, Note_on_c,0,54,74
2,273689, Note_on_c,0,41,74
2,273689, Note_on_c,0,29,68
2,273693, Note_on_c,0,54,0
2,273725, Note_on_c,0,41,0
2,273757, Note_on_c,0,29,0
2,273761, Note_on_c,0,53,79
2,273829, Note_on_c,0,53,0
2,273853, Note_on_c,0,40,78
2,273853, Note_on_c,0,28,68
2,273897, Note_on_c,0,40,0
2,273917, Note_on_c,0,52,80
2,273921, Note_on_c,0,28,0
2,273977, Note_on_c,0,52,0
2,273993, Note_on_c,0,41,77
2,273993, Note_on_c,0,29,68
2,274057, Note_on_c,0,41,0
2,274061, Note_on_c,0,29,0
2,274073, Note_on_c,0,53,78
2,274141, Note_on_c,0,53,0
2,274157, Note_on_c,0,36,79
2,274157, Note_on_c,0,24,68
2,274225, Note_on_c,0,24,0
2,274225, Note_on_c,0,36,0
2,274233, Note_on_c,0,48,68
2,274301, Note_on_c,0,48,0
2,274321, Note_on_c,0,37,82
2,274321, Note_on_c,0,25,68
2,274385, Note_on_c,0,37,0
2,274389, Note_on_c,0,25,0
2,274401, Note_on_c,0,49,69
2,274457, Note_on_c,0,49,0
2,274485, Note_on_c,0,33,82
2,274553, Note_on_c,0,33,0
2,274557, Note_on_c,0,45,81
2,274605, Note_on_c,0,45,0
2,274633, Note_on_c,0,34,75
2,274689, Note_on_c,0,34,0
2,274717, Note_on_c,0,46,64
2,274769, Note_on_c,0,46,0
2,274789, Note_on_c,0,28,74
2,274853, Note_on_c,0,28,0
2,274865, Note_on_c,0,40,66
2,274925, Note_on_c,0,40,0
2,274945, Note_on_c,0,29,75
2,275005, Note_on_c,0,29,0
2,275025, Note_on_c,0,41,68
2,275061, Note_on_c,0,41,0
2,275097, Note_on_c,0,33,74
2,275153, Note_on_c,0,33,0
2,275169, Note_on_c,0,45,76
2,275217, Note_on_c,0,45,0
2,275253, Note_on_c,0,34,63
2,275317, Note_on_c,0,34,0
2,275317, Note_on_c,0,46,65
2,275373, Note_on_c,0,46,0
2,275405, Note_on_c,0,28,60
2,275473, Note_on_c,0,40,63
2,275481, Note_on_c,0,28,0
2,275533, Note_on_c,0,40,0
2,275545, Note_on_c,0,29,74
2,275621, Note_on_c,0,29,0
2,275625, Note_on_c,0,41,76
2,275673, Note_on_c,0,41,0
2,275733, Note_on_c,0,34,65
2,275733, Note_on_c,0,46,75
2,275857, Control_c,0,64,40
2,275873, Control_c,0,64,88
2,275885, Control_c,0,64,127
2,275897, Note_on_c,0,46,0
2,275901, Note_on_c,0,34,0
2,276117, Control_c,0,64,104
2,276141, Control_c,0,64,88
2,276157, Control_c,0,64,56
2,276169, Control_c,0,64,40
2,276193, Control_c,0,64,24
2,276205, Control_c,0,64,0
2,277097, Note_on_c,0,33,71
2,277165, Note_on_c,0,33,0
2,277169, Note_on_c,0,45,71
2,277217, Note_on_c,0,45,0
2,277245, Note_on_c,0,34,75
2,277301, Note_on_c,0,34,0
2,277329, Note_on_c,0,46,64
2,277381, Note_on_c,0,46,0
2,277401, Note_on_c,0,28,74
2,277465, Note_on_c,0,28,0
2,277477, Note_on_c,0,40,66
2,277537, Note_on_c,0,40,0
2,277557, Note_on_c,0,29,75
2,277617, Note_on_c,0,29,0
2,277637, Note_on_c,0,41,68
2,277673, Note_on_c,0,41,0
2,277709, Note_on_c,0,33,74
2,277765, Note_on_c,0,33,0
2,277781, Note_on_c,0,45,76
2,277829, Note_on_c,0,45,0
2,277865, Note_on_c,0,34,63
2,277929, Note_on_c,0,34,0
2,277929, Note_on_c,0,46,65
2,277985, Note_on_c,0,46,0
2,278017, Note_on_c,0,28,60
2,278085, Note_on_c,0,40,63
2,278093, Note_on_c,0,28,0
2,278145, Note_on_c,0,40,0
2,278157, Note_on_c,0,29,74
2,278233, Note_on_c,0,29,0
2,278237, Note_on_c,0,41,76
2,278285, Note_on_c,0,41,0
2,278345, Note_on_c,0,34,61
2,278345, Note_on_c,0,46,67
2,278469, Control_c,0,64,40
2,278485, Control_c,0,64,88
2,278497, Control_c,0,64,127
2,278509, Note_on_c,0,46,0
2,278513, Note_on_c,0,34,0
2,278729, Control_c,0,64,104
2,278753, Control_c,0,64,88
2,278769, Control_c,0,64,56
2,278781, Control_c,0,64,40
2,278805, Control_c,0,64,24
2,278817, Control_c,0,64,0
2,279705, Note_on_c,0,33,66
2,279761, Note_on_c,0,33,0
2,279785, Note_on_c,0,45,66
2,279849, Note_on_c,0,45,0
2,279861, Note_on_c,0,34,68
2,279917, Note_on_c,0,34,0
2,279941, Note_on_c,0,46,69
2,279997, Note_on_c,0,46,0
2,280009, Note_on_c,0,28,64
2,280073, Note_on_c,0,28,0
2,280081, Note_on_c,0,40,56
2,280141, Note_on_c,0,40,0
2,280153, Note_on_c,0,29,66
2,280217, Note_on_c,0,29,0
2,280217, Note_on_c,0,41,68
2,280265, Note_on_c,0,41,0
2,280297, Note_on_c,0,33,66
2,280357, Note_on_c,0,33,0
2,280365, Note_on_c,0,45,67
2,280409, Note_on_c,0,45,0
2,280437, Note_on_c,0,34,69
2,280501, Note_on_c,0,46,65
2,280505, Note_on_c,0,34,0
2,280565, Note_on_c,0,46,0
2,280593, Note_on_c,0,28,60
2,280649, Note_on_c,0,40,62
2,280657, Note_on_c,0,28,0
2,280713, Note_on_c,0,40,0
2,280737, Note_on_c,0,29,63
2,280805, Note_on_c,0,29,0
2,280817, Note_on_c,0,41,68
2,280865, Note_on_c,0,41,0
2,280893, Note_on_c,0,30,60
2,280961, Note_on_c,0,30,0
2,280981, Note_on_c,0,42,63
2,281033, Note_on_c,0,42,0
2,281061, Note_on_c,0,29,66
2,281121, Note_on_c,0,29,0
2,281153, Note_on_c,0,41,68
2,281213, Note_on_c,0,41,0
2,281229, Note_on_c,0,30,59
2,281285, Note_on_c,0,30,0
2,281313, Note_on_c,0,42,56
2,281377, Note_on_c,0,42,0
2,281397, Note_on_c,0,29,68
2,281453, Note_on_c,0,29,0
2,281489, Note_on_c,0,41,65
2,281541, Note_on_c,0,41,0
2,281565, Note_on_c,0,30,61
2,281629, Note_on_c,0,30,0
2,281653, Note_on_c,0,42,59
2,281721, Note_on_c,0,42,0
2,281733, Note_on_c,0,29,66
2,281789, Note_on_c,0,29,0
2,281817, Note_on_c,0,41,66
2,281877, Note_on_c,0,41,0
2,281893, Note_on_c,0,30,61
2,281957, Note_on_c,0,30,0
2,281981, Note_on_c,0,42,60
2,282045, Note_on_c,0,42,0
2,282069, Note_on_c,0,29,63
2,282117, Note_on_c,0,29,0
2,282165, Note_on_c,0,41,66
2,282217, Note_on_c,0,41,0
2,294854, Note_on_c,0,73,75
2,294874, Note_on_c,0,65,45
2,294890, Note_on_c,0,56,45
2,294902, Note_on_c,0,61,45
2,294914, Note_on_c,0,58,45
2,294978, Control_c,0,64,40
2,294994, Control_c,0,64,104
2,295006, Control_c,0,64,127
2,295030, Note_on_c,0,61,0
2,295034, Note_on_c,0,56,0
2,295038, Note_on_c,0,58,0
2,295058, Note_on_c,0,65,0
2,295078, Note_on_c,0,73,0
2,295310, Note_on_c,0,69,75
2,295326, Note_on_c,0,65,46
2,295334, Note_on_c,0,56,40
2,295342, Note_on_c,0,58,40
2,295346, Note_on_c,0,61,40
2,295394, Control_c,0,64,104
2,295406, Control_c,0,64,40
2,295426, Control_c,0,64,0
2,295502, Control_c,0,64,40
2,295518, Control_c,0,64,88
2,295534, Control_c,0,64,127
2,295662, Note_on_c,0,61,0
2,295662, Note_on_c,0,56,0
2,295666, Note_on_c,0,58,0
2,295666, Note_on_c,0,69,0
2,295710, Note_on_c,0,65,0
2,296034, Note_on_c,0,70,61
2,296058, Note_on_c,0,65,41
2,296058, Note_on_c,0,56,42
2,296062, Note_on_c,0,61,35
2,296074, Note_on_c,0,58,35
2,296078, Control_c,0,64,88
2,296094, Control_c,0,64,40
2,296106, Control_c,0,64,0
2,296154, Control_c,0,64,56
2,296170, Control_c,0,64,104
2,296182, Note_on_c,0,65,0
2,296186, Note_on_c,0,56,0
2,296186, Control_c,0,64,127
2,296194, Note_on_c,0,61,0
2,296198, Note_on_c,0,58,0
2,296210, Note_on_c,0,70,0
2,296438, Note_on_c,0,77,85
2,296450, Note_on_c,0,70,42
2,296450, Control_c,0,64,104
2,296454, Note_on_c,0,58,32
2,296454, Note_on_c,0,61,30
2,296462, Note_on_c,0,55,48
2,296462, Note_on_c,0,65,33
2,296462, Control_c,0,64,56
2,296478, Control_c,0,64,0
2,296558, Control_c,0,64,40
2,296570, Control_c,0,64,104
2,296578, Note_on_c,0,55,0
2,296586, Control_c,0,64,127
2,296590, Note_on_c,0,61,0
2,296602, Note_on_c,0,58,0
2,296626, Note_on_c,0,77,0
2,296674, Note_on_c,0,65,0
2,296686, Note_on_c,0,70,0
2,296850, Note_on_c,0,72,84
2,296862, Note_on_c,0,61,37
2,296870, Note_on_c,0,70,49
2,296870, Note_on_c,0,65,43
2,296870, Note_on_c,0,58,35
2,296874, Note_on_c,0,55,46
2,296942, Control_c,0,64,88
2,296958, Control_c,0,64,0
2,297054, Control_c,0,64,24
2,297070, Control_c,0,64,88
2,297086, Control_c,0,64,127
2,297178, Note_on_c,0,65,0
2,297206, Note_on_c,0,55,0
2,297210, Note_on_c,0,61,0
2,297234, Note_on_c,0,72,0
2,297242, Note_on_c,0,58,0
2,297414, Note_on_c,0,70,0
2,297502, Note_on_c,0,73,83
2,297526, Note_on_c,0,65,58
2,297526, Note_on_c,0,61,44
2,297526, Note_on_c,0,58,39
2,297534, Note_on_c,0,70,42
2,297546, Note_on_c,0,55,46
2,297566, Note_on_c,0,65,0
2,297590, Note_on_c,0,55,0
2,297602, Note_on_c,0,70,0
2,297618, Note_on_c,0,61,0
2,297622, Note_on_c,0,58,0
2,297634, Note_on_c,0,73,0
2,297918, Note_on_c,0,80,93
2,297922, Control_c,0,64,56
2,297930, Note_on_c,0,68,61
2,297930, Note_on_c,0,61,45
2,297934, Note_on_c,0,70,59
2,297934, Note_on_c,0,73,58
2,297934, Control_c,0,64,0
2,297950, Note_on_c,0,65,46
2,297950, Note_on_c,0,58,44
2,297966, Note_on_c,0,53,45
2,298026, Control_c,0,64,72
2,298042, Control_c,0,64,127
2,298122, Note_on_c,0,53,0
2,298122, Note_on_c,0,65,0
2,298122, Note_on_c,0,73,0
2,298134, Note_on_c,0,68,0
2,298166, Note_on_c,0,80,0
2,298166, Note_on_c,0,61,0
2,298170, Note_on_c,0,58,0
2,298254, Note_on_c,0,70,0
2,298302, Note_on_c,0,79,88
2,298310, Note_on_c,0,67,59
2,298390, Note_on_c,0,67,0
2,298466, Note_on_c,0,51,50
2,298466, Control_c,0,64,88
2,298478, Control_c,0,64,0
2,298506, Note_on_c,0,58,45
2,298518, Note_on_c,0,79,0
2,298554, Note_on_c,0,67,64
2,298570, Control_c,0,64,72
2,298578, Note_on_c,0,63,45
2,298586, Control_c,0,64,127
2,298622, Note_on_c,0,70,64
2,298626, Note_on_c,0,67,0
2,298694, Note_on_c,0,75,68
2,298710, Note_on_c,0,70,0
2,298830, Note_on_c,0,75,0
2,298838, Note_on_c,0,82,88
2,298926, Note_on_c,0,58,0
2,298958, Note_on_c,0,82,0
2,299010, Note_on_c,0,63,0
2,299234, Note_on_c,0,80,88
2,299246, Note_on_c,0,68,55
2,299254, Note_on_c,0,70,54
2,299266, Note_on_c,0,77,55
2,299282, Note_on_c,0,70,0
2,299282, Note_on_c,0,58,45
2,299306, Note_on_c,0,77,0
2,299306, Note_on_c,0,62,45
2,299370, Note_on_c,0,51,0
2,299378, Note_on_c,0,62,0
2,299414, Note_on_c,0,80,0
2,299418, Note_on_c,0,68,0
2,299418, Note_on_c,0,58,0
2,299590, Note_on_c,0,79,86
2,299590, Note_on_c,0,67,62
2,299594, Note_on_c,0,70,58
2,299606, Note_on_c,0,75,54
2,299606, Note_on_c,0,51,35
2,299606, Note_on_c,0,58,30
2,299610, Note_on_c,0,63,27
2,299610, Control_c,0,64,56
2,299626, Control_c,0,64,0
2,299706, Note_on_c,0,75,0
2,299734, Note_on_c,0,67,0
2,299734, Control_c,0,64,104
2,299750, Control_c,0,64,127
2,299770, Note_on_c,0,79,0
2,299938, Note_on_c,0,77,81
2,299946, Note_on_c,0,65,58
2,299958, Note_on_c,0,51,0
2,299978, Note_on_c,0,53,42
2,299990, Note_on_c,0,63,0
2,300050, Note_on_c,0,65,0
2,300054, Note_on_c,0,77,0
2,300110, Note_on_c,0,53,0
2,300122, Note_on_c,0,58,0
2,300122, Note_on_c,0,70,0
2,300274, Note_on_c,0,75,70
2,300290, Note_on_c,0,63,44
2,300290, Note_on_c,0,70,44
2,300290, Note_on_c,0,54,43
2,300294, Note_on_c,0,58,33
2,300306, Control_c,0,64,104
2,300322, Control_c,0,64,0
2,300386, Note_on_c,0,70,0
2,300414, Control_c,0,64,56
2,300430, Control_c,0,64,127
2,300454, Note_on_c,0,54,0
2,300638, Note_on_c,0,70,69
2,300662, Note_on_c,0,75,0
2,300674, Note_on_c,0,55,45
2,300694, Control_c,0,64,24
2,300710, Control_c,0,64,0
2,300786, Control_c,0,64,104
2,300802, Note_on_c,0,55,0
2,300806, Control_c,0,64,127
2,300830, Note_on_c,0,63,0
2,300842, Note_on_c,0,58,0
2,300870, Note_on_c,0,70,0
2,301018, Note_on_c,0,72,73
2,301022, Note_on_c,0,63,42
2,301034, Note_on_c,0,56,37
2,301046, Note_on_c,0,60,44
2,301050, Control_c,0,64,88
2,301066, Control_c,0,64,0
2,301142, Control_c,0,64,40
2,301158, Control_c,0,64,127
2,301170, Note_on_c,0,63,0
2,301182, Note_on_c,0,60,0
2,301186, Note_on_c,0,72,0
2,301194, Note_on_c,0,56,0
2,301446, Note_on_c,0,72,80
2,301466, Note_on_c,0,65,49
2,301470, Note_on_c,0,60,37
2,301474, Note_on_c,0,62,37
2,301482, Note_on_c,0,56,28
2,301518, Control_c,0,64,56
2,301534, Control_c,0,64,0
2,301618, Note_on_c,0,65,0
2,301622, Control_c,0,64,88
2,301642, Control_c,0,64,127
2,301646, Note_on_c,0,72,0
2,301650, Note_on_c,0,60,0
2,301654, Note_on_c,0,56,0
2,301658, Note_on_c,0,62,0
2,301938, Note_on_c,0,79,79
2,301942, Note_on_c,0,63,46
2,301950, Note_on_c,0,67,52
2,301970, Note_on_c,0,55,48
2,301970, Note_on_c,0,60,42
2,302046, Control_c,0,64,72
2,302058, Control_c,0,64,0
2,302230, Control_c,0,64,104
2,302246, Control_c,0,64,127
2,302326, Note_on_c,0,79,0
2,302390, Note_on_c,0,75,77
2,302534, Note_on_c,0,75,0
2,302706, Note_on_c,0,74,78
2,302762, Note_on_c,0,60,0
2,302886, Note_on_c,0,63,0
2,303034, Note_on_c,0,74,0
2,303042, Note_on_c,0,72,78
2,303066, Note_on_c,0,63,65
2,303086, Note_on_c,0,67,0
2,303170, Note_on_c,0,55,0
2,303170, Note_on_c,0,72,0
2,303214, Note_on_c,0,63,0
2,303422, Note_on_c,0,71,72
2,303438, Note_on_c,0,68,69
2,303438, Note_on_c,0,65,54
2,303446, Note_on_c,0,62,56
2,303450, Control_c,0,64,72
2,303466, Note_on_c,0,55,51
2,303470, Control_c,0,64,0
2,303594, Control_c,0,64,104
2,303610, Control_c,0,64,127
2,303714, Note_on_c,0,68,0
2,303726, Note_on_c,0,55,0
2,303730, Note_on_c,0,65,0
2,303802, Note_on_c,0,67,67
2,303946, Note_on_c,0,67,0
2,304138, Note_on_c,0,71,0
2,304166, Note_on_c,0,66,64
2,304318, Note_on_c,0,66,0
2,304502, Note_on_c,0,71,79
2,304518, Note_on_c,0,65,56
2,304522, Note_on_c,0,67,54
2,304638, Note_on_c,0,65,0
2,304642, Note_on_c,0,67,0
2,304682, Note_on_c,0,71,0
2,304758, Note_on_c,0,62,0
2,304934, Note_on_c,0,79,82
2,304950, Note_on_c,0,67,53
2,304950, Note_on_c,0,63,45
2,304966, Note_on_c,0,72,54
2,304982, Note_on_c,0,60,45
2,304986, Note_on_c,0,55,42
2,304990, Control_c,0,64,72
2,305002, Control_c,0,64,0
2,305174, Control_c,0,64,127
2,305186, Note_on_c,0,72,0
2,305314, Note_on_c,0,79,0
2,305330, Note_on_c,0,75,82
2,305474, Note_on_c,0,75,0
2,305642, Note_on_c,0,74,79
2,305650, Note_on_c,0,63,0
2,305678, Note_on_c,0,67,0
2,305922, Note_on_c,0,74,0
2,305970, Note_on_c,0,72,86
2,305978, Note_on_c,0,60,0
2,305982, Note_on_c,0,63,62
2,305998, Note_on_c,0,55,0
2,306094, Note_on_c,0,63,0
2,306094, Note_on_c,0,72,0
2,306350, Note_on_c,0,71,74
2,306354, Control_c,0,64,104
2,306366, Control_c,0,64,56
2,306370, Note_on_c,0,65,56
2,306370, Note_on_c,0,68,60
2,306378, Note_on_c,0,62,62
2,306382, Control_c,0,64,0
2,306394, Note_on_c,0,55,52
2,306526, Control_c,0,64,127
2,306614, Note_on_c,0,65,0
2,306630, Note_on_c,0,68,0
2,306674, Note_on_c,0,55,0
2,306718, Note_on_c,0,67,64
2,306922, Note_on_c,0,67,0
2,307054, Note_on_c,0,71,0
2,307070, Note_on_c,0,66,60
2,307262, Note_on_c,0,66,0
2,307390, Note_on_c,0,71,78
2,307410, Note_on_c,0,65,55
2,307414, Note_on_c,0,67,56
2,307530, Note_on_c,0,65,0
2,307538, Note_on_c,0,67,0
2,307562, Note_on_c,0,71,0
2,307610, Note_on_c,0,62,0
2,307838, Note_on_c,0,79,87
2,307858, Note_on_c,0,67,51
2,307858, Note_on_c,0,60,50
2,307858, Note_on_c,0,72,56
2,307862, Note_on_c,0,55,50
2,307862, Note_on_c,0,63,50
2,307930, Control_c,0,64,72
2,307946, Control_c,0,64,0
2,308074, Control_c,0,64,72
2,308090, Control_c,0,64,127
2,308118, Note_on_c,0,72,0
2,308194, Note_on_c,0,79,0
2,308250, Note_on_c,0,75,81
2,308354, Note_on_c,0,63,0
2,308362, Note_on_c,0,75,0
2,308438, Note_on_c,0,60,0
2,308466, Note_on_c,0,55,0
2,308582, Note_on_c,0,74,83
2,308750, Note_on_c,0,74,0
2,308922, Note_on_c,0,72,83
2,308934, Note_on_c,0,48,66
2,308970, Note_on_c,0,67,0
2,309178, Note_on_c,0,72,0
2,309286, Note_on_c,0,48,0
2,309322, Note_on_c,0,70,73
2,309342, Note_on_c,0,60,47
2,309342, Note_on_c,0,65,54
2,309346, Note_on_c,0,50,52
2,309354, Note_on_c,0,43,53
2,309406, Control_c,0,64,88
2,309422, Control_c,0,64,0
2,309562, Control_c,0,64,127
2,309654, Note_on_c,0,65,0
2,309682, Note_on_c,0,68,73
2,309718, Note_on_c,0,70,0
2,309810, Note_on_c,0,68,0
2,309970, Note_on_c,0,50,0
2,310038, Note_on_c,0,67,67
2,310066, Note_on_c,0,51,53
2,310118, Control_c,0,64,56
2,310134, Control_c,0,64,0
2,310238, Control_c,0,64,56
2,310254, Control_c,0,64,127
2,310386, Note_on_c,0,67,0
2,310394, Note_on_c,0,63,72
2,310426, Note_on_c,0,55,56
2,310458, Note_on_c,0,60,0
2,310538, Note_on_c,0,63,0
2,310542, Note_on_c,0,51,0
2,310582, Note_on_c,0,43,0
2,310606, Note_on_c,0,55,0
2,310846, Note_on_c,0,62,68
2,310854, Note_on_c,0,54,46
2,310854, Note_on_c,0,57,48
2,310874, Note_on_c,0,50,48
2,310882, Note_on_c,0,43,48
2,310926, Control_c,0,64,88
2,310938, Control_c,0,64,0
2,311110, Control_c,0,64,88
2,311126, Control_c,0,64,127
2,311198, Note_on_c,0,62,0
2,311214, Note_on_c,0,60,75
2,311542, Note_on_c,0,60,0
2,311562, Note_on_c,0,63,71
2,311654, Control_c,0,64,72
2,311666, Control_c,0,64,0
2,311678, Note_on_c,0,57,0
2,311746, Control_c,0,64,56
2,311762, Control_c,0,64,127
2,311934, Note_on_c,0,60,47
2,312066, Note_on_c,0,60,0
2,312198, Note_on_c,0,54,0
2,312338, Note_on_c,0,58,45
2,312354, Note_on_c,0,53,41
2,312374, Note_on_c,0,55,36
2,312398, Control_c,0,64,56
2,312410, Control_c,0,64,0
2,312566, Control_c,0,64,104
2,312582, Control_c,0,64,127
2,312586, Note_on_c,0,55,0
2,312622, Note_on_c,0,58,0
2,312626, Note_on_c,0,63,0
2,312730, Note_on_c,0,59,49
2,312730, Note_on_c,0,62,63
2,312842, Note_on_c,0,50,0
2,312850, Note_on_c,0,59,0
2,312870, Note_on_c,0,53,0
2,312870, Note_on_c,0,43,0
2,312914, Note_on_c,0,62,0
2,313154, Note_on_c,0,60,59
2,313174, Note_on_c,0,51,35
2,313182, Note_on_c,0,48,39
2,313182, Note_on_c,0,43,32
2,313182, Control_c,0,64,24
2,313194, Note_on_c,0,55,39
2,313202, Note_on_c,0,36,39
2,313202, Control_c,0,64,0
2,313354, Note_on_c,0,55,0
2,313370, Note_on_c,0,51,0
2,313382, Note_on_c,0,36,0
2,313390, Note_on_c,0,43,0
2,313394, Note_on_c,0,60,0
2,313398, Note_on_c,0,48,0
2,323622, Control_c,0,64,127
2,323894, Note_on_c,0,72,77
2,323902, Note_on_c,0,60,56
2,323906, Note_on_c,0,63,40
2,323926, Note_on_c,0,56,40
2,323930, Control_c,0,64,88
2,323946, Control_c,0,64,0
2,324026, Note_on_c,0,56,0
2,324034, Note_on_c,0,63,0
2,324082, Note_on_c,0,60,0
2,324082, Note_on_c,0,72,0
2,324086, Control_c,0,64,127
2,324342, Note_on_c,0,67,70
2,324366, Note_on_c,0,60,40
2,324366, Note_on_c,0,64,43
2,324378, Note_on_c,0,56,40
2,324410, Control_c,0,64,56
2,324426, Control_c,0,64,0
2,324818, Note_on_c,0,67,0
2,325018, Note_on_c,0,64,0
2,325030, Control_c,0,64,104
2,325038, Note_on_c,0,68,52
2,325046, Control_c,0,64,24
2,325058, Note_on_c,0,60,0
2,325062, Control_c,0,64,0
2,325174, Note_on_c,0,56,0
2,325226, Note_on_c,0,68,0
2,326906, Note_on_c,0,72,74
2,326914, Note_on_c,0,63,42
2,326918, Note_on_c,0,60,44
2,326918, Note_on_c,0,56,42
2,327014, Control_c,0,64,40
2,327030, Control_c,0,64,88
2,327042, Note_on_c,0,63,0
2,327046, Note_on_c,0,56,0
2,327046, Control_c,0,64,127
2,327062, Note_on_c,0,60,0
2,327082, Note_on_c,0,72,0
2,327326, Note_on_c,0,67,66
2,327350, Note_on_c,0,60,51
2,327350, Note_on_c,0,64,43
2,327358, Note_on_c,0,56,42
2,327414, Control_c,0,64,56
2,327430, Control_c,0,64,0
2,327542, Control_c,0,64,72
2,327558, Control_c,0,64,127
2,327782, Note_on_c,0,67,0
2,327958, Note_on_c,0,64,0
2,327958, Control_c,0,64,72
2,327974, Control_c,0,64,0
2,327986, Note_on_c,0,68,48
2,328014, Note_on_c,0,65,40
2,328074, Note_on_c,0,60,0
2,328082, Control_c,0,64,72
2,328098, Control_c,0,64,127
2,328102, Note_on_c,0,65,0
2,328126, Note_on_c,0,56,0
2,328130, Note_on_c,0,68,0
2,328318, Control_c,0,64,56
2,328330, Control_c,0,64,0
2,329538, Control_c,0,64,40
2,329554, Control_c,0,64,56
2,329570, Control_c,0,64,88
2,329586, Control_c,0,64,104
2,329602, Control_c,0,64,127
2,329918, Note_on_c,0,84,88
2,329942, Note_on_c,0,79,70
2,329942, Note_on_c,0,64,59
2,329942, Note_on_c,0,70,38
2,329942, Control_c,0,64,40
2,329946, Note_on_c,0,72,60
2,329958, Note_on_c,0,60,48
2,329958, Control_c,0,64,0
2,330038, Control_c,0,64,56
2,330046, Note_on_c,0,60,0
2,330054, Note_on_c,0,79,0
2,330054, Note_on_c,0,64,0
2,330054, Control_c,0,64,127
2,330058, Note_on_c,0,72,0
2,330106, Note_on_c,0,84,0
2,330134, Note_on_c,0,70,0
2,330370, Note_on_c,0,78,83
2,330386, Note_on_c,0,70,51
2,330402, Note_on_c,0,64,43
2,330402, Note_on_c,0,72,44
2,330418, Note_on_c,0,60,44
2,330518, Control_c,0,64,72
2,330530, Control_c,0,64,0
2,330638, Control_c,0,64,40
2,330654, Control_c,0,64,104
2,330670, Control_c,0,64,127
2,330914, Note_on_c,0,78,0
2,331058, Control_c,0,64,24
2,331062, Note_on_c,0,79,68
2,331074, Control_c,0,64,0
2,331126, Note_on_c,0,72,0
2,331154, Note_on_c,0,79,0
2,331154, Note_on_c,0,64,0
2,331154, Control_c,0,64,72
2,331158, Note_on_c,0,60,0
2,331166, Control_c,0,64,127
2,331174, Note_on_c,0,70,0
2,331458, Control_c,0,64,40
2,331474, Control_c,0,64,0
2,332682, Control_c,0,64,24
2,332702, Control_c,0,64,40
2,332718, Control_c,0,64,56
2,332730, Control_c,0,64,88
2,332746, Control_c,0,64,104
2,332762, Control_c,0,64,127
2,333870, Note_on_c,0,73,80
2,333898, Note_on_c,0,44,45
2,333974, Note_on_c,0,70,56
2,334022, Note_on_c,0,73,0
2,334050, Note_on_c,0,65,54
2,334062, Note_on_c,0,70,0
2,334118, Note_on_c,0,65,0
2,334126, Note_on_c,0,61,52
2,334198, Note_on_c,0,61,0
2,334234, Note_on_c,0,69,80
2,334318, Note_on_c,0,65,57
2,334402, Note_on_c,0,61,55
2,334422, Note_on_c,0,44,0
2,334474, Note_on_c,0,60,54
2,334478, Note_on_c,0,61,0
2,334482, Note_on_c,0,65,0
2,334574, Note_on_c,0,58,54
2,334670, Note_on_c,0,58,0
2,334682, Note_on_c,0,60,0
2,334686, Note_on_c,0,53,53
2,334758, Note_on_c,0,53,0
2,334778, Note_on_c,0,49,52
2,334838, Note_on_c,0,49,0
2,334862, Note_on_c,0,69,0
2,334862, Note_on_c,0,46,51
2,334938, Note_on_c,0,70,73
2,334938, Note_on_c,0,44,54
2,334954, Note_on_c,0,46,0
2,335030, Note_on_c,0,44,0
2,335030, Note_on_c,0,65,55
2,335050, Note_on_c,0,70,0
2,335110, Note_on_c,0,65,0
2,335126, Note_on_c,0,61,56
2,335178, Note_on_c,0,61,0
2,335218, Note_on_c,0,58,53
2,335262, Note_on_c,0,58,0
2,335314, Note_on_c,0,77,84
2,335334, Note_on_c,0,43,55
2,335394, Control_c,0,64,72
2,335410, Control_c,0,64,0
2,335422, Note_on_c,0,73,55
2,335490, Control_c,0,64,127
2,335498, Note_on_c,0,70,49
2,335558, Note_on_c,0,77,0
2,335570, Note_on_c,0,73,0
2,335574, Note_on_c,0,70,0
2,335578, Note_on_c,0,65,55
2,335650, Note_on_c,0,65,0
2,335678, Note_on_c,0,72,87
2,335770, Note_on_c,0,43,0
2,335770, Note_on_c,0,70,54
2,335778, Note_on_c,0,72,0
2,335854, Note_on_c,0,65,56
2,335870, Note_on_c,0,70,0
2,335938, Note_on_c,0,65,0
2,335938, Note_on_c,0,61,47
2,336046, Note_on_c,0,58,56
2,336138, Note_on_c,0,58,0
2,336150, Note_on_c,0,53,54
2,336214, Note_on_c,0,53,0
2,336230, Note_on_c,0,49,56
2,336306, Note_on_c,0,49,0
2,336318, Note_on_c,0,46,55
2,336422, Note_on_c,0,73,76
2,336426, Note_on_c,0,46,0
2,336442, Note_on_c,0,43,60
2,336470, Note_on_c,0,61,0
2,336506, Note_on_c,0,43,0
2,336526, Note_on_c,0,70,57
2,336614, Note_on_c,0,73,0
2,336622, Note_on_c,0,65,55
2,336634, Note_on_c,0,70,0
2,336670, Note_on_c,0,65,0
2,336678, Note_on_c,0,61,54
2,336702, Note_on_c,0,61,0
2,336822, Note_on_c,0,80,86
2,336834, Note_on_c,0,41,60
2,336850, Control_c,0,64,88
2,336862, Control_c,0,64,0
2,336926, Note_on_c,0,73,61
2,336942, Control_c,0,64,127
2,337014, Note_on_c,0,80,0
2,337014, Note_on_c,0,70,49
2,337042, Note_on_c,0,73,0
2,337046, Note_on_c,0,41,0
2,337090, Note_on_c,0,70,0
2,337098, Note_on_c,0,68,43
2,337194, Note_on_c,0,68,0
2,337194, Note_on_c,0,79,85
2,337302, Note_on_c,0,65,47
2,337354, Note_on_c,0,79,0
2,337358, Note_on_c,0,65,0
2,337386, Note_on_c,0,61,60
2,337462, Note_on_c,0,61,0
2,337470, Note_on_c,0,58,53
2,337562, Note_on_c,0,58,0
2,337574, Note_on_c,0,82,90
2,337578, Note_on_c,0,52,60
2,337594, Control_c,0,64,56
2,337602, Control_c,0,64,0
2,337650, Control_c,0,64,56
2,337662, Control_c,0,64,127
2,337690, Note_on_c,0,82,0
2,337690, Note_on_c,0,73,58
2,337786, Note_on_c,0,70,43
2,337806, Note_on_c,0,73,0
2,337850, Note_on_c,0,70,0
2,337854, Note_on_c,0,68,50
2,337942, Note_on_c,0,68,0
2,337946, Note_on_c,0,80,90
2,338026, Note_on_c,0,52,0
2,338042, Note_on_c,0,64,58
2,338110, Note_on_c,0,64,0
2,338134, Note_on_c,0,61,52
2,338138, Note_on_c,0,80,0
2,338206, Note_on_c,0,61,0
2,338226, Note_on_c,0,58,46
2,338286, Note_on_c,0,58,0
2,338322, Note_on_c,0,79,81
2,338326, Control_c,0,64,104
2,338330, Note_on_c,0,51,56
2,338338, Control_c,0,64,24
2,338350, Control_c,0,64,0
2,338406, Control_c,0,64,127
2,338430, Note_on_c,0,73,64
2,338450, Note_on_c,0,79,0
2,338514, Note_on_c,0,58,40
2,338514, Note_on_c,0,70,59
2,338518, Note_on_c,0,51,0
2,338534, Note_on_c,0,73,0
2,338586, Note_on_c,0,70,0
2,338606, Note_on_c,0,58,0
2,338606, Note_on_c,0,67,56
2,338626, Note_on_c,0,63,42
2,338678, Note_on_c,0,67,0
2,338682, Note_on_c,0,63,0
2,338702, Note_on_c,0,77,80
2,338710, Note_on_c,0,53,63
2,338722, Control_c,0,64,56
2,338734, Control_c,0,64,0
2,338766, Control_c,0,64,24
2,338778, Control_c,0,64,88
2,338790, Control_c,0,64,127
2,338802, Note_on_c,0,73,61
2,338818, Note_on_c,0,77,0
2,338854, Note_on_c,0,53,0
2,338866, Note_on_c,0,58,30
2,338886, Note_on_c,0,70,62
2,338894, Note_on_c,0,73,0
2,338954, Note_on_c,0,70,0
2,338962, Note_on_c,0,58,0
2,338970, Note_on_c,0,61,43
2,338974, Note_on_c,0,65,60
2,339034, Note_on_c,0,61,0
2,339042, Note_on_c,0,65,0
2,339066, Note_on_c,0,75,79
2,339070, Note_on_c,0,54,59
2,339070, Control_c,0,64,88
2,339082, Control_c,0,64,40
2,339094, Control_c,0,64,0
2,339142, Control_c,0,64,56
2,339150, Control_c,0,64,127
2,339178, Note_on_c,0,69,47
2,339190, Note_on_c,0,75,0
2,339246, Note_on_c,0,57,51
2,339254, Note_on_c,0,54,0
2,339254, Note_on_c,0,66,55
2,339262, Note_on_c,0,69,0
2,339310, Note_on_c,0,57,0
2,339330, Note_on_c,0,66,0
2,339334, Note_on_c,0,63,56
2,339338, Note_on_c,0,60,49
2,339358, Note_on_c,0,60,0
2,339402, Note_on_c,0,63,0
2,339442, Note_on_c,0,70,74
2,339446, Note_on_c,0,43,61
2,339454, Control_c,0,64,88
2,339462, Control_c,0,64,0
2,339534, Note_on_c,0,62,55
2,339534, Control_c,0,64,104
2,339546, Control_c,0,64,127
2,339614, Note_on_c,0,62,0
2,339630, Note_on_c,0,61,53
2,339634, Note_on_c,0,70,0
2,339646, Note_on_c,0,43,0
2,339646, Note_on_c,0,51,42
2,339686, Note_on_c,0,61,0
2,339714, Note_on_c,0,58,56
2,339750, Note_on_c,0,51,0
2,339754, Note_on_c,0,58,0
2,339814, Note_on_c,0,72,75
2,339826, Note_on_c,0,44,58
2,339838, Control_c,0,64,40
2,339850, Control_c,0,64,0
2,339906, Control_c,0,64,127
2,339914, Note_on_c,0,51,61
2,339918, Note_on_c,0,44,0
2,339990, Note_on_c,0,51,0
2,340006, Note_on_c,0,56,46
2,340066, Note_on_c,0,56,0
2,340102, Note_on_c,0,63,59
2,340114, Note_on_c,0,72,0
2,340142, Note_on_c,0,63,0
2,340206, Note_on_c,0,72,81
2,340294, Note_on_c,0,60,63
2,340298, Note_on_c,0,72,0
2,340386, Note_on_c,0,63,56
2,340418, Note_on_c,0,60,0
2,340470, Note_on_c,0,63,0
2,340474, Note_on_c,0,68,59
2,340518, Note_on_c,0,68,0
2,340578, Note_on_c,0,49,55
2,340586, Note_on_c,0,77,85
2,340614, Control_c,0,64,104
2,340630, Control_c,0,64,0
2,340690, Note_on_c,0,53,59
2,340698, Control_c,0,64,88
2,340710, Control_c,0,64,127
2,340718, Note_on_c,0,49,0
2,340794, Note_on_c,0,53,0
2,340798, Note_on_c,0,57,56
2,340858, Note_on_c,0,57,0
2,340894, Note_on_c,0,60,57
2,340970, Note_on_c,0,61,64
2,340986, Note_on_c,0,60,0
2,341026, Note_on_c,0,77,0
2,341062, Note_on_c,0,65,58
2,341142, Note_on_c,0,65,0
2,341150, Note_on_c,0,69,61
2,341206, Note_on_c,0,61,0
2,341218, Note_on_c,0,69,0
2,341238, Note_on_c,0,73,54
2,341310, Note_on_c,0,73,0
2,341326, Note_on_c,0,77,66
2,341394, Note_on_c,0,77,0
2,341406, Note_on_c,0,73,46
2,341478, Note_on_c,0,73,0
2,341494, Note_on_c,0,69,52
2,341538, Note_on_c,0,69,0
2,341574, Note_on_c,0,65,49
2,341638, Note_on_c,0,65,0
2,341674, Note_on_c,0,72,81
2,341682, Note_on_c,0,60,52
2,341686, Control_c,0,64,56
2,341694, Note_on_c,0,57,37
2,341698, Note_on_c,0,53,39
2,341698, Control_c,0,64,0
2,341746, Control_c,0,64,88
2,341758, Control_c,0,64,127
2,341782, Note_on_c,0,69,61
2,341806, Note_on_c,0,60,0
2,341810, Note_on_c,0,53,0
2,341818, Note_on_c,0,57,0
2,341822, Note_on_c,0,72,0
2,341870, Note_on_c,0,65,63
2,341882, Note_on_c,0,69,0
2,341930, Note_on_c,0,65,0
2,341938, Note_on_c,0,60,66
2,341982, Note_on_c,0,60,0
2,342058, Note_on_c,0,77,86
2,342058, Note_on_c,0,58,37
2,342070, Control_c,0,64,56
2,342074, Note_on_c,0,53,36
2,342074, Note_on_c,0,49,42
2,342082, Control_c,0,64,0
2,342126, Control_c,0,64,88
2,342138, Control_c,0,64,127
2,342158, Note_on_c,0,73,67
2,342210, Note_on_c,0,77,0
2,342234, Note_on_c,0,53,0
2,342238, Note_on_c,0,70,61
2,342282, Note_on_c,0,49,0
2,342294, Note_on_c,0,73,0
2,342318, Note_on_c,0,65,67
2,342322, Note_on_c,0,70,0
2,342362, Note_on_c,0,65,0
2,342362, Note_on_c,0,58,0
2,342418, Note_on_c,0,67,78
2,342426, Note_on_c,0,49,48
2,342514, Note_on_c,0,67,0
2,342518, Note_on_c,0,65,63
2,342610, Note_on_c,0,58,53
2,342622, Note_on_c,0,49,0
2,342626, Note_on_c,0,65,0
2,342670, Note_on_c,0,58,0
2,342674, Note_on_c,0,55,59
2,342714, Note_on_c,0,55,0
2,342790, Note_on_c,0,72,82
2,342798, Note_on_c,0,48,62
2,342838, Control_c,0,64,88
2,342850, Control_c,0,64,24
2,342862, Control_c,0,64,0
2,342878, Note_on_c,0,68,64
2,342906, Note_on_c,0,72,0
2,342906, Control_c,0,64,56
2,342918, Control_c,0,64,127
2,342974, Note_on_c,0,64,56
2,343010, Note_on_c,0,68,0
2,343030, Note_on_c,0,64,0
2,343034, Note_on_c,0,60,58
2,343114, Note_on_c,0,60,0
2,343130, Note_on_c,0,48,0
2,343146, Note_on_c,0,68,80
2,343154, Note_on_c,0,50,53
2,343230, Note_on_c,0,64,64
2,343254, Note_on_c,0,68,0
2,343266, Note_on_c,0,50,0
2,343318, Note_on_c,0,60,53
2,343326, Note_on_c,0,64,0
2,343374, Note_on_c,0,58,51
2,343378, Note_on_c,0,60,0
2,343438, Note_on_c,0,58,0
2,343490, Control_c,0,64,88
2,343514, Note_on_c,0,55,55
2,343514, Note_on_c,0,64,73
2,343518, Note_on_c,0,48,50
2,343522, Control_c,0,64,0
2,343550, Note_on_c,0,41,28
2,343578, Control_c,0,64,72
2,343590, Control_c,0,64,127
2,343594, Note_on_c,0,60,51
2,343646, Note_on_c,0,55,0
2,343694, Note_on_c,0,58,57
2,343714, Note_on_c,0,60,0
2,343718, Note_on_c,0,64,0
2,343758, Note_on_c,0,58,0
2,343778, Note_on_c,0,52,48
2,343810, Note_on_c,0,52,0
2,343870, Control_c,0,64,104
2,343878, Note_on_c,0,53,49
2,343882, Control_c,0,64,40
2,343890, Note_on_c,0,65,73
2,343894, Control_c,0,64,24
2,343906, Control_c,0,64,40
2,343914, Control_c,0,64,72
2,343926, Control_c,0,64,127
2,343946, Note_on_c,0,65,0
2,343978, Note_on_c,0,60,62
2,344042, Note_on_c,0,41,0
2,344046, Note_on_c,0,53,0
2,344062, Note_on_c,0,65,57
2,344066, Note_on_c,0,60,0
2,344078, Note_on_c,0,48,0
2,344138, Note_on_c,0,65,0
2,344150, Note_on_c,0,68,47
2,344262, Note_on_c,0,68,0
2,344278, Note_on_c,0,72,82
2,344294, Note_on_c,0,39,55
2,344302, Control_c,0,64,0
2,344382, Control_c,0,64,127
2,344390, Note_on_c,0,48,61
2,344402, Note_on_c,0,39,0
2,344462, Note_on_c,0,48,0
2,344490, Note_on_c,0,51,55
2,344534, Note_on_c,0,51,0
2,344578, Note_on_c,0,54,57
2,344662, Note_on_c,0,72,0
2,344678, Note_on_c,0,69,78
2,344678, Note_on_c,0,57,54
2,344726, Note_on_c,0,54,0
2,344742, Note_on_c,0,57,0
2,344754, Note_on_c,0,69,0
2,344778, Note_on_c,0,60,61
2,344866, Note_on_c,0,62,63
2,344870, Note_on_c,0,60,0
2,344938, Note_on_c,0,62,0
2,344966, Note_on_c,0,63,63
2,345046, Note_on_c,0,63,0
2,345050, Note_on_c,0,66,64
2,345138, Note_on_c,0,63,60
2,345146, Note_on_c,0,66,0
2,345242, Note_on_c,0,62,59
2,345294, Note_on_c,0,63,0
2,345302, Note_on_c,0,62,0
2,345318, Note_on_c,0,60,58
2,345382, Note_on_c,0,60,0
2,345426, Note_on_c,0,70,69
2,345434, Note_on_c,0,61,42
2,345438, Note_on_c,0,51,47
2,345458, Note_on_c,0,55,37
2,345510, Control_c,0,64,104
2,345518, Control_c,0,64,0
2,345546, Note_on_c,0,58,50
2,345602, Control_c,0,64,127
2,345610, Note_on_c,0,61,0
2,345614, Note_on_c,0,55,0
2,345618, Note_on_c,0,51,0
2,345646, Note_on_c,0,58,0
2,345650, Note_on_c,0,62,56
2,345662, Note_on_c,0,70,0
2,345750, Note_on_c,0,63,59
2,345766, Note_on_c,0,62,0
2,345806, Note_on_c,0,63,0
2,345938, Note_on_c,0,73,77
2,345978, Note_on_c,0,44,54
2,346022, Control_c,0,64,40
2,346030, Control_c,0,64,0
2,346066, Note_on_c,0,70,53
2,346102, Control_c,0,64,88
2,346114, Control_c,0,64,127
2,346162, Note_on_c,0,65,43
2,346178, Note_on_c,0,73,0
2,346194, Note_on_c,0,70,0
2,346198, Note_on_c,0,65,0
2,346218, Note_on_c,0,61,48
2,346290, Note_on_c,0,61,0
2,346322, Note_on_c,0,69,75
2,346418, Note_on_c,0,65,42
2,346514, Note_on_c,0,61,50
2,346562, Note_on_c,0,44,0
2,346566, Note_on_c,0,65,0
2,346586, Note_on_c,0,61,0
2,346586, Note_on_c,0,60,61
2,346670, Note_on_c,0,58,55
2,346718, Note_on_c,0,60,0
2,346770, Note_on_c,0,58,0
2,346778, Note_on_c,0,53,60
2,346846, Note_on_c,0,53,0
2,346870, Note_on_c,0,49,58
2,346942, Note_on_c,0,49,0
2,346954, Note_on_c,0,46,56
2,346962, Note_on_c,0,69,0
2,347054, Note_on_c,0,70,80
2,347066, Note_on_c,0,44,59
2,347074, Note_on_c,0,46,0
2,347134, Note_on_c,0,44,0
2,347158, Note_on_c,0,65,61
2,347162, Note_on_c,0,70,0
2,347230, Note_on_c,0,61,58
2,347250, Note_on_c,0,65,0
2,347298, Note_on_c,0,61,0
2,347302, Note_on_c,0,58,57
2,347342, Note_on_c,0,58,0
2,347454, Note_on_c,0,77,90
2,347462, Note_on_c,0,43,63
2,347510, Control_c,0,64,88
2,347522, Control_c,0,64,0
2,347574, Note_on_c,0,73,56
2,347602, Control_c,0,64,127
2,347642, Note_on_c,0,70,48
2,347694, Note_on_c,0,77,0
2,347706, Note_on_c,0,73,0
2,347714, Note_on_c,0,70,0
2,347714, Note_on_c,0,65,58
2,347782, Note_on_c,0,65,0
2,347814, Note_on_c,0,72,86
2,347902, Note_on_c,0,72,0
2,347906, Note_on_c,0,70,58
2,347950, Note_on_c,0,43,0
2,348002, Note_on_c,0,65,54
2,348010, Note_on_c,0,70,0
2,348078, Note_on_c,0,65,0
2,348082, Note_on_c,0,61,45
2,348170, Note_on_c,0,58,60
2,348258, Note_on_c,0,58,0
2,348266, Note_on_c,0,53,62
2,348330, Note_on_c,0,53,0
2,348374, Note_on_c,0,49,36
2,348398, Note_on_c,0,49,0
2,348418, Note_on_c,0,46,43
2,348522, Note_on_c,0,73,78
2,348526, Note_on_c,0,46,0
2,348526, Note_on_c,0,43,59
2,348570, Note_on_c,0,61,0
2,348602, Note_on_c,0,43,0
2,348618, Note_on_c,0,70,64
2,348670, Note_on_c,0,73,0
2,348722, Note_on_c,0,65,58
2,348750, Note_on_c,0,70,0
2,348782, Note_on_c,0,65,0
2,348786, Note_on_c,0,61,59
2,348826, Note_on_c,0,61,0
2,348938, Note_on_c,0,80,88
2,348942, Note_on_c,0,41,59
2,348962, Control_c,0,64,72
2,348974, Control_c,0,64,0
2,349030, Note_on_c,0,73,67
2,349046, Control_c,0,64,127
2,349078, Note_on_c,0,80,0
2,349106, Note_on_c,0,70,60
2,349134, Note_on_c,0,41,0
2,349146, Note_on_c,0,73,0
2,349202, Note_on_c,0,70,0
2,349206, Note_on_c,0,68,47
2,349302, Note_on_c,0,79,86
2,349346, Note_on_c,0,68,0
2,349394, Note_on_c,0,65,63
2,349462, Note_on_c,0,65,0
2,349462, Note_on_c,0,79,0
2,349478, Note_on_c,0,61,65
2,349562, Note_on_c,0,61,0
2,349570, Note_on_c,0,58,53
2,349658, Note_on_c,0,58,0
2,349658, Control_c,0,64,104
2,349670, Note_on_c,0,52,62
2,349670, Note_on_c,0,82,90
2,349670, Control_c,0,64,24
2,349682, Control_c,0,64,0
2,349730, Control_c,0,64,104
2,349742, Control_c,0,64,127
2,349750, Note_on_c,0,82,0
2,349766, Note_on_c,0,73,64
2,349866, Note_on_c,0,73,0
2,349866, Note_on_c,0,70,54
2,349938, Note_on_c,0,70,0
2,349942, Note_on_c,0,68,61
2,350034, Note_on_c,0,80,89
2,350042, Note_on_c,0,68,0
2,350126, Note_on_c,0,52,0
2,350142, Note_on_c,0,64,62
2,350218, Note_on_c,0,64,0
2,350222, Note_on_c,0,80,0
2,350226, Note_on_c,0,61,64
2,350302, Note_on_c,0,61,0
2,350326, Note_on_c,0,58,51
2,350394, Control_c,0,64,88
2,350406, Note_on_c,0,58,0
2,350406, Note_on_c,0,79,89
2,350406, Control_c,0,64,0
2,350426, Note_on_c,0,51,64
2,350458, Control_c,0,64,56
2,350470, Control_c,0,64,127
2,350506, Note_on_c,0,73,61
2,350546, Note_on_c,0,79,0
2,350578, Note_on_c,0,58,50
2,350582, Note_on_c,0,70,60
2,350590, Note_on_c,0,51,0
2,350626, Note_on_c,0,73,0
2,350666, Note_on_c,0,70,0
2,350678, Note_on_c,0,58,0
2,350686, Note_on_c,0,67,60
2,350690, Note_on_c,0,63,44
2,350750, Note_on_c,0,63,0
2,350758, Note_on_c,0,67,0
2,350774, Note_on_c,0,77,87
2,350774, Note_on_c,0,53,68
2,350774, Control_c,0,64,56
2,350786, Control_c,0,64,0
2,350822, Control_c,0,64,40
2,350834, Control_c,0,64,104
2,350846, Control_c,0,64,127
2,350870, Note_on_c,0,73,64
2,350898, Note_on_c,0,77,0
2,350902, Note_on_c,0,58,45
2,350930, Note_on_c,0,53,0
2,350942, Note_on_c,0,70,59
2,350966, Note_on_c,0,73,0
2,350998, Note_on_c,0,58,0
2,351018, Note_on_c,0,61,45
2,351022, Note_on_c,0,70,0
2,351034, Note_on_c,0,65,47
2,351090, Note_on_c,0,65,0
2,351094, Note_on_c,0,61,0
2,351134, Note_on_c,0,54,64
2,351134, Note_on_c,0,75,84
2,351162, Control_c,0,64,88
2,351170, Control_c,0,64,0
2,351250, Note_on_c,0,69,52
2,351254, Control_c,0,64,88
2,351262, Control_c,0,64,127
2,351302, Note_on_c,0,75,0
2,351318, Note_on_c,0,66,55
2,351318, Note_on_c,0,57,48
2,351366, Note_on_c,0,69,0
2,351374, Note_on_c,0,54,0
2,351382, Note_on_c,0,57,0
2,351406, Note_on_c,0,60,50
2,351410, Note_on_c,0,63,54
2,351418, Note_on_c,0,66,0
2,351454, Note_on_c,0,60,0
2,351486, Note_on_c,0,63,0
2,351518, Note_on_c,0,70,83
2,351518, Note_on_c,0,43,63
2,351530, Control_c,0,64,56
2,351542, Control_c,0,64,0
2,351578, Control_c,0,64,24
2,351590, Control_c,0,64,104
2,351602, Control_c,0,64,127
2,351606, Note_on_c,0,62,53
2,351678, Note_on_c,0,62,0
2,351698, Note_on_c,0,43,0
2,351698, Note_on_c,0,61,54
2,351706, Note_on_c,0,51,50
2,351718, Note_on_c,0,70,0
2,351754, Note_on_c,0,61,0
2,351794, Note_on_c,0,58,53
2,351810, Note_on_c,0,51,0
2,351850, Note_on_c,0,58,0
2,351878, Note_on_c,0,44,55
2,351890, Note_on_c,0,72,77
2,351906, Control_c,0,64,72
2,351918, Control_c,0,64,0
2,351970, Control_c,0,64,56
2,351982, Note_on_c,0,68,51
2,351982, Control_c,0,64,127
2,352022, Note_on_c,0,72,0
2,352058, Note_on_c,0,51,47
2,352066, Note_on_c,0,63,47
2,352090, Note_on_c,0,44,0
2,352094, Note_on_c,0,68,0
2,352142, Note_on_c,0,63,0
2,352146, Note_on_c,0,51,0
2,352146, Note_on_c,0,60,62
2,352206, Note_on_c,0,60,0
2,352246, Note_on_c,0,41,54
2,352254, Note_on_c,0,72,83
2,352274, Control_c,0,64,56
2,352286, Control_c,0,64,0
2,352358, Note_on_c,0,68,60
2,352358, Control_c,0,64,127
2,352438, Note_on_c,0,50,57
2,352450, Note_on_c,0,41,0
2,352454, Note_on_c,0,65,63
2,352514, Note_on_c,0,72,0
2,352514, Note_on_c,0,50,0
2,352514, Note_on_c,0,68,0
2,352538, Note_on_c,0,65,0
2,352538, Note_on_c,0,62,67
2,352586, Note_on_c,0,62,0
2,352606, Note_on_c,0,43,57
2,352618, Note_on_c,0,48,61
2,352646, Control_c,0,64,72
2,352658, Control_c,0,64,0
2,352674, Note_on_c,0,51,62
2,352678, Note_on_c,0,79,92
2,352698, Note_on_c,0,43,0
2,352718, Control_c,0,64,104
2,352722, Note_on_c,0,48,0
2,352726, Note_on_c,0,55,63
2,352730, Control_c,0,64,127
2,352762, Note_on_c,0,51,0
2,352782, Note_on_c,0,75,64
2,352854, Note_on_c,0,79,0
2,352862, Note_on_c,0,72,69
2,352898, Note_on_c,0,75,0
2,352934, Note_on_c,0,72,0
2,352938, Note_on_c,0,67,49
2,353010, Note_on_c,0,55,0
2,353014, Note_on_c,0,67,0
2,353046, Note_on_c,0,75,86
2,353062, Note_on_c,0,57,66
2,353134, Note_on_c,0,75,0
2,353146, Note_on_c,0,72,70
2,353222, Note_on_c,0,67,58
2,353246, Note_on_c,0,72,0
2,353290, Note_on_c,0,63,52
2,353302, Note_on_c,0,67,0
2,353370, Note_on_c,0,63,0
2,353398, Note_on_c,0,57,0
2,353402, Note_on_c,0,74,85
2,353426, Note_on_c,0,59,64
2,353470, Note_on_c,0,74,0
2,353498, Note_on_c,0,62,60
2,353582, Note_on_c,0,63,58
2,353610, Note_on_c,0,62,0
2,353666, Note_on_c,0,63,0
2,353690, Note_on_c,0,67,53
2,353710, Note_on_c,0,67,0
2,353762, Note_on_c,0,60,68
2,353766, Note_on_c,0,59,0
2,353774, Note_on_c,0,72,82
2,353822, Note_on_c,0,60,0
2,353838, Note_on_c,0,72,0
2,353850, Note_on_c,0,75,64
2,353934, Note_on_c,0,79,74
2,353946, Note_on_c,0,75,0
2,354014, Note_on_c,0,79,0
2,354030, Note_on_c,0,84,80
2,354058, Control_c,0,64,72
2,354066, Note_on_c,0,55,68
2,354066, Control_c,0,64,0
2,354082, Note_on_c,0,84,0
2,354114, Note_on_c,0,55,0
2,354114, Note_on_c,0,62,71
2,354126, Control_c,0,64,127
2,354142, Note_on_c,0,65,55
2,354182, Note_on_c,0,68,85
2,354226, Note_on_c,0,62,0
2,354250, Note_on_c,0,86,84
2,354330, Note_on_c,0,86,0
2,354330, Note_on_c,0,83,79
2,354414, Note_on_c,0,77,75
2,354438, Note_on_c,0,83,0
2,354470, Note_on_c,0,68,0
2,354478, Note_on_c,0,77,0
2,354490, Note_on_c,0,65,0
2,354518, Note_on_c,0,74,74
2,354534, Note_on_c,0,67,83
2,354602, Note_on_c,0,77,79
2,354606, Note_on_c,0,74,0
2,354690, Note_on_c,0,83,71
2,354702, Note_on_c,0,77,0
2,354734, Note_on_c,0,83,0
2,354790, Note_on_c,0,86,69
2,354846, Note_on_c,0,86,0
2,354878, Note_on_c,0,98,86
2,354878, Note_on_c,0,66,77
2,354910, Note_on_c,0,67,0
2,354966, Note_on_c,0,98,0
2,354966, Note_on_c,0,95,74
2,355058, Note_on_c,0,89,75
2,355086, Note_on_c,0,95,0
2,355126, Note_on_c,0,89,0
2,355134, Note_on_c,0,86,74
2,355186, Note_on_c,0,86,0
2,355230, Note_on_c,0,86,81
2,355230, Note_on_c,0,67,72
2,355306, Note_on_c,0,66,0
2,355314, Note_on_c,0,86,0
2,355318, Note_on_c,0,67,0
2,355318, Note_on_c,0,83,68
2,355398, Note_on_c,0,77,66
2,355426, Note_on_c,0,83,0
2,355450, Note_on_c,0,77,0
2,355486, Note_on_c,0,74,59
2,355546, Note_on_c,0,74,0
2,355570, Note_on_c,0,43,65
2,355578, Note_on_c,0,48,61
2,355602, Control_c,0,64,56
2,355606, Note_on_c,0,51,46
2,355614, Control_c,0,64,0
2,355646, Note_on_c,0,79,84
2,355666, Note_on_c,0,55,66
2,355682, Control_c,0,64,88
2,355694, Control_c,0,64,127
2,355706, Note_on_c,0,43,0
2,355730, Note_on_c,0,75,62
2,355754, Note_on_c,0,79,0
2,355798, Note_on_c,0,48,0
2,355814, Note_on_c,0,51,0
2,355826, Note_on_c,0,72,60
2,355858, Note_on_c,0,75,0
2,355874, Note_on_c,0,72,0
2,355886, Note_on_c,0,67,64
2,355962, Note_on_c,0,67,0
2,355982, Note_on_c,0,55,0
2,355986, Note_on_c,0,57,64
2,355986, Note_on_c,0,75,80
2,356066, Note_on_c,0,72,62
2,356070, Note_on_c,0,75,0
2,356122, Note_on_c,0,72,0
2,356146, Note_on_c,0,67,62
2,356210, Note_on_c,0,67,0
2,356222, Note_on_c,0,63,56
2,356302, Note_on_c,0,63,0
2,356314, Note_on_c,0,57,0
2,356318, Note_on_c,0,74,80
2,356326, Note_on_c,0,59,64
2,356398, Note_on_c,0,74,0
2,356418, Note_on_c,0,62,60
2,356486, Note_on_c,0,63,63
2,356522, Note_on_c,0,62,0
2,356570, Note_on_c,0,63,0
2,356594, Note_on_c,0,67,64
2,356642, Note_on_c,0,67,0
2,356670, Note_on_c,0,60,70
2,356674, Note_on_c,0,59,0
2,356682, Note_on_c,0,72,82
2,356734, Note_on_c,0,60,0
2,356742, Note_on_c,0,72,0
2,356754, Note_on_c,0,75,60
2,356842, Note_on_c,0,79,70
2,356850, Note_on_c,0,75,0
2,356918, Note_on_c,0,79,0
2,356938, Note_on_c,0,84,62
2,356962, Note_on_c,0,84,0
2,356974, Control_c,0,64,40
2,356986, Control_c,0,64,0
2,356994, Note_on_c,0,55,67
2,357022, Control_c,0,64,56
2,357034, Note_on_c,0,62,61
2,357034, Control_c,0,64,127
2,357038, Note_on_c,0,55,0
2,357054, Note_on_c,0,65,61
2,357098, Note_on_c,0,68,84
2,357170, Note_on_c,0,86,76
2,357238, Note_on_c,0,86,0
2,357258, Note_on_c,0,83,70
2,357338, Note_on_c,0,83,0
2,357342, Note_on_c,0,77,80
2,357366, Note_on_c,0,68,0
2,357386, Note_on_c,0,65,0
2,357406, Note_on_c,0,77,0
2,357430, Note_on_c,0,67,83
2,357438, Note_on_c,0,74,69
2,357526, Note_on_c,0,74,0
2,357526, Note_on_c,0,77,74
2,357606, Note_on_c,0,77,0
2,357610, Note_on_c,0,83,74
2,357650, Note_on_c,0,83,0
2,357710, Note_on_c,0,86,71
2,357762, Note_on_c,0,86,0
2,357794, Note_on_c,0,98,86
2,357794, Note_on_c,0,66,74
2,357850, Note_on_c,0,67,0
2,357878, Note_on_c,0,98,0
2,357878, Note_on_c,0,95,68
2,357978, Note_on_c,0,89,70
2,357994, Note_on_c,0,95,0
2,358046, Note_on_c,0,89,0
2,358054, Note_on_c,0,86,73
2,358090, Note_on_c,0,86,0
2,358150, Note_on_c,0,86,71
2,358154, Note_on_c,0,66,0
2,358154, Note_on_c,0,67,70
2,358222, Note_on_c,0,86,0
2,358238, Note_on_c,0,83,65
2,358322, Note_on_c,0,67,0
2,358342, Note_on_c,0,83,0
2,358342, Note_on_c,0,77,62
2,358358, Note_on_c,0,62,0
2,358410, Note_on_c,0,77,0
2,358430, Note_on_c,0,74,61
2,358486, Note_on_c,0,74,0
2,358526, Note_on_c,0,43,56
2,358534, Note_on_c,0,31,53
2,358538, Control_c,0,64,40
2,358546, Control_c,0,64,88
2,358562, Control_c,0,64,127
2,358626, Note_on_c,0,79,80
2,358634, Note_on_c,0,67,58
2,358638, Note_on_c,0,31,0
2,358702, Note_on_c,0,67,0
2,358734, Note_on_c,0,75,67
2,358746, Note_on_c,0,79,0
2,358822, Note_on_c,0,72,56
2,358834, Note_on_c,0,75,0
2,358834, Note_on_c,0,43,0
2,358882, Note_on_c,0,72,0
2,358910, Note_on_c,0,45,55
2,358910, Note_on_c,0,63,68
2,359002, Note_on_c,0,75,78
2,359026, Note_on_c,0,63,0
2,359070, Note_on_c,0,75,0
2,359090, Note_on_c,0,72,73
2,359162, Note_on_c,0,72,0
2,359166, Note_on_c,0,67,66
2,359226, Note_on_c,0,67,0
2,359230, Note_on_c,0,45,0
2,359262, Note_on_c,0,62,74
2,359274, Note_on_c,0,47,58
2,359326, Note_on_c,0,62,0
2,359358, Note_on_c,0,74,76
2,359398, Note_on_c,0,74,0
2,359446, Note_on_c,0,67,67
2,359514, Note_on_c,0,67,0
2,359518, Note_on_c,0,63,69
2,359586, Note_on_c,0,63,0
2,359622, Note_on_c,0,60,71
2,359626, Control_c,0,64,104
2,359630, Note_on_c,0,47,0
2,359642, Note_on_c,0,48,58
2,359670, Note_on_c,0,48,0
2,359714, Note_on_c,0,72,77
2,359758, Note_on_c,0,60,0
2,359826, Note_on_c,0,67,52
2,359834, Note_on_c,0,72,0
2,359886, Note_on_c,0,63,62
2,359906, Note_on_c,0,67,0
2,359918, Note_on_c,0,63,0
2,359942, Control_c,0,64,88
2,359954, Control_c,0,64,56
2,359966, Control_c,0,64,0
2,359986, Note_on_c,0,44,57
2,359986, Note_on_c,0,48,73
2,359998, Note_on_c,0,41,61
2,360062, Control_c,0,64,72
2,360074, Control_c,0,64,127
2,360086, Note_on_c,0,84,90
2,360094, Note_on_c,0,72,69
2,360150, Note_on_c,0,84,0
2,360186, Note_on_c,0,80,76
2,360238, Note_on_c,0,72,0
2,360286, Note_on_c,0,77,74
2,360290, Note_on_c,0,80,0
2,360334, Note_on_c,0,77,0
2,360354, Note_on_c,0,41,0
2,360358, Note_on_c,0,48,0
2,360370, Note_on_c,0,68,77
2,360370, Note_on_c,0,50,73
2,360386, Note_on_c,0,44,0
2,360462, Note_on_c,0,80,86
2,360506, Note_on_c,0,68,0
2,360530, Note_on_c,0,80,0
2,360550, Note_on_c,0,77,73
2,360618, Note_on_c,0,72,71
2,360626, Note_on_c,0,77,0
2,360662, Note_on_c,0,50,0
2,360674, Note_on_c,0,72,0
2,360698, Note_on_c,0,67,77
2,360714, Note_on_c,0,52,72
2,360782, Note_on_c,0,67,0
2,360798, Note_on_c,0,79,82
2,360846, Note_on_c,0,79,0
2,360898, Note_on_c,0,72,70
2,360970, Note_on_c,0,72,0
2,360970, Note_on_c,0,68,68
2,361030, Note_on_c,0,68,0
2,361066, Note_on_c,0,65,73
2,361074, Note_on_c,0,53,68
2,361082, Note_on_c,0,52,0
2,361118, Note_on_c,0,53,0
2,361158, Note_on_c,0,77,79
2,361254, Note_on_c,0,72,62
2,361258, Note_on_c,0,77,0
2,361306, Note_on_c,0,68,64
2,361314, Note_on_c,0,65,0
2,361334, Note_on_c,0,72,0
2,361346, Note_on_c,0,68,0
2,361358, Control_c,0,64,104
2,361370, Control_c,0,64,56
2,361382, Control_c,0,64,0
2,361410, Note_on_c,0,55,70
2,361418, Note_on_c,0,53,65
2,361418, Note_on_c,0,49,65
2,361478, Control_c,0,64,88
2,361490, Control_c,0,64,127
2,361514, Note_on_c,0,89,93
2,361518, Note_on_c,0,77,82
2,361558, Note_on_c,0,77,0
2,361602, Note_on_c,0,89,0
2,361610, Note_on_c,0,85,73
2,361690, Note_on_c,0,85,0
2,361690, Note_on_c,0,82,67
2,361738, Note_on_c,0,82,0
2,361778, Note_on_c,0,55,0
2,361778, Note_on_c,0,73,80
2,361782, Note_on_c,0,56,70
2,361870, Note_on_c,0,85,83
2,361958, Note_on_c,0,82,70
2,361962, Note_on_c,0,85,0
2,361998, Note_on_c,0,73,0
2,362042, Note_on_c,0,77,66
2,362046, Note_on_c,0,82,0
2,362066, Note_on_c,0,56,0
2,362110, Note_on_c,0,77,0
2,362122, Note_on_c,0,57,68
2,362130, Note_on_c,0,72,82
2,362222, Note_on_c,0,72,0
2,362222, Note_on_c,0,84,81
2,362266, Note_on_c,0,84,0
2,362318, Note_on_c,0,77,71
2,362386, Note_on_c,0,77,0
2,362410, Note_on_c,0,73,63
2,362458, Note_on_c,0,73,0
2,362466, Note_on_c,0,70,81
2,362470, Note_on_c,0,58,67
2,362478, Note_on_c,0,49,0
2,362494, Note_on_c,0,53,0
2,362506, Note_on_c,0,57,0
2,362538, Note_on_c,0,58,0
2,362562, Note_on_c,0,82,77
2,362646, Note_on_c,0,77,65
2,362662, Note_on_c,0,82,0
2,362702, Note_on_c,0,73,67
2,362710, Note_on_c,0,77,0
2,362722, Note_on_c,0,70,0
2,362754, Note_on_c,0,73,0
2,362786, Control_c,0,64,40
2,362798, Control_c,0,64,0
2,362802, Note_on_c,0,59,70
2,362802, Note_on_c,0,56,64
2,362806, Note_on_c,0,53,68
2,362874, Control_c,0,64,88
2,362886, Control_c,0,64,127
2,362906, Note_on_c,0,92,94
2,362910, Note_on_c,0,80,80
2,362998, Note_on_c,0,87,74
2,363006, Note_on_c,0,92,0
2,363074, Note_on_c,0,84,73
2,363086, Note_on_c,0,80,0
2,363110, Note_on_c,0,87,0
2,363142, Note_on_c,0,84,0
2,363174, Note_on_c,0,75,87
2,363182, Note_on_c,0,60,71
2,363226, Note_on_c,0,53,0
2,363238, Note_on_c,0,59,0
2,363246, Note_on_c,0,56,0
2,363258, Note_on_c,0,60,0
2,363266, Note_on_c,0,87,83
2,363270, Note_on_c,0,75,0
2,363342, Note_on_c,0,87,0
2,363342, Note_on_c,0,84,69
2,363406, Note_on_c,0,84,0
2,363406, Note_on_c,0,80,68
2,363494, Note_on_c,0,80,0
2,363510, Note_on_c,0,74,88
2,363522, Note_on_c,0,62,70
2,363522, Control_c,0,64,24
2,363526, Note_on_c,0,56,64
2,363534, Note_on_c,0,60,66
2,363534, Control_c,0,64,0
2,363582, Control_c,0,64,24
2,363594, Control_c,0,64,104
2,363606, Control_c,0,64,127
2,363610, Note_on_c,0,86,87
2,363662, Note_on_c,0,74,0
2,363690, Note_on_c,0,80,75
2,363694, Note_on_c,0,86,0
2,363766, Note_on_c,0,78,63
2,363782, Note_on_c,0,80,0
2,363838, Note_on_c,0,78,0
2,363846, Note_on_c,0,72,86
2,363850, Note_on_c,0,63,61
2,363882, Note_on_c,0,62,0
2,363882, Note_on_c,0,60,0
2,363882, Note_on_c,0,56,0
2,363910, Note_on_c,0,63,0
2,363938, Note_on_c,0,84,78
2,364030, Note_on_c,0,80,64
2,364034, Note_on_c,0,84,0
2,364042, Note_on_c,0,72,0
2,364086, Note_on_c,0,78,62
2,364094, Note_on_c,0,80,0
2,364186, Note_on_c,0,74,86
2,364190, Note_on_c,0,68,65
2,364190, Note_on_c,0,66,72
2,364194, Control_c,0,64,72
2,364198, Note_on_c,0,78,0
2,364206, Control_c,0,64,0
2,364278, Control_c,0,64,56
2,364282, Note_on_c,0,71,73
2,364286, Note_on_c,0,83,82
2,364290, Control_c,0,64,127
2,364346, Note_on_c,0,71,0
2,364370, Note_on_c,0,83,0
2,364370, Note_on_c,0,80,75
2,364454, Note_on_c,0,78,74
2,364458, Note_on_c,0,80,0
2,364526, Note_on_c,0,78,0
2,364542, Note_on_c,0,75,78
2,364542, Note_on_c,0,72,84
2,364566, Note_on_c,0,74,0
2,364578, Note_on_c,0,75,0
2,364594, Note_on_c,0,66,0
2,364594, Note_on_c,0,68,0
2,364630, Note_on_c,0,84,86
2,364722, Note_on_c,0,80,74
2,364730, Note_on_c,0,84,0
2,364762, Note_on_c,0,72,0
2,364790, Note_on_c,0,80,0
2,364794, Note_on_c,0,78,68
2,364834, Note_on_c,0,78,0
2,364874, Note_on_c,0,56,62
2,364874, Note_on_c,0,54,64
2,364878, Note_on_c,0,62,76
2,364882, Control_c,0,64,88
2,364890, Control_c,0,64,0
2,364894, Note_on_c,0,59,77
2,364938, Control_c,0,64,40
2,364946, Note_on_c,0,59,0
2,364950, Control_c,0,64,104
2,364962, Control_c,0,64,127
2,364966, Note_on_c,0,71,79
2,365054, Note_on_c,0,71,0
2,365066, Note_on_c,0,68,70
2,365146, Note_on_c,0,68,0
2,365154, Note_on_c,0,66,66
2,365222, Note_on_c,0,66,0
2,365226, Note_on_c,0,63,76
2,365226, Note_on_c,0,60,82
2,365254, Note_on_c,0,62,0
2,365266, Note_on_c,0,63,0
2,365278, Note_on_c,0,56,0
2,365290, Note_on_c,0,54,0
2,365330, Note_on_c,0,72,74
2,365418, Note_on_c,0,68,68
2,365430, Note_on_c,0,72,0
2,365490, Note_on_c,0,66,64
2,365494, Note_on_c,0,68,0
2,365518, Note_on_c,0,60,0
2,365534, Note_on_c,0,66,0
2,365586, Note_on_c,0,51,57
2,365590, Note_on_c,0,42,57
2,365590, Control_c,0,64,104
2,365594, Note_on_c,0,44,60
2,365598, Note_on_c,0,50,88
2,365602, Control_c,0,64,0
2,365606, Note_on_c,0,51,0
2,365658, Control_c,0,64,40
2,365670, Note_on_c,0,47,64
2,365670, Control_c,0,64,104
2,365678, Note_on_c,0,59,70
2,365682, Control_c,0,64,127
2,365730, Note_on_c,0,47,0
2,365766, Note_on_c,0,59,0
2,365766, Note_on_c,0,56,68
2,365854, Note_on_c,0,56,0
2,365866, Note_on_c,0,54,63
2,365902, Note_on_c,0,50,0
2,365926, Control_c,0,64,88
2,365934, Control_c,0,64,24
2,365938, Note_on_c,0,54,0
2,365942, Note_on_c,0,51,83
2,365946, Control_c,0,64,0
2,365958, Control_c,0,64,40
2,365962, Note_on_c,0,48,79
2,365970, Control_c,0,64,88
2,365982, Control_c,0,64,127
2,366010, Note_on_c,0,51,0
2,366038, Note_on_c,0,42,0
2,366042, Note_on_c,0,44,0
2,366046, Note_on_c,0,60,79
2,366130, Note_on_c,0,56,73
2,366134, Note_on_c,0,48,0
2,366138, Note_on_c,0,60,0
2,366178, Note_on_c,0,56,0
2,366206, Note_on_c,0,54,71
2,366266, Note_on_c,0,54,0
2,366298, Control_c,0,64,88
2,366310, Control_c,0,64,0
2,366322, Note_on_c,0,55,96
2,366322, Note_on_c,0,39,68
2,366326, Note_on_c,0,31,68
2,366326, Note_on_c,0,48,83
2,366326, Note_on_c,0,36,70
2,366326, Note_on_c,0,43,76
2,366330, Note_on_c,0,51,71
2,366362, Note_on_c,0,51,0
2,366370, Control_c,0,64,72
2,366374, Note_on_c,0,31,0
2,366378, Note_on_c,0,36,0
2,366378, Note_on_c,0,48,0
2,366382, Control_c,0,64,127
2,366386, Note_on_c,0,43,0
2,366390, Note_on_c,0,39,0
2,366426, Note_on_c,0,55,0
2,366614, Note_on_c,0,39,65
2,366618, Note_on_c,0,43,70
2,366626, Note_on_c,0,36,49
2,366650, Note_on_c,0,36,0
2,366658, Note_on_c,0,39,0
2,366658, Control_c,0,64,104
2,366666, Note_on_c,0,43,0
2,366670, Control_c,0,64,56
2,366682, Control_c,0,64,0
2,366694, Note_on_c,0,51,73
2,366698, Note_on_c,0,55,80
2,366702, Note_on_c,0,48,69
2,366730, Note_on_c,0,42,43
2,366738, Note_on_c,0,48,0
2,366754, Note_on_c,0,42,0
2,366758, Note_on_c,0,51,0
2,366778, Note_on_c,0,55,0
2,366790, Note_on_c,0,47,80
2,366794, Note_on_c,0,43,64
2,366794, Note_on_c,0,39,64
2,366838, Note_on_c,0,43,0
2,366850, Note_on_c,0,47,0
2,366870, Note_on_c,0,39,0
2,366870, Note_on_c,0,50,68
2,366874, Note_on_c,0,55,72
2,366878, Note_on_c,0,51,48
2,366902, Note_on_c,0,51,0
2,366914, Note_on_c,0,50,0
2,366930, Note_on_c,0,55,0
2,366958, Note_on_c,0,43,71
2,366962, Note_on_c,0,39,52
2,366970, Note_on_c,0,48,76
2,366994, Note_on_c,0,48,0
2,367006, Note_on_c,0,43,0
2,367014, Note_on_c,0,39,0
2,367042, Note_on_c,0,51,69
2,367046, Note_on_c,0,60,80
2,367058, Note_on_c,0,55,66
2,367094, Note_on_c,0,55,0
2,367106, Note_on_c,0,51,0
2,367122, Note_on_c,0,60,0
2,367138, Note_on_c,0,50,77
2,367142, Note_on_c,0,48,74
2,367142, Note_on_c,0,43,55
2,367194, Note_on_c,0,43,0
2,367202, Note_on_c,0,48,0
2,367202, Note_on_c,0,50,0
2,367222, Note_on_c,0,60,78
2,367230, Note_on_c,0,55,64
2,367238, Note_on_c,0,53,48
2,367254, Note_on_c,0,55,0
2,367266, Note_on_c,0,53,0
2,367294, Note_on_c,0,60,0
2,367306, Note_on_c,0,43,62
2,367314, Note_on_c,0,48,71
2,367314, Note_on_c,0,51,73
2,367334, Note_on_c,0,48,0
2,367342, Note_on_c,0,43,0
2,367390, Note_on_c,0,51,0
2,367394, Note_on_c,0,63,77
2,367394, Note_on_c,0,55,73
2,367394, Note_on_c,0,60,47
2,367426, Note_on_c,0,60,0
2,367446, Note_on_c,0,55,0
2,367478, Note_on_c,0,63,0
2,367482, Note_on_c,0,54,69
2,367482, Note_on_c,0,48,67
2,367482, Note_on_c,0,51,58
2,367542, Note_on_c,0,48,0
2,367554, Note_on_c,0,51,0
2,367574, Note_on_c,0,63,71
2,367574, Note_on_c,0,56,64
2,367574, Note_on_c,0,60,65
2,367578, Note_on_c,0,54,0
2,367598, Note_on_c,0,60,0
2,367622, Note_on_c,0,56,0
2,367650, Note_on_c,0,63,0
2,367662, Note_on_c,0,48,70
2,367662, Note_on_c,0,55,74
2,367662, Note_on_c,0,51,63
2,367690, Note_on_c,0,48,0
2,367710, Note_on_c,0,51,0
2,367726, Note_on_c,0,55,0
2,367750, Note_on_c,0,67,72
2,367750, Note_on_c,0,60,75
2,367750, Note_on_c,0,63,57
2,367790, Note_on_c,0,60,0
2,367822, Note_on_c,0,63,0
2,367830, Note_on_c,0,67,0
2,367830, Note_on_c,0,59,62
2,367830, Note_on_c,0,51,62
2,367830, Note_on_c,0,55,69
2,367898, Note_on_c,0,55,0
2,367906, Note_on_c,0,59,0
2,367918, Note_on_c,0,67,74
2,367918, Note_on_c,0,63,60
2,367918, Note_on_c,0,62,70
2,367930, Note_on_c,0,51,0
2,367962, Note_on_c,0,62,0
2,367966, Note_on_c,0,63,0
2,367982, Note_on_c,0,67,0
2,368006, Note_on_c,0,60,78
2,368006, Note_on_c,0,55,74
2,368006, Note_on_c,0,51,65
2,368030, Note_on_c,0,60,0
2,368034, Note_on_c,0,55,0
2,368046, Note_on_c,0,51,0
2,368094, Note_on_c,0,63,75
2,368094, Note_on_c,0,60,79
2,368094, Note_on_c,0,55,75
2,368118, Note_on_c,0,55,0
2,368154, Note_on_c,0,60,0
2,368174, Note_on_c,0,63,0
2,368178, Note_on_c,0,51,64
2,368178, Note_on_c,0,48,70
2,368178, Note_on_c,0,54,72
2,368234, Note_on_c,0,51,0
2,368242, Note_on_c,0,48,0
2,368266, Note_on_c,0,63,83
2,368266, Note_on_c,0,56,76
2,368282, Note_on_c,0,60,63
2,368290, Note_on_c,0,54,0
2,368302, Note_on_c,0,60,0
2,368318, Note_on_c,0,56,0
2,368350, Note_on_c,0,63,0
2,368350, Note_on_c,0,51,67
2,368354, Note_on_c,0,48,68
2,368358, Note_on_c,0,55,74
2,368374, Note_on_c,0,48,0
2,368394, Note_on_c,0,51,0
2,368398, Note_on_c,0,55,0
2,368446, Note_on_c,0,60,79
2,368446, Note_on_c,0,67,73
2,368446, Note_on_c,0,63,61
2,368486, Note_on_c,0,60,0
2,368518, Note_on_c,0,63,0
2,368526, Note_on_c,0,67,0
2,368530, Note_on_c,0,59,77
2,368534, Note_on_c,0,55,70
2,368542, Note_on_c,0,51,61
2,368598, Note_on_c,0,55,0
2,368618, Note_on_c,0,59,0
2,368618, Note_on_c,0,67,72
2,368618, Note_on_c,0,63,65
2,368618, Note_on_c,0,62,68
2,368634, Note_on_c,0,51,0
2,368642, Note_on_c,0,62,0
2,368670, Note_on_c,0,63,0
2,368674, Note_on_c,0,67,0
2,368706, Note_on_c,0,51,64
2,368710, Note_on_c,0,55,74
2,368714, Note_on_c,0,60,74
2,368754, Note_on_c,0,51,0
2,368758, Note_on_c,0,55,0
2,368774, Note_on_c,0,60,0
2,368798, Note_on_c,0,63,78
2,368802, Note_on_c,0,72,92
2,368806, Note_on_c,0,67,75
2,368862, Note_on_c,0,63,0
2,368890, Note_on_c,0,62,75
2,368894, Note_on_c,0,72,0
2,368894, Note_on_c,0,60,71
2,368898, Note_on_c,0,55,58
2,368906, Note_on_c,0,67,0
2,368954, Note_on_c,0,62,0
2,368962, Note_on_c,0,60,0
2,368970, Note_on_c,0,55,0
2,368986, Note_on_c,0,65,73
2,368990, Note_on_c,0,72,89
2,368998, Note_on_c,0,67,62
2,369018, Note_on_c,0,67,0
2,369034, Note_on_c,0,65,0
2,369054, Note_on_c,0,72,0
2,369066, Note_on_c,0,55,57
2,369070, Note_on_c,0,60,64
2,369070, Note_on_c,0,63,70
2,369078, Control_c,0,64,40
2,369086, Note_on_c,0,55,0
2,369090, Control_c,0,64,72
2,369094, Note_on_c,0,60,0
2,369102, Control_c,0,64,88
2,369150, Note_on_c,0,63,0
2,369150, Control_c,0,64,24
2,369162, Note_on_c,0,75,85
2,369162, Control_c,0,64,0
2,369170, Note_on_c,0,67,73
2,369170, Note_on_c,0,72,71
2,369226, Note_on_c,0,67,0
2,369234, Control_c,0,64,40
2,369242, Note_on_c,0,75,0
2,369246, Note_on_c,0,72,0
2,369246, Note_on_c,0,66,71
2,369246, Control_c,0,64,56
2,369254, Note_on_c,0,60,65
2,369254, Note_on_c,0,63,55
2,369258, Control_c,0,64,88
2,369330, Note_on_c,0,63,0
2,369342, Note_on_c,0,75,82
2,369346, Note_on_c,0,66,0
2,369346, Note_on_c,0,68,74
2,369346, Note_on_c,0,72,76
2,369354, Note_on_c,0,60,0
2,369378, Note_on_c,0,72,0
2,369398, Note_on_c,0,75,0
2,369402, Note_on_c,0,68,0
2,369422, Note_on_c,0,63,65
2,369426, Note_on_c,0,67,74
2,369430, Note_on_c,0,60,36
2,369454, Note_on_c,0,60,0
2,369466, Note_on_c,0,63,0
2,369466, Control_c,0,64,104
2,369490, Note_on_c,0,67,0
2,369498, Control_c,0,64,40
2,369510, Control_c,0,64,0
2,369530, Note_on_c,0,72,90
2,369530, Note_on_c,0,63,83
2,369534, Note_on_c,0,67,78
2,369590, Note_on_c,0,63,0
2,369606, Control_c,0,64,40
2,369614, Note_on_c,0,72,0
2,369618, Note_on_c,0,67,0
2,369618, Note_on_c,0,62,74
2,369618, Control_c,0,64,72
2,369622, Note_on_c,0,55,70
2,369622, Note_on_c,0,60,68
2,369630, Control_c,0,64,88
2,369666, Note_on_c,0,60,0
2,369670, Note_on_c,0,62,0
2,369678, Note_on_c,0,55,0
2,369710, Note_on_c,0,72,89
2,369710, Note_on_c,0,65,76
2,369718, Note_on_c,0,67,66
2,369738, Note_on_c,0,67,0
2,369758, Note_on_c,0,65,0
2,369778, Note_on_c,0,72,0
2,369794, Note_on_c,0,55,55
2,369802, Note_on_c,0,63,73
2,369802, Note_on_c,0,60,72
2,369818, Note_on_c,0,55,0
2,369826, Note_on_c,0,60,0
2,369866, Note_on_c,0,63,0
2,369870, Control_c,0,64,24
2,369882, Control_c,0,64,0
2,369886, Note_on_c,0,75,91
2,369890, Note_on_c,0,67,78
2,369898, Note_on_c,0,72,70
2,369942, Note_on_c,0,67,0
2,369958, Note_on_c,0,72,0
2,369970, Note_on_c,0,75,0
2,369970, Note_on_c,0,66,70
2,369974, Note_on_c,0,63,60
2,369982, Note_on_c,0,60,61
2,369982, Control_c,0,64,40
2,369994, Control_c,0,64,72
2,370006, Control_c,0,64,88
2,370042, Note_on_c,0,60,0
2,370050, Note_on_c,0,68,78
2,370054, Note_on_c,0,63,0
2,370054, Note_on_c,0,75,90
2,370054, Control_c,0,64,104
2,370062, Note_on_c,0,66,0
2,370066, Note_on_c,0,72,72
2,370090, Note_on_c,0,72,0
2,370106, Note_on_c,0,68,0
2,370130, Note_on_c,0,63,62
2,370142, Note_on_c,0,75,0
2,370142, Note_on_c,0,67,70
2,370146, Note_on_c,0,60,59
2,370166, Note_on_c,0,60,0
2,370182, Note_on_c,0,63,0
2,370194, Note_on_c,0,67,0
2,370210, Control_c,0,64,72
2,370222, Control_c,0,64,24
2,370234, Note_on_c,0,72,87
2,370234, Control_c,0,64,0
2,370238, Note_on_c,0,79,93
2,370238, Note_on_c,0,75,80
2,370278, Note_on_c,0,72,0
2,370306, Control_c,0,64,40
2,370314, Note_on_c,0,75,0
2,370318, Control_c,0,64,88
2,370326, Note_on_c,0,71,75
2,370326, Note_on_c,0,67,56
2,370330, Note_on_c,0,63,63
2,370330, Control_c,0,64,127
2,370334, Note_on_c,0,79,0
2,370402, Note_on_c,0,67,0
2,370410, Note_on_c,0,71,0
2,370414, Note_on_c,0,75,74
2,370418, Note_on_c,0,63,0
2,370418, Note_on_c,0,74,76
2,370418, Note_on_c,0,79,86
2,370442, Note_on_c,0,74,0
2,370470, Note_on_c,0,75,0
2,370474, Note_on_c,0,79,0
2,370498, Note_on_c,0,67,63
2,370502, Note_on_c,0,63,46
2,370514, Note_on_c,0,72,72
2,370542, Note_on_c,0,63,0
2,370550, Note_on_c,0,67,0
2,370582, Note_on_c,0,72,0
2,370582, Control_c,0,64,72
2,370594, Note_on_c,0,75,82
2,370594, Control_c,0,64,24
2,370598, Note_on_c,0,84,92
2,370602, Note_on_c,0,79,83
2,370606, Control_c,0,64,0
2,370662, Note_on_c,0,75,0
2,370666, Control_c,0,64,40
2,370678, Note_on_c,0,79,0
2,370678, Control_c,0,64,88
2,370682, Note_on_c,0,74,79
2,370686, Note_on_c,0,72,74
2,370690, Control_c,0,64,127
2,370694, Note_on_c,0,84,0
2,370694, Note_on_c,0,67,52
2,370742, Note_on_c,0,74,0
2,370770, Note_on_c,0,72,0
2,370770, Note_on_c,0,84,96
2,370778, Note_on_c,0,67,0
2,370778, Note_on_c,0,79,79
2,370782, Note_on_c,0,77,48
2,370818, Note_on_c,0,79,0
2,370834, Note_on_c,0,77,0
2,370834, Note_on_c,0,84,0
2,370858, Note_on_c,0,75,76
2,370858, Note_on_c,0,67,31
2,370866, Note_on_c,0,72,64
2,370882, Note_on_c,0,72,0
2,370890, Note_on_c,0,67,0
2,370902, Note_on_c,0,75,0
2,370942, Control_c,0,64,104
2,370954, Control_c,0,64,40
2,370958, Note_on_c,0,79,92
2,370958, Note_on_c,0,72,83
2,370958, Note_on_c,0,75,71
2,370966, Control_c,0,64,0
2,371018, Note_on_c,0,72,0
2,371038, Note_on_c,0,71,82
2,371038, Control_c,0,64,72
2,371046, Note_on_c,0,67,62
2,371046, Note_on_c,0,63,62
2,371050, Control_c,0,64,127
2,371054, Note_on_c,0,75,0
2,371066, Note_on_c,0,79,0
2,371102, Note_on_c,0,71,0
2,371118, Note_on_c,0,67,0
2,371130, Note_on_c,0,79,87
2,371130, Note_on_c,0,75,75
2,371134, Note_on_c,0,74,79
2,371154, Note_on_c,0,63,0
2,371170, Note_on_c,0,75,0
2,371178, Note_on_c,0,74,0
2,371194, Note_on_c,0,79,0
2,371218, Note_on_c,0,67,64
2,371218, Note_on_c,0,63,46
2,371226, Note_on_c,0,72,78
2,371242, Note_on_c,0,63,0
2,371266, Note_on_c,0,67,0
2,371294, Note_on_c,0,72,0
2,371314, Note_on_c,0,84,96
2,371314, Note_on_c,0,75,88
2,371314, Note_on_c,0,79,84
2,371314, Control_c,0,64,88
2,371326, Control_c,0,64,24
2,371338, Control_c,0,64,0
2,371386, Control_c,0,64,24
2,371398, Note_on_c,0,79,0
2,371398, Control_c,0,64,88
2,371402, Note_on_c,0,75,0
2,371402, Note_on_c,0,74,81
2,371406, Note_on_c,0,72,75
2,371410, Control_c,0,64,127
2,371414, Note_on_c,0,67,67
2,371418, Note_on_c,0,84,0
2,371466, Note_on_c,0,74,0
2,371486, Note_on_c,0,84,90
2,371490, Note_on_c,0,77,84
2,371494, Note_on_c,0,79,73
2,371506, Note_on_c,0,72,0
2,371514, Note_on_c,0,79,0
2,371542, Note_on_c,0,77,0
2,371558, Note_on_c,0,84,0
2,371570, Note_on_c,0,72,60
2,371582, Note_on_c,0,75,73
2,371594, Note_on_c,0,67,0
2,371610, Note_on_c,0,72,0
2,371646, Note_on_c,0,75,0
2,371666, Note_on_c,0,87,99
2,371670, Note_on_c,0,79,85
2,371678, Control_c,0,64,88
2,371682, Note_on_c,0,84,53
2,371690, Control_c,0,64,24
2,371702, Control_c,0,64,0
2,371718, Note_on_c,0,84,0
2,371726, Note_on_c,0,79,0
2,371738, Control_c,0,64,40
2,371750, Control_c,0,64,104
2,371754, Note_on_c,0,78,78
2,371758, Note_on_c,0,75,65
2,371758, Control_c,0,64,127
2,371762, Note_on_c,0,72,72
2,371770, Note_on_c,0,87,0
2,371834, Note_on_c,0,75,0
2,371838, Note_on_c,0,87,95
2,371842, Note_on_c,0,80,87
2,371846, Note_on_c,0,72,0
2,371854, Note_on_c,0,84,74
2,371858, Note_on_c,0,78,0
2,371874, Note_on_c,0,84,0
2,371894, Note_on_c,0,80,0
2,371930, Note_on_c,0,75,60
2,371934, Note_on_c,0,72,36
2,371942, Note_on_c,0,79,73
2,371950, Note_on_c,0,87,0
2,371962, Note_on_c,0,72,0
2,371986, Note_on_c,0,75,0
2,372002, Note_on_c,0,79,0
2,372026, Control_c,0,64,56
2,372038, Control_c,0,64,0
2,372054, Note_on_c,0,91,103
2,372058, Note_on_c,0,84,92
2,372058, Note_on_c,0,87,85
2,372094, Control_c,0,64,40
2,372106, Control_c,0,64,127
2,372154, Note_on_c,0,79,83
2,372182, Note_on_c,0,84,0
2,372214, Note_on_c,0,91,0
2,372222, Note_on_c,0,79,0
2,372238, Note_on_c,0,87,0
2,372250, Note_on_c,0,75,72
2,372250, Note_on_c,0,72,66
2,372254, Note_on_c,0,79,79
2,372342, Note_on_c,0,79,0
2,372366, Note_on_c,0,67,75
2,372374, Note_on_c,0,72,0
2,372378, Note_on_c,0,75,0
2,372426, Note_on_c,0,67,0
2,372470, Note_on_c,0,63,77
2,372490, Note_on_c,0,60,49
2,372518, Note_on_c,0,60,0
2,372546, Note_on_c,0,63,0
2,372566, Note_on_c,0,55,83
2,372626, Note_on_c,0,55,0
2,372682, Note_on_c,0,67,89
2,372682, Note_on_c,0,63,67
2,372686, Note_on_c,0,60,74
2,372742, Note_on_c,0,60,0
2,372762, Note_on_c,0,63,0
2,372778, Note_on_c,0,55,76
2,372826, Note_on_c,0,55,0
2,372850, Note_on_c,0,67,0
2,372890, Note_on_c,0,48,70
2,372890, Note_on_c,0,51,70
2,372994, Note_on_c,0,51,0
2,372994, Note_on_c,0,48,0
2,373006, Note_on_c,0,43,83
2,373018, Note_on_c,0,51,23
2,373042, Note_on_c,0,51,0
2,373058, Note_on_c,0,43,0
2,373262, Control_c,0,64,88
2,373274, Control_c,0,64,40
2,373286, Control_c,0,64,0
2,373322, Note_on_c,0,92,99
2,373326, Note_on_c,0,87,79
2,373330, Note_on_c,0,84,86
2,373370, Control_c,0,64,104
2,373382, Control_c,0,64,127
2,373430, Note_on_c,0,80,80
2,373438, Note_on_c,0,84,0
2,373454, Note_on_c,0,92,0
2,373462, Note_on_c,0,87,0
2,373478, Note_on_c,0,80,0
2,373534, Note_on_c,0,75,63
2,373538, Note_on_c,0,80,65
2,373542, Note_on_c,0,72,62
2,373610, Note_on_c,0,80,0
2,373642, Note_on_c,0,68,71
2,373650, Note_on_c,0,72,0
2,373662, Note_on_c,0,75,0
2,373706, Note_on_c,0,68,0
2,373754, Note_on_c,0,60,62
2,373754, Note_on_c,0,63,65
2,373778, Note_on_c,0,60,59
2,373798, Note_on_c,0,60,0
2,373818, Note_on_c,0,60,0
2,373826, Note_on_c,0,63,0
2,373842, Note_on_c,0,55,83
2,373898, Note_on_c,0,55,0
2,373950, Note_on_c,0,68,78
2,373954, Note_on_c,0,60,76
2,373954, Note_on_c,0,63,62
2,374022, Note_on_c,0,60,0
2,374046, Note_on_c,0,63,0
2,374050, Note_on_c,0,56,77
2,374102, Note_on_c,0,56,0
2,374146, Note_on_c,0,68,0
2,374154, Note_on_c,0,51,73
2,374166, Note_on_c,0,48,70
2,374250, Note_on_c,0,48,0
2,374266, Note_on_c,0,51,0
2,374274, Note_on_c,0,43,87
2,374334, Note_on_c,0,43,0
2,374498, Control_c,0,64,72
2,374510, Control_c,0,64,0
2,374582, Note_on_c,0,93,107
2,374586, Note_on_c,0,85,80
2,374586, Note_on_c,0,88,87
2,374610, Control_c,0,64,127
2,374690, Note_on_c,0,81,79
2,374718, Note_on_c,0,85,0
2,374722, Note_on_c,0,93,0
2,374726, Note_on_c,0,88,0
2,374738, Note_on_c,0,81,0
2,374798, Note_on_c,0,81,65
2,374802, Note_on_c,0,76,74
2,374802, Note_on_c,0,73,61
2,374874, Note_on_c,0,81,0
2,374898, Note_on_c,0,69,81
2,374902, Note_on_c,0,76,0
2,374914, Note_on_c,0,73,0
2,374950, Note_on_c,0,69,0
2,375006, Note_on_c,0,64,74
2,375006, Note_on_c,0,61,59
2,375054, Note_on_c,0,61,0
2,375074, Note_on_c,0,64,0
2,375094, Note_on_c,0,55,86
2,375146, Note_on_c,0,55,0
2,375202, Note_on_c,0,61,70
2,375206, Note_on_c,0,69,88
2,375206, Note_on_c,0,64,70
2,375266, Note_on_c,0,61,0
2,375282, Note_on_c,0,64,0
2,375294, Note_on_c,0,57,79
2,375338, Note_on_c,0,57,0
2,375390, Note_on_c,0,69,0
2,375402, Note_on_c,0,49,60
2,375402, Note_on_c,0,52,70
2,375506, Note_on_c,0,52,0
2,375538, Note_on_c,0,49,0
2,375542, Note_on_c,0,43,78
2,375586, Note_on_c,0,43,0
2,375770, Control_c,0,64,104
2,375786, Control_c,0,64,40
2,375794, Control_c,0,64,0
2,375834, Note_on_c,0,94,90
2,375842, Note_on_c,0,89,82
2,375850, Note_on_c,0,86,78
2,375866, Control_c,0,64,72
2,375878, Control_c,0,64,127
2,375926, Note_on_c,0,86,0
2,375938, Note_on_c,0,89,0
2,375946, Note_on_c,0,94,0
2,375946, Note_on_c,0,82,74
2,375990, Note_on_c,0,82,0
2,376050, Note_on_c,0,77,66
2,376054, Note_on_c,0,74,68
2,376078, Note_on_c,0,77,0
2,376090, Note_on_c,0,74,0
2,376162, Note_on_c,0,77,49
2,376162, Note_on_c,0,74,70
2,376162, Note_on_c,0,82,71
2,376218, Note_on_c,0,77,0
2,376222, Note_on_c,0,74,0
2,376254, Note_on_c,0,70,72
2,376262, Note_on_c,0,82,0
2,376294, Note_on_c,0,70,0
2,376350, Note_on_c,0,65,73
2,376354, Note_on_c,0,62,72
2,376394, Note_on_c,0,62,0
2,376398, Note_on_c,0,65,0
2,376478, Note_on_c,0,95,97
2,376478, Note_on_c,0,90,76
2,376482, Note_on_c,0,87,76
2,376482, Control_c,0,64,56
2,376494, Control_c,0,64,0
2,376554, Control_c,0,64,56
2,376562, Control_c,0,64,127
2,376574, Note_on_c,0,87,0
2,376582, Note_on_c,0,90,0
2,376586, Note_on_c,0,95,0
2,376590, Note_on_c,0,83,76
2,376638, Note_on_c,0,83,0
2,376674, Note_on_c,0,78,76
2,376678, Note_on_c,0,75,65
2,376706, Note_on_c,0,78,0
2,376722, Note_on_c,0,75,0
2,376782, Note_on_c,0,83,84
2,376790, Note_on_c,0,78,63
2,376798, Note_on_c,0,75,72
2,376846, Note_on_c,0,75,0
2,376850, Note_on_c,0,78,0
2,376862, Note_on_c,0,83,0
2,376874, Note_on_c,0,71,62
2,376906, Note_on_c,0,71,0
2,376974, Note_on_c,0,63,59
2,376974, Note_on_c,0,66,71
2,377006, Note_on_c,0,63,0
2,377010, Note_on_c,0,66,0
2,377058, Control_c,0,64,88
2,377070, Control_c,0,64,24
2,377074, Note_on_c,0,96,100
2,377078, Note_on_c,0,90,84
2,377078, Note_on_c,0,87,80
2,377078, Control_c,0,64,0
2,377130, Control_c,0,64,72
2,377142, Control_c,0,64,127
2,377174, Note_on_c,0,87,0
2,377174, Note_on_c,0,84,78
2,377178, Note_on_c,0,96,0
2,377186, Note_on_c,0,90,0
2,377218, Note_on_c,0,84,0
2,377270, Note_on_c,0,78,81
2,377274, Note_on_c,0,75,69
2,377306, Note_on_c,0,78,0
2,377322, Note_on_c,0,75,0
2,377378, Note_on_c,0,78,60
2,377378, Note_on_c,0,84,74
2,377378, Note_on_c,0,75,61
2,377434, Note_on_c,0,78,0
2,377446, Note_on_c,0,84,0
2,377458, Note_on_c,0,75,0
2,377458, Note_on_c,0,72,79
2,377502, Note_on_c,0,72,0
2,377558, Note_on_c,0,63,68
2,377558, Note_on_c,0,66,71
2,377586, Note_on_c,0,63,0
2,377602, Note_on_c,0,66,0
2,377670, Note_on_c,0,97,92
2,377670, Control_c,0,64,56
2,377674, Note_on_c,0,91,84
2,377674, Note_on_c,0,88,86
2,377682, Control_c,0,64,0
2,377730, Control_c,0,64,40
2,377742, Control_c,0,64,127
2,377758, Note_on_c,0,88,0
2,377762, Note_on_c,0,85,76
2,377770, Note_on_c,0,97,0
2,377774, Note_on_c,0,91,0
2,377810, Note_on_c,0,85,0
2,377850, Note_on_c,0,79,77
2,377854, Note_on_c,0,76,75
2,377874, Note_on_c,0,76,0
2,377890, Note_on_c,0,79,0
2,377962, Note_on_c,0,85,77
2,377966, Note_on_c,0,79,68
2,377974, Note_on_c,0,76,73
2,378002, Note_on_c,0,76,0
2,378038, Note_on_c,0,79,0
2,378038, Note_on_c,0,73,62
2,378058, Note_on_c,0,85,0
2,378078, Note_on_c,0,73,0
2,378126, Note_on_c,0,67,73
2,378126, Note_on_c,0,64,71
2,378150, Note_on_c,0,64,0
2,378166, Note_on_c,0,67,0
2,378246, Control_c,0,64,88
2,378250, Note_on_c,0,98,100
2,378250, Note_on_c,0,92,89
2,378250, Note_on_c,0,89,77
2,378262, Control_c,0,64,0
2,378322, Control_c,0,64,56
2,378334, Control_c,0,64,127
2,378350, Note_on_c,0,86,81
2,378354, Note_on_c,0,92,0
2,378354, Note_on_c,0,98,0
2,378362, Note_on_c,0,89,0
2,378406, Note_on_c,0,86,0
2,378430, Note_on_c,0,77,72
2,378434, Note_on_c,0,80,75
2,378454, Note_on_c,0,80,0
2,378474, Note_on_c,0,77,0
2,378538, Note_on_c,0,86,86
2,378550, Note_on_c,0,80,73
2,378550, Note_on_c,0,77,69
2,378598, Note_on_c,0,80,0
2,378614, Note_on_c,0,77,0
2,378626, Note_on_c,0,74,73
2,378638, Note_on_c,0,86,0
2,378670, Note_on_c,0,74,0
2,378710, Note_on_c,0,65,60
2,378710, Note_on_c,0,68,72
2,378758, Note_on_c,0,68,0
2,378758, Note_on_c,0,65,0
2,378846, Note_on_c,0,99,95
2,378846, Note_on_c,0,93,81
2,378850, Note_on_c,0,90,82
2,378850, Control_c,0,64,104
2,378862, Control_c,0,64,40
2,378874, Control_c,0,64,0
2,378922, Control_c,0,64,104
2,378930, Control_c,0,64,127
2,378946, Note_on_c,0,90,0
2,378950, Note_on_c,0,99,0
2,378950, Note_on_c,0,87,75
2,378958, Note_on_c,0,93,0
2,378998, Note_on_c,0,87,0
2,379022, Note_on_c,0,81,76
2,379022, Note_on_c,0,78,74
2,379050, Note_on_c,0,78,0
2,379062, Note_on_c,0,81,0
2,379130, Note_on_c,0,87,84
2,379142, Note_on_c,0,81,60
2,379154, Note_on_c,0,78,65
2,379178, Note_on_c,0,78,0
2,379222, Note_on_c,0,75,77
2,379234, Note_on_c,0,81,0
2,379262, Note_on_c,0,87,0
2,379270, Note_on_c,0,75,0
2,379322, Note_on_c,0,69,69
2,379330, Note_on_c,0,66,62
2,379354, Note_on_c,0,66,0
2,379366, Note_on_c,0,69,0
2,379446, Note_on_c,0,100,96
2,379446, Note_on_c,0,91,77
2,379450, Note_on_c,0,94,87
2,379450, Control_c,0,64,40
2,379462, Control_c,0,64,0
2,379530, Note_on_c,0,88,83
2,379534, Control_c,0,64,104
2,379538, Note_on_c,0,94,0
2,379546, Note_on_c,0,91,0
2,379546, Control_c,0,64,127
2,379562, Note_on_c,0,100,0
2,379602, Note_on_c,0,88,0
2,379614, Note_on_c,0,79,76
2,379618, Note_on_c,0,82,78
2,379622, Note_on_c,0,82,63
2,379646, Note_on_c,0,82,0
2,379658, Note_on_c,0,79,0
2,379662, Note_on_c,0,82,0
2,379722, Note_on_c,0,101,99
2,379726, Note_on_c,0,95,84
2,379730, Note_on_c,0,92,79
2,379814, Note_on_c,0,95,0
2,379818, Note_on_c,0,92,0
2,379818, Note_on_c,0,89,83
2,379830, Note_on_c,0,101,0
2,379882, Note_on_c,0,89,0
2,379898, Note_on_c,0,83,83
2,379898, Note_on_c,0,80,76
2,379958, Note_on_c,0,80,0
2,379958, Note_on_c,0,83,0
2,379998, Note_on_c,0,102,93
2,379998, Note_on_c,0,93,88
2,379998, Note_on_c,0,96,85
2,380014, Control_c,0,64,88
2,380026, Control_c,0,64,0
2,380062, Control_c,0,64,24
2,380074, Control_c,0,64,88
2,380086, Control_c,0,64,127
2,380094, Note_on_c,0,93,0
2,380094, Note_on_c,0,102,0
2,380094, Note_on_c,0,90,76
2,380098, Note_on_c,0,96,0
2,380174, Note_on_c,0,84,86
2,380174, Note_on_c,0,81,70
2,380178, Note_on_c,0,90,0
2,380242, Note_on_c,0,81,0
2,380242, Note_on_c,0,84,0
2,380282, Note_on_c,0,103,102
2,380286, Note_on_c,0,98,87
2,380286, Note_on_c,0,95,84
2,380374, Note_on_c,0,91,85
2,380410, Note_on_c,0,95,0
2,380430, Note_on_c,0,98,0
2,380442, Note_on_c,0,103,0
2,380446, Note_on_c,0,91,0
2,380478, Note_on_c,0,86,85
2,380478, Note_on_c,0,83,79
2,380530, Note_on_c,0,83,0
2,380530, Note_on_c,0,86,0
2,380545, Control_c,0,64,0
2,380750, Note_on_c,0,89,94
2,380750, Note_on_c,0,77,89
2,380750, Note_on_c,0,53,68
2,380754, Note_on_c,0,65,66
2,380778, Note_on_c,0,53,0
2,380782, Note_on_c,0,65,0
2,380790, Note_on_c,0,77,0
2,380802, Note_on_c,0,89,0
2,380850, Note_on_c,0,79,93
2,380850, Note_on_c,0,91,103
2,380850, Note_on_c,0,67,75
2,380858, Note_on_c,0,55,77
2,380870, Note_on_c,0,55,0
2,380886, Note_on_c,0,67,0
2,380890, Note_on_c,0,79,0
2,380898, Note_on_c,0,91,0
2,380974, Note_on_c,0,92,102
2,380974, Note_on_c,0,80,103
2,380978, Note_on_c,0,68,77
2,380982, Note_on_c,0,56,70
2,381014, Control_c,0,64,24
2,381022, Control_c,0,64,88
2,381030, Control_c,0,64,127
2,381190, Note_on_c,0,92,0
2,381194, Note_on_c,0,68,0
2,381198, Note_on_c,0,56,0
2,381202, Note_on_c,0,80,0
2,381422, Control_c,0,64,104
2,381430, Note_on_c,0,74,82
2,381430, Note_on_c,0,86,88
2,381430, Control_c,0,64,72
2,381438, Note_on_c,0,62,63
2,381438, Control_c,0,64,56
2,381442, Note_on_c,0,50,68
2,381446, Control_c,0,64,40
2,381454, Control_c,0,64,24
2,381462, Note_on_c,0,50,0
2,381462, Note_on_c,0,74,0
2,381466, Control_c,0,64,0
2,381470, Note_on_c,0,62,0
2,381474, Note_on_c,0,86,0
2,381534, Note_on_c,0,87,85
2,381534, Note_on_c,0,75,86
2,381534, Note_on_c,0,51,76
2,381538, Note_on_c,0,63,67
2,381566, Note_on_c,0,63,0
2,381570, Note_on_c,0,51,0
2,381574, Note_on_c,0,75,0
2,381606, Note_on_c,0,87,0
2,381646, Note_on_c,0,89,94
2,381646, Control_c,0,64,72
2,381650, Note_on_c,0,77,87
2,381650, Note_on_c,0,65,70
2,381654, Note_on_c,0,53,70
2,381654, Control_c,0,64,127
2,381670, Note_on_c,0,53,0
2,381670, Note_on_c,0,65,0
2,381686, Note_on_c,0,77,0
2,381686, Note_on_c,0,89,0
2,381758, Note_on_c,0,59,64
2,381758, Note_on_c,0,71,83
2,381758, Note_on_c,0,83,76
2,381762, Note_on_c,0,47,65
2,381778, Note_on_c,0,47,0
2,381782, Note_on_c,0,59,0
2,381786, Note_on_c,0,83,0
2,381790, Note_on_c,0,71,0
2,381858, Note_on_c,0,72,89
2,381858, Note_on_c,0,84,93
2,381866, Note_on_c,0,60,70
2,381870, Note_on_c,0,48,75
2,381882, Control_c,0,64,88
2,381890, Note_on_c,0,48,0
2,381890, Control_c,0,64,72
2,381894, Note_on_c,0,60,0
2,381894, Note_on_c,0,72,0
2,381898, Note_on_c,0,84,0
2,381898, Control_c,0,64,24
2,381910, Control_c,0,64,0
2,381966, Note_on_c,0,86,92
2,381966, Note_on_c,0,74,82
2,381970, Note_on_c,0,62,64
2,381974, Control_c,0,64,56
2,381978, Note_on_c,0,50,53
2,381982, Control_c,0,64,127
2,381990, Note_on_c,0,62,0
2,381998, Note_on_c,0,50,0
2,382002, Note_on_c,0,86,0
2,382006, Note_on_c,0,74,0
2,382078, Note_on_c,0,77,93
2,382078, Note_on_c,0,65,81
2,382082, Note_on_c,0,53,67
2,382086, Note_on_c,0,41,66
2,382102, Note_on_c,0,41,0
2,382102, Note_on_c,0,53,0
2,382106, Note_on_c,0,65,0
2,382110, Note_on_c,0,77,0
2,382178, Note_on_c,0,79,94
2,382178, Note_on_c,0,67,81
2,382186, Note_on_c,0,55,66
2,382190, Note_on_c,0,43,56
2,382206, Note_on_c,0,43,0
2,382210, Note_on_c,0,55,0
2,382210, Note_on_c,0,67,0
2,382218, Note_on_c,0,79,0
2,382226, Control_c,0,64,104
2,382234, Control_c,0,64,72
2,382242, Control_c,0,64,0
2,382282, Note_on_c,0,80,89
2,382286, Note_on_c,0,68,86
2,382290, Note_on_c,0,56,72
2,382290, Note_on_c,0,44,73
2,382306, Control_c,0,64,72
2,382310, Note_on_c,0,44,0
2,382314, Control_c,0,64,127
2,382318, Note_on_c,0,56,0
2,382318, Note_on_c,0,68,0
2,382330, Note_on_c,0,80,0
2,382398, Note_on_c,0,62,82
2,382398, Note_on_c,0,74,74
2,382398, Note_on_c,0,50,70
2,382402, Note_on_c,0,38,69
2,382418, Note_on_c,0,38,0
2,382418, Note_on_c,0,50,0
2,382422, Note_on_c,0,62,0
2,382426, Note_on_c,0,74,0
2,382498, Note_on_c,0,63,79
2,382498, Note_on_c,0,75,79
2,382502, Note_on_c,0,39,65
2,382502, Note_on_c,0,51,69
2,382534, Note_on_c,0,51,0
2,382534, Note_on_c,0,63,0
2,382538, Note_on_c,0,39,0
2,382554, Note_on_c,0,75,0
2,382562, Control_c,0,64,104
2,382570, Control_c,0,64,24
2,382578, Control_c,0,64,0
2,382610, Note_on_c,0,65,84
2,382610, Note_on_c,0,77,97
2,382618, Note_on_c,0,53,74
2,382622, Note_on_c,0,41,57
2,382622, Control_c,0,64,72
2,382634, Note_on_c,0,53,0
2,382634, Control_c,0,64,127
2,382638, Note_on_c,0,41,0
2,382642, Note_on_c,0,77,0
2,382642, Note_on_c,0,65,0
2,382718, Note_on_c,0,65,87
2,382722, Note_on_c,0,53,89
2,382726, Note_on_c,0,41,68
2,382726, Note_on_c,0,29,74
2,382742, Note_on_c,0,53,0
2,382746, Note_on_c,0,29,0
2,382746, Note_on_c,0,41,0
2,382754, Note_on_c,0,65,0
2,382822, Note_on_c,0,68,80
2,382822, Note_on_c,0,56,86
2,382830, Note_on_c,0,44,77
2,382830, Note_on_c,0,32,65
2,382846, Note_on_c,0,32,0
2,382850, Note_on_c,0,44,0
2,382854, Note_on_c,0,56,0
2,382858, Note_on_c,0,68,0
2,382930, Note_on_c,0,59,96
2,382934, Note_on_c,0,35,75
2,382934, Note_on_c,0,71,89
2,382934, Note_on_c,0,47,82
2,382954, Note_on_c,0,47,0
2,382958, Note_on_c,0,59,0
2,382958, Note_on_c,0,35,0
2,382966, Note_on_c,0,71,0
2,383038, Note_on_c,0,74,102
2,383038, Note_on_c,0,62,90
2,383038, Note_on_c,0,50,74
2,383042, Note_on_c,0,38,65
2,383062, Note_on_c,0,38,0
2,383066, Note_on_c,0,50,0
2,383066, Note_on_c,0,62,0
2,383074, Note_on_c,0,74,0
2,383142, Note_on_c,0,77,99
2,383142, Note_on_c,0,65,86
2,383150, Note_on_c,0,53,75
2,383154, Note_on_c,0,41,72
2,383178, Note_on_c,0,65,0
2,383178, Note_on_c,0,77,0
2,383190, Note_on_c,0,53,0
2,383190, Note_on_c,0,41,0
2,383233, Control_c,0,64,0
2,383382, Note_on_c,0,90,97
2,383382, Note_on_c,0,78,89
2,383382, Control_c,0,64,56
2,383386, Note_on_c,0,54,73
2,383386, Note_on_c,0,66,73
2,383394, Control_c,0,64,104
2,383402, Control_c,0,64,127
2,383414, Note_on_c,0,78,0
2,383418, Note_on_c,0,66,0
2,383418, Note_on_c,0,54,0
2,383426, Note_on_c,0,90,0
2,383486, Note_on_c,0,92,105
2,383486, Note_on_c,0,80,96
2,383486, Note_on_c,0,68,77
2,383486, Note_on_c,0,56,68
2,383518, Note_on_c,0,68,0
2,383522, Note_on_c,0,56,0
2,383522, Note_on_c,0,80,0
2,383542, Note_on_c,0,92,0
2,383606, Note_on_c,0,81,97
2,383606, Note_on_c,0,93,110
2,383606, Note_on_c,0,69,79
2,383610, Note_on_c,0,57,75
2,383626, Control_c,0,64,104
2,383638, Control_c,0,64,72
2,383646, Control_c,0,64,24
2,383654, Control_c,0,64,0
2,383726, Control_c,0,64,40
2,383738, Control_c,0,64,88
2,383746, Control_c,0,64,127
2,383946, Note_on_c,0,93,0
2,383970, Note_on_c,0,81,0
2,383978, Note_on_c,0,69,0
2,383986, Note_on_c,0,57,0
2,384090, Note_on_c,0,75,80
2,384090, Note_on_c,0,87,87
2,384090, Note_on_c,0,63,69
2,384094, Note_on_c,0,51,68
2,384122, Note_on_c,0,63,0
2,384130, Note_on_c,0,75,0
2,384138, Note_on_c,0,87,0
2,384138, Note_on_c,0,51,0
2,384186, Note_on_c,0,65,65
2,384186, Note_on_c,0,89,93
2,384190, Note_on_c,0,77,83
2,384202, Note_on_c,0,53,57
2,384218, Note_on_c,0,65,0
2,384222, Note_on_c,0,53,0
2,384222, Note_on_c,0,77,0
2,384234, Note_on_c,0,89,0
2,384242, Control_c,0,64,104
2,384250, Control_c,0,64,56
2,384262, Control_c,0,64,0
2,384294, Note_on_c,0,90,84
2,384294, Note_on_c,0,78,85
2,384298, Note_on_c,0,66,67
2,384298, Note_on_c,0,54,67
2,384314, Control_c,0,64,88
2,384326, Note_on_c,0,54,0
2,384326, Note_on_c,0,66,0
2,384326, Note_on_c,0,78,0
2,384326, Control_c,0,64,127
2,384334, Note_on_c,0,90,0
2,384398, Note_on_c,0,84,90
2,384398, Note_on_c,0,72,87
2,384402, Note_on_c,0,60,68
2,384402, Note_on_c,0,48,74
2,384426, Note_on_c,0,48,0
2,384426, Note_on_c,0,60,0
2,384430, Note_on_c,0,72,0
2,384438, Note_on_c,0,84,0
2,384502, Note_on_c,0,86,92
2,384502, Note_on_c,0,74,82
2,384506, Note_on_c,0,62,70
2,384510, Note_on_c,0,50,72
2,384530, Note_on_c,0,50,0
2,384538, Note_on_c,0,74,0
2,384542, Note_on_c,0,62,0
2,384542, Note_on_c,0,86,0
2,384566, Control_c,0,64,40
2,384578, Control_c,0,64,0
2,384610, Note_on_c,0,87,89
2,384610, Note_on_c,0,75,90
2,384610, Note_on_c,0,63,73
2,384610, Note_on_c,0,51,77
2,384622, Control_c,0,64,24
2,384626, Note_on_c,0,51,0
2,384630, Control_c,0,64,88
2,384638, Note_on_c,0,63,0
2,384642, Note_on_c,0,75,0
2,384642, Control_c,0,64,127
2,384650, Note_on_c,0,87,0
2,384718, Note_on_c,0,78,87
2,384722, Note_on_c,0,66,87
2,384726, Note_on_c,0,54,71
2,384730, Note_on_c,0,42,55
2,384746, Note_on_c,0,54,0
2,384746, Note_on_c,0,66,0
2,384754, Note_on_c,0,78,0
2,384774, Note_on_c,0,42,0
2,384818, Note_on_c,0,68,85
2,384818, Note_on_c,0,80,85
2,384826, Note_on_c,0,56,68
2,384826, Note_on_c,0,44,70
2,384850, Note_on_c,0,44,0
2,384850, Note_on_c,0,56,0
2,384862, Note_on_c,0,68,0
2,384882, Note_on_c,0,80,0
2,384886, Control_c,0,64,88
2,384894, Control_c,0,64,0
2,384926, Note_on_c,0,81,90
2,384926, Note_on_c,0,57,70
2,384930, Note_on_c,0,69,79
2,384938, Note_on_c,0,45,68
2,384950, Control_c,0,64,56
2,384958, Control_c,0,64,104
2,384966, Note_on_c,0,69,0
2,384966, Note_on_c,0,57,0
2,384966, Control_c,0,64,127
2,384970, Note_on_c,0,81,0
2,384982, Note_on_c,0,45,0
2,385034, Note_on_c,0,63,77
2,385034, Note_on_c,0,75,82
2,385034, Note_on_c,0,51,71
2,385038, Note_on_c,0,39,52
2,385058, Note_on_c,0,39,0
2,385058, Note_on_c,0,51,0
2,385066, Note_on_c,0,63,0
2,385074, Note_on_c,0,75,0
2,385134, Note_on_c,0,77,93
2,385134, Note_on_c,0,65,79
2,385138, Note_on_c,0,53,66
2,385142, Note_on_c,0,41,68
2,385166, Note_on_c,0,53,0
2,385170, Note_on_c,0,41,0
2,385174, Note_on_c,0,65,0
2,385178, Note_on_c,0,77,0
2,385202, Control_c,0,64,88
2,385210, Control_c,0,64,0
2,385250, Note_on_c,0,54,69
2,385250, Note_on_c,0,66,84
2,385250, Note_on_c,0,42,69
2,385250, Note_on_c,0,78,85
2,385266, Control_c,0,64,72
2,385274, Note_on_c,0,42,0
2,385274, Control_c,0,64,127
2,385278, Note_on_c,0,54,0
2,385282, Note_on_c,0,66,0
2,385282, Note_on_c,0,78,0
2,385358, Note_on_c,0,30,65
2,385358, Note_on_c,0,66,87
2,385358, Note_on_c,0,42,81
2,385362, Note_on_c,0,54,85
2,385386, Note_on_c,0,42,0
2,385390, Note_on_c,0,54,0
2,385390, Note_on_c,0,30,0
2,385394, Note_on_c,0,66,0
2,385466, Note_on_c,0,57,84
2,385466, Note_on_c,0,69,94
2,385470, Note_on_c,0,45,81
2,385470, Note_on_c,0,33,70
2,385490, Note_on_c,0,33,0
2,385490, Note_on_c,0,45,0
2,385494, Note_on_c,0,57,0
2,385502, Note_on_c,0,69,0
2,385574, Note_on_c,0,72,96
2,385574, Note_on_c,0,60,85
2,385574, Note_on_c,0,48,73
2,385574, Note_on_c,0,36,52
2,385598, Note_on_c,0,36,0
2,385606, Note_on_c,0,60,0
2,385610, Note_on_c,0,72,0
2,385618, Note_on_c,0,48,0
2,385686, Note_on_c,0,63,83
2,385686, Note_on_c,0,75,88
2,385686, Note_on_c,0,51,58
2,385686, Note_on_c,0,39,65
2,385702, Note_on_c,0,51,0
2,385714, Note_on_c,0,63,0
2,385722, Note_on_c,0,75,0
2,385742, Note_on_c,0,39,0
2,385794, Note_on_c,0,66,84
2,385794, Note_on_c,0,78,84
2,385802, Note_on_c,0,42,52
2,385806, Note_on_c,0,56,54
2,385818, Note_on_c,0,56,0
2,385818, Note_on_c,0,42,0
2,385830, Note_on_c,0,66,0
2,385838, Note_on_c,0,78,0
2,385918, Control_c,0,64,88
2,385926, Control_c,0,64,56
2,385934, Control_c,0,64,0
2,386014, Control_c,0,64,56
2,386026, Note_on_c,0,65,81
2,386026, Note_on_c,0,77,90
2,386026, Control_c,0,64,127
2,386034, Note_on_c,0,53,68
2,386038, Note_on_c,0,41,66
2,386058, Note_on_c,0,53,0
2,386062, Note_on_c,0,65,0
2,386066, Note_on_c,0,77,0
2,386066, Note_on_c,0,41,0
2,386130, Note_on_c,0,68,85
2,386134, Note_on_c,0,80,84
2,386134, Note_on_c,0,56,71
2,386134, Note_on_c,0,44,69
2,386150, Note_on_c,0,44,0
2,386158, Note_on_c,0,56,0
2,386170, Note_on_c,0,68,0
2,386182, Note_on_c,0,80,0
2,386234, Note_on_c,0,59,59
2,386238, Note_on_c,0,71,81
2,386238, Note_on_c,0,83,93
2,386238, Note_on_c,0,47,66
2,386254, Note_on_c,0,47,0
2,386262, Note_on_c,0,59,0
2,386270, Note_on_c,0,71,0
2,386278, Note_on_c,0,83,0
2,386346, Note_on_c,0,74,76
2,386346, Note_on_c,0,86,82
2,386346, Note_on_c,0,62,71
2,386350, Note_on_c,0,50,74
2,386366, Note_on_c,0,50,0
2,386366, Note_on_c,0,62,0
2,386378, Note_on_c,0,86,0
2,386378, Note_on_c,0,74,0
2,386450, Note_on_c,0,89,90
2,386454, Note_on_c,0,77,82
2,386458, Note_on_c,0,65,68
2,386466, Note_on_c,0,53,49
2,386482, Note_on_c,0,65,0
2,386486, Note_on_c,0,53,0
2,386490, Note_on_c,0,77,0
2,386490, Note_on_c,0,89,0
2,386566, Control_c,0,64,104
2,386578, Control_c,0,64,88
2,386586, Control_c,0,64,56
2,386594, Control_c,0,64,24
2,386602, Control_c,0,64,0
2,386670, Note_on_c,0,68,83
2,386670, Note_on_c,0,80,87
2,386674, Note_on_c,0,56,74
2,386678, Note_on_c,0,44,73
2,386678, Control_c,0,64,72
2,386686, Control_c,0,64,127
2,386706, Note_on_c,0,44,0
2,386706, Note_on_c,0,56,0
2,386718, Note_on_c,0,68,0
2,386722, Note_on_c,0,80,0
2,386774, Note_on_c,0,83,100
2,386774, Note_on_c,0,71,84
2,386774, Note_on_c,0,59,69
2,386778, Note_on_c,0,47,75
2,386802, Note_on_c,0,47,0
2,386802, Note_on_c,0,59,0
2,386806, Note_on_c,0,71,0
2,386814, Note_on_c,0,83,0
2,386878, Note_on_c,0,73,88
2,386882, Note_on_c,0,85,86
2,386886, Note_on_c,0,49,72
2,386886, Note_on_c,0,61,69
2,386902, Note_on_c,0,49,0
2,386906, Note_on_c,0,61,0
2,386918, Note_on_c,0,73,0
2,386926, Note_on_c,0,85,0
2,386982, Note_on_c,0,65,68
2,386986, Note_on_c,0,77,88
2,386986, Note_on_c,0,89,99
2,386986, Note_on_c,0,53,69
2,387006, Note_on_c,0,53,0
2,387010, Note_on_c,0,65,0
2,387014, Note_on_c,0,77,0
2,387022, Note_on_c,0,89,0
2,387090, Note_on_c,0,92,95
2,387094, Note_on_c,0,80,95
2,387094, Note_on_c,0,68,65
2,387098, Note_on_c,0,56,64
2,387122, Note_on_c,0,56,0
2,387122, Note_on_c,0,68,0
2,387126, Note_on_c,0,80,0
2,387130, Note_on_c,0,92,0
2,387202, Control_c,0,64,104
2,387210, Control_c,0,64,72
2,387218, Control_c,0,64,24
2,387230, Control_c,0,64,0
2,387290, Control_c,0,64,72
2,387298, Control_c,0,64,127
2,387306, Note_on_c,0,68,80
2,387306, Note_on_c,0,80,87
2,387310, Note_on_c,0,44,69
2,387310, Note_on_c,0,56,63
2,387334, Note_on_c,0,44,0
2,387338, Note_on_c,0,56,0
2,387346, Note_on_c,0,68,0
2,387354, Note_on_c,0,80,0
2,387410, Note_on_c,0,60,71
2,387414, Note_on_c,0,48,77
2,387418, Note_on_c,0,72,89
2,387418, Note_on_c,0,84,96
2,387430, Note_on_c,0,48,0
2,387430, Note_on_c,0,60,0
2,387446, Note_on_c,0,72,0
2,387450, Note_on_c,0,84,0
2,387522, Note_on_c,0,89,97
2,387526, Note_on_c,0,65,67
2,387530, Note_on_c,0,53,67
2,387534, Note_on_c,0,77,74
2,387550, Note_on_c,0,65,0
2,387554, Note_on_c,0,53,0
2,387558, Note_on_c,0,77,0
2,387562, Note_on_c,0,89,0
2,387626, Note_on_c,0,80,85
2,387626, Note_on_c,0,92,95
2,387634, Note_on_c,0,68,64
2,387634, Note_on_c,0,56,64
2,387662, Note_on_c,0,56,0
2,387662, Note_on_c,0,68,0
2,387662, Note_on_c,0,80,0
2,387670, Note_on_c,0,92,0
2,387734, Note_on_c,0,96,87
2,387738, Note_on_c,0,72,76
2,387738, Note_on_c,0,84,82
2,387742, Note_on_c,0,60,71
2,387766, Note_on_c,0,72,0
2,387766, Note_on_c,0,96,0
2,387770, Note_on_c,0,84,0
2,387786, Note_on_c,0,60,0
2,387850, Control_c,0,64,104
2,387858, Control_c,0,64,72
2,387870, Control_c,0,64,24
2,387878, Control_c,0,64,0
2,387942, Control_c,0,64,40
2,387950, Control_c,0,64,104
2,387954, Note_on_c,0,68,82
2,387958, Note_on_c,0,80,88
2,387958, Note_on_c,0,56,73
2,387958, Note_on_c,0,44,69
2,387962, Control_c,0,64,127
2,387990, Note_on_c,0,44,0
2,387990, Note_on_c,0,56,0
2,387994, Note_on_c,0,68,0
2,388002, Note_on_c,0,80,0
2,388066, Note_on_c,0,62,76
2,388066, Note_on_c,0,86,94
2,388070, Note_on_c,0,74,90
2,388070, Note_on_c,0,50,82
2,388086, Note_on_c,0,50,0
2,388098, Note_on_c,0,62,0
2,388098, Note_on_c,0,86,0
2,388098, Note_on_c,0,74,0
2,388174, Note_on_c,0,77,96
2,388174, Note_on_c,0,89,97
2,388178, Note_on_c,0,65,70
2,388178, Note_on_c,0,53,80
2,388194, Note_on_c,0,53,0
2,388202, Note_on_c,0,65,0
2,388206, Note_on_c,0,77,0
2,388210, Note_on_c,0,89,0
2,388274, Note_on_c,0,68,73
2,388274, Note_on_c,0,56,73
2,388278, Note_on_c,0,80,91
2,388278, Note_on_c,0,92,96
2,388302, Note_on_c,0,56,0
2,388302, Note_on_c,0,68,0
2,388306, Note_on_c,0,80,0
2,388322, Note_on_c,0,92,0
2,388394, Note_on_c,0,74,77
2,388398, Note_on_c,0,62,75
2,388398, Note_on_c,0,98,99
2,388402, Note_on_c,0,86,89
2,388422, Note_on_c,0,74,0
2,388426, Note_on_c,0,62,0
2,388430, Note_on_c,0,98,0
2,388430, Note_on_c,0,86,0
2,388538, Control_c,0,64,104
2,388550, Control_c,0,64,56
2,388558, Control_c,0,64,0
2,388622, Control_c,0,64,40
2,388630, Control_c,0,64,104
2,388634, Note_on_c,0,72,85
2,388634, Note_on_c,0,84,96
2,388634, Note_on_c,0,60,73
2,388638, Note_on_c,0,48,76
2,388638, Control_c,0,64,127
2,388662, Note_on_c,0,48,0
2,388666, Note_on_c,0,60,0
2,388670, Note_on_c,0,72,0
2,388678, Note_on_c,0,84,0
2,388746, Note_on_c,0,74,94
2,388746, Note_on_c,0,86,102
2,388758, Note_on_c,0,50,70
2,388758, Note_on_c,0,62,61
2,388774, Note_on_c,0,74,0
2,388778, Note_on_c,0,50,0
2,388782, Note_on_c,0,62,0
2,388786, Note_on_c,0,86,0
2,388870, Note_on_c,0,90,92
2,388870, Note_on_c,0,78,96
2,388874, Note_on_c,0,66,75
2,388874, Note_on_c,0,54,71
2,388890, Note_on_c,0,54,0
2,388898, Note_on_c,0,66,0
2,388902, Note_on_c,0,78,0
2,388914, Note_on_c,0,90,0
2,388998, Note_on_c,0,72,83
2,388998, Note_on_c,0,96,107
2,388998, Note_on_c,0,84,94
2,388998, Note_on_c,0,60,83
2,389030, Note_on_c,0,60,0
2,389030, Note_on_c,0,72,0
2,389034, Note_on_c,0,84,0
2,389034, Note_on_c,0,96,0
2,389118, Note_on_c,0,98,105
2,389118, Note_on_c,0,86,105
2,389118, Note_on_c,0,74,81
2,389118, Note_on_c,0,62,75
2,389150, Note_on_c,0,62,0
2,389162, Note_on_c,0,86,0
2,389166, Note_on_c,0,74,0
2,389182, Note_on_c,0,98,0
2,389290, Note_on_c,0,99,102
2,389290, Note_on_c,0,75,90
2,389290, Note_on_c,0,87,95
2,389294, Note_on_c,0,63,82
2,389318, Control_c,0,64,40
2,389326, Control_c,0,64,0
2,389382, Control_c,0,64,127
2,389410, Note_on_c,0,63,0
2,389414, Note_on_c,0,99,0
2,389414, Note_on_c,0,75,0
2,389414, Note_on_c,0,87,0
2,389466, Note_on_c,0,98,99
2,389470, Note_on_c,0,86,92
2,389470, Note_on_c,0,74,74
2,389474, Note_on_c,0,62,68
2,389510, Note_on_c,0,74,0
2,389514, Note_on_c,0,62,0
2,389514, Note_on_c,0,86,0
2,389522, Note_on_c,0,98,0
2,389606, Note_on_c,0,96,94
2,389606, Note_on_c,0,72,76
2,389606, Note_on_c,0,60,75
2,389606, Note_on_c,0,84,94
2,389638, Note_on_c,0,60,0
2,389642, Note_on_c,0,96,0
2,389642, Note_on_c,0,72,0
2,389642, Note_on_c,0,84,0
2,389722, Note_on_c,0,92,89
2,389730, Note_on_c,0,80,89
2,389734, Note_on_c,0,68,77
2,389734, Note_on_c,0,56,73
2,389766, Note_on_c,0,56,0
2,389766, Note_on_c,0,68,0
2,389770, Note_on_c,0,80,0
2,389778, Note_on_c,0,92,0
2,389846, Note_on_c,0,67,68
2,389846, Note_on_c,0,91,93
2,389846, Note_on_c,0,79,86
2,389850, Note_on_c,0,55,62
2,389882, Note_on_c,0,67,0
2,389890, Note_on_c,0,55,0
2,389890, Note_on_c,0,79,0
2,389894, Note_on_c,0,91,0
2,389958, Note_on_c,0,89,90
2,389962, Note_on_c,0,77,90
2,389962, Note_on_c,0,65,67
2,389966, Note_on_c,0,53,70
2,390002, Note_on_c,0,65,0
2,390002, Note_on_c,0,77,0
2,390006, Note_on_c,0,89,0
2,390010, Note_on_c,0,53,0
2,390074, Note_on_c,0,87,85
2,390074, Note_on_c,0,75,89
2,390082, Note_on_c,0,63,77
2,390082, Note_on_c,0,51,76
2,390122, Note_on_c,0,63,0
2,390134, Note_on_c,0,51,0
2,390138, Note_on_c,0,75,0
2,390138, Note_on_c,0,87,0
2,390194, Note_on_c,0,86,94
2,390194, Note_on_c,0,74,92
2,390194, Note_on_c,0,62,72
2,390194, Note_on_c,0,50,72
2,390234, Note_on_c,0,62,0
2,390238, Note_on_c,0,50,0
2,390246, Note_on_c,0,74,0
2,390246, Note_on_c,0,86,0
2,390306, Note_on_c,0,84,96
2,390310, Note_on_c,0,72,93
2,390310, Note_on_c,0,60,76
2,390318, Note_on_c,0,48,78
2,390346, Note_on_c,0,48,0
2,390346, Note_on_c,0,84,0
2,390350, Note_on_c,0,60,0
2,390350, Note_on_c,0,72,0
2,390430, Note_on_c,0,80,92
2,390434, Note_on_c,0,68,90
2,390438, Control_c,0,64,104
2,390442, Note_on_c,0,56,73
2,390446, Note_on_c,0,44,71
2,390446, Control_c,0,64,40
2,390454, Control_c,0,64,0
2,390482, Note_on_c,0,56,0
2,390482, Control_c,0,64,72
2,390486, Note_on_c,0,44,0
2,390490, Note_on_c,0,68,0
2,390490, Control_c,0,64,127
2,390502, Note_on_c,0,80,0
2,390562, Note_on_c,0,79,97
2,390562, Note_on_c,0,67,88
2,390566, Note_on_c,0,55,77
2,390570, Note_on_c,0,43,76
2,390582, Note_on_c,0,78,36
2,390598, Note_on_c,0,78,0
2,390610, Note_on_c,0,55,0
2,390614, Note_on_c,0,43,0
2,390622, Note_on_c,0,67,0
2,390626, Note_on_c,0,79,0
2,390690, Note_on_c,0,77,97
2,390690, Note_on_c,0,65,88
2,390690, Control_c,0,64,104
2,390694, Note_on_c,0,53,81
2,390702, Note_on_c,0,41,73
2,390702, Control_c,0,64,40
2,390710, Control_c,0,64,0
2,390718, Control_c,0,64,40
2,390726, Control_c,0,64,88
2,390734, Note_on_c,0,53,0
2,390734, Note_on_c,0,77,0
2,390734, Note_on_c,0,65,0
2,390738, Note_on_c,0,41,0
2,390738, Control_c,0,64,127
2,390822, Note_on_c,0,75,91
2,390822, Note_on_c,0,63,85
2,390830, Note_on_c,0,51,87
2,390834, Note_on_c,0,39,69
2,390894, Note_on_c,0,75,0
2,390898, Note_on_c,0,63,0
2,390938, Note_on_c,0,51,0
2,390946, Note_on_c,0,39,0
2,390990, Note_on_c,0,62,85
2,390990, Note_on_c,0,74,96
2,390994, Note_on_c,0,50,84
2,390998, Note_on_c,0,38,79
2,391006, Control_c,0,64,56
2,391014, Control_c,0,64,24
2,391022, Control_c,0,64,40
2,391034, Control_c,0,64,88
2,391042, Control_c,0,64,127
2,391054, Note_on_c,0,38,0
2,391054, Note_on_c,0,50,0
2,391054, Note_on_c,0,74,0
2,391066, Note_on_c,0,62,0
2,391170, Note_on_c,0,60,88
2,391174, Note_on_c,0,72,96
2,391174, Note_on_c,0,48,90
2,391174, Note_on_c,0,36,76
2,391210, Note_on_c,0,72,0
2,391218, Note_on_c,0,36,0
2,391218, Note_on_c,0,48,0
2,391222, Note_on_c,0,60,0
2,391362, Note_on_c,0,68,91
2,391362, Note_on_c,0,56,87
2,391362, Note_on_c,0,32,78
2,391366, Note_on_c,0,44,86
2,391434, Note_on_c,0,32,0
2,391442, Note_on_c,0,56,0
2,391450, Note_on_c,0,68,0
2,391470, Note_on_c,0,44,0
2,391606, Note_on_c,0,43,78
2,391606, Note_on_c,0,39,67
2,391606, Note_on_c,0,31,74
2,391606, Note_on_c,0,36,66
2,391606, Note_on_c,0,60,82
2,391606, Note_on_c,0,55,92
2,391606, Note_on_c,0,63,73
2,391606, Note_on_c,0,67,92
2,391614, Control_c,0,64,104
2,391750, Note_on_c,0,31,0
2,391754, Note_on_c,0,43,0
2,391762, Note_on_c,0,36,0
2,391774, Note_on_c,0,39,0
2,391790, Note_on_c,0,55,0
2,391814, Note_on_c,0,67,0
2,391814, Control_c,0,64,72
2,391846, Note_on_c,0,63,0
2,391886, Note_on_c,0,60,0
2,391938, Note_on_c,0,69,93
2,391938, Note_on_c,0,57,80
2,392094, Note_on_c,0,57,0
2,392154, Note_on_c,0,69,0
2,392302, Note_on_c,0,71,94
2,392306, Note_on_c,0,59,80
2,392310, Note_on_c,0,63,65
2,392322, Note_on_c,0,67,70
2,392322, Control_c,0,64,40
2,392330, Note_on_c,0,55,57
2,392334, Note_on_c,0,43,65
2,392334, Note_on_c,0,51,62
2,392338, Note_on_c,0,48,62
2,392338, Control_c,0,64,0
2,392394, Control_c,0,64,88
2,392406, Note_on_c,0,59,0
2,392406, Control_c,0,64,127
2,392414, Note_on_c,0,67,0
2,392430, Note_on_c,0,63,0
2,392438, Note_on_c,0,71,0
2,392622, Note_on_c,0,60,82
2,392622, Note_on_c,0,72,93
2,392678, Note_on_c,0,60,0
2,392710, Note_on_c,0,72,0
2,392870, Note_on_c,0,74,92
2,392874, Note_on_c,0,62,82
2,392930, Note_on_c,0,62,0
2,392938, Note_on_c,0,43,0
2,392942, Note_on_c,0,55,0
2,392954, Note_on_c,0,48,0
2,392954, Note_on_c,0,74,0
2,392970, Note_on_c,0,51,0
2,393066, Note_on_c,0,63,84
2,393070, Note_on_c,0,75,94
2,393118, Note_on_c,0,63,0
2,393138, Note_on_c,0,75,0
2,393250, Note_on_c,0,79,97
2,393254, Note_on_c,0,67,83
2,393302, Note_on_c,0,67,0
2,393326, Note_on_c,0,79,0
2,393498, Note_on_c,0,55,67
2,393502, Note_on_c,0,63,59
2,393502, Note_on_c,0,60,60
2,393510, Note_on_c,0,82,98
2,393510, Note_on_c,0,75,79
2,393510, Note_on_c,0,70,75
2,393518, Note_on_c,0,72,64
2,393518, Note_on_c,0,67,67
2,393530, Control_c,0,64,88
2,393546, Control_c,0,64,0
2,393638, Control_c,0,64,127
2,393714, Note_on_c,0,67,0
2,393750, Note_on_c,0,60,0
2,393762, Note_on_c,0,63,0
2,393782, Note_on_c,0,82,0
2,393806, Note_on_c,0,55,0
2,393850, Note_on_c,0,70,0
2,393962, Note_on_c,0,75,0
2,393986, Note_on_c,0,72,0
2,394174, Note_on_c,0,80,91
2,394174, Note_on_c,0,68,83
2,394182, Control_c,0,64,104
2,394198, Control_c,0,64,0
2,394242, Note_on_c,0,43,69
2,394254, Note_on_c,0,50,67
2,394254, Control_c,0,64,40
2,394266, Note_on_c,0,53,62
2,394266, Control_c,0,64,127
2,394274, Note_on_c,0,68,0
2,394294, Note_on_c,0,43,0
2,394302, Note_on_c,0,80,0
2,394322, Note_on_c,0,50,0
2,394326, Note_on_c,0,53,0
2,394334, Note_on_c,0,59,73
2,394378, Note_on_c,0,59,0
2,394430, Note_on_c,0,67,69
2,394430, Note_on_c,0,65,61
2,394462, Note_on_c,0,65,0
2,394494, Note_on_c,0,74,66
2,394522, Note_on_c,0,77,81
2,394594, Note_on_c,0,79,95
2,394598, Note_on_c,0,67,0
2,394614, Note_on_c,0,74,0
2,394622, Note_on_c,0,77,0
2,394646, Note_on_c,0,79,0
2,395006, Control_c,0,64,104
2,395014, Note_on_c,0,43,76
2,395018, Control_c,0,64,24
2,395034, Control_c,0,64,0
2,395042, Note_on_c,0,50,73
2,395062, Note_on_c,0,43,0
2,395070, Note_on_c,0,53,70
2,395074, Control_c,0,64,88
2,395086, Control_c,0,64,127
2,395106, Note_on_c,0,50,0
2,395110, Note_on_c,0,53,0
2,395126, Note_on_c,0,59,69
2,395182, Note_on_c,0,59,0
2,395218, Note_on_c,0,65,70
2,395258, Note_on_c,0,65,0
2,395278, Note_on_c,0,68,70
2,395322, Note_on_c,0,74,69
2,395338, Note_on_c,0,77,75
2,395406, Note_on_c,0,80,95
2,395418, Note_on_c,0,68,0
2,395434, Note_on_c,0,74,0
2,395438, Note_on_c,0,77,0
2,395466, Note_on_c,0,80,0
2,395802, Control_c,0,64,56
2,395806, Note_on_c,0,43,76
2,395814, Control_c,0,64,0
2,395842, Note_on_c,0,50,67
2,395854, Control_c,0,64,24
2,395858, Note_on_c,0,43,0
2,395870, Control_c,0,64,127
2,395882, Note_on_c,0,53,68
2,395910, Note_on_c,0,50,0
2,395914, Note_on_c,0,53,0
2,395946, Note_on_c,0,59,61
2,395990, Note_on_c,0,59,0
2,396022, Note_on_c,0,65,74
2,396074, Note_on_c,0,65,0
2,396074, Note_on_c,0,69,71
2,396110, Note_on_c,0,74,73
2,396142, Note_on_c,0,77,74
2,396202, Note_on_c,0,81,98
2,396690, Control_c,0,64,88
2,396706, Control_c,0,64,0
2,396714, Note_on_c,0,31,86
2,396774, Control_c,0,64,56
2,396782, Control_c,0,64,127
2,396842, Note_on_c,0,31,0
2,396858, Note_on_c,0,43,70
2,396882, Note_on_c,0,43,0
2,396982, Note_on_c,0,69,0
2,396994, Note_on_c,0,50,70
2,397026, Note_on_c,0,50,0
2,397038, Note_on_c,0,74,0
2,397042, Note_on_c,0,53,67
2,397086, Note_on_c,0,77,0
2,397090, Note_on_c,0,59,67
2,397118, Note_on_c,0,53,0
2,397138, Note_on_c,0,59,0
2,397146, Note_on_c,0,81,0
2,397170, Note_on_c,0,65,75
2,397222, Note_on_c,0,65,0
2,397270, Note_on_c,0,71,72
2,397310, Note_on_c,0,74,68
2,397366, Note_on_c,0,77,74
2,397462, Note_on_c,0,83,100
2,397798, Note_on_c,0,74,0
2,397802, Note_on_c,0,83,0
2,397806, Note_on_c,0,77,0
2,397810, Note_on_c,0,71,0
2,398390, Control_c,0,64,24
2,398398, Note_on_c,0,24,82
2,398402, Note_on_c,0,36,97
2,398406, Control_c,0,64,0
2,398474, Control_c,0,64,72
2,398482, Note_on_c,0,24,0
2,398486, Control_c,0,64,127
2,398518, Note_on_c,0,36,0
2,398714, Note_on_c,0,43,76
2,398858, Note_on_c,0,48,78
2,398966, Note_on_c,0,51,78
2,399094, Note_on_c,0,55,77
2,399134, Note_on_c,0,48,0
2,399146, Note_on_c,0,43,0
2,399174, Note_on_c,0,51,0
2,399222, Note_on_c,0,60,75
2,399230, Note_on_c,0,55,0
2,399330, Note_on_c,0,63,65
2,399342, Note_on_c,0,60,0
2,399382, Note_on_c,0,63,0
2,399438, Note_on_c,0,67,78
2,399542, Note_on_c,0,72,77
2,399642, Note_on_c,0,75,77
2,399658, Note_on_c,0,72,0
2,399738, Note_on_c,0,75,0
2,399746, Note_on_c,0,79,82
2,399850, Note_on_c,0,75,79
2,399870, Note_on_c,0,79,0
2,399898, Note_on_c,0,67,0
2,399950, Note_on_c,0,72,78
2,399990, Note_on_c,0,75,0
2,400014, Note_on_c,0,72,0
2,400038, Note_on_c,0,67,77
2,400094, Note_on_c,0,67,0
2,400126, Note_on_c,0,63,73
2,400222, Note_on_c,0,60,71
2,400234, Note_on_c,0,63,0
2,400290, Note_on_c,0,60,0
2,400314, Note_on_c,0,55,68
2,400358, Note_on_c,0,55,0
2,400402, Note_on_c,0,51,65
2,400494, Note_on_c,0,51,0
2,400506, Note_on_c,0,48,81
2,400618, Note_on_c,0,51,61
2,400670, Note_on_c,0,48,0
2,400730, Note_on_c,0,51,0
2,400730, Note_on_c,0,55,58
2,400766, Note_on_c,0,55,0
2,400798, Note_on_c,0,60,60
2,400890, Note_on_c,0,63,54
2,400894, Note_on_c,0,60,0
2,400934, Note_on_c,0,63,0
2,400978, Note_on_c,0,67,66
2,401062, Note_on_c,0,67,0
2,401078, Note_on_c,0,72,60
2,401154, Note_on_c,0,72,0
2,401154, Note_on_c,0,75,62
2,401246, Note_on_c,0,79,70
2,401254, Note_on_c,0,75,0
2,401346, Note_on_c,0,79,0
2,401354, Note_on_c,0,84,82
2,401438, Note_on_c,0,84,0
2,401446, Note_on_c,0,79,76
2,401534, Note_on_c,0,79,0
2,401534, Note_on_c,0,75,71
2,401630, Note_on_c,0,72,68
2,401666, Note_on_c,0,75,0
2,401694, Note_on_c,0,72,0
2,401730, Note_on_c,0,67,54
2,401774, Note_on_c,0,67,0
2,401830, Note_on_c,0,63,57
2,401906, Note_on_c,0,63,0
2,401930, Note_on_c,0,60,64
2,401990, Note_on_c,0,60,0
2,402022, Note_on_c,0,55,65
2,402090, Note_on_c,0,55,0
2,402134, Note_on_c,0,51,64
2,402218, Note_on_c,0,51,0
2,402246, Note_on_c,0,48,64
2,402270, Note_on_c,0,48,0
2,402366, Note_on_c,0,43,60
2,402462, Note_on_c,0,43,0
2,402462, Note_on_c,0,39,58
2,402582, Note_on_c,0,39,0
2,402598, Note_on_c,0,36,66
2,402646, Control_c,0,64,88
2,402658, Control_c,0,64,0
2,402730, Control_c,0,64,56
2,402734, Note_on_c,0,36,0
2,402734, Note_on_c,0,39,51
2,402742, Control_c,0,64,127
2,402862, Note_on_c,0,43,58
2,402886, Note_on_c,0,39,0
2,402918, Note_on_c,0,43,0
2,402966, Note_on_c,0,48,59
2,403062, Note_on_c,0,51,56
2,403070, Note_on_c,0,48,0
2,403114, Note_on_c,0,51,0
2,403170, Note_on_c,0,55,68
2,403282, Note_on_c,0,60,55
2,403314, Note_on_c,0,55,0
2,403382, Note_on_c,0,60,0
2,403382, Note_on_c,0,63,48
2,403426, Note_on_c,0,63,0
2,403490, Note_on_c,0,67,69
2,403590, Note_on_c,0,72,63
2,403678, Note_on_c,0,75,74
2,403706, Note_on_c,0,72,0
2,403794, Note_on_c,0,79,76
2,403798, Note_on_c,0,75,0
2,403898, Note_on_c,0,75,69
2,403902, Note_on_c,0,79,0
2,403942, Note_on_c,0,67,0
2,403990, Note_on_c,0,75,0
2,403998, Note_on_c,0,72,78
2,404042, Note_on_c,0,72,64
2,404086, Note_on_c,0,72,0
2,404086, Note_on_c,0,72,0
2,404102, Note_on_c,0,67,72
2,404214, Note_on_c,0,67,0
2,404222, Note_on_c,0,72,76
2,404326, Note_on_c,0,72,0
2,404338, Note_on_c,0,74,73
2,404466, Note_on_c,0,75,71
2,404498, Note_on_c,0,74,0
2,404514, Note_on_c,0,75,0
2,404586, Note_on_c,0,79,71
2,404730, Note_on_c,0,84,66
2,404762, Note_on_c,0,79,0
2,404818, Note_on_c,0,84,0
2,404890, Note_on_c,0,87,68
2,405042, Note_on_c,0,91,65
2,405054, Note_on_c,0,87,0
2,405202, Note_on_c,0,91,0
2,405202, Note_on_c,0,96,65
2,405362, Note_on_c,0,96,0
2,405446, Note_on_c,0,99,65
2,405446, Control_c,0,64,127
2,405594, Note_on_c,0,99,0
2,419466, Control_c,0,64,24
2,419482, Control_c,0,64,72
2,419498, Control_c,0,64,127
2,419510, Note_on_c,0,87,52
2,419510, Note_on_c,0,85,55
2,419590, Note_on_c,0,87,0
2,419590, Note_on_c,0,82,47
2,419626, Note_on_c,0,85,0
2,419670, Note_on_c,0,79,55
2,419726, Note_on_c,0,82,0
2,419750, Note_on_c,0,75,48
2,419754, Note_on_c,0,79,0
2,419778, Control_c,0,67,127
2,419830, Note_on_c,0,73,44
2,419866, Note_on_c,0,75,0
2,419902, Note_on_c,0,73,0
2,419910, Note_on_c,0,70,43
2,419986, Note_on_c,0,70,0
2,419990, Note_on_c,0,67,48
2,420070, Note_on_c,0,63,42
2,420082, Note_on_c,0,67,0
2,420102, Note_on_c,0,63,0
2,420150, Note_on_c,0,87,73
2,420150, Note_on_c,0,85,62
2,420230, Note_on_c,0,82,56
2,420262, Note_on_c,0,87,0
2,420282, Note_on_c,0,85,0
2,420310, Note_on_c,0,79,56
2,420338, Note_on_c,0,82,0
2,420378, Note_on_c,0,79,0
2,420390, Note_on_c,0,75,50
2,420470, Note_on_c,0,73,47
2,420482, Note_on_c,0,75,0
2,420550, Note_on_c,0,70,47
2,420554, Note_on_c,0,73,0
2,420630, Note_on_c,0,70,0
2,420630, Note_on_c,0,67,46
2,420710, Note_on_c,0,63,43
2,420726, Note_on_c,0,67,0
2,420750, Note_on_c,0,63,0
2,420814, Control_c,0,64,88
2,420822, Note_on_c,0,87,71
2,420822, Note_on_c,0,84,60
2,420830, Control_c,0,64,0
2,420890, Control_c,0,64,72
2,420902, Note_on_c,0,80,69
2,420902, Control_c,0,64,127
2,420910, Note_on_c,0,84,0
2,420910, Note_on_c,0,87,0
2,420982, Note_on_c,0,77,59
2,421042, Note_on_c,0,80,0
2,421062, Note_on_c,0,75,46
2,421070, Note_on_c,0,77,0
2,421118, Note_on_c,0,75,0
2,421142, Note_on_c,0,72,47
2,421222, Note_on_c,0,72,0
2,421222, Note_on_c,0,68,44
2,421306, Note_on_c,0,68,0
2,421306, Note_on_c,0,65,44
2,421378, Note_on_c,0,65,0
2,421390, Note_on_c,0,63,51
2,421422, Note_on_c,0,63,0
2,421474, Note_on_c,0,87,73
2,421474, Note_on_c,0,84,50
2,421554, Note_on_c,0,80,71
2,421558, Note_on_c,0,84,0
2,421558, Note_on_c,0,87,0
2,421634, Note_on_c,0,77,62
2,421686, Note_on_c,0,80,0
2,421710, Note_on_c,0,77,0
2,421714, Note_on_c,0,75,54
2,421794, Note_on_c,0,72,51
2,421806, Note_on_c,0,75,0
2,421870, Note_on_c,0,68,49
2,421894, Note_on_c,0,72,0
2,421954, Note_on_c,0,65,47
2,421978, Note_on_c,0,68,0
2,422022, Note_on_c,0,65,0
2,422034, Note_on_c,0,63,43
2,422106, Note_on_c,0,63,0
2,422118, Control_c,0,64,88
2,422122, Note_on_c,0,87,71
2,422122, Note_on_c,0,85,58
2,422134, Control_c,0,64,0
2,422178, Control_c,0,64,24
2,422194, Control_c,0,64,72
2,422202, Note_on_c,0,82,59
2,422206, Control_c,0,64,127
2,422218, Note_on_c,0,87,0
2,422242, Note_on_c,0,85,0
2,422282, Note_on_c,0,79,59
2,422322, Note_on_c,0,82,0
2,422350, Note_on_c,0,79,0
2,422366, Note_on_c,0,75,48
2,422446, Note_on_c,0,73,47
2,422458, Note_on_c,0,75,0
2,422526, Note_on_c,0,70,46
2,422562, Note_on_c,0,73,0
2,422598, Note_on_c,0,70,0
2,422606, Note_on_c,0,67,44
2,422650, Note_on_c,0,67,0
2,422690, Note_on_c,0,63,43
2,422754, Note_on_c,0,63,0
2,422778, Note_on_c,0,87,71
2,422778, Note_on_c,0,85,62
2,422858, Note_on_c,0,82,55
2,422906, Note_on_c,0,85,0
2,422926, Note_on_c,0,87,0
2,422938, Note_on_c,0,79,59
2,422982, Note_on_c,0,82,0
2,423014, Note_on_c,0,79,0
2,423018, Note_on_c,0,75,52
2,423098, Note_on_c,0,73,51
2,423122, Note_on_c,0,75,0
2,423178, Note_on_c,0,70,50
2,423198, Note_on_c,0,73,0
2,423246, Note_on_c,0,70,0
2,423258, Note_on_c,0,67,49
2,423338, Note_on_c,0,63,48
2,423342, Note_on_c,0,67,0
2,423378, Note_on_c,0,63,0
2,423410, Note_on_c,0,87,69
2,423410, Note_on_c,0,84,55
2,423442, Control_c,0,64,24
2,423454, Control_c,0,64,0
2,423502, Note_on_c,0,84,0
2,423502, Note_on_c,0,87,0
2,423506, Note_on_c,0,80,70
2,423526, Control_c,0,64,88
2,423542, Control_c,0,64,127
2,423586, Note_on_c,0,77,66
2,423654, Note_on_c,0,80,0
2,423662, Note_on_c,0,77,0
2,423662, Note_on_c,0,75,43
2,423726, Note_on_c,0,75,0
2,423746, Note_on_c,0,72,45
2,423814, Note_on_c,0,68,44
2,423830, Note_on_c,0,72,0
2,423898, Note_on_c,0,68,0
2,423902, Note_on_c,0,65,48
2,423978, Note_on_c,0,65,0
2,423978, Note_on_c,0,63,40
2,424006, Note_on_c,0,63,0
2,424062, Note_on_c,0,87,69
2,424062, Note_on_c,0,84,51
2,424138, Note_on_c,0,84,0
2,424138, Note_on_c,0,87,0
2,424142, Note_on_c,0,80,72
2,424222, Note_on_c,0,77,63
2,424266, Note_on_c,0,80,0
2,424298, Note_on_c,0,77,0
2,424302, Note_on_c,0,75,59
2,424386, Note_on_c,0,72,54
2,424402, Note_on_c,0,75,0
2,424470, Note_on_c,0,72,0
2,424470, Note_on_c,0,68,52
2,424550, Note_on_c,0,65,48
2,424578, Note_on_c,0,68,0
2,424606, Note_on_c,0,65,0
2,424630, Note_on_c,0,63,46
2,424674, Note_on_c,0,63,0
2,424718, Note_on_c,0,87,71
2,424718, Note_on_c,0,85,62
2,424746, Control_c,0,64,24
2,424762, Control_c,0,64,0
2,424798, Note_on_c,0,82,61
2,424810, Note_on_c,0,87,0
2,424830, Control_c,0,64,56
2,424846, Note_on_c,0,85,0
2,424846, Control_c,0,64,127
2,424878, Note_on_c,0,79,61
2,424926, Note_on_c,0,82,0
2,424950, Note_on_c,0,79,0
2,424958, Note_on_c,0,75,56
2,425034, Note_on_c,0,75,0
2,425038, Note_on_c,0,73,55
2,425118, Note_on_c,0,70,50
2,425126, Note_on_c,0,73,0
2,425166, Note_on_c,0,70,0
2,425198, Note_on_c,0,67,49
2,425274, Note_on_c,0,67,0
2,425278, Note_on_c,0,63,47
2,425330, Note_on_c,0,63,0
2,425370, Note_on_c,0,87,64
2,425370, Note_on_c,0,85,57
2,425390, Control_c,0,67,0
2,425450, Note_on_c,0,82,55
2,425458, Note_on_c,0,87,0
2,425490, Note_on_c,0,85,0
2,425530, Note_on_c,0,79,55
2,425578, Note_on_c,0,82,0
2,425586, Note_on_c,0,79,0
2,425614, Note_on_c,0,75,56
2,425694, Note_on_c,0,73,53
2,425738, Note_on_c,0,75,0
2,425774, Note_on_c,0,70,51
2,425790, Note_on_c,0,73,0
2,425810, Note_on_c,0,70,0
2,425854, Note_on_c,0,67,49
2,425926, Note_on_c,0,67,0
2,425938, Note_on_c,0,63,47
2,425994, Note_on_c,0,63,0
2,426002, Note_on_c,0,87,67
2,426022, Note_on_c,0,84,57
2,426022, Control_c,0,64,72
2,426038, Control_c,0,64,0
2,426078, Control_c,0,64,56
2,426090, Note_on_c,0,87,0
2,426090, Note_on_c,0,80,65
2,426090, Control_c,0,64,127
2,426118, Note_on_c,0,84,0
2,426178, Note_on_c,0,77,62
2,426226, Note_on_c,0,80,0
2,426246, Note_on_c,0,77,0
2,426246, Note_on_c,0,75,43
2,426338, Note_on_c,0,72,35
2,426358, Note_on_c,0,75,0
2,426402, Note_on_c,0,72,0
2,426402, Note_on_c,0,68,43
2,426482, Note_on_c,0,68,0
2,426490, Note_on_c,0,65,48
2,426538, Control_c,0,67,127
2,426550, Note_on_c,0,65,0
2,426562, Note_on_c,0,63,32
2,426590, Note_on_c,0,63,0
2,426654, Note_on_c,0,87,65
2,426654, Note_on_c,0,84,51
2,426730, Note_on_c,0,84,0
2,426730, Note_on_c,0,80,62
2,426734, Note_on_c,0,87,0
2,426814, Note_on_c,0,77,58
2,426882, Note_on_c,0,80,0
2,426886, Note_on_c,0,77,0
2,426894, Note_on_c,0,75,43
2,426974, Note_on_c,0,72,39
2,426982, Note_on_c,0,75,0
2,427042, Note_on_c,0,72,0
2,427058, Note_on_c,0,68,35
2,427142, Note_on_c,0,65,42
2,427154, Note_on_c,0,68,0
2,427226, Note_on_c,0,63,43
2,427242, Note_on_c,0,65,0
2,427278, Note_on_c,0,63,0
2,427314, Note_on_c,0,86,70
2,427314, Note_on_c,0,83,58
2,427314, Control_c,0,64,72
2,427326, Control_c,0,64,0
2,427386, Control_c,0,64,40
2,427394, Note_on_c,0,86,0
2,427398, Note_on_c,0,80,61
2,427398, Control_c,0,64,127
2,427454, Note_on_c,0,83,0
2,427482, Note_on_c,0,76,42
2,427558, Note_on_c,0,76,0
2,427558, Note_on_c,0,80,0
2,427566, Note_on_c,0,74,48
2,427622, Note_on_c,0,74,0
2,427650, Note_on_c,0,71,33
2,427722, Note_on_c,0,71,0
2,427734, Note_on_c,0,68,47
2,427818, Note_on_c,0,64,41
2,427850, Note_on_c,0,68,0
2,427854, Note_on_c,0,64,0
2,427898, Note_on_c,0,62,38
2,427934, Note_on_c,0,62,0
2,427982, Note_on_c,0,86,74
2,427982, Note_on_c,0,83,49
2,428054, Note_on_c,0,86,0
2,428066, Note_on_c,0,80,68
2,428074, Note_on_c,0,83,0
2,428150, Note_on_c,0,76,59
2,428194, Note_on_c,0,80,0
2,428222, Note_on_c,0,76,0
2,428238, Note_on_c,0,71,38
2,428278, Note_on_c,0,71,0
2,428322, Note_on_c,0,68,42
2,428414, Note_on_c,0,68,0
2,428414, Note_on_c,0,64,36
2,428454, Note_on_c,0,64,0
2,428498, Note_on_c,0,62,50
2,428566, Note_on_c,0,62,0
2,428582, Note_on_c,0,59,40
2,428622, Note_on_c,0,59,0
2,428666, Note_on_c,0,56,58
2,428702, Control_c,0,64,88
2,428718, Control_c,0,64,0
2,428750, Note_on_c,0,53,48
2,428802, Control_c,0,64,72
2,428818, Control_c,0,64,127
2,428830, Note_on_c,0,56,0
2,428834, Note_on_c,0,51,47
2,428874, Note_on_c,0,53,0
2,428902, Note_on_c,0,51,0
2,428918, Note_on_c,0,48,45
2,428974, Note_on_c,0,48,0
2,429006, Note_on_c,0,32,55
2,429090, Note_on_c,0,32,0
2,429090, Note_on_c,0,39,47
2,429158, Note_on_c,0,39,0
2,429178, Note_on_c,0,51,53
2,429178, Note_on_c,0,44,44
2,429210, Note_on_c,0,44,0
2,429258, Note_on_c,0,51,0
2,429266, Note_on_c,0,56,56
2,429266, Note_on_c,0,48,47
2,429298, Note_on_c,0,48,0
2,429298, Note_on_c,0,56,0
2,429350, Note_on_c,0,60,58
2,429350, Note_on_c,0,51,44
2,429374, Note_on_c,0,51,0
2,429402, Note_on_c,0,60,0
2,429434, Note_on_c,0,63,59
2,429434, Note_on_c,0,56,49
2,429470, Note_on_c,0,56,0
2,429514, Note_on_c,0,63,0
2,429518, Note_on_c,0,68,60
2,429518, Note_on_c,0,60,49
2,429550, Note_on_c,0,60,0
2,429566, Note_on_c,0,68,0
2,429602, Note_on_c,0,72,64
2,429602, Note_on_c,0,63,48
2,429638, Note_on_c,0,63,0
2,429658, Note_on_c,0,72,0
2,429686, Note_on_c,0,75,64
2,429686, Note_on_c,0,68,51
2,429726, Note_on_c,0,68,0
2,429770, Note_on_c,0,75,0
2,429770, Note_on_c,0,80,63
2,429770, Note_on_c,0,72,43
2,429838, Note_on_c,0,72,0
2,429878, Note_on_c,0,80,0
2,429878, Note_on_c,0,84,60
2,429878, Note_on_c,0,75,53
2,429902, Note_on_c,0,75,0
2,429954, Note_on_c,0,84,0
2,430050, Note_on_c,0,86,70
2,430050, Note_on_c,0,83,58
2,430050, Control_c,0,64,72
2,430062, Control_c,0,64,0
2,430122, Control_c,0,64,40
2,430130, Note_on_c,0,86,0
2,430134, Note_on_c,0,80,61
2,430134, Control_c,0,64,127
2,430190, Note_on_c,0,83,0
2,430218, Note_on_c,0,76,42
2,430294, Note_on_c,0,76,0
2,430294, Note_on_c,0,80,0
2,430302, Note_on_c,0,74,48
2,430358, Note_on_c,0,74,0
2,430386, Note_on_c,0,71,33
2,430458, Note_on_c,0,71,0
2,430470, Note_on_c,0,68,47
2,430554, Note_on_c,0,64,41
2,430586, Note_on_c,0,68,0
2,430590, Note_on_c,0,64,0
2,430634, Note_on_c,0,62,48
2,430670, Note_on_c,0,62,0
2,430718, Note_on_c,0,86,76
2,430718, Note_on_c,0,83,49
2,430790, Note_on_c,0,86,0
2,430802, Note_on_c,0,80,68
2,430810, Note_on_c,0,83,0
2,430886, Note_on_c,0,76,59
2,430930, Note_on_c,0,80,0
2,430958, Note_on_c,0,76,0
2,430974, Note_on_c,0,71,38
2,431014, Note_on_c,0,71,0
2,431058, Note_on_c,0,68,42
2,431150, Note_on_c,0,68,0
2,431150, Note_on_c,0,64,36
2,431190, Note_on_c,0,64,0
2,431234, Note_on_c,0,62,50
2,431302, Note_on_c,0,62,0
2,431318, Note_on_c,0,59,40
2,431358, Note_on_c,0,59,0
2,431402, Note_on_c,0,56,58
2,431438, Control_c,0,64,88
2,431454, Control_c,0,64,0
2,431486, Note_on_c,0,53,48
2,431538, Control_c,0,64,72
2,431554, Control_c,0,64,127
2,431566, Note_on_c,0,56,0
2,431570, Note_on_c,0,51,47
2,431610, Note_on_c,0,53,0
2,431638, Note_on_c,0,51,0
2,431654, Note_on_c,0,48,45
2,431710, Note_on_c,0,48,0
2,431742, Note_on_c,0,32,55
2,431826, Note_on_c,0,32,0
2,431826, Note_on_c,0,39,47
2,431894, Note_on_c,0,39,0
2,431914, Note_on_c,0,51,53
2,431914, Note_on_c,0,44,44
2,431946, Note_on_c,0,44,0
2,431994, Note_on_c,0,51,0
2,432002, Note_on_c,0,56,56
2,432002, Note_on_c,0,48,47
2,432034, Note_on_c,0,48,0
2,432034, Note_on_c,0,56,0
2,432086, Note_on_c,0,60,58
2,432086, Note_on_c,0,51,44
2,432110, Note_on_c,0,51,0
2,432138, Note_on_c,0,60,0
2,432170, Note_on_c,0,63,59
2,432170, Note_on_c,0,56,49
2,432206, Note_on_c,0,56,0
2,432250, Note_on_c,0,63,0
2,432254, Note_on_c,0,68,60
2,432254, Note_on_c,0,60,49
2,432286, Note_on_c,0,60,0
2,432302, Note_on_c,0,68,0
2,432338, Note_on_c,0,72,64
2,432338, Note_on_c,0,63,48
2,432374, Note_on_c,0,63,0
2,432394, Note_on_c,0,72,0
2,432422, Note_on_c,0,75,64
2,432422, Note_on_c,0,68,51
2,432462, Note_on_c,0,68,0
2,432506, Note_on_c,0,75,0
2,432506, Note_on_c,0,80,63
2,432506, Note_on_c,0,72,43
2,432574, Note_on_c,0,72,0
2,432614, Note_on_c,0,80,0
2,432614, Note_on_c,0,84,64
2,432614, Note_on_c,0,75,53
2,432638, Note_on_c,0,75,0
2,432690, Note_on_c,0,84,0
2,432702, Note_on_c,0,87,67
2,432702, Note_on_c,0,80,52
2,432782, Note_on_c,0,80,0
2,432782, Note_on_c,0,87,0
2,432790, Note_on_c,0,92,70
2,432790, Note_on_c,0,84,51
2,432814, Control_c,0,64,40
2,432822, Control_c,0,64,88
2,432834, Control_c,0,64,127
2,432850, Note_on_c,0,84,0
2,432882, Note_on_c,0,87,59
2,432882, Note_on_c,0,80,51
2,432950, Note_on_c,0,80,0
2,432958, Note_on_c,0,92,0
2,432970, Note_on_c,0,87,0
2,432974, Note_on_c,0,84,74
2,432974, Note_on_c,0,75,42
2,433010, Note_on_c,0,84,0
2,433022, Note_on_c,0,75,0
2,433066, Note_on_c,0,80,64
2,433066, Note_on_c,0,72,52
2,433146, Note_on_c,0,72,0
2,433154, Note_on_c,0,75,56
2,433162, Note_on_c,0,68,42
2,433206, Note_on_c,0,80,0
2,433222, Note_on_c,0,75,0
2,433226, Note_on_c,0,68,0
2,433238, Note_on_c,0,63,46
2,433238, Note_on_c,0,72,57
2,433274, Note_on_c,0,72,0
2,433290, Note_on_c,0,63,0
2,433318, Note_on_c,0,68,56
2,433318, Note_on_c,0,60,47
2,433350, Note_on_c,0,60,0
2,433394, Note_on_c,0,68,0
2,433406, Note_on_c,0,63,57
2,433406, Note_on_c,0,56,50
2,433462, Note_on_c,0,56,0
2,433474, Note_on_c,0,63,0
2,433494, Note_on_c,0,60,66
2,433494, Note_on_c,0,51,58
2,433562, Note_on_c,0,60,0
2,433578, Note_on_c,0,51,0
2,433586, Note_on_c,0,63,59
2,433586, Note_on_c,0,56,53
2,433650, Note_on_c,0,56,0
2,433666, Note_on_c,0,63,0
2,433666, Note_on_c,0,60,48
2,433666, Note_on_c,0,68,56
2,433698, Note_on_c,0,68,0
2,433706, Note_on_c,0,60,0
2,433754, Note_on_c,0,72,74
2,433754, Note_on_c,0,63,50
2,433782, Note_on_c,0,63,0
2,433806, Note_on_c,0,72,0
2,433838, Note_on_c,0,68,54
2,433842, Note_on_c,0,75,67
2,433886, Note_on_c,0,68,0
2,433906, Note_on_c,0,75,0
2,433914, Note_on_c,0,80,65
2,433914, Note_on_c,0,72,48
2,433942, Note_on_c,0,72,0
2,433974, Note_on_c,0,80,0
2,433982, Note_on_c,0,84,70
2,433990, Note_on_c,0,75,58
2,434034, Note_on_c,0,84,0
2,434042, Note_on_c,0,75,0
2,434058, Note_on_c,0,87,65
2,434066, Note_on_c,0,80,68
2,434110, Note_on_c,0,80,0
2,434122, Note_on_c,0,87,0
2,434130, Note_on_c,0,84,64
2,434134, Note_on_c,0,92,81
2,434202, Note_on_c,0,84,0
2,434214, Note_on_c,0,92,0
2,434218, Note_on_c,0,87,77
2,434218, Note_on_c,0,96,84
2,434266, Note_on_c,0,87,0
2,434302, Note_on_c,0,96,0
2,434306, Note_on_c,0,92,80
2,434306, Note_on_c,0,84,58
2,434362, Note_on_c,0,84,0
2,434390, Note_on_c,0,87,65
2,434394, Note_on_c,0,80,47
2,434458, Note_on_c,0,80,0
2,434458, Note_on_c,0,92,0
2,434470, Note_on_c,0,87,0
2,434474, Note_on_c,0,84,74
2,434474, Note_on_c,0,75,51
2,434506, Note_on_c,0,84,0
2,434510, Note_on_c,0,75,0
2,434558, Note_on_c,0,80,74
2,434558, Note_on_c,0,72,60
2,434622, Note_on_c,0,72,0
2,434654, Note_on_c,0,75,57
2,434654, Note_on_c,0,68,48
2,434698, Note_on_c,0,80,0
2,434718, Note_on_c,0,75,0
2,434726, Note_on_c,0,68,0
2,434726, Note_on_c,0,63,52
2,434730, Note_on_c,0,72,73
2,434770, Note_on_c,0,72,0
2,434806, Note_on_c,0,63,0
2,434810, Note_on_c,0,60,71
2,434814, Note_on_c,0,68,67
2,434862, Note_on_c,0,60,0
2,434882, Note_on_c,0,68,0
2,434910, Note_on_c,0,63,70
2,434910, Note_on_c,0,56,53
2,434950, Note_on_c,0,56,0
2,434974, Note_on_c,0,63,0
2,434990, Note_on_c,0,68,65
2,434990, Note_on_c,0,60,53
2,435046, Note_on_c,0,68,0
2,435050, Note_on_c,0,60,0
2,435070, Note_on_c,0,72,70
2,435078, Note_on_c,0,63,51
2,435102, Note_on_c,0,72,0
2,435142, Note_on_c,0,63,0
2,435150, Note_on_c,0,75,65
2,435150, Note_on_c,0,68,53
2,435206, Note_on_c,0,68,0
2,435226, Note_on_c,0,75,0
2,435226, Note_on_c,0,80,62
2,435226, Note_on_c,0,72,52
2,435258, Note_on_c,0,72,0
2,435262, Note_on_c,0,80,0
2,435302, Note_on_c,0,84,78
2,435302, Note_on_c,0,75,52
2,435350, Note_on_c,0,75,0
2,435354, Note_on_c,0,84,0
2,435378, Note_on_c,0,87,61
2,435378, Note_on_c,0,80,52
2,435426, Note_on_c,0,80,0
2,435438, Note_on_c,0,84,52
2,435442, Note_on_c,0,92,70
2,435446, Note_on_c,0,87,0
2,435470, Note_on_c,0,92,0
2,435474, Note_on_c,0,84,0
2,435510, Note_on_c,0,96,86
2,435510, Note_on_c,0,87,67
2,435570, Note_on_c,0,96,0
2,435574, Note_on_c,0,87,0
2,435590, Note_on_c,0,99,87
2,435598, Note_on_c,0,92,82
2,435678, Note_on_c,0,92,0
2,435682, Note_on_c,0,99,0
2,435682, Note_on_c,0,96,84
2,435690, Note_on_c,0,87,50
2,435718, Note_on_c,0,96,0
2,435734, Note_on_c,0,87,0
2,435770, Note_on_c,0,92,78
2,435774, Note_on_c,0,84,69
2,435822, Note_on_c,0,84,0
2,435850, Note_on_c,0,87,65
2,435858, Note_on_c,0,80,43
2,435870, Note_on_c,0,92,0
2,435918, Note_on_c,0,80,0
2,435918, Note_on_c,0,87,0
2,435926, Note_on_c,0,84,70
2,435946, Note_on_c,0,75,34
2,435962, Note_on_c,0,84,0
2,435970, Note_on_c,0,75,0
2,436010, Note_on_c,0,80,63
2,436022, Note_on_c,0,72,62
2,436046, Note_on_c,0,72,0
2,436070, Note_on_c,0,80,0
2,436098, Note_on_c,0,68,39
2,436098, Note_on_c,0,75,59
2,436154, Note_on_c,0,68,0
2,436162, Note_on_c,0,75,0
2,436166, Note_on_c,0,63,27
2,436178, Note_on_c,0,72,70
2,436234, Note_on_c,0,72,0
2,436250, Note_on_c,0,63,0
2,436270, Note_on_c,0,60,59
2,436282, Note_on_c,0,68,44
2,436314, Note_on_c,0,68,0
2,436334, Note_on_c,0,60,0
2,436358, Note_on_c,0,72,75
2,436358, Note_on_c,0,63,46
2,436414, Note_on_c,0,72,0
2,436434, Note_on_c,0,63,0
2,436442, Note_on_c,0,68,40
2,436446, Note_on_c,0,75,64
2,436502, Note_on_c,0,68,0
2,436518, Note_on_c,0,75,0
2,436526, Note_on_c,0,80,64
2,436526, Note_on_c,0,72,51
2,436542, Note_on_c,0,80,0
2,436566, Note_on_c,0,72,0
2,436598, Note_on_c,0,84,78
2,436614, Note_on_c,0,75,44
2,436646, Note_on_c,0,84,0
2,436666, Note_on_c,0,75,0
2,436674, Note_on_c,0,87,69
2,436686, Note_on_c,0,80,57
2,436734, Note_on_c,0,80,0
2,436738, Note_on_c,0,87,0
2,436746, Note_on_c,0,92,64
2,436758, Note_on_c,0,84,55
2,436762, Note_on_c,0,92,0
2,436786, Note_on_c,0,84,0
2,436806, Note_on_c,0,96,82
2,436830, Note_on_c,0,87,55
2,436862, Note_on_c,0,96,0
2,436878, Note_on_c,0,99,81
2,436890, Note_on_c,0,87,0
2,436890, Note_on_c,0,92,72
2,436950, Note_on_c,0,99,0
2,436958, Note_on_c,0,92,0
2,436958, Note_on_c,0,104,86
2,436974, Note_on_c,0,96,60
2,437026, Note_on_c,0,96,0
2,437042, Note_on_c,0,99,83
2,437046, Note_on_c,0,92,62
2,437114, Note_on_c,0,92,0
2,437114, Note_on_c,0,104,0
2,437118, Note_on_c,0,96,76
2,437122, Note_on_c,0,87,44
2,437126, Note_on_c,0,99,0
2,437158, Note_on_c,0,96,0
2,437166, Note_on_c,0,87,0
2,437206, Note_on_c,0,84,61
2,437210, Note_on_c,0,92,70
2,437234, Note_on_c,0,84,0
2,437262, Note_on_c,0,92,0
2,437290, Note_on_c,0,87,73
2,437290, Note_on_c,0,80,56
2,437342, Note_on_c,0,80,0
2,437354, Note_on_c,0,87,0
2,437374, Note_on_c,0,84,70
2,437382, Note_on_c,0,75,55
2,437426, Note_on_c,0,84,0
2,437454, Note_on_c,0,75,0
2,437458, Note_on_c,0,87,69
2,437466, Note_on_c,0,80,70
2,437510, Note_on_c,0,87,0
2,437530, Note_on_c,0,80,0
2,437534, Note_on_c,0,92,79
2,437546, Note_on_c,0,84,74
2,437606, Note_on_c,0,92,0
2,437618, Note_on_c,0,84,0
2,437630, Note_on_c,0,96,78
2,437630, Note_on_c,0,87,68
2,437674, Note_on_c,0,87,0
2,437690, Note_on_c,0,96,0
2,437714, Note_on_c,0,84,64
2,437714, Note_on_c,0,92,76
2,437770, Note_on_c,0,84,0
2,437798, Note_on_c,0,80,48
2,437802, Note_on_c,0,87,64
2,437850, Note_on_c,0,80,0
2,437858, Note_on_c,0,92,0
2,437874, Note_on_c,0,75,42
2,437878, Note_on_c,0,87,0
2,437878, Note_on_c,0,84,75
2,437914, Note_on_c,0,75,0
2,437922, Note_on_c,0,84,0
2,437962, Note_on_c,0,80,74
2,437966, Note_on_c,0,72,62
2,438026, Note_on_c,0,72,0
2,438030, Note_on_c,0,80,0
2,438050, Note_on_c,0,75,71
2,438050, Note_on_c,0,68,46
2,438102, Note_on_c,0,68,0
2,438126, Note_on_c,0,75,0
2,438134, Note_on_c,0,80,65
2,438134, Note_on_c,0,72,53
2,438166, Note_on_c,0,80,0
2,438186, Note_on_c,0,72,0
2,438210, Note_on_c,0,84,82
2,438218, Note_on_c,0,75,58
2,438270, Note_on_c,0,84,0
2,438290, Note_on_c,0,75,0
2,438298, Note_on_c,0,87,76
2,438302, Note_on_c,0,80,64
2,438378, Note_on_c,0,80,0
2,438378, Note_on_c,0,87,0
2,438386, Note_on_c,0,84,81
2,438394, Note_on_c,0,75,49
2,438422, Note_on_c,0,84,0
2,438434, Note_on_c,0,75,0
2,438466, Note_on_c,0,80,70
2,438478, Note_on_c,0,72,54
2,438514, Note_on_c,0,72,0
2,438542, Note_on_c,0,80,0
2,438550, Note_on_c,0,68,48
2,438554, Note_on_c,0,75,68
2,438614, Note_on_c,0,68,0
2,438630, Note_on_c,0,75,0
2,438638, Note_on_c,0,72,77
2,438638, Note_on_c,0,63,49
2,438690, Note_on_c,0,72,0
2,438718, Note_on_c,0,63,0
2,438718, Note_on_c,0,68,50
2,438718, Note_on_c,0,60,60
2,438762, Note_on_c,0,68,0
2,438778, Note_on_c,0,60,0
2,438810, Note_on_c,0,72,69
2,438810, Note_on_c,0,63,44
2,438858, Note_on_c,0,72,0
2,438882, Note_on_c,0,63,0
2,438894, Note_on_c,0,68,58
2,438894, Note_on_c,0,75,60
2,438950, Note_on_c,0,68,0
2,438954, Note_on_c,0,75,0
2,438978, Note_on_c,0,72,59
2,438978, Note_on_c,0,80,70
2,439030, Note_on_c,0,72,0
2,439062, Note_on_c,0,75,67
2,439062, Note_on_c,0,68,51
2,439070, Note_on_c,0,80,0
2,439130, Note_on_c,0,75,0
2,439142, Note_on_c,0,68,0
2,439142, Note_on_c,0,72,67
2,439142, Note_on_c,0,63,54
2,439162, Note_on_c,0,63,0
2,439186, Note_on_c,0,72,0
2,439234, Note_on_c,0,68,61
2,439234, Note_on_c,0,60,54
2,439262, Note_on_c,0,60,0
2,439306, Note_on_c,0,68,0
2,439326, Note_on_c,0,63,67
2,439326, Note_on_c,0,56,53
2,439394, Note_on_c,0,63,0
2,439406, Note_on_c,0,56,0
2,439414, Note_on_c,0,60,70
2,439414, Note_on_c,0,51,49
2,439438, Note_on_c,0,51,0
2,439458, Note_on_c,0,60,0
2,439502, Note_on_c,0,63,64
2,439502, Note_on_c,0,56,52
2,439558, Note_on_c,0,63,0
2,439582, Note_on_c,0,56,0
2,439586, Note_on_c,0,68,63
2,439586, Note_on_c,0,60,51
2,439654, Note_on_c,0,60,0
2,439662, Note_on_c,0,68,0
2,439670, Note_on_c,0,63,50
2,439670, Note_on_c,0,72,77
2,439702, Note_on_c,0,63,0
2,439714, Note_on_c,0,72,0
2,439758, Note_on_c,0,68,63
2,439758, Note_on_c,0,60,46
2,439818, Note_on_c,0,60,0
2,439842, Note_on_c,0,63,62
2,439842, Note_on_c,0,56,52
2,439846, Note_on_c,0,68,0
2,439918, Note_on_c,0,63,0
2,439922, Note_on_c,0,56,0
2,439930, Note_on_c,0,60,61
2,439930, Note_on_c,0,51,52
2,439986, Note_on_c,0,60,0
2,440010, Note_on_c,0,51,0
2,440022, Note_on_c,0,56,65
2,440026, Note_on_c,0,48,52
2,440050, Note_on_c,0,48,0
2,440086, Note_on_c,0,56,0
2,440102, Note_on_c,0,51,57
2,440102, Note_on_c,0,44,48
2,440174, Note_on_c,0,44,0
2,440186, Note_on_c,0,51,0
2,440186, Note_on_c,0,56,59
2,440198, Control_c,0,64,24
2,440206, Note_on_c,0,48,42
2,440218, Note_on_c,0,56,0
2,440218, Control_c,0,64,40
2,440230, Note_on_c,0,48,0
2,440242, Control_c,0,64,56
2,440278, Note_on_c,0,60,67
2,440286, Note_on_c,0,51,36
2,440322, Control_c,0,64,0
2,440338, Note_on_c,0,60,0
2,440354, Note_on_c,0,51,0
2,440366, Note_on_c,0,56,50
2,440366, Note_on_c,0,63,64
2,440414, Note_on_c,0,56,0
2,440442, Note_on_c,0,63,0
2,440454, Note_on_c,0,51,37
2,440454, Control_c,0,64,24
2,440458, Note_on_c,0,60,59
2,440462, Control_c,0,64,40
2,440482, Control_c,0,64,56
2,440498, Control_c,0,64,72
2,440510, Note_on_c,0,51,0
2,440514, Control_c,0,64,88
2,440518, Note_on_c,0,60,0
2,440522, Control_c,0,64,104
2,440534, Note_on_c,0,56,58
2,440546, Note_on_c,0,48,46
2,440558, Control_c,0,64,127
2,440574, Note_on_c,0,56,0
2,440578, Note_on_c,0,48,0
2,440610, Note_on_c,0,51,51
2,440614, Note_on_c,0,60,67
2,440658, Control_c,0,64,88
2,440662, Note_on_c,0,60,0
2,440666, Control_c,0,64,56
2,440674, Control_c,0,64,0
2,440678, Note_on_c,0,51,0
2,440702, Note_on_c,0,63,62
2,440706, Note_on_c,0,56,35
2,440734, Control_c,0,64,40
2,440742, Control_c,0,64,88
2,440750, Control_c,0,64,104
2,440762, Control_c,0,64,127
2,440766, Note_on_c,0,56,0
2,440782, Note_on_c,0,63,0
2,440794, Note_on_c,0,68,56
2,440794, Note_on_c,0,60,40
2,440806, Note_on_c,0,68,0
2,440834, Note_on_c,0,60,0
2,440870, Note_on_c,0,72,66
2,440878, Note_on_c,0,63,48
2,440910, Note_on_c,0,72,0
2,440938, Note_on_c,0,63,0
2,440946, Note_on_c,0,75,69
2,440954, Note_on_c,0,68,44
2,441014, Note_on_c,0,68,0
2,441014, Control_c,0,64,88
2,441022, Note_on_c,0,75,0
2,441026, Control_c,0,64,56
2,441034, Note_on_c,0,80,70
2,441034, Control_c,0,64,24
2,441038, Note_on_c,0,72,38
2,441042, Control_c,0,64,0
2,441090, Note_on_c,0,72,0
2,441094, Control_c,0,64,40
2,441102, Control_c,0,64,88
2,441106, Note_on_c,0,80,0
2,441114, Control_c,0,64,127
2,441118, Note_on_c,0,75,68
2,441126, Note_on_c,0,68,43
2,441178, Note_on_c,0,68,0
2,441202, Note_on_c,0,75,0
2,441206, Note_on_c,0,80,60
2,441218, Note_on_c,0,72,39
2,441234, Note_on_c,0,80,0
2,441242, Note_on_c,0,72,0
2,441286, Note_on_c,0,84,71
2,441306, Note_on_c,0,75,40
2,441326, Note_on_c,0,75,0
2,441338, Note_on_c,0,84,0
2,441370, Note_on_c,0,87,70
2,441378, Note_on_c,0,80,48
2,441438, Note_on_c,0,80,0
2,441458, Note_on_c,0,92,75
2,441466, Note_on_c,0,87,0
2,441474, Note_on_c,0,84,37
2,441490, Note_on_c,0,92,0
2,441506, Note_on_c,0,84,0
2,441542, Note_on_c,0,96,74
2,441554, Note_on_c,0,87,53
2,441602, Note_on_c,0,96,0
2,441626, Note_on_c,0,99,77
2,441626, Note_on_c,0,92,46
2,441642, Note_on_c,0,87,0
2,441710, Note_on_c,0,99,0
2,441722, Note_on_c,0,92,0
2,441730, Note_on_c,0,104,83
2,441734, Note_on_c,0,96,58
2,441762, Note_on_c,0,96,0
2,441774, Note_on_c,0,104,0
2,442054, Control_c,0,64,104
2,442062, Control_c,0,64,88
2,442070, Control_c,0,64,56
2,442078, Control_c,0,64,24
2,442086, Control_c,0,64,0
2,511442, Note_on_c,0,87,85
2,511446, Note_on_c,0,51,76
2,511446, Note_on_c,0,75,91
2,511450, Note_on_c,0,63,61
2,511494, Note_on_c,0,63,0
2,511494, Note_on_c,0,75,0
2,511498, Note_on_c,0,51,0
2,511514, Note_on_c,0,87,0
2,511554, Note_on_c,0,62,68
2,511558, Note_on_c,0,86,96
2,511558, Note_on_c,0,50,74
2,511562, Note_on_c,0,74,86
2,511598, Note_on_c,0,74,0
2,511598, Note_on_c,0,50,0
2,511598, Note_on_c,0,62,0
2,511602, Note_on_c,0,86,0
2,511662, Note_on_c,0,60,69
2,511666, Note_on_c,0,84,96
2,511666, Note_on_c,0,72,93
2,511674, Note_on_c,0,48,52
2,511694, Note_on_c,0,48,0
2,511698, Note_on_c,0,60,0
2,511706, Note_on_c,0,72,0
2,511706, Note_on_c,0,84,0
2,511770, Note_on_c,0,46,75
2,511770, Note_on_c,0,82,88
2,511770, Note_on_c,0,70,84
2,511770, Note_on_c,0,58,71
2,511798, Note_on_c,0,58,0
2,511798, Note_on_c,0,46,0
2,511806, Note_on_c,0,70,0
2,511826, Note_on_c,0,82,0
2,511842, Control_c,0,64,88
2,511854, Control_c,0,64,0
2,511882, Note_on_c,0,60,81
2,511882, Note_on_c,0,84,97
2,511882, Note_on_c,0,48,82
2,511886, Note_on_c,0,72,92
2,511902, Control_c,0,64,40
2,511910, Control_c,0,64,127
2,511914, Note_on_c,0,72,0
2,511914, Note_on_c,0,48,0
2,511914, Note_on_c,0,60,0
2,511926, Note_on_c,0,84,0
2,511986, Note_on_c,0,82,91
2,511986, Note_on_c,0,70,88
2,511986, Note_on_c,0,58,77
2,511986, Note_on_c,0,46,78
2,512018, Note_on_c,0,46,0
2,512018, Note_on_c,0,58,0
2,512022, Note_on_c,0,70,0
2,512026, Note_on_c,0,82,0
2,512094, Note_on_c,0,80,91
2,512094, Note_on_c,0,56,67
2,512094, Note_on_c,0,68,87
2,512098, Note_on_c,0,44,69
2,512134, Note_on_c,0,44,0
2,512138, Note_on_c,0,68,0
2,512138, Note_on_c,0,56,0
2,512142, Note_on_c,0,80,0
2,512194, Note_on_c,0,67,82
2,512194, Note_on_c,0,43,74
2,512198, Note_on_c,0,79,97
2,512198, Note_on_c,0,55,74
2,512222, Note_on_c,0,67,0
2,512226, Note_on_c,0,43,0
2,512234, Note_on_c,0,79,0
2,512234, Note_on_c,0,55,0
2,512258, Control_c,0,64,104
2,512266, Control_c,0,64,0
2,512310, Note_on_c,0,87,92
2,512314, Note_on_c,0,63,77
2,512314, Note_on_c,0,75,91
2,512314, Note_on_c,0,51,73
2,512326, Control_c,0,64,104
2,512334, Control_c,0,64,127
2,512346, Note_on_c,0,75,0
2,512346, Note_on_c,0,63,0
2,512350, Note_on_c,0,51,0
2,512354, Note_on_c,0,87,0
2,512414, Note_on_c,0,86,94
2,512418, Note_on_c,0,74,88
2,512418, Note_on_c,0,62,70
2,512422, Note_on_c,0,50,73
2,512450, Note_on_c,0,50,0
2,512454, Note_on_c,0,62,0
2,512454, Note_on_c,0,74,0
2,512458, Note_on_c,0,86,0
2,512522, Note_on_c,0,84,92
2,512522, Note_on_c,0,72,92
2,512522, Note_on_c,0,60,73
2,512542, Note_on_c,0,48,56
2,512558, Note_on_c,0,48,0
2,512558, Note_on_c,0,72,0
2,512562, Note_on_c,0,60,0
2,512562, Note_on_c,0,84,0
2,512622, Note_on_c,0,70,84
2,512622, Note_on_c,0,58,71
2,512626, Note_on_c,0,82,85
2,512626, Note_on_c,0,46,73
2,512650, Note_on_c,0,46,0
2,512654, Note_on_c,0,58,0
2,512662, Note_on_c,0,70,0
2,512678, Note_on_c,0,82,0
2,512686, Control_c,0,64,72
2,512694, Control_c,0,64,0
2,512730, Note_on_c,0,60,77
2,512734, Note_on_c,0,84,97
2,512734, Note_on_c,0,72,96
2,512738, Note_on_c,0,48,77
2,512758, Control_c,0,64,56
2,512762, Note_on_c,0,48,0
2,512766, Note_on_c,0,60,0
2,512770, Control_c,0,64,127
2,512774, Note_on_c,0,72,0
2,512774, Note_on_c,0,84,0
2,512834, Note_on_c,0,82,86
2,512834, Note_on_c,0,58,67
2,512834, Note_on_c,0,70,86
2,512838, Note_on_c,0,46,67
2,512858, Note_on_c,0,46,0
2,512870, Note_on_c,0,70,0
2,512870, Note_on_c,0,58,0
2,512882, Note_on_c,0,82,0
2,512934, Note_on_c,0,80,88
2,512934, Note_on_c,0,68,86
2,512938, Note_on_c,0,56,65
2,512942, Note_on_c,0,44,62
2,512978, Note_on_c,0,56,0
2,512978, Note_on_c,0,68,0
2,512982, Note_on_c,0,44,0
2,512990, Note_on_c,0,80,0
2,513030, Note_on_c,0,67,82
2,513034, Note_on_c,0,79,96
2,513034, Note_on_c,0,55,76
2,513034, Note_on_c,0,43,69
2,513050, Note_on_c,0,67,0
2,513054, Note_on_c,0,43,0
2,513062, Note_on_c,0,55,0
2,513066, Note_on_c,0,79,0
2,513090, Control_c,0,64,104
2,513098, Control_c,0,64,24
2,513110, Control_c,0,64,0
2,513146, Note_on_c,0,91,105
2,513146, Note_on_c,0,79,109
2,513150, Note_on_c,0,67,70
2,513150, Note_on_c,0,55,63
2,513154, Control_c,0,64,40
2,513166, Control_c,0,64,127
2,513174, Note_on_c,0,79,0
2,513182, Note_on_c,0,91,0
2,513182, Note_on_c,0,67,0
2,513186, Note_on_c,0,55,0
2,513254, Note_on_c,0,89,100
2,513254, Note_on_c,0,77,103
2,513254, Note_on_c,0,65,73
2,513254, Note_on_c,0,53,69
2,513286, Note_on_c,0,53,0
2,513286, Note_on_c,0,77,0
2,513290, Note_on_c,0,65,0
2,513294, Note_on_c,0,89,0
2,513350, Note_on_c,0,75,87
2,513350, Note_on_c,0,87,81
2,513354, Note_on_c,0,63,62
2,513354, Note_on_c,0,51,74
2,513390, Note_on_c,0,51,0
2,513390, Note_on_c,0,63,0
2,513394, Note_on_c,0,75,0
2,513398, Note_on_c,0,87,0
2,513454, Note_on_c,0,86,94
2,513454, Note_on_c,0,74,87
2,513454, Note_on_c,0,62,67
2,513462, Note_on_c,0,50,43
2,513478, Note_on_c,0,62,0
2,513486, Note_on_c,0,50,0
2,513486, Note_on_c,0,74,0
2,513494, Note_on_c,0,86,0
2,513522, Control_c,0,64,72
2,513534, Control_c,0,64,0
2,513554, Note_on_c,0,87,92
2,513554, Note_on_c,0,75,93
2,513562, Note_on_c,0,63,73
2,513562, Note_on_c,0,51,82
2,513582, Control_c,0,64,56
2,513590, Control_c,0,64,127
2,513598, Note_on_c,0,51,0
2,513598, Note_on_c,0,63,0
2,513598, Note_on_c,0,75,0
2,513606, Note_on_c,0,87,0
2,513658, Note_on_c,0,62,66
2,513662, Note_on_c,0,86,92
2,513662, Note_on_c,0,74,86
2,513662, Note_on_c,0,50,74
2,513694, Note_on_c,0,50,0
2,513694, Note_on_c,0,74,0
2,513694, Note_on_c,0,62,0
2,513698, Note_on_c,0,86,0
2,513762, Note_on_c,0,84,89
2,513762, Note_on_c,0,60,68
2,513766, Note_on_c,0,72,84
2,513778, Note_on_c,0,48,46
2,513794, Note_on_c,0,48,0
2,513798, Note_on_c,0,72,0
2,513798, Note_on_c,0,60,0
2,513802, Note_on_c,0,84,0
2,513854, Note_on_c,0,70,80
2,513858, Note_on_c,0,46,73
2,513858, Note_on_c,0,82,82
2,513862, Note_on_c,0,58,65
2,513882, Note_on_c,0,58,0
2,513886, Note_on_c,0,70,0
2,513890, Note_on_c,0,46,0
2,513906, Note_on_c,0,82,0
2,513930, Control_c,0,64,88
2,513938, Control_c,0,64,24
2,513950, Control_c,0,64,0
2,513970, Note_on_c,0,67,76
2,513970, Note_on_c,0,91,103
2,513974, Note_on_c,0,55,82
2,513974, Note_on_c,0,79,94
2,513978, Control_c,0,64,40
2,513986, Control_c,0,64,127
2,513998, Note_on_c,0,79,0
2,514002, Note_on_c,0,67,0
2,514002, Note_on_c,0,91,0
2,514002, Note_on_c,0,55,0
2,514070, Note_on_c,0,89,97
2,514074, Note_on_c,0,77,92
2,514074, Note_on_c,0,65,67
2,514082, Note_on_c,0,53,77
2,514106, Note_on_c,0,77,0
2,514110, Note_on_c,0,89,0
2,514110, Note_on_c,0,53,0
2,514114, Note_on_c,0,65,0
2,514170, Note_on_c,0,87,84
2,514170, Note_on_c,0,75,87
2,514174, Note_on_c,0,63,67
2,514178, Note_on_c,0,51,70
2,514202, Note_on_c,0,63,0
2,514214, Note_on_c,0,51,0
2,514214, Note_on_c,0,75,0
2,514222, Note_on_c,0,87,0
2,514270, Note_on_c,0,74,87
2,514274, Note_on_c,0,86,93
2,514274, Note_on_c,0,62,68
2,514286, Note_on_c,0,50,61
2,514298, Note_on_c,0,62,0
2,514302, Note_on_c,0,50,0
2,514306, Note_on_c,0,86,0
2,514306, Note_on_c,0,74,0
2,514346, Control_c,0,64,72
2,514354, Control_c,0,64,24
2,514366, Control_c,0,64,0
2,514374, Note_on_c,0,75,92
2,514374, Note_on_c,0,87,92
2,514378, Note_on_c,0,63,71
2,514378, Note_on_c,0,51,81
2,514394, Control_c,0,64,40
2,514402, Control_c,0,64,104
2,514410, Note_on_c,0,63,0
2,514410, Control_c,0,64,127
2,514414, Note_on_c,0,51,0
2,514414, Note_on_c,0,75,0
2,514422, Note_on_c,0,87,0
2,514474, Note_on_c,0,62,72
2,514474, Note_on_c,0,86,90
2,514478, Note_on_c,0,74,84
2,514478, Note_on_c,0,50,77
2,514510, Note_on_c,0,74,0
2,514510, Note_on_c,0,62,0
2,514514, Note_on_c,0,50,0
2,514518, Note_on_c,0,86,0
2,514574, Note_on_c,0,60,73
2,514574, Note_on_c,0,84,92
2,514578, Note_on_c,0,72,90
2,514582, Note_on_c,0,48,70
2,514602, Note_on_c,0,48,0
2,514610, Note_on_c,0,72,0
2,514610, Note_on_c,0,60,0
2,514614, Note_on_c,0,84,0
2,514670, Note_on_c,0,70,84
2,514670, Note_on_c,0,46,77
2,514670, Note_on_c,0,82,86
2,514678, Note_on_c,0,58,57
2,514694, Note_on_c,0,58,0
2,514694, Note_on_c,0,46,0
2,514698, Note_on_c,0,70,0
2,514718, Note_on_c,0,82,0
2,514750, Control_c,0,64,56
2,514762, Control_c,0,64,0
2,514786, Note_on_c,0,96,103
2,514786, Note_on_c,0,72,82
2,514790, Note_on_c,0,60,83
2,514790, Note_on_c,0,84,85
2,514790, Control_c,0,64,24
2,514798, Control_c,0,64,88
2,514806, Control_c,0,64,127
2,514810, Note_on_c,0,72,0
2,514810, Note_on_c,0,96,0
2,514814, Note_on_c,0,60,0
2,514814, Note_on_c,0,84,0
2,514886, Note_on_c,0,94,92
2,514886, Note_on_c,0,82,92
2,514886, Note_on_c,0,58,77
2,514886, Note_on_c,0,70,79
2,514914, Note_on_c,0,58,0
2,514918, Note_on_c,0,70,0
2,514922, Note_on_c,0,82,0
2,514930, Note_on_c,0,94,0
2,514986, Note_on_c,0,92,91
2,514986, Note_on_c,0,80,95
2,514986, Note_on_c,0,68,72
2,514986, Note_on_c,0,56,68
2,515018, Note_on_c,0,56,0
2,515022, Note_on_c,0,68,0
2,515026, Note_on_c,0,80,0
2,515038, Note_on_c,0,92,0
2,515086, Note_on_c,0,91,94
2,515086, Note_on_c,0,79,90
2,515090, Note_on_c,0,67,71
2,515090, Note_on_c,0,55,74
2,515114, Note_on_c,0,55,0
2,515118, Note_on_c,0,67,0
2,515122, Note_on_c,0,79,0
2,515126, Note_on_c,0,91,0
2,515150, Control_c,0,64,104
2,515158, Control_c,0,64,40
2,515166, Control_c,0,64,0
2,515182, Note_on_c,0,92,92
2,515186, Note_on_c,0,80,91
2,515186, Note_on_c,0,68,76
2,515186, Note_on_c,0,56,72
2,515206, Control_c,0,64,56
2,515210, Control_c,0,64,127
2,515218, Note_on_c,0,68,0
2,515222, Note_on_c,0,56,0
2,515222, Note_on_c,0,80,0
2,515230, Note_on_c,0,92,0
2,515286, Note_on_c,0,91,89
2,515286, Note_on_c,0,67,56
2,515286, Note_on_c,0,79,87
2,515290, Note_on_c,0,55,51
2,515318, Note_on_c,0,67,0
2,515322, Note_on_c,0,55,0
2,515322, Note_on_c,0,79,0
2,515326, Note_on_c,0,91,0
2,515382, Note_on_c,0,89,93
2,515382, Note_on_c,0,65,74
2,515386, Note_on_c,0,77,90
2,515390, Note_on_c,0,53,72
2,515418, Note_on_c,0,53,0
2,515418, Note_on_c,0,77,0
2,515422, Note_on_c,0,65,0
2,515422, Note_on_c,0,89,0
2,515474, Note_on_c,0,75,83
2,515478, Note_on_c,0,87,86
2,515482, Note_on_c,0,51,81
2,515490, Note_on_c,0,63,58
2,515506, Note_on_c,0,63,0
2,515506, Note_on_c,0,51,0
2,515510, Note_on_c,0,75,0
2,515526, Note_on_c,0,87,0
2,515554, Control_c,0,64,104
2,515562, Control_c,0,64,40
2,515574, Control_c,0,64,0
2,515586, Note_on_c,0,72,80
2,515586, Note_on_c,0,84,94
2,515590, Note_on_c,0,60,82
2,515590, Note_on_c,0,96,92
2,515598, Control_c,0,64,88
2,515610, Note_on_c,0,60,0
2,515610, Control_c,0,64,127
2,515614, Note_on_c,0,72,0
2,515618, Note_on_c,0,96,0
2,515622, Note_on_c,0,84,0
2,515682, Note_on_c,0,94,91
2,515686, Note_on_c,0,70,85
2,515686, Note_on_c,0,58,79
2,515686, Note_on_c,0,82,90
2,515714, Note_on_c,0,58,0
2,515718, Note_on_c,0,70,0
2,515722, Note_on_c,0,82,0
2,515734, Note_on_c,0,94,0
2,515782, Note_on_c,0,92,91
2,515782, Note_on_c,0,56,80
2,515782, Note_on_c,0,80,90
2,515782, Note_on_c,0,68,74
2,515818, Note_on_c,0,68,0
2,515822, Note_on_c,0,56,0
2,515830, Note_on_c,0,80,0
2,515834, Note_on_c,0,92,0
2,515878, Note_on_c,0,91,94
2,515878, Note_on_c,0,79,90
2,515886, Note_on_c,0,67,68
2,515894, Note_on_c,0,55,48
2,515914, Note_on_c,0,55,0
2,515918, Note_on_c,0,67,0
2,515918, Note_on_c,0,79,0
2,515922, Note_on_c,0,91,0
2,515950, Control_c,0,64,104
2,515958, Control_c,0,64,40
2,515970, Control_c,0,64,0
2,515978, Note_on_c,0,92,97
2,515982, Note_on_c,0,80,93
2,515982, Note_on_c,0,68,78
2,515982, Note_on_c,0,56,77
2,515998, Control_c,0,64,56
2,516006, Control_c,0,64,127
2,516018, Note_on_c,0,56,0
2,516018, Note_on_c,0,68,0
2,516022, Note_on_c,0,80,0
2,516026, Note_on_c,0,92,0
2,516078, Note_on_c,0,91,97
2,516082, Note_on_c,0,79,89
2,516082, Note_on_c,0,67,67
2,516086, Note_on_c,0,55,73
2,516114, Note_on_c,0,79,0
2,516118, Note_on_c,0,91,0
2,516118, Note_on_c,0,67,0
2,516118, Note_on_c,0,55,0
2,516174, Note_on_c,0,89,97
2,516178, Note_on_c,0,77,96
2,516178, Note_on_c,0,65,72
2,516190, Note_on_c,0,53,68
2,516210, Note_on_c,0,53,0
2,516214, Note_on_c,0,77,0
2,516218, Note_on_c,0,65,0
2,516218, Note_on_c,0,89,0
2,516278, Note_on_c,0,75,88
2,516278, Note_on_c,0,51,85
2,516278, Note_on_c,0,87,89
2,516286, Note_on_c,0,63,70
2,516302, Note_on_c,0,63,0
2,516306, Note_on_c,0,51,0
2,516310, Note_on_c,0,75,0
2,516334, Note_on_c,0,87,0
2,516402, Control_c,0,64,104
2,516410, Control_c,0,64,24
2,516418, Control_c,0,64,0
2,516430, Note_on_c,0,87,105
2,516430, Note_on_c,0,99,106
2,516430, Note_on_c,0,63,85
2,516430, Note_on_c,0,75,89
2,516458, Control_c,0,64,104
2,516462, Note_on_c,0,87,0
2,516470, Control_c,0,64,127
2,516486, Note_on_c,0,99,0
2,516498, Note_on_c,0,75,0
2,516506, Note_on_c,0,63,0
2,516562, Note_on_c,0,86,99
2,516562, Note_on_c,0,98,105
2,516566, Note_on_c,0,74,81
2,516570, Note_on_c,0,62,79
2,516598, Note_on_c,0,74,0
2,516602, Note_on_c,0,86,0
2,516606, Note_on_c,0,62,0
2,516610, Note_on_c,0,98,0
2,516674, Note_on_c,0,95,99
2,516674, Note_on_c,0,83,99
2,516682, Note_on_c,0,71,78
2,516682, Note_on_c,0,59,78
2,516710, Note_on_c,0,83,0
2,516714, Note_on_c,0,95,0
2,516714, Note_on_c,0,71,0
2,516714, Note_on_c,0,59,0
2,516774, Note_on_c,0,93,105
2,516774, Note_on_c,0,81,97
2,516782, Note_on_c,0,69,80
2,516786, Note_on_c,0,57,77
2,516814, Note_on_c,0,57,0
2,516814, Note_on_c,0,93,0
2,516814, Note_on_c,0,81,0
2,516818, Note_on_c,0,69,0
2,516874, Control_c,0,64,56
2,516878, Note_on_c,0,95,103
2,516882, Note_on_c,0,83,100
2,516886, Note_on_c,0,71,79
2,516886, Control_c,0,64,0
2,516890, Note_on_c,0,59,70
2,516902, Control_c,0,64,56
2,516914, Control_c,0,64,104
2,516918, Note_on_c,0,59,0
2,516918, Note_on_c,0,71,0
2,516918, Note_on_c,0,83,0
2,516922, Note_on_c,0,95,0
2,516922, Control_c,0,64,127
2,516978, Note_on_c,0,82,90
2,516982, Note_on_c,0,94,91
2,516986, Note_on_c,0,70,79
2,516986, Note_on_c,0,58,76
2,517010, Note_on_c,0,58,0
2,517010, Note_on_c,0,70,0
2,517014, Note_on_c,0,82,0
2,517018, Note_on_c,0,94,0
2,517082, Note_on_c,0,92,97
2,517082, Note_on_c,0,68,76
2,517082, Note_on_c,0,80,88
2,517086, Note_on_c,0,56,74
2,517114, Note_on_c,0,56,0
2,517114, Note_on_c,0,68,0
2,517122, Note_on_c,0,80,0
2,517122, Note_on_c,0,92,0
2,517178, Note_on_c,0,54,81
2,517178, Note_on_c,0,90,93
2,517178, Note_on_c,0,66,77
2,517178, Note_on_c,0,78,92
2,517206, Note_on_c,0,66,0
2,517206, Note_on_c,0,54,0
2,517214, Note_on_c,0,78,0
2,517222, Note_on_c,0,90,0
2,517250, Control_c,0,64,56
2,517262, Control_c,0,64,0
2,517282, Note_on_c,0,92,95
2,517282, Note_on_c,0,68,80
2,517282, Note_on_c,0,80,90
2,517282, Note_on_c,0,56,77
2,517290, Control_c,0,64,88
2,517298, Control_c,0,64,127
2,517314, Note_on_c,0,68,0
2,517318, Note_on_c,0,56,0
2,517326, Note_on_c,0,80,0
2,517330, Note_on_c,0,92,0
2,517378, Note_on_c,0,67,74
2,517386, Note_on_c,0,91,94
2,517386, Note_on_c,0,79,89
2,517386, Note_on_c,0,55,75
2,517414, Note_on_c,0,55,0
2,517414, Note_on_c,0,67,0
2,517418, Note_on_c,0,79,0
2,517422, Note_on_c,0,91,0
2,517486, Note_on_c,0,88,94
2,517490, Note_on_c,0,76,93
2,517494, Note_on_c,0,64,69
2,517498, Note_on_c,0,52,69
2,517514, Note_on_c,0,52,0
2,517514, Note_on_c,0,64,0
2,517518, Note_on_c,0,76,0
2,517518, Note_on_c,0,88,0
2,517582, Note_on_c,0,86,96
2,517582, Note_on_c,0,74,90
2,517594, Note_on_c,0,50,81
2,517594, Note_on_c,0,62,70
2,517610, Note_on_c,0,50,0
2,517614, Note_on_c,0,62,0
2,517614, Note_on_c,0,74,0
2,517626, Note_on_c,0,86,0
2,517658, Control_c,0,64,88
2,517666, Control_c,0,64,24
2,517674, Control_c,0,64,0
2,517686, Note_on_c,0,88,94
2,517686, Control_c,0,64,24
2,517690, Note_on_c,0,76,90
2,517690, Note_on_c,0,64,75
2,517694, Note_on_c,0,52,73
2,517698, Control_c,0,64,72
2,517702, Control_c,0,64,127
2,517714, Note_on_c,0,52,0
2,517722, Note_on_c,0,64,0
2,517722, Note_on_c,0,76,0
2,517726, Note_on_c,0,88,0
2,517778, Note_on_c,0,87,87
2,517786, Note_on_c,0,75,84
2,517786, Note_on_c,0,63,69
2,517790, Note_on_c,0,51,76
2,517806, Note_on_c,0,51,0
2,517814, Note_on_c,0,63,0
2,517814, Note_on_c,0,75,0
2,517826, Note_on_c,0,87,0
2,517882, Note_on_c,0,83,93
2,517886, Note_on_c,0,71,84
2,517890, Note_on_c,0,59,77
2,517902, Note_on_c,0,47,72
2,517910, Note_on_c,0,59,0
2,517914, Note_on_c,0,83,0
2,517914, Note_on_c,0,71,0
2,517930, Note_on_c,0,47,0
2,517982, Note_on_c,0,81,93
2,517982, Note_on_c,0,69,86
2,517986, Note_on_c,0,45,79
2,517986, Note_on_c,0,57,70
2,518006, Note_on_c,0,57,0
2,518006, Note_on_c,0,45,0
2,518014, Note_on_c,0,69,0
2,518022, Note_on_c,0,81,0
2,518062, Control_c,0,64,56
2,518074, Control_c,0,64,0
2,518082, Note_on_c,0,83,97
2,518086, Note_on_c,0,71,86
2,518086, Note_on_c,0,59,71
2,518090, Note_on_c,0,47,74
2,518102, Control_c,0,64,40
2,518110, Control_c,0,64,104
2,518114, Note_on_c,0,47,0
2,518114, Note_on_c,0,59,0
2,518118, Note_on_c,0,71,0
2,518122, Control_c,0,64,127
2,518126, Note_on_c,0,83,0
2,518178, Note_on_c,0,46,79
2,518178, Note_on_c,0,58,72
2,518182, Note_on_c,0,82,85
2,518186, Note_on_c,0,70,82
2,518206, Note_on_c,0,46,0
2,518210, Note_on_c,0,58,0
2,518218, Note_on_c,0,70,0
2,518222, Note_on_c,0,82,0
2,518274, Note_on_c,0,56,73
2,518278, Note_on_c,0,44,73
2,518282, Note_on_c,0,80,90
2,518286, Note_on_c,0,68,76
2,518306, Note_on_c,0,44,0
2,518306, Note_on_c,0,56,0
2,518318, Note_on_c,0,80,0
2,518318, Note_on_c,0,68,0
2,518378, Note_on_c,0,78,90
2,518378, Note_on_c,0,66,84
2,518382, Note_on_c,0,54,70
2,518386, Note_on_c,0,42,68
2,518414, Note_on_c,0,42,0
2,518418, Note_on_c,0,54,0
2,518418, Note_on_c,0,66,0
2,518422, Note_on_c,0,78,0
2,518450, Control_c,0,64,88
2,518458, Control_c,0,64,40
2,518470, Control_c,0,64,0
2,518478, Note_on_c,0,80,90
2,518478, Note_on_c,0,68,84
2,518478, Control_c,0,64,56
2,518482, Note_on_c,0,56,73
2,518482, Note_on_c,0,44,69
2,518490, Control_c,0,64,127
2,518514, Note_on_c,0,56,0
2,518522, Note_on_c,0,44,0
2,518522, Note_on_c,0,68,0
2,518530, Note_on_c,0,80,0
2,518578, Note_on_c,0,79,92
2,518582, Note_on_c,0,43,74
2,518582, Note_on_c,0,67,84
2,518582, Note_on_c,0,55,74
2,518602, Note_on_c,0,55,0
2,518614, Note_on_c,0,67,0
2,518618, Note_on_c,0,43,0
2,518618, Note_on_c,0,79,0
2,518678, Note_on_c,0,76,96
2,518678, Note_on_c,0,64,88
2,518682, Note_on_c,0,52,75
2,518686, Note_on_c,0,40,73
2,518706, Note_on_c,0,52,0
2,518706, Note_on_c,0,76,0
2,518710, Note_on_c,0,64,0
2,518722, Note_on_c,0,40,0
2,518774, Note_on_c,0,74,94
2,518774, Note_on_c,0,62,87
2,518786, Note_on_c,0,38,76
2,518786, Note_on_c,0,50,74
2,518806, Note_on_c,0,38,0
2,518806, Note_on_c,0,62,0
2,518810, Note_on_c,0,50,0
2,518814, Note_on_c,0,74,0
2,518858, Control_c,0,64,56
2,518866, Control_c,0,64,0
2,518878, Note_on_c,0,52,81
2,518878, Note_on_c,0,76,93
2,518878, Note_on_c,0,64,85
2,518882, Note_on_c,0,40,74
2,518886, Control_c,0,64,24
2,518894, Control_c,0,64,72
2,518902, Control_c,0,64,127
2,518910, Note_on_c,0,76,0
2,518914, Note_on_c,0,52,0
2,518914, Note_on_c,0,64,0
2,518914, Note_on_c,0,40,0
2,518974, Note_on_c,0,75,85
2,518974, Note_on_c,0,51,71
2,518978, Note_on_c,0,63,85
2,518982, Note_on_c,0,39,71
2,519006, Note_on_c,0,39,0
2,519006, Note_on_c,0,63,0
2,519006, Note_on_c,0,51,0
2,519018, Note_on_c,0,75,0
2,519074, Note_on_c,0,71,93
2,519074, Note_on_c,0,47,76
2,519074, Note_on_c,0,59,83
2,519082, Note_on_c,0,35,53
2,519098, Note_on_c,0,47,0
2,519102, Note_on_c,0,71,0
2,519102, Note_on_c,0,35,0
2,519106, Note_on_c,0,59,0
2,519162, Note_on_c,0,57,86
2,519162, Note_on_c,0,69,97
2,519174, Note_on_c,0,45,79
2,519178, Note_on_c,0,33,74
2,519198, Note_on_c,0,57,0
2,519202, Note_on_c,0,69,0
2,519206, Note_on_c,0,45,0
2,519206, Note_on_c,0,33,0
2,519254, Control_c,0,64,72
2,519262, Control_c,0,64,0
2,519270, Note_on_c,0,71,93
2,519270, Note_on_c,0,59,85
2,519274, Note_on_c,0,47,74
2,519278, Note_on_c,0,35,74
2,519282, Control_c,0,64,24
2,519290, Control_c,0,64,72
2,519302, Note_on_c,0,35,0
2,519302, Control_c,0,64,127
2,519306, Note_on_c,0,71,0
2,519306, Note_on_c,0,59,0
2,519306, Note_on_c,0,47,0
2,519366, Note_on_c,0,70,86
2,519366, Note_on_c,0,58,78
2,519366, Note_on_c,0,46,76
2,519370, Note_on_c,0,34,74
2,519398, Note_on_c,0,34,0
2,519398, Note_on_c,0,46,0
2,519406, Note_on_c,0,58,0
2,519410, Note_on_c,0,70,0
2,519466, Note_on_c,0,68,85
2,519470, Note_on_c,0,44,73
2,519470, Note_on_c,0,56,80
2,519470, Note_on_c,0,32,67
2,519502, Note_on_c,0,32,0
2,519502, Note_on_c,0,44,0
2,519510, Note_on_c,0,56,0
2,519514, Note_on_c,0,68,0
2,519570, Note_on_c,0,30,69
2,519574, Note_on_c,0,54,85
2,519574, Note_on_c,0,42,77
2,519578, Note_on_c,0,66,86
2,519602, Note_on_c,0,42,0
2,519602, Note_on_c,0,30,0
2,519618, Note_on_c,0,54,0
2,519622, Note_on_c,0,66,0
2,519670, Control_c,0,64,72
2,519678, Control_c,0,64,0
2,519682, Note_on_c,0,44,83
2,519682, Note_on_c,0,32,77
2,519686, Note_on_c,0,68,87
2,519690, Note_on_c,0,56,84
2,519706, Control_c,0,64,127
2,519714, Note_on_c,0,44,0
2,519718, Note_on_c,0,32,0
2,519726, Note_on_c,0,56,0
2,519746, Note_on_c,0,68,0
2,519818, Note_on_c,0,43,76
2,519822, Note_on_c,0,67,86
2,519822, Note_on_c,0,31,72
2,519826, Note_on_c,0,55,85
2,519854, Note_on_c,0,43,0
2,519862, Note_on_c,0,31,0
2,519866, Note_on_c,0,67,0
2,519866, Note_on_c,0,55,0
2,519958, Note_on_c,0,39,84
2,519962, Note_on_c,0,51,95
2,519962, Note_on_c,0,63,87
2,519962, Note_on_c,0,27,85
2,519990, Note_on_c,0,27,0
2,519994, Note_on_c,0,39,0
2,519994, Note_on_c,0,51,0
2,520006, Note_on_c,0,63,0
2,520114, Note_on_c,0,59,92
2,520122, Note_on_c,0,47,78
2,520122, Note_on_c,0,35,74
2,520122, Control_c,0,64,40
2,520130, Control_c,0,64,0
2,520158, Note_on_c,0,47,0
2,520158, Control_c,0,64,56
2,520162, Note_on_c,0,35,0
2,520166, Control_c,0,64,127
2,520214, Note_on_c,0,59,0
2,520262, Note_on_c,0,58,89
2,520266, Note_on_c,0,46,79
2,520266, Note_on_c,0,34,79
2,520274, Control_c,0,64,40
2,520282, Control_c,0,64,0
2,520302, Control_c,0,64,40
2,520310, Note_on_c,0,34,0
2,520310, Note_on_c,0,46,0
2,520310, Control_c,0,64,104
2,520318, Control_c,0,64,127
2,520342, Note_on_c,0,58,0
2,520434, Note_on_c,0,55,85
2,520442, Note_on_c,0,43,76
2,520442, Note_on_c,0,31,65
2,520442, Control_c,0,64,56
2,520450, Control_c,0,64,0
2,520478, Control_c,0,64,40
2,520482, Note_on_c,0,43,0
2,520486, Note_on_c,0,31,0
2,520490, Control_c,0,64,104
2,520498, Control_c,0,64,127
2,520526, Note_on_c,0,55,0
2,520650, Note_on_c,0,51,82
2,520650, Note_on_c,0,27,64
2,520650, Note_on_c,0,39,65
2,520778, Note_on_c,0,27,0
2,520778, Note_on_c,0,51,0
2,520798, Note_on_c,0,39,0
2,521188, Note_on_c,0,69,70
2,521188, Note_on_c,0,67,46
2,521188, Note_on_c,0,51,45
2,521188, Note_on_c,0,61,41
2,521356, Control_c,0,64,24
2,521372, Control_c,0,64,0
2,521432, Control_c,0,64,40
2,521448, Control_c,0,64,127
2,521564, Note_on_c,0,61,0
2,521576, Note_on_c,0,51,0
2,521684, Note_on_c,0,69,0
2,521876, Note_on_c,0,70,62
2,521896, Note_on_c,0,67,0
2,522212, Note_on_c,0,75,66
2,522244, Note_on_c,0,70,0
2,522300, Note_on_c,0,75,0
2,522464, Note_on_c,0,39,44
2,522712, Note_on_c,0,67,69
2,522720, Control_c,0,64,104
2,522724, Note_on_c,0,63,42
2,522728, Note_on_c,0,59,50
2,522736, Control_c,0,64,0
2,522768, Note_on_c,0,47,40
2,522804, Note_on_c,0,39,0
2,522812, Control_c,0,64,56
2,522828, Control_c,0,64,127
2,522900, Note_on_c,0,47,0
2,522964, Note_on_c,0,59,0
2,523000, Note_on_c,0,56,44
2,523008, Note_on_c,0,63,0
2,523104, Note_on_c,0,67,0
2,523180, Note_on_c,0,56,0
2,523228, Note_on_c,0,58,41
2,523412, Note_on_c,0,58,0
2,523440, Note_on_c,0,59,39
2,523576, Note_on_c,0,68,66
2,523764, Note_on_c,0,59,0
2,523792, Note_on_c,0,51,41
2,523888, Note_on_c,0,68,0
2,524144, Note_on_c,0,76,81
2,524156, Note_on_c,0,68,42
2,524168, Note_on_c,0,74,46
2,524176, Note_on_c,0,62,39
2,524176, Note_on_c,0,58,30
2,524268, Control_c,0,64,56
2,524284, Control_c,0,64,0
2,524392, Control_c,0,64,56
2,524408, Control_c,0,64,127
2,524552, Note_on_c,0,76,0
2,524580, Note_on_c,0,51,0
2,524620, Note_on_c,0,62,0
2,524712, Note_on_c,0,58,0
2,524760, Note_on_c,0,77,79
2,524764, Note_on_c,0,68,0
2,524984, Note_on_c,0,74,0
2,525084, Note_on_c,0,82,75
2,525148, Note_on_c,0,77,0
2,525168, Note_on_c,0,82,0
2,525304, Note_on_c,0,51,52
2,525472, Note_on_c,0,74,74
2,525480, Note_on_c,0,66,44
2,525492, Note_on_c,0,70,42
2,525536, Control_c,0,64,88
2,525552, Control_c,0,64,0
2,525640, Note_on_c,0,66,0
2,525648, Control_c,0,64,104
2,525660, Note_on_c,0,58,40
2,525664, Control_c,0,64,127
2,525668, Note_on_c,0,51,0
2,525864, Note_on_c,0,58,0
2,525892, Note_on_c,0,68,52
2,525904, Note_on_c,0,74,0
2,526108, Note_on_c,0,67,42
2,526108, Note_on_c,0,75,64
2,526172, Control_c,0,64,104
2,526188, Control_c,0,64,24
2,526204, Control_c,0,64,0
2,526256, Control_c,0,64,88
2,526264, Note_on_c,0,68,0
2,526268, Control_c,0,64,127
2,526292, Note_on_c,0,58,45
2,526344, Note_on_c,0,67,0
2,526356, Note_on_c,0,70,0
2,526468, Note_on_c,0,75,0
2,526536, Note_on_c,0,51,41
2,526584, Note_on_c,0,51,0
2,526600, Note_on_c,0,58,0
2,526904, Note_on_c,0,81,81
2,526904, Note_on_c,0,73,41
2,526904, Note_on_c,0,63,39
2,526904, Note_on_c,0,79,61
2,527060, Control_c,0,64,72
2,527072, Control_c,0,64,0
2,527180, Control_c,0,64,127
2,527280, Note_on_c,0,63,0
2,527292, Note_on_c,0,73,0
2,527424, Note_on_c,0,81,0
2,527480, Note_on_c,0,82,73
2,527516, Note_on_c,0,79,0
2,527800, Note_on_c,0,87,75
2,527840, Note_on_c,0,82,0
2,527884, Note_on_c,0,87,0
2,528000, Note_on_c,0,51,59
2,528188, Control_c,0,64,56
2,528204, Control_c,0,64,0
2,528232, Control_c,0,64,24
2,528248, Note_on_c,0,79,80
2,528248, Control_c,0,64,88
2,528264, Note_on_c,0,75,44
2,528264, Control_c,0,64,127
2,528268, Note_on_c,0,71,46
2,528276, Note_on_c,0,59,39
2,528296, Note_on_c,0,51,0
2,528396, Note_on_c,0,59,0
2,528472, Note_on_c,0,71,0
2,528492, Note_on_c,0,68,58
2,528496, Note_on_c,0,75,0
2,528644, Note_on_c,0,79,0
2,528664, Note_on_c,0,68,0
2,528700, Note_on_c,0,70,58
2,528884, Note_on_c,0,70,0
2,528924, Note_on_c,0,71,53
2,529028, Note_on_c,0,80,70
2,529204, Note_on_c,0,71,0
2,529216, Note_on_c,0,63,51
2,529324, Note_on_c,0,80,0
2,529588, Note_on_c,0,88,82
2,529600, Note_on_c,0,74,61
2,529604, Note_on_c,0,70,47
2,529608, Note_on_c,0,80,44
2,529616, Note_on_c,0,86,55
2,529656, Note_on_c,0,86,0
2,529672, Control_c,0,64,56
2,529692, Control_c,0,64,0
2,529768, Control_c,0,64,88
2,529784, Control_c,0,64,127
2,529888, Note_on_c,0,63,0
2,529924, Note_on_c,0,74,0
2,529948, Note_on_c,0,88,0
2,529968, Note_on_c,0,70,0
2,530124, Note_on_c,0,80,0
2,530136, Note_on_c,0,89,80
2,530484, Note_on_c,0,94,78
2,530528, Note_on_c,0,89,0
2,530564, Note_on_c,0,94,0
2,530704, Note_on_c,0,63,49
2,530864, Note_on_c,0,86,82
2,530880, Note_on_c,0,78,42
2,530884, Note_on_c,0,82,45
2,530884, Control_c,0,64,104
2,530900, Control_c,0,64,24
2,530916, Control_c,0,64,0
2,530960, Control_c,0,64,40
2,530976, Control_c,0,64,127
2,531032, Note_on_c,0,78,0
2,531048, Note_on_c,0,70,53
2,531068, Note_on_c,0,63,0
2,531156, Note_on_c,0,70,0
2,531288, Note_on_c,0,86,0
2,531300, Note_on_c,0,80,55
2,531392, Note_on_c,0,82,0
2,531468, Note_on_c,0,80,0
2,531504, Note_on_c,0,82,41
2,531504, Note_on_c,0,87,71
2,531516, Note_on_c,0,79,41
2,531700, Note_on_c,0,70,46
2,531948, Note_on_c,0,63,37
2,531988, Note_on_c,0,70,0
2,532020, Note_on_c,0,79,0
2,532044, Note_on_c,0,82,0
2,532056, Note_on_c,0,63,0
2,532084, Note_on_c,0,87,0
2,532324, Note_on_c,0,51,50
2,532360, Control_c,0,64,88
2,532376, Control_c,0,64,0
2,532472, Control_c,0,64,127
2,532584, Note_on_c,0,61,39
2,532600, Note_on_c,0,51,0
2,532620, Note_on_c,0,58,34
2,532636, Note_on_c,0,88,90
2,532796, Note_on_c,0,58,0
2,532808, Note_on_c,0,61,0
2,532848, Note_on_c,0,67,59
2,532968, Note_on_c,0,67,0
2,533072, Note_on_c,0,73,52
2,533156, Note_on_c,0,73,0
2,533316, Note_on_c,0,79,73
2,533320, Note_on_c,0,88,0
2,533332, Note_on_c,0,76,45
2,533652, Note_on_c,0,82,75
2,533656, Note_on_c,0,79,0
2,533712, Note_on_c,0,76,0
2,533972, Control_c,0,64,104
2,533980, Note_on_c,0,63,42
2,533992, Control_c,0,64,0
2,534084, Control_c,0,64,104
2,534096, Control_c,0,64,127
2,534216, Note_on_c,0,82,0
2,534216, Note_on_c,0,80,75
2,534220, Note_on_c,0,70,38
2,534240, Note_on_c,0,75,42
2,534244, Note_on_c,0,68,40
2,534420, Note_on_c,0,75,0
2,534452, Note_on_c,0,70,0
2,534496, Note_on_c,0,73,39
2,534672, Note_on_c,0,73,0
2,534760, Note_on_c,0,72,46
2,534856, Control_c,0,64,104
2,534872, Control_c,0,64,56
2,534904, Control_c,0,64,88
2,534920, Control_c,0,64,127
2,535020, Note_on_c,0,63,0
2,535040, Note_on_c,0,72,0
2,535052, Note_on_c,0,87,68
2,535104, Note_on_c,0,68,0
2,535160, Note_on_c,0,80,0
2,535392, Note_on_c,0,92,67
2,535436, Note_on_c,0,87,0
2,535468, Note_on_c,0,92,0
2,535728, Note_on_c,0,51,56
2,535728, Control_c,0,64,104
2,535740, Control_c,0,64,0
2,535800, Control_c,0,64,72
2,535816, Control_c,0,64,127
2,535948, Note_on_c,0,56,41
2,535964, Note_on_c,0,59,36
2,535980, Note_on_c,0,83,90
2,536160, Note_on_c,0,51,0
2,536188, Note_on_c,0,59,0
2,536208, Note_on_c,0,56,0
2,536208, Note_on_c,0,62,66
2,536284, Note_on_c,0,62,0
2,536412, Note_on_c,0,68,59
2,536492, Note_on_c,0,68,0
2,536636, Note_on_c,0,74,72
2,536664, Note_on_c,0,71,37
2,536708, Note_on_c,0,83,0
2,536968, Note_on_c,0,74,0
2,536976, Note_on_c,0,77,78
2,537000, Note_on_c,0,71,0
2,537252, Note_on_c,0,58,42
2,537304, Control_c,0,64,56
2,537320, Control_c,0,64,0
2,537396, Control_c,0,64,88
2,537412, Control_c,0,64,127
2,537504, Note_on_c,0,66,40
2,537508, Note_on_c,0,77,0
2,537512, Note_on_c,0,63,40
2,537516, Note_on_c,0,75,71
2,537528, Note_on_c,0,70,39
2,537608, Note_on_c,0,70,0
2,537696, Note_on_c,0,66,0
2,537756, Note_on_c,0,68,50
2,537940, Note_on_c,0,68,0
2,538036, Note_on_c,0,67,46
2,538112, Control_c,0,64,72
2,538128, Control_c,0,64,0
2,538204, Control_c,0,64,88
2,538220, Control_c,0,64,127
2,538264, Note_on_c,0,82,61
2,538316, Note_on_c,0,75,0
2,538384, Note_on_c,0,58,0
2,538408, Note_on_c,0,67,0
2,538444, Note_on_c,0,63,0
2,538648, Note_on_c,0,87,63
2,538732, Note_on_c,0,82,0
2,538736, Note_on_c,0,87,0
2,539080, Note_on_c,0,51,78
2,539084, Note_on_c,0,39,60
2,539104, Control_c,0,64,40
2,539120, Control_c,0,64,0
2,539132, Control_c,0,64,40
2,539148, Control_c,0,64,104
2,539164, Control_c,0,64,127
2,539196, Note_on_c,0,51,0
2,539220, Note_on_c,0,39,0
2,539336, Note_on_c,0,49,82
2,539344, Note_on_c,0,37,61
2,539420, Note_on_c,0,37,0
2,539472, Note_on_c,0,79,97
2,539476, Note_on_c,0,70,75
2,539480, Note_on_c,0,67,66
2,539504, Note_on_c,0,49,0
2,539604, Note_on_c,0,38,75
2,539616, Note_on_c,0,50,77
2,539648, Note_on_c,0,38,0
2,539676, Note_on_c,0,50,0
2,539908, Control_c,0,64,72
2,539916, Note_on_c,0,58,80
2,539920, Note_on_c,0,55,72
2,539920, Note_on_c,0,50,73
2,539928, Control_c,0,64,0
2,540004, Control_c,0,64,127
2,540108, Note_on_c,0,79,0
2,540128, Note_on_c,0,70,0
2,540156, Note_on_c,0,67,0
2,540344, Note_on_c,0,77,93
2,540352, Note_on_c,0,65,70
2,540352, Note_on_c,0,70,70
2,540416, Note_on_c,0,65,0
2,540420, Note_on_c,0,77,0
2,540420, Note_on_c,0,70,0
2,540600, Note_on_c,0,75,93
2,540600, Note_on_c,0,63,73
2,540608, Note_on_c,0,70,67
2,540616, Note_on_c,0,67,64
2,540644, Note_on_c,0,50,0
2,540652, Note_on_c,0,67,0
2,540664, Note_on_c,0,55,0
2,540696, Note_on_c,0,63,0
2,540708, Note_on_c,0,58,0
2,540744, Note_on_c,0,75,0
2,540776, Note_on_c,0,70,0
2,540796, Note_on_c,0,61,71
2,540804, Note_on_c,0,49,62
2,540888, Note_on_c,0,49,0
2,540916, Note_on_c,0,61,0
2,540936, Note_on_c,0,74,90
2,540936, Note_on_c,0,70,61
2,540948, Note_on_c,0,67,60
2,541020, Note_on_c,0,50,78
2,541024, Note_on_c,0,67,0
2,541028, Note_on_c,0,62,80
2,541068, Note_on_c,0,70,0
2,541080, Note_on_c,0,50,0
2,541100, Note_on_c,0,62,0
2,541280, Note_on_c,0,67,84
2,541280, Note_on_c,0,55,72
2,541288, Control_c,0,64,40
2,541304, Control_c,0,64,0
2,541336, Control_c,0,64,40
2,541352, Control_c,0,64,127
2,541384, Note_on_c,0,55,0
2,541420, Note_on_c,0,67,0
2,541656, Note_on_c,0,65,82
2,541664, Note_on_c,0,53,62
2,541668, Note_on_c,0,55,61
2,541724, Note_on_c,0,53,0
2,541748, Note_on_c,0,65,0
2,541792, Note_on_c,0,55,0
2,541868, Note_on_c,0,55,63
2,541876, Note_on_c,0,63,88
2,541892, Note_on_c,0,51,78
2,541908, Control_c,0,64,88
2,541956, Control_c,0,64,127
2,541992, Note_on_c,0,74,0
2,542036, Note_on_c,0,51,0
2,542060, Note_on_c,0,73,92
2,542068, Note_on_c,0,70,71
2,542072, Note_on_c,0,63,0
2,542072, Note_on_c,0,67,68
2,542132, Note_on_c,0,67,0
2,542140, Note_on_c,0,70,0
2,542184, Note_on_c,0,73,0
2,542196, Note_on_c,0,55,0
2,542264, Note_on_c,0,55,34
2,542264, Note_on_c,0,74,102
2,542272, Note_on_c,0,70,75
2,542276, Note_on_c,0,62,62
2,542276, Note_on_c,0,67,77
2,542284, Note_on_c,0,50,60
2,542284, Control_c,0,64,88
2,542296, Control_c,0,64,24
2,542312, Control_c,0,64,40
2,542328, Control_c,0,64,88
2,542344, Control_c,0,64,127
2,542356, Note_on_c,0,67,0
2,542368, Note_on_c,0,70,0
2,542396, Note_on_c,0,74,0
2,542508, Note_on_c,0,70,82
2,542516, Note_on_c,0,79,102
2,542516, Note_on_c,0,67,77
2,542560, Control_c,0,64,56
2,542576, Control_c,0,64,0
2,542620, Control_c,0,64,127
2,542676, Note_on_c,0,79,0
2,542712, Note_on_c,0,67,0
2,542724, Note_on_c,0,55,0
2,542764, Note_on_c,0,70,0
2,542904, Note_on_c,0,77,93
2,542908, Note_on_c,0,65,77
2,542912, Note_on_c,0,70,78
2,542980, Note_on_c,0,77,0
2,542984, Note_on_c,0,70,0
2,543016, Note_on_c,0,65,0
2,543032, Note_on_c,0,62,0
2,543072, Note_on_c,0,50,0
2,543164, Note_on_c,0,75,94
2,543172, Note_on_c,0,70,73
2,543172, Note_on_c,0,63,69
2,543176, Note_on_c,0,67,75
2,543228, Control_c,0,64,104
2,543244, Control_c,0,64,0
2,543284, Note_on_c,0,63,0
2,543288, Control_c,0,64,40
2,543304, Control_c,0,64,127
2,543312, Note_on_c,0,67,0
2,543332, Note_on_c,0,61,79
2,543336, Note_on_c,0,49,72
2,543344, Note_on_c,0,75,0
2,543364, Note_on_c,0,70,0
2,543416, Note_on_c,0,61,0
2,543424, Note_on_c,0,49,0
2,543476, Note_on_c,0,67,74
2,543476, Note_on_c,0,74,99
2,543476, Note_on_c,0,70,67
2,543540, Note_on_c,0,67,0
2,543548, Note_on_c,0,50,75
2,543552, Note_on_c,0,62,81
2,543604, Note_on_c,0,50,0
2,543612, Note_on_c,0,70,0
2,543620, Note_on_c,0,62,0
2,543776, Note_on_c,0,67,91
2,543784, Note_on_c,0,55,83
2,543868, Note_on_c,0,55,0
2,543904, Note_on_c,0,67,0
2,544112, Note_on_c,0,74,0
2,544128, Note_on_c,0,65,84
2,544136, Note_on_c,0,53,62
2,544144, Note_on_c,0,55,69
2,544200, Note_on_c,0,53,0
2,544236, Note_on_c,0,65,0
2,544276, Note_on_c,0,55,0
2,544340, Note_on_c,0,63,94
2,544344, Note_on_c,0,55,76
2,544356, Note_on_c,0,51,76
2,544472, Note_on_c,0,51,0
2,544516, Note_on_c,0,79,94
2,544520, Note_on_c,0,67,82
2,544540, Note_on_c,0,63,0
2,544596, Note_on_c,0,67,0
2,544616, Note_on_c,0,79,0
2,544704, Note_on_c,0,81,97
2,544708, Note_on_c,0,69,88
2,544712, Note_on_c,0,62,72
2,544716, Note_on_c,0,50,67
2,544716, Control_c,0,64,104
2,544732, Control_c,0,64,24
2,544748, Control_c,0,64,0
2,544764, Control_c,0,64,40
2,544780, Control_c,0,64,104
2,544796, Note_on_c,0,69,0
2,544796, Control_c,0,64,127
2,544816, Note_on_c,0,81,0
2,544852, Note_on_c,0,62,0
2,544868, Note_on_c,0,50,0
2,544904, Note_on_c,0,55,0
2,544992, Note_on_c,0,82,98
2,545008, Note_on_c,0,70,72
2,545016, Note_on_c,0,74,75
2,545016, Note_on_c,0,79,65
2,545204, Note_on_c,0,82,0
2,545208, Note_on_c,0,70,0
2,545220, Note_on_c,0,79,0
2,545360, Note_on_c,0,74,0
2,545396, Note_on_c,0,81,96
2,545404, Note_on_c,0,69,84
2,545492, Note_on_c,0,69,0
2,545496, Note_on_c,0,81,0
2,545644, Note_on_c,0,38,77
2,545644, Note_on_c,0,50,73
2,545676, Control_c,0,64,40
2,545692, Control_c,0,64,24
2,545708, Control_c,0,64,88
2,545712, Note_on_c,0,80,94
2,545720, Note_on_c,0,77,79
2,545720, Note_on_c,0,68,73
2,545720, Control_c,0,64,127
2,545732, Note_on_c,0,74,60
2,545760, Note_on_c,0,74,0
2,545784, Note_on_c,0,77,0
2,545792, Note_on_c,0,80,0
2,545792, Note_on_c,0,68,0
2,545792, Note_on_c,0,38,0
2,545808, Note_on_c,0,50,0
2,545928, Note_on_c,0,59,62
2,545936, Note_on_c,0,53,67
2,545936, Note_on_c,0,65,76
2,546000, Note_on_c,0,53,0
2,546012, Note_on_c,0,65,0
2,546028, Note_on_c,0,59,0
2,546040, Note_on_c,0,74,90
2,546052, Note_on_c,0,62,74
2,546104, Note_on_c,0,62,0
2,546156, Note_on_c,0,59,69
2,546156, Note_on_c,0,67,80
2,546172, Note_on_c,0,56,57
2,546224, Note_on_c,0,56,0
2,546224, Note_on_c,0,67,0
2,546268, Note_on_c,0,59,0
2,546332, Note_on_c,0,59,53
2,546356, Note_on_c,0,56,62
2,546356, Note_on_c,0,68,85
2,546476, Note_on_c,0,56,0
2,546524, Note_on_c,0,68,0
2,546616, Note_on_c,0,74,0
2,546636, Note_on_c,0,59,0
2,546696, Note_on_c,0,67,80
2,546696, Note_on_c,0,59,58
2,546696, Note_on_c,0,55,57
2,546792, Note_on_c,0,55,0
2,546792, Note_on_c,0,59,0
2,546812, Note_on_c,0,67,0
2,546924, Note_on_c,0,65,79
2,546928, Note_on_c,0,55,70
2,546936, Note_on_c,0,60,74
2,546936, Note_on_c,0,53,67
2,546948, Control_c,0,64,104
2,546964, Control_c,0,64,24
2,547000, Control_c,0,64,56
2,547008, Control_c,0,64,127
2,547100, Note_on_c,0,84,88
2,547108, Note_on_c,0,72,81
2,547120, Note_on_c,0,79,69
2,547172, Note_on_c,0,72,0
2,547196, Note_on_c,0,84,0
2,547204, Note_on_c,0,79,0
2,547220, Note_on_c,0,53,0
2,547268, Note_on_c,0,65,0
2,547276, Note_on_c,0,86,90
2,547284, Note_on_c,0,74,85
2,547360, Note_on_c,0,74,0
2,547372, Note_on_c,0,86,0
2,547396, Note_on_c,0,60,0
2,547512, Note_on_c,0,87,94
2,547512, Note_on_c,0,79,72
2,547528, Note_on_c,0,75,84
2,547528, Note_on_c,0,84,81
2,547536, Note_on_c,0,60,65
2,547536, Note_on_c,0,79,75
2,547544, Note_on_c,0,63,72
2,547552, Control_c,0,64,56
2,547556, Note_on_c,0,51,46
2,547568, Control_c,0,64,0
2,547608, Note_on_c,0,79,0
2,547616, Control_c,0,64,88
2,547632, Control_c,0,64,127
2,547684, Note_on_c,0,63,0
2,547688, Note_on_c,0,51,0
2,547692, Note_on_c,0,55,0
2,547696, Note_on_c,0,60,0
2,547736, Note_on_c,0,75,0
2,547768, Note_on_c,0,87,0
2,547788, Note_on_c,0,84,0
2,547828, Note_on_c,0,79,0
2,547880, Note_on_c,0,86,97
2,547884, Note_on_c,0,74,87
2,547988, Note_on_c,0,74,0
2,548000, Note_on_c,0,86,0
2,548136, Note_on_c,0,38,77
2,548144, Note_on_c,0,50,76
2,548160, Control_c,0,64,56
2,548188, Note_on_c,0,85,95
2,548192, Note_on_c,0,82,74
2,548196, Note_on_c,0,73,77
2,548204, Control_c,0,64,127
2,548216, Note_on_c,0,79,53
2,548236, Note_on_c,0,38,0
2,548244, Note_on_c,0,50,0
2,548248, Note_on_c,0,79,0
2,548268, Note_on_c,0,82,0
2,548276, Note_on_c,0,73,0
2,548284, Note_on_c,0,85,0
2,548396, Note_on_c,0,67,79
2,548396, Note_on_c,0,55,70
2,548428, Note_on_c,0,55,0
2,548460, Note_on_c,0,67,0
2,548500, Note_on_c,0,79,91
2,548504, Note_on_c,0,67,76
2,548508, Note_on_c,0,73,70
2,548568, Note_on_c,0,67,0
2,548624, Note_on_c,0,69,81
2,548624, Note_on_c,0,57,72
2,548632, Note_on_c,0,73,0
2,548688, Note_on_c,0,57,0
2,548692, Note_on_c,0,69,0
2,548804, Note_on_c,0,70,84
2,548812, Note_on_c,0,58,75
2,548968, Note_on_c,0,58,0
2,548988, Note_on_c,0,70,0
2,549068, Note_on_c,0,79,0
2,549136, Note_on_c,0,69,80
2,549140, Note_on_c,0,57,75
2,549204, Note_on_c,0,57,0
2,549232, Note_on_c,0,69,0
2,549348, Note_on_c,0,67,82
2,549352, Note_on_c,0,55,75
2,549440, Note_on_c,0,55,0
2,549464, Note_on_c,0,67,0
2,549488, Note_on_c,0,85,88
2,549496, Note_on_c,0,73,88
2,549500, Note_on_c,0,82,73
2,549520, Note_on_c,0,79,50
2,549552, Note_on_c,0,79,0
2,549568, Note_on_c,0,73,0
2,549580, Note_on_c,0,65,70
2,549580, Note_on_c,0,55,65
2,549580, Note_on_c,0,53,70
2,549604, Note_on_c,0,82,0
2,549604, Note_on_c,0,85,0
2,549672, Note_on_c,0,86,103
2,549676, Note_on_c,0,74,100
2,549680, Note_on_c,0,82,77
2,549688, Note_on_c,0,55,0
2,549688, Note_on_c,0,53,0
2,549688, Note_on_c,0,65,0
2,549692, Note_on_c,0,79,73
2,549708, Note_on_c,0,82,0
2,549716, Note_on_c,0,79,0
2,549724, Note_on_c,0,74,0
2,549760, Note_on_c,0,86,0
2,549900, Note_on_c,0,91,102
2,549912, Note_on_c,0,79,100
2,549912, Note_on_c,0,82,87
2,549920, Note_on_c,0,55,67
2,549924, Note_on_c,0,63,84
2,549924, Note_on_c,0,51,69
2,549924, Control_c,0,64,104
2,549940, Control_c,0,64,24
2,549956, Control_c,0,64,0
2,550004, Control_c,0,64,127
2,550008, Control_c,0,64,88
2,550064, Note_on_c,0,91,0
2,550072, Note_on_c,0,79,0
2,550096, Note_on_c,0,51,0
2,550116, Note_on_c,0,63,0
2,550120, Note_on_c,0,50,80
2,550120, Note_on_c,0,62,86
2,550196, Note_on_c,0,82,0
2,550228, Note_on_c,0,62,0
2,550228, Note_on_c,0,50,0
2,550260, Note_on_c,0,89,99
2,550260, Note_on_c,0,82,70
2,550268, Note_on_c,0,77,99
2,550328, Note_on_c,0,55,0
2,550348, Note_on_c,0,89,0
2,550368, Note_on_c,0,82,0
2,550368, Note_on_c,0,77,0
2,550544, Note_on_c,0,87,96
2,550548, Note_on_c,0,75,97
2,550548, Control_c,0,64,104
2,550552, Note_on_c,0,50,90
2,550552, Note_on_c,0,82,83
2,550552, Note_on_c,0,38,74
2,550560, Note_on_c,0,79,86
2,550560, Control_c,0,64,0
2,550608, Control_c,0,64,88
2,550612, Note_on_c,0,38,0
2,550624, Control_c,0,64,127
2,550628, Note_on_c,0,50,0
2,550744, Note_on_c,0,75,0
2,550748, Note_on_c,0,87,0
2,550780, Note_on_c,0,61,88
2,550784, Note_on_c,0,79,0
2,550784, Note_on_c,0,49,73
2,550800, Note_on_c,0,82,0
2,550832, Note_on_c,0,61,0
2,550840, Note_on_c,0,49,0
2,550872, Note_on_c,0,86,100
2,550876, Note_on_c,0,82,77
2,550880, Note_on_c,0,74,88
2,550884, Note_on_c,0,79,82
2,550956, Note_on_c,0,62,86
2,550956, Note_on_c,0,50,81
2,550968, Note_on_c,0,74,0
2,551012, Note_on_c,0,50,0
2,551024, Note_on_c,0,62,0
2,551144, Note_on_c,0,79,0
2,551188, Note_on_c,0,74,101
2,551196, Note_on_c,0,62,85
2,551252, Note_on_c,0,62,0
2,551252, Note_on_c,0,74,0
2,551448, Note_on_c,0,70,100
2,551456, Note_on_c,0,58,85
2,551500, Note_on_c,0,70,0
2,551516, Note_on_c,0,58,0
2,551628, Note_on_c,0,69,100
2,551632, Note_on_c,0,57,77
2,551688, Note_on_c,0,57,0
2,551688, Note_on_c,0,69,0
2,551688, Note_on_c,0,86,0
2,551792, Note_on_c,0,67,96
2,551804, Note_on_c,0,55,88
2,551852, Note_on_c,0,82,0
2,551856, Note_on_c,0,55,0
2,551868, Note_on_c,0,67,0
2,551932, Note_on_c,0,85,85
2,551932, Note_on_c,0,73,90
2,551932, Note_on_c,0,82,80
2,551944, Note_on_c,0,79,77
2,552004, Note_on_c,0,73,0
2,552012, Note_on_c,0,65,86
2,552012, Note_on_c,0,55,68
2,552012, Note_on_c,0,53,68
2,552020, Note_on_c,0,79,0
2,552032, Note_on_c,0,85,0
2,552040, Note_on_c,0,82,0
2,552092, Note_on_c,0,86,105
2,552096, Note_on_c,0,74,97
2,552096, Note_on_c,0,82,82
2,552096, Note_on_c,0,79,76
2,552120, Note_on_c,0,65,0
2,552120, Note_on_c,0,53,0
2,552120, Note_on_c,0,55,0
2,552140, Note_on_c,0,74,0
2,552172, Note_on_c,0,82,0
2,552184, Note_on_c,0,86,0
2,552204, Note_on_c,0,79,0
2,552296, Note_on_c,0,91,102
2,552300, Note_on_c,0,79,100
2,552304, Note_on_c,0,82,89
2,552316, Note_on_c,0,63,83
2,552316, Note_on_c,0,55,72
2,552316, Note_on_c,0,51,72
2,552324, Control_c,0,64,40
2,552344, Control_c,0,64,0
2,552360, Control_c,0,64,56
2,552376, Control_c,0,64,127
2,552428, Note_on_c,0,79,0
2,552440, Note_on_c,0,91,0
2,552448, Note_on_c,0,51,0
2,552480, Note_on_c,0,63,0
2,552482, Note_on_c,0,50,78
2,552482, Note_on_c,0,62,84
2,552524, Note_on_c,0,82,0
2,552590, Note_on_c,0,62,0
2,552590, Note_on_c,0,50,0
2,552616, Note_on_c,0,89,99
2,552616, Note_on_c,0,77,96
2,552620, Note_on_c,0,82,66
2,552644, Note_on_c,0,82,0
2,552692, Note_on_c,0,55,0
2,552692, Note_on_c,0,89,0
2,552700, Note_on_c,0,77,0
2,552840, Note_on_c,0,87,92
2,552848, Note_on_c,0,75,89
2,552848, Note_on_c,0,82,75
2,552852, Note_on_c,0,79,82
2,552948, Note_on_c,0,79,0
2,552948, Note_on_c,0,75,0
2,552996, Note_on_c,0,87,0
2,553000, Note_on_c,0,61,74
2,553000, Note_on_c,0,73,88
2,553032, Note_on_c,0,82,0
2,553100, Note_on_c,0,82,76
2,553104, Note_on_c,0,86,97
2,553104, Note_on_c,0,79,81
2,553108, Note_on_c,0,73,0
2,553108, Note_on_c,0,61,0
2,553164, Note_on_c,0,79,0
2,553180, Note_on_c,0,82,0
2,553204, Note_on_c,0,86,0
2,553212, Note_on_c,0,62,68
2,553212, Note_on_c,0,74,83
2,553268, Note_on_c,0,62,0
2,553284, Note_on_c,0,74,0
2,553396, Note_on_c,0,79,99
2,553404, Note_on_c,0,67,85
2,553456, Note_on_c,0,67,0
2,553464, Note_on_c,0,79,0
2,553576, Note_on_c,0,91,96
2,553580, Note_on_c,0,79,86
2,553648, Note_on_c,0,79,0
2,553668, Note_on_c,0,77,82
2,553668, Note_on_c,0,65,68
2,553668, Note_on_c,0,67,63
2,553672, Note_on_c,0,91,0
2,553744, Note_on_c,0,77,0
2,553748, Note_on_c,0,67,0
2,553756, Note_on_c,0,65,0
2,553756, Note_on_c,0,93,99
2,553756, Note_on_c,0,81,85
2,553808, Note_on_c,0,81,0
2,553824, Note_on_c,0,93,0
2,553920, Note_on_c,0,67,65
2,553928, Note_on_c,0,94,91
2,553928, Note_on_c,0,86,84
2,553928, Note_on_c,0,82,84
2,553928, Note_on_c,0,75,86
2,553928, Note_on_c,0,63,61
2,553928, Control_c,0,64,88
2,553940, Control_c,0,64,56
2,553956, Control_c,0,64,88
2,553972, Control_c,0,64,127
2,553996, Note_on_c,0,82,0
2,553996, Note_on_c,0,86,0
2,554008, Note_on_c,0,94,0
2,554040, Note_on_c,0,63,0
2,554084, Note_on_c,0,75,0
2,554100, Note_on_c,0,90,89
2,554100, Note_on_c,0,78,96
2,554100, Note_on_c,0,82,70
2,554180, Note_on_c,0,78,0
2,554188, Note_on_c,0,62,66
2,554188, Note_on_c,0,74,82
2,554204, Note_on_c,0,90,0
2,554208, Note_on_c,0,82,0
2,554244, Note_on_c,0,74,0
2,554264, Note_on_c,0,62,0
2,554268, Note_on_c,0,67,0
2,554280, Note_on_c,0,91,93
2,554280, Note_on_c,0,79,87
2,554280, Note_on_c,0,82,82
2,554344, Note_on_c,0,79,0
2,554352, Note_on_c,0,91,0
2,554364, Note_on_c,0,82,0
2,554420, Note_on_c,0,70,85
2,554428, Note_on_c,0,58,73
2,554488, Note_on_c,0,70,0
2,554496, Note_on_c,0,58,0
2,554572, Note_on_c,0,85,88
2,554576, Note_on_c,0,73,90
2,554576, Note_on_c,0,79,79
2,554652, Note_on_c,0,73,0
2,554656, Note_on_c,0,57,69
2,554656, Note_on_c,0,69,82
2,554664, Note_on_c,0,85,0
2,554712, Note_on_c,0,57,0
2,554728, Note_on_c,0,69,0
2,554728, Note_on_c,0,86,99
2,554728, Note_on_c,0,74,89
2,554756, Note_on_c,0,79,0
2,554780, Note_on_c,0,74,0
2,554816, Note_on_c,0,86,0
2,554872, Control_c,0,64,72
2,554888, Control_c,0,64,24
2,554904, Note_on_c,0,87,95
2,554904, Control_c,0,64,40
2,554908, Note_on_c,0,75,95
2,554908, Note_on_c,0,82,77
2,554908, Note_on_c,0,67,80
2,554912, Note_on_c,0,79,86
2,554912, Note_on_c,0,55,81
2,554920, Control_c,0,64,104
2,554936, Control_c,0,64,127
2,554968, Note_on_c,0,67,0
2,554976, Note_on_c,0,55,0
2,554980, Note_on_c,0,75,0
2,554988, Note_on_c,0,87,0
2,555004, Note_on_c,0,79,0
2,555016, Note_on_c,0,82,0
2,555064, Note_on_c,0,85,92
2,555068, Note_on_c,0,73,93
2,555152, Note_on_c,0,62,83
2,555160, Note_on_c,0,50,80
2,555164, Note_on_c,0,73,0
2,555164, Note_on_c,0,85,0
2,555212, Note_on_c,0,50,0
2,555228, Note_on_c,0,62,0
2,555240, Note_on_c,0,86,93
2,555252, Note_on_c,0,74,94
2,555308, Note_on_c,0,74,0
2,555312, Note_on_c,0,86,0
2,555372, Note_on_c,0,67,86
2,555384, Note_on_c,0,55,82
2,555416, Note_on_c,0,55,0
2,555440, Note_on_c,0,67,0
2,555532, Note_on_c,0,79,96
2,555540, Note_on_c,0,67,82
2,555596, Note_on_c,0,67,0
2,555616, Note_on_c,0,79,0
2,555632, Note_on_c,0,65,82
2,555636, Note_on_c,0,53,75
2,555696, Note_on_c,0,65,0
2,555696, Note_on_c,0,81,96
2,555700, Note_on_c,0,53,0
2,555700, Note_on_c,0,69,92
2,555760, Note_on_c,0,69,0
2,555764, Note_on_c,0,81,0
2,555848, Control_c,0,64,72
2,555860, Note_on_c,0,82,91
2,555864, Note_on_c,0,70,84
2,555864, Control_c,0,64,24
2,555876, Note_on_c,0,63,85
2,555876, Note_on_c,0,55,78
2,555880, Control_c,0,64,56
2,555884, Note_on_c,0,51,73
2,555896, Control_c,0,64,127
2,555932, Note_on_c,0,70,0
2,555944, Note_on_c,0,82,0
2,555952, Note_on_c,0,55,0
2,555980, Note_on_c,0,51,0
2,555992, Note_on_c,0,63,0
2,556024, Note_on_c,0,78,90
2,556028, Note_on_c,0,66,81
2,556036, Note_on_c,0,70,63
2,556096, Note_on_c,0,66,0
2,556112, Note_on_c,0,78,0
2,556120, Note_on_c,0,70,0
2,556140, Note_on_c,0,62,83
2,556140, Note_on_c,0,55,74
2,556156, Note_on_c,0,50,73
2,556180, Note_on_c,0,55,0
2,556192, Note_on_c,0,62,0
2,556196, Note_on_c,0,79,90
2,556196, Note_on_c,0,70,70
2,556220, Note_on_c,0,50,0
2,556220, Note_on_c,0,67,88
2,556268, Note_on_c,0,79,0
2,556296, Note_on_c,0,67,0
2,556304, Note_on_c,0,70,0
2,556368, Note_on_c,0,46,84
2,556368, Note_on_c,0,58,93
2,556432, Note_on_c,0,46,0
2,556444, Note_on_c,0,58,0
2,556520, Note_on_c,0,73,87
2,556520, Note_on_c,0,61,83
2,556520, Note_on_c,0,67,70
2,556600, Note_on_c,0,61,0
2,556616, Note_on_c,0,73,0
2,556624, Note_on_c,0,57,80
2,556628, Note_on_c,0,67,0
2,556636, Note_on_c,0,45,74
2,556680, Note_on_c,0,74,96
2,556684, Note_on_c,0,62,84
2,556688, Note_on_c,0,45,0
2,556692, Note_on_c,0,57,0
2,556752, Note_on_c,0,62,0
2,556772, Note_on_c,0,74,0
2,556844, Control_c,0,64,72
2,556856, Control_c,0,64,0
2,556868, Note_on_c,0,75,93
2,556872, Note_on_c,0,63,88
2,556872, Control_c,0,64,24
2,556876, Note_on_c,0,70,73
2,556880, Note_on_c,0,67,75
2,556880, Note_on_c,0,55,89
2,556888, Note_on_c,0,43,77
2,556888, Note_on_c,0,44,70
2,556888, Control_c,0,64,88
2,556904, Control_c,0,64,127
2,556936, Note_on_c,0,55,0
2,556944, Note_on_c,0,43,0
2,556956, Note_on_c,0,63,0
2,556964, Note_on_c,0,75,0
2,556984, Note_on_c,0,67,0
2,556984, Note_on_c,0,70,0
2,556996, Note_on_c,0,44,0
2,557040, Note_on_c,0,73,93
2,557040, Note_on_c,0,61,88
2,557120, Note_on_c,0,61,0
2,557132, Note_on_c,0,73,0
2,557148, Note_on_c,0,50,88
2,557148, Note_on_c,0,38,79
2,557200, Note_on_c,0,50,0
2,557204, Note_on_c,0,38,0
2,557216, Note_on_c,0,74,97
2,557216, Note_on_c,0,62,96
2,557272, Note_on_c,0,62,0
2,557280, Note_on_c,0,74,0
2,557680, Control_c,0,64,40
2,557696, Control_c,0,64,0
2,557756, Control_c,0,64,56
2,557772, Control_c,0,64,127
2,557892, Note_on_c,0,75,91
2,557892, Note_on_c,0,55,80
2,557892, Note_on_c,0,67,73
2,557892, Note_on_c,0,43,74
2,557892, Note_on_c,0,70,69
2,557892, Note_on_c,0,63,89
2,557892, Note_on_c,0,44,70
2,557936, Note_on_c,0,55,0
2,557944, Note_on_c,0,63,0
2,557952, Note_on_c,0,43,0
2,557972, Note_on_c,0,75,0
2,557976, Note_on_c,0,67,0
2,557992, Note_on_c,0,70,0
2,558000, Note_on_c,0,44,0
2,558064, Note_on_c,0,61,77
2,558072, Note_on_c,0,73,85
2,558104, Note_on_c,0,50,67
2,558128, Note_on_c,0,38,49
2,558140, Note_on_c,0,61,0
2,558156, Note_on_c,0,73,0
2,558156, Note_on_c,0,38,0
2,558172, Note_on_c,0,50,0
2,558224, Note_on_c,0,74,89
2,558224, Note_on_c,0,62,80
2,558276, Note_on_c,0,62,0
2,558304, Note_on_c,0,74,0
2,558796, Control_c,0,64,104
2,558812, Control_c,0,64,0
2,558856, Note_on_c,0,76,94
2,558856, Note_on_c,0,55,79
2,558856, Note_on_c,0,43,72
2,558856, Note_on_c,0,67,69
2,558856, Note_on_c,0,70,72
2,558856, Note_on_c,0,64,86
2,558856, Note_on_c,0,44,70
2,558872, Control_c,0,64,72
2,558888, Control_c,0,64,127
2,558892, Note_on_c,0,55,0
2,558920, Note_on_c,0,43,0
2,558924, Note_on_c,0,64,0
2,558936, Note_on_c,0,76,0
2,558952, Note_on_c,0,67,0
2,558964, Note_on_c,0,44,0
2,558968, Note_on_c,0,70,0
2,559028, Note_on_c,0,74,94
2,559032, Note_on_c,0,62,86
2,559084, Note_on_c,0,62,0
2,559112, Note_on_c,0,74,0
2,559136, Note_on_c,0,49,84
2,559140, Note_on_c,0,37,65
2,559164, Note_on_c,0,37,0
2,559176, Note_on_c,0,49,0
2,559204, Note_on_c,0,75,92
2,559204, Note_on_c,0,63,85
2,559260, Note_on_c,0,63,0
2,559292, Note_on_c,0,75,0
2,559708, Control_c,0,64,24
2,559724, Control_c,0,64,0
2,559804, Control_c,0,64,127
2,559848, Note_on_c,0,76,96
2,559848, Note_on_c,0,44,70
2,559852, Note_on_c,0,70,75
2,559852, Note_on_c,0,64,84
2,559852, Note_on_c,0,67,70
2,559856, Note_on_c,0,55,76
2,559860, Note_on_c,0,43,71
2,559908, Note_on_c,0,55,0
2,559912, Note_on_c,0,64,0
2,559928, Note_on_c,0,76,0
2,559928, Note_on_c,0,43,0
2,559932, Note_on_c,0,67,0
2,559952, Note_on_c,0,70,0
2,559956, Note_on_c,0,44,0
2,560012, Note_on_c,0,74,103
2,560016, Note_on_c,0,62,94
2,560076, Note_on_c,0,62,0
2,560100, Note_on_c,0,74,0
2,560100, Note_on_c,0,49,99
2,560108, Note_on_c,0,37,84
2,560136, Note_on_c,0,37,0
2,560144, Note_on_c,0,49,0
2,560204, Note_on_c,0,75,104
2,560204, Note_on_c,0,63,91
2,560252, Note_on_c,0,63,0
2,560292, Note_on_c,0,75,0
2,560700, Control_c,0,64,72
2,560716, Control_c,0,64,0
2,560884, Note_on_c,0,35,79
2,561412, Note_on_c,0,35,0
2,562000, Control_c,0,64,40
2,562016, Control_c,0,64,104
2,562032, Control_c,0,64,127
2,562280, Control_c,0,64,72
2,562292, Note_on_c,0,88,105
2,562296, Control_c,0,64,0
2,562300, Note_on_c,0,80,86
2,562300, Note_on_c,0,76,93
2,562308, Note_on_c,0,56,68
2,562308, Note_on_c,0,64,80
2,562312, Note_on_c,0,52,75
2,562396, Control_c,0,64,72
2,562412, Control_c,0,64,127
2,562456, Note_on_c,0,52,0
2,562464, Note_on_c,0,76,0
2,562488, Note_on_c,0,88,0
2,562500, Note_on_c,0,64,0
2,562520, Note_on_c,0,56,0
2,562552, Note_on_c,0,80,0
2,562724, Note_on_c,0,87,102
2,562724, Note_on_c,0,75,91
2,562728, Note_on_c,0,80,86
2,562736, Note_on_c,0,63,71
2,562740, Note_on_c,0,56,75
2,562744, Note_on_c,0,51,73
2,562780, Note_on_c,0,51,0
2,562796, Note_on_c,0,80,0
2,562800, Note_on_c,0,63,0
2,562812, Note_on_c,0,87,0
2,562820, Note_on_c,0,56,0
2,562824, Note_on_c,0,75,0
2,562952, Control_c,0,64,72
2,562956, Note_on_c,0,73,91
2,562956, Note_on_c,0,85,90
2,562968, Note_on_c,0,80,75
2,562968, Note_on_c,0,76,84
2,562972, Note_on_c,0,61,70
2,562972, Note_on_c,0,56,67
2,562972, Control_c,0,64,0
2,562976, Note_on_c,0,49,74
2,562988, Note_on_c,0,52,72
2,563052, Control_c,0,64,56
2,563068, Control_c,0,64,127
2,563088, Note_on_c,0,76,0
2,563100, Note_on_c,0,61,0
2,563108, Note_on_c,0,73,0
2,563112, Note_on_c,0,85,0
2,563112, Note_on_c,0,49,0
2,563116, Note_on_c,0,56,0
2,563116, Note_on_c,0,80,0
2,563144, Note_on_c,0,52,0
2,563340, Note_on_c,0,83,90
2,563344, Note_on_c,0,56,65
2,563348, Note_on_c,0,71,76
2,563348, Note_on_c,0,80,74
2,563352, Note_on_c,0,52,69
2,563356, Note_on_c,0,59,71
2,563356, Note_on_c,0,47,74
2,563360, Note_on_c,0,76,75
2,563364, Control_c,0,64,72
2,563380, Control_c,0,64,88
2,563388, Note_on_c,0,76,0
2,563396, Control_c,0,64,127
2,563408, Note_on_c,0,71,0
2,563424, Note_on_c,0,59,0
2,563424, Note_on_c,0,80,0
2,563424, Note_on_c,0,47,0
2,563428, Note_on_c,0,52,0
2,563436, Note_on_c,0,56,0
2,563440, Note_on_c,0,83,0
2,564216, Control_c,0,64,88
2,564232, Control_c,0,64,56
2,564248, Control_c,0,64,0
2,564332, Note_on_c,0,82,87
2,564332, Note_on_c,0,70,86
2,564332, Note_on_c,0,58,66
2,564332, Note_on_c,0,46,71
2,564364, Note_on_c,0,46,0
2,564364, Control_c,0,64,104
2,564384, Control_c,0,64,127
2,564404, Note_on_c,0,58,0
2,564436, Note_on_c,0,70,0
2,564452, Note_on_c,0,82,0
2,564508, Note_on_c,0,83,100
2,564508, Note_on_c,0,71,84
2,564516, Note_on_c,0,47,73
2,564524, Note_on_c,0,59,70
2,564544, Note_on_c,0,47,0
2,564560, Note_on_c,0,71,0
2,564588, Note_on_c,0,83,0
2,564588, Note_on_c,0,59,0
2,564724, Control_c,0,64,40
2,564732, Note_on_c,0,88,102
2,564732, Note_on_c,0,76,94
2,564740, Note_on_c,0,80,82
2,564744, Control_c,0,64,0
2,564748, Note_on_c,0,56,73
2,564748, Note_on_c,0,64,82
2,564764, Note_on_c,0,52,75
2,564800, Note_on_c,0,52,0
2,564804, Note_on_c,0,76,0
2,564824, Control_c,0,64,88
2,564840, Control_c,0,64,127
2,564844, Note_on_c,0,88,0
2,564852, Note_on_c,0,64,0
2,564872, Note_on_c,0,56,0
2,564884, Note_on_c,0,80,0
2,565088, Note_on_c,0,87,91
2,565088, Note_on_c,0,75,95
2,565088, Note_on_c,0,80,70
2,565092, Note_on_c,0,63,71
2,565092, Note_on_c,0,51,73
2,565092, Note_on_c,0,56,72
2,565144, Note_on_c,0,51,0
2,565160, Note_on_c,0,63,0
2,565164, Note_on_c,0,75,0
2,565168, Note_on_c,0,87,0
2,565188, Note_on_c,0,56,0
2,565196, Note_on_c,0,80,0
2,565256, Control_c,0,64,88
2,565268, Control_c,0,64,0
2,565300, Note_on_c,0,73,85
2,565304, Note_on_c,0,80,77
2,565304, Note_on_c,0,85,89
2,565304, Note_on_c,0,53,74
2,565308, Note_on_c,0,61,69
2,565308, Note_on_c,0,77,82
2,565308, Note_on_c,0,56,70
2,565312, Note_on_c,0,49,71
2,565332, Control_c,0,64,24
2,565336, Note_on_c,0,77,0
2,565352, Control_c,0,64,88
2,565360, Note_on_c,0,85,0
2,565368, Note_on_c,0,61,0
2,565368, Note_on_c,0,73,0
2,565368, Control_c,0,64,127
2,565380, Note_on_c,0,53,0
2,565380, Note_on_c,0,56,0
2,565384, Note_on_c,0,80,0
2,565392, Note_on_c,0,49,0
2,565492, Note_on_c,0,51,78
2,565496, Note_on_c,0,73,76
2,565500, Note_on_c,0,75,92
2,565504, Note_on_c,0,63,90
2,565568, Note_on_c,0,63,0
2,565580, Note_on_c,0,73,0
2,565592, Note_on_c,0,51,0
2,565608, Note_on_c,0,75,0
2,565644, Control_c,0,64,88
2,565660, Control_c,0,64,24
2,565680, Note_on_c,0,77,92
2,565680, Control_c,0,64,0
2,565684, Note_on_c,0,65,89
2,565684, Note_on_c,0,73,77
2,565692, Note_on_c,0,53,76
2,565728, Control_c,0,64,56
2,565740, Note_on_c,0,65,0
2,565744, Control_c,0,64,127
2,565760, Note_on_c,0,77,0
2,565784, Note_on_c,0,73,0
2,565792, Note_on_c,0,53,0
2,565892, Control_c,0,64,72
2,565900, Note_on_c,0,78,96
2,565900, Note_on_c,0,66,96
2,565908, Control_c,0,64,0
2,565912, Note_on_c,0,73,77
2,565916, Note_on_c,0,54,76
2,566024, Control_c,0,64,127
2,566028, Note_on_c,0,54,0
2,566056, Note_on_c,0,66,0
2,566060, Note_on_c,0,78,0
2,566072, Note_on_c,0,73,0
2,566632, Control_c,0,64,104
2,566648, Control_c,0,64,56
2,566664, Control_c,0,64,0
2,566848, Note_on_c,0,81,100
2,566852, Note_on_c,0,69,89
2,566856, Note_on_c,0,73,78
2,566868, Note_on_c,0,57,73
2,566868, Note_on_c,0,61,74
2,566928, Control_c,0,64,56
2,566944, Control_c,0,64,127
2,567172, Note_on_c,0,69,0
2,567172, Note_on_c,0,81,0
2,567244, Note_on_c,0,61,0
2,567268, Note_on_c,0,57,0
2,567284, Note_on_c,0,73,0
2,567404, Note_on_c,0,80,91
2,567404, Note_on_c,0,61,58
2,567404, Note_on_c,0,56,72
2,567404, Note_on_c,0,57,68
2,567404, Note_on_c,0,73,77
2,567404, Note_on_c,0,68,82
2,567432, Note_on_c,0,57,0
2,567468, Note_on_c,0,61,0
2,567472, Note_on_c,0,56,0
2,567476, Note_on_c,0,73,0
2,567484, Note_on_c,0,68,0
2,567512, Note_on_c,0,80,0
2,567600, Control_c,0,64,88
2,567616, Control_c,0,64,0
2,567620, Note_on_c,0,80,92
2,567620, Note_on_c,0,56,75
2,567624, Note_on_c,0,68,89
2,567628, Note_on_c,0,73,81
2,567632, Note_on_c,0,61,61
2,567640, Note_on_c,0,57,62
2,567696, Control_c,0,64,40
2,567712, Control_c,0,64,127
2,567788, Note_on_c,0,57,0
2,567796, Note_on_c,0,61,0
2,567812, Note_on_c,0,80,0
2,567816, Note_on_c,0,68,0
2,567836, Note_on_c,0,56,0
2,567840, Note_on_c,0,73,0
2,567992, Control_c,0,64,104
2,568000, Note_on_c,0,78,90
2,568008, Note_on_c,0,66,75
2,568008, Control_c,0,64,24
2,568012, Note_on_c,0,73,69
2,568016, Note_on_c,0,54,72
2,568020, Note_on_c,0,61,54
2,568024, Note_on_c,0,57,54
2,568024, Control_c,0,64,0
2,568056, Control_c,0,64,40
2,568076, Control_c,0,64,104
2,568080, Note_on_c,0,66,0
2,568092, Note_on_c,0,73,0
2,568092, Control_c,0,64,127
2,568096, Note_on_c,0,61,0
2,568100, Note_on_c,0,78,0
2,568100, Note_on_c,0,57,0
2,568108, Note_on_c,0,54,0
2,568368, Control_c,0,64,104
2,568388, Control_c,0,64,72
2,568420, Control_c,0,64,56
2,568484, Control_c,0,64,40
2,568532, Control_c,0,64,24
2,568796, Control_c,0,64,0
2,568976, Note_on_c,0,77,96
2,568976, Note_on_c,0,65,83
2,568980, Note_on_c,0,73,75
2,568980, Note_on_c,0,53,73
2,568980, Control_c,0,64,72
2,568992, Note_on_c,0,57,68
2,568992, Note_on_c,0,61,73
2,568992, Control_c,0,64,127
2,569032, Note_on_c,0,57,0
2,569036, Note_on_c,0,65,0
2,569044, Note_on_c,0,61,0
2,569056, Note_on_c,0,77,0
2,569056, Note_on_c,0,53,0
2,569080, Note_on_c,0,73,0
2,569160, Note_on_c,0,66,88
2,569160, Note_on_c,0,78,96
2,569160, Note_on_c,0,54,71
2,569168, Note_on_c,0,61,70
2,569168, Note_on_c,0,73,76
2,569168, Note_on_c,0,57,72
2,569220, Note_on_c,0,66,0
2,569232, Note_on_c,0,61,0
2,569232, Note_on_c,0,57,0
2,569236, Note_on_c,0,73,0
2,569244, Note_on_c,0,54,0
2,569244, Note_on_c,0,78,0
2,569372, Control_c,0,64,72
2,569380, Note_on_c,0,81,99
2,569384, Note_on_c,0,69,89
2,569384, Note_on_c,0,73,80
2,569384, Note_on_c,0,61,60
2,569384, Note_on_c,0,57,74
2,569388, Control_c,0,64,0
2,569472, Control_c,0,64,24
2,569488, Control_c,0,64,88
2,569500, Control_c,0,64,127
2,569532, Note_on_c,0,61,0
2,569536, Note_on_c,0,81,0
2,569544, Note_on_c,0,69,0
2,569568, Note_on_c,0,57,0
2,569624, Note_on_c,0,73,0
2,569728, Note_on_c,0,80,87
2,569736, Note_on_c,0,68,77
2,569736, Note_on_c,0,73,73
2,569740, Note_on_c,0,56,74
2,569740, Note_on_c,0,61,70
2,569752, Note_on_c,0,57,70
2,569796, Note_on_c,0,68,0
2,569800, Note_on_c,0,61,0
2,569800, Note_on_c,0,56,0
2,569800, Note_on_c,0,73,0
2,569816, Note_on_c,0,80,0
2,569816, Note_on_c,0,57,0
2,569908, Note_on_c,0,68,79
2,569908, Note_on_c,0,73,80
2,569908, Note_on_c,0,61,73
2,569908, Note_on_c,0,80,80
2,569908, Note_on_c,0,56,73
2,569924, Note_on_c,0,57,70
2,569980, Note_on_c,0,57,0
2,569980, Note_on_c,0,68,0
2,569992, Note_on_c,0,80,0
2,569992, Note_on_c,0,61,0
2,570000, Note_on_c,0,73,0
2,570020, Note_on_c,0,56,0
2,570100, Note_on_c,0,53,71
2,570100, Note_on_c,0,61,68
2,570100, Note_on_c,0,77,96
2,570100, Note_on_c,0,65,84
2,570100, Note_on_c,0,73,69
2,570104, Note_on_c,0,57,65
2,570152, Note_on_c,0,65,0
2,570160, Note_on_c,0,61,0
2,570168, Note_on_c,0,57,0
2,570176, Note_on_c,0,77,0
2,570176, Note_on_c,0,73,0
2,570188, Note_on_c,0,53,0
2,570208, Control_c,0,64,104
2,570224, Control_c,0,64,56
2,570240, Control_c,0,64,0
2,570268, Note_on_c,0,61,67
2,570268, Note_on_c,0,66,88
2,570268, Note_on_c,0,78,93
2,570268, Note_on_c,0,54,75
2,570268, Note_on_c,0,73,75
2,570268, Note_on_c,0,57,70
2,570292, Control_c,0,64,40
2,570308, Control_c,0,64,88
2,570324, Control_c,0,64,127
2,570328, Note_on_c,0,73,0
2,570328, Note_on_c,0,66,0
2,570332, Note_on_c,0,57,0
2,570340, Note_on_c,0,54,0
2,570352, Note_on_c,0,61,0
2,570368, Note_on_c,0,78,0
2,570472, Control_c,0,64,104
2,570488, Control_c,0,64,24
2,570492, Note_on_c,0,70,80
2,570492, Note_on_c,0,79,102
2,570492, Note_on_c,0,67,90
2,570500, Note_on_c,0,63,73
2,570504, Control_c,0,64,0
2,570508, Note_on_c,0,58,66
2,570516, Note_on_c,0,55,72
2,570520, Note_on_c,0,75,70
2,570636, Note_on_c,0,63,0
2,570636, Control_c,0,64,127
2,570652, Note_on_c,0,55,0
2,570656, Note_on_c,0,70,0
2,570660, Note_on_c,0,58,0
2,570660, Note_on_c,0,67,0
2,570668, Note_on_c,0,75,0
2,570704, Note_on_c,0,79,0
2,571076, Control_c,0,64,88
2,571096, Control_c,0,64,40
2,571112, Control_c,0,64,0
2,571308, Control_c,0,64,40
2,571312, Note_on_c,0,87,99
2,571312, Note_on_c,0,75,97
2,571324, Control_c,0,64,88
2,571328, Note_on_c,0,63,77
2,571336, Note_on_c,0,51,76
2,571340, Control_c,0,64,127
2,571564, Note_on_c,0,87,0
2,571588, Note_on_c,0,51,0
2,571612, Note_on_c,0,63,0
2,571632, Note_on_c,0,75,0
2,571832, Note_on_c,0,85,95
2,571840, Note_on_c,0,73,93
2,571840, Note_on_c,0,61,72
2,571840, Note_on_c,0,49,70
2,571844, Note_on_c,0,75,81
2,571844, Note_on_c,0,51,69
2,571912, Note_on_c,0,75,0
2,571912, Note_on_c,0,61,0
2,571916, Note_on_c,0,51,0
2,571932, Note_on_c,0,73,0
2,571932, Note_on_c,0,49,0
2,571948, Note_on_c,0,85,0
2,572040, Note_on_c,0,49,72
2,572044, Note_on_c,0,85,99
2,572052, Note_on_c,0,73,97
2,572052, Note_on_c,0,61,71
2,572052, Note_on_c,0,51,71
2,572060, Note_on_c,0,75,81
2,572136, Note_on_c,0,49,0
2,572176, Note_on_c,0,61,0
2,572184, Note_on_c,0,73,0
2,572208, Note_on_c,0,85,0
2,572308, Note_on_c,0,75,0
2,572408, Control_c,0,64,104
2,572412, Note_on_c,0,83,90
2,572420, Note_on_c,0,71,71
2,572420, Note_on_c,0,75,73
2,572424, Control_c,0,64,56
2,572428, Note_on_c,0,59,72
2,572436, Note_on_c,0,47,73
2,572440, Control_c,0,64,24
2,572456, Control_c,0,64,40
2,572472, Control_c,0,64,72
2,572484, Note_on_c,0,47,0
2,572488, Note_on_c,0,71,0
2,572488, Note_on_c,0,75,0
2,572492, Control_c,0,64,127
2,572496, Note_on_c,0,59,0
2,572504, Note_on_c,0,83,0
2,572512, Note_on_c,0,51,0
2,572948, Control_c,0,64,104
2,572968, Control_c,0,64,88
2,572984, Control_c,0,64,72
2,573000, Control_c,0,64,56
2,573016, Control_c,0,64,40
2,573048, Control_c,0,64,24
2,573064, Control_c,0,64,0
2,573292, Note_on_c,0,79,93
2,573296, Note_on_c,0,67,82
2,573296, Note_on_c,0,51,73
2,573296, Control_c,0,64,72
2,573304, Note_on_c,0,75,71
2,573308, Note_on_c,0,43,71
2,573308, Note_on_c,0,55,67
2,573312, Control_c,0,64,127
2,573356, Note_on_c,0,55,0
2,573360, Note_on_c,0,67,0
2,573368, Note_on_c,0,43,0
2,573372, Note_on_c,0,79,0
2,573396, Note_on_c,0,51,0
2,573412, Note_on_c,0,75,0
2,573476, Note_on_c,0,68,85
2,573480, Note_on_c,0,80,95
2,573484, Note_on_c,0,51,77
2,573484, Note_on_c,0,75,65
2,573488, Note_on_c,0,44,72
2,573496, Note_on_c,0,56,69
2,573536, Note_on_c,0,68,0
2,573540, Note_on_c,0,51,0
2,573544, Note_on_c,0,44,0
2,573548, Note_on_c,0,56,0
2,573568, Note_on_c,0,80,0
2,573572, Note_on_c,0,75,0
2,573704, Control_c,0,64,56
2,573712, Note_on_c,0,87,97
2,573712, Note_on_c,0,75,96
2,573720, Note_on_c,0,63,85
2,573724, Note_on_c,0,51,83
2,573724, Control_c,0,64,0
2,573804, Control_c,0,64,88
2,573820, Note_on_c,0,87,0
2,573820, Control_c,0,64,127
2,573856, Note_on_c,0,75,0
2,573872, Note_on_c,0,51,0
2,573884, Note_on_c,0,63,0
2,574068, Note_on_c,0,85,91
2,574076, Note_on_c,0,73,92
2,574076, Note_on_c,0,51,69
2,574076, Note_on_c,0,61,77
2,574084, Note_on_c,0,75,76
2,574088, Note_on_c,0,49,71
2,574140, Note_on_c,0,75,0
2,574140, Note_on_c,0,73,0
2,574148, Note_on_c,0,61,0
2,574152, Note_on_c,0,51,0
2,574160, Note_on_c,0,49,0
2,574180, Note_on_c,0,85,0
2,574232, Control_c,0,64,56
2,574248, Control_c,0,64,0
2,574264, Note_on_c,0,85,92
2,574272, Note_on_c,0,73,96
2,574276, Note_on_c,0,49,74
2,574276, Note_on_c,0,61,81
2,574284, Note_on_c,0,75,82
2,574284, Note_on_c,0,51,69
2,574312, Control_c,0,64,72
2,574328, Control_c,0,64,127
2,574376, Note_on_c,0,49,0
2,574404, Note_on_c,0,61,0
2,574404, Note_on_c,0,73,0
2,574412, Note_on_c,0,85,0
2,574540, Note_on_c,0,51,0
2,574552, Note_on_c,0,75,0
2,574616, Note_on_c,0,83,90
2,574624, Note_on_c,0,75,70
2,574624, Note_on_c,0,51,64
2,574628, Note_on_c,0,71,75
2,574628, Control_c,0,64,72
2,574640, Note_on_c,0,59,70
2,574640, Control_c,0,64,0
2,574648, Note_on_c,0,47,72
2,574688, Control_c,0,64,56
2,574692, Note_on_c,0,71,0
2,574696, Note_on_c,0,75,0
2,574704, Control_c,0,64,127
2,574708, Note_on_c,0,47,0
2,574712, Note_on_c,0,59,0
2,574720, Note_on_c,0,51,0
2,574724, Note_on_c,0,83,0
2,575200, Control_c,0,64,104
2,575216, Control_c,0,64,88
2,575232, Control_c,0,64,56
2,575248, Control_c,0,64,24
2,575264, Control_c,0,64,0
2,575492, Control_c,0,64,56
2,575508, Control_c,0,64,127
2,575520, Note_on_c,0,84,96
2,575524, Note_on_c,0,72,92
2,575524, Note_on_c,0,80,81
2,575528, Note_on_c,0,56,69
2,575536, Note_on_c,0,48,75
2,575540, Note_on_c,0,60,70
2,575584, Note_on_c,0,72,0
2,575596, Note_on_c,0,48,0
2,575596, Note_on_c,0,60,0
2,575600, Note_on_c,0,84,0
2,575616, Note_on_c,0,56,0
2,575624, Note_on_c,0,80,0
2,575704, Note_on_c,0,85,95
2,575708, Note_on_c,0,73,97
2,575712, Note_on_c,0,80,79
2,575712, Note_on_c,0,49,78
2,575712, Note_on_c,0,56,77
2,575716, Note_on_c,0,61,73
2,575756, Note_on_c,0,49,0
2,575764, Note_on_c,0,73,0
2,575764, Note_on_c,0,61,0
2,575772, Note_on_c,0,56,0
2,575788, Note_on_c,0,85,0
2,575800, Note_on_c,0,80,0
2,575932, Note_on_c,0,80,103
2,575932, Note_on_c,0,92,103
2,575940, Note_on_c,0,68,84
2,575940, Control_c,0,64,104
2,575944, Note_on_c,0,56,77
2,575956, Control_c,0,64,24
2,575972, Control_c,0,64,0
2,576052, Control_c,0,64,127
2,576056, Note_on_c,0,92,0
2,576096, Note_on_c,0,56,0
2,576100, Note_on_c,0,68,0
2,576108, Note_on_c,0,80,0
2,576284, Note_on_c,0,90,91
2,576284, Note_on_c,0,56,65
2,576288, Note_on_c,0,78,95
2,576288, Note_on_c,0,66,75
2,576288, Note_on_c,0,80,82
2,576288, Note_on_c,0,54,68
2,576348, Note_on_c,0,80,0
2,576352, Note_on_c,0,66,0
2,576356, Note_on_c,0,78,0
2,576356, Note_on_c,0,54,0
2,576360, Note_on_c,0,56,0
2,576384, Note_on_c,0,90,0
2,576428, Control_c,0,64,88
2,576444, Control_c,0,64,0
2,576480, Note_on_c,0,90,92
2,576484, Note_on_c,0,78,97
2,576484, Note_on_c,0,66,78
2,576488, Note_on_c,0,56,64
2,576492, Note_on_c,0,80,84
2,576492, Note_on_c,0,54,72
2,576528, Control_c,0,64,88
2,576544, Control_c,0,64,127
2,576596, Note_on_c,0,54,0
2,576604, Note_on_c,0,78,0
2,576612, Note_on_c,0,90,0
2,576612, Note_on_c,0,66,0
2,576748, Note_on_c,0,56,0
2,576748, Note_on_c,0,80,0
2,576832, Note_on_c,0,88,89
2,576844, Note_on_c,0,80,70
2,576844, Note_on_c,0,76,79
2,576848, Note_on_c,0,56,64
2,576856, Control_c,0,64,40
2,576860, Note_on_c,0,64,72
2,576864, Note_on_c,0,52,71
2,576872, Control_c,0,64,0
2,576904, Control_c,0,64,40
2,576916, Note_on_c,0,76,0
2,576916, Note_on_c,0,80,0
2,576924, Note_on_c,0,52,0
2,576924, Control_c,0,64,104
2,576928, Note_on_c,0,64,0
2,576932, Note_on_c,0,56,0
2,576932, Note_on_c,0,88,0
2,576940, Control_c,0,64,127
2,577596, Control_c,0,64,88
2,577612, Control_c,0,64,56
2,577628, Control_c,0,64,0
2,577764, Note_on_c,0,56,69
2,577768, Note_on_c,0,80,81
2,577768, Note_on_c,0,84,89
2,577772, Note_on_c,0,72,85
2,577772, Note_on_c,0,48,71
2,577776, Note_on_c,0,60,70
2,577776, Control_c,0,64,72
2,577792, Control_c,0,64,127
2,577812, Note_on_c,0,60,0
2,577828, Note_on_c,0,72,0
2,577828, Note_on_c,0,48,0
2,577840, Note_on_c,0,84,0
2,577864, Note_on_c,0,56,0
2,577872, Note_on_c,0,80,0
2,577940, Note_on_c,0,73,90
2,577944, Note_on_c,0,85,97
2,577944, Note_on_c,0,80,74
2,577948, Note_on_c,0,61,81
2,577952, Note_on_c,0,49,76
2,577980, Note_on_c,0,49,0
2,577992, Note_on_c,0,73,0
2,578012, Note_on_c,0,61,0
2,578020, Note_on_c,0,85,0
2,578028, Note_on_c,0,80,0
2,578136, Control_c,0,64,104
2,578152, Control_c,0,64,24
2,578160, Note_on_c,0,80,103
2,578164, Note_on_c,0,92,103
2,578172, Control_c,0,64,0
2,578176, Note_on_c,0,68,85
2,578184, Note_on_c,0,56,75
2,578220, Note_on_c,0,80,0
2,578220, Control_c,0,64,24
2,578228, Note_on_c,0,92,0
2,578236, Control_c,0,64,104
2,578252, Note_on_c,0,68,0
2,578252, Control_c,0,64,127
2,578256, Note_on_c,0,56,0
2,578492, Note_on_c,0,90,91
2,578500, Note_on_c,0,78,99
2,578500, Note_on_c,0,66,75
2,578500, Note_on_c,0,56,63
2,578504, Note_on_c,0,54,71
2,578508, Note_on_c,0,80,77
2,578536, Note_on_c,0,80,0
2,578552, Note_on_c,0,78,0
2,578560, Note_on_c,0,54,0
2,578568, Note_on_c,0,66,0
2,578572, Note_on_c,0,56,0
2,578588, Note_on_c,0,90,0
2,578684, Note_on_c,0,90,90
2,578692, Note_on_c,0,78,97
2,578692, Note_on_c,0,54,71
2,578692, Note_on_c,0,66,80
2,578696, Note_on_c,0,56,62
2,578704, Note_on_c,0,80,74
2,578744, Note_on_c,0,54,0
2,578760, Note_on_c,0,80,0
2,578764, Note_on_c,0,78,0
2,578768, Note_on_c,0,66,0
2,578776, Note_on_c,0,56,0
2,578784, Note_on_c,0,90,0
2,578864, Note_on_c,0,87,87
2,578864, Note_on_c,0,56,66
2,578864, Note_on_c,0,51,70
2,578868, Note_on_c,0,75,86
2,578872, Note_on_c,0,63,50
2,578884, Note_on_c,0,80,65
2,578928, Note_on_c,0,63,0
2,578936, Note_on_c,0,75,0
2,578936, Note_on_c,0,51,0
2,578960, Note_on_c,0,87,0
2,578968, Note_on_c,0,80,0
2,579024, Control_c,0,64,104
2,579040, Note_on_c,0,88,97
2,579040, Control_c,0,64,24
2,579044, Note_on_c,0,80,78
2,579048, Note_on_c,0,76,87
2,579056, Control_c,0,64,0
2,579060, Note_on_c,0,64,81
2,579064, Note_on_c,0,52,74
2,579100, Note_on_c,0,76,0
2,579104, Control_c,0,64,24
2,579108, Note_on_c,0,80,0
2,579120, Control_c,0,64,104
2,579124, Note_on_c,0,64,0
2,579128, Note_on_c,0,56,0
2,579128, Note_on_c,0,52,0
2,579128, Note_on_c,0,88,0
2,579140, Control_c,0,64,127
2,579400, Control_c,0,64,104
2,579416, Control_c,0,64,88
2,579432, Control_c,0,64,72
2,579448, Control_c,0,64,56
2,579464, Control_c,0,64,40
2,579480, Control_c,0,64,24
2,579548, Control_c,0,64,0
2,579992, Note_on_c,0,61,73
2,579992, Note_on_c,0,89,94
2,579992, Control_c,0,64,56
2,579996, Note_on_c,0,85,84
2,580000, Note_on_c,0,77,96
2,580000, Note_on_c,0,53,71
2,580004, Note_on_c,0,65,64
2,580008, Control_c,0,64,127
2,580048, Note_on_c,0,65,0
2,580052, Note_on_c,0,77,0
2,580052, Note_on_c,0,53,0
2,580072, Note_on_c,0,89,0
2,580084, Note_on_c,0,61,0
2,580100, Note_on_c,0,85,0
2,580172, Note_on_c,0,90,95
2,580172, Note_on_c,0,78,97
2,580172, Note_on_c,0,54,72
2,580172, Note_on_c,0,66,67
2,580172, Note_on_c,0,85,71
2,580172, Note_on_c,0,61,72
2,580220, Note_on_c,0,66,0
2,580220, Note_on_c,0,54,0
2,580224, Note_on_c,0,61,0
2,580228, Note_on_c,0,78,0
2,580248, Note_on_c,0,85,0
2,580252, Note_on_c,0,90,0
2,580384, Control_c,0,64,0
2,580388, Note_on_c,0,97,99
2,580388, Note_on_c,0,85,102
2,580400, Note_on_c,0,73,95
2,580404, Note_on_c,0,61,84
2,580440, Note_on_c,0,85,0
2,580452, Control_c,0,64,56
2,580456, Note_on_c,0,97,0
2,580468, Control_c,0,64,127
2,580492, Note_on_c,0,61,0
2,580496, Note_on_c,0,73,0
2,580740, Note_on_c,0,61,63
2,580740, Note_on_c,0,95,100
2,580744, Note_on_c,0,71,76
2,580744, Note_on_c,0,83,96
2,580744, Note_on_c,0,85,82
2,580744, Note_on_c,0,59,73
2,580800, Note_on_c,0,83,0
2,580804, Note_on_c,0,85,0
2,580804, Note_on_c,0,71,0
2,580808, Note_on_c,0,59,0
2,580820, Note_on_c,0,95,0
2,580824, Note_on_c,0,61,0
2,580936, Note_on_c,0,95,103
2,580944, Note_on_c,0,83,102
2,580944, Note_on_c,0,85,84
2,580944, Control_c,0,64,56
2,580952, Note_on_c,0,71,84
2,580952, Note_on_c,0,61,69
2,580956, Note_on_c,0,59,73
2,580960, Control_c,0,64,0
2,581012, Control_c,0,64,72
2,581028, Control_c,0,64,127
2,581064, Note_on_c,0,59,0
2,581080, Note_on_c,0,71,0
2,581112, Note_on_c,0,61,0
2,581120, Note_on_c,0,95,0
2,581148, Note_on_c,0,83,0
2,581184, Note_on_c,0,85,0
2,581284, Note_on_c,0,93,97
2,581288, Note_on_c,0,81,82
2,581288, Note_on_c,0,61,70
2,581292, Note_on_c,0,85,73
2,581300, Note_on_c,0,69,76
2,581304, Control_c,0,64,104
2,581308, Note_on_c,0,57,69
2,581324, Control_c,0,64,56
2,581348, Note_on_c,0,57,0
2,581360, Note_on_c,0,85,0
2,581364, Note_on_c,0,69,0
2,581368, Note_on_c,0,81,0
2,581372, Control_c,0,64,127
2,581376, Note_on_c,0,61,0
2,581388, Note_on_c,0,93,0
2,581944, Control_c,0,64,88
2,581960, Control_c,0,64,40
2,581976, Control_c,0,64,0
2,582184, Note_on_c,0,89,97
2,582184, Note_on_c,0,65,70
2,582184, Note_on_c,0,61,71
2,582184, Note_on_c,0,85,84
2,582184, Note_on_c,0,77,97
2,582184, Note_on_c,0,53,74
2,582208, Control_c,0,64,88
2,582224, Control_c,0,64,127
2,582232, Note_on_c,0,53,0
2,582244, Note_on_c,0,77,0
2,582248, Note_on_c,0,65,0
2,582256, Note_on_c,0,61,0
2,582260, Note_on_c,0,89,0
2,582284, Note_on_c,0,85,0
2,582372, Note_on_c,0,78,93
2,582376, Note_on_c,0,90,96
2,582376, Note_on_c,0,61,72
2,582376, Note_on_c,0,66,70
2,582376, Note_on_c,0,85,72
2,582376, Note_on_c,0,54,71
2,582424, Note_on_c,0,85,0
2,582424, Note_on_c,0,66,0
2,582424, Note_on_c,0,78,0
2,582428, Note_on_c,0,54,0
2,582432, Note_on_c,0,61,0
2,582456, Note_on_c,0,90,0
2,582564, Control_c,0,64,88
2,582584, Control_c,0,64,24
2,582588, Note_on_c,0,97,97
2,582592, Note_on_c,0,85,102
2,582596, Note_on_c,0,73,89
2,582600, Note_on_c,0,61,78
2,582600, Control_c,0,64,0
2,582616, Control_c,0,64,24
2,582632, Control_c,0,64,88
2,582648, Note_on_c,0,85,0
2,582648, Control_c,0,64,127
2,582652, Note_on_c,0,97,0
2,582688, Note_on_c,0,73,0
2,582692, Note_on_c,0,61,0
2,582936, Note_on_c,0,83,96
2,582936, Note_on_c,0,95,100
2,582936, Note_on_c,0,85,83
2,582944, Note_on_c,0,61,67
2,582944, Note_on_c,0,71,72
2,582948, Note_on_c,0,59,70
2,582996, Note_on_c,0,83,0
2,583000, Note_on_c,0,95,0
2,583000, Note_on_c,0,85,0
2,583004, Note_on_c,0,59,0
2,583008, Note_on_c,0,71,0
2,583016, Note_on_c,0,61,0
2,583092, Control_c,0,64,56
2,583108, Control_c,0,64,0
2,583124, Note_on_c,0,61,70
2,583128, Note_on_c,0,95,94
2,583132, Note_on_c,0,71,78
2,583136, Note_on_c,0,85,85
2,583136, Note_on_c,0,83,93
2,583136, Note_on_c,0,59,72
2,583144, Control_c,0,64,24
2,583156, Control_c,0,64,88
2,583176, Control_c,0,64,127
2,583184, Note_on_c,0,59,0
2,583188, Note_on_c,0,83,0
2,583192, Note_on_c,0,71,0
2,583204, Note_on_c,0,95,0
2,583216, Note_on_c,0,61,0
2,583216, Note_on_c,0,85,0
2,583288, Control_c,0,64,72
2,583312, Note_on_c,0,92,100
2,583320, Note_on_c,0,80,95
2,583320, Note_on_c,0,68,88
2,583320, Note_on_c,0,85,77
2,583324, Control_c,0,64,104
2,583328, Note_on_c,0,56,71
2,583328, Note_on_c,0,61,72
2,583336, Control_c,0,64,127
2,583372, Note_on_c,0,68,0
2,583376, Note_on_c,0,85,0
2,583376, Note_on_c,0,80,0
2,583388, Note_on_c,0,61,0
2,583400, Note_on_c,0,56,0
2,583408, Note_on_c,0,92,0
2,583468, Control_c,0,64,104
2,583488, Control_c,0,64,24
2,583504, Control_c,0,64,0
2,583508, Note_on_c,0,93,105
2,583508, Note_on_c,0,61,71
2,583516, Note_on_c,0,81,92
2,583516, Note_on_c,0,85,88
2,583520, Note_on_c,0,57,73
2,583524, Note_on_c,0,69,79
2,583540, Control_c,0,64,40
2,583556, Control_c,0,64,127
2,583568, Note_on_c,0,81,0
2,583572, Note_on_c,0,85,0
2,583576, Note_on_c,0,69,0
2,583584, Note_on_c,0,57,0
2,583592, Note_on_c,0,61,0
2,583592, Note_on_c,0,93,0
2,583916, Control_c,0,64,104
2,583928, Control_c,0,64,40
2,583948, Control_c,0,64,0
2,594243, Note_on_c,0,87,58
2,594247, Note_on_c,0,92,69
2,594263, Note_on_c,0,90,43
2,594319, Note_on_c,0,90,0
2,594331, Note_on_c,0,87,0
2,594355, Note_on_c,0,85,65
2,594443, Note_on_c,0,85,0
2,594447, Note_on_c,0,84,66
2,594463, Note_on_c,0,92,0
2,594483, Note_on_c,0,84,0
2,594551, Note_on_c,0,75,56
2,594559, Note_on_c,0,80,66
2,594563, Note_on_c,0,78,39
2,594635, Control_c,0,67,127
2,594639, Note_on_c,0,75,0
2,594643, Note_on_c,0,78,0
2,594651, Note_on_c,0,73,58
2,594735, Note_on_c,0,73,0
2,594739, Note_on_c,0,80,0
2,594755, Note_on_c,0,72,59
2,594811, Note_on_c,0,72,0
2,594859, Note_on_c,0,68,66
2,594863, Note_on_c,0,63,50
2,594867, Note_on_c,0,66,48
2,594871, Control_c,0,64,88
2,594879, Control_c,0,64,40
2,594891, Note_on_c,0,66,0
2,594891, Control_c,0,64,24
2,594899, Control_c,0,64,40
2,594911, Control_c,0,64,88
2,594919, Control_c,0,64,127
2,594931, Note_on_c,0,63,0
2,594959, Note_on_c,0,61,64
2,595055, Note_on_c,0,61,0
2,595067, Note_on_c,0,60,64
2,595119, Note_on_c,0,60,0
2,595155, Note_on_c,0,68,0
2,595175, Note_on_c,0,56,68
2,595183, Note_on_c,0,51,55
2,595191, Note_on_c,0,54,43
2,595263, Note_on_c,0,51,0
2,595267, Note_on_c,0,54,0
2,595283, Note_on_c,0,49,56
2,595383, Note_on_c,0,48,58
2,595403, Note_on_c,0,56,0
2,595407, Note_on_c,0,49,0
2,595415, Note_on_c,0,48,0
2,595511, Note_on_c,0,44,65
2,595519, Note_on_c,0,39,55
2,595527, Note_on_c,0,42,43
2,595599, Note_on_c,0,39,0
2,595603, Note_on_c,0,42,0
2,595619, Note_on_c,0,37,60
2,595719, Note_on_c,0,36,60
2,595739, Note_on_c,0,44,0
2,595743, Note_on_c,0,37,0
2,595751, Note_on_c,0,36,0
2,595847, Note_on_c,0,37,70
2,595867, Control_c,0,64,104
2,595879, Control_c,0,64,40
2,595891, Control_c,0,64,0
2,595947, Note_on_c,0,44,61
2,595951, Control_c,0,64,72
2,595959, Control_c,0,64,127
2,596051, Note_on_c,0,49,57
2,596067, Note_on_c,0,37,0
2,596087, Note_on_c,0,44,0
2,596095, Note_on_c,0,49,0
2,596151, Note_on_c,0,56,57
2,596199, Note_on_c,0,56,0
2,596255, Note_on_c,0,61,46
2,596339, Note_on_c,0,61,0
2,596351, Note_on_c,0,68,50
2,596415, Note_on_c,0,68,0
2,596467, Note_on_c,0,61,64
2,596511, Control_c,0,64,56
2,596523, Control_c,0,64,0
2,596555, Control_c,0,64,40
2,596563, Control_c,0,64,104
2,596571, Note_on_c,0,68,47
2,596575, Control_c,0,64,127
2,596667, Note_on_c,0,73,58
2,596691, Note_on_c,0,61,0
2,596703, Note_on_c,0,73,0
2,596703, Note_on_c,0,68,0
2,596775, Note_on_c,0,80,67
2,596847, Control_c,0,67,0
2,596875, Note_on_c,0,85,62
2,596879, Note_on_c,0,80,0
2,596983, Note_on_c,0,92,65
2,596987, Note_on_c,0,85,0
2,597035, Note_on_c,0,92,0
2,599055, Note_on_c,0,89,58
2,599059, Note_on_c,0,94,69
2,599075, Note_on_c,0,92,43
2,599131, Note_on_c,0,92,0
2,599143, Note_on_c,0,89,0
2,599167, Note_on_c,0,87,65
2,599255, Note_on_c,0,87,0
2,599259, Note_on_c,0,86,66
2,599275, Note_on_c,0,94,0
2,599295, Note_on_c,0,86,0
2,599363, Note_on_c,0,77,56
2,599371, Note_on_c,0,82,66
2,599375, Note_on_c,0,80,39
2,599447, Control_c,0,67,127
2,599451, Note_on_c,0,77,0
2,599455, Note_on_c,0,80,0
2,599463, Note_on_c,0,75,58
2,599547, Note_on_c,0,75,0
2,599551, Note_on_c,0,82,0
2,599567, Note_on_c,0,74,59
2,599623, Note_on_c,0,74,0
2,599671, Note_on_c,0,70,66
2,599675, Note_on_c,0,65,50
2,599679, Note_on_c,0,68,48
2,599683, Control_c,0,64,88
2,599691, Control_c,0,64,40
2,599703, Note_on_c,0,68,0
2,599703, Control_c,0,64,24
2,599711, Control_c,0,64,40
2,599723, Control_c,0,64,88
2,599731, Control_c,0,64,127
2,599743, Note_on_c,0,65,0
2,599771, Note_on_c,0,63,64
2,599867, Note_on_c,0,63,0
2,599879, Note_on_c,0,62,64
2,599931, Note_on_c,0,62,0
2,599967, Note_on_c,0,70,0
2,599987, Note_on_c,0,58,68
2,599995, Note_on_c,0,53,55
2,600003, Note_on_c,0,56,43
2,600075, Note_on_c,0,53,0
2,600079, Note_on_c,0,56,0
2,600095, Note_on_c,0,51,56
2,600195, Note_on_c,0,50,58
2,600215, Note_on_c,0,58,0
2,600219, Note_on_c,0,51,0
2,600227, Note_on_c,0,50,0
2,600323, Note_on_c,0,46,65
2,600331, Note_on_c,0,41,55
2,600339, Note_on_c,0,44,43
2,600411, Note_on_c,0,41,0
2,600415, Note_on_c,0,44,0
2,600431, Note_on_c,0,39,60
2,600531, Note_on_c,0,38,60
2,600551, Note_on_c,0,46,0
2,600555, Note_on_c,0,39,0
2,600563, Note_on_c,0,38,0
2,600659, Note_on_c,0,39,70
2,600679, Control_c,0,64,104
2,600691, Control_c,0,64,40
2,600703, Control_c,0,64,0
2,600759, Note_on_c,0,46,61
2,600763, Control_c,0,64,72
2,600771, Control_c,0,64,127
2,600863, Note_on_c,0,51,57
2,600879, Note_on_c,0,39,0
2,600899, Note_on_c,0,46,0
2,600907, Note_on_c,0,51,0
2,600963, Note_on_c,0,58,57
2,601011, Note_on_c,0,58,0
2,601067, Note_on_c,0,63,46
2,601151, Note_on_c,0,63,0
2,601163, Note_on_c,0,70,50
2,601227, Note_on_c,0,70,0
2,601279, Note_on_c,0,63,64
2,601323, Control_c,0,64,56
2,601335, Control_c,0,64,0
2,601367, Control_c,0,64,40
2,601375, Control_c,0,64,104
2,601383, Note_on_c,0,70,47
2,601387, Control_c,0,64,127
2,601479, Note_on_c,0,75,58
2,601503, Note_on_c,0,63,0
2,601515, Note_on_c,0,75,0
2,601515, Note_on_c,0,70,0
2,601587, Note_on_c,0,82,67
2,601659, Control_c,0,67,0
2,601687, Note_on_c,0,87,62
2,601691, Note_on_c,0,82,0
2,601795, Note_on_c,0,94,65
2,601799, Note_on_c,0,87,0
2,601847, Note_on_c,0,94,0
2,602727, Note_on_c,0,79,58
2,602731, Note_on_c,0,84,69
2,602747, Note_on_c,0,82,43
2,602803, Note_on_c,0,82,0
2,602815, Note_on_c,0,79,0
2,602839, Note_on_c,0,77,65
2,602927, Note_on_c,0,77,0
2,602931, Note_on_c,0,76,66
2,602947, Note_on_c,0,84,0
2,602967, Note_on_c,0,76,0
2,603043, Note_on_c,0,72,66
2,603047, Note_on_c,0,70,39
2,603119, Control_c,0,67,127
2,603127, Note_on_c,0,70,0
2,603135, Note_on_c,0,68,58
2,603219, Note_on_c,0,68,0
2,603223, Note_on_c,0,72,0
2,603239, Note_on_c,0,67,59
2,603295, Note_on_c,0,67,0
2,603343, Note_on_c,0,60,66
2,603351, Note_on_c,0,58,48
2,603355, Control_c,0,64,88
2,603363, Control_c,0,64,40
2,603375, Note_on_c,0,58,0
2,603375, Control_c,0,64,24
2,603383, Control_c,0,64,40
2,603395, Control_c,0,64,88
2,603403, Control_c,0,64,127
2,603443, Note_on_c,0,61,64
2,603539, Note_on_c,0,61,0
2,603551, Note_on_c,0,60,64
2,603603, Note_on_c,0,60,0
2,603639, Note_on_c,0,60,0
2,603659, Note_on_c,0,59,68
2,603667, Note_on_c,0,53,55
2,603675, Note_on_c,0,56,43
2,603747, Note_on_c,0,53,0
2,603751, Note_on_c,0,56,0
2,603767, Note_on_c,0,60,56
2,603867, Note_on_c,0,61,58
2,603887, Note_on_c,0,59,0
2,603891, Note_on_c,0,60,0
2,603899, Note_on_c,0,61,0
2,603995, Note_on_c,0,49,65
2,604003, Note_on_c,0,44,55
2,604083, Note_on_c,0,44,0
2,604103, Note_on_c,0,47,60
2,604203, Note_on_c,0,48,60
2,604223, Note_on_c,0,49,0
2,604227, Note_on_c,0,47,0
2,604235, Note_on_c,0,48,0
2,604332, Control_c,0,64,0
2,605135, Note_on_c,0,81,58
2,605139, Note_on_c,0,86,69
2,605155, Note_on_c,0,84,43
2,605211, Note_on_c,0,84,0
2,605223, Note_on_c,0,81,0
2,605247, Note_on_c,0,79,65
2,605335, Note_on_c,0,79,0
2,605339, Note_on_c,0,78,66
2,605355, Note_on_c,0,86,0
2,605375, Note_on_c,0,78,0
2,605451, Note_on_c,0,74,66
2,605455, Note_on_c,0,72,39
2,605527, Control_c,0,67,127
2,605535, Note_on_c,0,72,0
2,605543, Note_on_c,0,70,58
2,605627, Note_on_c,0,70,0
2,605631, Note_on_c,0,74,0
2,605647, Note_on_c,0,69,59
2,605703, Note_on_c,0,69,0
2,605751, Note_on_c,0,62,66
2,605759, Note_on_c,0,60,48
2,605763, Control_c,0,64,88
2,605771, Control_c,0,64,40
2,605783, Note_on_c,0,60,0
2,605783, Control_c,0,64,24
2,605791, Control_c,0,64,40
2,605803, Control_c,0,64,88
2,605811, Control_c,0,64,127
2,605851, Note_on_c,0,63,64
2,605947, Note_on_c,0,63,0
2,605959, Note_on_c,0,62,64
2,606011, Note_on_c,0,62,0
2,606047, Note_on_c,0,62,0
2,606067, Note_on_c,0,61,68
2,606075, Note_on_c,0,55,55
2,606083, Note_on_c,0,58,43
2,606155, Note_on_c,0,55,0
2,606159, Note_on_c,0,58,0
2,606175, Note_on_c,0,62,56
2,606275, Note_on_c,0,63,58
2,606295, Note_on_c,0,61,0
2,606299, Note_on_c,0,62,0
2,606307, Note_on_c,0,63,0
2,606403, Note_on_c,0,51,65
2,606411, Note_on_c,0,46,55
2,606491, Note_on_c,0,46,0
2,606511, Note_on_c,0,49,60
2,606611, Note_on_c,0,50,60
2,606631, Note_on_c,0,51,0
2,606635, Note_on_c,0,49,0
2,606643, Note_on_c,0,50,0
2,606720, Control_c,0,64,127
2,606724, Note_on_c,0,51,67
2,606728, Note_on_c,0,61,68
2,606740, Control_c,0,64,0
2,606740, Note_on_c,0,49,60
2,606804, Note_on_c,0,49,0
2,606824, Note_on_c,0,61,0
2,606824, Note_on_c,0,63,77
2,606828, Note_on_c,0,51,0
2,606924, Note_on_c,0,75,69
2,606960, Note_on_c,0,63,0
2,607016, Note_on_c,0,70,68
2,607040, Note_on_c,0,75,0
2,607056, Note_on_c,0,70,0
2,607108, Note_on_c,0,68,74
2,607112, Note_on_c,0,63,68
2,607120, Note_on_c,0,61,66
2,607200, Note_on_c,0,75,80
2,607268, Note_on_c,0,75,0
2,607288, Note_on_c,0,87,86
2,607292, Note_on_c,0,67,71
2,607300, Note_on_c,0,82,69
2,607308, Note_on_c,0,68,0
2,607316, Note_on_c,0,61,0
2,607324, Note_on_c,0,63,0
2,607344, Note_on_c,0,67,0
2,607348, Note_on_c,0,82,0
2,607372, Note_on_c,0,87,0
2,607380, Note_on_c,0,75,75
2,607428, Note_on_c,0,75,0
2,607484, Note_on_c,0,51,75
2,607484, Control_c,0,64,72
2,607488, Note_on_c,0,60,73
2,607496, Control_c,0,64,0
2,607500, Note_on_c,0,48,55
2,607556, Control_c,0,64,40
2,607568, Note_on_c,0,48,0
2,607568, Control_c,0,64,127
2,607584, Note_on_c,0,68,82
2,607596, Note_on_c,0,51,0
2,607600, Note_on_c,0,60,0
2,607676, Note_on_c,0,80,73
2,607724, Note_on_c,0,68,0
2,607764, Note_on_c,0,75,67
2,607804, Note_on_c,0,75,0
2,607808, Note_on_c,0,80,0
2,607860, Note_on_c,0,67,77
2,607868, Note_on_c,0,63,62
2,607872, Note_on_c,0,60,63
2,607944, Note_on_c,0,80,76
2,608016, Note_on_c,0,80,0
2,608032, Note_on_c,0,92,87
2,608032, Note_on_c,0,68,75
2,608040, Note_on_c,0,87,70
2,608048, Note_on_c,0,60,0
2,608048, Note_on_c,0,67,0
2,608056, Note_on_c,0,63,0
2,608072, Note_on_c,0,68,0
2,608104, Note_on_c,0,87,0
2,608112, Note_on_c,0,92,0
2,608120, Note_on_c,0,80,77
2,608160, Note_on_c,0,80,0
2,608216, Control_c,0,64,104
2,608220, Note_on_c,0,63,76
2,608224, Note_on_c,0,51,64
2,608228, Note_on_c,0,53,73
2,608228, Control_c,0,64,40
2,608236, Control_c,0,64,0
2,608288, Control_c,0,64,72
2,608300, Control_c,0,64,127
2,608320, Note_on_c,0,51,0
2,608324, Note_on_c,0,65,72
2,608332, Note_on_c,0,63,0
2,608336, Note_on_c,0,53,0
2,608412, Note_on_c,0,77,79
2,608476, Note_on_c,0,65,0
2,608496, Note_on_c,0,72,69
2,608540, Note_on_c,0,72,0
2,608552, Note_on_c,0,77,0
2,608588, Note_on_c,0,70,78
2,608596, Note_on_c,0,65,68
2,608600, Note_on_c,0,63,68
2,608680, Note_on_c,0,77,82
2,608748, Note_on_c,0,77,0
2,608768, Note_on_c,0,69,74
2,608776, Note_on_c,0,89,87
2,608780, Note_on_c,0,84,77
2,608784, Note_on_c,0,70,0
2,608784, Note_on_c,0,65,0
2,608796, Note_on_c,0,63,0
2,608812, Note_on_c,0,69,0
2,608840, Note_on_c,0,84,0
2,608860, Note_on_c,0,89,0
2,608864, Note_on_c,0,77,82
2,608908, Note_on_c,0,77,0
2,608960, Control_c,0,64,104
2,608964, Note_on_c,0,61,74
2,608968, Note_on_c,0,53,73
2,608968, Control_c,0,64,40
2,608972, Note_on_c,0,49,70
2,608980, Control_c,0,64,0
2,609020, Control_c,0,64,24
2,609032, Note_on_c,0,49,0
2,609032, Control_c,0,64,104
2,609040, Note_on_c,0,53,0
2,609040, Control_c,0,64,127
2,609052, Note_on_c,0,61,0
2,609052, Note_on_c,0,70,83
2,609140, Note_on_c,0,82,77
2,609204, Note_on_c,0,70,0
2,609220, Note_on_c,0,77,75
2,609264, Note_on_c,0,82,0
2,609268, Note_on_c,0,77,0
2,609320, Note_on_c,0,69,82
2,609328, Note_on_c,0,61,65
2,609332, Note_on_c,0,65,64
2,609408, Note_on_c,0,82,74
2,609480, Note_on_c,0,82,0
2,609496, Note_on_c,0,94,80
2,609500, Note_on_c,0,70,77
2,609504, Note_on_c,0,89,73
2,609520, Note_on_c,0,69,0
2,609524, Note_on_c,0,61,0
2,609536, Note_on_c,0,65,0
2,609544, Note_on_c,0,70,0
2,609564, Note_on_c,0,89,0
2,609576, Note_on_c,0,94,0
2,609588, Note_on_c,0,82,75
2,609636, Note_on_c,0,82,0
2,609700, Control_c,0,64,40
2,609708, Note_on_c,0,58,65
2,609708, Note_on_c,0,66,79
2,609712, Note_on_c,0,54,60
2,609712, Control_c,0,64,0
2,609776, Control_c,0,64,127
2,609804, Note_on_c,0,54,0
2,609804, Note_on_c,0,66,0
2,609820, Note_on_c,0,58,0
2,609820, Note_on_c,0,70,77
2,609824, Note_on_c,0,82,78
2,609896, Note_on_c,0,70,0
2,609936, Note_on_c,0,78,69
2,609956, Note_on_c,0,82,0
2,609980, Note_on_c,0,78,0
2,610048, Note_on_c,0,78,81
2,610048, Note_on_c,0,70,65
2,610052, Note_on_c,0,66,60
2,610092, Note_on_c,0,70,0
2,610092, Note_on_c,0,78,0
2,610112, Note_on_c,0,66,0
2,610172, Note_on_c,0,94,80
2,610172, Note_on_c,0,82,65
2,610264, Note_on_c,0,90,70
2,610268, Note_on_c,0,94,0
2,610300, Note_on_c,0,82,0
2,610308, Note_on_c,0,90,0
2,610372, Note_on_c,0,66,77
2,610376, Note_on_c,0,59,74
2,610380, Note_on_c,0,54,65
2,610380, Control_c,0,64,56
2,610392, Control_c,0,64,0
2,610444, Control_c,0,64,40
2,610456, Note_on_c,0,54,0
2,610456, Control_c,0,64,127
2,610464, Note_on_c,0,59,0
2,610472, Note_on_c,0,66,0
2,610484, Note_on_c,0,83,88
2,610488, Note_on_c,0,71,73
2,610548, Note_on_c,0,71,0
2,610588, Note_on_c,0,78,77
2,610624, Note_on_c,0,83,0
2,610632, Note_on_c,0,78,0
2,610700, Note_on_c,0,78,88
2,610708, Note_on_c,0,66,64
2,610708, Note_on_c,0,71,70
2,610732, Note_on_c,0,71,0
2,610760, Note_on_c,0,78,0
2,610764, Note_on_c,0,66,0
2,610816, Note_on_c,0,83,77
2,610820, Note_on_c,0,95,87
2,610888, Note_on_c,0,83,0
2,610920, Note_on_c,0,90,78
2,610928, Note_on_c,0,95,0
2,610968, Note_on_c,0,90,0
2,611012, Control_c,0,64,104
2,611020, Control_c,0,64,24
2,611028, Note_on_c,0,59,72
2,611032, Note_on_c,0,67,79
2,611032, Control_c,0,64,0
2,611036, Note_on_c,0,55,67
2,611072, Control_c,0,64,56
2,611084, Note_on_c,0,55,0
2,611084, Control_c,0,64,127
2,611096, Note_on_c,0,59,0
2,611112, Note_on_c,0,67,0
2,611144, Note_on_c,0,83,86
2,611148, Note_on_c,0,71,75
2,611204, Note_on_c,0,71,0
2,611228, Note_on_c,0,83,0
2,611248, Note_on_c,0,79,79
2,611284, Note_on_c,0,79,0
2,611360, Note_on_c,0,67,61
2,611364, Note_on_c,0,79,75
2,611372, Note_on_c,0,71,53
2,611404, Note_on_c,0,79,0
2,611408, Note_on_c,0,71,0
2,611416, Note_on_c,0,67,0
2,611472, Note_on_c,0,83,79
2,611476, Note_on_c,0,95,88
2,611548, Note_on_c,0,83,0
2,611556, Note_on_c,0,95,0
2,611576, Note_on_c,0,91,82
2,611620, Note_on_c,0,91,0
2,611676, Control_c,0,64,104
2,611692, Note_on_c,0,67,81
2,611692, Note_on_c,0,60,81
2,611692, Control_c,0,64,24
2,611696, Note_on_c,0,55,70
2,611700, Control_c,0,64,0
2,611744, Control_c,0,64,40
2,611752, Control_c,0,64,127
2,611756, Note_on_c,0,55,0
2,611772, Note_on_c,0,60,0
2,611800, Note_on_c,0,67,0
2,611800, Note_on_c,0,84,86
2,611804, Note_on_c,0,72,78
2,611856, Note_on_c,0,72,0
2,611904, Note_on_c,0,79,70
2,611932, Note_on_c,0,79,0
2,611936, Note_on_c,0,84,0
2,612028, Note_on_c,0,79,82
2,612032, Note_on_c,0,72,73
2,612036, Note_on_c,0,67,58
2,612068, Note_on_c,0,79,0
2,612084, Note_on_c,0,72,0
2,612100, Note_on_c,0,67,0
2,612148, Note_on_c,0,84,57
2,612148, Note_on_c,0,96,79
2,612244, Note_on_c,0,96,0
2,612256, Note_on_c,0,91,74
2,612288, Note_on_c,0,84,0
2,612328, Note_on_c,0,91,0
2,612392, Control_c,0,64,127
2,612396, Note_on_c,0,54,72
2,612400, Note_on_c,0,64,76
2,612412, Note_on_c,0,52,70
2,612476, Note_on_c,0,52,0
2,612496, Note_on_c,0,64,0
2,612496, Note_on_c,0,66,77
2,612500, Note_on_c,0,54,0
2,612596, Note_on_c,0,78,74
2,612632, Note_on_c,0,66,0
2,612676, Note_on_c,0,73,70
2,612712, Note_on_c,0,78,0
2,612728, Note_on_c,0,73,0
2,612780, Note_on_c,0,71,75
2,612784, Note_on_c,0,66,68
2,612792, Note_on_c,0,64,68
2,612872, Note_on_c,0,78,80
2,612940, Note_on_c,0,78,0
2,612960, Note_on_c,0,90,86
2,612964, Note_on_c,0,70,76
2,612972, Note_on_c,0,85,60
2,612980, Note_on_c,0,71,0
2,612988, Note_on_c,0,64,0
2,612996, Note_on_c,0,66,0
2,613008, Note_on_c,0,70,0
2,613020, Note_on_c,0,85,0
2,613044, Note_on_c,0,90,0
2,613052, Note_on_c,0,78,75
2,613092, Note_on_c,0,78,0
2,613156, Note_on_c,0,54,75
2,613156, Control_c,0,64,72
2,613160, Note_on_c,0,63,76
2,613168, Control_c,0,64,0
2,613172, Note_on_c,0,51,55
2,613228, Control_c,0,64,40
2,613240, Note_on_c,0,51,0
2,613240, Control_c,0,64,127
2,613256, Note_on_c,0,71,82
2,613268, Note_on_c,0,54,0
2,613272, Note_on_c,0,63,0
2,613348, Note_on_c,0,83,73
2,613396, Note_on_c,0,71,0
2,613436, Note_on_c,0,78,67
2,613476, Note_on_c,0,78,0
2,613480, Note_on_c,0,83,0
2,613532, Note_on_c,0,70,74
2,613540, Note_on_c,0,66,65
2,613544, Note_on_c,0,63,68
2,613616, Note_on_c,0,83,76
2,613688, Note_on_c,0,83,0
2,613704, Note_on_c,0,95,87
2,613704, Note_on_c,0,71,72
2,613712, Note_on_c,0,90,65
2,613720, Note_on_c,0,63,0
2,613720, Note_on_c,0,70,0
2,613728, Note_on_c,0,66,0
2,613744, Note_on_c,0,71,0
2,613776, Note_on_c,0,90,0
2,613784, Note_on_c,0,95,0
2,613792, Note_on_c,0,83,77
2,613832, Note_on_c,0,83,0
2,613888, Control_c,0,64,104
2,613892, Note_on_c,0,65,76
2,613896, Note_on_c,0,53,74
2,613900, Note_on_c,0,55,73
2,613900, Control_c,0,64,40
2,613908, Control_c,0,64,0
2,613960, Control_c,0,64,72
2,613972, Control_c,0,64,127
2,613992, Note_on_c,0,53,0
2,613996, Note_on_c,0,67,72
2,614004, Note_on_c,0,65,0
2,614008, Note_on_c,0,55,0
2,614084, Note_on_c,0,79,79
2,614148, Note_on_c,0,67,0
2,614168, Note_on_c,0,74,73
2,614212, Note_on_c,0,74,0
2,614220, Note_on_c,0,79,0
2,614260, Note_on_c,0,72,76
2,614268, Note_on_c,0,67,69
2,614272, Note_on_c,0,65,70
2,614352, Note_on_c,0,79,82
2,614420, Note_on_c,0,79,0
2,614440, Note_on_c,0,71,71
2,614448, Note_on_c,0,91,87
2,614452, Note_on_c,0,86,77
2,614456, Note_on_c,0,72,0
2,614456, Note_on_c,0,67,0
2,614468, Note_on_c,0,65,0
2,614480, Note_on_c,0,71,0
2,614512, Note_on_c,0,86,0
2,614532, Note_on_c,0,91,0
2,614536, Note_on_c,0,79,82
2,614580, Note_on_c,0,79,0
2,614632, Control_c,0,64,104
2,614636, Note_on_c,0,64,75
2,614640, Note_on_c,0,55,73
2,614640, Control_c,0,64,40
2,614644, Note_on_c,0,52,61
2,614652, Control_c,0,64,0
2,614692, Control_c,0,64,24
2,614704, Note_on_c,0,52,0
2,614704, Control_c,0,64,104
2,614712, Note_on_c,0,55,0
2,614712, Control_c,0,64,127
2,614724, Note_on_c,0,64,0
2,614724, Note_on_c,0,72,83
2,614812, Note_on_c,0,84,74
2,614876, Note_on_c,0,72,0
2,614892, Note_on_c,0,79,75
2,614928, Note_on_c,0,79,0
2,614936, Note_on_c,0,84,0
2,614992, Note_on_c,0,71,82
2,615000, Note_on_c,0,64,67
2,615004, Note_on_c,0,67,70
2,615068, Note_on_c,0,84,74
2,615140, Note_on_c,0,84,0
2,615168, Note_on_c,0,96,80
2,615172, Note_on_c,0,72,77
2,615176, Note_on_c,0,91,73
2,615192, Note_on_c,0,71,0
2,615196, Note_on_c,0,64,0
2,615208, Note_on_c,0,67,0
2,615216, Note_on_c,0,72,0
2,615236, Note_on_c,0,91,0
2,615248, Note_on_c,0,96,0
2,615260, Note_on_c,0,84,74
2,615312, Note_on_c,0,84,0
2,615372, Control_c,0,64,40
2,615380, Note_on_c,0,61,65
2,615380, Note_on_c,0,69,79
2,615384, Note_on_c,0,57,60
2,615384, Control_c,0,64,0
2,615448, Control_c,0,64,127
2,615476, Note_on_c,0,57,0
2,615476, Note_on_c,0,69,0
2,615492, Note_on_c,0,61,0
2,615492, Note_on_c,0,73,77
2,615496, Note_on_c,0,85,78
2,615568, Note_on_c,0,73,0
2,615608, Note_on_c,0,81,69
2,615628, Note_on_c,0,85,0
2,615652, Note_on_c,0,81,0
2,615720, Note_on_c,0,81,81
2,615720, Note_on_c,0,73,65
2,615724, Note_on_c,0,69,60
2,615764, Note_on_c,0,73,0
2,615764, Note_on_c,0,81,0
2,615784, Note_on_c,0,69,0
2,615844, Note_on_c,0,97,80
2,615844, Note_on_c,0,85,65
2,615936, Note_on_c,0,93,70
2,615940, Note_on_c,0,97,0
2,615972, Note_on_c,0,85,0
2,615980, Note_on_c,0,93,0
2,616044, Note_on_c,0,69,77
2,616048, Note_on_c,0,62,74
2,616052, Note_on_c,0,57,65
2,616052, Control_c,0,64,56
2,616064, Control_c,0,64,0
2,616116, Control_c,0,64,40
2,616128, Note_on_c,0,57,0
2,616128, Control_c,0,64,127
2,616136, Note_on_c,0,62,0
2,616144, Note_on_c,0,69,0
2,616156, Note_on_c,0,86,88
2,616160, Note_on_c,0,74,73
2,616220, Note_on_c,0,74,0
2,616260, Note_on_c,0,81,77
2,616296, Note_on_c,0,86,0
2,616304, Note_on_c,0,81,0
2,616372, Note_on_c,0,81,88
2,616380, Note_on_c,0,69,64
2,616380, Note_on_c,0,74,70
2,616404, Note_on_c,0,74,0
2,616432, Note_on_c,0,81,0
2,616436, Note_on_c,0,69,0
2,616488, Note_on_c,0,86,77
2,616492, Note_on_c,0,98,87
2,616560, Note_on_c,0,86,0
2,616592, Note_on_c,0,93,78
2,616600, Note_on_c,0,98,0
2,616640, Note_on_c,0,93,0
2,616684, Control_c,0,64,104
2,616692, Control_c,0,64,24
2,616700, Note_on_c,0,62,72
2,616704, Note_on_c,0,70,79
2,616704, Control_c,0,64,0
2,616708, Note_on_c,0,58,67
2,616744, Control_c,0,64,56
2,616756, Note_on_c,0,58,0
2,616756, Control_c,0,64,127
2,616768, Note_on_c,0,62,0
2,616784, Note_on_c,0,70,0
2,616816, Note_on_c,0,86,86
2,616820, Note_on_c,0,74,75
2,616876, Note_on_c,0,74,0
2,616900, Note_on_c,0,86,0
2,616920, Note_on_c,0,82,79
2,616956, Note_on_c,0,82,0
2,617032, Note_on_c,0,70,61
2,617036, Note_on_c,0,82,75
2,617044, Note_on_c,0,74,53
2,617076, Note_on_c,0,82,0
2,617080, Note_on_c,0,74,0
2,617088, Note_on_c,0,70,0
2,617144, Note_on_c,0,86,79
2,617148, Note_on_c,0,98,88
2,617220, Note_on_c,0,86,0
2,617228, Note_on_c,0,98,0
2,617248, Note_on_c,0,94,82
2,617292, Note_on_c,0,94,0
2,617348, Control_c,0,64,104
2,617364, Note_on_c,0,70,81
2,617364, Note_on_c,0,63,81
2,617364, Control_c,0,64,24
2,617368, Note_on_c,0,58,70
2,617372, Control_c,0,64,0
2,617416, Control_c,0,64,40
2,617424, Control_c,0,64,127
2,617428, Note_on_c,0,58,0
2,617444, Note_on_c,0,63,0
2,617472, Note_on_c,0,70,0
2,617472, Note_on_c,0,87,86
2,617476, Note_on_c,0,75,78
2,617528, Note_on_c,0,75,0
2,617576, Note_on_c,0,82,70
2,617604, Note_on_c,0,82,0
2,617608, Note_on_c,0,87,0
2,617700, Note_on_c,0,82,82
2,617704, Note_on_c,0,75,73
2,617708, Note_on_c,0,70,58
2,617740, Note_on_c,0,82,0
2,617756, Note_on_c,0,75,0
2,617772, Note_on_c,0,70,0
2,617820, Note_on_c,0,87,57
2,617820, Note_on_c,0,99,79
2,617916, Note_on_c,0,99,0
2,617928, Note_on_c,0,94,74
2,617960, Note_on_c,0,87,0
2,618000, Note_on_c,0,94,0
2,618036, Note_on_c,0,78,90
2,618040, Note_on_c,0,73,77
2,618040, Note_on_c,0,66,67
2,618044, Note_on_c,0,70,68
2,618056, Control_c,0,64,56
2,618072, Control_c,0,64,127
2,618088, Note_on_c,0,73,0
2,618088, Note_on_c,0,78,0
2,618096, Note_on_c,0,70,0
2,618112, Note_on_c,0,66,0
2,618144, Note_on_c,0,82,79
2,618252, Note_on_c,0,85,79
2,618272, Note_on_c,0,82,0
2,618296, Note_on_c,0,85,0
2,618352, Note_on_c,0,88,96
2,618424, Note_on_c,0,88,0
2,618440, Note_on_c,0,66,95
2,618440, Note_on_c,0,61,80
2,618444, Note_on_c,0,54,76
2,618448, Note_on_c,0,58,67
2,618460, Note_on_c,0,100,94
2,618460, Note_on_c,0,94,82
2,618488, Note_on_c,0,66,0
2,618496, Note_on_c,0,61,0
2,618508, Note_on_c,0,54,0
2,618512, Note_on_c,0,58,0
2,618540, Note_on_c,0,100,0
2,618544, Note_on_c,0,94,0
2,618548, Note_on_c,0,88,90
2,618572, Note_on_c,0,88,0
2,618640, Note_on_c,0,88,83
2,618652, Note_on_c,0,82,57
2,618700, Note_on_c,0,88,0
2,618720, Note_on_c,0,82,0
2,618728, Note_on_c,0,76,76
2,618772, Note_on_c,0,76,0
2,618836, Note_on_c,0,49,95
2,618836, Note_on_c,0,54,108
2,618840, Note_on_c,0,42,85
2,618840, Note_on_c,0,46,80
2,618944, Note_on_c,0,70,71
2,619056, Note_on_c,0,73,69
2,619072, Note_on_c,0,70,0
2,619108, Note_on_c,0,73,0
2,619160, Note_on_c,0,76,84
2,619236, Note_on_c,0,76,0
2,619272, Note_on_c,0,88,88
2,619276, Note_on_c,0,82,75
2,619352, Note_on_c,0,88,0
2,619356, Note_on_c,0,82,0
2,619356, Note_on_c,0,76,88
2,619372, Note_on_c,0,54,0
2,619384, Note_on_c,0,42,0
2,619396, Note_on_c,0,76,0
2,619396, Note_on_c,0,49,0
2,619400, Note_on_c,0,46,0
2,619468, Note_on_c,0,76,82
2,619480, Note_on_c,0,70,65
2,619520, Note_on_c,0,76,0
2,619524, Note_on_c,0,70,0
2,619548, Note_on_c,0,64,73
2,619616, Note_on_c,0,64,0
2,619684, Note_on_c,0,70,84
2,619684, Note_on_c,0,73,90
2,619684, Note_on_c,0,65,70
2,619688, Note_on_c,0,77,93
2,619692, Control_c,0,64,24
2,619704, Control_c,0,64,0
2,619752, Control_c,0,64,40
2,619764, Control_c,0,64,127
2,619792, Note_on_c,0,77,0
2,619792, Note_on_c,0,82,86
2,619804, Note_on_c,0,73,0
2,619812, Note_on_c,0,70,0
2,619812, Note_on_c,0,65,0
2,619892, Note_on_c,0,85,79
2,619896, Note_on_c,0,82,0
2,619928, Note_on_c,0,85,0
2,619992, Note_on_c,0,89,89
2,620052, Note_on_c,0,89,0
2,620092, Note_on_c,0,58,77
2,620100, Note_on_c,0,61,85
2,620100, Note_on_c,0,101,92
2,620100, Note_on_c,0,65,97
2,620104, Note_on_c,0,94,83
2,620104, Note_on_c,0,53,74
2,620184, Note_on_c,0,65,0
2,620184, Note_on_c,0,101,0
2,620192, Note_on_c,0,61,0
2,620192, Note_on_c,0,89,92
2,620200, Note_on_c,0,58,0
2,620200, Note_on_c,0,94,0
2,620204, Note_on_c,0,53,0
2,620232, Note_on_c,0,89,0
2,620292, Note_on_c,0,89,68
2,620304, Note_on_c,0,82,62
2,620356, Note_on_c,0,89,0
2,620372, Note_on_c,0,82,0
2,620388, Note_on_c,0,77,87
2,620436, Note_on_c,0,77,0
2,620496, Note_on_c,0,49,95
2,620496, Note_on_c,0,41,82
2,620500, Note_on_c,0,53,108
2,620500, Note_on_c,0,46,87
2,620600, Note_on_c,0,70,71
2,620684, Note_on_c,0,49,0
2,620688, Note_on_c,0,46,0
2,620688, Note_on_c,0,41,0
2,620712, Note_on_c,0,73,71
2,620724, Note_on_c,0,53,0
2,620724, Note_on_c,0,70,0
2,620756, Note_on_c,0,73,0
2,620816, Note_on_c,0,77,90
2,620880, Note_on_c,0,77,0
2,620924, Note_on_c,0,82,72
2,620924, Note_on_c,0,85,73
2,620924, Note_on_c,0,89,82
2,621016, Note_on_c,0,89,0
2,621024, Note_on_c,0,85,0
2,621024, Note_on_c,0,77,94
2,621032, Note_on_c,0,82,0
2,621084, Note_on_c,0,77,0
2,621136, Note_on_c,0,77,83
2,621136, Note_on_c,0,70,72
2,621208, Note_on_c,0,77,0
2,621212, Note_on_c,0,70,0
2,621228, Note_on_c,0,65,82
2,621292, Note_on_c,0,65,0
2,621428, Note_on_c,0,82,88
2,621428, Note_on_c,0,73,70
2,621428, Note_on_c,0,77,79
2,621432, Note_on_c,0,85,92
2,621452, Note_on_c,0,84,63
2,621452, Control_c,0,64,40
2,621460, Control_c,0,64,0
2,621468, Note_on_c,0,84,0
2,621532, Control_c,0,64,127
2,621552, Note_on_c,0,89,103
2,621580, Note_on_c,0,85,0
2,621600, Note_on_c,0,73,0
2,621600, Note_on_c,0,82,0
2,621604, Note_on_c,0,77,0
2,621636, Note_on_c,0,89,0
2,621656, Note_on_c,0,94,71
2,621664, Note_on_c,0,101,84
2,621664, Note_on_c,0,97,71
2,621728, Note_on_c,0,94,0
2,621736, Note_on_c,0,97,0
2,621748, Note_on_c,0,101,0
2,621752, Note_on_c,0,89,92
2,621820, Note_on_c,0,89,0
2,621840, Note_on_c,0,82,99
2,621848, Note_on_c,0,70,73
2,621848, Note_on_c,0,77,88
2,621848, Note_on_c,0,73,73
2,621916, Note_on_c,0,77,0
2,621920, Note_on_c,0,70,0
2,621924, Note_on_c,0,82,0
2,621928, Note_on_c,0,85,95
2,621944, Note_on_c,0,73,0
2,622008, Note_on_c,0,85,0
2,622040, Note_on_c,0,97,84
2,622044, Note_on_c,0,89,74
2,622056, Note_on_c,0,94,44
2,622120, Note_on_c,0,89,0
2,622124, Note_on_c,0,94,0
2,622136, Note_on_c,0,97,0
2,622136, Note_on_c,0,85,90
2,622196, Note_on_c,0,85,0
2,622236, Note_on_c,0,70,73
2,622236, Note_on_c,0,77,92
2,622236, Note_on_c,0,73,77
2,622236, Note_on_c,0,65,75
2,622320, Note_on_c,0,82,89
2,622336, Note_on_c,0,77,0
2,622348, Note_on_c,0,65,0
2,622348, Note_on_c,0,70,0
2,622352, Note_on_c,0,73,0
2,622404, Note_on_c,0,82,0
2,622440, Note_on_c,0,85,64
2,622444, Note_on_c,0,94,82
2,622448, Note_on_c,0,89,62
2,622508, Note_on_c,0,85,0
2,622528, Note_on_c,0,89,0
2,622528, Note_on_c,0,82,83
2,622532, Note_on_c,0,94,0
2,622584, Note_on_c,0,82,0
2,622628, Note_on_c,0,73,97
2,622628, Note_on_c,0,65,78
2,622628, Note_on_c,0,70,80
2,622632, Note_on_c,0,61,64
2,622708, Note_on_c,0,70,0
2,622716, Note_on_c,0,65,0
2,622720, Note_on_c,0,73,0
2,622728, Note_on_c,0,61,0
2,622728, Note_on_c,0,77,96
2,622812, Note_on_c,0,77,0
2,622836, Note_on_c,0,89,82
2,622836, Note_on_c,0,85,67
2,622840, Note_on_c,0,82,61
2,622908, Note_on_c,0,82,0
2,622916, Note_on_c,0,89,0
2,622920, Note_on_c,0,85,0
2,622928, Note_on_c,0,77,92
2,622984, Note_on_c,0,77,0
2,623016, Note_on_c,0,70,95
2,623020, Note_on_c,0,58,69
2,623020, Note_on_c,0,65,84
2,623024, Note_on_c,0,61,65
2,623068, Note_on_c,0,65,0
2,623076, Note_on_c,0,70,0
2,623080, Note_on_c,0,58,0
2,623084, Note_on_c,0,61,0
2,623108, Note_on_c,0,73,88
2,623184, Note_on_c,0,73,0
2,623212, Note_on_c,0,85,83
2,623228, Note_on_c,0,77,60
2,623236, Note_on_c,0,82,70
2,623288, Note_on_c,0,77,0
2,623292, Note_on_c,0,82,0
2,623296, Note_on_c,0,85,0
2,623304, Note_on_c,0,73,77
2,623364, Note_on_c,0,73,0
2,623392, Note_on_c,0,58,73
2,623400, Note_on_c,0,61,80
2,623400, Note_on_c,0,65,87
2,623400, Note_on_c,0,53,77
2,623464, Note_on_c,0,53,0
2,623464, Note_on_c,0,61,0
2,623468, Note_on_c,0,65,0
2,623480, Note_on_c,0,58,0
2,623480, Note_on_c,0,70,83
2,623564, Note_on_c,0,70,0
2,623600, Note_on_c,0,77,66
2,623600, Note_on_c,0,73,48
2,623604, Note_on_c,0,82,84
2,623660, Note_on_c,0,77,0
2,623668, Note_on_c,0,70,79
2,623672, Note_on_c,0,82,0
2,623676, Note_on_c,0,73,0
2,623724, Note_on_c,0,70,0
2,623764, Note_on_c,0,58,78
2,623764, Note_on_c,0,49,71
2,623764, Note_on_c,0,61,85
2,623772, Note_on_c,0,53,74
2,623844, Note_on_c,0,49,0
2,623848, Note_on_c,0,58,0
2,623852, Note_on_c,0,61,0
2,623852, Note_on_c,0,53,0
2,623856, Note_on_c,0,65,92
2,623940, Note_on_c,0,65,0
2,623960, Note_on_c,0,70,62
2,623968, Note_on_c,0,77,83
2,623972, Note_on_c,0,73,56
2,624040, Note_on_c,0,70,0
2,624048, Note_on_c,0,73,0
2,624052, Note_on_c,0,77,0
2,624056, Note_on_c,0,65,88
2,624112, Note_on_c,0,65,0
2,624140, Note_on_c,0,58,88
2,624140, Control_c,0,64,88
2,624144, Note_on_c,0,46,70
2,624144, Note_on_c,0,53,81
2,624144, Note_on_c,0,49,71
2,624152, Control_c,0,64,0
2,624192, Control_c,0,64,40
2,624200, Control_c,0,64,104
2,624212, Control_c,0,64,127
2,624220, Note_on_c,0,53,0
2,624220, Note_on_c,0,46,0
2,624224, Note_on_c,0,58,0
2,624236, Note_on_c,0,49,0
2,624236, Note_on_c,0,61,82
2,624324, Note_on_c,0,61,0
2,624336, Note_on_c,0,73,84
2,624352, Note_on_c,0,65,69
2,624360, Note_on_c,0,70,69
2,624412, Note_on_c,0,70,0
2,624412, Note_on_c,0,65,0
2,624416, Note_on_c,0,73,0
2,624428, Note_on_c,0,61,73
2,624488, Note_on_c,0,61,0
2,624508, Note_on_c,0,46,77
2,624512, Note_on_c,0,49,81
2,624512, Note_on_c,0,53,84
2,624516, Note_on_c,0,41,70
2,624544, Control_c,0,64,56
2,624552, Control_c,0,64,24
2,624564, Control_c,0,64,56
2,624576, Control_c,0,64,104
2,624588, Control_c,0,64,127
2,624592, Note_on_c,0,58,79
2,624600, Note_on_c,0,53,0
2,624600, Note_on_c,0,46,0
2,624600, Note_on_c,0,49,0
2,624608, Note_on_c,0,41,0
2,624680, Note_on_c,0,58,0
2,624704, Note_on_c,0,70,81
2,624708, Note_on_c,0,65,66
2,624708, Note_on_c,0,61,67
2,624764, Note_on_c,0,70,0
2,624768, Note_on_c,0,65,0
2,624768, Note_on_c,0,58,71
2,624776, Note_on_c,0,61,0
2,624828, Note_on_c,0,58,0
2,624868, Note_on_c,0,49,96
2,624872, Note_on_c,0,37,69
2,624872, Note_on_c,0,41,74
2,624876, Note_on_c,0,46,77
2,624892, Control_c,0,64,104
2,624908, Control_c,0,64,40
2,624944, Control_c,0,64,127
2,624952, Note_on_c,0,53,81
2,624956, Note_on_c,0,46,0
2,624964, Note_on_c,0,37,0
2,624968, Note_on_c,0,41,0
2,624972, Note_on_c,0,49,0
2,625040, Note_on_c,0,53,0
2,625044, Note_on_c,0,58,68
2,625044, Note_on_c,0,61,65
2,625048, Note_on_c,0,65,82
2,625124, Note_on_c,0,61,0
2,625128, Note_on_c,0,58,0
2,625132, Note_on_c,0,65,0
2,625140, Note_on_c,0,53,74
2,625200, Note_on_c,0,53,0
2,625228, Note_on_c,0,46,96
2,625236, Note_on_c,0,34,71
2,625236, Note_on_c,0,37,65
2,625236, Note_on_c,0,41,78
2,625244, Control_c,0,64,56
2,625260, Control_c,0,64,24
2,625272, Control_c,0,64,72
2,625284, Control_c,0,64,127
2,625316, Note_on_c,0,41,0
2,625316, Note_on_c,0,34,0
2,625320, Note_on_c,0,46,0
2,625328, Note_on_c,0,37,0
2,625336, Note_on_c,0,49,81
2,625404, Note_on_c,0,61,77
2,625412, Note_on_c,0,49,0
2,625428, Note_on_c,0,53,51
2,625440, Note_on_c,0,58,76
2,625472, Note_on_c,0,58,0
2,625480, Note_on_c,0,53,0
2,625480, Note_on_c,0,61,0
2,625496, Note_on_c,0,49,79
2,625556, Note_on_c,0,49,0
2,625584, Note_on_c,0,37,77
2,625584, Note_on_c,0,41,78
2,625584, Note_on_c,0,34,69
2,625584, Note_on_c,0,29,69
2,625612, Control_c,0,64,24
2,625624, Control_c,0,64,0
2,625660, Control_c,0,64,40
2,625664, Note_on_c,0,46,78
2,625672, Control_c,0,64,127
2,625728, Note_on_c,0,29,0
2,625744, Note_on_c,0,46,0
2,625752, Note_on_c,0,34,0
2,625752, Note_on_c,0,49,45
2,625768, Note_on_c,0,37,0
2,625776, Note_on_c,0,53,66
2,625784, Note_on_c,0,41,0
2,625832, Note_on_c,0,49,0
2,625848, Note_on_c,0,46,77
2,625852, Note_on_c,0,53,0
2,625928, Note_on_c,0,46,0
2,625956, Note_on_c,0,42,88
2,625960, Note_on_c,0,30,64
2,625960, Note_on_c,0,37,70
2,625960, Note_on_c,0,34,64
2,625988, Control_c,0,64,24
2,626000, Control_c,0,64,0
2,626044, Note_on_c,0,46,77
2,626048, Control_c,0,64,72
2,626060, Control_c,0,64,127
2,626152, Note_on_c,0,34,0
2,626152, Note_on_c,0,30,0
2,626156, Note_on_c,0,46,0
2,626160, Note_on_c,0,49,53
2,626168, Note_on_c,0,37,0
2,626172, Note_on_c,0,52,55
2,626188, Note_on_c,0,42,0
2,626244, Note_on_c,0,49,0
2,626244, Note_on_c,0,46,76
2,626256, Note_on_c,0,52,0
2,626328, Note_on_c,0,46,0
2,626348, Note_on_c,0,41,87
2,626348, Note_on_c,0,34,71
2,626348, Note_on_c,0,37,77
2,626352, Note_on_c,0,29,71
2,626376, Control_c,0,64,104
2,626388, Control_c,0,64,0
2,626420, Note_on_c,0,46,75
2,626460, Control_c,0,64,72
2,626472, Control_c,0,64,127
2,626524, Note_on_c,0,29,0
2,626532, Note_on_c,0,49,61
2,626540, Note_on_c,0,46,0
2,626544, Note_on_c,0,53,64
2,626572, Note_on_c,0,34,0
2,626580, Note_on_c,0,41,0
2,626580, Note_on_c,0,37,0
2,626616, Note_on_c,0,49,0
2,626628, Note_on_c,0,46,73
2,626648, Note_on_c,0,53,0
2,626712, Note_on_c,0,42,89
2,626716, Note_on_c,0,46,0
2,626720, Note_on_c,0,30,65
2,626720, Note_on_c,0,37,64
2,626724, Note_on_c,0,34,55
2,626728, Control_c,0,64,40
2,626740, Control_c,0,64,0
2,626788, Control_c,0,64,56
2,626800, Control_c,0,64,127
2,626804, Note_on_c,0,46,74
2,626840, Note_on_c,0,34,0
2,626840, Note_on_c,0,30,0
2,626848, Note_on_c,0,37,0
2,626876, Note_on_c,0,42,0
2,626912, Note_on_c,0,49,59
2,626920, Note_on_c,0,46,0
2,626920, Note_on_c,0,52,66
2,626988, Note_on_c,0,46,81
2,627004, Note_on_c,0,49,0
2,627020, Note_on_c,0,52,0
2,627072, Note_on_c,0,34,68
2,627076, Note_on_c,0,37,69
2,627080, Note_on_c,0,41,81
2,627080, Note_on_c,0,29,61
2,627084, Note_on_c,0,46,0
2,627092, Control_c,0,64,88
2,627104, Control_c,0,64,0
2,627132, Note_on_c,0,46,71
2,627152, Control_c,0,64,56
2,627164, Control_c,0,64,127
2,627208, Note_on_c,0,41,0
2,627208, Note_on_c,0,37,0
2,627228, Note_on_c,0,34,0
2,627232, Note_on_c,0,46,0
2,627236, Note_on_c,0,49,57
2,627240, Note_on_c,0,29,0
2,627260, Note_on_c,0,53,59
2,627320, Note_on_c,0,49,0
2,627336, Note_on_c,0,46,75
2,627340, Note_on_c,0,53,0
2,627404, Note_on_c,0,46,0
2,627452, Note_on_c,0,34,81
2,627456, Note_on_c,0,36,82
2,627456, Note_on_c,0,30,69
2,627496, Control_c,0,64,56
2,627504, Control_c,0,64,0
2,627548, Note_on_c,0,40,80
2,627564, Control_c,0,64,56
2,627576, Control_c,0,64,127
2,627604, Note_on_c,0,30,0
2,627644, Note_on_c,0,40,0
2,627648, Note_on_c,0,46,46
2,627652, Note_on_c,0,48,67
2,627672, Note_on_c,0,36,0
2,627684, Note_on_c,0,34,0
2,627716, Note_on_c,0,46,0
2,627724, Note_on_c,0,40,78
2,627788, Note_on_c,0,40,0
2,627824, Note_on_c,0,48,0
2,627828, Note_on_c,0,37,85
2,627836, Note_on_c,0,29,74
2,627836, Note_on_c,0,34,74
2,627880, Control_c,0,64,40
2,627896, Control_c,0,64,0
2,627912, Note_on_c,0,41,79
2,627964, Control_c,0,64,88
2,627976, Control_c,0,64,127
2,627992, Note_on_c,0,41,0
2,628008, Note_on_c,0,49,65
2,628012, Note_on_c,0,46,46
2,628064, Note_on_c,0,34,0
2,628080, Note_on_c,0,29,0
2,628080, Note_on_c,0,41,71
2,628084, Note_on_c,0,37,0
2,628092, Note_on_c,0,46,0
2,628104, Note_on_c,0,49,0
2,628156, Note_on_c,0,41,0
2,628196, Note_on_c,0,34,72
2,628200, Note_on_c,0,36,73
2,628204, Note_on_c,0,30,62
2,628224, Control_c,0,64,88
2,628236, Control_c,0,64,0
2,628280, Note_on_c,0,40,78
2,628316, Control_c,0,64,72
2,628328, Control_c,0,64,127
2,628380, Note_on_c,0,40,0
2,628388, Note_on_c,0,48,69
2,628400, Note_on_c,0,46,40
2,628436, Note_on_c,0,46,0
2,628436, Note_on_c,0,30,0
2,628440, Note_on_c,0,36,0
2,628456, Note_on_c,0,40,80
2,628464, Note_on_c,0,34,0
2,628528, Note_on_c,0,40,0
2,628548, Note_on_c,0,48,0
2,628552, Note_on_c,0,37,74
2,628556, Note_on_c,0,29,66
2,628556, Note_on_c,0,34,69
2,628564, Control_c,0,64,104
2,628576, Control_c,0,64,24
2,628588, Control_c,0,64,0
2,628640, Note_on_c,0,41,81
2,628672, Control_c,0,64,56
2,628684, Control_c,0,64,127
2,628720, Note_on_c,0,41,0
2,628740, Note_on_c,0,29,0
2,628740, Note_on_c,0,49,71
2,628744, Note_on_c,0,46,51
2,628748, Note_on_c,0,34,0
2,628760, Note_on_c,0,37,0
2,628796, Note_on_c,0,46,0
2,628800, Note_on_c,0,49,0
2,628812, Note_on_c,0,41,72
2,628860, Note_on_c,0,41,0
2,628888, Control_c,0,64,0
2,628898, Note_on_c,0,28,57
2,628942, Note_on_c,0,28,0
2,628978, Note_on_c,0,40,45
2,629018, Note_on_c,0,40,0
2,629058, Note_on_c,0,29,58
2,629106, Note_on_c,0,29,0
2,629150, Note_on_c,0,41,51
2,629186, Note_on_c,0,41,0
2,629210, Note_on_c,0,28,62
2,629266, Note_on_c,0,28,0
2,629302, Note_on_c,0,40,58
2,629358, Note_on_c,0,40,0
2,629362, Note_on_c,0,29,59
2,629406, Note_on_c,0,29,0
2,629450, Note_on_c,0,41,57
2,629482, Note_on_c,0,41,0
2,629514, Note_on_c,0,32,69
2,629574, Note_on_c,0,32,0
2,629602, Note_on_c,0,44,62
2,629658, Note_on_c,0,44,0
2,629670, Note_on_c,0,33,63
2,629726, Note_on_c,0,33,0
2,629758, Note_on_c,0,45,69
2,629798, Note_on_c,0,45,0
2,629818, Note_on_c,0,32,75
2,629886, Note_on_c,0,32,0
2,629906, Note_on_c,0,44,67
2,629966, Note_on_c,0,44,0
2,629970, Note_on_c,0,33,73
2,630022, Note_on_c,0,33,0
2,630070, Note_on_c,0,45,60
2,630106, Note_on_c,0,45,0
2,630126, Note_on_c,0,35,81
2,630178, Note_on_c,0,35,0
2,630210, Note_on_c,0,47,77
2,630266, Note_on_c,0,47,0
2,630282, Note_on_c,0,36,73
2,630338, Note_on_c,0,36,0
2,630366, Note_on_c,0,48,83
2,630418, Note_on_c,0,48,0
2,630430, Note_on_c,0,35,82
2,630498, Note_on_c,0,35,0
2,630526, Note_on_c,0,47,82
2,630582, Note_on_c,0,36,75
2,630586, Note_on_c,0,47,0
2,630634, Note_on_c,0,36,0
2,630666, Note_on_c,0,48,71
2,630694, Note_on_c,0,48,0
2,630734, Note_on_c,0,40,82
2,630786, Note_on_c,0,40,0
2,630810, Note_on_c,0,52,74
2,630842, Note_on_c,0,52,0
2,630886, Note_on_c,0,41,76
2,630938, Note_on_c,0,41,0
2,630962, Note_on_c,0,53,73
2,631014, Note_on_c,0,53,0
2,631034, Note_on_c,0,40,81
2,631098, Note_on_c,0,40,0
2,631106, Note_on_c,0,52,75
2,631170, Note_on_c,0,52,0
2,631170, Note_on_c,0,41,74
2,631226, Note_on_c,0,41,0
2,631242, Note_on_c,0,53,71
2,631314, Note_on_c,0,53,0
2,631334, Note_on_c,0,32,79
2,631394, Note_on_c,0,32,0
2,631418, Note_on_c,0,56,64
2,631422, Note_on_c,0,44,54
2,631454, Note_on_c,0,44,0
2,631462, Note_on_c,0,56,0
2,631490, Note_on_c,0,33,79
2,631542, Note_on_c,0,33,0
2,631570, Note_on_c,0,45,67
2,631574, Note_on_c,0,57,61
2,631598, Note_on_c,0,45,0
2,631602, Note_on_c,0,57,0
2,631642, Note_on_c,0,32,74
2,631710, Note_on_c,0,32,0
2,631710, Note_on_c,0,44,62
2,631714, Note_on_c,0,56,58
2,631766, Note_on_c,0,44,0
2,631774, Note_on_c,0,56,0
2,631790, Note_on_c,0,33,80
2,631842, Note_on_c,0,33,0
2,631866, Note_on_c,0,45,70
2,631866, Note_on_c,0,57,73
2,631894, Note_on_c,0,45,0
2,631914, Note_on_c,0,57,0
2,631946, Note_on_c,0,35,84
2,632006, Note_on_c,0,35,0
2,632006, Note_on_c,0,47,62
2,632006, Note_on_c,0,59,75
2,632054, Note_on_c,0,47,0
2,632058, Note_on_c,0,59,0
2,632098, Note_on_c,0,36,77
2,632154, Note_on_c,0,36,0
2,632162, Note_on_c,0,60,74
2,632162, Note_on_c,0,48,66
2,632210, Note_on_c,0,48,0
2,632210, Note_on_c,0,60,0
2,632254, Note_on_c,0,35,82
2,632322, Note_on_c,0,35,0
2,632322, Note_on_c,0,59,76
2,632322, Note_on_c,0,47,68
2,632362, Note_on_c,0,47,0
2,632366, Note_on_c,0,59,0
2,632394, Note_on_c,0,36,79
2,632458, Note_on_c,0,36,0
2,632474, Note_on_c,0,48,62
2,632478, Note_on_c,0,60,76
2,632502, Note_on_c,0,48,0
2,632522, Note_on_c,0,60,0
2,632558, Note_on_c,0,40,84
2,632606, Note_on_c,0,40,0
2,632626, Note_on_c,0,64,81
2,632630, Note_on_c,0,52,73
2,632666, Note_on_c,0,52,0
2,632674, Note_on_c,0,64,0
2,632702, Note_on_c,0,41,77
2,632754, Note_on_c,0,41,0
2,632774, Note_on_c,0,53,71
2,632774, Note_on_c,0,65,74
2,632822, Note_on_c,0,65,0
2,632822, Note_on_c,0,53,0
2,632854, Note_on_c,0,40,83
2,632922, Note_on_c,0,40,0
2,632922, Note_on_c,0,64,80
2,632922, Note_on_c,0,52,70
2,632950, Note_on_c,0,52,0
2,632970, Note_on_c,0,64,0
2,632998, Note_on_c,0,41,77
2,633054, Note_on_c,0,41,0
2,633070, Note_on_c,0,65,77
2,633070, Note_on_c,0,53,72
2,633114, Note_on_c,0,53,0
2,633118, Note_on_c,0,65,0
2,633146, Note_on_c,0,44,79
2,633214, Note_on_c,0,44,0
2,633218, Note_on_c,0,68,65
2,633218, Note_on_c,0,56,65
2,633278, Note_on_c,0,56,0
2,633278, Note_on_c,0,68,0
2,633298, Note_on_c,0,45,89
2,633346, Note_on_c,0,45,0
2,633374, Note_on_c,0,69,73
2,633374, Note_on_c,0,57,59
2,633402, Note_on_c,0,57,0
2,633402, Note_on_c,0,69,0
2,633446, Note_on_c,0,44,74
2,633514, Note_on_c,0,68,66
2,633514, Note_on_c,0,56,61
2,633522, Note_on_c,0,44,0
2,633570, Note_on_c,0,56,0
2,633574, Note_on_c,0,68,0
2,633582, Note_on_c,0,45,85
2,633638, Note_on_c,0,45,0
2,633662, Note_on_c,0,69,81
2,633662, Note_on_c,0,57,68
2,633706, Note_on_c,0,57,0
2,633714, Note_on_c,0,69,0
2,633738, Note_on_c,0,47,96
2,633798, Note_on_c,0,47,0
2,633818, Note_on_c,0,59,55
2,633818, Note_on_c,0,71,73
2,633858, Note_on_c,0,71,0
2,633858, Note_on_c,0,59,0
2,633898, Note_on_c,0,48,86
2,633958, Note_on_c,0,48,0
2,633966, Note_on_c,0,72,88
2,633970, Note_on_c,0,60,80
2,634022, Note_on_c,0,60,0
2,634022, Note_on_c,0,72,0
2,634046, Note_on_c,0,47,88
2,634118, Note_on_c,0,47,0
2,634118, Note_on_c,0,71,82
2,634122, Note_on_c,0,59,70
2,634166, Note_on_c,0,59,0
2,634174, Note_on_c,0,71,0
2,634194, Note_on_c,0,48,83
2,634254, Note_on_c,0,48,0
2,634266, Note_on_c,0,72,84
2,634270, Note_on_c,0,60,74
2,634314, Note_on_c,0,60,0
2,634318, Note_on_c,0,72,0
2,634346, Note_on_c,0,52,76
2,634402, Note_on_c,0,52,0
2,634422, Note_on_c,0,76,86
2,634426, Note_on_c,0,64,74
2,634462, Note_on_c,0,64,0
2,634470, Note_on_c,0,76,0
2,634498, Note_on_c,0,53,79
2,634562, Note_on_c,0,53,0
2,634562, Note_on_c,0,77,84
2,634570, Note_on_c,0,65,70
2,634614, Note_on_c,0,65,0
2,634614, Note_on_c,0,77,0
2,634654, Note_on_c,0,52,88
2,634706, Note_on_c,0,76,82
2,634714, Note_on_c,0,64,68
2,634726, Note_on_c,0,52,0
2,634750, Note_on_c,0,64,0
2,634758, Note_on_c,0,76,0
2,634798, Note_on_c,0,53,81
2,634862, Note_on_c,0,53,0
2,634870, Note_on_c,0,77,85
2,634870, Note_on_c,0,65,70
2,634914, Note_on_c,0,65,0
2,634922, Note_on_c,0,77,0
2,634942, Note_on_c,0,56,77
2,635010, Note_on_c,0,56,0
2,635018, Note_on_c,0,68,68
2,635018, Note_on_c,0,80,75
2,635082, Note_on_c,0,68,0
2,635090, Note_on_c,0,80,0
2,635098, Note_on_c,0,57,82
2,635150, Note_on_c,0,57,0
2,635170, Note_on_c,0,81,79
2,635174, Note_on_c,0,69,69
2,635210, Note_on_c,0,69,0
2,635226, Note_on_c,0,81,0
2,635246, Note_on_c,0,56,73
2,635314, Note_on_c,0,80,70
2,635318, Note_on_c,0,68,65
2,635322, Note_on_c,0,56,0
2,635374, Note_on_c,0,68,0
2,635382, Note_on_c,0,80,0
2,635390, Note_on_c,0,57,76
2,635434, Note_on_c,0,57,0
2,635462, Note_on_c,0,81,82
2,635466, Note_on_c,0,69,71
2,635506, Note_on_c,0,69,0
2,635514, Note_on_c,0,81,0
2,635538, Note_on_c,0,59,87
2,635602, Note_on_c,0,59,0
2,635622, Note_on_c,0,71,58
2,635630, Note_on_c,0,83,71
2,635654, Note_on_c,0,71,0
2,635674, Note_on_c,0,83,0
2,635694, Note_on_c,0,60,80
2,635766, Note_on_c,0,60,0
2,635766, Note_on_c,0,84,82
2,635774, Note_on_c,0,72,79
2,635814, Note_on_c,0,84,0
2,635818, Note_on_c,0,72,0
2,635846, Note_on_c,0,59,83
2,635914, Note_on_c,0,83,78
2,635914, Note_on_c,0,71,70
2,635930, Note_on_c,0,59,0
2,635966, Note_on_c,0,71,0
2,635970, Note_on_c,0,83,0
2,636002, Note_on_c,0,60,79
2,636058, Note_on_c,0,84,85
2,636062, Note_on_c,0,72,77
2,636066, Note_on_c,0,60,0
2,636102, Note_on_c,0,72,0
2,636114, Note_on_c,0,84,0
2,636150, Note_on_c,0,64,88
2,636214, Note_on_c,0,64,0
2,636222, Note_on_c,0,88,83
2,636226, Note_on_c,0,76,72
2,636258, Note_on_c,0,76,0
2,636270, Note_on_c,0,88,0
2,636310, Note_on_c,0,65,74
2,636378, Note_on_c,0,89,80
2,636382, Note_on_c,0,65,0
2,636382, Note_on_c,0,77,72
2,636422, Note_on_c,0,89,0
2,636430, Note_on_c,0,77,0
2,636462, Note_on_c,0,59,77
2,636542, Note_on_c,0,59,0
2,636546, Note_on_c,0,83,79
2,636554, Note_on_c,0,71,63
2,636574, Note_on_c,0,71,0
2,636590, Note_on_c,0,83,0
2,636610, Note_on_c,0,60,82
2,636674, Note_on_c,0,60,0
2,636682, Note_on_c,0,84,82
2,636682, Note_on_c,0,72,79
2,636722, Note_on_c,0,72,0
2,636730, Note_on_c,0,84,0
2,636762, Note_on_c,0,64,89
2,636830, Note_on_c,0,64,0
2,636834, Note_on_c,0,88,84
2,636838, Note_on_c,0,76,70
2,636878, Note_on_c,0,76,0
2,636886, Note_on_c,0,88,0
2,636922, Note_on_c,0,65,74
2,636982, Note_on_c,0,89,79
2,636990, Note_on_c,0,77,66
2,637010, Note_on_c,0,65,0
2,637046, Note_on_c,0,77,0
2,637046, Note_on_c,0,89,0
2,637070, Note_on_c,0,59,79
2,637150, Note_on_c,0,59,0
2,637154, Note_on_c,0,83,80
2,637158, Note_on_c,0,71,64
2,637186, Note_on_c,0,71,0
2,637206, Note_on_c,0,83,0
2,637210, Note_on_c,0,60,84
2,637278, Note_on_c,0,60,0
2,637294, Note_on_c,0,84,77
2,637298, Note_on_c,0,72,74
2,637322, Note_on_c,0,72,0
2,637342, Note_on_c,0,84,0
2,637366, Note_on_c,0,64,87
2,637438, Note_on_c,0,88,84
2,637442, Note_on_c,0,64,0
2,637446, Note_on_c,0,76,57
2,637470, Note_on_c,0,76,0
2,637486, Note_on_c,0,88,0
2,637522, Note_on_c,0,65,82
2,637594, Note_on_c,0,89,63
2,637610, Note_on_c,0,65,0
2,637610, Note_on_c,0,88,50
2,637614, Note_on_c,0,77,35
2,637630, Note_on_c,0,89,0
2,637634, Note_on_c,0,88,0
2,637638, Note_on_c,0,77,0
2,637678, Note_on_c,0,62,86
2,637742, Note_on_c,0,86,80
2,637750, Note_on_c,0,74,65
2,637758, Note_on_c,0,62,0
2,637770, Note_on_c,0,74,0
2,637790, Note_on_c,0,86,0
2,637826, Note_on_c,0,63,78
2,637878, Note_on_c,0,87,70
2,637886, Note_on_c,0,75,62
2,637898, Note_on_c,0,63,0
2,637922, Note_on_c,0,75,0
2,637938, Note_on_c,0,87,0
2,637978, Note_on_c,0,60,83
2,638038, Note_on_c,0,84,79
2,638042, Note_on_c,0,72,67
2,638046, Note_on_c,0,60,0
2,638070, Note_on_c,0,72,0
2,638090, Note_on_c,0,84,0
2,638126, Note_on_c,0,61,71
2,638182, Note_on_c,0,85,69
2,638186, Note_on_c,0,73,62
2,638198, Note_on_c,0,61,0
2,638238, Note_on_c,0,73,0
2,638238, Note_on_c,0,85,0
2,638270, Note_on_c,0,59,77
2,638334, Note_on_c,0,83,72
2,638334, Note_on_c,0,71,63
2,638342, Note_on_c,0,59,0
2,638366, Note_on_c,0,71,0
2,638378, Note_on_c,0,83,0
2,638418, Note_on_c,0,60,77
2,638470, Note_on_c,0,60,0
2,638486, Note_on_c,0,84,78
2,638490, Note_on_c,0,72,62
2,638526, Note_on_c,0,72,0
2,638542, Note_on_c,0,84,0
2,638574, Note_on_c,0,58,71
2,638634, Note_on_c,0,58,0
2,638646, Note_on_c,0,82,64
2,638650, Note_on_c,0,70,61
2,638702, Note_on_c,0,70,0
2,638714, Note_on_c,0,82,0
2,638722, Note_on_c,0,60,78
2,638782, Note_on_c,0,60,0
2,638798, Note_on_c,0,84,82
2,638802, Note_on_c,0,72,67
2,638830, Note_on_c,0,72,0
2,638850, Note_on_c,0,84,0
2,638866, Note_on_c,0,61,80
2,638934, Note_on_c,0,61,0
2,638942, Note_on_c,0,85,68
2,638946, Note_on_c,0,73,63
2,639002, Note_on_c,0,73,0
2,639014, Note_on_c,0,85,0
2,639022, Note_on_c,0,60,82
2,639074, Note_on_c,0,60,0
2,639094, Note_on_c,0,84,80
2,639102, Note_on_c,0,72,67
2,639134, Note_on_c,0,72,0
2,639142, Note_on_c,0,84,0
2,639170, Note_on_c,0,63,82
2,639230, Note_on_c,0,63,0
2,639242, Note_on_c,0,87,77
2,639242, Note_on_c,0,75,71
2,639294, Note_on_c,0,75,0
2,639298, Note_on_c,0,87,0
2,639318, Note_on_c,0,61,81
2,639386, Note_on_c,0,61,0
2,639390, Note_on_c,0,85,74
2,639390, Note_on_c,0,73,63
2,639442, Note_on_c,0,73,0
2,639450, Note_on_c,0,85,0
2,639470, Note_on_c,0,60,74
2,639526, Note_on_c,0,84,81
2,639530, Note_on_c,0,60,0
2,639534, Note_on_c,0,72,70
2,639570, Note_on_c,0,72,0
2,639582, Note_on_c,0,84,0
2,639626, Note_on_c,0,58,67
2,639670, Note_on_c,0,58,0
2,639682, Note_on_c,0,82,72
2,639686, Note_on_c,0,70,64
2,639734, Note_on_c,0,70,0
2,639738, Note_on_c,0,82,0
2,639770, Note_on_c,0,56,77
2,639826, Note_on_c,0,56,0
2,639842, Note_on_c,0,80,71
2,639842, Note_on_c,0,68,64
2,639910, Note_on_c,0,68,0
2,639922, Note_on_c,0,80,0
2,639926, Note_on_c,0,57,68
2,639986, Note_on_c,0,57,0
2,640002, Note_on_c,0,81,70
2,640010, Note_on_c,0,69,61
2,640038, Note_on_c,0,69,0
2,640038, Note_on_c,0,81,0
2,640082, Note_on_c,0,52,76
2,640146, Note_on_c,0,52,0
2,640158, Note_on_c,0,76,81
2,640158, Note_on_c,0,64,66
2,640182, Note_on_c,0,76,0
2,640186, Note_on_c,0,64,0
2,640234, Note_on_c,0,53,86
2,640294, Note_on_c,0,53,0
2,640298, Note_on_c,0,65,67
2,640302, Note_on_c,0,77,81
2,640330, Note_on_c,0,65,0
2,640346, Note_on_c,0,77,0
2,640386, Note_on_c,0,56,85
2,640450, Note_on_c,0,56,0
2,640450, Note_on_c,0,68,69
2,640450, Note_on_c,0,80,76
2,640458, Control_c,0,64,24
2,640466, Control_c,0,64,40
2,640514, Note_on_c,0,68,0
2,640522, Note_on_c,0,80,0
2,640538, Note_on_c,0,57,69
2,640546, Control_c,0,64,0
2,640590, Note_on_c,0,57,0
2,640606, Note_on_c,0,81,76
2,640614, Note_on_c,0,69,63
2,640642, Note_on_c,0,69,0
2,640650, Note_on_c,0,81,0
2,640694, Note_on_c,0,52,75
2,640758, Note_on_c,0,52,0
2,640758, Note_on_c,0,76,82
2,640762, Note_on_c,0,64,67
2,640786, Note_on_c,0,64,0
2,640798, Note_on_c,0,76,0
2,640846, Note_on_c,0,53,82
2,640898, Note_on_c,0,53,0
2,640898, Note_on_c,0,65,70
2,640902, Note_on_c,0,77,82
2,640942, Note_on_c,0,65,0
2,640946, Note_on_c,0,77,0
2,640998, Note_on_c,0,52,78
2,641054, Note_on_c,0,76,84
2,641054, Note_on_c,0,64,70
2,641058, Note_on_c,0,52,0
2,641086, Note_on_c,0,64,0
2,641102, Note_on_c,0,76,0
2,641134, Note_on_c,0,53,82
2,641194, Note_on_c,0,77,82
2,641198, Note_on_c,0,53,0
2,641198, Note_on_c,0,65,67
2,641234, Note_on_c,0,65,0
2,641246, Note_on_c,0,77,0
2,641278, Note_on_c,0,58,89
2,641346, Note_on_c,0,82,78
2,641350, Note_on_c,0,58,0
2,641354, Note_on_c,0,70,64
2,641390, Note_on_c,0,70,0
2,641394, Note_on_c,0,82,0
2,641426, Note_on_c,0,53,80
2,641498, Note_on_c,0,77,86
2,641502, Note_on_c,0,53,0
2,641502, Note_on_c,0,65,69
2,641538, Note_on_c,0,65,0
2,641546, Note_on_c,0,77,0
2,641578, Note_on_c,0,51,85
2,641654, Note_on_c,0,51,0
2,641654, Note_on_c,0,63,69
2,641654, Note_on_c,0,75,69
2,641702, Note_on_c,0,63,0
2,641706, Note_on_c,0,75,0
2,641738, Note_on_c,0,49,69
2,641806, Note_on_c,0,49,0
2,641806, Note_on_c,0,73,72
2,641806, Note_on_c,0,61,67
2,641858, Note_on_c,0,61,0
2,641870, Note_on_c,0,48,78
2,641874, Note_on_c,0,73,0
2,641938, Note_on_c,0,48,0
2,641954, Note_on_c,0,72,74
2,641958, Note_on_c,0,60,49
2,641994, Note_on_c,0,72,0
2,642002, Note_on_c,0,60,0
2,642022, Note_on_c,0,46,77
2,642094, Note_on_c,0,58,60
2,642098, Note_on_c,0,70,62
2,642102, Note_on_c,0,46,0
2,642150, Note_on_c,0,58,0
2,642166, Note_on_c,0,70,0
2,642170, Note_on_c,0,48,85
2,642242, Note_on_c,0,48,0
2,642250, Note_on_c,0,60,67
2,642258, Note_on_c,0,72,74
2,642302, Note_on_c,0,72,0
2,642302, Note_on_c,0,60,0
2,642334, Note_on_c,0,49,80
2,642394, Note_on_c,0,49,0
2,642414, Note_on_c,0,73,69
2,642414, Note_on_c,0,61,56
2,642462, Note_on_c,0,61,0
2,642470, Note_on_c,0,73,0
2,642486, Note_on_c,0,47,81
2,642554, Note_on_c,0,47,0
2,642562, Note_on_c,0,59,53
2,642566, Note_on_c,0,71,69
2,642590, Note_on_c,0,59,0
2,642598, Note_on_c,0,71,0
2,642638, Note_on_c,0,48,75
2,642702, Note_on_c,0,48,0
2,642702, Note_on_c,0,72,74
2,642706, Note_on_c,0,60,63
2,642734, Note_on_c,0,60,0
2,642750, Note_on_c,0,72,0
2,642786, Note_on_c,0,49,74
2,642846, Note_on_c,0,73,69
2,642846, Note_on_c,0,61,60
2,642854, Note_on_c,0,49,0
2,642906, Note_on_c,0,61,0
2,642910, Note_on_c,0,73,0
2,642934, Note_on_c,0,48,87
2,643002, Note_on_c,0,48,0
2,643006, Note_on_c,0,72,81
2,643006, Note_on_c,0,60,68
2,643038, Note_on_c,0,60,0
2,643054, Note_on_c,0,72,0
2,643098, Note_on_c,0,54,79
2,643162, Note_on_c,0,54,0
2,643166, Note_on_c,0,66,61
2,643170, Note_on_c,0,78,67
2,643222, Note_on_c,0,66,0
2,643226, Note_on_c,0,78,0
2,643250, Note_on_c,0,53,68
2,643310, Note_on_c,0,53,0
2,643322, Note_on_c,0,65,64
2,643326, Note_on_c,0,77,82
2,643354, Note_on_c,0,65,0
2,643374, Note_on_c,0,77,0
2,643410, Note_on_c,0,58,88
2,643454, Control_c,0,64,24
2,643462, Control_c,0,64,56
2,643466, Note_on_c,0,58,0
2,643478, Control_c,0,64,72
2,643482, Note_on_c,0,70,71
2,643482, Note_on_c,0,82,70
2,643530, Note_on_c,0,70,0
2,643546, Note_on_c,0,82,0
2,643554, Control_c,0,64,56
2,643566, Note_on_c,0,60,78
2,643566, Control_c,0,64,40
2,643582, Control_c,0,64,24
2,643594, Control_c,0,64,0
2,643630, Note_on_c,0,60,0
2,643638, Note_on_c,0,84,82
2,643642, Note_on_c,0,72,67
2,643666, Note_on_c,0,72,0
2,643686, Note_on_c,0,84,0
2,643722, Note_on_c,0,61,77
2,643774, Note_on_c,0,73,73
2,643774, Note_on_c,0,85,71
2,643778, Note_on_c,0,61,0
2,643830, Note_on_c,0,73,0
2,643842, Note_on_c,0,85,0
2,643870, Note_on_c,0,60,79
2,643922, Note_on_c,0,60,0
2,643930, Note_on_c,0,84,84
2,643934, Note_on_c,0,72,74
2,643966, Note_on_c,0,72,0
2,643974, Note_on_c,0,84,0
2,644014, Note_on_c,0,63,81
2,644082, Note_on_c,0,63,0
2,644082, Note_on_c,0,87,80
2,644086, Note_on_c,0,75,73
2,644126, Note_on_c,0,75,0
2,644130, Note_on_c,0,87,0
2,644166, Note_on_c,0,61,80
2,644226, Note_on_c,0,61,0
2,644230, Note_on_c,0,73,71
2,644230, Note_on_c,0,85,75
2,644286, Note_on_c,0,73,0
2,644290, Note_on_c,0,85,0
2,644306, Note_on_c,0,60,74
2,644378, Note_on_c,0,60,0
2,644382, Note_on_c,0,84,81
2,644382, Note_on_c,0,72,70
2,644414, Note_on_c,0,72,0
2,644434, Note_on_c,0,84,0
2,644470, Note_on_c,0,58,71
2,644518, Note_on_c,0,58,0
2,644530, Note_on_c,0,82,72
2,644534, Note_on_c,0,70,65
2,644578, Note_on_c,0,70,0
2,644582, Note_on_c,0,82,0
2,644618, Note_on_c,0,56,85
2,644682, Note_on_c,0,56,0
2,644682, Note_on_c,0,80,69
2,644682, Note_on_c,0,68,68
2,644754, Note_on_c,0,68,0
2,644762, Note_on_c,0,80,0
2,644782, Note_on_c,0,57,57
2,644838, Note_on_c,0,57,0
2,644846, Note_on_c,0,81,73
2,644854, Note_on_c,0,69,56
2,644882, Note_on_c,0,69,0
2,644886, Note_on_c,0,81,0
2,644926, Note_on_c,0,52,73
2,644982, Note_on_c,0,52,0
2,644994, Note_on_c,0,76,79
2,644994, Note_on_c,0,64,63
2,645018, Note_on_c,0,64,0
2,645018, Note_on_c,0,76,0
2,645066, Note_on_c,0,53,85
2,645126, Note_on_c,0,65,62
2,645130, Note_on_c,0,53,0
2,645130, Note_on_c,0,77,78
2,645166, Note_on_c,0,65,0
2,645178, Note_on_c,0,77,0
2,645230, Note_on_c,0,56,81
2,645286, Note_on_c,0,56,0
2,645286, Note_on_c,0,68,64
2,645286, Note_on_c,0,80,69
2,645346, Note_on_c,0,68,0
2,645350, Note_on_c,0,80,0
2,645382, Note_on_c,0,57,63
2,645438, Note_on_c,0,57,0
2,645438, Note_on_c,0,81,74
2,645446, Note_on_c,0,69,63
2,645474, Note_on_c,0,69,0
2,645478, Note_on_c,0,81,0
2,645530, Note_on_c,0,52,77
2,645586, Note_on_c,0,52,0
2,645594, Note_on_c,0,76,82
2,645598, Note_on_c,0,64,66
2,645622, Note_on_c,0,64,0
2,645634, Note_on_c,0,76,0
2,645682, Note_on_c,0,53,85
2,645734, Note_on_c,0,77,84
2,645738, Note_on_c,0,65,71
2,645742, Note_on_c,0,53,0
2,645778, Note_on_c,0,65,0
2,645778, Note_on_c,0,77,0
2,645804, Note_on_c,0,58,88
2,645848, Control_c,0,64,24
2,645856, Control_c,0,64,56
2,645860, Note_on_c,0,58,0
2,645872, Control_c,0,64,72
2,645876, Note_on_c,0,70,71
2,645876, Note_on_c,0,82,70
2,645924, Note_on_c,0,70,0
2,645940, Note_on_c,0,82,0
2,645948, Control_c,0,64,56
2,645960, Note_on_c,0,60,78
2,645960, Control_c,0,64,40
2,645976, Control_c,0,64,24
2,645988, Control_c,0,64,0
2,646024, Note_on_c,0,60,0
2,646032, Note_on_c,0,84,82
2,646036, Note_on_c,0,72,67
2,646060, Note_on_c,0,72,0
2,646080, Note_on_c,0,84,0
2,646116, Note_on_c,0,61,77
2,646168, Note_on_c,0,73,73
2,646168, Note_on_c,0,85,71
2,646172, Note_on_c,0,61,0
2,646224, Note_on_c,0,73,0
2,646236, Note_on_c,0,85,0
2,646264, Note_on_c,0,60,79
2,646316, Note_on_c,0,60,0
2,646324, Note_on_c,0,84,84
2,646328, Note_on_c,0,72,74
2,646360, Note_on_c,0,72,0
2,646368, Note_on_c,0,84,0
2,646408, Note_on_c,0,63,81
2,646476, Note_on_c,0,63,0
2,646476, Note_on_c,0,87,80
2,646480, Note_on_c,0,75,73
2,646520, Note_on_c,0,75,0
2,646524, Note_on_c,0,87,0
2,646560, Note_on_c,0,61,80
2,646620, Note_on_c,0,61,0
2,646624, Note_on_c,0,73,71
2,646624, Note_on_c,0,85,75
2,646680, Note_on_c,0,73,0
2,646684, Note_on_c,0,85,0
2,646700, Note_on_c,0,60,74
2,646772, Note_on_c,0,60,0
2,646776, Note_on_c,0,84,81
2,646776, Note_on_c,0,72,70
2,646808, Note_on_c,0,72,0
2,646828, Note_on_c,0,84,0
2,646864, Note_on_c,0,58,71
2,646912, Note_on_c,0,58,0
2,646924, Note_on_c,0,82,72
2,646928, Note_on_c,0,70,65
2,646972, Note_on_c,0,70,0
2,646976, Note_on_c,0,82,0
2,647001, Note_on_c,0,61,88
2,647045, Control_c,0,64,24
2,647053, Control_c,0,64,56
2,647057, Note_on_c,0,61,0
2,647069, Control_c,0,64,72
2,647073, Note_on_c,0,73,71
2,647073, Note_on_c,0,85,77
2,647121, Note_on_c,0,73,0
2,647137, Note_on_c,0,85,0
2,647145, Control_c,0,64,56
2,647157, Note_on_c,0,62,84
2,647157, Control_c,0,64,40
2,647173, Control_c,0,64,24
2,647185, Control_c,0,64,0
2,647221, Note_on_c,0,62,0
2,647229, Note_on_c,0,86,90
2,647233, Note_on_c,0,74,67
2,647257, Note_on_c,0,74,0
2,647277, Note_on_c,0,86,0
2,647313, Note_on_c,0,63,86
2,647365, Note_on_c,0,75,73
2,647365, Note_on_c,0,87,92
2,647369, Note_on_c,0,63,0
2,647421, Note_on_c,0,75,0
2,647433, Note_on_c,0,87,0
2,647461, Note_on_c,0,62,82
2,647513, Note_on_c,0,62,0
2,647521, Note_on_c,0,86,88
2,647525, Note_on_c,0,74,74
2,647557, Note_on_c,0,74,0
2,647565, Note_on_c,0,86,0
2,647605, Note_on_c,0,67,90
2,647673, Note_on_c,0,67,0
2,647673, Note_on_c,0,91,99
2,647677, Note_on_c,0,79,73
2,647717, Note_on_c,0,79,0
2,647721, Note_on_c,0,91,0
2,647757, Note_on_c,0,65,87
2,647817, Note_on_c,0,65,0
2,647821, Note_on_c,0,77,71
2,647821, Note_on_c,0,89,87
2,647877, Note_on_c,0,77,0
2,647881, Note_on_c,0,89,0
2,647897, Note_on_c,0,63,84
2,647969, Note_on_c,0,63,0
2,647973, Note_on_c,0,87,81
2,647973, Note_on_c,0,75,84
2,648005, Note_on_c,0,75,0
2,648025, Note_on_c,0,87,0
2,648061, Note_on_c,0,62,77
2,648109, Note_on_c,0,62,0
2,648121, Note_on_c,0,86,80
2,648125, Note_on_c,0,74,65
2,648169, Note_on_c,0,74,0
2,648173, Note_on_c,0,86,0
2,648208, Note_on_c,0,60,88
2,648252, Control_c,0,64,24
2,648260, Control_c,0,64,56
2,648264, Note_on_c,0,60,0
2,648276, Control_c,0,64,72
2,648280, Note_on_c,0,72,71
2,648280, Note_on_c,0,84,70
2,648328, Note_on_c,0,72,0
2,648344, Note_on_c,0,84,0
2,648352, Control_c,0,64,56
2,648364, Note_on_c,0,62,78
2,648364, Control_c,0,64,40
2,648380, Control_c,0,64,24
2,648392, Control_c,0,64,0
2,648428, Note_on_c,0,62,0
2,648436, Note_on_c,0,86,82
2,648440, Note_on_c,0,74,67
2,648464, Note_on_c,0,74,0
2,648484, Note_on_c,0,86,0
2,648520, Note_on_c,0,63,77
2,648572, Note_on_c,0,75,73
2,648572, Note_on_c,0,87,71
2,648576, Note_on_c,0,63,0
2,648628, Note_on_c,0,75,0
2,648640, Note_on_c,0,87,0
2,648668, Note_on_c,0,62,79
2,648720, Note_on_c,0,62,0
2,648728, Note_on_c,0,86,84
2,648732, Note_on_c,0,74,74
2,648764, Note_on_c,0,74,0
2,648772, Note_on_c,0,86,0
2,648812, Note_on_c,0,65,81
2,648880, Note_on_c,0,65,0
2,648880, Note_on_c,0,89,80
2,648884, Note_on_c,0,77,73
2,648924, Note_on_c,0,77,0
2,648928, Note_on_c,0,89,0
2,648964, Note_on_c,0,63,80
2,649024, Note_on_c,0,63,0
2,649028, Note_on_c,0,75,71
2,649028, Note_on_c,0,87,75
2,649084, Note_on_c,0,75,0
2,649088, Note_on_c,0,87,0
2,649104, Note_on_c,0,62,74
2,649176, Note_on_c,0,62,0
2,649180, Note_on_c,0,86,81
2,649180, Note_on_c,0,74,70
2,649212, Note_on_c,0,74,0
2,649232, Note_on_c,0,86,0
2,649268, Note_on_c,0,60,71
2,649316, Note_on_c,0,60,0
2,649328, Note_on_c,0,84,72
2,649332, Note_on_c,0,72,65
2,649376, Note_on_c,0,72,0
2,649380, Note_on_c,0,84,0
2,649416, Note_on_c,0,58,85
2,649480, Note_on_c,0,58,0
2,649480, Note_on_c,0,82,69
2,649480, Note_on_c,0,70,68
2,649552, Note_on_c,0,70,0
2,649560, Note_on_c,0,82,0
2,649580, Note_on_c,0,59,57
2,649636, Note_on_c,0,59,0
2,649644, Note_on_c,0,83,73
2,649652, Note_on_c,0,71,56
2,649680, Note_on_c,0,71,0
2,649684, Note_on_c,0,83,0
2,649724, Note_on_c,0,54,73
2,649780, Note_on_c,0,54,0
2,649792, Note_on_c,0,78,79
2,649792, Note_on_c,0,66,63
2,649816, Note_on_c,0,66,0
2,649816, Note_on_c,0,78,0
2,649864, Note_on_c,0,55,85
2,649924, Note_on_c,0,67,62
2,649928, Note_on_c,0,55,0
2,649928, Note_on_c,0,79,78
2,649964, Note_on_c,0,67,0
2,649976, Note_on_c,0,79,0
2,650028, Note_on_c,0,58,81
2,650084, Note_on_c,0,58,0
2,650084, Note_on_c,0,70,64
2,650084, Note_on_c,0,82,69
2,650144, Note_on_c,0,70,0
2,650148, Note_on_c,0,82,0
2,650180, Note_on_c,0,59,63
2,650236, Note_on_c,0,59,0
2,650236, Note_on_c,0,83,74
2,650244, Note_on_c,0,71,63
2,650272, Note_on_c,0,71,0
2,650276, Note_on_c,0,83,0
2,650328, Note_on_c,0,54,77
2,650384, Note_on_c,0,54,0
2,650392, Note_on_c,0,78,82
2,650396, Note_on_c,0,66,66
2,650420, Note_on_c,0,66,0
2,650432, Note_on_c,0,78,0
2,650480, Note_on_c,0,55,85
2,650532, Note_on_c,0,79,84
2,650536, Note_on_c,0,67,71
2,650540, Note_on_c,0,55,0
2,650576, Note_on_c,0,67,0
2,650576, Note_on_c,0,79,0
2,650632, Note_on_c,0,54,80
2,650688, Note_on_c,0,54,0
2,650692, Note_on_c,0,78,84
2,650696, Note_on_c,0,66,72
2,650732, Note_on_c,0,66,0
2,650744, Note_on_c,0,78,0
2,650776, Note_on_c,0,55,86
2,650836, Note_on_c,0,55,0
2,650840, Note_on_c,0,79,86
2,650840, Note_on_c,0,67,66
2,650872, Note_on_c,0,67,0
2,650888, Note_on_c,0,79,0
2,650924, Note_on_c,0,60,88
2,650952, Control_c,0,64,24
2,650964, Control_c,0,64,56
2,650976, Control_c,0,64,72
2,650988, Note_on_c,0,60,0
2,650988, Control_c,0,64,88
2,650996, Note_on_c,0,84,84
2,650996, Note_on_c,0,72,79
2,651024, Note_on_c,0,72,0
2,651040, Note_on_c,0,84,0
2,651052, Control_c,0,64,72
2,651068, Control_c,0,64,56
2,651072, Note_on_c,0,55,77
2,651080, Control_c,0,64,40
2,651092, Control_c,0,64,24
2,651104, Control_c,0,64,0
2,651144, Note_on_c,0,55,0
2,651144, Note_on_c,0,79,85
2,651144, Note_on_c,0,67,74
2,651176, Note_on_c,0,67,0
2,651180, Note_on_c,0,79,0
2,651216, Note_on_c,0,53,78
2,651292, Note_on_c,0,77,73
2,651292, Note_on_c,0,65,73
2,651300, Note_on_c,0,53,0
2,651344, Note_on_c,0,65,0
2,651344, Note_on_c,0,77,0
2,651384, Note_on_c,0,51,60
2,651428, Note_on_c,0,51,0
2,651444, Note_on_c,0,75,70
2,651448, Note_on_c,0,63,64
2,651488, Note_on_c,0,63,0
2,651508, Note_on_c,0,75,0
2,651516, Note_on_c,0,50,76
2,651572, Note_on_c,0,50,0
2,651596, Note_on_c,0,74,70
2,651600, Note_on_c,0,62,56
2,651620, Note_on_c,0,74,0
2,651628, Note_on_c,0,62,0
2,651672, Note_on_c,0,48,71
2,651736, Note_on_c,0,60,54
2,651736, Note_on_c,0,72,56
2,651744, Note_on_c,0,48,0
2,651768, Note_on_c,0,60,0
2,651800, Note_on_c,0,72,0
2,651820, Note_on_c,0,50,65
2,651884, Note_on_c,0,62,61
2,651888, Note_on_c,0,50,0
2,651888, Note_on_c,0,74,62
2,651912, Note_on_c,0,62,0
2,651932, Note_on_c,0,74,0
2,651960, Note_on_c,0,51,83
2,652028, Note_on_c,0,63,65
2,652028, Note_on_c,0,75,76
2,652044, Note_on_c,0,51,0
2,652072, Note_on_c,0,63,0
2,652088, Note_on_c,0,75,0
2,652112, Note_on_c,0,55,90
2,652140, Control_c,0,64,24
2,652152, Control_c,0,64,56
2,652164, Control_c,0,64,88
2,652176, Control_c,0,64,127
2,652184, Note_on_c,0,55,0
2,652188, Note_on_c,0,79,85
2,652192, Note_on_c,0,67,74
2,652232, Note_on_c,0,67,0
2,652232, Note_on_c,0,79,0
2,652272, Note_on_c,0,51,82
2,652280, Control_c,0,64,88
2,652292, Control_c,0,64,72
2,652304, Control_c,0,64,56
2,652316, Control_c,0,64,40
2,652328, Note_on_c,0,51,0
2,652332, Note_on_c,0,75,74
2,652332, Note_on_c,0,63,61
2,652332, Control_c,0,64,24
2,652348, Control_c,0,64,0
2,652368, Note_on_c,0,63,0
2,652384, Note_on_c,0,75,0
2,652420, Note_on_c,0,50,74
2,652480, Note_on_c,0,50,0
2,652488, Note_on_c,0,74,71
2,652496, Note_on_c,0,62,58
2,652524, Note_on_c,0,62,0
2,652524, Note_on_c,0,74,0
2,652576, Note_on_c,0,48,73
2,652632, Note_on_c,0,48,0
2,652644, Note_on_c,0,72,62
2,652644, Note_on_c,0,60,51
2,652680, Note_on_c,0,60,0
2,652680, Note_on_c,0,72,0
2,652732, Note_on_c,0,44,64
2,652792, Note_on_c,0,44,0
2,652796, Note_on_c,0,68,63
2,652804, Note_on_c,0,56,42
2,652836, Note_on_c,0,56,0
2,652860, Note_on_c,0,68,0
2,652872, Note_on_c,0,43,63
2,652936, Note_on_c,0,43,0
2,652944, Note_on_c,0,67,77
2,652952, Note_on_c,0,55,64
2,652980, Note_on_c,0,55,0
2,652996, Note_on_c,0,67,0
2,653028, Note_on_c,0,42,75
2,653092, Note_on_c,0,54,66
2,653092, Note_on_c,0,66,78
2,653096, Note_on_c,0,42,0
2,653120, Note_on_c,0,54,0
2,653128, Note_on_c,0,66,0
2,653172, Note_on_c,0,43,81
2,653236, Note_on_c,0,43,0
2,653244, Note_on_c,0,55,68
2,653244, Note_on_c,0,67,62
2,653272, Note_on_c,0,67,0
2,653276, Note_on_c,0,55,0
2,653320, Note_on_c,0,48,91
2,653376, Control_c,0,64,72
2,653392, Note_on_c,0,48,0
2,653392, Control_c,0,64,127
2,653400, Note_on_c,0,72,73
2,653400, Note_on_c,0,60,64
2,653424, Note_on_c,0,60,0
2,653440, Note_on_c,0,72,0
2,653468, Note_on_c,0,43,79
2,653548, Note_on_c,0,43,0
2,653548, Note_on_c,0,67,75
2,653548, Note_on_c,0,55,68
2,653560, Control_c,0,64,104
2,653568, Note_on_c,0,67,0
2,653576, Note_on_c,0,55,0
2,653584, Control_c,0,64,88
2,653596, Control_c,0,64,72
2,653612, Control_c,0,64,56
2,653624, Control_c,0,64,40
2,653628, Note_on_c,0,41,73
2,653636, Control_c,0,64,24
2,653648, Control_c,0,64,0
2,653696, Note_on_c,0,65,69
2,653704, Note_on_c,0,41,0
2,653704, Note_on_c,0,53,71
2,653740, Note_on_c,0,53,0
2,653752, Note_on_c,0,65,0
2,653780, Note_on_c,0,39,60
2,653840, Note_on_c,0,63,65
2,653848, Note_on_c,0,39,0
2,653848, Note_on_c,0,51,61
2,653884, Note_on_c,0,51,0
2,653908, Note_on_c,0,63,0
2,653916, Note_on_c,0,38,70
2,653980, Note_on_c,0,62,73
2,653988, Note_on_c,0,50,67
2,653992, Note_on_c,0,38,0
2,654032, Note_on_c,0,50,0
2,654040, Note_on_c,0,62,0
2,654068, Note_on_c,0,36,75
2,654104, Control_c,0,64,24
2,654124, Note_on_c,0,60,73
2,654128, Note_on_c,0,48,70
2,654140, Note_on_c,0,36,0
2,654168, Note_on_c,0,48,0
2,654192, Control_c,0,64,0
2,654196, Note_on_c,0,60,0
2,654212, Note_on_c,0,35,76
2,654212, Note_on_c,0,47,70
2,654280, Note_on_c,0,47,0
2,654280, Note_on_c,0,59,69
2,654284, Note_on_c,0,35,0
2,654356, Note_on_c,0,59,0
2,654356, Note_on_c,0,36,82
2,654356, Note_on_c,0,48,70
2,654424, Note_on_c,0,48,0
2,654424, Note_on_c,0,36,0
2,654432, Note_on_c,0,60,76
2,654508, Note_on_c,0,60,0
2,654516, Note_on_c,0,32,68
2,654516, Note_on_c,0,44,68
2,654576, Note_on_c,0,32,0
2,654584, Note_on_c,0,44,0
2,654596, Note_on_c,0,56,74
2,654672, Note_on_c,0,43,74
2,654672, Note_on_c,0,31,68
2,654676, Note_on_c,0,56,0
2,654708, Note_on_c,0,43,0
2,654740, Note_on_c,0,31,0
2,654744, Note_on_c,0,55,79
2,654812, Note_on_c,0,55,0
2,654836, Note_on_c,0,42,78
2,654836, Note_on_c,0,30,68
2,654880, Note_on_c,0,42,0
2,654900, Note_on_c,0,54,80
2,654904, Note_on_c,0,30,0
2,654960, Note_on_c,0,54,0
2,654976, Note_on_c,0,43,77
2,654976, Note_on_c,0,31,68
2,655040, Note_on_c,0,43,0
2,655044, Note_on_c,0,31,0
2,655056, Note_on_c,0,55,78
2,655124, Note_on_c,0,55,0
2,655140, Note_on_c,0,38,79
2,655140, Note_on_c,0,26,68
2,655208, Note_on_c,0,26,0
2,655208, Note_on_c,0,38,0
2,655216, Note_on_c,0,50,68
2,655284, Note_on_c,0,50,0
2,655304, Note_on_c,0,39,82
2,655304, Note_on_c,0,27,68
2,655368, Note_on_c,0,39,0
2,655372, Note_on_c,0,27,0
2,655384, Note_on_c,0,51,69
2,655440, Note_on_c,0,51,0
2,655468, Note_on_c,0,35,82
2,655536, Note_on_c,0,35,0
2,655540, Note_on_c,0,47,81
2,655588, Note_on_c,0,47,0
2,655616, Note_on_c,0,36,75
2,655672, Note_on_c,0,36,0
2,655700, Note_on_c,0,48,64
2,655752, Note_on_c,0,48,0
2,655772, Note_on_c,0,30,74
2,655836, Note_on_c,0,30,0
2,655848, Note_on_c,0,42,66
2,655908, Note_on_c,0,42,0
2,655928, Note_on_c,0,31,75
2,655988, Note_on_c,0,31,0
2,656008, Note_on_c,0,43,68
2,656044, Note_on_c,0,43,0
2,656080, Note_on_c,0,35,74
2,656136, Note_on_c,0,35,0
2,656152, Note_on_c,0,47,76
2,656200, Note_on_c,0,47,0
2,656236, Note_on_c,0,36,63
2,656300, Note_on_c,0,36,0
2,656300, Note_on_c,0,48,65
2,656356, Note_on_c,0,48,0
2,656388, Note_on_c,0,30,60
2,656456, Note_on_c,0,42,63
2,656464, Note_on_c,0,30,0
2,656516, Note_on_c,0,42,0
2,656528, Note_on_c,0,31,74
2,656604, Note_on_c,0,31,0
2,656608, Note_on_c,0,43,76
2,656656, Note_on_c,0,43,0
2,656716, Note_on_c,0,36,65
2,656716, Note_on_c,0,48,75
2,656840, Control_c,0,64,40
2,656856, Control_c,0,64,88
2,656868, Control_c,0,64,127
2,656880, Note_on_c,0,48,0
2,656884, Note_on_c,0,36,0
2,657100, Control_c,0,64,104
2,657124, Control_c,0,64,88
2,657140, Control_c,0,64,56
2,657152, Control_c,0,64,40
2,657176, Control_c,0,64,24
2,657188, Control_c,0,64,0
2,658080, Note_on_c,0,35,71
2,658148, Note_on_c,0,35,0
2,658152, Note_on_c,0,47,71
2,658200, Note_on_c,0,47,0
2,658228, Note_on_c,0,36,75
2,658284, Note_on_c,0,36,0
2,658312, Note_on_c,0,48,64
2,658364, Note_on_c,0,48,0
2,658384, Note_on_c,0,30,74
2,658448, Note_on_c,0,30,0
2,658460, Note_on_c,0,42,66
2,658520, Note_on_c,0,42,0
2,658540, Note_on_c,0,31,75
2,658600, Note_on_c,0,31,0
2,658620, Note_on_c,0,43,68
2,658656, Note_on_c,0,43,0
2,658692, Note_on_c,0,35,74
2,658748, Note_on_c,0,35,0
2,658764, Note_on_c,0,47,76
2,658812, Note_on_c,0,47,0
2,658848, Note_on_c,0,36,63
2,658912, Note_on_c,0,36,0
2,658912, Note_on_c,0,48,65
2,658968, Note_on_c,0,48,0
2,659000, Note_on_c,0,30,60
2,659068, Note_on_c,0,42,63
2,659076, Note_on_c,0,30,0
2,659128, Note_on_c,0,42,0
2,659140, Note_on_c,0,31,74
2,659216, Note_on_c,0,31,0
2,659220, Note_on_c,0,43,76
2,659268, Note_on_c,0,43,0
2,659328, Note_on_c,0,36,61
2,659328, Note_on_c,0,48,67
2,659452, Control_c,0,64,40
2,659468, Control_c,0,64,88
2,659480, Control_c,0,64,127
2,659492, Note_on_c,0,48,0
2,659496, Note_on_c,0,36,0
2,659712, Control_c,0,64,104
2,659736, Control_c,0,64,88
2,659752, Control_c,0,64,56
2,659764, Control_c,0,64,40
2,659788, Control_c,0,64,24
2,659800, Control_c,0,64,0
2,660688, Note_on_c,0,35,66
2,660744, Note_on_c,0,35,0
2,660768, Note_on_c,0,47,66
2,660832, Note_on_c,0,47,0
2,660844, Note_on_c,0,36,68
2,660900, Note_on_c,0,36,0
2,660924, Note_on_c,0,48,69
2,660980, Note_on_c,0,48,0
2,660992, Note_on_c,0,30,64
2,661056, Note_on_c,0,30,0
2,661064, Note_on_c,0,42,56
2,661124, Note_on_c,0,42,0
2,661136, Note_on_c,0,31,66
2,661200, Note_on_c,0,31,0
2,661200, Note_on_c,0,43,68
2,661248, Note_on_c,0,43,0
2,661280, Note_on_c,0,35,66
2,661340, Note_on_c,0,35,0
2,661348, Note_on_c,0,47,67
2,661392, Note_on_c,0,47,0
2,661420, Note_on_c,0,36,69
2,661484, Note_on_c,0,48,65
2,661488, Note_on_c,0,36,0
2,661548, Note_on_c,0,48,0
2,661576, Note_on_c,0,30,60
2,661632, Note_on_c,0,42,62
2,661640, Note_on_c,0,30,0
2,661696, Note_on_c,0,42,0
2,661720, Note_on_c,0,31,63
2,661788, Note_on_c,0,31,0
2,661800, Note_on_c,0,43,68
2,661848, Note_on_c,0,43,0
2,661876, Note_on_c,0,32,60
2,661944, Note_on_c,0,32,0
2,661964, Note_on_c,0,44,63
2,662016, Note_on_c,0,44,0
2,662044, Note_on_c,0,31,66
2,662104, Note_on_c,0,31,0
2,662136, Note_on_c,0,43,68
2,662196, Note_on_c,0,43,0
2,662212, Note_on_c,0,32,59
2,662268, Note_on_c,0,32,0
2,662296, Note_on_c,0,44,56
2,662360, Note_on_c,0,44,0
2,662380, Note_on_c,0,31,68
2,662436, Note_on_c,0,31,0
2,662472, Note_on_c,0,43,65
2,662524, Note_on_c,0,43,0
2,662548, Note_on_c,0,32,61
2,662612, Note_on_c,0,32,0
2,662636, Note_on_c,0,44,59
2,662704, Note_on_c,0,44,0
2,662716, Note_on_c,0,31,66
2,662772, Note_on_c,0,31,0
2,662800, Note_on_c,0,43,66
2,662860, Note_on_c,0,43,0
2,662876, Note_on_c,0,32,61
2,662940, Note_on_c,0,32,0
2,662964, Note_on_c,0,44,60
2,663028, Note_on_c,0,44,0
2,663052, Note_on_c,0,31,63
2,663100, Note_on_c,0,31,0
2,663148, Note_on_c,0,43,66
2,663200, Note_on_c,0,43,0
2,693220, Control_c,0,64,24
2,693232, Control_c,0,64,72
2,693244, Control_c,0,64,127
2,693288, Note_on_c,0,38,47
2,693400, Note_on_c,0,38,0
2,693432, Note_on_c,0,45,48
2,693528, Note_on_c,0,45,0
2,693544, Note_on_c,0,49,56
2,693640, Note_on_c,0,49,0
2,693652, Note_on_c,0,50,62
2,693692, Note_on_c,0,50,0
2,693768, Note_on_c,0,52,64
2,693828, Note_on_c,0,52,0
2,693880, Note_on_c,0,53,59
2,693960, Note_on_c,0,53,0
2,693984, Note_on_c,0,57,58
2,694092, Note_on_c,0,62,68
2,694108, Note_on_c,0,57,0
2,694136, Note_on_c,0,62,0
2,694200, Note_on_c,0,64,73
2,694264, Note_on_c,0,64,0
2,694312, Note_on_c,0,65,63
2,694380, Note_on_c,0,65,0
2,694420, Note_on_c,0,69,69
2,694520, Note_on_c,0,69,0
2,694528, Note_on_c,0,74,73
2,694584, Note_on_c,0,74,0
2,694704, Note_on_c,0,46,58
2,694708, Note_on_c,0,75,81
2,694736, Control_c,0,64,88
2,694748, Control_c,0,64,0
2,694816, Note_on_c,0,72,68
2,694824, Control_c,0,64,88
2,694836, Control_c,0,64,127
2,694888, Note_on_c,0,75,0
2,694900, Note_on_c,0,67,48
2,694928, Note_on_c,0,72,0
2,694964, Note_on_c,0,67,0
2,694964, Note_on_c,0,63,63
2,695032, Note_on_c,0,63,0
2,695072, Note_on_c,0,71,82
2,695164, Note_on_c,0,67,56
2,695236, Note_on_c,0,63,57
2,695300, Note_on_c,0,46,0
2,695300, Note_on_c,0,62,55
2,695308, Note_on_c,0,67,0
2,695312, Note_on_c,0,63,0
2,695368, Note_on_c,0,62,0
2,695388, Note_on_c,0,60,55
2,695444, Note_on_c,0,71,0
2,695452, Note_on_c,0,60,0
2,695480, Note_on_c,0,55,56
2,695560, Note_on_c,0,55,0
2,695580, Note_on_c,0,51,54
2,695644, Note_on_c,0,51,0
2,695688, Note_on_c,0,48,52
2,695748, Note_on_c,0,48,0
2,695772, Note_on_c,0,72,74
2,695772, Note_on_c,0,46,57
2,695884, Note_on_c,0,67,47
2,695952, Note_on_c,0,63,58
2,695964, Note_on_c,0,46,0
2,695984, Note_on_c,0,72,0
2,695996, Note_on_c,0,67,0
2,696012, Note_on_c,0,60,69
2,696020, Note_on_c,0,63,0
2,696056, Note_on_c,0,60,0
2,696144, Note_on_c,0,79,85
2,696172, Note_on_c,0,45,58
2,696200, Control_c,0,64,88
2,696216, Control_c,0,64,24
2,696228, Control_c,0,64,0
2,696248, Note_on_c,0,75,64
2,696300, Control_c,0,64,88
2,696312, Control_c,0,64,127
2,696340, Note_on_c,0,72,64
2,696372, Note_on_c,0,79,0
2,696392, Note_on_c,0,75,0
2,696400, Note_on_c,0,72,0
2,696404, Note_on_c,0,67,68
2,696436, Note_on_c,0,45,0
2,696488, Note_on_c,0,67,0
2,696520, Note_on_c,0,74,87
2,696604, Note_on_c,0,72,70
2,696616, Note_on_c,0,74,0
2,696684, Note_on_c,0,67,56
2,696704, Note_on_c,0,72,0
2,696760, Note_on_c,0,67,0
2,696768, Note_on_c,0,63,56
2,696864, Note_on_c,0,63,0
2,696864, Note_on_c,0,60,69
2,696952, Note_on_c,0,60,0
2,696976, Note_on_c,0,55,39
2,697032, Note_on_c,0,51,61
2,697036, Note_on_c,0,55,0
2,697100, Note_on_c,0,51,0
2,697120, Note_on_c,0,48,57
2,697204, Note_on_c,0,48,0
2,697204, Note_on_c,0,45,55
2,697220, Note_on_c,0,75,81
2,697280, Note_on_c,0,45,0
2,697312, Note_on_c,0,72,67
2,697368, Note_on_c,0,75,0
2,697408, Note_on_c,0,72,0
2,697416, Note_on_c,0,67,49
2,697460, Note_on_c,0,67,0
2,697468, Note_on_c,0,63,60
2,697504, Note_on_c,0,63,0
2,697580, Note_on_c,0,82,86
2,697608, Note_on_c,0,43,48
2,697620, Control_c,0,64,104
2,697632, Control_c,0,64,24
2,697644, Control_c,0,64,0
2,697692, Note_on_c,0,75,71
2,697708, Control_c,0,64,127
2,697716, Note_on_c,0,82,0
2,697772, Note_on_c,0,43,0
2,697772, Note_on_c,0,72,55
2,697796, Note_on_c,0,75,0
2,697828, Note_on_c,0,72,0
2,697844, Note_on_c,0,70,64
2,697916, Note_on_c,0,70,0
2,697928, Note_on_c,0,81,87
2,698040, Note_on_c,0,67,51
2,698116, Note_on_c,0,81,0
2,698124, Note_on_c,0,67,0
2,698128, Note_on_c,0,63,48
2,698184, Note_on_c,0,63,0
2,698200, Note_on_c,0,60,52
2,698288, Note_on_c,0,60,0
2,698300, Note_on_c,0,54,57
2,698300, Note_on_c,0,84,87
2,698308, Control_c,0,64,104
2,698320, Control_c,0,64,0
2,698384, Control_c,0,64,104
2,698388, Note_on_c,0,84,0
2,698396, Control_c,0,64,127
2,698408, Note_on_c,0,75,69
2,698496, Note_on_c,0,75,0
2,698500, Note_on_c,0,72,66
2,698564, Note_on_c,0,72,0
2,698564, Note_on_c,0,70,65
2,698668, Note_on_c,0,82,80
2,698708, Note_on_c,0,70,0
2,698728, Note_on_c,0,54,0
2,698784, Note_on_c,0,66,51
2,698864, Note_on_c,0,66,0
2,698868, Note_on_c,0,63,45
2,698872, Note_on_c,0,82,0
2,698924, Note_on_c,0,63,0
2,698944, Note_on_c,0,60,54
2,699024, Note_on_c,0,60,0
2,699036, Note_on_c,0,81,83
2,699056, Control_c,0,64,40
2,699060, Note_on_c,0,53,58
2,699068, Control_c,0,64,0
2,699132, Control_c,0,64,72
2,699144, Control_c,0,64,127
2,699152, Note_on_c,0,75,70
2,699164, Note_on_c,0,81,0
2,699220, Note_on_c,0,53,0
2,699240, Note_on_c,0,72,65
2,699240, Note_on_c,0,60,51
2,699296, Note_on_c,0,75,0
2,699304, Note_on_c,0,72,0
2,699328, Note_on_c,0,69,63
2,699332, Note_on_c,0,60,0
2,699352, Note_on_c,0,65,49
2,699408, Note_on_c,0,69,0
2,699416, Note_on_c,0,65,0
2,699420, Note_on_c,0,79,83
2,699432, Control_c,0,64,56
2,699444, Control_c,0,64,0
2,699456, Note_on_c,0,55,54
2,699480, Control_c,0,64,56
2,699492, Control_c,0,64,127
2,699512, Note_on_c,0,75,68
2,699532, Note_on_c,0,79,0
2,699572, Note_on_c,0,55,0
2,699588, Note_on_c,0,60,49
2,699604, Note_on_c,0,72,66
2,699656, Note_on_c,0,75,0
2,699664, Note_on_c,0,72,0
2,699668, Note_on_c,0,60,0
2,699684, Note_on_c,0,63,35
2,699688, Note_on_c,0,67,46
2,699740, Note_on_c,0,63,0
2,699756, Note_on_c,0,67,0
2,699780, Note_on_c,0,77,86
2,699792, Control_c,0,64,24
2,699808, Note_on_c,0,56,50
2,699808, Control_c,0,64,0
2,699856, Control_c,0,64,104
2,699868, Control_c,0,64,127
2,699876, Note_on_c,0,77,0
2,699876, Note_on_c,0,71,55
2,699952, Note_on_c,0,68,61
2,699960, Note_on_c,0,56,0
2,699960, Note_on_c,0,59,42
2,699992, Note_on_c,0,71,0
2,700008, Note_on_c,0,59,0
2,700032, Note_on_c,0,68,0
2,700040, Note_on_c,0,62,42
2,700044, Note_on_c,0,65,65
2,700064, Note_on_c,0,62,0
2,700104, Note_on_c,0,65,0
2,700148, Note_on_c,0,72,85
2,700164, Note_on_c,0,45,66
2,700180, Control_c,0,64,56
2,700196, Control_c,0,64,0
2,700240, Note_on_c,0,64,61
2,700244, Control_c,0,64,56
2,700260, Control_c,0,64,127
2,700300, Note_on_c,0,64,0
2,700324, Note_on_c,0,63,60
2,700324, Note_on_c,0,53,55
2,700348, Note_on_c,0,72,0
2,700360, Note_on_c,0,45,0
2,700396, Note_on_c,0,63,0
2,700420, Note_on_c,0,53,0
2,700424, Note_on_c,0,60,68
2,700476, Note_on_c,0,60,0
2,700536, Note_on_c,0,74,82
2,700548, Note_on_c,0,46,67
2,700560, Control_c,0,64,88
2,700572, Control_c,0,64,0
2,700648, Control_c,0,64,72
2,700652, Note_on_c,0,53,59
2,700656, Control_c,0,64,127
2,700660, Note_on_c,0,46,0
2,700704, Note_on_c,0,53,0
2,700720, Note_on_c,0,58,51
2,700784, Note_on_c,0,58,0
2,700812, Note_on_c,0,74,0
2,700816, Note_on_c,0,62,59
2,700844, Note_on_c,0,62,0
2,700900, Note_on_c,0,74,82
2,700964, Note_on_c,0,62,59
2,701056, Note_on_c,0,65,59
2,701080, Note_on_c,0,62,0
2,701080, Note_on_c,0,74,0
2,701140, Note_on_c,0,65,0
2,701144, Note_on_c,0,70,64
2,701188, Note_on_c,0,70,0
2,701276, Note_on_c,0,79,84
2,701288, Note_on_c,0,51,63
2,701336, Control_c,0,64,88
2,701348, Control_c,0,64,0
2,701408, Note_on_c,0,55,51
2,701420, Control_c,0,64,72
2,701432, Note_on_c,0,51,0
2,701432, Control_c,0,64,127
2,701488, Note_on_c,0,59,46
2,701492, Note_on_c,0,55,0
2,701544, Note_on_c,0,59,0
2,701560, Note_on_c,0,62,53
2,701636, Note_on_c,0,63,52
2,701644, Note_on_c,0,62,0
2,701704, Note_on_c,0,79,0
2,701716, Note_on_c,0,63,0
2,701720, Note_on_c,0,67,55
2,701800, Note_on_c,0,71,55
2,701824, Note_on_c,0,67,0
2,701880, Note_on_c,0,75,57
2,701884, Note_on_c,0,71,0
2,701960, Note_on_c,0,75,0
2,701972, Note_on_c,0,79,71
2,702052, Note_on_c,0,75,56
2,702080, Note_on_c,0,79,0
2,702136, Note_on_c,0,71,59
2,702156, Note_on_c,0,75,0
2,702196, Note_on_c,0,71,0
2,702212, Note_on_c,0,67,59
2,702284, Note_on_c,0,67,0
2,702312, Note_on_c,0,74,80
2,702328, Note_on_c,0,62,46
2,702332, Note_on_c,0,55,47
2,702336, Control_c,0,64,72
2,702344, Note_on_c,0,59,35
2,702352, Control_c,0,64,0
2,702400, Control_c,0,64,56
2,702404, Note_on_c,0,71,59
2,702412, Control_c,0,64,127
2,702428, Note_on_c,0,62,0
2,702428, Note_on_c,0,74,0
2,702448, Note_on_c,0,59,0
2,702460, Note_on_c,0,55,0
2,702488, Note_on_c,0,67,61
2,702512, Note_on_c,0,71,0
2,702560, Note_on_c,0,67,0
2,702568, Note_on_c,0,62,61
2,702600, Note_on_c,0,62,0
2,702684, Note_on_c,0,79,80
2,702696, Note_on_c,0,51,49
2,702700, Note_on_c,0,60,49
2,702712, Note_on_c,0,55,44
2,702736, Control_c,0,64,0
2,702784, Note_on_c,0,75,67
2,702800, Control_c,0,64,56
2,702812, Control_c,0,64,127
2,702844, Note_on_c,0,79,0
2,702876, Note_on_c,0,72,64
2,702880, Note_on_c,0,55,0
2,702884, Note_on_c,0,60,0
2,702920, Note_on_c,0,51,0
2,702928, Note_on_c,0,75,0
2,702940, Note_on_c,0,72,0
2,702944, Note_on_c,0,67,64
2,703000, Note_on_c,0,67,0
2,703036, Note_on_c,0,69,76
2,703048, Note_on_c,0,51,52
2,703116, Note_on_c,0,69,0
2,703140, Note_on_c,0,67,59
2,703204, Note_on_c,0,67,0
2,703216, Note_on_c,0,60,58
2,703248, Note_on_c,0,51,0
2,703288, Note_on_c,0,60,0
2,703304, Note_on_c,0,57,56
2,703364, Note_on_c,0,57,0
2,703412, Note_on_c,0,74,82
2,703440, Note_on_c,0,50,54
2,703476, Control_c,0,64,88
2,703488, Control_c,0,64,0
2,703508, Note_on_c,0,70,64
2,703512, Note_on_c,0,74,0
2,703552, Control_c,0,64,56
2,703564, Control_c,0,64,127
2,703588, Note_on_c,0,66,59
2,703624, Note_on_c,0,70,0
2,703660, Note_on_c,0,66,0
2,703676, Note_on_c,0,62,44
2,703740, Note_on_c,0,62,0
2,703764, Note_on_c,0,50,0
2,703772, Note_on_c,0,70,73
2,703780, Note_on_c,0,52,54
2,703852, Note_on_c,0,66,54
2,703872, Note_on_c,0,52,0
2,703884, Note_on_c,0,70,0
2,703932, Note_on_c,0,62,55
2,703944, Note_on_c,0,66,0
2,704000, Note_on_c,0,62,0
2,704004, Note_on_c,0,60,57
2,704080, Note_on_c,0,60,0
2,704128, Note_on_c,0,66,74
2,704152, Note_on_c,0,57,47
2,704156, Control_c,0,64,0
2,704164, Note_on_c,0,43,35
2,704168, Note_on_c,0,50,41
2,704232, Control_c,0,64,127
2,704236, Note_on_c,0,62,48
2,704308, Note_on_c,0,60,65
2,704320, Note_on_c,0,66,0
2,704332, Note_on_c,0,57,0
2,704356, Note_on_c,0,62,0
2,704392, Note_on_c,0,60,0
2,704392, Note_on_c,0,54,59
2,704440, Note_on_c,0,54,0
2,704492, Note_on_c,0,67,74
2,704496, Note_on_c,0,55,59
2,704532, Control_c,0,64,40
2,704544, Control_c,0,64,0
2,704556, Control_c,0,64,40
2,704560, Note_on_c,0,67,0
2,704568, Control_c,0,64,88
2,704580, Control_c,0,64,127
2,704588, Note_on_c,0,62,66
2,704672, Note_on_c,0,62,0
2,704680, Note_on_c,0,43,0
2,704684, Note_on_c,0,67,64
2,704688, Note_on_c,0,55,0
2,704720, Note_on_c,0,50,0
2,704756, Note_on_c,0,67,0
2,704776, Note_on_c,0,70,55
2,704868, Note_on_c,0,70,0
2,704884, Control_c,0,64,104
2,704888, Note_on_c,0,74,84
2,704896, Control_c,0,64,0
2,704908, Note_on_c,0,41,55
2,704996, Control_c,0,64,88
2,705008, Note_on_c,0,50,63
2,705008, Control_c,0,64,127
2,705016, Note_on_c,0,41,0
2,705080, Note_on_c,0,50,0
2,705120, Note_on_c,0,53,42
2,705188, Note_on_c,0,56,53
2,705208, Note_on_c,0,53,0
2,705244, Note_on_c,0,74,0
2,705264, Note_on_c,0,56,0
2,705276, Note_on_c,0,59,51
2,705288, Note_on_c,0,71,77
2,705300, Note_on_c,0,59,0
2,705368, Note_on_c,0,71,0
2,705372, Note_on_c,0,62,59
2,705444, Note_on_c,0,62,0
2,705460, Note_on_c,0,64,62
2,705544, Note_on_c,0,64,0
2,705560, Note_on_c,0,65,57
2,705632, Note_on_c,0,65,0
2,705636, Note_on_c,0,68,61
2,705724, Note_on_c,0,65,57
2,705728, Note_on_c,0,68,0
2,705788, Note_on_c,0,65,0
2,705808, Note_on_c,0,64,55
2,705864, Note_on_c,0,64,0
2,705920, Note_on_c,0,62,55
2,705964, Note_on_c,0,62,0
2,706032, Note_on_c,0,57,45
2,706032, Note_on_c,0,63,51
2,706032, Note_on_c,0,72,66
2,706044, Note_on_c,0,53,50
2,706084, Control_c,0,64,24
2,706096, Control_c,0,64,0
2,706140, Note_on_c,0,60,59
2,706160, Control_c,0,64,127
2,706196, Note_on_c,0,63,0
2,706200, Note_on_c,0,53,0
2,706216, Note_on_c,0,57,0
2,706216, Note_on_c,0,60,0
2,706244, Note_on_c,0,64,52
2,706316, Note_on_c,0,72,0
2,706328, Note_on_c,0,64,0
2,706344, Note_on_c,0,65,66
2,706376, Note_on_c,0,65,0
2,706516, Note_on_c,0,75,80
2,706548, Note_on_c,0,46,61
2,706548, Control_c,0,64,88
2,706560, Control_c,0,64,0
2,706648, Note_on_c,0,72,58
2,706648, Control_c,0,64,127
2,706704, Note_on_c,0,67,43
2,706716, Note_on_c,0,75,0
2,706748, Note_on_c,0,72,0
2,706772, Note_on_c,0,67,0
2,706784, Note_on_c,0,63,57
2,706848, Note_on_c,0,63,0
2,706884, Note_on_c,0,71,73
2,706972, Note_on_c,0,67,36
2,707044, Note_on_c,0,63,52
2,707084, Note_on_c,0,46,0
2,707104, Note_on_c,0,67,0
2,707116, Note_on_c,0,63,0
2,707124, Note_on_c,0,62,43
2,707164, Note_on_c,0,62,0
2,707208, Note_on_c,0,60,60
2,707300, Note_on_c,0,60,0
2,707316, Note_on_c,0,55,47
2,707388, Note_on_c,0,51,50
2,707392, Note_on_c,0,55,0
2,707468, Note_on_c,0,51,0
2,707480, Note_on_c,0,48,58
2,707504, Note_on_c,0,71,0
2,707568, Note_on_c,0,48,0
2,707584, Note_on_c,0,46,48
2,707588, Note_on_c,0,72,84
2,707704, Note_on_c,0,67,51
2,707732, Note_on_c,0,72,0
2,707776, Note_on_c,0,63,54
2,707808, Note_on_c,0,46,0
2,707824, Note_on_c,0,67,0
2,707848, Note_on_c,0,63,0
2,707848, Note_on_c,0,60,64
2,707876, Note_on_c,0,60,0
2,707968, Note_on_c,0,79,87
2,707992, Note_on_c,0,45,55
2,708040, Control_c,0,64,88
2,708052, Control_c,0,64,0
2,708076, Note_on_c,0,75,64
2,708128, Control_c,0,64,127
2,708168, Note_on_c,0,72,61
2,708204, Note_on_c,0,79,0
2,708224, Note_on_c,0,75,0
2,708240, Note_on_c,0,67,62
2,708244, Note_on_c,0,72,0
2,708312, Note_on_c,0,67,0
2,708316, Note_on_c,0,45,0
2,708340, Note_on_c,0,74,82
2,708424, Note_on_c,0,72,74
2,708436, Note_on_c,0,74,0
2,708496, Note_on_c,0,67,53
2,708528, Note_on_c,0,72,0
2,708580, Note_on_c,0,63,51
2,708588, Note_on_c,0,67,0
2,708680, Note_on_c,0,60,66
2,708768, Note_on_c,0,60,0
2,708788, Note_on_c,0,55,41
2,708836, Note_on_c,0,55,0
2,708840, Note_on_c,0,51,61
2,708928, Note_on_c,0,51,0
2,708940, Note_on_c,0,48,59
2,709000, Note_on_c,0,45,59
2,709016, Note_on_c,0,48,0
2,709032, Note_on_c,0,75,82
2,709080, Note_on_c,0,45,0
2,709080, Note_on_c,0,63,0
2,709116, Note_on_c,0,72,72
2,709184, Note_on_c,0,75,0
2,709200, Note_on_c,0,67,58
2,709220, Note_on_c,0,72,0
2,709260, Note_on_c,0,63,56
2,709268, Note_on_c,0,67,0
2,709288, Note_on_c,0,63,0
2,709384, Note_on_c,0,82,84
2,709400, Note_on_c,0,70,71
2,709412, Note_on_c,0,43,59
2,709428, Control_c,0,64,88
2,709444, Control_c,0,64,0
2,709504, Control_c,0,64,72
2,709516, Control_c,0,64,127
2,709544, Note_on_c,0,82,0
2,709576, Note_on_c,0,75,67
2,709584, Note_on_c,0,43,0
2,709608, Note_on_c,0,70,0
2,709660, Note_on_c,0,72,71
2,709684, Note_on_c,0,75,0
2,709744, Note_on_c,0,72,0
2,709764, Note_on_c,0,81,86
2,709768, Note_on_c,0,69,74
2,709816, Note_on_c,0,69,0
2,709860, Note_on_c,0,67,59
2,709864, Note_on_c,0,81,0
2,709936, Note_on_c,0,63,60
2,709956, Note_on_c,0,67,0
2,710012, Note_on_c,0,60,66
2,710028, Note_on_c,0,63,0
2,710064, Note_on_c,0,60,0
2,710144, Note_on_c,0,86,97
2,710152, Note_on_c,0,74,70
2,710164, Note_on_c,0,54,57
2,710172, Note_on_c,0,42,59
2,710216, Control_c,0,64,72
2,710232, Control_c,0,64,0
2,710292, Note_on_c,0,74,0
2,710292, Control_c,0,64,104
2,710304, Control_c,0,64,127
2,710316, Note_on_c,0,81,61
2,710392, Note_on_c,0,86,0
2,710392, Note_on_c,0,42,0
2,710404, Note_on_c,0,74,60
2,710408, Note_on_c,0,81,0
2,710412, Note_on_c,0,54,0
2,710476, Note_on_c,0,74,0
2,710504, Note_on_c,0,84,86
2,710504, Note_on_c,0,72,73
2,710616, Note_on_c,0,62,63
2,710632, Note_on_c,0,84,0
2,710676, Note_on_c,0,72,0
2,710712, Note_on_c,0,62,0
2,710716, Note_on_c,0,57,53
2,710780, Note_on_c,0,57,0
2,710788, Note_on_c,0,54,56
2,710848, Note_on_c,0,54,0
2,710880, Note_on_c,0,82,80
2,710888, Note_on_c,0,70,66
2,710892, Note_on_c,0,55,69
2,710892, Control_c,0,64,56
2,710904, Control_c,0,64,0
2,710960, Control_c,0,64,127
2,710984, Note_on_c,0,79,72
2,710992, Note_on_c,0,70,0
2,711052, Note_on_c,0,82,0
2,711060, Note_on_c,0,74,64
2,711060, Note_on_c,0,50,51
2,711060, Note_on_c,0,43,56
2,711072, Note_on_c,0,55,0
2,711100, Note_on_c,0,43,0
2,711128, Note_on_c,0,79,0
2,711132, Note_on_c,0,50,0
2,711140, Note_on_c,0,74,0
2,711148, Note_on_c,0,70,68
2,711212, Note_on_c,0,70,0
2,711236, Note_on_c,0,78,84
2,711236, Note_on_c,0,66,67
2,711240, Note_on_c,0,57,59
2,711260, Control_c,0,64,40
2,711272, Control_c,0,64,24
2,711284, Control_c,0,64,72
2,711296, Control_c,0,64,127
2,711324, Note_on_c,0,66,0
2,711352, Note_on_c,0,74,69
2,711404, Note_on_c,0,57,0
2,711432, Note_on_c,0,69,63
2,711432, Note_on_c,0,50,54
2,711432, Note_on_c,0,45,57
2,711468, Note_on_c,0,78,0
2,711492, Note_on_c,0,74,0
2,711496, Note_on_c,0,45,0
2,711504, Note_on_c,0,69,0
2,711508, Note_on_c,0,66,65
2,711544, Note_on_c,0,50,0
2,711556, Note_on_c,0,66,0
2,711596, Control_c,0,64,88
2,711600, Note_on_c,0,79,89
2,711600, Note_on_c,0,67,70
2,711608, Note_on_c,0,58,56
2,711608, Control_c,0,64,0
2,711648, Control_c,0,64,56
2,711656, Control_c,0,64,127
2,711700, Note_on_c,0,75,71
2,711716, Note_on_c,0,67,0
2,711740, Note_on_c,0,79,0
2,711776, Note_on_c,0,50,54
2,711776, Note_on_c,0,46,54
2,711780, Note_on_c,0,74,69
2,711836, Note_on_c,0,58,0
2,711844, Note_on_c,0,75,0
2,711852, Note_on_c,0,46,0
2,711852, Note_on_c,0,74,0
2,711856, Note_on_c,0,67,58
2,711880, Note_on_c,0,50,0
2,711908, Note_on_c,0,67,0
2,711960, Note_on_c,0,74,86
2,711960, Note_on_c,0,62,69
2,711964, Note_on_c,0,59,57
2,711976, Control_c,0,64,104
2,711996, Control_c,0,64,0
2,712036, Note_on_c,0,62,0
2,712040, Note_on_c,0,68,62
2,712048, Control_c,0,64,56
2,712060, Control_c,0,64,127
2,712132, Note_on_c,0,59,0
2,712152, Note_on_c,0,67,59
2,712152, Note_on_c,0,50,55
2,712152, Note_on_c,0,47,53
2,712164, Note_on_c,0,68,0
2,712236, Note_on_c,0,62,60
2,712244, Note_on_c,0,50,0
2,712244, Note_on_c,0,74,0
2,712248, Note_on_c,0,47,0
2,712288, Note_on_c,0,62,0
2,712344, Note_on_c,0,67,0
2,712348, Note_on_c,0,75,81
2,712356, Note_on_c,0,63,55
2,712372, Note_on_c,0,67,52
2,712388, Note_on_c,0,48,61
2,712412, Control_c,0,64,40
2,712424, Control_c,0,64,0
2,712464, Note_on_c,0,51,58
2,712484, Control_c,0,64,127
2,712488, Note_on_c,0,67,0
2,712492, Note_on_c,0,48,0
2,712532, Note_on_c,0,63,0
2,712556, Note_on_c,0,51,0
2,712560, Note_on_c,0,55,55
2,712576, Note_on_c,0,75,0
2,712592, Note_on_c,0,55,0
2,712628, Note_on_c,0,60,60
2,712712, Note_on_c,0,75,90
2,712724, Note_on_c,0,60,0
2,712728, Note_on_c,0,63,46
2,712768, Note_on_c,0,63,0
2,712800, Note_on_c,0,67,74
2,712820, Note_on_c,0,75,0
2,712892, Note_on_c,0,72,74
2,712904, Note_on_c,0,67,0
2,712956, Note_on_c,0,75,78
2,712984, Note_on_c,0,72,0
2,713036, Note_on_c,0,75,0
2,713068, Note_on_c,0,81,89
2,713076, Note_on_c,0,69,67
2,713076, Note_on_c,0,72,69
2,713100, Note_on_c,0,46,60
2,713112, Control_c,0,64,104
2,713124, Control_c,0,64,0
2,713176, Note_on_c,0,46,0
2,713196, Note_on_c,0,48,62
2,713200, Control_c,0,64,88
2,713212, Control_c,0,64,127
2,713252, Note_on_c,0,51,57
2,713280, Note_on_c,0,48,0
2,713316, Note_on_c,0,81,0
2,713316, Note_on_c,0,51,0
2,713320, Note_on_c,0,58,48
2,713344, Note_on_c,0,69,0
2,713372, Note_on_c,0,58,0
2,713408, Note_on_c,0,72,0
2,713436, Note_on_c,0,79,83
2,713444, Note_on_c,0,67,71
2,713456, Note_on_c,0,63,44
2,713528, Note_on_c,0,63,0
2,713544, Note_on_c,0,72,72
2,713572, Note_on_c,0,79,0
2,713620, Note_on_c,0,75,68
2,713672, Note_on_c,0,72,0
2,713684, Note_on_c,0,67,0
2,713704, Note_on_c,0,79,72
2,713716, Note_on_c,0,75,0
2,713732, Note_on_c,0,79,0
2,713812, Note_on_c,0,77,85
2,713812, Note_on_c,0,72,70
2,713812, Note_on_c,0,65,63
2,713812, Note_on_c,0,45,67
2,713864, Control_c,0,64,72
2,713876, Control_c,0,64,0
2,713908, Note_on_c,0,45,0
2,713940, Note_on_c,0,72,0
2,713948, Note_on_c,0,48,63
2,713952, Control_c,0,64,127
2,714060, Note_on_c,0,48,0
2,714076, Note_on_c,0,53,51
2,714080, Note_on_c,0,65,0
2,714128, Note_on_c,0,69,77
2,714132, Note_on_c,0,53,0
2,714132, Note_on_c,0,57,54
2,714160, Note_on_c,0,57,0
2,714164, Note_on_c,0,77,0
2,714212, Note_on_c,0,69,0
2,714224, Note_on_c,0,72,76
2,714244, Note_on_c,0,72,0
2,714252, Note_on_c,0,60,59
2,714300, Note_on_c,0,77,92
2,714308, Note_on_c,0,60,0
2,714340, Note_on_c,0,65,30
2,714372, Note_on_c,0,77,0
2,714392, Note_on_c,0,81,77
2,714408, Note_on_c,0,65,0
2,714416, Note_on_c,0,69,55
2,714480, Note_on_c,0,69,0
2,714480, Note_on_c,0,84,80
2,714488, Note_on_c,0,81,0
2,714540, Note_on_c,0,84,0
2,714580, Note_on_c,0,89,94
2,714584, Note_on_c,0,77,55
2,714644, Note_on_c,0,77,0
2,714668, Note_on_c,0,85,79
2,714680, Note_on_c,0,73,58
2,714688, Note_on_c,0,89,0
2,714760, Note_on_c,0,81,71
2,714768, Note_on_c,0,69,42
2,714808, Note_on_c,0,73,0
2,714832, Note_on_c,0,85,0
2,714832, Note_on_c,0,65,49
2,714844, Note_on_c,0,69,0
2,714844, Note_on_c,0,77,79
2,714848, Note_on_c,0,81,0
2,714864, Note_on_c,0,65,0
2,714872, Note_on_c,0,77,0
2,714936, Note_on_c,0,65,56
2,714940, Note_on_c,0,77,81
2,715000, Note_on_c,0,65,0
2,715024, Note_on_c,0,73,64
2,715028, Note_on_c,0,61,50
2,715108, Note_on_c,0,69,60
2,715112, Note_on_c,0,57,37
2,715120, Note_on_c,0,61,0
2,715160, Note_on_c,0,73,0
2,715160, Note_on_c,0,53,34
2,715168, Note_on_c,0,57,0
2,715180, Note_on_c,0,69,0
2,715184, Note_on_c,0,65,66
2,715192, Note_on_c,0,53,0
2,715232, Note_on_c,0,77,0
2,715240, Note_on_c,0,65,0
2,715304, Note_on_c,0,77,79
2,715304, Note_on_c,0,74,64
2,715324, Note_on_c,0,65,48
2,715336, Note_on_c,0,46,51
2,715364, Control_c,0,64,56
2,715380, Control_c,0,64,0
2,715424, Note_on_c,0,46,0
2,715428, Note_on_c,0,53,53
2,715428, Control_c,0,64,127
2,715512, Note_on_c,0,58,57
2,715516, Note_on_c,0,53,0
2,715532, Note_on_c,0,74,0
2,715572, Note_on_c,0,65,0
2,715588, Note_on_c,0,77,0
2,715596, Note_on_c,0,58,0
2,715596, Note_on_c,0,62,64
2,715644, Note_on_c,0,62,0
2,715672, Note_on_c,0,77,93
2,715680, Note_on_c,0,65,74
2,715760, Note_on_c,0,70,73
2,715812, Note_on_c,0,77,0
2,715856, Note_on_c,0,74,77
2,715900, Note_on_c,0,70,0
2,715908, Note_on_c,0,65,0
2,715936, Note_on_c,0,77,85
2,715952, Note_on_c,0,74,0
2,715980, Note_on_c,0,77,0
2,716052, Note_on_c,0,81,88
2,716052, Note_on_c,0,69,83
2,716064, Note_on_c,0,77,66
2,716072, Note_on_c,0,74,53
2,716076, Note_on_c,0,47,56
2,716092, Control_c,0,64,104
2,716104, Control_c,0,64,0
2,716152, Note_on_c,0,47,0
2,716160, Note_on_c,0,50,49
2,716184, Control_c,0,64,127
2,716236, Note_on_c,0,55,59
2,716276, Note_on_c,0,50,0
2,716292, Note_on_c,0,55,0
2,716296, Note_on_c,0,81,0
2,716296, Note_on_c,0,59,58
2,716320, Note_on_c,0,59,0
2,716340, Note_on_c,0,69,0
2,716380, Note_on_c,0,77,0
2,716384, Note_on_c,0,74,0
2,716416, Note_on_c,0,62,64
2,716420, Note_on_c,0,79,86
2,716424, Note_on_c,0,65,62
2,716432, Note_on_c,0,67,68
2,716460, Note_on_c,0,65,0
2,716460, Note_on_c,0,62,0
2,716516, Note_on_c,0,74,66
2,716536, Note_on_c,0,79,0
2,716612, Note_on_c,0,77,65
2,716676, Note_on_c,0,74,0
2,716708, Note_on_c,0,79,67
2,716720, Note_on_c,0,67,0
2,716760, Note_on_c,0,79,0
2,716776, Note_on_c,0,77,0
2,716804, Note_on_c,0,65,82
2,716804, Note_on_c,0,77,83
2,716808, Note_on_c,0,75,69
2,716808, Note_on_c,0,72,68
2,716844, Note_on_c,0,48,62
2,716856, Control_c,0,64,72
2,716872, Control_c,0,64,0
2,716924, Note_on_c,0,72,0
2,716932, Note_on_c,0,51,61
2,716932, Control_c,0,64,72
2,716944, Note_on_c,0,48,0
2,716944, Control_c,0,64,127
2,717028, Note_on_c,0,75,0
2,717028, Note_on_c,0,53,59
2,717052, Note_on_c,0,51,0
2,717068, Note_on_c,0,65,0
2,717068, Note_on_c,0,77,0
2,717088, Note_on_c,0,53,0
2,717116, Note_on_c,0,57,54
2,717128, Note_on_c,0,69,68
2,717148, Note_on_c,0,57,0
2,717224, Note_on_c,0,69,0
2,717224, Note_on_c,0,72,80
2,717244, Note_on_c,0,60,66
2,717252, Note_on_c,0,72,0
2,717304, Note_on_c,0,60,0
2,717304, Note_on_c,0,77,97
2,717316, Note_on_c,0,65,51
2,717396, Note_on_c,0,81,81
2,717400, Note_on_c,0,65,0
2,717404, Note_on_c,0,69,62
2,717428, Note_on_c,0,77,0
2,717476, Note_on_c,0,69,0
2,717480, Note_on_c,0,84,77
2,717500, Note_on_c,0,81,0
2,717544, Note_on_c,0,84,0
2,717580, Note_on_c,0,89,100
2,717600, Note_on_c,0,77,68
2,717652, Note_on_c,0,77,0
2,717672, Note_on_c,0,85,82
2,717684, Note_on_c,0,73,62
2,717708, Note_on_c,0,89,0
2,717764, Note_on_c,0,81,74
2,717776, Note_on_c,0,69,47
2,717796, Note_on_c,0,73,0
2,717840, Note_on_c,0,85,0
2,717840, Note_on_c,0,65,51
2,717844, Note_on_c,0,77,78
2,717848, Note_on_c,0,69,0
2,717856, Note_on_c,0,81,0
2,717876, Note_on_c,0,65,0
2,717880, Note_on_c,0,77,0
2,717948, Note_on_c,0,77,82
2,717948, Note_on_c,0,65,57
2,717992, Note_on_c,0,65,0
2,718040, Note_on_c,0,73,55
2,718040, Note_on_c,0,61,51
2,718132, Note_on_c,0,69,54
2,718132, Note_on_c,0,57,49
2,718144, Note_on_c,0,61,0
2,718156, Note_on_c,0,73,0
2,718180, Note_on_c,0,57,0
2,718220, Note_on_c,0,53,50
2,718224, Note_on_c,0,69,0
2,718224, Note_on_c,0,65,62
2,718256, Note_on_c,0,53,0
2,718320, Note_on_c,0,46,68
2,718324, Note_on_c,0,65,0
2,718348, Control_c,0,64,88
2,718360, Control_c,0,64,0
2,718420, Note_on_c,0,46,0
2,718424, Control_c,0,64,72
2,718428, Note_on_c,0,77,0
2,718428, Note_on_c,0,53,50
2,718436, Control_c,0,64,127
2,718524, Note_on_c,0,58,51
2,718544, Note_on_c,0,53,0
2,718600, Note_on_c,0,58,0
2,718608, Note_on_c,0,62,47
2,718648, Note_on_c,0,62,0
2,718680, Note_on_c,0,77,89
2,718692, Note_on_c,0,65,64
2,718752, Note_on_c,0,65,0
2,718776, Note_on_c,0,74,63
2,718856, Note_on_c,0,70,46
2,718936, Note_on_c,0,65,53
2,718952, Note_on_c,0,70,0
2,719040, Note_on_c,0,74,0
2,719040, Note_on_c,0,47,71
2,719064, Control_c,0,64,40
2,719076, Control_c,0,64,0
2,719084, Note_on_c,0,65,0
2,719140, Control_c,0,64,127
2,719144, Note_on_c,0,47,0
2,719152, Note_on_c,0,53,51
2,719236, Note_on_c,0,55,44
2,719244, Note_on_c,0,53,0
2,719308, Note_on_c,0,55,0
2,719320, Note_on_c,0,62,42
2,719368, Note_on_c,0,62,0
2,719376, Note_on_c,0,77,0
2,719408, Note_on_c,0,79,86
2,719412, Note_on_c,0,67,66
2,719516, Note_on_c,0,77,74
2,719520, Note_on_c,0,67,0
2,719604, Note_on_c,0,74,66
2,719680, Note_on_c,0,74,0
2,719688, Note_on_c,0,67,56
2,719692, Note_on_c,0,77,0
2,719728, Note_on_c,0,79,0
2,719764, Note_on_c,0,67,0
2,719776, Note_on_c,0,48,74
2,719776, Control_c,0,64,88
2,719788, Control_c,0,64,0
2,719840, Control_c,0,64,72
2,719848, Note_on_c,0,48,0
2,719852, Control_c,0,64,127
2,719872, Note_on_c,0,55,53
2,719952, Note_on_c,0,55,0
2,719956, Note_on_c,0,60,61
2,720044, Note_on_c,0,60,0
2,720044, Note_on_c,0,64,64
2,720096, Note_on_c,0,64,0
2,720136, Note_on_c,0,67,66
2,720136, Note_on_c,0,79,86
2,720232, Note_on_c,0,76,64
2,720236, Note_on_c,0,67,0
2,720316, Note_on_c,0,72,71
2,720368, Note_on_c,0,76,0
2,720396, Note_on_c,0,72,0
2,720404, Note_on_c,0,67,63
2,720468, Note_on_c,0,67,0
2,720480, Note_on_c,0,49,73
2,720516, Control_c,0,64,24
2,720528, Control_c,0,64,0
2,720568, Control_c,0,64,88
2,720572, Note_on_c,0,49,0
2,720580, Control_c,0,64,127
2,720580, Note_on_c,0,55,59
2,720668, Note_on_c,0,55,0
2,720680, Note_on_c,0,57,63
2,720744, Note_on_c,0,57,0
2,720748, Note_on_c,0,64,59
2,720776, Note_on_c,0,79,0
2,720800, Note_on_c,0,64,0
2,720840, Note_on_c,0,81,94
2,720844, Note_on_c,0,69,76
2,720940, Note_on_c,0,69,0
2,720940, Note_on_c,0,79,68
2,721012, Note_on_c,0,76,60
2,721104, Note_on_c,0,69,54
2,721184, Note_on_c,0,76,0
2,721192, Control_c,0,64,104
2,721200, Note_on_c,0,50,73
2,721204, Control_c,0,64,0
2,721256, Control_c,0,64,72
2,721264, Control_c,0,64,127
2,721268, Note_on_c,0,50,0
2,721296, Note_on_c,0,57,53
2,721332, Note_on_c,0,69,0
2,721360, Note_on_c,0,57,0
2,721376, Note_on_c,0,62,53
2,721388, Note_on_c,0,81,0
2,721460, Note_on_c,0,62,0
2,721464, Note_on_c,0,65,63
2,721476, Note_on_c,0,79,0
2,721512, Note_on_c,0,65,0
2,721544, Note_on_c,0,81,92
2,721548, Note_on_c,0,69,82
2,721636, Note_on_c,0,69,0
2,721644, Note_on_c,0,77,69
2,721728, Note_on_c,0,74,62
2,721772, Note_on_c,0,77,0
2,721804, Note_on_c,0,69,55
2,721812, Note_on_c,0,74,0
2,721892, Control_c,0,64,104
2,721900, Note_on_c,0,50,73
2,721904, Control_c,0,64,0
2,721956, Control_c,0,64,72
2,721968, Control_c,0,64,127
2,721976, Note_on_c,0,50,0
2,721976, Note_on_c,0,69,0
2,721992, Note_on_c,0,56,60
2,722036, Note_on_c,0,81,0
2,722060, Note_on_c,0,58,58
2,722068, Note_on_c,0,56,0
2,722116, Note_on_c,0,58,0
2,722140, Note_on_c,0,65,72
2,722192, Note_on_c,0,65,0
2,722244, Note_on_c,0,82,89
2,722244, Note_on_c,0,70,79
2,722340, Note_on_c,0,80,72
2,722364, Note_on_c,0,70,0
2,722440, Note_on_c,0,77,64
2,722496, Note_on_c,0,77,0
2,722528, Note_on_c,0,70,60
2,722592, Control_c,0,64,24
2,722600, Note_on_c,0,51,74
2,722604, Control_c,0,64,0
2,722644, Control_c,0,64,56
2,722656, Control_c,0,64,127
2,722668, Note_on_c,0,80,0
2,722684, Note_on_c,0,51,0
2,722692, Note_on_c,0,70,0
2,722696, Note_on_c,0,58,49
2,722728, Note_on_c,0,82,0
2,722784, Note_on_c,0,58,0
2,722784, Note_on_c,0,63,62
2,722860, Note_on_c,0,63,0
2,722860, Note_on_c,0,67,62
2,722908, Note_on_c,0,67,0
2,722932, Note_on_c,0,82,89
2,722940, Note_on_c,0,70,69
2,723032, Note_on_c,0,70,0
2,723032, Note_on_c,0,79,70
2,723104, Note_on_c,0,75,62
2,723160, Note_on_c,0,79,0
2,723168, Note_on_c,0,70,56
2,723272, Note_on_c,0,75,0
2,723272, Note_on_c,0,52,76
2,723272, Control_c,0,64,40
2,723280, Note_on_c,0,70,0
2,723284, Control_c,0,64,0
2,723308, Control_c,0,64,40
2,723320, Control_c,0,64,104
2,723332, Control_c,0,64,127
2,723356, Note_on_c,0,52,0
2,723360, Note_on_c,0,58,58
2,723388, Note_on_c,0,82,0
2,723436, Note_on_c,0,60,63
2,723452, Note_on_c,0,58,0
2,723496, Note_on_c,0,60,0
2,723504, Note_on_c,0,67,63
2,723556, Note_on_c,0,67,0
2,723600, Note_on_c,0,84,94
2,723600, Note_on_c,0,72,83
2,723660, Note_on_c,0,72,0
2,723692, Note_on_c,0,82,67
2,723772, Note_on_c,0,79,62
2,723812, Note_on_c,0,82,0
2,723824, Note_on_c,0,72,61
2,723844, Note_on_c,0,79,0
2,723896, Note_on_c,0,84,0
2,723908, Note_on_c,0,72,0
2,723920, Control_c,0,64,56
2,723932, Note_on_c,0,53,70
2,723932, Note_on_c,0,65,66
2,723932, Control_c,0,64,0
2,723972, Control_c,0,64,56
2,723984, Control_c,0,64,127
2,724024, Note_on_c,0,58,64
2,724032, Note_on_c,0,53,0
2,724036, Note_on_c,0,61,58
2,724068, Note_on_c,0,65,0
2,724072, Note_on_c,0,61,0
2,724076, Note_on_c,0,58,0
2,724120, Note_on_c,0,85,81
2,724124, Note_on_c,0,73,79
2,724208, Note_on_c,0,77,80
2,724216, Note_on_c,0,82,69
2,724220, Note_on_c,0,73,0
2,724232, Note_on_c,0,85,0
2,724272, Control_c,0,64,88
2,724280, Note_on_c,0,77,0
2,724284, Control_c,0,64,0
2,724296, Note_on_c,0,70,81
2,724296, Note_on_c,0,58,64
2,724324, Note_on_c,0,82,0
2,724324, Control_c,0,64,127
2,724380, Note_on_c,0,65,71
2,724388, Note_on_c,0,58,0
2,724396, Note_on_c,0,70,0
2,724396, Note_on_c,0,62,61
2,724400, Note_on_c,0,65,0
2,724416, Note_on_c,0,62,0
2,724456, Note_on_c,0,86,82
2,724460, Note_on_c,0,74,78
2,724520, Note_on_c,0,82,75
2,724548, Note_on_c,0,74,0
2,724552, Note_on_c,0,86,0
2,724608, Note_on_c,0,82,0
2,724612, Note_on_c,0,63,78
2,724616, Note_on_c,0,55,79
2,724624, Control_c,0,64,40
2,724636, Control_c,0,64,0
2,724648, Control_c,0,64,24
2,724660, Control_c,0,64,72
2,724672, Control_c,0,64,127
2,724696, Note_on_c,0,58,62
2,724704, Note_on_c,0,60,71
2,724708, Note_on_c,0,55,0
2,724716, Note_on_c,0,63,0
2,724724, Note_on_c,0,60,0
2,724756, Note_on_c,0,58,0
2,724780, Note_on_c,0,87,85
2,724784, Note_on_c,0,75,79
2,724864, Note_on_c,0,84,69
2,724880, Note_on_c,0,82,59
2,724888, Note_on_c,0,87,0
2,724908, Note_on_c,0,75,0
2,724936, Note_on_c,0,84,0
2,724948, Note_on_c,0,82,0
2,724960, Note_on_c,0,64,83
2,724964, Note_on_c,0,54,76
2,724964, Control_c,0,64,88
2,724976, Control_c,0,64,24
2,724988, Control_c,0,64,0
2,725000, Control_c,0,64,56
2,725012, Control_c,0,64,127
2,725048, Note_on_c,0,61,65
2,725056, Note_on_c,0,58,45
2,725060, Note_on_c,0,54,0
2,725072, Note_on_c,0,64,0
2,725088, Note_on_c,0,58,0
2,725096, Note_on_c,0,61,0
2,725128, Note_on_c,0,85,80
2,725136, Note_on_c,0,73,69
2,725204, Note_on_c,0,82,70
2,725228, Note_on_c,0,76,61
2,725240, Note_on_c,0,73,0
2,725260, Note_on_c,0,76,0
2,725268, Note_on_c,0,85,0
2,725300, Note_on_c,0,82,0
2,725340, Note_on_c,0,86,90
2,725340, Note_on_c,0,77,70
2,725340, Note_on_c,0,53,71
2,725340, Note_on_c,0,65,70
2,725340, Note_on_c,0,74,68
2,725340, Note_on_c,0,82,53
2,725340, Control_c,0,64,56
2,725348, Control_c,0,64,0
2,725412, Control_c,0,64,72
2,725472, Note_on_c,0,86,0
2,725484, Note_on_c,0,77,0
2,725488, Note_on_c,0,65,0
2,725496, Note_on_c,0,82,0
2,725500, Note_on_c,0,74,0
2,725504, Note_on_c,0,53,0
2,725528, Note_on_c,0,58,57
2,725568, Control_c,0,64,72
2,725580, Control_c,0,64,127
2,725616, Note_on_c,0,58,0
2,725624, Note_on_c,0,62,60
2,725656, Note_on_c,0,62,0
2,725704, Note_on_c,0,77,81
2,725712, Note_on_c,0,65,63
2,725772, Note_on_c,0,65,0
2,725796, Note_on_c,0,74,66
2,725868, Note_on_c,0,70,61
2,725904, Note_on_c,0,74,0
2,725944, Note_on_c,0,70,0
2,725948, Note_on_c,0,65,60
2,725996, Note_on_c,0,65,0
2,726020, Note_on_c,0,41,68
2,726116, Note_on_c,0,50,64
2,726120, Note_on_c,0,41,0
2,726176, Note_on_c,0,50,0
2,726200, Note_on_c,0,53,60
2,726280, Note_on_c,0,58,58
2,726288, Note_on_c,0,53,0
2,726296, Note_on_c,0,77,0
2,726316, Note_on_c,0,58,0
2,726364, Note_on_c,0,79,82
2,726368, Note_on_c,0,67,56
2,726420, Note_on_c,0,67,0
2,726436, Note_on_c,0,79,0
2,726456, Note_on_c,0,77,78
2,726536, Note_on_c,0,74,69
2,726548, Note_on_c,0,77,0
2,726600, Note_on_c,0,74,0
2,726620, Note_on_c,0,67,59
2,726660, Note_on_c,0,67,0
2,726704, Note_on_c,0,53,69
2,726760, Note_on_c,0,53,0
2,726780, Note_on_c,0,58,56
2,726848, Note_on_c,0,58,0
2,726864, Note_on_c,0,62,64
2,726936, Note_on_c,0,62,0
2,726944, Note_on_c,0,65,60
2,726980, Note_on_c,0,65,0
2,727016, Note_on_c,0,82,80
2,727020, Note_on_c,0,70,70
2,727072, Note_on_c,0,70,0
2,727104, Note_on_c,0,77,64
2,727108, Note_on_c,0,82,0
2,727180, Note_on_c,0,74,59
2,727200, Note_on_c,0,77,0
2,727240, Note_on_c,0,74,0
2,727252, Note_on_c,0,70,68
2,727284, Note_on_c,0,70,0
2,727344, Note_on_c,0,85,77
2,727344, Note_on_c,0,73,65
2,727392, Note_on_c,0,85,0
2,727404, Note_on_c,0,73,0
2,727420, Note_on_c,0,82,69
2,727420, Note_on_c,0,70,71
2,727496, Note_on_c,0,82,0
2,727500, Note_on_c,0,70,0
2,727500, Note_on_c,0,77,80
2,727500, Note_on_c,0,65,64
2,727552, Note_on_c,0,65,0
2,727564, Note_on_c,0,77,0
2,727572, Note_on_c,0,73,78
2,727572, Note_on_c,0,61,60
2,727612, Note_on_c,0,61,0
2,727624, Note_on_c,0,73,0
2,727672, Note_on_c,0,86,87
2,727672, Note_on_c,0,74,59
2,727728, Note_on_c,0,74,0
2,727728, Note_on_c,0,86,0
2,727744, Note_on_c,0,82,76
2,727744, Note_on_c,0,70,64
2,727820, Note_on_c,0,70,0
2,727820, Note_on_c,0,65,58
2,727820, Note_on_c,0,77,85
2,727852, Note_on_c,0,82,0
2,727904, Note_on_c,0,77,0
2,727904, Note_on_c,0,65,0
2,727904, Note_on_c,0,74,83
2,727904, Note_on_c,0,62,63
2,727936, Note_on_c,0,62,0
2,727948, Note_on_c,0,74,0
2,728000, Note_on_c,0,65,77
2,728008, Note_on_c,0,53,72
2,728016, Control_c,0,64,104
2,728028, Control_c,0,64,0
2,728088, Control_c,0,64,56
2,728100, Control_c,0,64,127
2,728140, Note_on_c,0,53,0
2,728156, Note_on_c,0,59,62
2,728180, Note_on_c,0,65,0
2,728236, Note_on_c,0,59,0
2,728236, Note_on_c,0,62,75
2,728280, Note_on_c,0,62,0
2,728324, Note_on_c,0,67,73
2,728324, Note_on_c,0,79,77
2,728420, Note_on_c,0,67,0
2,728420, Note_on_c,0,74,66
2,728492, Note_on_c,0,71,67
2,728544, Note_on_c,0,79,0
2,728548, Note_on_c,0,74,0
2,728560, Note_on_c,0,67,68
2,728564, Note_on_c,0,71,0
2,728608, Note_on_c,0,67,0
2,728644, Note_on_c,0,41,72
2,728712, Note_on_c,0,41,0
2,728728, Note_on_c,0,50,71
2,728796, Note_on_c,0,50,0
2,728824, Note_on_c,0,55,66
2,728900, Note_on_c,0,59,70
2,728908, Note_on_c,0,55,0
2,728948, Note_on_c,0,59,0
2,728968, Note_on_c,0,71,70
2,728972, Note_on_c,0,83,82
2,729024, Note_on_c,0,71,0
2,729064, Note_on_c,0,79,67
2,729144, Note_on_c,0,74,66
2,729184, Note_on_c,0,79,0
2,729220, Note_on_c,0,74,0
2,729220, Note_on_c,0,71,63
2,729296, Note_on_c,0,71,0
2,729304, Note_on_c,0,83,0
2,729304, Note_on_c,0,53,76
2,729360, Note_on_c,0,53,0
2,729384, Note_on_c,0,59,54
2,729456, Note_on_c,0,59,0
2,729472, Note_on_c,0,62,62
2,729540, Note_on_c,0,62,0
2,729556, Note_on_c,0,67,62
2,729592, Note_on_c,0,67,0
2,729644, Note_on_c,0,83,86
2,729648, Note_on_c,0,71,70
2,729704, Note_on_c,0,71,0
2,729736, Note_on_c,0,79,75
2,729776, Note_on_c,0,83,0
2,729824, Note_on_c,0,74,74
2,729840, Note_on_c,0,79,0
2,729884, Note_on_c,0,74,0
2,729888, Note_on_c,0,71,66
2,729912, Note_on_c,0,71,0
2,729988, Note_on_c,0,85,79
2,729988, Note_on_c,0,73,71
2,730040, Note_on_c,0,85,0
2,730048, Note_on_c,0,73,0
2,730064, Note_on_c,0,83,78
2,730064, Note_on_c,0,71,62
2,730132, Note_on_c,0,71,0
2,730132, Note_on_c,0,79,70
2,730132, Note_on_c,0,67,58
2,730140, Note_on_c,0,83,0
2,730196, Note_on_c,0,79,0
2,730204, Note_on_c,0,67,0
2,730204, Note_on_c,0,73,80
2,730220, Note_on_c,0,61,54
2,730252, Note_on_c,0,73,0
2,730268, Note_on_c,0,61,0
2,730304, Note_on_c,0,86,86
2,730304, Note_on_c,0,74,67
2,730364, Note_on_c,0,86,0
2,730368, Note_on_c,0,74,0
2,730380, Note_on_c,0,71,66
2,730388, Note_on_c,0,83,82
2,730464, Note_on_c,0,71,0
2,730464, Note_on_c,0,79,82
2,730464, Note_on_c,0,67,57
2,730532, Note_on_c,0,83,0
2,730540, Note_on_c,0,74,84
2,730544, Note_on_c,0,67,0
2,730544, Note_on_c,0,79,0
2,730544, Note_on_c,0,62,62
2,730560, Note_on_c,0,62,0
2,730584, Note_on_c,0,74,0
2,730632, Note_on_c,0,65,74
2,730636, Control_c,0,64,88
2,730640, Note_on_c,0,53,75
2,730648, Control_c,0,64,24
2,730656, Control_c,0,64,0
2,730700, Control_c,0,64,72
2,730708, Control_c,0,64,127
2,730720, Note_on_c,0,53,0
2,730772, Note_on_c,0,65,0
2,730792, Note_on_c,0,60,62
2,730876, Note_on_c,0,60,0
2,730880, Note_on_c,0,63,71
2,730924, Note_on_c,0,63,0
2,730956, Note_on_c,0,79,85
2,730960, Note_on_c,0,67,74
2,731028, Note_on_c,0,67,0
2,731048, Note_on_c,0,75,71
2,731128, Note_on_c,0,72,74
2,731180, Note_on_c,0,75,0
2,731192, Note_on_c,0,72,0
2,731204, Note_on_c,0,67,70
2,731248, Note_on_c,0,67,0
2,731288, Note_on_c,0,41,75
2,731308, Note_on_c,0,79,0
2,731336, Note_on_c,0,41,0
2,731368, Note_on_c,0,48,63
2,731436, Note_on_c,0,48,0
2,731448, Note_on_c,0,51,67
2,731528, Note_on_c,0,51,0
2,731528, Note_on_c,0,55,75
2,731572, Note_on_c,0,55,0
2,731620, Note_on_c,0,84,89
2,731624, Note_on_c,0,72,85
2,731692, Note_on_c,0,72,0
2,731716, Note_on_c,0,79,65
2,731792, Note_on_c,0,75,62
2,731864, Note_on_c,0,79,0
2,731872, Note_on_c,0,72,72
2,731884, Note_on_c,0,75,0
2,731916, Note_on_c,0,72,0
2,731952, Note_on_c,0,53,74
2,732012, Note_on_c,0,53,0
2,732032, Note_on_c,0,60,61
2,732104, Note_on_c,0,60,0
2,732116, Note_on_c,0,63,61
2,732128, Note_on_c,0,84,0
2,732196, Note_on_c,0,63,0
2,732200, Note_on_c,0,67,73
2,732244, Note_on_c,0,67,0
2,732296, Note_on_c,0,86,88
2,732300, Note_on_c,0,74,81
2,732364, Note_on_c,0,86,0
2,732368, Note_on_c,0,74,0
2,732388, Note_on_c,0,84,66
2,732464, Note_on_c,0,79,75
2,732488, Note_on_c,0,84,0
2,732528, Note_on_c,0,79,0
2,732532, Note_on_c,0,74,70
2,732572, Note_on_c,0,74,0
2,732616, Note_on_c,0,74,70
2,732680, Note_on_c,0,74,0
2,732696, Note_on_c,0,72,75
2,732768, Note_on_c,0,72,0
2,732780, Note_on_c,0,67,59
2,732860, Note_on_c,0,67,0
2,732864, Note_on_c,0,62,63
2,732916, Note_on_c,0,62,0
2,732940, Note_on_c,0,87,79
2,732944, Note_on_c,0,75,80
2,732996, Note_on_c,0,75,0
2,733020, Note_on_c,0,87,0
2,733036, Note_on_c,0,84,74
2,733104, Note_on_c,0,79,71
2,733116, Note_on_c,0,84,0
2,733168, Note_on_c,0,79,0
2,733172, Note_on_c,0,75,73
2,733212, Note_on_c,0,75,0
2,733236, Control_c,0,64,104
2,733248, Control_c,0,64,56
2,733260, Note_on_c,0,75,73
2,733260, Control_c,0,64,24
2,733268, Control_c,0,64,0
2,733300, Control_c,0,64,56
2,733312, Control_c,0,64,88
2,733320, Control_c,0,64,127
2,733328, Note_on_c,0,73,69
2,733332, Note_on_c,0,75,0
2,733412, Note_on_c,0,73,0
2,733416, Note_on_c,0,67,60
2,733480, Note_on_c,0,63,62
2,733484, Note_on_c,0,67,0
2,733520, Note_on_c,0,63,0
2,733552, Control_c,0,64,88
2,733564, Note_on_c,0,87,88
2,733568, Note_on_c,0,75,80
2,733580, Control_c,0,64,127
2,733616, Note_on_c,0,75,0
2,733648, Note_on_c,0,87,0
2,733656, Note_on_c,0,85,64
2,733720, Note_on_c,0,79,64
2,733752, Note_on_c,0,85,0
2,733792, Note_on_c,0,75,68
2,733796, Note_on_c,0,79,0
2,733832, Note_on_c,0,75,0
2,733864, Control_c,0,64,104
2,733876, Control_c,0,64,72
2,733880, Note_on_c,0,75,69
2,733884, Control_c,0,64,56
2,733892, Note_on_c,0,63,59
2,733896, Control_c,0,64,72
2,733904, Control_c,0,64,88
2,733916, Control_c,0,64,127
2,733964, Note_on_c,0,75,0
2,733964, Note_on_c,0,73,75
2,733976, Note_on_c,0,63,0
2,734040, Note_on_c,0,67,64
2,734044, Note_on_c,0,73,0
2,734116, Note_on_c,0,67,0
2,734116, Note_on_c,0,63,64
2,734160, Note_on_c,0,63,0
2,734176, Control_c,0,64,104
2,734188, Control_c,0,64,88
2,734200, Note_on_c,0,88,96
2,734204, Note_on_c,0,76,87
2,734220, Control_c,0,64,127
2,734272, Note_on_c,0,76,0
2,734292, Note_on_c,0,85,69
2,734328, Note_on_c,0,88,0
2,734352, Note_on_c,0,79,64
2,734400, Note_on_c,0,85,0
2,734408, Note_on_c,0,79,0
2,734432, Note_on_c,0,76,61
2,734452, Note_on_c,0,76,0
2,734516, Note_on_c,0,76,71
2,734520, Note_on_c,0,64,64
2,734592, Note_on_c,0,76,0
2,734592, Note_on_c,0,73,69
2,734620, Note_on_c,0,64,0
2,734680, Note_on_c,0,73,0
2,734688, Note_on_c,0,67,50
2,734760, Note_on_c,0,64,70
2,734776, Note_on_c,0,67,0
2,734808, Note_on_c,0,64,0
2,734844, Note_on_c,0,87,85
2,734848, Note_on_c,0,75,85
2,734856, Control_c,0,64,104
2,734868, Control_c,0,64,56
2,734880, Control_c,0,64,24
2,734900, Control_c,0,64,40
2,734904, Note_on_c,0,75,0
2,734908, Control_c,0,64,56
2,734920, Control_c,0,64,104
2,734928, Control_c,0,64,127
2,734936, Note_on_c,0,85,65
2,734940, Note_on_c,0,87,0
2,734996, Note_on_c,0,79,57
2,735040, Note_on_c,0,85,0
2,735068, Note_on_c,0,79,0
2,735068, Note_on_c,0,75,70
2,735108, Note_on_c,0,75,0
2,735144, Note_on_c,0,75,65
2,735156, Note_on_c,0,63,63
2,735232, Note_on_c,0,73,76
2,735236, Note_on_c,0,75,0
2,735240, Note_on_c,0,63,0
2,735300, Note_on_c,0,67,62
2,735304, Note_on_c,0,73,0
2,735372, Note_on_c,0,63,66
2,735376, Note_on_c,0,67,0
2,735416, Note_on_c,0,63,0
2,735444, Control_c,0,64,72
2,735452, Control_c,0,64,56
2,735460, Note_on_c,0,88,96
2,735460, Note_on_c,0,76,85
2,735484, Control_c,0,64,127
2,735516, Note_on_c,0,76,0
2,735544, Note_on_c,0,88,0
2,735544, Note_on_c,0,85,65
2,735612, Note_on_c,0,79,70
2,735668, Note_on_c,0,85,0
2,735688, Note_on_c,0,79,0
2,735692, Note_on_c,0,76,69
2,735732, Note_on_c,0,76,0
2,735772, Note_on_c,0,76,67
2,735780, Note_on_c,0,64,64
2,735844, Note_on_c,0,73,74
2,735852, Note_on_c,0,64,0
2,735852, Note_on_c,0,76,0
2,735928, Note_on_c,0,73,0
2,735928, Note_on_c,0,67,62
2,736004, Note_on_c,0,64,66
2,736012, Note_on_c,0,67,0
2,736048, Note_on_c,0,64,0
2,736080, Control_c,0,64,88
2,736088, Note_on_c,0,87,87
2,736088, Note_on_c,0,75,80
2,736092, Control_c,0,64,24
2,736100, Control_c,0,64,0
2,736148, Note_on_c,0,75,0
2,736152, Control_c,0,64,40
2,736164, Control_c,0,64,104
2,736176, Control_c,0,64,127
2,736180, Note_on_c,0,85,70
2,736192, Note_on_c,0,87,0
2,736244, Note_on_c,0,79,65
2,736268, Note_on_c,0,85,0
2,736312, Note_on_c,0,79,0
2,736312, Note_on_c,0,75,60
2,736348, Note_on_c,0,75,0
2,736380, Note_on_c,0,75,71
2,736404, Note_on_c,0,63,63
2,736460, Note_on_c,0,75,0
2,736460, Note_on_c,0,73,74
2,736464, Note_on_c,0,63,0
2,736524, Note_on_c,0,73,0
2,736528, Note_on_c,0,67,62
2,736600, Note_on_c,0,63,63
2,736604, Note_on_c,0,67,0
2,736644, Note_on_c,0,63,0
2,736700, Note_on_c,0,88,96
2,736700, Note_on_c,0,76,85
2,736700, Control_c,0,64,72
2,736708, Control_c,0,64,40
2,736720, Control_c,0,64,24
2,736732, Control_c,0,64,40
2,736740, Control_c,0,64,72
2,736752, Control_c,0,64,127
2,736764, Note_on_c,0,76,0
2,736784, Note_on_c,0,85,73
2,736796, Note_on_c,0,88,0
2,736852, Note_on_c,0,79,76
2,736896, Note_on_c,0,85,0
2,736920, Note_on_c,0,79,0
2,736924, Note_on_c,0,76,62
2,736952, Note_on_c,0,76,0
2,737004, Note_on_c,0,76,75
2,737012, Note_on_c,0,64,72
2,737076, Note_on_c,0,76,0
2,737080, Note_on_c,0,64,0
2,737080, Note_on_c,0,73,79
2,737164, Note_on_c,0,73,0
2,737164, Note_on_c,0,67,56
2,737236, Note_on_c,0,64,64
2,737256, Note_on_c,0,67,0
2,737288, Note_on_c,0,64,0
2,737332, Note_on_c,0,87,87
2,737336, Note_on_c,0,75,85
2,737336, Control_c,0,64,88
2,737344, Control_c,0,64,40
2,737356, Control_c,0,64,0
2,737388, Note_on_c,0,75,0
2,737388, Control_c,0,64,56
2,737396, Control_c,0,64,104
2,737408, Control_c,0,64,127
2,737416, Note_on_c,0,87,0
2,737424, Note_on_c,0,85,68
2,737484, Note_on_c,0,79,64
2,737508, Note_on_c,0,85,0
2,737548, Note_on_c,0,79,0
2,737556, Note_on_c,0,75,65
2,737596, Note_on_c,0,75,0
2,737628, Note_on_c,0,75,71
2,737716, Note_on_c,0,73,71
2,737724, Note_on_c,0,75,0
2,737792, Note_on_c,0,67,65
2,737796, Note_on_c,0,73,0
2,737856, Note_on_c,0,67,0
2,737856, Note_on_c,0,63,60
2,737904, Note_on_c,0,63,0
2,737932, Control_c,0,64,72
2,737944, Control_c,0,64,56
2,737968, Note_on_c,0,88,100
2,737968, Note_on_c,0,76,93
2,737976, Control_c,0,64,104
2,737980, Note_on_c,0,73,55
2,737984, Control_c,0,64,127
2,737988, Note_on_c,0,67,45
2,737996, Note_on_c,0,64,25
2,738016, Note_on_c,0,67,0
2,738040, Note_on_c,0,73,0
2,738044, Note_on_c,0,76,0
2,738052, Note_on_c,0,64,0
2,738056, Note_on_c,0,88,0
2,738056, Note_on_c,0,85,75
2,738140, Note_on_c,0,79,68
2,738172, Note_on_c,0,85,0
2,738196, Note_on_c,0,79,0
2,738216, Note_on_c,0,76,79
2,738260, Note_on_c,0,76,0
2,738276, Control_c,0,64,104
2,738284, Control_c,0,64,40
2,738312, Note_on_c,0,82,64
2,738316, Note_on_c,0,89,87
2,738316, Note_on_c,0,82,67
2,738320, Note_on_c,0,86,61
2,738320, Note_on_c,0,86,70
2,738328, Control_c,0,64,40
2,738340, Control_c,0,64,104
2,738348, Control_c,0,64,127
2,738400, Note_on_c,0,82,0
2,738404, Note_on_c,0,82,0
2,738412, Note_on_c,0,77,77
2,738416, Note_on_c,0,86,0
2,738416, Note_on_c,0,86,0
2,738420, Note_on_c,0,89,0
2,738452, Note_on_c,0,77,0
2,738512, Note_on_c,0,77,59
2,738516, Note_on_c,0,70,53
2,738524, Note_on_c,0,74,48
2,738572, Note_on_c,0,77,0
2,738600, Note_on_c,0,74,0
2,738608, Note_on_c,0,65,66
2,738616, Note_on_c,0,70,0
2,738652, Note_on_c,0,65,0
2,738708, Note_on_c,0,62,66
2,738712, Note_on_c,0,58,49
2,738764, Note_on_c,0,58,0
2,738788, Note_on_c,0,53,63
2,738808, Note_on_c,0,62,0
2,738844, Note_on_c,0,53,0
2,738900, Note_on_c,0,65,66
2,738904, Note_on_c,0,62,51
2,738904, Note_on_c,0,58,44
2,738964, Note_on_c,0,58,0
2,738976, Note_on_c,0,62,0
2,738984, Note_on_c,0,53,73
2,739020, Note_on_c,0,53,0
2,739052, Note_on_c,0,65,0
2,739096, Note_on_c,0,46,53
2,739100, Note_on_c,0,50,57
2,739184, Note_on_c,0,50,0
2,739196, Note_on_c,0,46,0
2,739200, Note_on_c,0,41,76
2,739252, Note_on_c,0,41,0
2,739404, Control_c,0,64,104
2,739416, Control_c,0,64,72
2,739420, Control_c,0,64,56
2,739432, Control_c,0,64,24
2,739444, Control_c,0,64,0
2,739484, Note_on_c,0,91,91
2,739488, Note_on_c,0,83,79
2,739492, Note_on_c,0,86,78
2,739500, Control_c,0,64,40
2,739508, Control_c,0,64,104
2,739516, Control_c,0,64,127
2,739576, Note_on_c,0,83,0
2,739584, Note_on_c,0,86,0
2,739588, Note_on_c,0,79,86
2,739616, Note_on_c,0,91,0
2,739628, Note_on_c,0,79,0
2,739672, Note_on_c,0,79,56
2,739680, Note_on_c,0,71,62
2,739680, Note_on_c,0,74,63
2,739720, Note_on_c,0,79,0
2,739764, Note_on_c,0,65,70
2,739768, Note_on_c,0,74,0
2,739776, Note_on_c,0,71,0
2,739808, Note_on_c,0,65,0
2,739876, Note_on_c,0,62,63
2,739880, Note_on_c,0,59,62
2,739924, Note_on_c,0,59,0
2,739948, Note_on_c,0,62,0
2,739952, Note_on_c,0,53,81
2,740000, Note_on_c,0,53,0
2,740056, Note_on_c,0,67,82
2,740056, Note_on_c,0,62,68
2,740056, Note_on_c,0,59,71
2,740112, Note_on_c,0,59,0
2,740132, Note_on_c,0,62,0
2,740136, Note_on_c,0,67,0
2,740140, Note_on_c,0,55,75
2,740180, Note_on_c,0,55,0
2,740248, Note_on_c,0,50,55
2,740248, Note_on_c,0,47,52
2,740320, Note_on_c,0,50,0
2,740340, Note_on_c,0,47,0
2,740344, Note_on_c,0,41,74
2,740392, Note_on_c,0,41,0
2,740528, Control_c,0,64,104
2,740536, Control_c,0,64,72
2,740544, Control_c,0,64,56
2,740552, Control_c,0,64,24
2,740564, Control_c,0,64,0
2,740620, Note_on_c,0,92,92
2,740624, Note_on_c,0,87,76
2,740624, Note_on_c,0,84,84
2,740648, Control_c,0,64,56
2,740656, Control_c,0,64,127
2,740716, Note_on_c,0,84,0
2,740716, Note_on_c,0,80,70
2,740720, Note_on_c,0,87,0
2,740728, Note_on_c,0,92,0
2,740756, Note_on_c,0,80,0
2,740812, Note_on_c,0,75,64
2,740812, Note_on_c,0,80,57
2,740816, Note_on_c,0,72,63
2,740848, Note_on_c,0,80,0
2,740896, Note_on_c,0,72,0
2,740900, Note_on_c,0,75,0
2,740904, Note_on_c,0,65,58
2,740924, Note_on_c,0,65,0
2,740996, Note_on_c,0,63,65
2,741000, Note_on_c,0,60,59
2,741032, Note_on_c,0,60,0
2,741052, Note_on_c,0,63,0
2,741076, Note_on_c,0,53,70
2,741124, Note_on_c,0,53,0
2,741176, Note_on_c,0,68,78
2,741180, Note_on_c,0,63,62
2,741184, Note_on_c,0,60,70
2,741236, Note_on_c,0,60,0
2,741256, Note_on_c,0,63,0
2,741264, Note_on_c,0,68,0
2,741264, Note_on_c,0,56,69
2,741300, Note_on_c,0,56,0
2,741356, Note_on_c,0,51,47
2,741372, Note_on_c,0,48,54
2,741440, Note_on_c,0,51,0
2,741448, Note_on_c,0,48,0
2,741452, Note_on_c,0,41,74
2,741508, Note_on_c,0,41,0
2,741636, Control_c,0,64,88
2,741648, Control_c,0,64,56
2,741656, Control_c,0,64,24
2,741668, Control_c,0,64,0
2,741724, Note_on_c,0,93,94
2,741728, Note_on_c,0,85,77
2,741728, Note_on_c,0,88,82
2,741740, Control_c,0,64,72
2,741752, Control_c,0,64,127
2,741816, Note_on_c,0,81,75
2,741820, Note_on_c,0,88,0
2,741824, Note_on_c,0,85,0
2,741832, Note_on_c,0,93,0
2,741856, Note_on_c,0,81,0
2,741904, Note_on_c,0,81,54
2,741908, Note_on_c,0,73,57
2,741908, Note_on_c,0,76,64
2,741964, Note_on_c,0,81,0
2,741980, Note_on_c,0,76,0
2,741988, Note_on_c,0,69,72
2,742000, Note_on_c,0,73,0
2,742024, Note_on_c,0,69,0
2,742084, Note_on_c,0,64,67
2,742088, Note_on_c,0,61,62
2,742144, Note_on_c,0,61,0
2,742144, Note_on_c,0,64,0
2,742160, Note_on_c,0,53,70
2,742204, Note_on_c,0,53,0
2,742260, Note_on_c,0,64,70
2,742260, Note_on_c,0,61,64
2,742264, Note_on_c,0,69,84
2,742340, Note_on_c,0,57,74
2,742344, Note_on_c,0,64,0
2,742364, Note_on_c,0,61,0
2,742384, Note_on_c,0,57,0
2,742424, Note_on_c,0,69,0
2,742440, Note_on_c,0,49,67
2,742444, Note_on_c,0,52,64
2,742540, Note_on_c,0,52,0
2,742540, Note_on_c,0,49,0
2,742540, Note_on_c,0,41,78
2,742580, Note_on_c,0,41,0
2,742720, Control_c,0,64,88
2,742732, Control_c,0,64,56
2,742740, Control_c,0,64,40
2,742752, Control_c,0,64,0
2,742820, Note_on_c,0,94,91
2,742824, Note_on_c,0,86,78
2,742824, Control_c,0,64,24
2,742828, Note_on_c,0,89,79
2,742836, Control_c,0,64,88
2,742844, Control_c,0,64,127
2,742908, Note_on_c,0,86,0
2,742912, Note_on_c,0,89,0
2,742912, Note_on_c,0,94,0
2,742912, Note_on_c,0,82,77
2,742948, Note_on_c,0,82,0
2,742992, Note_on_c,0,77,78
2,742992, Note_on_c,0,74,66
2,743024, Note_on_c,0,74,0
2,743024, Note_on_c,0,77,0
2,743100, Note_on_c,0,82,81
2,743104, Note_on_c,0,74,75
2,743104, Note_on_c,0,77,77
2,743152, Note_on_c,0,74,0
2,743168, Note_on_c,0,77,0
2,743180, Note_on_c,0,70,69
2,743188, Note_on_c,0,82,0
2,743220, Note_on_c,0,70,0
2,743280, Note_on_c,0,65,72
2,743284, Note_on_c,0,62,69
2,743304, Note_on_c,0,62,0
2,743312, Note_on_c,0,65,0
2,743384, Note_on_c,0,95,93
2,743384, Note_on_c,0,87,80
2,743384, Note_on_c,0,90,75
2,743384, Control_c,0,64,88
2,743392, Control_c,0,64,24
2,743400, Control_c,0,64,0
2,743440, Control_c,0,64,56
2,743448, Control_c,0,64,104
2,743456, Control_c,0,64,127
2,743460, Note_on_c,0,87,0
2,743464, Note_on_c,0,95,0
2,743468, Note_on_c,0,90,0
2,743468, Note_on_c,0,83,77
2,743512, Note_on_c,0,83,0
2,743556, Note_on_c,0,75,65
2,743572, Note_on_c,0,75,0
2,743572, Note_on_c,0,78,48
2,743588, Note_on_c,0,78,0
2,743648, Note_on_c,0,83,82
2,743648, Note_on_c,0,78,68
2,743648, Note_on_c,0,75,70
2,743700, Note_on_c,0,75,0
2,743708, Note_on_c,0,78,0
2,743720, Note_on_c,0,71,64
2,743744, Note_on_c,0,83,0
2,743756, Note_on_c,0,71,0
2,743792, Note_on_c,0,66,53
2,743792, Note_on_c,0,63,53
2,743888, Note_on_c,0,63,0
2,743888, Note_on_c,0,66,0
2,743916, Note_on_c,0,96,92
2,743916, Note_on_c,0,88,76
2,743920, Note_on_c,0,91,78
2,743920, Control_c,0,64,72
2,743928, Control_c,0,64,24
2,743936, Control_c,0,64,0
2,743956, Control_c,0,64,56
2,743968, Control_c,0,64,104
2,743976, Control_c,0,64,127
2,743996, Note_on_c,0,84,80
2,744000, Note_on_c,0,88,0
2,744000, Note_on_c,0,96,0
2,744004, Note_on_c,0,91,0
2,744040, Note_on_c,0,84,0
2,744080, Note_on_c,0,79,84
2,744088, Note_on_c,0,76,69
2,744116, Note_on_c,0,76,0
2,744116, Note_on_c,0,79,0
2,744184, Note_on_c,0,84,74
2,744184, Note_on_c,0,79,68
2,744188, Note_on_c,0,76,66
2,744256, Note_on_c,0,76,0
2,744256, Note_on_c,0,84,0
2,744264, Note_on_c,0,79,0
2,744264, Note_on_c,0,72,72
2,744288, Note_on_c,0,72,0
2,744352, Note_on_c,0,67,67
2,744356, Note_on_c,0,64,71
2,744388, Note_on_c,0,64,0
2,744392, Note_on_c,0,67,0
2,744448, Control_c,0,64,72
2,744456, Control_c,0,64,24
2,744460, Note_on_c,0,97,89
2,744460, Note_on_c,0,92,85
2,744460, Note_on_c,0,89,86
2,744468, Control_c,0,64,0
2,744496, Control_c,0,64,40
2,744504, Control_c,0,64,88
2,744516, Control_c,0,64,127
2,744528, Note_on_c,0,89,0
2,744540, Note_on_c,0,92,0
2,744540, Note_on_c,0,97,0
2,744544, Note_on_c,0,85,71
2,744584, Note_on_c,0,85,0
2,744628, Note_on_c,0,80,71
2,744632, Note_on_c,0,77,69
2,744652, Note_on_c,0,77,0
2,744660, Note_on_c,0,80,0
2,744728, Note_on_c,0,85,77
2,744732, Note_on_c,0,80,61
2,744736, Note_on_c,0,77,78
2,744780, Note_on_c,0,77,0
2,744804, Note_on_c,0,73,68
2,744808, Note_on_c,0,80,0
2,744836, Note_on_c,0,85,0
2,744840, Note_on_c,0,73,0
2,744892, Note_on_c,0,68,64
2,744900, Note_on_c,0,65,69
2,744916, Note_on_c,0,65,0
2,744928, Note_on_c,0,68,0
2,744996, Control_c,0,64,88
2,745000, Note_on_c,0,98,92
2,745004, Note_on_c,0,90,73
2,745004, Note_on_c,0,93,83
2,745004, Control_c,0,64,40
2,745012, Control_c,0,64,0
2,745060, Control_c,0,64,40
2,745068, Control_c,0,64,88
2,745080, Note_on_c,0,93,0
2,745080, Control_c,0,64,127
2,745088, Note_on_c,0,86,70
2,745096, Note_on_c,0,90,0
2,745116, Note_on_c,0,98,0
2,745144, Note_on_c,0,86,0
2,745176, Note_on_c,0,78,65
2,745184, Note_on_c,0,81,49
2,745216, Note_on_c,0,81,0
2,745216, Note_on_c,0,78,0
2,745280, Note_on_c,0,99,95
2,745284, Note_on_c,0,94,84
2,745288, Note_on_c,0,91,82
2,745296, Control_c,0,64,104
2,745304, Control_c,0,64,88
2,745332, Control_c,0,64,127
2,745336, Note_on_c,0,91,0
2,745360, Note_on_c,0,94,0
2,745364, Note_on_c,0,87,83
2,745400, Note_on_c,0,99,0
2,745424, Note_on_c,0,87,0
2,745452, Note_on_c,0,82,70
2,745452, Note_on_c,0,79,72
2,745488, Note_on_c,0,79,0
2,745488, Note_on_c,0,82,0
2,745544, Note_on_c,0,100,96
2,745544, Note_on_c,0,92,83
2,745548, Note_on_c,0,95,86
2,745616, Note_on_c,0,92,0
2,745624, Note_on_c,0,95,0
2,745628, Note_on_c,0,88,74
2,745640, Note_on_c,0,100,0
2,745672, Control_c,0,64,88
2,745680, Control_c,0,64,56
2,745692, Note_on_c,0,88,0
2,745692, Control_c,0,64,40
2,745700, Note_on_c,0,80,73
2,745704, Note_on_c,0,83,86
2,745708, Control_c,0,64,72
2,745720, Control_c,0,64,127
2,745740, Note_on_c,0,83,0
2,745744, Note_on_c,0,80,0
2,745804, Note_on_c,0,101,88
2,745804, Note_on_c,0,96,82
2,745804, Note_on_c,0,93,83
2,745816, Note_on_c,0,94,36
2,745832, Note_on_c,0,94,0
2,745880, Note_on_c,0,93,0
2,745884, Note_on_c,0,96,0
2,745884, Note_on_c,0,89,81
2,745892, Note_on_c,0,101,0
2,745944, Note_on_c,0,89,0
2,745964, Control_c,0,64,88
2,745976, Note_on_c,0,84,86
2,745976, Note_on_c,0,81,77
2,745976, Control_c,0,64,40
2,745984, Control_c,0,64,24
2,746004, Control_c,0,64,72
2,746012, Control_c,0,64,104
2,746020, Control_c,0,64,127
2,746032, Note_on_c,0,81,0
2,746032, Note_on_c,0,84,0
2,746068, Note_on_c,0,102,88
2,746068, Note_on_c,0,97,81
2,746072, Note_on_c,0,94,81
2,746140, Note_on_c,0,94,0
2,746148, Note_on_c,0,97,0
2,746152, Note_on_c,0,90,77
2,746172, Note_on_c,0,102,0
2,746216, Note_on_c,0,90,0
2,746228, Control_c,0,64,88
2,746232, Note_on_c,0,85,80
2,746232, Note_on_c,0,82,73
2,746236, Control_c,0,64,56
2,746268, Control_c,0,64,127
2,746288, Note_on_c,0,85,0
2,746292, Note_on_c,0,82,0
2,746328, Note_on_c,0,103,96
2,746332, Note_on_c,0,95,85
2,746332, Note_on_c,0,98,83
2,746404, Note_on_c,0,98,0
2,746404, Note_on_c,0,95,0
2,746408, Note_on_c,0,91,78
2,746412, Note_on_c,0,103,0
2,746464, Note_on_c,0,91,0
2,746488, Note_on_c,0,83,81
2,746488, Note_on_c,0,86,82
2,746540, Note_on_c,0,86,0
2,746544, Note_on_c,0,83,0
2,746580, Note_on_c,0,104,92
2,746580, Note_on_c,0,99,85
2,746588, Note_on_c,0,96,82
2,746628, Note_on_c,0,96,0
2,746656, Note_on_c,0,99,0
2,746664, Note_on_c,0,92,86
2,746692, Note_on_c,0,104,0
2,746736, Note_on_c,0,92,0
2,746752, Note_on_c,0,87,78
2,746756, Note_on_c,0,84,76
2,746816, Note_on_c,0,84,0
2,746816, Note_on_c,0,87,0
2,746836, Note_on_c,0,105,97
2,746840, Note_on_c,0,97,81
2,746840, Note_on_c,0,100,88
2,746936, Note_on_c,0,97,0
2,746940, Note_on_c,0,100,0
2,746940, Note_on_c,0,93,82
2,746944, Note_on_c,0,105,0
2,747000, Note_on_c,0,93,0
2,747000, Note_on_c,0,85,71
2,747008, Note_on_c,0,88,76
2,747044, Note_on_c,0,88,0
2,747060, Note_on_c,0,85,0
2,747104, Control_c,0,64,88
2,747116, Control_c,0,64,24
2,747124, Control_c,0,64,0
2,747140, Note_on_c,0,106,103
2,747140, Note_on_c,0,94,103
2,747144, Note_on_c,0,102,82
2,747144, Note_on_c,0,97,85
2,747148, Note_on_c,0,90,85
2,747152, Note_on_c,0,82,75
2,747152, Note_on_c,0,85,55
2,747152, Control_c,0,64,40
2,747164, Control_c,0,64,104
2,747172, Control_c,0,64,127
2,747176, Note_on_c,0,85,0
2,747184, Note_on_c,0,97,0
2,747184, Note_on_c,0,102,0
2,747184, Note_on_c,0,90,0
2,747188, Note_on_c,0,94,0
2,747192, Note_on_c,0,82,0
2,747192, Note_on_c,0,106,0
2,749452, Control_c,0,64,72
2,749468, Control_c,0,64,127
2,749764, Control_c,0,64,24
2,749780, Control_c,0,64,0
2,749796, Note_on_c,0,42,69
2,749808, Note_on_c,0,70,72
2,749832, Note_on_c,0,42,0
2,749840, Control_c,0,64,56
2,749852, Note_on_c,0,49,70
2,749856, Control_c,0,64,127
2,749864, Note_on_c,0,73,78
2,749916, Note_on_c,0,70,0
2,749920, Note_on_c,0,78,80
2,749924, Note_on_c,0,54,70
2,749932, Note_on_c,0,49,0
2,749972, Note_on_c,0,73,0
2,749972, Note_on_c,0,58,86
2,749984, Note_on_c,0,82,97
2,749988, Note_on_c,0,54,0
2,750008, Note_on_c,0,78,0
2,750012, Note_on_c,0,58,0
2,750036, Note_on_c,0,82,0
2,750676, Control_c,0,64,88
2,750692, Control_c,0,64,56
2,750708, Control_c,0,64,24
2,750724, Control_c,0,64,0
2,750936, Note_on_c,0,42,70
2,750940, Control_c,0,64,72
2,750956, Control_c,0,64,127
2,750964, Note_on_c,0,70,57
2,750984, Note_on_c,0,42,0
2,750984, Note_on_c,0,49,60
2,751000, Note_on_c,0,73,63
2,751044, Note_on_c,0,54,65
2,751052, Note_on_c,0,78,74
2,751068, Note_on_c,0,49,0
2,751072, Note_on_c,0,70,0
2,751084, Note_on_c,0,82,93
2,751088, Note_on_c,0,58,77
2,751096, Note_on_c,0,73,0
2,751104, Note_on_c,0,54,0
2,751116, Note_on_c,0,78,0
2,751132, Note_on_c,0,58,0
2,751140, Note_on_c,0,82,0
2,751696, Control_c,0,64,40
2,751716, Control_c,0,64,0
2,751796, Note_on_c,0,42,70
2,751808, Control_c,0,64,56
2,751816, Note_on_c,0,70,69
2,751824, Note_on_c,0,49,67
2,751824, Control_c,0,64,127
2,751832, Note_on_c,0,42,0
2,751844, Note_on_c,0,73,71
2,751884, Note_on_c,0,78,73
2,751884, Note_on_c,0,54,69
2,751900, Note_on_c,0,70,0
2,751904, Note_on_c,0,49,0
2,751916, Note_on_c,0,82,90
2,751920, Note_on_c,0,73,0
2,751920, Note_on_c,0,58,78
2,751944, Note_on_c,0,78,0
2,751954, Note_on_c,0,54,0
2,751980, Note_on_c,0,82,0
2,751990, Note_on_c,0,58,0
2,752304, Control_c,0,64,40
2,752316, Note_on_c,0,42,70
2,752320, Control_c,0,64,0
2,752356, Note_on_c,0,42,0
2,752368, Note_on_c,0,70,69
2,752368, Note_on_c,0,49,69
2,752392, Note_on_c,0,73,68
2,752396, Control_c,0,64,127
2,752416, Note_on_c,0,54,69
2,752436, Note_on_c,0,49,0
2,752436, Note_on_c,0,78,75
2,752444, Note_on_c,0,70,0
2,752472, Note_on_c,0,58,77
2,752476, Note_on_c,0,82,91
2,752484, Note_on_c,0,73,0
2,752488, Note_on_c,0,54,0
2,752500, Note_on_c,0,78,0
2,752516, Note_on_c,0,58,0
2,752528, Note_on_c,0,82,0
2,752844, Control_c,0,64,88
2,752848, Note_on_c,0,42,68
2,752860, Control_c,0,64,0
2,752896, Note_on_c,0,70,64
2,752904, Note_on_c,0,49,69
2,752912, Note_on_c,0,42,0
2,752924, Note_on_c,0,73,71
2,752924, Control_c,0,64,72
2,752940, Control_c,0,64,127
2,752960, Note_on_c,0,78,77
2,752964, Note_on_c,0,54,70
2,752980, Note_on_c,0,70,0
2,752992, Note_on_c,0,49,0
2,752992, Note_on_c,0,82,95
2,753004, Note_on_c,0,73,0
2,753004, Note_on_c,0,58,69
2,753016, Note_on_c,0,54,0
2,753028, Note_on_c,0,78,0
2,753044, Note_on_c,0,58,0
2,753048, Note_on_c,0,82,0
2,753340, Control_c,0,64,88
2,753348, Note_on_c,0,42,70
2,753360, Control_c,0,64,0
2,753404, Note_on_c,0,49,71
2,753408, Note_on_c,0,70,70
2,753416, Note_on_c,0,42,0
2,753420, Control_c,0,64,88
2,753436, Control_c,0,64,127
2,753456, Note_on_c,0,73,65
2,753468, Note_on_c,0,54,68
2,753484, Note_on_c,0,49,0
2,753488, Note_on_c,0,78,75
2,753508, Note_on_c,0,70,0
2,753508, Note_on_c,0,54,0
2,753508, Note_on_c,0,58,75
2,753520, Note_on_c,0,82,91
2,753528, Note_on_c,0,73,0
2,753548, Note_on_c,0,78,0
2,753556, Note_on_c,0,58,0
2,753588, Note_on_c,0,82,0
2,753676, Note_on_c,0,42,70
2,753712, Control_c,0,64,56
2,753728, Control_c,0,64,0
2,753736, Note_on_c,0,70,73
2,753736, Note_on_c,0,49,71
2,753756, Note_on_c,0,42,0
2,753760, Control_c,0,64,56
2,753772, Note_on_c,0,73,70
2,753776, Control_c,0,64,127
2,753800, Note_on_c,0,54,70
2,753812, Note_on_c,0,78,76
2,753828, Note_on_c,0,49,0
2,753828, Note_on_c,0,70,0
2,753836, Note_on_c,0,58,83
2,753852, Note_on_c,0,54,0
2,753852, Note_on_c,0,82,95
2,753860, Note_on_c,0,73,0
2,753876, Note_on_c,0,58,0
2,753880, Note_on_c,0,78,0
2,753908, Note_on_c,0,82,0
2,754264, Note_on_c,0,42,75
2,754316, Note_on_c,0,49,85
2,754316, Control_c,0,64,0
2,754364, Note_on_c,0,49,0
2,754372, Note_on_c,0,42,0
2,754372, Note_on_c,0,54,87
2,754408, Control_c,0,64,127
2,754452, Note_on_c,0,58,90
2,754472, Note_on_c,0,54,0
2,754540, Note_on_c,0,58,0
2,754908, Note_on_c,0,42,74
2,754924, Control_c,0,64,40
2,754940, Control_c,0,64,0
2,754980, Note_on_c,0,42,0
2,754980, Note_on_c,0,49,73
2,755000, Control_c,0,64,40
2,755016, Control_c,0,64,127
2,755044, Note_on_c,0,54,82
2,755060, Note_on_c,0,49,0
2,755140, Note_on_c,0,54,0
2,755140, Note_on_c,0,58,88
2,755196, Note_on_c,0,58,0
2,755632, Note_on_c,0,42,79
2,755760, Control_c,0,64,72
2,755766, Note_on_c,0,49,80
2,755776, Control_c,0,64,56
2,755788, Note_on_c,0,42,0
2,755788, Control_c,0,64,88
2,755804, Control_c,0,64,127
2,755866, Note_on_c,0,49,0
2,755882, Note_on_c,0,54,86
2,756012, Note_on_c,0,58,89
2,756030, Note_on_c,0,54,0
2,756248, Note_on_c,0,58,0
2,756580, Note_on_c,0,42,70
2,756736, Note_on_c,0,42,0
2,756764, Note_on_c,0,49,68
2,756840, Note_on_c,0,49,0
2,756928, Note_on_c,0,54,66
2,757036, Note_on_c,0,54,0
2,757072, Note_on_c,0,58,64
2,757108, Note_on_c,0,58,0
2,757200, Note_on_c,0,42,70
2,757312, Note_on_c,0,42,0
2,757352, Note_on_c,0,49,68
2,757428, Note_on_c,0,49,0
2,757492, Note_on_c,0,54,66
2,757608, Note_on_c,0,54,0
2,757640, Note_on_c,0,58,62
2,757672, Note_on_c,0,58,0
2,757768, Note_on_c,0,42,69
2,757880, Note_on_c,0,42,0
2,757920, Note_on_c,0,49,67
2,758000, Note_on_c,0,49,0
2,758060, Note_on_c,0,54,49
2,758168, Note_on_c,0,54,0
2,758192, Note_on_c,0,58,45
2,758232, Note_on_c,0,58,0
2,758332, Note_on_c,0,42,64
2,758432, Note_on_c,0,42,0
2,758476, Note_on_c,0,49,65
2,758556, Note_on_c,0,49,0
2,758628, Note_on_c,0,54,53
2,758724, Note_on_c,0,54,0
2,758764, Note_on_c,0,58,48
2,758804, Note_on_c,0,58,0
2,758896, Note_on_c,0,42,51
2,758996, Note_on_c,0,42,0
2,759060, Note_on_c,0,49,58
2,759136, Note_on_c,0,49,0
2,759228, Note_on_c,0,54,57
2,759344, Note_on_c,0,54,0
2,759392, Note_on_c,0,64,80
2,759396, Note_on_c,0,58,45
2,759452, Note_on_c,0,58,0
2,759552, Note_on_c,0,42,50
2,759648, Note_on_c,0,42,0
2,759712, Note_on_c,0,49,58
2,759796, Note_on_c,0,49,0
2,759876, Note_on_c,0,54,46
2,759972, Note_on_c,0,54,0
2,760000, Note_on_c,0,64,0
2,760012, Note_on_c,0,60,80
2,760012, Note_on_c,0,58,45
2,760044, Note_on_c,0,58,0
2,760164, Note_on_c,0,42,57
2,760280, Note_on_c,0,42,0
2,760308, Note_on_c,0,49,69
2,760384, Note_on_c,0,49,0
2,760472, Note_on_c,0,54,45
2,760520, Note_on_c,0,54,0
2,760596, Note_on_c,0,61,80
2,760600, Note_on_c,0,60,0
2,760612, Note_on_c,0,58,45
2,760636, Note_on_c,0,58,0
2,760752, Note_on_c,0,42,58
2,760852, Note_on_c,0,42,0
2,760892, Note_on_c,0,49,66
2,760968, Note_on_c,0,49,0
2,761052, Note_on_c,0,54,52
2,761140, Note_on_c,0,54,0
2,761192, Note_on_c,0,61,0
2,761208, Note_on_c,0,58,52
2,761228, Note_on_c,0,64,78
2,761240, Note_on_c,0,58,0
2,761380, Note_on_c,0,42,66
2,761512, Control_c,0,64,88
2,761524, Control_c,0,64,24
2,761536, Control_c,0,64,0
2,761596, Note_on_c,0,47,68
2,761600, Note_on_c,0,42,0
2,761608, Control_c,0,64,40
2,761620, Control_c,0,64,127
2,761696, Note_on_c,0,47,0
2,761768, Note_on_c,0,64,0
2,761808, Note_on_c,0,54,55
2,761920, Note_on_c,0,54,0
2,761940, Note_on_c,0,78,72
2,761956, Note_on_c,0,59,62
2,761984, Note_on_c,0,59,0
2,761988, Note_on_c,0,78,0
2,762084, Note_on_c,0,42,60
2,762216, Note_on_c,0,42,0
2,762224, Note_on_c,0,62,78
2,762236, Control_c,0,64,88
2,762248, Note_on_c,0,47,69
2,762248, Control_c,0,64,24
2,762260, Control_c,0,64,0
2,762288, Control_c,0,64,24
2,762300, Control_c,0,64,72
2,762308, Note_on_c,0,47,0
2,762312, Control_c,0,64,127
2,762364, Note_on_c,0,54,67
2,762464, Note_on_c,0,54,0
2,762504, Note_on_c,0,59,60
2,762516, Note_on_c,0,71,69
2,762544, Note_on_c,0,59,0
2,762556, Note_on_c,0,62,0
2,762656, Note_on_c,0,42,62
2,762708, Note_on_c,0,71,0
2,762792, Note_on_c,0,42,0
2,762792, Note_on_c,0,61,76
2,762824, Note_on_c,0,47,67
2,762844, Control_c,0,64,56
2,762860, Control_c,0,64,0
2,762896, Note_on_c,0,47,0
2,762908, Control_c,0,64,56
2,762920, Control_c,0,64,127
2,762956, Note_on_c,0,54,53
2,763056, Note_on_c,0,54,0
2,763068, Note_on_c,0,61,0
2,763092, Note_on_c,0,66,67
2,763216, Note_on_c,0,42,50
2,763352, Note_on_c,0,66,0
2,763356, Note_on_c,0,42,0
2,763360, Note_on_c,0,62,74
2,763376, Control_c,0,64,104
2,763388, Note_on_c,0,47,63
2,763388, Control_c,0,64,40
2,763404, Control_c,0,64,0
2,763440, Control_c,0,64,40
2,763448, Note_on_c,0,47,0
2,763452, Control_c,0,64,104
2,763464, Control_c,0,64,127
2,763516, Note_on_c,0,54,52
2,763612, Note_on_c,0,54,0
2,763644, Note_on_c,0,59,62
2,763676, Note_on_c,0,71,62
2,763684, Note_on_c,0,59,0
2,763712, Note_on_c,0,62,0
2,763768, Note_on_c,0,71,0
2,763824, Note_on_c,0,43,64
2,763972, Control_c,0,64,56
2,763984, Control_c,0,64,0
2,764016, Note_on_c,0,50,66
2,764036, Note_on_c,0,43,0
2,764048, Control_c,0,64,72
2,764060, Control_c,0,64,127
2,764104, Note_on_c,0,50,0
2,764180, Note_on_c,0,55,64
2,764312, Note_on_c,0,55,0
2,764368, Note_on_c,0,59,60
2,764388, Note_on_c,0,65,80
2,764452, Note_on_c,0,59,0
2,764568, Note_on_c,0,43,63
2,764656, Note_on_c,0,43,0
2,764700, Note_on_c,0,50,64
2,764792, Note_on_c,0,50,0
2,764836, Note_on_c,0,55,63
2,764944, Note_on_c,0,55,0
2,764972, Note_on_c,0,65,0
2,764976, Note_on_c,0,61,78
2,764984, Note_on_c,0,59,60
2,765020, Note_on_c,0,59,0
2,765128, Note_on_c,0,43,64
2,765204, Note_on_c,0,43,0
2,765264, Note_on_c,0,50,65
2,765324, Note_on_c,0,50,0
2,765388, Note_on_c,0,55,64
2,765476, Note_on_c,0,55,0
2,765524, Note_on_c,0,59,62
2,765536, Note_on_c,0,61,0
2,765536, Note_on_c,0,62,80
2,765564, Note_on_c,0,59,0
2,765564, Control_c,0,64,104
2,765576, Control_c,0,64,56
2,765588, Control_c,0,64,0
2,765624, Control_c,0,64,88
2,765636, Control_c,0,64,127
2,765684, Note_on_c,0,43,65
2,765756, Note_on_c,0,43,0
2,765820, Note_on_c,0,50,66
2,765888, Note_on_c,0,50,0
2,765952, Note_on_c,0,55,65
2,766056, Note_on_c,0,55,0
2,766068, Note_on_c,0,62,0
2,766108, Note_on_c,0,65,84
2,766116, Note_on_c,0,59,63
2,766132, Note_on_c,0,59,0
2,766260, Note_on_c,0,43,68
2,766380, Note_on_c,0,43,0
2,766400, Control_c,0,64,88
2,766412, Control_c,0,64,0
2,766436, Note_on_c,0,48,70
2,766460, Control_c,0,64,24
2,766472, Control_c,0,64,104
2,766484, Control_c,0,64,127
2,766548, Note_on_c,0,48,0
2,766604, Note_on_c,0,55,60
2,766724, Note_on_c,0,55,0
2,766780, Note_on_c,0,79,75
2,766780, Note_on_c,0,60,57
2,766788, Note_on_c,0,65,0
2,766828, Note_on_c,0,60,0
2,766836, Note_on_c,0,79,0
2,766916, Note_on_c,0,43,67
2,767004, Note_on_c,0,43,0
2,767068, Note_on_c,0,63,80
2,767076, Note_on_c,0,48,73
2,767084, Control_c,0,64,104
2,767096, Control_c,0,64,40
2,767112, Control_c,0,64,0
2,767124, Control_c,0,64,40
2,767136, Control_c,0,64,72
2,767148, Control_c,0,64,127
2,767156, Note_on_c,0,48,0
2,767204, Note_on_c,0,55,54
2,767284, Note_on_c,0,55,0
2,767348, Note_on_c,0,63,0
2,767356, Note_on_c,0,60,52
2,767356, Note_on_c,0,72,72
2,767384, Note_on_c,0,60,0
2,767480, Note_on_c,0,43,60
2,767508, Note_on_c,0,72,0
2,767552, Note_on_c,0,43,0
2,767624, Note_on_c,0,62,77
2,767628, Note_on_c,0,48,68
2,767640, Control_c,0,64,88
2,767652, Control_c,0,64,24
2,767664, Control_c,0,64,0
2,767676, Control_c,0,64,40
2,767688, Control_c,0,64,88
2,767700, Control_c,0,64,127
2,767728, Note_on_c,0,48,0
2,767760, Note_on_c,0,55,72
2,767856, Note_on_c,0,55,0
2,767856, Note_on_c,0,62,0
2,767900, Note_on_c,0,67,73
2,767900, Note_on_c,0,60,62
2,767968, Note_on_c,0,60,0
2,768032, Note_on_c,0,43,68
2,768100, Note_on_c,0,43,0
2,768184, Note_on_c,0,67,0
2,768192, Note_on_c,0,63,75
2,768200, Note_on_c,0,48,69
2,768228, Control_c,0,64,88
2,768240, Control_c,0,64,24
2,768252, Control_c,0,64,0
2,768264, Control_c,0,64,24
2,768276, Control_c,0,64,72
2,768288, Note_on_c,0,48,0
2,768288, Control_c,0,64,127
2,768356, Note_on_c,0,55,55
2,768436, Note_on_c,0,55,0
2,768488, Note_on_c,0,63,0
2,768500, Note_on_c,0,60,52
2,768508, Note_on_c,0,72,71
2,768536, Note_on_c,0,60,0
2,768632, Note_on_c,0,44,75
2,768784, Control_c,0,64,88
2,768800, Control_c,0,64,0
2,768812, Note_on_c,0,72,0
2,768816, Note_on_c,0,66,80
2,768828, Note_on_c,0,51,73
2,768848, Note_on_c,0,44,0
2,768860, Control_c,0,64,88
2,768868, Control_c,0,64,127
2,768936, Note_on_c,0,51,0
2,768972, Note_on_c,0,56,69
2,769064, Note_on_c,0,56,0
2,769108, Note_on_c,0,60,50
2,769132, Note_on_c,0,60,0
2,769132, Note_on_c,0,80,80
2,769148, Note_on_c,0,66,0
2,769232, Note_on_c,0,44,58
2,769240, Note_on_c,0,80,0
2,769376, Note_on_c,0,44,0
2,769404, Note_on_c,0,65,80
2,769412, Note_on_c,0,49,68
2,769440, Control_c,0,64,104
2,769452, Control_c,0,64,40
2,769464, Control_c,0,64,0
2,769476, Note_on_c,0,49,0
2,769500, Control_c,0,64,56
2,769508, Control_c,0,64,127
2,769524, Note_on_c,0,56,68
2,769620, Note_on_c,0,56,0
2,769676, Note_on_c,0,73,67
2,769676, Note_on_c,0,61,50
2,769712, Note_on_c,0,61,0
2,769728, Note_on_c,0,65,0
2,769772, Note_on_c,0,44,60
2,769912, Note_on_c,0,44,0
2,769924, Note_on_c,0,73,0
2,769936, Note_on_c,0,64,78
2,769940, Note_on_c,0,49,68
2,769976, Control_c,0,64,72
2,769988, Control_c,0,64,40
2,770000, Control_c,0,64,56
2,770012, Control_c,0,64,104
2,770024, Note_on_c,0,49,0
2,770024, Control_c,0,64,127
2,770072, Note_on_c,0,56,52
2,770152, Note_on_c,0,56,0
2,770176, Note_on_c,0,64,0
2,770184, Note_on_c,0,68,68
2,770188, Note_on_c,0,61,48
2,770212, Note_on_c,0,61,0
2,770296, Note_on_c,0,44,52
2,770380, Note_on_c,0,44,0
2,770436, Note_on_c,0,49,66
2,770472, Note_on_c,0,65,80
2,770496, Control_c,0,64,88
2,770500, Note_on_c,0,68,0
2,770508, Control_c,0,64,40
2,770516, Note_on_c,0,49,0
2,770520, Control_c,0,64,56
2,770532, Control_c,0,64,104
2,770544, Control_c,0,64,127
2,770564, Note_on_c,0,56,55
2,770664, Note_on_c,0,56,0
2,770692, Note_on_c,0,61,55
2,770736, Note_on_c,0,73,82
2,770748, Note_on_c,0,61,0
2,770748, Note_on_c,0,65,0
2,770836, Note_on_c,0,46,70
2,770968, Note_on_c,0,46,0
2,770992, Note_on_c,0,73,0
2,770992, Note_on_c,0,68,82
2,771008, Note_on_c,0,53,72
2,771016, Control_c,0,64,40
2,771028, Control_c,0,64,0
2,771064, Control_c,0,64,72
2,771076, Control_c,0,64,127
2,771084, Note_on_c,0,53,0
2,771116, Note_on_c,0,58,70
2,771216, Note_on_c,0,58,0
2,771268, Note_on_c,0,82,82
2,771268, Note_on_c,0,62,68
2,771336, Note_on_c,0,62,0
2,771368, Note_on_c,0,82,0
2,771372, Note_on_c,0,46,69
2,771408, Note_on_c,0,68,0
2,771520, Note_on_c,0,46,0
2,771524, Note_on_c,0,67,80
2,771536, Note_on_c,0,51,72
2,771552, Control_c,0,64,104
2,771564, Control_c,0,64,40
2,771576, Control_c,0,64,0
2,771608, Note_on_c,0,51,0
2,771612, Control_c,0,64,40
2,771624, Control_c,0,64,127
2,771644, Note_on_c,0,58,68
2,771748, Note_on_c,0,58,0
2,771780, Note_on_c,0,63,66
2,771800, Note_on_c,0,67,0
2,771804, Note_on_c,0,75,68
2,771816, Note_on_c,0,63,0
2,771904, Note_on_c,0,46,69
2,772020, Note_on_c,0,46,0
2,772024, Note_on_c,0,75,0
2,772048, Note_on_c,0,66,78
2,772060, Note_on_c,0,51,66
2,772072, Control_c,0,64,56
2,772084, Control_c,0,64,0
2,772120, Control_c,0,64,40
2,772132, Note_on_c,0,51,0
2,772132, Control_c,0,64,104
2,772144, Control_c,0,64,127
2,772176, Note_on_c,0,58,62
2,772272, Note_on_c,0,58,0
2,772312, Note_on_c,0,66,0
2,772312, Note_on_c,0,63,55
2,772316, Note_on_c,0,70,72
2,772364, Note_on_c,0,63,0
2,772416, Note_on_c,0,46,68
2,772532, Note_on_c,0,46,0
2,772552, Note_on_c,0,70,0
2,772564, Note_on_c,0,67,76
2,772568, Note_on_c,0,51,70
2,772584, Control_c,0,64,88
2,772596, Control_c,0,64,40
2,772632, Control_c,0,64,104
2,772644, Control_c,0,64,127
2,772648, Note_on_c,0,51,0
2,772696, Note_on_c,0,58,67
2,772784, Note_on_c,0,58,0
2,772816, Note_on_c,0,63,64
2,772836, Note_on_c,0,67,0
2,772836, Note_on_c,0,75,82
2,772864, Note_on_c,0,63,0
2,772968, Note_on_c,0,48,69
2,773080, Control_c,0,64,40
2,773092, Note_on_c,0,48,0
2,773092, Control_c,0,64,0
2,773104, Note_on_c,0,75,0
2,773116, Note_on_c,0,70,83
2,773116, Control_c,0,64,40
2,773128, Control_c,0,64,104
2,773132, Note_on_c,0,55,60
2,773144, Control_c,0,64,127
2,773216, Note_on_c,0,55,0
2,773220, Note_on_c,0,70,0
2,773272, Note_on_c,0,60,53
2,773340, Note_on_c,0,60,0
2,773384, Note_on_c,0,64,67
2,773388, Note_on_c,0,84,70
2,773412, Note_on_c,0,64,0
2,773440, Note_on_c,0,84,0
2,773516, Note_on_c,0,48,57
2,773576, Note_on_c,0,48,0
2,773644, Note_on_c,0,68,81
2,773648, Note_on_c,0,53,70
2,773660, Control_c,0,64,104
2,773672, Control_c,0,64,56
2,773684, Control_c,0,64,40
2,773696, Control_c,0,64,72
2,773712, Control_c,0,64,127
2,773736, Note_on_c,0,53,0
2,773764, Note_on_c,0,68,0
2,773768, Note_on_c,0,60,60
2,773848, Note_on_c,0,60,0
2,773920, Note_on_c,0,77,73
2,773920, Note_on_c,0,69,65
2,773920, Note_on_c,0,65,55
2,773956, Note_on_c,0,65,0
2,773964, Note_on_c,0,69,0
2,773980, Note_on_c,0,77,0
2,774060, Note_on_c,0,50,63
2,774152, Note_on_c,0,50,0
2,774192, Note_on_c,0,72,88
2,774196, Control_c,0,64,104
2,774208, Control_c,0,64,40
2,774212, Note_on_c,0,57,55
2,774232, Control_c,0,64,72
2,774244, Control_c,0,64,127
2,774276, Note_on_c,0,57,0
2,774284, Note_on_c,0,72,0
2,774300, Note_on_c,0,62,62
2,774400, Note_on_c,0,62,0
2,774468, Note_on_c,0,86,81
2,774468, Note_on_c,0,66,60
2,774524, Note_on_c,0,86,0
2,774536, Note_on_c,0,66,0
2,774592, Note_on_c,0,50,56
2,774708, Note_on_c,0,50,0
2,774736, Note_on_c,0,70,78
2,774748, Note_on_c,0,55,58
2,774756, Control_c,0,64,72
2,774768, Control_c,0,64,24
2,774780, Control_c,0,64,40
2,774792, Control_c,0,64,88
2,774804, Control_c,0,64,127
2,774832, Note_on_c,0,55,0
2,774876, Note_on_c,0,70,0
2,774908, Note_on_c,0,62,55
2,774968, Note_on_c,0,62,0
2,775020, Note_on_c,0,79,79
2,775024, Note_on_c,0,71,56
2,775064, Note_on_c,0,71,0
2,775084, Note_on_c,0,79,0
2,775140, Note_on_c,0,49,67
2,775336, Control_c,0,64,72
2,775348, Control_c,0,64,0
2,775356, Note_on_c,0,70,68
2,775376, Note_on_c,0,49,0
2,775388, Note_on_c,0,55,55
2,775396, Control_c,0,64,56
2,775408, Control_c,0,64,127
2,775476, Note_on_c,0,55,0
2,775480, Note_on_c,0,70,0
2,775492, Note_on_c,0,58,57
2,775596, Note_on_c,0,58,0
2,775636, Note_on_c,0,85,75
2,775640, Note_on_c,0,64,55
2,775708, Note_on_c,0,64,0
2,775760, Note_on_c,0,52,56
2,775832, Note_on_c,0,85,0
2,775896, Note_on_c,0,52,0
2,775896, Note_on_c,0,73,73
2,775900, Note_on_c,0,58,44
2,775980, Note_on_c,0,73,0
2,775996, Note_on_c,0,58,0
2,776028, Note_on_c,0,61,57
2,776132, Note_on_c,0,61,0
2,776168, Note_on_c,0,88,88
2,776168, Note_on_c,0,67,51
2,776236, Note_on_c,0,67,0
2,776240, Note_on_c,0,88,0
2,776288, Note_on_c,0,55,75
2,776424, Note_on_c,0,55,0
2,776428, Control_c,0,64,88
2,776432, Note_on_c,0,61,50
2,776436, Note_on_c,0,76,79
2,776464, Control_c,0,64,127
2,776504, Note_on_c,0,76,0
2,776540, Note_on_c,0,61,0
2,776572, Note_on_c,0,64,64
2,776652, Note_on_c,0,64,0
2,776692, Note_on_c,0,70,45
2,776708, Note_on_c,0,91,81
2,776768, Note_on_c,0,70,0
2,776792, Note_on_c,0,91,0
2,776816, Note_on_c,0,58,63
2,776948, Note_on_c,0,58,0
2,776960, Note_on_c,0,79,84
2,776980, Note_on_c,0,64,57
2,777032, Note_on_c,0,79,0
2,777080, Note_on_c,0,64,0
2,777104, Note_on_c,0,67,63
2,777188, Note_on_c,0,67,0
2,777212, Note_on_c,0,73,42
2,777228, Note_on_c,0,94,84
2,777276, Note_on_c,0,73,0
2,777348, Note_on_c,0,61,64
2,777448, Note_on_c,0,94,0
2,777472, Note_on_c,0,61,0
2,777476, Note_on_c,0,82,77
2,777500, Note_on_c,0,67,47
2,777564, Note_on_c,0,82,0
2,777592, Note_on_c,0,67,0
2,777596, Note_on_c,0,70,67
2,777708, Note_on_c,0,70,0
2,777732, Note_on_c,0,97,84
2,777744, Note_on_c,0,76,62
2,777808, Note_on_c,0,76,0
2,777828, Note_on_c,0,97,0
2,777860, Note_on_c,0,64,62
2,777980, Note_on_c,0,64,0
2,777988, Note_on_c,0,70,58
2,777992, Note_on_c,0,85,80
2,778084, Note_on_c,0,85,0
2,778088, Note_on_c,0,70,0
2,778116, Note_on_c,0,73,63
2,778224, Note_on_c,0,73,0
2,778232, Note_on_c,0,100,89
2,778248, Note_on_c,0,79,64
2,778312, Note_on_c,0,79,0
2,778360, Note_on_c,0,67,70
2,778484, Note_on_c,0,67,0
2,778492, Note_on_c,0,88,88
2,778496, Note_on_c,0,73,56
2,778500, Note_on_c,0,100,0
2,778560, Note_on_c,0,88,0
2,778592, Note_on_c,0,73,0
2,778620, Note_on_c,0,76,62
2,778708, Note_on_c,0,76,0
2,778732, Note_on_c,0,82,53
2,778748, Note_on_c,0,103,89
2,778780, Note_on_c,0,82,0
2,778804, Note_on_c,0,103,0
2,778860, Note_on_c,0,67,52
2,779004, Note_on_c,0,88,84
2,779008, Note_on_c,0,67,0
2,779008, Note_on_c,0,73,55
2,779068, Note_on_c,0,88,0
2,779120, Note_on_c,0,73,0
2,779152, Note_on_c,0,76,62
2,779228, Note_on_c,0,76,0
2,779256, Note_on_c,0,103,92
2,779268, Note_on_c,0,82,49
2,779312, Note_on_c,0,82,0
2,779312, Note_on_c,0,103,0
2,779380, Note_on_c,0,67,51
2,779468, Note_on_c,0,67,0
2,779508, Note_on_c,0,88,77
2,779520, Note_on_c,0,73,45
2,779568, Note_on_c,0,88,0
2,779620, Note_on_c,0,73,0
2,779648, Note_on_c,0,76,64
2,779728, Note_on_c,0,76,0
2,779748, Note_on_c,0,82,53
2,779764, Note_on_c,0,103,88
2,779788, Note_on_c,0,82,0
2,779828, Note_on_c,0,103,0
2,779904, Note_on_c,0,67,46
2,780000, Note_on_c,0,67,0
2,780036, Note_on_c,0,88,60
2,780040, Note_on_c,0,73,43
2,780076, Note_on_c,0,88,0
2,780156, Note_on_c,0,73,0
2,780184, Note_on_c,0,76,58
2,780264, Note_on_c,0,76,0
2,780304, Note_on_c,0,103,77
2,780308, Note_on_c,0,82,45
2,780352, Note_on_c,0,82,0
2,780352, Note_on_c,0,103,0
2,780464, Note_on_c,0,67,47
2,780652, Note_on_c,0,86,75
2,780652, Control_c,0,64,104
2,780664, Note_on_c,0,67,0
2,780664, Control_c,0,64,40
2,780672, Note_on_c,0,74,57
2,780676, Control_c,0,64,0
2,780700, Control_c,0,64,24
2,780712, Control_c,0,64,88
2,780720, Note_on_c,0,86,0
2,780724, Control_c,0,64,127
2,780788, Note_on_c,0,74,0
2,780820, Note_on_c,0,77,56
2,780888, Note_on_c,0,77,0
2,780952, Note_on_c,0,103,84
2,780952, Note_on_c,0,83,48
2,781008, Note_on_c,0,103,0
2,781020, Note_on_c,0,83,0
2,781088, Note_on_c,0,67,45
2,781204, Note_on_c,0,67,0
2,781212, Note_on_c,0,86,66
2,781220, Note_on_c,0,74,56
2,781264, Note_on_c,0,86,0
2,781308, Note_on_c,0,74,0
2,781336, Note_on_c,0,77,68
2,781416, Note_on_c,0,77,0
2,781448, Note_on_c,0,83,53
2,781456, Note_on_c,0,103,81
2,781496, Note_on_c,0,83,0
2,781508, Note_on_c,0,103,0
2,781588, Note_on_c,0,67,43
2,781676, Note_on_c,0,67,0
2,781700, Note_on_c,0,86,73
2,781720, Note_on_c,0,74,53
2,781752, Note_on_c,0,86,0
2,781820, Note_on_c,0,74,0
2,781848, Note_on_c,0,77,70
2,781932, Note_on_c,0,77,0
2,781964, Note_on_c,0,83,64
2,781972, Note_on_c,0,103,78
2,782016, Note_on_c,0,83,0
2,782028, Note_on_c,0,103,0
2,782116, Note_on_c,0,67,43
2,782204, Note_on_c,0,67,0
2,782220, Note_on_c,0,86,67
2,782248, Note_on_c,0,74,53
2,782272, Note_on_c,0,86,0
2,782324, Note_on_c,0,74,0
2,782360, Note_on_c,0,77,64
2,782444, Note_on_c,0,77,0
2,782480, Note_on_c,0,103,81
2,782480, Note_on_c,0,83,56
2,782532, Note_on_c,0,103,0
2,782548, Note_on_c,0,83,0
2,782608, Note_on_c,0,67,48
2,782704, Note_on_c,0,67,0
2,782736, Note_on_c,0,83,74
2,782740, Note_on_c,0,74,58
2,782788, Note_on_c,0,83,0
2,782828, Note_on_c,0,74,0
2,782868, Note_on_c,0,77,67
2,782948, Note_on_c,0,77,0
2,782988, Note_on_c,0,98,84
2,783008, Note_on_c,0,79,43
2,783040, Note_on_c,0,79,0
2,783040, Note_on_c,0,98,0
2,783124, Note_on_c,0,67,44
2,783220, Note_on_c,0,67,0
2,783244, Note_on_c,0,83,69
2,783260, Note_on_c,0,74,45
2,783300, Note_on_c,0,83,0
2,783340, Note_on_c,0,74,0
2,783376, Note_on_c,0,77,61
2,783456, Note_on_c,0,77,0
2,783492, Note_on_c,0,79,58
2,783492, Note_on_c,0,98,72
2,783540, Note_on_c,0,79,0
2,783544, Note_on_c,0,98,0
2,783616, Note_on_c,0,67,46
2,783720, Note_on_c,0,67,0
2,783748, Note_on_c,0,83,73
2,783752, Note_on_c,0,71,45
2,783836, Note_on_c,0,71,0
2,783840, Note_on_c,0,83,0
2,783876, Note_on_c,0,74,61
2,783964, Note_on_c,0,74,0
2,784016, Note_on_c,0,95,66
2,784024, Note_on_c,0,77,46
2,784052, Note_on_c,0,77,0
2,784076, Note_on_c,0,95,0
2,784148, Note_on_c,0,67,42
2,784256, Note_on_c,0,67,0
2,784292, Note_on_c,0,79,50
2,784296, Note_on_c,0,71,41
2,784368, Note_on_c,0,79,0
2,784396, Note_on_c,0,71,0
2,784436, Note_on_c,0,74,46
2,784560, Note_on_c,0,74,0
2,784592, Note_on_c,0,91,78
2,784600, Control_c,0,64,24
2,784608, Control_c,0,64,56
2,784612, Note_on_c,0,77,46
2,784620, Control_c,0,64,72
2,784628, Control_c,0,64,88
2,784648, Note_on_c,0,91,0
2,784648, Control_c,0,64,104
2,784660, Control_c,0,64,127
2,784672, Note_on_c,0,79,50
2,784712, Note_on_c,0,79,0
2,784744, Note_on_c,0,77,0
2,784744, Note_on_c,0,81,48
2,784776, Note_on_c,0,81,0
2,784792, Control_c,0,64,104
2,784800, Control_c,0,64,56
2,784808, Note_on_c,0,79,62
2,784812, Note_on_c,0,67,40
2,784812, Control_c,0,64,24
2,784820, Control_c,0,64,0
2,784844, Note_on_c,0,79,0
2,784852, Control_c,0,64,72
2,784860, Control_c,0,64,88
2,784872, Control_c,0,64,127
2,784876, Note_on_c,0,93,89
2,784916, Note_on_c,0,93,0
2,784924, Note_on_c,0,67,0
2,784928, Note_on_c,0,71,45
2,784976, Note_on_c,0,79,43
2,785004, Note_on_c,0,79,0
2,785020, Note_on_c,0,71,0
2,785020, Note_on_c,0,81,43
2,785044, Note_on_c,0,81,0
2,785060, Note_on_c,0,74,47
2,785080, Note_on_c,0,79,66
2,785124, Note_on_c,0,79,0
2,785156, Note_on_c,0,74,0
2,785168, Note_on_c,0,95,86
2,785196, Note_on_c,0,77,50
2,785220, Note_on_c,0,95,0
2,785256, Note_on_c,0,77,0
2,785260, Note_on_c,0,79,58
2,785292, Note_on_c,0,79,0
2,785316, Note_on_c,0,67,45
2,785336, Note_on_c,0,81,43
2,785360, Note_on_c,0,81,0
2,785388, Note_on_c,0,79,69
2,785404, Control_c,0,64,88
2,785416, Control_c,0,64,40
2,785424, Control_c,0,64,0
2,785428, Note_on_c,0,79,0
2,785428, Note_on_c,0,67,0
2,785428, Note_on_c,0,71,45
2,785452, Note_on_c,0,91,70
2,785476, Control_c,0,64,40
2,785484, Control_c,0,64,72
2,785492, Note_on_c,0,91,0
2,785496, Control_c,0,64,104
2,785504, Control_c,0,64,127
2,785520, Note_on_c,0,79,53
2,785544, Note_on_c,0,79,0
2,785556, Note_on_c,0,71,0
2,785576, Note_on_c,0,81,66
2,785576, Note_on_c,0,74,48
2,785600, Note_on_c,0,81,0
2,785636, Note_on_c,0,79,72
2,785680, Note_on_c,0,79,0
2,785684, Note_on_c,0,74,0
2,785704, Note_on_c,0,93,85
2,785720, Note_on_c,0,77,52
2,785744, Note_on_c,0,93,0
2,785776, Note_on_c,0,77,0
2,785776, Note_on_c,0,79,64
2,785808, Note_on_c,0,79,0
2,785840, Note_on_c,0,67,45
2,785892, Note_on_c,0,79,84
2,785908, Control_c,0,64,88
2,785920, Control_c,0,64,40
2,785928, Control_c,0,64,0
2,785932, Note_on_c,0,79,0
2,785968, Note_on_c,0,67,0
2,785976, Note_on_c,0,71,47
2,785980, Note_on_c,0,95,90
2,785980, Control_c,0,64,40
2,785988, Control_c,0,64,88
2,786000, Control_c,0,64,127
2,786016, Note_on_c,0,95,0
2,786092, Note_on_c,0,71,0
2,786108, Note_on_c,0,81,73
2,786112, Note_on_c,0,72,56
2,786132, Note_on_c,0,81,0
2,786164, Note_on_c,0,79,75
2,786208, Note_on_c,0,79,0
2,786216, Note_on_c,0,72,0
2,786260, Note_on_c,0,76,58
2,786260, Note_on_c,0,96,89
2,786292, Note_on_c,0,96,0
2,786360, Note_on_c,0,79,30
2,786384, Note_on_c,0,79,0
2,786388, Note_on_c,0,76,0
2,786392, Note_on_c,0,81,57
2,786416, Note_on_c,0,81,0
2,786424, Note_on_c,0,67,47
2,786452, Note_on_c,0,79,75
2,786508, Note_on_c,0,79,0
2,786544, Note_on_c,0,91,88
2,786548, Note_on_c,0,67,0
2,786560, Note_on_c,0,71,50
2,786588, Note_on_c,0,91,0
2,786608, Note_on_c,0,79,74
2,786648, Note_on_c,0,79,0
2,786672, Note_on_c,0,71,0
2,786676, Note_on_c,0,81,50
2,786688, Note_on_c,0,72,57
2,786700, Note_on_c,0,81,0
2,786732, Note_on_c,0,79,66
2,786772, Note_on_c,0,72,0
2,786776, Note_on_c,0,79,0
2,786804, Note_on_c,0,93,92
2,786828, Note_on_c,0,76,50
2,786848, Note_on_c,0,93,0
2,786868, Note_on_c,0,79,77
2,786904, Note_on_c,0,76,0
2,786912, Note_on_c,0,79,0
2,786940, Note_on_c,0,67,47
2,786956, Note_on_c,0,81,43
2,786984, Note_on_c,0,81,0
2,786992, Note_on_c,0,79,74
2,787048, Note_on_c,0,79,0
2,787048, Control_c,0,64,88
2,787056, Control_c,0,64,56
2,787060, Note_on_c,0,67,0
2,787068, Note_on_c,0,70,50
2,787068, Control_c,0,64,0
2,787072, Note_on_c,0,86,75
2,787124, Note_on_c,0,79,78
2,787136, Control_c,0,64,56
2,787140, Note_on_c,0,86,0
2,787148, Control_c,0,64,88
2,787156, Control_c,0,64,127
2,787180, Note_on_c,0,79,0
2,787180, Note_on_c,0,70,0
2,787192, Note_on_c,0,81,74
2,787220, Note_on_c,0,71,52
2,787236, Note_on_c,0,81,0
2,787252, Note_on_c,0,79,77
2,787284, Note_on_c,0,71,0
2,787300, Note_on_c,0,79,0
2,787332, Note_on_c,0,93,90
2,787344, Note_on_c,0,77,58
2,787376, Note_on_c,0,93,0
2,787404, Note_on_c,0,77,0
2,787404, Note_on_c,0,79,64
2,787440, Note_on_c,0,79,0
2,787464, Note_on_c,0,67,47
2,787484, Note_on_c,0,81,43
2,787508, Note_on_c,0,81,0
2,787532, Note_on_c,0,79,62
2,787560, Control_c,0,64,104
2,787568, Control_c,0,64,72
2,787580, Control_c,0,64,40
2,787584, Note_on_c,0,79,0
2,787592, Control_c,0,64,0
2,787600, Note_on_c,0,70,66
2,787604, Note_on_c,0,86,80
2,787608, Note_on_c,0,67,0
2,787640, Control_c,0,64,40
2,787652, Control_c,0,64,72
2,787660, Note_on_c,0,79,78
2,787660, Control_c,0,64,104
2,787668, Note_on_c,0,86,0
2,787672, Control_c,0,64,127
2,787708, Note_on_c,0,70,0
2,787716, Note_on_c,0,79,0
2,787728, Note_on_c,0,81,74
2,787752, Note_on_c,0,71,55
2,787772, Note_on_c,0,81,0
2,787792, Note_on_c,0,79,78
2,787832, Note_on_c,0,71,0
2,787836, Note_on_c,0,79,0
2,787884, Note_on_c,0,93,89
2,787884, Note_on_c,0,77,58
2,787924, Note_on_c,0,93,0
2,787944, Note_on_c,0,79,72
2,787952, Note_on_c,0,77,0
2,787968, Note_on_c,0,79,0
2,788008, Note_on_c,0,67,49
2,788012, Note_on_c,0,81,44
2,788036, Note_on_c,0,81,0
2,788048, Note_on_c,0,79,72
2,788112, Note_on_c,0,79,0
2,788112, Control_c,0,64,104
2,788116, Note_on_c,0,67,0
2,788124, Control_c,0,64,72
2,788132, Control_c,0,64,40
2,788140, Note_on_c,0,91,91
2,788144, Control_c,0,64,0
2,788148, Note_on_c,0,71,50
2,788192, Note_on_c,0,91,0
2,788200, Note_on_c,0,79,72
2,788216, Control_c,0,64,40
2,788224, Control_c,0,64,88
2,788236, Control_c,0,64,104
2,788244, Control_c,0,64,127
2,788248, Note_on_c,0,79,0
2,788256, Note_on_c,0,71,0
2,788272, Note_on_c,0,81,51
2,788280, Note_on_c,0,72,55
2,788296, Note_on_c,0,81,0
2,788320, Note_on_c,0,79,75
2,788364, Note_on_c,0,79,0
2,788380, Note_on_c,0,72,0
2,788396, Note_on_c,0,93,97
2,788416, Note_on_c,0,76,57
2,788440, Note_on_c,0,93,0
2,788484, Note_on_c,0,79,45
2,788496, Note_on_c,0,76,0
2,788500, Note_on_c,0,79,0
2,788540, Note_on_c,0,81,44
2,788540, Note_on_c,0,67,47
2,788564, Note_on_c,0,81,0
2,788592, Note_on_c,0,79,60
2,788644, Note_on_c,0,79,0
2,788648, Control_c,0,64,104
2,788656, Control_c,0,64,72
2,788668, Control_c,0,64,40
2,788672, Note_on_c,0,88,88
2,788676, Note_on_c,0,67,0
2,788680, Control_c,0,64,0
2,788684, Note_on_c,0,71,47
2,788728, Control_c,0,64,24
2,788736, Note_on_c,0,88,0
2,788736, Note_on_c,0,79,74
2,788740, Control_c,0,64,56
2,788748, Control_c,0,64,88
2,788760, Control_c,0,64,127
2,788792, Note_on_c,0,79,0
2,788816, Note_on_c,0,81,51
2,788828, Note_on_c,0,71,0
2,788828, Note_on_c,0,72,57
2,788844, Note_on_c,0,81,0
2,788864, Note_on_c,0,79,79
2,788908, Note_on_c,0,72,0
2,788912, Note_on_c,0,79,0
2,788932, Note_on_c,0,91,89
2,788960, Note_on_c,0,76,55
2,788980, Note_on_c,0,91,0
2,789000, Note_on_c,0,79,69
2,789036, Note_on_c,0,76,0
2,789040, Note_on_c,0,79,0
2,789064, Note_on_c,0,81,62
2,789072, Note_on_c,0,67,67
2,789088, Note_on_c,0,81,0
2,789116, Note_on_c,0,79,69
2,789144, Control_c,0,64,88
2,789152, Control_c,0,64,56
2,789164, Note_on_c,0,79,0
2,789164, Control_c,0,64,0
2,789200, Note_on_c,0,93,91
2,789208, Note_on_c,0,71,44
2,789212, Control_c,0,64,24
2,789224, Control_c,0,64,56
2,789232, Control_c,0,64,104
2,789244, Note_on_c,0,93,0
2,789244, Control_c,0,64,127
2,789256, Note_on_c,0,67,0
2,789276, Note_on_c,0,79,50
2,789300, Note_on_c,0,79,0
2,789328, Note_on_c,0,71,0
2,789332, Note_on_c,0,81,48
2,789356, Note_on_c,0,81,0
2,789356, Note_on_c,0,74,44
2,789388, Note_on_c,0,79,57
2,789424, Note_on_c,0,79,0
2,789432, Note_on_c,0,74,0
2,789460, Note_on_c,0,95,93
2,789496, Note_on_c,0,95,0
2,789548, Note_on_c,0,79,45
2,789576, Note_on_c,0,79,0
2,789584, Note_on_c,0,65,72
2,789612, Note_on_c,0,81,52
2,789636, Note_on_c,0,81,0
2,789636, Control_c,0,64,104
2,789644, Control_c,0,64,72
2,789656, Note_on_c,0,79,62
2,789656, Control_c,0,64,40
2,789664, Control_c,0,64,0
2,789716, Note_on_c,0,79,0
2,789716, Control_c,0,64,24
2,789724, Control_c,0,64,72
2,789736, Control_c,0,64,104
2,789744, Note_on_c,0,91,84
2,789744, Note_on_c,0,67,60
2,789744, Control_c,0,64,127
2,789788, Note_on_c,0,91,0
2,789804, Note_on_c,0,79,67
2,789848, Note_on_c,0,79,0
2,789852, Note_on_c,0,65,0
2,789864, Note_on_c,0,81,66
2,789884, Note_on_c,0,81,0
2,789892, Note_on_c,0,67,0
2,789900, Note_on_c,0,71,45
2,789924, Note_on_c,0,79,75
2,789976, Note_on_c,0,79,0
2,789988, Note_on_c,0,71,0
2,790008, Note_on_c,0,93,94
2,790024, Note_on_c,0,74,53
2,790048, Note_on_c,0,93,0
2,790080, Note_on_c,0,79,53
2,790112, Note_on_c,0,79,0
2,790112, Note_on_c,0,74,0
2,790140, Control_c,0,64,104
2,790148, Note_on_c,0,64,84
2,790148, Control_c,0,64,56
2,790152, Note_on_c,0,81,40
2,790160, Control_c,0,64,0
2,790176, Note_on_c,0,81,0
2,790196, Note_on_c,0,79,63
2,790208, Control_c,0,64,40
2,790220, Control_c,0,64,88
2,790228, Control_c,0,64,127
2,790252, Note_on_c,0,79,0
2,790284, Note_on_c,0,95,86
2,790284, Note_on_c,0,67,52
2,790288, Note_on_c,0,64,0
2,790320, Note_on_c,0,95,0
2,790376, Note_on_c,0,79,47
2,790392, Note_on_c,0,79,0
2,790400, Note_on_c,0,67,0
2,790428, Note_on_c,0,72,52
2,790428, Note_on_c,0,81,45
2,790452, Note_on_c,0,81,0
2,790476, Note_on_c,0,79,75
2,790516, Note_on_c,0,79,0
2,790516, Note_on_c,0,72,0
2,790552, Note_on_c,0,76,45
2,790560, Note_on_c,0,96,94
2,790592, Note_on_c,0,96,0
2,790612, Note_on_c,0,76,0
2,790632, Note_on_c,0,79,50
2,790656, Note_on_c,0,79,0
2,790680, Note_on_c,0,63,77
2,790700, Note_on_c,0,81,56
2,790724, Note_on_c,0,81,0
2,790736, Control_c,0,64,104
2,790744, Note_on_c,0,79,70
2,790744, Control_c,0,64,56
2,790756, Control_c,0,64,0
2,790804, Note_on_c,0,79,0
2,790816, Control_c,0,64,24
2,790820, Note_on_c,0,67,55
2,790828, Control_c,0,64,72
2,790832, Note_on_c,0,91,97
2,790836, Control_c,0,64,127
2,790868, Note_on_c,0,63,0
2,790880, Note_on_c,0,91,0
2,790892, Note_on_c,0,79,74
2,790932, Note_on_c,0,79,0
2,790952, Note_on_c,0,67,0
2,790968, Note_on_c,0,81,60
2,790976, Note_on_c,0,72,50
2,790992, Note_on_c,0,81,0
2,791012, Note_on_c,0,79,67
2,791044, Note_on_c,0,72,0
2,791064, Note_on_c,0,79,0
2,791080, Note_on_c,0,75,46
2,791092, Note_on_c,0,93,99
2,791132, Note_on_c,0,75,0
2,791136, Note_on_c,0,93,0
2,791156, Note_on_c,0,79,74
2,791204, Note_on_c,0,79,0
2,791232, Note_on_c,0,62,74
2,791240, Note_on_c,0,81,60
2,791268, Note_on_c,0,81,0
2,791284, Note_on_c,0,79,58
2,791300, Control_c,0,64,88
2,791312, Control_c,0,64,56
2,791320, Control_c,0,64,0
2,791340, Note_on_c,0,79,0
2,791352, Note_on_c,0,65,61
2,791356, Note_on_c,0,86,80
2,791376, Note_on_c,0,62,0
2,791380, Control_c,0,64,24
2,791392, Control_c,0,64,72
2,791400, Control_c,0,64,127
2,791408, Note_on_c,0,79,75
2,791412, Note_on_c,0,86,0
2,791460, Note_on_c,0,79,0
2,791484, Note_on_c,0,81,48
2,791492, Note_on_c,0,65,0
2,791492, Note_on_c,0,72,57
2,791512, Note_on_c,0,81,0
2,791528, Note_on_c,0,79,70
2,791580, Note_on_c,0,79,0
2,791580, Note_on_c,0,72,0
2,791616, Note_on_c,0,74,56
2,791620, Note_on_c,0,93,90
2,791676, Note_on_c,0,79,72
2,791680, Note_on_c,0,74,0
2,791684, Note_on_c,0,93,0
2,791720, Note_on_c,0,79,0
2,791744, Note_on_c,0,62,72
2,791752, Note_on_c,0,81,57
2,791780, Note_on_c,0,81,0
2,791804, Note_on_c,0,79,61
2,791836, Control_c,0,64,104
2,791840, Note_on_c,0,62,0
2,791844, Control_c,0,64,56
2,791856, Control_c,0,64,0
2,791864, Note_on_c,0,79,0
2,791876, Note_on_c,0,86,89
2,791880, Note_on_c,0,65,55
2,791916, Control_c,0,64,40
2,791928, Control_c,0,64,88
2,791936, Control_c,0,64,127
2,791940, Note_on_c,0,79,78
2,791952, Note_on_c,0,86,0
2,791992, Note_on_c,0,79,0
2,792004, Note_on_c,0,81,75
2,792008, Note_on_c,0,65,0
2,792012, Note_on_c,0,71,57
2,792044, Note_on_c,0,81,0
2,792056, Note_on_c,0,79,69
2,792100, Note_on_c,0,71,0
2,792108, Note_on_c,0,79,0
2,792132, Note_on_c,0,93,99
2,792144, Note_on_c,0,74,45
2,792176, Note_on_c,0,74,0
2,792176, Note_on_c,0,93,0
2,792200, Note_on_c,0,79,57
2,792240, Note_on_c,0,79,0
2,792272, Note_on_c,0,81,53
2,792280, Note_on_c,0,61,70
2,792304, Note_on_c,0,81,0
2,792328, Note_on_c,0,79,73
2,792328, Control_c,0,64,88
2,792336, Control_c,0,64,56
2,792348, Control_c,0,64,0
2,792388, Note_on_c,0,79,0
2,792400, Control_c,0,64,24
2,792404, Note_on_c,0,61,0
2,792408, Note_on_c,0,91,89
2,792408, Note_on_c,0,64,61
2,792408, Control_c,0,64,72
2,792420, Control_c,0,64,127
2,792456, Note_on_c,0,91,0
2,792468, Note_on_c,0,79,69
2,792516, Note_on_c,0,79,0
2,792536, Note_on_c,0,64,0
2,792544, Note_on_c,0,81,66
2,792568, Note_on_c,0,69,40
2,792576, Note_on_c,0,81,0
2,792600, Note_on_c,0,79,77
2,792664, Note_on_c,0,79,0
2,792672, Note_on_c,0,69,0
2,792680, Note_on_c,0,93,93
2,792696, Note_on_c,0,76,77
2,792732, Note_on_c,0,93,0
2,792740, Note_on_c,0,76,0
2,792756, Note_on_c,0,79,74
2,792788, Note_on_c,0,79,0
2,792816, Note_on_c,0,81,62
2,792836, Note_on_c,0,60,67
2,792852, Note_on_c,0,81,0
2,792876, Note_on_c,0,79,61
2,792928, Note_on_c,0,79,0
2,792944, Control_c,0,64,88
2,792952, Control_c,0,64,40
2,792956, Note_on_c,0,60,0
2,792960, Control_c,0,64,0
2,792964, Note_on_c,0,86,86
2,792976, Note_on_c,0,62,62
2,793004, Control_c,0,64,24
2,793012, Control_c,0,64,56
2,793020, Note_on_c,0,86,0
2,793024, Control_c,0,64,104
2,793032, Control_c,0,64,127
2,793040, Note_on_c,0,74,64
2,793076, Note_on_c,0,74,0
2,793104, Note_on_c,0,76,60
2,793108, Note_on_c,0,62,0
2,793120, Note_on_c,0,66,45
2,793128, Note_on_c,0,76,0
2,793168, Note_on_c,0,74,68
2,793208, Note_on_c,0,66,0
2,793216, Note_on_c,0,74,0
2,793240, Note_on_c,0,88,91
2,793242, Note_on_c,0,76,67
2,793244, Note_on_c,0,69,57
2,793284, Note_on_c,0,88,0
2,793290, Note_on_c,0,76,0
2,793308, Note_on_c,0,69,0
2,793316, Note_on_c,0,74,59
2,793356, Note_on_c,0,74,0
2,793376, Note_on_c,0,59,65
2,793380, Note_on_c,0,76,69
2,793404, Control_c,0,64,104
2,793416, Control_c,0,64,56
2,793420, Note_on_c,0,76,0
2,793424, Control_c,0,64,0
2,793432, Note_on_c,0,74,80
2,793464, Control_c,0,64,24
2,793476, Note_on_c,0,74,0
2,793476, Control_c,0,64,56
2,793480, Note_on_c,0,59,0
2,793484, Control_c,0,64,104
2,793496, Note_on_c,0,62,57
2,793496, Control_c,0,64,127
2,793516, Note_on_c,0,90,85
2,793556, Note_on_c,0,90,0
2,793576, Note_on_c,0,74,60
2,793620, Note_on_c,0,74,0
2,793628, Note_on_c,0,62,0
2,793636, Note_on_c,0,67,49
2,793640, Note_on_c,0,76,62
2,793680, Note_on_c,0,76,0
2,793704, Note_on_c,0,74,60
2,793728, Note_on_c,0,67,0
2,793748, Note_on_c,0,74,0
2,793780, Note_on_c,0,91,88
2,793780, Note_on_c,0,71,63
2,793816, Note_on_c,0,91,0
2,793836, Note_on_c,0,79,72
2,793844, Note_on_c,0,71,0
2,793884, Note_on_c,0,79,0
2,793904, Note_on_c,0,81,72
2,793932, Note_on_c,0,58,62
2,793968, Note_on_c,0,81,0
2,793976, Note_on_c,0,79,77
2,793980, Control_c,0,64,88
2,793988, Control_c,0,64,24
2,794000, Control_c,0,64,0
2,794028, Note_on_c,0,79,0
2,794040, Control_c,0,64,24
2,794048, Control_c,0,64,72
2,794060, Note_on_c,0,84,93
2,794060, Control_c,0,64,104
2,794064, Note_on_c,0,58,0
2,794068, Note_on_c,0,60,58
2,794072, Control_c,0,64,127
2,794112, Note_on_c,0,84,0
2,794136, Note_on_c,0,72,77
2,794168, Note_on_c,0,72,0
2,794184, Note_on_c,0,60,0
2,794196, Note_on_c,0,64,50
2,794208, Note_on_c,0,74,68
2,794228, Note_on_c,0,74,0
2,794260, Note_on_c,0,72,72
2,794272, Note_on_c,0,64,0
2,794300, Note_on_c,0,72,0
2,794304, Note_on_c,0,67,46
2,794328, Note_on_c,0,86,91
2,794376, Note_on_c,0,86,0
2,794412, Note_on_c,0,67,0
2,794412, Note_on_c,0,72,58
2,794432, Control_c,0,64,72
2,794444, Note_on_c,0,72,0
2,794444, Control_c,0,64,0
2,794460, Note_on_c,0,57,62
2,794464, Note_on_c,0,74,58
2,794484, Control_c,0,64,24
2,794492, Control_c,0,64,56
2,794496, Note_on_c,0,74,0
2,794504, Control_c,0,64,104
2,794512, Control_c,0,64,127
2,794524, Note_on_c,0,72,81
2,794556, Note_on_c,0,57,0
2,794568, Note_on_c,0,72,0
2,794576, Note_on_c,0,60,52
2,794596, Note_on_c,0,88,92
2,794620, Note_on_c,0,88,0
2,794680, Note_on_c,0,72,60
2,794696, Note_on_c,0,60,0
2,794704, Note_on_c,0,65,45
2,794712, Note_on_c,0,72,0
2,794738, Note_on_c,0,74,66
2,794766, Note_on_c,0,74,0
2,794792, Note_on_c,0,72,63
2,794796, Note_on_c,0,65,0
2,794812, Note_on_c,0,72,0
2,794820, Note_on_c,0,69,52
2,794860, Note_on_c,0,89,91
2,794864, Note_on_c,0,69,0
2,794896, Note_on_c,0,89,0
2,794932, Note_on_c,0,77,49
2,794956, Note_on_c,0,77,0
2,794964, Note_on_c,0,56,63
2,794976, Note_on_c,0,79,45
2,795008, Note_on_c,0,79,0
2,795032, Note_on_c,0,77,77
2,795056, Control_c,0,64,72
2,795068, Control_c,0,64,24
2,795072, Note_on_c,0,77,0
2,795076, Control_c,0,64,0
2,795092, Note_on_c,0,58,48
2,795112, Note_on_c,0,82,85
2,795116, Control_c,0,64,24
2,795128, Note_on_c,0,56,0
2,795128, Control_c,0,64,56
2,795136, Control_c,0,64,104
2,795148, Control_c,0,64,127
2,795160, Note_on_c,0,82,0
2,795180, Note_on_c,0,70,73
2,795224, Note_on_c,0,62,45
2,795228, Note_on_c,0,70,0
2,795240, Note_on_c,0,58,0
2,795242, Note_on_c,0,72,65
2,795290, Note_on_c,0,72,0
2,795304, Note_on_c,0,70,68
2,795308, Note_on_c,0,62,0
2,795344, Note_on_c,0,65,40
2,795352, Note_on_c,0,70,0
2,795376, Note_on_c,0,84,94
2,795416, Note_on_c,0,84,0
2,795440, Note_on_c,0,70,70
2,795460, Note_on_c,0,65,0
2,795488, Note_on_c,0,70,0
2,795502, Note_on_c,0,72,72
2,795520, Note_on_c,0,55,62
2,795550, Note_on_c,0,72,0
2,795564, Note_on_c,0,70,70
2,795600, Control_c,0,64,104
2,795608, Note_on_c,0,70,0
2,795612, Control_c,0,64,56
2,795620, Control_c,0,64,0
2,795648, Note_on_c,0,86,100
2,795656, Note_on_c,0,58,38
2,795660, Control_c,0,64,24
2,795672, Control_c,0,64,56
2,795680, Control_c,0,64,104
2,795688, Note_on_c,0,86,0
2,795692, Control_c,0,64,127
2,795724, Note_on_c,0,55,0
2,795728, Note_on_c,0,70,70
2,795764, Note_on_c,0,58,0
2,795768, Note_on_c,0,70,0
2,795776, Note_on_c,0,63,50
2,795780, Note_on_c,0,72,72
2,795820, Note_on_c,0,72,0
2,795832, Note_on_c,0,70,70
2,795868, Note_on_c,0,70,0
2,795884, Note_on_c,0,63,0
2,795904, Note_on_c,0,87,94
2,795912, Note_on_c,0,67,41
2,795952, Note_on_c,0,87,0
2,795956, Note_on_c,0,67,0
2,795972, Note_on_c,0,70,80
2,796032, Note_on_c,0,70,0
2,796044, Note_on_c,0,54,62
2,796064, Note_on_c,0,72,28
2,796088, Note_on_c,0,72,0
2,796100, Note_on_c,0,70,69
2,796152, Control_c,0,64,104
2,796156, Note_on_c,0,70,0
2,796164, Control_c,0,64,56
2,796168, Note_on_c,0,75,85
2,796172, Control_c,0,64,0
2,796180, Note_on_c,0,58,40
2,796224, Note_on_c,0,70,67
2,796236, Control_c,0,64,24
2,796244, Control_c,0,64,56
2,796248, Note_on_c,0,75,0
2,796256, Control_c,0,64,88
2,796264, Control_c,0,64,127
2,796272, Note_on_c,0,54,0
2,796280, Note_on_c,0,70,0
2,796292, Note_on_c,0,58,0
2,796300, Note_on_c,0,72,57
2,796304, Note_on_c,0,61,45
2,796348, Note_on_c,0,72,0
2,796348, Note_on_c,0,70,61
2,796384, Note_on_c,0,61,0
2,796416, Note_on_c,0,64,36
2,796424, Note_on_c,0,70,0
2,796440, Note_on_c,0,76,81
2,796464, Note_on_c,0,64,0
2,796468, Control_c,0,64,88
2,796476, Control_c,0,64,40
2,796488, Control_c,0,64,0
2,796504, Note_on_c,0,66,51
2,796508, Note_on_c,0,76,0
2,796528, Control_c,0,64,24
2,796536, Note_on_c,0,52,8
2,796536, Control_c,0,64,56
2,796548, Control_c,0,64,88
2,796556, Note_on_c,0,66,0
2,796556, Control_c,0,64,127
2,796572, Note_on_c,0,68,57
2,796632, Note_on_c,0,66,60
2,796636, Note_on_c,0,68,0
2,796696, Note_on_c,0,66,0
2,796700, Note_on_c,0,54,56
2,796700, Control_c,0,64,88
2,796708, Note_on_c,0,72,74
2,796708, Control_c,0,64,24
2,796720, Note_on_c,0,52,0
2,796720, Control_c,0,64,0
2,796748, Control_c,0,64,40
2,796756, Control_c,0,64,72
2,796764, Note_on_c,0,66,54
2,796768, Control_c,0,64,104
2,796780, Control_c,0,64,127
2,796784, Note_on_c,0,72,0
2,796820, Note_on_c,0,66,0
2,796828, Note_on_c,0,68,56
2,796848, Note_on_c,0,54,0
2,796852, Note_on_c,0,58,34
2,796888, Note_on_c,0,68,0
2,796896, Note_on_c,0,66,52
2,796956, Note_on_c,0,58,0
2,796972, Note_on_c,0,66,0
2,796980, Note_on_c,0,73,67
2,796980, Note_on_c,0,61,35
2,797048, Note_on_c,0,64,56
2,797056, Note_on_c,0,73,0
2,797072, Note_on_c,0,61,0
2,797108, Note_on_c,0,49,62
2,797112, Note_on_c,0,64,0
2,797124, Note_on_c,0,66,45
2,797140, Control_c,0,64,72
2,797152, Control_c,0,64,24
2,797164, Control_c,0,64,0
2,797176, Note_on_c,0,66,0
2,797176, Note_on_c,0,64,60
2,797212, Control_c,0,64,24
2,797220, Control_c,0,64,56
2,797228, Note_on_c,0,64,0
2,797232, Control_c,0,64,88
2,797244, Control_c,0,64,127
2,797256, Note_on_c,0,52,54
2,797256, Note_on_c,0,69,70
2,797308, Note_on_c,0,49,0
2,797320, Note_on_c,0,64,52
2,797368, Note_on_c,0,64,0
2,797368, Note_on_c,0,52,0
2,797384, Note_on_c,0,66,54
2,797408, Note_on_c,0,54,50
2,797444, Note_on_c,0,66,0
2,797444, Note_on_c,0,64,58
2,797464, Note_on_c,0,69,0
2,797508, Note_on_c,0,64,0
2,797520, Note_on_c,0,70,64
2,797520, Note_on_c,0,61,45
2,797524, Note_on_c,0,54,0
2,797576, Note_on_c,0,70,0
2,797588, Note_on_c,0,61,0
2,797592, Note_on_c,0,60,58
2,797644, Note_on_c,0,60,0
2,797660, Note_on_c,0,63,50
2,797660, Note_on_c,0,46,49
2,797692, Control_c,0,64,88
2,797704, Control_c,0,64,24
2,797712, Note_on_c,0,63,0
2,797716, Note_on_c,0,61,66
2,797716, Control_c,0,64,0
2,797772, Note_on_c,0,61,0
2,797784, Control_c,0,64,40
2,797796, Control_c,0,64,72
2,797804, Note_on_c,0,64,63
2,797804, Note_on_c,0,49,50
2,797804, Control_c,0,64,24
2,797816, Control_c,0,64,0
2,797844, Control_c,0,64,40
2,797852, Control_c,0,64,72
2,797860, Note_on_c,0,49,0
2,797860, Note_on_c,0,53,54
2,797864, Control_c,0,64,104
2,797876, Control_c,0,64,127
2,797880, Note_on_c,0,64,0
2,797916, Note_on_c,0,53,0
2,797924, Note_on_c,0,59,56
2,797924, Note_on_c,0,52,45
2,797984, Note_on_c,0,59,0
2,797992, Note_on_c,0,58,52
2,798000, Note_on_c,0,46,0
2,798028, Note_on_c,0,52,0
2,798068, Note_on_c,0,58,0
2,798076, Note_on_c,0,61,59
2,798076, Note_on_c,0,54,45
2,798144, Note_on_c,0,53,56
2,798152, Note_on_c,0,61,0
2,798168, Note_on_c,0,54,0
2,798204, Note_on_c,0,40,44
2,798208, Note_on_c,0,53,0
2,798220, Note_on_c,0,56,54
2,798236, Control_c,0,64,72
2,798248, Control_c,0,64,24
2,798260, Control_c,0,64,0
2,798272, Note_on_c,0,56,0
2,798272, Note_on_c,0,54,52
2,798308, Control_c,0,64,24
2,798316, Control_c,0,64,56
2,798324, Note_on_c,0,54,0
2,798328, Control_c,0,64,88
2,798340, Control_c,0,64,127
2,798352, Note_on_c,0,42,46
2,798352, Note_on_c,0,58,55
2,798404, Note_on_c,0,40,0
2,798416, Note_on_c,0,48,52
2,798464, Note_on_c,0,48,0
2,798464, Note_on_c,0,42,0
2,798480, Note_on_c,0,51,54
2,798480, Note_on_c,0,46,47
2,798540, Note_on_c,0,51,0
2,798540, Note_on_c,0,49,52
2,798560, Note_on_c,0,58,0
2,798596, Note_on_c,0,46,0
2,798604, Note_on_c,0,49,0
2,798616, Note_on_c,0,52,54
2,798616, Note_on_c,0,49,46
2,798620, Control_c,0,64,88
2,798660, Control_c,0,64,0
2,798684, Note_on_c,0,45,53
2,798704, Control_c,0,64,24
2,798712, Note_on_c,0,49,0
2,798712, Note_on_c,0,52,0
2,798744, Control_c,0,64,0
2,798752, Note_on_c,0,45,0
2,798760, Note_on_c,0,47,50
2,798808, Control_c,0,64,24
2,798820, Note_on_c,0,47,0
2,798824, Note_on_c,0,46,57
2,798852, Control_c,0,64,0
2,798896, Note_on_c,0,46,0
2,798900, Note_on_c,0,49,59
2,798908, Control_c,0,64,24
2,798916, Control_c,0,64,40
2,798924, Control_c,0,64,56
2,798948, Control_c,0,64,0
2,798960, Note_on_c,0,49,0
2,798964, Note_on_c,0,41,54
2,799032, Note_on_c,0,41,0
2,799040, Note_on_c,0,44,44
2,799048, Control_c,0,64,24
2,799056, Control_c,0,64,40
2,799076, Control_c,0,64,0
2,799100, Note_on_c,0,44,0
2,799108, Note_on_c,0,42,50
2,799124, Control_c,0,64,24
2,799132, Control_c,0,64,40
2,799156, Control_c,0,64,0
2,799176, Note_on_c,0,42,0
2,799180, Note_on_c,0,46,57
2,799208, Control_c,0,64,24
2,799244, Note_on_c,0,46,0
2,799244, Note_on_c,0,36,55
2,799248, Control_c,0,64,0
2,799320, Note_on_c,0,39,49
2,799324, Note_on_c,0,36,0
2,799356, Control_c,0,64,40
2,799388, Note_on_c,0,39,0
2,799388, Note_on_c,0,37,47
2,799388, Control_c,0,64,24
2,799396, Control_c,0,64,0
2,799428, Control_c,0,64,24
2,799448, Note_on_c,0,37,0
2,799456, Control_c,0,64,0
2,799464, Note_on_c,0,40,54
2,799504, Control_c,0,64,24
2,799524, Note_on_c,0,33,52
2,799528, Note_on_c,0,40,0
2,799528, Control_c,0,64,0
2,799588, Note_on_c,0,33,0
2,799604, Note_on_c,0,35,49
2,799636, Control_c,0,64,24
2,799644, Control_c,0,64,40
2,799652, Note_on_c,0,35,0
2,799668, Note_on_c,0,34,54
2,799700, Control_c,0,64,0
2,799736, Note_on_c,0,34,0
2,799744, Note_on_c,0,37,52
2,799752, Control_c,0,64,24
2,799760, Control_c,0,64,40
2,799768, Control_c,0,64,56
2,799776, Control_c,0,64,72
2,799800, Note_on_c,0,37,0
2,799812, Note_on_c,0,29,49
2,799880, Note_on_c,0,29,0
2,799888, Note_on_c,0,31,52
2,799944, Note_on_c,0,31,0
2,799964, Note_on_c,0,29,48
2,800000, Control_c,0,64,0
2,800024, Note_on_c,0,29,0
2,800036, Note_on_c,0,30,48
2,800064, Control_c,0,64,40
2,800072, Control_c,0,64,56
2,800076, Control_c,0,64,72
2,800084, Control_c,0,64,88
2,800096, Note_on_c,0,30,0
2,800104, Note_on_c,0,29,48
2,800156, Control_c,0,64,24
2,800164, Control_c,0,64,0
2,800172, Note_on_c,0,29,0
2,800180, Note_on_c,0,31,47
2,800208, Control_c,0,64,40
2,800216, Control_c,0,64,56
2,800240, Note_on_c,0,31,0
2,800256, Control_c,0,64,40
2,800260, Note_on_c,0,29,47
2,800264, Control_c,0,64,24
2,800296, Control_c,0,64,40
2,800304, Control_c,0,64,24
2,800308, Control_c,0,64,0
2,800328, Note_on_c,0,29,0
2,800336, Note_on_c,0,30,46
2,800356, Control_c,0,64,24
2,800364, Control_c,0,64,40
2,800396, Note_on_c,0,30,0
2,800408, Note_on_c,0,29,46
2,800448, Control_c,0,64,24
2,800456, Control_c,0,64,0
2,800476, Note_on_c,0,29,0
2,800480, Note_on_c,0,31,45
2,800504, Control_c,0,64,24
2,800512, Control_c,0,64,40
2,800520, Control_c,0,64,56
2,800528, Control_c,0,64,72
2,800548, Note_on_c,0,31,0
2,800564, Note_on_c,0,29,45
2,800564, Control_c,0,64,40
2,800604, Control_c,0,64,56
2,800636, Control_c,0,64,40
2,800648, Note_on_c,0,29,0
2,800648, Note_on_c,0,30,44
2,800660, Control_c,0,64,24
2,800680, Control_c,0,64,40
2,800720, Note_on_c,0,30,0
2,800720, Control_c,0,64,24
2,800728, Note_on_c,0,29,44
2,800728, Control_c,0,64,0
2,800804, Note_on_c,0,29,0
2,800808, Note_on_c,0,31,43
2,800880, Note_on_c,0,31,0
2,800896, Note_on_c,0,29,43
2,800984, Note_on_c,0,30,42
2,800988, Note_on_c,0,29,0
2,801008, Control_c,0,64,24
2,801044, Control_c,0,64,0
2,801080, Note_on_c,0,30,0
2,801084, Note_on_c,0,29,42
2,801084, Control_c,0,64,24
2,801092, Control_c,0,64,40
2,801100, Control_c,0,64,56
2,801108, Control_c,0,64,72
2,801176, Control_c,0,64,40
2,801184, Note_on_c,0,29,0
2,801184, Control_c,0,64,24
2,801192, Note_on_c,0,31,41
2,801224, Control_c,0,64,56
2,801256, Control_c,0,64,24
2,801264, Control_c,0,64,0
2,801296, Note_on_c,0,31,0
2,801339, Note_on_c,0,29,40
2,801372, Control_c,0,64,24
2,801380, Control_c,0,64,40
2,801388, Control_c,0,64,72
2,801396, Control_c,0,64,88
2,801400, Control_c,0,64,104
2,801488, Control_c,0,64,0
2,801499, Note_on_c,0,29,0
2,801560, Control_c,0,64,56
2,801576, Control_c,0,64,127
2,801612, Note_on_c,0,30,39
2,801696, Note_on_c,0,58,42
2,801740, Note_on_c,0,30,0
2,801784, Note_on_c,0,58,0
2,801800, Note_on_c,0,64,51
2,801884, Note_on_c,0,66,51
2,801892, Note_on_c,0,64,0
2,801960, Note_on_c,0,66,0
2,802064, Note_on_c,0,75,73
2,802176, Note_on_c,0,75,0
2,802408, Note_on_c,0,42,37
2,802464, Note_on_c,0,42,0
2,802480, Note_on_c,0,49,49
2,802552, Note_on_c,0,52,59
2,802564, Note_on_c,0,49,0
2,802600, Note_on_c,0,54,58
2,802632, Note_on_c,0,52,0
2,802652, Note_on_c,0,54,0
2,802656, Note_on_c,0,58,43
2,802724, Note_on_c,0,58,0
2,802728, Note_on_c,0,64,58
2,802804, Note_on_c,0,64,0
2,802804, Note_on_c,0,66,49
2,802940, Note_on_c,0,66,0
2,802948, Note_on_c,0,72,80
2,804268, Note_on_c,0,72,0
2,804276, Note_on_c,0,73,50
2,804444, Control_c,0,64,40
2,804460, Control_c,0,64,0
2,804528, Control_c,0,64,88
2,804544, Control_c,0,64,127
2,804592, Note_on_c,0,73,0
2,804808, Control_c,0,64,56
2,804824, Control_c,0,64,0
2,804904, Note_on_c,0,66,58
2,804908, Note_on_c,0,78,65
2,804908, Note_on_c,0,76,50
2,804912, Note_on_c,0,46,56
2,804912, Note_on_c,0,58,44
2,804916, Note_on_c,0,49,43
2,804940, Note_on_c,0,49,0
2,804940, Note_on_c,0,46,0
2,804952, Note_on_c,0,58,0
2,804960, Note_on_c,0,66,0
2,804964, Note_on_c,0,76,0
2,804976, Note_on_c,0,78,0
2,805092, Note_on_c,0,79,76
2,805100, Note_on_c,0,57,49
2,805100, Note_on_c,0,67,54
2,805116, Note_on_c,0,79,0
2,805120, Note_on_c,0,45,54
2,805124, Note_on_c,0,57,0
2,805128, Note_on_c,0,67,0
2,805144, Note_on_c,0,45,0
2,805216, Note_on_c,0,68,63
2,805216, Note_on_c,0,80,78
2,805216, Note_on_c,0,56,56
2,805224, Note_on_c,0,44,58
2,805244, Note_on_c,0,56,0
2,805248, Note_on_c,0,44,0
2,805252, Note_on_c,0,68,0
2,805260, Note_on_c,0,80,0
2,805332, Note_on_c,0,81,83
2,805332, Note_on_c,0,53,65
2,805336, Note_on_c,0,69,70
2,805348, Note_on_c,0,41,41
2,805356, Note_on_c,0,53,0
2,805360, Note_on_c,0,69,0
2,805376, Note_on_c,0,81,0
2,805376, Note_on_c,0,41,0
2,805448, Control_c,0,64,72
2,805452, Note_on_c,0,70,75
2,805452, Note_on_c,0,82,90
2,805460, Note_on_c,0,54,70
2,805464, Control_c,0,64,127
2,805468, Note_on_c,0,42,64
2,805488, Note_on_c,0,42,0
2,805500, Note_on_c,0,54,0
2,805500, Note_on_c,0,70,0
2,805520, Note_on_c,0,82,0
2,805620, Control_c,0,64,88
2,805632, Control_c,0,64,40
2,805648, Control_c,0,64,0
2,805696, Note_on_c,0,80,28
2,805736, Note_on_c,0,80,0
2,805860, Note_on_c,0,69,68
2,805860, Note_on_c,0,81,70
2,805864, Note_on_c,0,79,69
2,805868, Note_on_c,0,52,56
2,805868, Note_on_c,0,62,64
2,805868, Note_on_c,0,50,51
2,805896, Note_on_c,0,50,0
2,805896, Note_on_c,0,52,0
2,805896, Note_on_c,0,69,0
2,805896, Note_on_c,0,62,0
2,805904, Note_on_c,0,81,0
2,805916, Note_on_c,0,79,0
2,806040, Note_on_c,0,49,74
2,806040, Note_on_c,0,70,69
2,806040, Note_on_c,0,61,65
2,806048, Note_on_c,0,82,65
2,806076, Note_on_c,0,61,0
2,806080, Note_on_c,0,82,0
2,806080, Note_on_c,0,49,0
2,806092, Note_on_c,0,70,0
2,806168, Note_on_c,0,59,60
2,806168, Note_on_c,0,83,84
2,806168, Note_on_c,0,71,76
2,806168, Note_on_c,0,47,57
2,806192, Note_on_c,0,59,0
2,806200, Note_on_c,0,83,0
2,806200, Note_on_c,0,71,0
2,806204, Note_on_c,0,47,0
2,806272, Note_on_c,0,84,89
2,806276, Note_on_c,0,57,72
2,806276, Note_on_c,0,72,83
2,806284, Note_on_c,0,45,68
2,806300, Note_on_c,0,72,0
2,806300, Note_on_c,0,57,0
2,806308, Note_on_c,0,45,0
2,806312, Note_on_c,0,84,0
2,806380, Note_on_c,0,85,93
2,806380, Note_on_c,0,73,82
2,806392, Note_on_c,0,58,75
2,806396, Note_on_c,0,46,71
2,806400, Control_c,0,64,88
2,806412, Control_c,0,64,127
2,806420, Note_on_c,0,46,0
2,806428, Note_on_c,0,73,0
2,806436, Note_on_c,0,58,0
2,806436, Note_on_c,0,85,0
2,806676, Control_c,0,64,72
2,806692, Control_c,0,64,0
2,806832, Note_on_c,0,54,52
2,806888, Note_on_c,0,59,51
2,806920, Note_on_c,0,54,0
2,806924, Note_on_c,0,59,0
2,806928, Control_c,0,64,127
2,806944, Note_on_c,0,63,54
2,807000, Note_on_c,0,66,53
2,807020, Note_on_c,0,63,0
2,807056, Note_on_c,0,71,56
2,807064, Note_on_c,0,66,0
2,807112, Note_on_c,0,75,63
2,807124, Note_on_c,0,71,0
2,807172, Note_on_c,0,80,80
2,807220, Note_on_c,0,75,0
2,807240, Note_on_c,0,80,0
2,807408, Note_on_c,0,42,50
2,807460, Note_on_c,0,42,0
2,807520, Note_on_c,0,51,51
2,807604, Note_on_c,0,54,54
2,807620, Note_on_c,0,51,0
2,807664, Note_on_c,0,59,53
2,807680, Note_on_c,0,54,0
2,807696, Note_on_c,0,63,48
2,807700, Note_on_c,0,59,0
2,807744, Note_on_c,0,66,51
2,807752, Note_on_c,0,63,0
2,807808, Note_on_c,0,66,0
2,807816, Note_on_c,0,71,59
2,807932, Note_on_c,0,71,0
2,807972, Note_on_c,0,77,82
2,809060, Note_on_c,0,77,0
2,809072, Note_on_c,0,78,50
2,809256, Control_c,0,64,40
2,809268, Control_c,0,64,0
2,809312, Control_c,0,64,24
2,809328, Control_c,0,64,104
2,809340, Control_c,0,64,127
2,809404, Note_on_c,0,78,0
2,809548, Control_c,0,64,88
2,809564, Control_c,0,64,24
2,809576, Control_c,0,64,0
2,809624, Note_on_c,0,63,54
2,809624, Note_on_c,0,68,53
2,809628, Note_on_c,0,80,61
2,809628, Note_on_c,0,51,58
2,809636, Note_on_c,0,78,40
2,809640, Note_on_c,0,54,33
2,809660, Note_on_c,0,78,0
2,809664, Note_on_c,0,54,0
2,809668, Note_on_c,0,63,0
2,809676, Note_on_c,0,68,0
2,809680, Note_on_c,0,51,0
2,809688, Note_on_c,0,80,0
2,809796, Note_on_c,0,61,65
2,809804, Note_on_c,0,49,61
2,809804, Note_on_c,0,82,71
2,809812, Note_on_c,0,70,62
2,809824, Note_on_c,0,61,0
2,809832, Note_on_c,0,49,0
2,809848, Note_on_c,0,70,0
2,809860, Note_on_c,0,82,0
2,809928, Note_on_c,0,71,80
2,809928, Note_on_c,0,59,71
2,809932, Note_on_c,0,83,83
2,809944, Note_on_c,0,47,54
2,809948, Note_on_c,0,71,0
2,809956, Note_on_c,0,59,0
2,809956, Note_on_c,0,83,0
2,809968, Note_on_c,0,47,0
2,810040, Note_on_c,0,58,71
2,810040, Note_on_c,0,74,84
2,810044, Note_on_c,0,86,92
2,810048, Note_on_c,0,46,60
2,810064, Note_on_c,0,74,0
2,810068, Note_on_c,0,58,0
2,810068, Note_on_c,0,86,0
2,810076, Note_on_c,0,46,0
2,810148, Note_on_c,0,87,86
2,810148, Note_on_c,0,75,85
2,810148, Control_c,0,64,72
2,810164, Note_on_c,0,59,73
2,810164, Control_c,0,64,127
2,810172, Note_on_c,0,47,62
2,810192, Note_on_c,0,75,0
2,810196, Note_on_c,0,87,0
2,810196, Note_on_c,0,47,0
2,810212, Note_on_c,0,59,0
2,810304, Control_c,0,64,104
2,810316, Control_c,0,64,56
2,810332, Control_c,0,64,24
2,810344, Control_c,0,64,0
2,810500, Note_on_c,0,83,77
2,810500, Note_on_c,0,71,67
2,810504, Note_on_c,0,66,64
2,810512, Note_on_c,0,54,59
2,810512, Note_on_c,0,80,47
2,810524, Note_on_c,0,56,36
2,810540, Note_on_c,0,80,0
2,810544, Note_on_c,0,71,0
2,810548, Note_on_c,0,83,0
2,810548, Note_on_c,0,56,0
2,810556, Note_on_c,0,66,0
2,810560, Note_on_c,0,54,0
2,810664, Note_on_c,0,64,59
2,810668, Note_on_c,0,85,77
2,810676, Note_on_c,0,73,76
2,810676, Note_on_c,0,52,68
2,810684, Note_on_c,0,58,26
2,810700, Note_on_c,0,52,0
2,810700, Note_on_c,0,64,0
2,810712, Note_on_c,0,85,0
2,810712, Note_on_c,0,73,0
2,810712, Note_on_c,0,58,0
2,810784, Note_on_c,0,63,74
2,810788, Note_on_c,0,75,80
2,810792, Note_on_c,0,87,82
2,810792, Note_on_c,0,51,69
2,810816, Note_on_c,0,51,0
2,810824, Note_on_c,0,63,0
2,810828, Note_on_c,0,75,0
2,810844, Note_on_c,0,87,0
2,810892, Note_on_c,0,62,66
2,810900, Note_on_c,0,89,96
2,810904, Note_on_c,0,77,86
2,810908, Note_on_c,0,50,60
2,810920, Note_on_c,0,62,0
2,810928, Note_on_c,0,77,0
2,810932, Note_on_c,0,50,0
2,810944, Note_on_c,0,89,0
2,811008, Note_on_c,0,90,86
2,811008, Note_on_c,0,63,76
2,811012, Note_on_c,0,78,86
2,811020, Note_on_c,0,51,68
2,811028, Control_c,0,64,104
2,811044, Note_on_c,0,51,0
2,811044, Control_c,0,64,127
2,811052, Note_on_c,0,78,0
2,811052, Note_on_c,0,63,0
2,811060, Note_on_c,0,90,0
2,811428, Note_on_c,0,32,52
2,811432, Control_c,0,64,72
2,811444, Control_c,0,64,0
2,811492, Note_on_c,0,44,49
2,811544, Control_c,0,64,88
2,811548, Note_on_c,0,32,0
2,811560, Note_on_c,0,60,59
2,811560, Control_c,0,64,127
2,811572, Note_on_c,0,44,0
2,811620, Note_on_c,0,66,54
2,811632, Note_on_c,0,60,0
2,811660, Note_on_c,0,68,57
2,811688, Note_on_c,0,66,0
2,811740, Note_on_c,0,68,0
2,811828, Note_on_c,0,76,88
2,811892, Note_on_c,0,76,0
2,812048, Note_on_c,0,44,48
2,812096, Note_on_c,0,44,0
2,812128, Note_on_c,0,51,54
2,812184, Note_on_c,0,54,44
2,812204, Note_on_c,0,51,0
2,812232, Note_on_c,0,56,62
2,812260, Note_on_c,0,54,0
2,812280, Note_on_c,0,56,0
2,812280, Note_on_c,0,60,63
2,812336, Note_on_c,0,66,58
2,812352, Note_on_c,0,60,0
2,812384, Note_on_c,0,68,58
2,812412, Note_on_c,0,66,0
2,812484, Note_on_c,0,68,0
2,812496, Note_on_c,0,74,83
2,813500, Note_on_c,0,74,0
2,813516, Note_on_c,0,75,55
2,813664, Control_c,0,64,24
2,813676, Control_c,0,64,0
2,813720, Control_c,0,64,56
2,813732, Control_c,0,64,127
2,813784, Note_on_c,0,75,0
2,813956, Control_c,0,64,72
2,813972, Control_c,0,64,0
2,814064, Note_on_c,0,68,60
2,814068, Note_on_c,0,78,56
2,814072, Note_on_c,0,80,59
2,814072, Note_on_c,0,51,54
2,814072, Note_on_c,0,60,60
2,814084, Note_on_c,0,48,48
2,814100, Note_on_c,0,51,0
2,814104, Note_on_c,0,60,0
2,814112, Note_on_c,0,48,0
2,814120, Note_on_c,0,68,0
2,814120, Note_on_c,0,78,0
2,814132, Note_on_c,0,80,0
2,814240, Note_on_c,0,59,63
2,814244, Note_on_c,0,81,75
2,814244, Note_on_c,0,69,68
2,814252, Note_on_c,0,47,51
2,814268, Note_on_c,0,69,0
2,814268, Note_on_c,0,59,0
2,814268, Note_on_c,0,81,0
2,814280, Note_on_c,0,47,0
2,814360, Note_on_c,0,58,61
2,814360, Note_on_c,0,70,74
2,814364, Note_on_c,0,82,78
2,814372, Note_on_c,0,46,60
2,814392, Note_on_c,0,58,0
2,814396, Note_on_c,0,46,0
2,814404, Note_on_c,0,70,0
2,814412, Note_on_c,0,82,0
2,814476, Note_on_c,0,83,90
2,814476, Note_on_c,0,71,79
2,814480, Note_on_c,0,55,72
2,814492, Note_on_c,0,43,45
2,814500, Note_on_c,0,55,0
2,814500, Note_on_c,0,83,0
2,814500, Note_on_c,0,71,0
2,814520, Note_on_c,0,43,0
2,814584, Note_on_c,0,72,88
2,814584, Note_on_c,0,84,93
2,814584, Control_c,0,64,56
2,814588, Note_on_c,0,56,76
2,814592, Note_on_c,0,44,58
2,814600, Control_c,0,64,127
2,814608, Note_on_c,0,72,0
2,814616, Note_on_c,0,56,0
2,814620, Note_on_c,0,44,0
2,814628, Note_on_c,0,84,0
2,814808, Control_c,0,64,104
2,814820, Control_c,0,64,56
2,814832, Control_c,0,64,0
2,814896, Note_on_c,0,82,75
2,814896, Note_on_c,0,80,67
2,814896, Note_on_c,0,70,79
2,814896, Note_on_c,0,54,61
2,814896, Note_on_c,0,64,73
2,814896, Note_on_c,0,52,64
2,814924, Note_on_c,0,52,0
2,814924, Note_on_c,0,64,0
2,814944, Note_on_c,0,54,0
2,814948, Note_on_c,0,70,0
2,814948, Note_on_c,0,80,0
2,814960, Note_on_c,0,82,0
2,815036, Note_on_c,0,63,76
2,815040, Note_on_c,0,51,86
2,815040, Note_on_c,0,84,93
2,815044, Note_on_c,0,72,82
2,815068, Note_on_c,0,72,0
2,815076, Note_on_c,0,51,0
2,815080, Note_on_c,0,63,0
2,815088, Note_on_c,0,84,0
2,815148, Note_on_c,0,61,77
2,815148, Note_on_c,0,49,76
2,815156, Note_on_c,0,73,84
2,815156, Note_on_c,0,85,81
2,815172, Note_on_c,0,61,0
2,815176, Note_on_c,0,49,0
2,815200, Note_on_c,0,73,0
2,815208, Note_on_c,0,85,0
2,815256, Note_on_c,0,59,82
2,815260, Note_on_c,0,86,100
2,815264, Note_on_c,0,74,86
2,815268, Note_on_c,0,47,62
2,815284, Note_on_c,0,74,0
2,815288, Note_on_c,0,59,0
2,815292, Note_on_c,0,47,0
2,815312, Note_on_c,0,86,0
2,815360, Note_on_c,0,87,105
2,815364, Note_on_c,0,75,90
2,815372, Note_on_c,0,60,82
2,815380, Control_c,0,64,88
2,815384, Note_on_c,0,48,71
2,815392, Control_c,0,64,127
2,815408, Note_on_c,0,48,0
2,815408, Note_on_c,0,75,0
2,815412, Note_on_c,0,60,0
2,815416, Note_on_c,0,87,0
2,815672, Control_c,0,64,72
2,815676, Note_on_c,0,56,51
2,815684, Control_c,0,64,0
2,815712, Note_on_c,0,61,57
2,815760, Note_on_c,0,64,66
2,815776, Note_on_c,0,56,0
2,815792, Note_on_c,0,64,0
2,815796, Control_c,0,64,127
2,815800, Note_on_c,0,68,62
2,815812, Note_on_c,0,61,0
2,815820, Note_on_c,0,73,57
2,815856, Note_on_c,0,76,73
2,815880, Note_on_c,0,68,0
2,815904, Note_on_c,0,73,0
2,815936, Note_on_c,0,81,94
2,815944, Note_on_c,0,76,0
2,815988, Note_on_c,0,81,0
2,816116, Note_on_c,0,44,54
2,816148, Note_on_c,0,49,48
2,816176, Note_on_c,0,44,0
2,816176, Note_on_c,0,52,52
2,816196, Note_on_c,0,49,0
2,816204, Note_on_c,0,56,53
2,816208, Note_on_c,0,52,0
2,816240, Note_on_c,0,61,64
2,816244, Note_on_c,0,56,0
2,816280, Note_on_c,0,64,55
2,816304, Note_on_c,0,61,0
2,816316, Note_on_c,0,68,61
2,816336, Note_on_c,0,64,0
2,816356, Note_on_c,0,73,73
2,816392, Note_on_c,0,68,0
2,816428, Note_on_c,0,73,0
2,816492, Note_on_c,0,79,94
2,816548, Note_on_c,0,79,0
2,817416, Note_on_c,0,80,69
2,817524, Note_on_c,0,80,0
2,817836, Control_c,0,64,88
2,817852, Control_c,0,64,0
2,817916, Note_on_c,0,70,74
2,817920, Note_on_c,0,82,75
2,817924, Note_on_c,0,80,65
2,817932, Note_on_c,0,64,69
2,817936, Note_on_c,0,52,69
2,817968, Note_on_c,0,52,0
2,817968, Note_on_c,0,70,0
2,817968, Note_on_c,0,64,0
2,817972, Note_on_c,0,80,0
2,818008, Note_on_c,0,82,0
2,818080, Note_on_c,0,84,88
2,818080, Note_on_c,0,63,73
2,818084, Note_on_c,0,72,82
2,818084, Note_on_c,0,51,74
2,818112, Note_on_c,0,51,0
2,818112, Note_on_c,0,72,0
2,818120, Note_on_c,0,63,0
2,818128, Note_on_c,0,84,0
2,818200, Note_on_c,0,61,74
2,818204, Note_on_c,0,85,86
2,818204, Note_on_c,0,73,85
2,818208, Note_on_c,0,49,74
2,818232, Note_on_c,0,49,0
2,818232, Note_on_c,0,61,0
2,818248, Note_on_c,0,73,0
2,818252, Note_on_c,0,85,0
2,818316, Note_on_c,0,87,91
2,818320, Note_on_c,0,60,80
2,818320, Note_on_c,0,75,90
2,818328, Note_on_c,0,48,74
2,818352, Note_on_c,0,60,0
2,818356, Note_on_c,0,48,0
2,818372, Note_on_c,0,75,0
2,818388, Note_on_c,0,87,0
2,818432, Note_on_c,0,88,100
2,818436, Note_on_c,0,76,90
2,818436, Control_c,0,64,88
2,818444, Note_on_c,0,61,75
2,818448, Note_on_c,0,49,73
2,818452, Control_c,0,64,127
2,818464, Note_on_c,0,76,0
2,818468, Note_on_c,0,88,0
2,818472, Note_on_c,0,49,0
2,818480, Note_on_c,0,61,0
2,818644, Control_c,0,64,104
2,818660, Control_c,0,64,24
2,818672, Control_c,0,64,0
2,818752, Note_on_c,0,85,87
2,818752, Note_on_c,0,73,85
2,818756, Note_on_c,0,68,68
2,818760, Note_on_c,0,80,70
2,818760, Note_on_c,0,64,66
2,818768, Note_on_c,0,56,72
2,818772, Control_c,0,64,72
2,818784, Note_on_c,0,64,0
2,818784, Control_c,0,64,127
2,818788, Note_on_c,0,80,0
2,818804, Note_on_c,0,73,0
2,818812, Note_on_c,0,68,0
2,818820, Note_on_c,0,56,0
2,818828, Note_on_c,0,85,0
2,818908, Note_on_c,0,87,85
2,818908, Note_on_c,0,75,86
2,818920, Note_on_c,0,54,71
2,818920, Note_on_c,0,66,61
2,818940, Note_on_c,0,54,0
2,818944, Note_on_c,0,66,0
2,818956, Note_on_c,0,75,0
2,818964, Note_on_c,0,87,0
2,818980, Control_c,0,64,72
2,818996, Control_c,0,64,24
2,819008, Control_c,0,64,0
2,819020, Note_on_c,0,64,78
2,819020, Note_on_c,0,76,93
2,819020, Note_on_c,0,88,95
2,819032, Note_on_c,0,52,74
2,819044, Note_on_c,0,76,0
2,819048, Note_on_c,0,64,0
2,819056, Note_on_c,0,52,0
2,819068, Note_on_c,0,88,0
2,819132, Note_on_c,0,63,72
2,819140, Note_on_c,0,79,92
2,819140, Note_on_c,0,91,97
2,819140, Note_on_c,0,51,75
2,819160, Note_on_c,0,79,0
2,819168, Note_on_c,0,51,0
2,819168, Note_on_c,0,91,0
2,819176, Note_on_c,0,63,0
2,819244, Note_on_c,0,92,100
2,819248, Note_on_c,0,80,100
2,819248, Control_c,0,64,40
2,819260, Note_on_c,0,64,79
2,819260, Control_c,0,64,127
2,819268, Note_on_c,0,52,75
2,819280, Note_on_c,0,80,0
2,819284, Note_on_c,0,64,0
2,819296, Note_on_c,0,92,0
2,819296, Note_on_c,0,52,0
2,819636, Control_c,0,64,104
2,819648, Control_c,0,64,0
2,819660, Note_on_c,0,57,81
2,819664, Note_on_c,0,45,86
2,819712, Control_c,0,64,56
2,819720, Control_c,0,64,127
2,819780, Note_on_c,0,64,76
2,819784, Note_on_c,0,60,69
2,819884, Note_on_c,0,45,0
2,819884, Note_on_c,0,57,0
2,819904, Note_on_c,0,61,75
2,819928, Note_on_c,0,61,0
2,819932, Note_on_c,0,60,0
2,819948, Note_on_c,0,64,0
2,820044, Note_on_c,0,73,91
2,820044, Note_on_c,0,63,89
2,820044, Note_on_c,0,69,66
2,820048, Note_on_c,0,55,82
2,820056, Note_on_c,0,43,82
2,820056, Control_c,0,64,72
2,820068, Control_c,0,64,0
2,820104, Note_on_c,0,63,0
2,820120, Control_c,0,64,40
2,820124, Note_on_c,0,69,0
2,820132, Control_c,0,64,88
2,820136, Note_on_c,0,73,0
2,820144, Control_c,0,64,127
2,820164, Note_on_c,0,64,90
2,820232, Note_on_c,0,64,0
2,820276, Control_c,0,64,104
2,820284, Note_on_c,0,73,81
2,820284, Note_on_c,0,76,92
2,820284, Control_c,0,64,72
2,820288, Note_on_c,0,69,82
2,820304, Control_c,0,64,104
2,820308, Note_on_c,0,69,0
2,820316, Control_c,0,64,127
2,820332, Note_on_c,0,76,0
2,820340, Note_on_c,0,73,0
2,820416, Control_c,0,64,72
2,820424, Note_on_c,0,73,91
2,820424, Note_on_c,0,69,96
2,820428, Note_on_c,0,81,100
2,820428, Note_on_c,0,76,87
2,820428, Control_c,0,64,0
2,820448, Note_on_c,0,76,0
2,820460, Note_on_c,0,55,0
2,820468, Note_on_c,0,76,24
2,820468, Control_c,0,64,24
2,820480, Note_on_c,0,43,0
2,820480, Control_c,0,64,88
2,820492, Control_c,0,64,127
2,820544, Note_on_c,0,54,71
2,820544, Note_on_c,0,42,68
2,820588, Note_on_c,0,42,0
2,820588, Note_on_c,0,54,0
2,820620, Note_on_c,0,81,0
2,820648, Note_on_c,0,69,0
2,820660, Note_on_c,0,73,0
2,820660, Note_on_c,0,55,80
2,820664, Note_on_c,0,43,77
2,820700, Note_on_c,0,55,0
2,820704, Note_on_c,0,43,0
2,820724, Note_on_c,0,76,0
2,820772, Control_c,0,64,72
2,820784, Control_c,0,64,0
2,820788, Note_on_c,0,79,96
2,820792, Note_on_c,0,76,86
2,820792, Note_on_c,0,67,83
2,820792, Note_on_c,0,49,82
2,820796, Note_on_c,0,61,77
2,820828, Note_on_c,0,61,0
2,820828, Note_on_c,0,49,0
2,820836, Control_c,0,64,40
2,820848, Control_c,0,64,88
2,820860, Control_c,0,64,127
2,820904, Note_on_c,0,59,72
2,820912, Note_on_c,0,47,75
2,820944, Note_on_c,0,59,0
2,820952, Note_on_c,0,47,0
2,821000, Note_on_c,0,67,0
2,821012, Note_on_c,0,76,0
2,821024, Note_on_c,0,60,82
2,821028, Note_on_c,0,79,0
2,821032, Note_on_c,0,48,82
2,821108, Control_c,0,64,88
2,821120, Control_c,0,64,0
2,821168, Note_on_c,0,68,82
2,821168, Note_on_c,0,80,97
2,821176, Note_on_c,0,75,74
2,821196, Control_c,0,64,72
2,821204, Note_on_c,0,48,0
2,821204, Control_c,0,64,127
2,821212, Note_on_c,0,60,0
2,821240, Note_on_c,0,80,0
2,821244, Note_on_c,0,68,0
2,821252, Note_on_c,0,75,0
2,821300, Note_on_c,0,64,68
2,821300, Note_on_c,0,67,75
2,821360, Note_on_c,0,67,0
2,821360, Note_on_c,0,64,0
2,821392, Note_on_c,0,56,63
2,821400, Note_on_c,0,68,84
2,821456, Control_c,0,64,72
2,821468, Control_c,0,64,0
2,821504, Note_on_c,0,49,59
2,821516, Note_on_c,0,76,81
2,821516, Note_on_c,0,73,67
2,821520, Control_c,0,64,72
2,821524, Note_on_c,0,68,0
2,821528, Note_on_c,0,56,0
2,821532, Control_c,0,64,127
2,821540, Note_on_c,0,49,0
2,821552, Note_on_c,0,76,0
2,821560, Note_on_c,0,73,0
2,821620, Note_on_c,0,79,96
2,821632, Note_on_c,0,76,73
2,821680, Note_on_c,0,79,0
2,821688, Note_on_c,0,76,0
2,821728, Note_on_c,0,80,91
2,821736, Note_on_c,0,68,54
2,821784, Note_on_c,0,68,0
2,821808, Note_on_c,0,80,0
2,821840, Note_on_c,0,61,69
2,821844, Note_on_c,0,88,93
2,821852, Note_on_c,0,85,77
2,821912, Note_on_c,0,61,0
2,821928, Note_on_c,0,85,0
2,821932, Note_on_c,0,88,0
2,821952, Note_on_c,0,64,65
2,821956, Note_on_c,0,79,89
2,822024, Note_on_c,0,64,0
2,822056, Note_on_c,0,79,0
2,822060, Note_on_c,0,80,91
2,822072, Note_on_c,0,68,79
2,822120, Note_on_c,0,68,0
2,822184, Note_on_c,0,85,77
2,822188, Note_on_c,0,88,84
2,822192, Note_on_c,0,76,89
2,822196, Note_on_c,0,73,81
2,822204, Note_on_c,0,80,0
2,822224, Note_on_c,0,88,0
2,822228, Note_on_c,0,85,0
2,822228, Note_on_c,0,76,0
2,822228, Note_on_c,0,73,0
2,822296, Note_on_c,0,91,99
2,822400, Note_on_c,0,91,0
2,822432, Note_on_c,0,100,100
2,822432, Note_on_c,0,97,81
2,822432, Note_on_c,0,92,70
2,822468, Note_on_c,0,97,0
2,822480, Note_on_c,0,92,0
2,822484, Note_on_c,0,100,0
2,822700, Note_on_c,0,59,88
2,822704, Note_on_c,0,47,75
2,822736, Control_c,0,64,88
2,822748, Control_c,0,64,0
2,822812, Control_c,0,64,56
2,822816, Note_on_c,0,66,77
2,822816, Note_on_c,0,62,78
2,822824, Control_c,0,64,127
2,822884, Note_on_c,0,62,0
2,822908, Note_on_c,0,66,0
2,822916, Note_on_c,0,63,86
2,822920, Note_on_c,0,47,0
2,822928, Note_on_c,0,59,0
2,822968, Note_on_c,0,63,0
2,823056, Note_on_c,0,65,93
2,823056, Note_on_c,0,75,93
2,823056, Note_on_c,0,71,70
2,823068, Note_on_c,0,57,73
2,823076, Note_on_c,0,45,76
2,823084, Control_c,0,64,56
2,823096, Control_c,0,64,0
2,823100, Note_on_c,0,65,0
2,823104, Note_on_c,0,71,0
2,823128, Control_c,0,64,72
2,823136, Control_c,0,64,127
2,823156, Note_on_c,0,75,0
2,823184, Note_on_c,0,66,91
2,823244, Note_on_c,0,66,0
2,823300, Note_on_c,0,78,90
2,823300, Note_on_c,0,71,88
2,823304, Note_on_c,0,75,80
2,823336, Note_on_c,0,71,0
2,823344, Note_on_c,0,75,0
2,823364, Note_on_c,0,78,0
2,823440, Control_c,0,64,40
2,823444, Note_on_c,0,83,100
2,823444, Note_on_c,0,71,92
2,823444, Note_on_c,0,78,75
2,823448, Note_on_c,0,75,71
2,823452, Control_c,0,64,0
2,823480, Note_on_c,0,57,0
2,823484, Control_c,0,64,40
2,823496, Note_on_c,0,45,0
2,823496, Control_c,0,64,88
2,823508, Control_c,0,64,127
2,823556, Note_on_c,0,44,72
2,823560, Note_on_c,0,56,70
2,823596, Note_on_c,0,56,0
2,823604, Note_on_c,0,44,0
2,823616, Note_on_c,0,83,0
2,823640, Note_on_c,0,71,0
2,823652, Note_on_c,0,78,0
2,823664, Note_on_c,0,57,82
2,823664, Note_on_c,0,45,90
2,823700, Note_on_c,0,45,0
2,823700, Note_on_c,0,57,0
2,823728, Note_on_c,0,75,0
2,823788, Control_c,0,64,56
2,823796, Note_on_c,0,81,96
2,823796, Note_on_c,0,69,89
2,823796, Note_on_c,0,78,80
2,823800, Note_on_c,0,51,84
2,823800, Note_on_c,0,63,77
2,823800, Control_c,0,64,0
2,823820, Control_c,0,64,56
2,823832, Note_on_c,0,63,0
2,823832, Control_c,0,64,104
2,823836, Note_on_c,0,51,0
2,823844, Control_c,0,64,127
2,823904, Note_on_c,0,49,81
2,823908, Note_on_c,0,61,73
2,823948, Note_on_c,0,61,0
2,823948, Note_on_c,0,49,0
2,823984, Note_on_c,0,78,0
2,824008, Note_on_c,0,69,0
2,824024, Note_on_c,0,62,81
2,824024, Note_on_c,0,50,85
2,824036, Note_on_c,0,81,0
2,824116, Control_c,0,64,72
2,824124, Control_c,0,64,0
2,824156, Note_on_c,0,82,88
2,824156, Note_on_c,0,70,83
2,824156, Note_on_c,0,77,88
2,824180, Note_on_c,0,50,0
2,824180, Control_c,0,64,56
2,824188, Control_c,0,64,127
2,824208, Note_on_c,0,62,0
2,824220, Note_on_c,0,77,0
2,824232, Note_on_c,0,70,0
2,824236, Note_on_c,0,82,0
2,824296, Note_on_c,0,69,74
2,824300, Note_on_c,0,66,68
2,824356, Note_on_c,0,66,0
2,824356, Note_on_c,0,69,0
2,824396, Note_on_c,0,70,82
2,824400, Note_on_c,0,58,65
2,824484, Control_c,0,64,56
2,824492, Control_c,0,64,0
2,824504, Note_on_c,0,51,77
2,824512, Note_on_c,0,78,73
2,824516, Note_on_c,0,75,70
2,824528, Note_on_c,0,70,0
2,824540, Note_on_c,0,58,0
2,824540, Note_on_c,0,51,0
2,824540, Control_c,0,64,88
2,824548, Control_c,0,64,127
2,824564, Note_on_c,0,75,0
2,824572, Note_on_c,0,78,0
2,824628, Note_on_c,0,81,87
2,824636, Note_on_c,0,78,77
2,824684, Note_on_c,0,81,0
2,824704, Note_on_c,0,78,0
2,824736, Note_on_c,0,82,88
2,824744, Note_on_c,0,70,76
2,824816, Note_on_c,0,82,0
2,824828, Note_on_c,0,70,0
2,824844, Note_on_c,0,63,65
2,824848, Note_on_c,0,90,89
2,824856, Note_on_c,0,87,79
2,824916, Note_on_c,0,63,0
2,824928, Note_on_c,0,87,0
2,824936, Note_on_c,0,90,0
2,824956, Note_on_c,0,66,68
2,824960, Note_on_c,0,81,87
2,825056, Note_on_c,0,81,0
2,825068, Note_on_c,0,82,89
2,825072, Note_on_c,0,66,0
2,825072, Note_on_c,0,70,77
2,825120, Note_on_c,0,70,0
2,825196, Note_on_c,0,90,83
2,825200, Note_on_c,0,87,73
2,825204, Note_on_c,0,75,92
2,825204, Note_on_c,0,78,82
2,825216, Note_on_c,0,82,0
2,825232, Note_on_c,0,78,0
2,825236, Note_on_c,0,75,0
2,825244, Note_on_c,0,87,0
2,825244, Note_on_c,0,90,0
2,825308, Note_on_c,0,93,100
2,825400, Note_on_c,0,93,0
2,825436, Note_on_c,0,102,95
2,825436, Note_on_c,0,99,79
2,825436, Note_on_c,0,94,73
2,825472, Note_on_c,0,99,0
2,825476, Note_on_c,0,94,0
2,825492, Note_on_c,0,102,0
2,825700, Note_on_c,0,59,88
2,825704, Note_on_c,0,47,69
2,825704, Note_on_c,0,49,64
2,825728, Control_c,0,64,40
2,825740, Control_c,0,64,0
2,825808, Control_c,0,64,88
2,825820, Control_c,0,64,127
2,825828, Note_on_c,0,65,81
2,825872, Note_on_c,0,47,0
2,825908, Note_on_c,0,65,0
2,825928, Note_on_c,0,66,80
2,825956, Note_on_c,0,59,0
2,826008, Note_on_c,0,49,0
2,826048, Note_on_c,0,57,94
2,826052, Note_on_c,0,66,0
2,826052, Note_on_c,0,49,80
2,826052, Note_on_c,0,73,64
2,826052, Note_on_c,0,76,79
2,826056, Note_on_c,0,45,78
2,826088, Control_c,0,64,72
2,826100, Control_c,0,64,0
2,826104, Note_on_c,0,76,0
2,826104, Note_on_c,0,73,0
2,826132, Control_c,0,64,104
2,826140, Control_c,0,64,127
2,826168, Note_on_c,0,77,87
2,826236, Note_on_c,0,77,0
2,826284, Note_on_c,0,78,81
2,826372, Note_on_c,0,78,0
2,826404, Note_on_c,0,88,84
2,826412, Note_on_c,0,85,71
2,826516, Note_on_c,0,78,85
2,826596, Note_on_c,0,88,0
2,826604, Note_on_c,0,45,0
2,826616, Note_on_c,0,85,0
2,826624, Note_on_c,0,77,94
2,826628, Note_on_c,0,57,0
2,826632, Note_on_c,0,78,0
2,826656, Note_on_c,0,49,0
2,826656, Note_on_c,0,77,0
2,826760, Note_on_c,0,76,86
2,826760, Note_on_c,0,58,88
2,826760, Note_on_c,0,46,61
2,826760, Note_on_c,0,73,57
2,826760, Note_on_c,0,49,79
2,826836, Control_c,0,64,56
2,826848, Control_c,0,64,0
2,826880, Note_on_c,0,66,82
2,826900, Control_c,0,64,88
2,826912, Control_c,0,64,127
2,826940, Note_on_c,0,73,0
2,826944, Note_on_c,0,76,0
2,826976, Note_on_c,0,66,0
2,826984, Note_on_c,0,64,83
2,827024, Note_on_c,0,64,0
2,827048, Note_on_c,0,49,0
2,827052, Note_on_c,0,46,0
2,827052, Note_on_c,0,58,0
2,827144, Note_on_c,0,80,100
2,827144, Note_on_c,0,71,89
2,827144, Note_on_c,0,68,85
2,827172, Control_c,0,64,104
2,827184, Control_c,0,64,0
2,827260, Control_c,0,64,56
2,827272, Note_on_c,0,37,71
2,827272, Control_c,0,64,127
2,827276, Note_on_c,0,49,82
2,827304, Note_on_c,0,49,0
2,827316, Note_on_c,0,37,0
2,827368, Note_on_c,0,80,0
2,827372, Note_on_c,0,68,0
2,827372, Note_on_c,0,71,0
2,827392, Note_on_c,0,50,79
2,827396, Note_on_c,0,38,70
2,827416, Note_on_c,0,38,0
2,827432, Note_on_c,0,50,0
2,827508, Note_on_c,0,77,99
2,827508, Control_c,0,64,56
2,827512, Note_on_c,0,65,82
2,827516, Note_on_c,0,71,81
2,827520, Note_on_c,0,56,79
2,827520, Control_c,0,64,0
2,827524, Note_on_c,0,44,75
2,827552, Control_c,0,64,40
2,827556, Note_on_c,0,56,0
2,827560, Note_on_c,0,44,0
2,827564, Control_c,0,64,104
2,827576, Control_c,0,64,127
2,827632, Note_on_c,0,55,82
2,827640, Note_on_c,0,43,79
2,827676, Note_on_c,0,55,0
2,827684, Note_on_c,0,43,0
2,827716, Control_c,0,64,88
2,827728, Control_c,0,64,0
2,827752, Note_on_c,0,56,84
2,827756, Note_on_c,0,44,78
2,827780, Control_c,0,64,40
2,827788, Note_on_c,0,44,0
2,827788, Note_on_c,0,56,0
2,827792, Control_c,0,64,88
2,827804, Control_c,0,64,127
2,827836, Control_c,0,64,88
2,827864, Note_on_c,0,61,88
2,827868, Note_on_c,0,49,82
2,827880, Control_c,0,64,104
2,827888, Control_c,0,64,72
2,827892, Note_on_c,0,49,0
2,827900, Note_on_c,0,61,0
2,827900, Control_c,0,64,40
2,827912, Control_c,0,64,0
2,827972, Note_on_c,0,62,82
2,827976, Note_on_c,0,50,84
2,827976, Control_c,0,64,40
2,827988, Control_c,0,64,72
2,827996, Control_c,0,64,88
2,828000, Note_on_c,0,50,0
2,828008, Note_on_c,0,62,0
2,828008, Control_c,0,64,104
2,828060, Note_on_c,0,65,0
2,828064, Note_on_c,0,77,0
2,828064, Control_c,0,64,127
2,828080, Note_on_c,0,61,83
2,828084, Note_on_c,0,49,88
2,828116, Note_on_c,0,49,0
2,828124, Note_on_c,0,61,0
2,828144, Note_on_c,0,71,0
2,828184, Control_c,0,64,56
2,828192, Control_c,0,64,0
2,828196, Note_on_c,0,78,87
2,828200, Note_on_c,0,66,83
2,828204, Note_on_c,0,64,84
2,828204, Note_on_c,0,71,75
2,828216, Note_on_c,0,52,76
2,828236, Control_c,0,64,24
2,828244, Note_on_c,0,64,0
2,828248, Control_c,0,64,88
2,828256, Note_on_c,0,52,0
2,828256, Control_c,0,64,127
2,828312, Note_on_c,0,50,75
2,828312, Note_on_c,0,62,92
2,828348, Note_on_c,0,50,0
2,828364, Note_on_c,0,62,0
2,828372, Note_on_c,0,66,0
2,828428, Note_on_c,0,63,91
2,828444, Note_on_c,0,51,80
2,828476, Note_on_c,0,63,0
2,828480, Note_on_c,0,51,0
2,828560, Note_on_c,0,61,93
2,828564, Note_on_c,0,49,83
2,828576, Note_on_c,0,51,76
2,828580, Note_on_c,0,71,0
2,828592, Note_on_c,0,78,0
2,828636, Control_c,0,64,104
2,828648, Control_c,0,64,40
2,828660, Control_c,0,64,0
2,828680, Note_on_c,0,67,77
2,828704, Control_c,0,64,40
2,828712, Control_c,0,64,104
2,828724, Control_c,0,64,127
2,828752, Note_on_c,0,67,0
2,828760, Note_on_c,0,49,0
2,828784, Note_on_c,0,68,75
2,828804, Note_on_c,0,61,0
2,828856, Note_on_c,0,51,0
2,828900, Note_on_c,0,78,73
2,828904, Note_on_c,0,68,0
2,828904, Note_on_c,0,59,97
2,828904, Note_on_c,0,51,76
2,828908, Note_on_c,0,47,79
2,828916, Note_on_c,0,75,66
2,828940, Note_on_c,0,75,0
2,828956, Note_on_c,0,78,0
2,829020, Note_on_c,0,79,72
2,829040, Control_c,0,64,88
2,829052, Control_c,0,64,0
2,829076, Note_on_c,0,79,0
2,829104, Control_c,0,64,56
2,829116, Control_c,0,64,127
2,829124, Note_on_c,0,80,84
2,829224, Note_on_c,0,80,0
2,829236, Note_on_c,0,90,83
2,829240, Note_on_c,0,87,77
2,829344, Note_on_c,0,80,85
2,829404, Note_on_c,0,47,0
2,829448, Note_on_c,0,90,0
2,829452, Note_on_c,0,87,0
2,829456, Note_on_c,0,78,80
2,829464, Note_on_c,0,59,0
2,829464, Note_on_c,0,80,0
2,829504, Note_on_c,0,78,0
2,829536, Note_on_c,0,51,0
2,829576, Note_on_c,0,51,71
2,829580, Note_on_c,0,78,79
2,829580, Note_on_c,0,60,86
2,829588, Note_on_c,0,48,70
2,829596, Note_on_c,0,75,69
2,829636, Control_c,0,64,72
2,829648, Control_c,0,64,0
2,829688, Note_on_c,0,68,79
2,829712, Note_on_c,0,75,0
2,829712, Control_c,0,64,88
2,829724, Control_c,0,64,127
2,829764, Note_on_c,0,78,0
2,829792, Note_on_c,0,66,78
2,829804, Note_on_c,0,68,0
2,829840, Note_on_c,0,66,0
2,829940, Control_c,0,64,0
2,829944, Note_on_c,0,81,102
2,829948, Note_on_c,0,73,84
2,829948, Note_on_c,0,69,90
2,829968, Note_on_c,0,60,0
2,829984, Note_on_c,0,51,0
2,829988, Note_on_c,0,48,0
2,830004, Control_c,0,64,56
2,830016, Control_c,0,64,127
2,830068, Note_on_c,0,51,85
2,830072, Note_on_c,0,39,77
2,830104, Note_on_c,0,39,0
2,830108, Note_on_c,0,51,0
2,830152, Note_on_c,0,81,0
2,830164, Note_on_c,0,69,0
2,830176, Note_on_c,0,52,81
2,830180, Note_on_c,0,40,78
2,830216, Note_on_c,0,40,0
2,830216, Note_on_c,0,52,0
2,830244, Note_on_c,0,73,0
2,830276, Control_c,0,64,104
2,830288, Control_c,0,64,0
2,830296, Note_on_c,0,79,108
2,830300, Note_on_c,0,67,76
2,830300, Note_on_c,0,73,69
2,830304, Note_on_c,0,58,79
2,830308, Note_on_c,0,46,77
2,830344, Note_on_c,0,46,0
2,830344, Note_on_c,0,58,0
2,830344, Control_c,0,64,24
2,830352, Control_c,0,64,72
2,830364, Control_c,0,64,104
2,830376, Control_c,0,64,127
2,830412, Note_on_c,0,57,76
2,830416, Control_c,0,64,56
2,830420, Note_on_c,0,45,82
2,830428, Control_c,0,64,0
2,830452, Note_on_c,0,57,0
2,830464, Note_on_c,0,45,0
2,830492, Control_c,0,64,40
2,830504, Control_c,0,64,104
2,830516, Control_c,0,64,127
2,830524, Note_on_c,0,58,87
2,830528, Note_on_c,0,46,81
2,830560, Note_on_c,0,46,0
2,830560, Note_on_c,0,58,0
2,830624, Control_c,0,64,88
2,830636, Control_c,0,64,56
2,830640, Note_on_c,0,63,88
2,830640, Note_on_c,0,51,82
2,830644, Control_c,0,64,72
2,830656, Control_c,0,64,104
2,830668, Control_c,0,64,127
2,830672, Note_on_c,0,63,0
2,830684, Note_on_c,0,51,0
2,830744, Note_on_c,0,64,80
2,830760, Note_on_c,0,52,73
2,830792, Note_on_c,0,64,0
2,830796, Note_on_c,0,52,0
2,830808, Note_on_c,0,67,0
2,830864, Note_on_c,0,79,0
2,830864, Note_on_c,0,63,82
2,830868, Note_on_c,0,51,79
2,830900, Note_on_c,0,51,0
2,830900, Note_on_c,0,63,0
2,830900, Note_on_c,0,73,0
2,830960, Control_c,0,64,56
2,830972, Control_c,0,64,0
2,830984, Note_on_c,0,66,88
2,830984, Note_on_c,0,80,91
2,830984, Note_on_c,0,54,77
2,830984, Note_on_c,0,68,80
2,830984, Note_on_c,0,73,75
2,831020, Note_on_c,0,54,0
2,831020, Note_on_c,0,66,0
2,831036, Control_c,0,64,56
2,831044, Control_c,0,64,127
2,831100, Note_on_c,0,51,88
2,831100, Note_on_c,0,63,81
2,831132, Note_on_c,0,63,0
2,831140, Note_on_c,0,51,0
2,831204, Note_on_c,0,80,0
2,831212, Note_on_c,0,64,86
2,831224, Note_on_c,0,73,0
2,831224, Note_on_c,0,52,76
2,831228, Note_on_c,0,68,0
2,831244, Note_on_c,0,52,0
2,831252, Note_on_c,0,64,0
2,831340, Note_on_c,0,59,94
2,831352, Note_on_c,0,47,82
2,831352, Note_on_c,0,49,71
2,831376, Note_on_c,0,47,0
2,831396, Control_c,0,64,72
2,831404, Control_c,0,64,0
2,831444, Note_on_c,0,73,85
2,831448, Note_on_c,0,61,78
2,831468, Control_c,0,64,24
2,831480, Control_c,0,64,88
2,831492, Note_on_c,0,61,0
2,831492, Control_c,0,64,127
2,831496, Note_on_c,0,73,0
2,831556, Note_on_c,0,74,92
2,831556, Note_on_c,0,62,79
2,831580, Note_on_c,0,59,0
2,831588, Note_on_c,0,49,0
2,831596, Note_on_c,0,74,0
2,831596, Note_on_c,0,62,0
2,831668, Note_on_c,0,64,88
2,831672, Note_on_c,0,76,88
2,831684, Note_on_c,0,57,76
2,831692, Note_on_c,0,45,79
2,831692, Note_on_c,0,49,70
2,831716, Note_on_c,0,64,0
2,831720, Note_on_c,0,76,0
2,831720, Control_c,0,64,24
2,831728, Control_c,0,64,0
2,831760, Control_c,0,64,56
2,831772, Control_c,0,64,127
2,831796, Note_on_c,0,78,85
2,831796, Note_on_c,0,66,83
2,831844, Note_on_c,0,66,0
2,831844, Note_on_c,0,78,0
2,831908, Note_on_c,0,79,99
2,831908, Note_on_c,0,67,85
2,831944, Note_on_c,0,67,0
2,831948, Note_on_c,0,79,0
2,832004, Note_on_c,0,49,0
2,832028, Note_on_c,0,71,92
2,832028, Note_on_c,0,83,109
2,832028, Note_on_c,0,73,92
2,832032, Control_c,0,64,56
2,832044, Control_c,0,64,0
2,832080, Note_on_c,0,57,0
2,832080, Control_c,0,64,40
2,832084, Note_on_c,0,45,0
2,832088, Control_c,0,64,104
2,832100, Control_c,0,64,127
2,832156, Note_on_c,0,55,76
2,832168, Note_on_c,0,43,70
2,832184, Note_on_c,0,43,0
2,832200, Note_on_c,0,55,0
2,832232, Note_on_c,0,83,0
2,832260, Note_on_c,0,71,0
2,832268, Note_on_c,0,53,74
2,832268, Note_on_c,0,41,69
2,832280, Note_on_c,0,73,0
2,832308, Note_on_c,0,53,0
2,832312, Note_on_c,0,41,0
2,832384, Note_on_c,0,81,90
2,832384, Note_on_c,0,69,82
2,832384, Note_on_c,0,74,86
2,832384, Note_on_c,0,54,82
2,832388, Note_on_c,0,42,71
2,832404, Control_c,0,64,104
2,832412, Control_c,0,64,24
2,832416, Note_on_c,0,42,0
2,832424, Note_on_c,0,54,0
2,832424, Control_c,0,64,0
2,832436, Control_c,0,64,24
2,832448, Control_c,0,64,72
2,832456, Control_c,0,64,127
2,832504, Note_on_c,0,53,73
2,832512, Note_on_c,0,41,72
2,832536, Note_on_c,0,53,0
2,832548, Note_on_c,0,41,0
2,832620, Note_on_c,0,54,85
2,832620, Note_on_c,0,42,80
2,832632, Note_on_c,0,81,0
2,832640, Note_on_c,0,74,0
2,832648, Note_on_c,0,69,0
2,832648, Note_on_c,0,54,0
2,832652, Note_on_c,0,42,0
2,832744, Note_on_c,0,60,93
2,832744, Note_on_c,0,50,84
2,832744, Note_on_c,0,48,82
2,832780, Control_c,0,64,56
2,832792, Control_c,0,64,0
2,832836, Control_c,0,64,24
2,832848, Control_c,0,64,88
2,832860, Control_c,0,64,127
2,832864, Note_on_c,0,62,83
2,832868, Note_on_c,0,74,90
2,832892, Note_on_c,0,48,0
2,832904, Note_on_c,0,62,0
2,832916, Note_on_c,0,74,0
2,832936, Note_on_c,0,60,0
2,832968, Note_on_c,0,76,96
2,832968, Note_on_c,0,64,86
2,833008, Note_on_c,0,64,0
2,833024, Note_on_c,0,76,0
2,833084, Note_on_c,0,78,83
2,833084, Note_on_c,0,66,83
2,833084, Note_on_c,0,47,75
2,833084, Note_on_c,0,59,76
2,833084, Note_on_c,0,51,72
2,833088, Control_c,0,64,104
2,833096, Control_c,0,64,24
2,833108, Control_c,0,64,0
2,833120, Control_c,0,64,40
2,833124, Note_on_c,0,66,0
2,833128, Control_c,0,64,88
2,833136, Note_on_c,0,78,0
2,833140, Control_c,0,64,127
2,833188, Note_on_c,0,67,86
2,833192, Note_on_c,0,79,92
2,833228, Note_on_c,0,67,0
2,833236, Note_on_c,0,79,0
2,833296, Note_on_c,0,81,97
2,833296, Note_on_c,0,69,81
2,833332, Note_on_c,0,69,0
2,833344, Note_on_c,0,81,0
2,833388, Note_on_c,0,50,0
2,833412, Control_c,0,64,88
2,833420, Note_on_c,0,84,99
2,833424, Note_on_c,0,72,107
2,833424, Note_on_c,0,75,86
2,833424, Control_c,0,64,0
2,833464, Control_c,0,64,56
2,833468, Note_on_c,0,47,0
2,833468, Note_on_c,0,59,0
2,833476, Control_c,0,64,127
2,833516, Note_on_c,0,51,0
2,833536, Note_on_c,0,57,80
2,833540, Note_on_c,0,45,82
2,833576, Note_on_c,0,57,0
2,833584, Note_on_c,0,45,0
2,833620, Note_on_c,0,84,0
2,833632, Note_on_c,0,75,0
2,833636, Note_on_c,0,72,0
2,833644, Note_on_c,0,55,88
2,833644, Note_on_c,0,43,77
2,833684, Note_on_c,0,43,0
2,833692, Note_on_c,0,55,0
2,833772, Note_on_c,0,76,89
2,833772, Note_on_c,0,71,82
2,833772, Note_on_c,0,83,92
2,833772, Control_c,0,64,104
2,833776, Note_on_c,0,56,77
2,833776, Note_on_c,0,44,80
2,833780, Control_c,0,64,24
2,833792, Control_c,0,64,0
2,833816, Note_on_c,0,56,0
2,833820, Note_on_c,0,44,0
2,833824, Control_c,0,64,56
2,833836, Control_c,0,64,127
2,833872, Note_on_c,0,71,0
2,833888, Note_on_c,0,55,85
2,833888, Note_on_c,0,43,80
2,833916, Note_on_c,0,43,0
2,833924, Note_on_c,0,83,0
2,833932, Note_on_c,0,55,0
2,833988, Note_on_c,0,76,0
2,834004, Note_on_c,0,56,83
2,834008, Note_on_c,0,44,75
2,834052, Note_on_c,0,44,0
2,834056, Note_on_c,0,56,0
2,834092, Note_on_c,0,46,74
2,834104, Control_c,0,64,72
2,834116, Control_c,0,64,0
2,834144, Note_on_c,0,55,59
2,834164, Note_on_c,0,84,90
2,834168, Note_on_c,0,72,94
2,834168, Note_on_c,0,79,85
2,834168, Note_on_c,0,76,86
2,834172, Control_c,0,64,72
2,834184, Note_on_c,0,46,0
2,834184, Note_on_c,0,52,58
2,834184, Control_c,0,64,127
2,834204, Note_on_c,0,52,0
2,834216, Note_on_c,0,55,0
2,834216, Note_on_c,0,60,79
2,834252, Note_on_c,0,84,0
2,834256, Note_on_c,0,72,0
2,834260, Note_on_c,0,79,0
2,834272, Note_on_c,0,76,0
2,834276, Note_on_c,0,60,0
2,834300, Note_on_c,0,62,84
2,834364, Note_on_c,0,62,0
2,834396, Note_on_c,0,64,87
2,834440, Note_on_c,0,64,0
2,834524, Note_on_c,0,65,100
2,834528, Note_on_c,0,77,96
2,834532, Note_on_c,0,57,79
2,834532, Control_c,0,64,72
2,834536, Note_on_c,0,45,88
2,834536, Note_on_c,0,72,83
2,834540, Control_c,0,64,0
2,834572, Control_c,0,64,104
2,834576, Note_on_c,0,45,0
2,834576, Note_on_c,0,57,0
2,834584, Note_on_c,0,72,0
2,834584, Control_c,0,64,127
2,834600, Note_on_c,0,77,0
2,834612, Note_on_c,0,65,0
2,834640, Note_on_c,0,67,88
2,834748, Note_on_c,0,69,89
2,834760, Note_on_c,0,67,0
2,834784, Note_on_c,0,69,0
2,834816, Note_on_c,0,54,70
2,834816, Note_on_c,0,48,77
2,834824, Note_on_c,0,57,63
2,834856, Control_c,0,64,104
2,834860, Note_on_c,0,48,0
2,834868, Control_c,0,64,24
2,834876, Control_c,0,64,0
2,834888, Note_on_c,0,86,100
2,834896, Note_on_c,0,74,96
2,834896, Note_on_c,0,81,93
2,834896, Note_on_c,0,78,81
2,834900, Note_on_c,0,57,0
2,834900, Note_on_c,0,62,90
2,834900, Control_c,0,64,40
2,834908, Note_on_c,0,54,0
2,834908, Control_c,0,64,104
2,834920, Control_c,0,64,127
2,834964, Note_on_c,0,62,0
2,834984, Note_on_c,0,81,0
2,834988, Note_on_c,0,86,0
2,835000, Note_on_c,0,64,82
2,835008, Note_on_c,0,78,0
2,835016, Note_on_c,0,74,0
2,835088, Note_on_c,0,64,0
2,835116, Note_on_c,0,66,81
2,835152, Note_on_c,0,66,0
2,835244, Note_on_c,0,79,96
2,835248, Note_on_c,0,67,100
2,835248, Note_on_c,0,59,80
2,835248, Note_on_c,0,74,94
2,835252, Note_on_c,0,47,83
2,835256, Control_c,0,64,56
2,835268, Control_c,0,64,0
2,835300, Control_c,0,64,104
2,835304, Note_on_c,0,47,0
2,835312, Note_on_c,0,74,0
2,835312, Control_c,0,64,127
2,835316, Note_on_c,0,79,0
2,835336, Note_on_c,0,59,0
2,835364, Note_on_c,0,67,0
2,835368, Note_on_c,0,69,87
2,835468, Note_on_c,0,69,0
2,835472, Note_on_c,0,71,79
2,835492, Note_on_c,0,71,0
2,835512, Note_on_c,0,50,80
2,835520, Note_on_c,0,56,70
2,835528, Note_on_c,0,59,73
2,835552, Control_c,0,64,104
2,835560, Control_c,0,64,24
2,835568, Note_on_c,0,50,0
2,835572, Control_c,0,64,0
2,835592, Control_c,0,64,72
2,835600, Note_on_c,0,88,103
2,835600, Note_on_c,0,76,100
2,835604, Note_on_c,0,83,96
2,835604, Note_on_c,0,80,81
2,835604, Note_on_c,0,64,83
2,835604, Control_c,0,64,127
2,835608, Note_on_c,0,56,0
2,835612, Note_on_c,0,59,0
2,835668, Note_on_c,0,64,0
2,835700, Note_on_c,0,83,0
2,835708, Note_on_c,0,88,0
2,835712, Note_on_c,0,66,88
2,835728, Note_on_c,0,80,0
2,835732, Note_on_c,0,76,0
2,835780, Note_on_c,0,66,0
2,835816, Note_on_c,0,68,80
2,835852, Note_on_c,0,68,0
2,835936, Note_on_c,0,81,94
2,835936, Note_on_c,0,69,87
2,835940, Note_on_c,0,60,78
2,835940, Note_on_c,0,76,93
2,835948, Note_on_c,0,48,80
2,835952, Control_c,0,64,56
2,835960, Control_c,0,64,0
2,835972, Control_c,0,64,24
2,835984, Note_on_c,0,69,0
2,835984, Control_c,0,64,72
2,835992, Note_on_c,0,48,0
2,835992, Control_c,0,64,127
2,836004, Note_on_c,0,60,0
2,836040, Note_on_c,0,76,0
2,836048, Note_on_c,0,71,84
2,836096, Note_on_c,0,71,0
2,836144, Note_on_c,0,81,0
2,836156, Note_on_c,0,72,82
2,836176, Note_on_c,0,72,0
2,836220, Note_on_c,0,57,68
2,836220, Note_on_c,0,51,77
2,836244, Note_on_c,0,60,75
2,836252, Control_c,0,64,72
2,836268, Control_c,0,64,0
2,836296, Note_on_c,0,51,0
2,836300, Control_c,0,64,56
2,836308, Note_on_c,0,77,96
2,836308, Control_c,0,64,127
2,836312, Note_on_c,0,89,97
2,836316, Note_on_c,0,57,0
2,836316, Note_on_c,0,84,85
2,836324, Note_on_c,0,60,0
2,836324, Note_on_c,0,65,90
2,836324, Note_on_c,0,81,72
2,836388, Note_on_c,0,65,0
2,836396, Note_on_c,0,77,0
2,836420, Note_on_c,0,84,0
2,836420, Note_on_c,0,89,0
2,836420, Note_on_c,0,67,94
2,836436, Note_on_c,0,81,0
2,836492, Note_on_c,0,67,0
2,836532, Note_on_c,0,69,86
2,836568, Note_on_c,0,69,0
2,836632, Note_on_c,0,50,82
2,836632, Note_on_c,0,58,57
2,836632, Note_on_c,0,62,70
2,836664, Note_on_c,0,82,91
2,836664, Note_on_c,0,70,88
2,836668, Note_on_c,0,77,93
2,836668, Control_c,0,64,24
2,836676, Control_c,0,64,0
2,836680, Note_on_c,0,62,0
2,836680, Note_on_c,0,50,0
2,836704, Note_on_c,0,65,85
2,836708, Control_c,0,64,72
2,836716, Note_on_c,0,58,0
2,836720, Control_c,0,64,127
2,836724, Note_on_c,0,70,0
2,836744, Note_on_c,0,65,0
2,836760, Note_on_c,0,77,0
2,836780, Note_on_c,0,82,0
2,836780, Note_on_c,0,72,97
2,836880, Note_on_c,0,74,94
2,836884, Note_on_c,0,72,0
2,836920, Note_on_c,0,74,0
2,837064, Note_on_c,0,52,70
2,837068, Control_c,0,64,56
2,837080, Control_c,0,64,0
2,837084, Note_on_c,0,90,103
2,837084, Note_on_c,0,78,108
2,837088, Note_on_c,0,85,92
2,837088, Note_on_c,0,61,68
2,837088, Note_on_c,0,82,89
2,837088, Note_on_c,0,58,65
2,837096, Note_on_c,0,66,76
2,837144, Control_c,0,64,127
2,837168, Note_on_c,0,90,0
2,837176, Note_on_c,0,85,0
2,837180, Note_on_c,0,82,0
2,837180, Note_on_c,0,78,0
2,837180, Note_on_c,0,61,0
2,837180, Note_on_c,0,66,0
2,837180, Note_on_c,0,58,0
2,837236, Note_on_c,0,52,0
2,837340, Note_on_c,0,66,97
2,837344, Note_on_c,0,78,99
2,837348, Note_on_c,0,70,86
2,837352, Note_on_c,0,61,65
2,837352, Note_on_c,0,58,57
2,837360, Note_on_c,0,52,64
2,837364, Note_on_c,0,73,54
2,837380, Note_on_c,0,66,0
2,837384, Note_on_c,0,70,0
2,837388, Note_on_c,0,73,0
2,837408, Note_on_c,0,78,0
2,837416, Note_on_c,0,61,0
2,837420, Note_on_c,0,58,0
2,837428, Note_on_c,0,52,0
2,837532, Note_on_c,0,70,99
2,837536, Note_on_c,0,82,99
2,837540, Note_on_c,0,78,89
2,837544, Note_on_c,0,61,62
2,837544, Note_on_c,0,58,66
2,837556, Note_on_c,0,73,73
2,837576, Note_on_c,0,70,0
2,837580, Note_on_c,0,73,0
2,837596, Note_on_c,0,78,0
2,837604, Note_on_c,0,82,0
2,837612, Note_on_c,0,58,0
2,837624, Note_on_c,0,61,0
2,837700, Note_on_c,0,85,100
2,837700, Note_on_c,0,73,99
2,837704, Note_on_c,0,58,57
2,837704, Note_on_c,0,61,61
2,837704, Note_on_c,0,66,65
2,837708, Note_on_c,0,82,88
2,837712, Note_on_c,0,78,72
2,837724, Note_on_c,0,52,52
2,837728, Note_on_c,0,78,0
2,837740, Note_on_c,0,73,0
2,837768, Note_on_c,0,66,0
2,837768, Note_on_c,0,85,0
2,837768, Note_on_c,0,82,0
2,837776, Note_on_c,0,58,0
2,837784, Note_on_c,0,61,0
2,837784, Note_on_c,0,52,0
2,837872, Note_on_c,0,90,100
2,837872, Note_on_c,0,78,110
2,837872, Note_on_c,0,61,62
2,837872, Note_on_c,0,58,55
2,837876, Note_on_c,0,82,85
2,837876, Note_on_c,0,85,87
2,837876, Note_on_c,0,52,59
2,837884, Note_on_c,0,66,43
2,837896, Note_on_c,0,52,0
2,837912, Note_on_c,0,58,0
2,837916, Note_on_c,0,61,0
2,837924, Note_on_c,0,82,0
2,837924, Note_on_c,0,78,0
2,837936, Note_on_c,0,66,0
2,837940, Note_on_c,0,85,0
2,838008, Note_on_c,0,90,0
2,838052, Note_on_c,0,78,95
2,838056, Note_on_c,0,90,89
2,838056, Note_on_c,0,85,86
2,838060, Note_on_c,0,82,82
2,838064, Note_on_c,0,70,64
2,838068, Note_on_c,0,73,73
2,838088, Note_on_c,0,78,0
2,838088, Note_on_c,0,64,64
2,838096, Note_on_c,0,82,0
2,838112, Note_on_c,0,85,0
2,838120, Note_on_c,0,90,0
2,838128, Note_on_c,0,70,0
2,838148, Note_on_c,0,73,0
2,838156, Note_on_c,0,64,0
2,838236, Note_on_c,0,82,103
2,838236, Note_on_c,0,94,97
2,838236, Note_on_c,0,73,71
2,838236, Note_on_c,0,70,27
2,838240, Note_on_c,0,90,85
2,838240, Note_on_c,0,85,86
2,838244, Note_on_c,0,78,69
2,838244, Note_on_c,0,64,58
2,838280, Note_on_c,0,85,0
2,838280, Note_on_c,0,82,0
2,838296, Note_on_c,0,64,0
2,838296, Note_on_c,0,78,0
2,838300, Note_on_c,0,90,0
2,838308, Note_on_c,0,94,0
2,838308, Note_on_c,0,73,0
2,838308, Note_on_c,0,70,0
2,838428, Note_on_c,0,85,100
2,838428, Note_on_c,0,97,103
2,838428, Note_on_c,0,94,91
2,838428, Note_on_c,0,70,68
2,838428, Note_on_c,0,78,79
2,838428, Note_on_c,0,90,87
2,838432, Note_on_c,0,73,71
2,838436, Note_on_c,0,64,73
2,838468, Note_on_c,0,90,0
2,838468, Note_on_c,0,85,0
2,838484, Note_on_c,0,97,0
2,838488, Note_on_c,0,94,0
2,838492, Note_on_c,0,70,0
2,838496, Note_on_c,0,78,0
2,838500, Note_on_c,0,73,0
2,838508, Note_on_c,0,64,0
2,838652, Note_on_c,0,90,108
2,838652, Note_on_c,0,102,106
2,838656, Note_on_c,0,97,93
2,838656, Note_on_c,0,94,93
2,838660, Note_on_c,0,78,86
2,838660, Note_on_c,0,70,67
2,838660, Note_on_c,0,73,74
2,838664, Note_on_c,0,64,68
2,838700, Note_on_c,0,90,0
2,838704, Note_on_c,0,64,0
2,838708, Note_on_c,0,78,0
2,838712, Note_on_c,0,70,0
2,838712, Note_on_c,0,102,0
2,838712, Note_on_c,0,73,0
2,838716, Note_on_c,0,94,0
2,838720, Note_on_c,0,97,0
2,839060, Note_on_c,0,78,106
2,839064, Note_on_c,0,90,99
2,839068, Note_on_c,0,73,97
2,839068, Note_on_c,0,85,89
2,839068, Note_on_c,0,64,73
2,839068, Note_on_c,0,82,89
2,839072, Note_on_c,0,70,80
2,839108, Note_on_c,0,73,0
2,839112, Note_on_c,0,64,0
2,839116, Note_on_c,0,78,0
2,839116, Note_on_c,0,70,0
2,839132, Note_on_c,0,90,0
2,839136, Note_on_c,0,82,0
2,839140, Note_on_c,0,85,0
2,839468, Note_on_c,0,78,96
2,839468, Note_on_c,0,66,96
2,839472, Note_on_c,0,52,76
2,839476, Note_on_c,0,70,88
2,839476, Note_on_c,0,73,85
2,839476, Note_on_c,0,61,85
2,839480, Note_on_c,0,58,71
2,839516, Note_on_c,0,61,0
2,839516, Note_on_c,0,52,0
2,839520, Note_on_c,0,66,0
2,839528, Note_on_c,0,58,0
2,839540, Note_on_c,0,78,0
2,839540, Note_on_c,0,70,0
2,839544, Note_on_c,0,73,0
2,839920, Note_on_c,0,54,97
2,839920, Note_on_c,0,66,95
2,839920, Control_c,0,64,24
2,839924, Note_on_c,0,58,83
2,839924, Note_on_c,0,61,83
2,839928, Note_on_c,0,40,71
2,839932, Note_on_c,0,49,105
2,839932, Control_c,0,64,0
2,839936, Note_on_c,0,46,87
2,839964, Note_on_c,0,49,0
2,839968, Note_on_c,0,40,0
2,839968, Control_c,0,64,40
2,839972, Note_on_c,0,46,0
2,839976, Control_c,0,64,127
2,839988, Note_on_c,0,54,0
2,839996, Note_on_c,0,58,0
2,840000, Note_on_c,0,61,0
2,840004, Note_on_c,0,66,0
2,840496, Control_c,0,64,72
2,840500, Note_on_c,0,28,73
2,840504, Note_on_c,0,42,95
2,840504, Note_on_c,0,54,96
2,840507, Note_on_c,0,46,90
2,840508, Note_on_c,0,37,103
2,840508, Note_on_c,0,34,86
2,840508, Note_on_c,0,49,89
2,840508, Control_c,0,64,0
2,840548, Note_on_c,0,37,0
2,840552, Note_on_c,0,28,0
2,840552, Control_c,0,64,127
2,840564, Note_on_c,0,34,0
2,840592, Note_on_c,0,42,0
2,840600, Note_on_c,0,54,0
2,840603, Note_on_c,0,46,0
2,840616, Note_on_c,0,49,0
2,841828, Control_c,0,64,104
2,841840, Control_c,0,64,88
2,841852, Control_c,0,64,56
2,841864, Control_c,0,64,40
2,841872, Control_c,0,64,24
2,841884, Control_c,0,64,0
2,842113, Note_on_c,0,33,77
2,842349, Note_on_c,0,34,80
2,842369, Note_on_c,0,33,0
2,842521, Note_on_c,0,36,74
2,842525, Note_on_c,0,34,0
2,842693, Note_on_c,0,37,79
2,842733, Note_on_c,0,36,0
2,842861, Note_on_c,0,36,81
2,842877, Note_on_c,0,37,0
2,843137, Note_on_c,0,39,82
2,843161, Note_on_c,0,36,0
2,843485, Note_on_c,0,37,77
2,843501, Note_on_c,0,39,0
2,843693, Note_on_c,0,36,77
2,843697, Note_on_c,0,37,0
2,843873, Note_on_c,0,36,0
2,843873, Note_on_c,0,34,73
2,844089, Note_on_c,0,61,68
2,844097, Note_on_c,0,49,62
2,844101, Note_on_c,0,58,59
2,844109, Note_on_c,0,32,60
2,844113, Note_on_c,0,34,0
2,844293, Note_on_c,0,32,0
2,844293, Note_on_c,0,30,58
2,844501, Note_on_c,0,30,0
2,844517, Note_on_c,0,28,60
2,844541, Control_c,0,64,40
2,844553, Control_c,0,64,56
2,844629, Control_c,0,64,24
2,844641, Control_c,0,64,0
2,844749, Control_c,0,64,24
2,844769, Note_on_c,0,28,0
2,844813, Note_on_c,0,29,57
2,844821, Control_c,0,64,0
2,845049, Note_on_c,0,34,58
2,845053, Control_c,0,64,104
2,845061, Note_on_c,0,29,0
2,845069, Control_c,0,64,127
2,845133, Note_on_c,0,49,0
2,845213, Note_on_c,0,34,0
2,845213, Note_on_c,0,37,50
2,845341, Note_on_c,0,37,0
2,845369, Note_on_c,0,41,63
2,845377, Note_on_c,0,58,0
2,845441, Note_on_c,0,41,0
2,845461, Note_on_c,0,61,0
2,845505, Note_on_c,0,45,66
2,845601, Note_on_c,0,45,0
2,845633, Note_on_c,0,46,59
2,845737, Note_on_c,0,46,0
2,845757, Note_on_c,0,49,66
2,845861, Note_on_c,0,49,0
2,845881, Note_on_c,0,53,74
2,845941, Note_on_c,0,53,0
2,846009, Note_on_c,0,57,67
2,846105, Note_on_c,0,57,0
2,846133, Note_on_c,0,58,58
2,846237, Note_on_c,0,58,0
2,846261, Note_on_c,0,60,70
2,846369, Note_on_c,0,61,67
2,846409, Note_on_c,0,60,0
2,846477, Note_on_c,0,61,0
2,846497, Note_on_c,0,64,77
2,846557, Control_c,0,64,56
2,846573, Control_c,0,64,0
2,846617, Note_on_c,0,65,75
2,846617, Control_c,0,64,56
2,846621, Note_on_c,0,64,0
2,846629, Control_c,0,64,104
2,846641, Control_c,0,64,127
2,846677, Note_on_c,0,65,0
2,846737, Note_on_c,0,69,72
2,846833, Control_c,0,64,88
2,846861, Note_on_c,0,70,73
2,846865, Note_on_c,0,69,0
2,846881, Control_c,0,64,127
2,847005, Note_on_c,0,70,0
2,847005, Note_on_c,0,73,75
2,847029, Control_c,0,64,88
2,847041, Control_c,0,64,0
2,847085, Control_c,0,64,40
2,847101, Control_c,0,64,104
2,847113, Control_c,0,64,127
2,847169, Note_on_c,0,73,0
2,847173, Note_on_c,0,77,77
2,847525, Note_on_c,0,80,80
2,847565, Note_on_c,0,77,0
2,847701, Control_c,0,64,104
2,847721, Control_c,0,64,88
2,847733, Control_c,0,64,72
2,847749, Control_c,0,64,56
2,847761, Control_c,0,64,24
2,847777, Control_c,0,64,0
2,848441, Control_c,0,64,24
2,848453, Control_c,0,64,40
2,848469, Control_c,0,64,72
2,848485, Control_c,0,64,88
2,848513, Control_c,0,64,104
2,848529, Control_c,0,64,127
2,849037, Note_on_c,0,80,0
2,849077, Note_on_c,0,78,56
2,849177, Control_c,0,64,88
2,849189, Control_c,0,64,0
2,849249, Control_c,0,64,40
2,849265, Control_c,0,64,127
2,849381, Note_on_c,0,78,0
2,849529, Note_on_c,0,77,75
2,849613, Note_on_c,0,77,0
2,850009, Note_on_c,0,71,71
2,850009, Note_on_c,0,63,48
2,850009, Note_on_c,0,57,45
2,850009, Note_on_c,0,53,46
2,850009, Note_on_c,0,69,55
2,850105, Control_c,0,64,24
2,850117, Control_c,0,64,0
2,850237, Control_c,0,64,88
2,850249, Control_c,0,64,127
2,850265, Note_on_c,0,57,0
2,850289, Note_on_c,0,53,0
2,850525, Note_on_c,0,69,0
2,850553, Note_on_c,0,71,0
2,850625, Note_on_c,0,41,50
2,850637, Note_on_c,0,63,0
2,850721, Note_on_c,0,41,0
2,850761, Note_on_c,0,48,55
2,850865, Note_on_c,0,48,0
2,850885, Note_on_c,0,51,61
2,851021, Note_on_c,0,51,0
2,851053, Note_on_c,0,57,50
2,851069, Note_on_c,0,72,78
2,851109, Note_on_c,0,57,0
2,851169, Note_on_c,0,72,0
2,851201, Note_on_c,0,60,52
2,851325, Note_on_c,0,63,51
2,851329, Note_on_c,0,60,0
2,851441, Note_on_c,0,63,0
2,851461, Note_on_c,0,69,50
2,851625, Note_on_c,0,69,0
2,851637, Note_on_c,0,73,75
2,851781, Control_c,0,64,72
2,851793, Control_c,0,64,40
2,851809, Control_c,0,64,56
2,851825, Control_c,0,64,88
2,851837, Control_c,0,64,127
2,851957, Note_on_c,0,73,0
2,852313, Note_on_c,0,69,69
2,852313, Note_on_c,0,65,52
2,852313, Note_on_c,0,53,36
2,852313, Note_on_c,0,58,29
2,852313, Note_on_c,0,61,35
2,852429, Control_c,0,64,72
2,852441, Control_c,0,64,0
2,852605, Control_c,0,64,127
2,852657, Note_on_c,0,53,0
2,852665, Note_on_c,0,61,0
2,852669, Note_on_c,0,58,0
2,852965, Note_on_c,0,69,0
2,853037, Note_on_c,0,41,49
2,853157, Note_on_c,0,41,0
2,853173, Note_on_c,0,46,44
2,853257, Note_on_c,0,46,0
2,853293, Note_on_c,0,49,53
2,853465, Note_on_c,0,49,0
2,853469, Note_on_c,0,65,0
2,853477, Note_on_c,0,53,45
2,853489, Note_on_c,0,70,68
2,853533, Note_on_c,0,53,0
2,853629, Note_on_c,0,58,48
2,853741, Note_on_c,0,70,0
2,853749, Note_on_c,0,61,50
2,853753, Note_on_c,0,58,0
2,853861, Note_on_c,0,61,0
2,853873, Note_on_c,0,65,59
2,854009, Note_on_c,0,65,0
2,854049, Note_on_c,0,68,73
2,854181, Control_c,0,64,72
2,854193, Control_c,0,64,0
2,854281, Control_c,0,64,40
2,854297, Control_c,0,64,127
2,854393, Note_on_c,0,68,0
2,854689, Note_on_c,0,65,68
2,854701, Note_on_c,0,62,56
2,854701, Note_on_c,0,56,31
2,854705, Note_on_c,0,54,39
2,854713, Note_on_c,0,59,39
2,854825, Control_c,0,64,104
2,854841, Control_c,0,64,0
2,854973, Control_c,0,64,88
2,854989, Control_c,0,64,127
2,855097, Note_on_c,0,54,0
2,855121, Note_on_c,0,56,0
2,855229, Note_on_c,0,62,0
2,855317, Note_on_c,0,65,0
2,855425, Note_on_c,0,41,41
2,855517, Note_on_c,0,41,0
2,855549, Note_on_c,0,59,0
2,855553, Note_on_c,0,46,42
2,855633, Note_on_c,0,46,0
2,855673, Note_on_c,0,51,53
2,855837, Note_on_c,0,51,0
2,855837, Note_on_c,0,66,67
2,855857, Note_on_c,0,54,36
2,855873, Control_c,0,64,72
2,855889, Control_c,0,64,0
2,855945, Control_c,0,64,56
2,855957, Control_c,0,64,127
2,855965, Note_on_c,0,58,41
2,855981, Note_on_c,0,54,0
2,856101, Note_on_c,0,66,0
2,856129, Note_on_c,0,62,44
2,856241, Note_on_c,0,62,0
2,856257, Note_on_c,0,63,47
2,856277, Note_on_c,0,58,0
2,856453, Note_on_c,0,61,62
2,856461, Note_on_c,0,63,0
2,856549, Control_c,0,64,88
2,856565, Control_c,0,64,0
2,856681, Control_c,0,64,40
2,856697, Control_c,0,64,127
2,856761, Note_on_c,0,61,0
2,857113, Note_on_c,0,57,55
2,857113, Note_on_c,0,48,45
2,857113, Note_on_c,0,51,36
2,857241, Control_c,0,64,72
2,857253, Control_c,0,64,0
2,857389, Control_c,0,64,40
2,857405, Control_c,0,64,88
2,857417, Control_c,0,64,127
2,857777, Note_on_c,0,42,48
2,857929, Note_on_c,0,48,0
2,857997, Note_on_c,0,42,0
2,858001, Note_on_c,0,40,53
2,858045, Note_on_c,0,51,0
2,858129, Note_on_c,0,40,0
2,858181, Note_on_c,0,41,53
2,858273, Note_on_c,0,57,0
2,858405, Note_on_c,0,41,0
2,858477, Note_on_c,0,58,49
2,858485, Note_on_c,0,42,49
2,858497, Note_on_c,0,49,40
2,858549, Control_c,0,64,72
2,858565, Control_c,0,64,0
2,858661, Note_on_c,0,49,0
2,858669, Control_c,0,64,88
2,858681, Control_c,0,64,127
2,858697, Note_on_c,0,42,0
2,858719, Note_on_c,0,48,58
2,858863, Note_on_c,0,48,0
2,858869, Note_on_c,0,49,61
2,858905, Note_on_c,0,49,0
2,858981, Note_on_c,0,58,0
2,859001, Note_on_c,0,53,61
2,859097, Note_on_c,0,53,0
2,859133, Note_on_c,0,54,61
2,859197, Control_c,0,64,24
2,859213, Control_c,0,64,0
2,859229, Note_on_c,0,54,0
2,859253, Note_on_c,0,53,58
2,859301, Control_c,0,64,24
2,859317, Control_c,0,64,56
2,859349, Note_on_c,0,53,0
2,859353, Note_on_c,0,54,55
2,859361, Control_c,0,64,0
2,859457, Note_on_c,0,57,55
2,859461, Note_on_c,0,54,0
2,859465, Control_c,0,64,56
2,859477, Control_c,0,64,88
2,859493, Control_c,0,64,104
2,859509, Control_c,0,64,127
2,859553, Note_on_c,0,58,48
2,859569, Note_on_c,0,57,0
2,859585, Note_on_c,0,58,0
2,859609, Control_c,0,64,88
2,859625, Control_c,0,64,24
2,859641, Control_c,0,64,0
2,859649, Note_on_c,0,60,49
2,859709, Note_on_c,0,60,0
2,859741, Control_c,0,64,24
2,859757, Note_on_c,0,61,46
2,859761, Control_c,0,64,72
2,859773, Control_c,0,64,88
2,859789, Control_c,0,64,104
2,859833, Control_c,0,64,0
2,859841, Note_on_c,0,61,0
2,859841, Note_on_c,0,65,58
2,859921, Control_c,0,64,56
2,859933, Control_c,0,64,88
2,859937, Note_on_c,0,66,52
2,859949, Control_c,0,64,104
2,859965, Note_on_c,0,65,0
2,859965, Control_c,0,64,127
2,859981, Note_on_c,0,66,0
2,860033, Note_on_c,0,69,56
2,860049, Control_c,0,64,72
2,860065, Control_c,0,64,0
2,860109, Note_on_c,0,69,0
2,860129, Note_on_c,0,70,56
2,860157, Control_c,0,64,40
2,860169, Control_c,0,64,72
2,860185, Control_c,0,64,127
2,860237, Note_on_c,0,72,63
2,860241, Note_on_c,0,70,0
2,860353, Note_on_c,0,73,66
2,860361, Note_on_c,0,72,0
2,860377, Control_c,0,64,104
2,860389, Control_c,0,64,88
2,860405, Control_c,0,64,56
2,860417, Control_c,0,64,40
2,860433, Control_c,0,64,0
2,861641, Note_on_c,0,73,0
2,861697, Control_c,0,64,40
2,861709, Control_c,0,64,72
2,861717, Control_c,0,64,104
2,861721, Note_on_c,0,65,43
2,861729, Control_c,0,64,127
2,861801, Note_on_c,0,65,0
2,861809, Note_on_c,0,66,44
2,861865, Note_on_c,0,66,0
2,861893, Note_on_c,0,69,39
2,861969, Note_on_c,0,69,0
2,861969, Note_on_c,0,70,50
2,862001, Note_on_c,0,70,0
2,862057, Note_on_c,0,72,52
2,862093, Note_on_c,0,72,0
2,862133, Note_on_c,0,73,40
2,862197, Note_on_c,0,73,0
2,862217, Note_on_c,0,77,56
2,862297, Note_on_c,0,78,58
2,862301, Note_on_c,0,77,0
2,862337, Note_on_c,0,78,0
2,862365, Control_c,0,64,72
2,862369, Note_on_c,0,69,49
2,862377, Control_c,0,64,0
2,862405, Control_c,0,64,56
2,862417, Control_c,0,64,127
2,862449, Note_on_c,0,69,0
2,862453, Note_on_c,0,70,60
2,862501, Note_on_c,0,70,0
2,862517, Note_on_c,0,72,58
2,862601, Note_on_c,0,72,0
2,862601, Note_on_c,0,73,46
2,862637, Note_on_c,0,73,0
2,862685, Note_on_c,0,77,53
2,862737, Note_on_c,0,77,0
2,862765, Note_on_c,0,78,46
2,862825, Note_on_c,0,78,0
2,862845, Note_on_c,0,81,44
2,862917, Note_on_c,0,82,67
2,862937, Note_on_c,0,81,0
2,862969, Note_on_c,0,82,0
2,862985, Control_c,0,64,104
2,862993, Control_c,0,64,24
2,863001, Note_on_c,0,72,54
2,863005, Control_c,0,64,0
2,863045, Control_c,0,64,88
2,863057, Control_c,0,64,127
2,863077, Note_on_c,0,72,0
2,863081, Note_on_c,0,73,53
2,863141, Note_on_c,0,73,0
2,863153, Note_on_c,0,77,57
2,863229, Note_on_c,0,78,50
2,863233, Note_on_c,0,77,0
2,863269, Note_on_c,0,78,0
2,863309, Note_on_c,0,81,46
2,863373, Note_on_c,0,81,0
2,863389, Note_on_c,0,82,53
2,863465, Note_on_c,0,82,0
2,863465, Note_on_c,0,84,57
2,863541, Note_on_c,0,85,69
2,863557, Note_on_c,0,84,0
2,863585, Note_on_c,0,85,0
2,863617, Note_on_c,0,77,59
2,863629, Control_c,0,64,104
2,863641, Control_c,0,64,24
2,863653, Control_c,0,64,0
2,863673, Control_c,0,64,40
2,863685, Control_c,0,64,104
2,863693, Note_on_c,0,77,0
2,863693, Note_on_c,0,78,55
2,863693, Control_c,0,64,127
2,863765, Note_on_c,0,81,55
2,863769, Note_on_c,0,78,0
2,863841, Note_on_c,0,82,54
2,863853, Note_on_c,0,81,0
2,863881, Note_on_c,0,82,0
2,863913, Note_on_c,0,84,60
2,863973, Note_on_c,0,84,0
2,863997, Note_on_c,0,85,54
2,864065, Note_on_c,0,85,0
2,864077, Note_on_c,0,89,56
2,864157, Note_on_c,0,90,60
2,864169, Note_on_c,0,89,0
2,864201, Note_on_c,0,90,0
2,864221, Note_on_c,0,81,47
2,864237, Control_c,0,64,104
2,864249, Control_c,0,64,40
2,864257, Control_c,0,64,0
2,864281, Control_c,0,64,56
2,864289, Control_c,0,64,127
2,864297, Note_on_c,0,81,0
2,864297, Note_on_c,0,82,61
2,864361, Note_on_c,0,82,0
2,864365, Note_on_c,0,84,61
2,864441, Note_on_c,0,85,54
2,864445, Note_on_c,0,84,0
2,864481, Note_on_c,0,85,0
2,864517, Note_on_c,0,89,62
2,864577, Note_on_c,0,89,0
2,864597, Note_on_c,0,90,53
2,864681, Note_on_c,0,90,0
2,864681, Note_on_c,0,93,59
2,864745, Note_on_c,0,94,67
2,864761, Note_on_c,0,93,0
2,864793, Note_on_c,0,94,0
2,864821, Note_on_c,0,84,58
2,864821, Control_c,0,64,88
2,864833, Control_c,0,64,24
2,864845, Control_c,0,64,0
2,864865, Control_c,0,64,24
2,864873, Control_c,0,64,88
2,864885, Control_c,0,64,127
2,864897, Note_on_c,0,84,0
2,864901, Note_on_c,0,85,55
2,864977, Note_on_c,0,85,0
2,864977, Note_on_c,0,89,55
2,865061, Note_on_c,0,90,55
2,865069, Note_on_c,0,89,0
2,865097, Note_on_c,0,90,0
2,865129, Note_on_c,0,93,52
2,865181, Note_on_c,0,93,0
2,865205, Note_on_c,0,94,53
2,865285, Note_on_c,0,94,0
2,865285, Note_on_c,0,96,64
2,865357, Note_on_c,0,97,67
2,865361, Note_on_c,0,96,0
2,865401, Note_on_c,0,97,0
2,865437, Note_on_c,0,89,62
2,865517, Note_on_c,0,89,0
2,865521, Note_on_c,0,90,53
2,865601, Note_on_c,0,90,0
2,865601, Note_on_c,0,93,45
2,865673, Note_on_c,0,94,56
2,865681, Note_on_c,0,93,0
2,865709, Note_on_c,0,94,0
2,865753, Note_on_c,0,96,54
2,865817, Note_on_c,0,96,0
2,865825, Note_on_c,0,97,61
2,865925, Note_on_c,0,101,69
2,865929, Note_on_c,0,97,0
2,866005, Note_on_c,0,101,0
2,866009, Note_on_c,0,102,63
2,866093, Note_on_c,0,98,64
2,866097, Note_on_c,0,102,0
2,866165, Note_on_c,0,98,0
2,866165, Note_on_c,0,99,70
2,866229, Note_on_c,0,99,0
2,866245, Note_on_c,0,96,66
2,866285, Note_on_c,0,96,0
2,866313, Note_on_c,0,97,69
2,866397, Note_on_c,0,97,0
2,866401, Note_on_c,0,93,72
2,866473, Note_on_c,0,93,0
2,866477, Note_on_c,0,94,61
2,866537, Note_on_c,0,94,0
2,866549, Note_on_c,0,89,66
2,866597, Note_on_c,0,89,0
2,866629, Note_on_c,0,90,64
2,866677, Note_on_c,0,90,0
2,866709, Note_on_c,0,86,62
2,866785, Note_on_c,0,86,0
2,866785, Note_on_c,0,87,62
2,866857, Note_on_c,0,87,0
2,866865, Note_on_c,0,84,61
2,866917, Note_on_c,0,84,0
2,866937, Note_on_c,0,85,64
2,867025, Note_on_c,0,85,0
2,867025, Note_on_c,0,81,60
2,867097, Note_on_c,0,81,0
2,867097, Note_on_c,0,82,56
2,867161, Note_on_c,0,82,0
2,867173, Note_on_c,0,77,53
2,867225, Note_on_c,0,77,0
2,867249, Note_on_c,0,78,59
2,867333, Note_on_c,0,78,0
2,867333, Note_on_c,0,74,52
2,867405, Note_on_c,0,74,0
2,867413, Note_on_c,0,75,54
2,867417, Control_c,0,64,104
2,867425, Control_c,0,64,88
2,867457, Control_c,0,64,127
2,867477, Note_on_c,0,75,0
2,867489, Note_on_c,0,72,55
2,867537, Note_on_c,0,72,0
2,867561, Note_on_c,0,73,51
2,867573, Control_c,0,64,88
2,867585, Control_c,0,64,56
2,867593, Control_c,0,64,72
2,867605, Control_c,0,64,104
2,867613, Control_c,0,64,127
2,867645, Note_on_c,0,69,59
2,867653, Note_on_c,0,73,0
2,867717, Note_on_c,0,69,0
2,867725, Note_on_c,0,70,48
2,867761, Control_c,0,64,104
2,867773, Control_c,0,64,88
2,867781, Control_c,0,64,104
2,867785, Note_on_c,0,70,0
2,867793, Control_c,0,64,127
2,867805, Note_on_c,0,65,56
2,867853, Control_c,0,64,104
2,867865, Control_c,0,64,56
2,867877, Note_on_c,0,65,0
2,867877, Control_c,0,64,40
2,867881, Note_on_c,0,66,49
2,867885, Control_c,0,64,56
2,867897, Control_c,0,64,72
2,867905, Control_c,0,64,104
2,867917, Control_c,0,64,127
2,867949, Control_c,0,64,104
2,867961, Control_c,0,64,72
2,867973, Note_on_c,0,62,54
2,867973, Control_c,0,64,56
2,867977, Note_on_c,0,66,0
2,868001, Control_c,0,64,88
2,868013, Control_c,0,64,104
2,868033, Control_c,0,64,72
2,868041, Control_c,0,64,40
2,868053, Note_on_c,0,62,0
2,868053, Control_c,0,64,24
2,868057, Note_on_c,0,63,51
2,868061, Control_c,0,64,40
2,868073, Control_c,0,64,72
2,868085, Control_c,0,64,88
2,868097, Control_c,0,64,127
2,868125, Control_c,0,64,56
2,868129, Note_on_c,0,63,0
2,868137, Control_c,0,64,24
2,868149, Note_on_c,0,60,57
2,868149, Control_c,0,64,0
2,868157, Control_c,0,64,24
2,868169, Control_c,0,64,56
2,868177, Control_c,0,64,88
2,868189, Control_c,0,64,104
2,868217, Note_on_c,0,60,0
2,868221, Control_c,0,64,56
2,868233, Control_c,0,64,0
2,868241, Note_on_c,0,61,55
2,868273, Control_c,0,64,56
2,868281, Control_c,0,64,88
2,868293, Control_c,0,64,104
2,868325, Note_on_c,0,61,0
2,868325, Control_c,0,64,56
2,868337, Control_c,0,64,24
2,868345, Control_c,0,64,0
2,868349, Note_on_c,0,57,58
2,868377, Control_c,0,64,56
2,868389, Control_c,0,64,88
2,868397, Control_c,0,64,104
2,868409, Control_c,0,64,127
2,868441, Control_c,0,64,72
2,868449, Note_on_c,0,58,58
2,868453, Control_c,0,64,24
2,868457, Note_on_c,0,57,0
2,868461, Control_c,0,64,0
2,868493, Control_c,0,64,56
2,868505, Control_c,0,64,88
2,868513, Control_c,0,64,127
2,868549, Note_on_c,0,58,0
2,868557, Note_on_c,0,61,57
2,868557, Control_c,0,64,72
2,868565, Control_c,0,64,24
2,868573, Control_c,0,64,0
2,868617, Control_c,0,64,40
2,868629, Control_c,0,64,88
2,868637, Control_c,0,64,104
2,868649, Control_c,0,64,127
2,868685, Note_on_c,0,61,0
2,868693, Note_on_c,0,65,57
2,868693, Control_c,0,64,88
2,868705, Control_c,0,64,24
2,868713, Control_c,0,64,0
2,868765, Control_c,0,64,56
2,868777, Control_c,0,64,104
2,868785, Control_c,0,64,127
2,868953, Note_on_c,0,68,59
2,868965, Note_on_c,0,65,0
2,869037, Control_c,0,64,104
2,869049, Control_c,0,64,72
2,869057, Control_c,0,64,40
2,869069, Control_c,0,64,0
2,869289, Control_c,0,67,0
2,869509, Control_c,0,64,24
2,869517, Control_c,0,64,40
2,869529, Control_c,0,64,56
2,869549, Control_c,0,64,72
2,869561, Control_c,0,64,88
2,869581, Control_c,0,64,104
2,869613, Control_c,0,64,127
2,870025, Note_on_c,0,68,0
2,870037, Note_on_c,0,66,43
2,870061, Control_c,0,64,104
2,870069, Control_c,0,64,56
2,870081, Control_c,0,64,24
2,870093, Control_c,0,64,40
2,870105, Control_c,0,64,88
2,870113, Control_c,0,64,127
2,870173, Note_on_c,0,66,0
2,870369, Note_on_c,0,65,50
2,870449, Control_c,0,64,88
2,870457, Control_c,0,64,24
2,870469, Control_c,0,64,0
2,870513, Control_c,0,64,40
2,870521, Control_c,0,64,104
2,870533, Control_c,0,64,127
2,870653, Note_on_c,0,65,0
2,870661, Note_on_c,0,64,52
2,870729, Control_c,0,64,88
2,870741, Control_c,0,64,0
2,870793, Control_c,0,64,40
2,870805, Control_c,0,64,88
2,870813, Control_c,0,64,127
2,871013, Note_on_c,0,65,54
2,871017, Note_on_c,0,64,0
2,871105, Control_c,0,64,40
2,871117, Control_c,0,64,0
2,871181, Control_c,0,64,56
2,871189, Control_c,0,64,127
2,871337, Control_c,0,67,127
2,871409, Control_c,0,64,56
2,871421, Control_c,0,64,0
2,871453, Control_c,0,64,24
2,871461, Note_on_c,0,62,64
2,871461, Note_on_c,0,56,39
2,871465, Note_on_c,0,41,40
2,871465, Note_on_c,0,53,33
2,871465, Control_c,0,64,88
2,871469, Note_on_c,0,59,49
2,871473, Note_on_c,0,50,37
2,871473, Note_on_c,0,47,33
2,871473, Control_c,0,64,127
2,871517, Note_on_c,0,50,0
2,871517, Note_on_c,0,41,0
2,871521, Note_on_c,0,47,0
2,871521, Note_on_c,0,53,0
2,871565, Note_on_c,0,56,0
2,871565, Note_on_c,0,59,0
2,871573, Note_on_c,0,62,0
2,871649, Control_c,0,67,0
2,871693, Control_c,0,64,72
2,871701, Control_c,0,64,24
2,871713, Control_c,0,64,0
2,872881, Note_on_c,0,65,0
2,873017, Note_on_c,0,64,41
2,873169, Control_c,0,64,56
2,873177, Control_c,0,64,88
2,873189, Control_c,0,64,104
2,873201, Control_c,0,64,127
2,873369, Note_on_c,0,64,0
2,873369, Note_on_c,0,65,42
2,873461, Control_c,0,64,88
2,873469, Control_c,0,64,40
2,873481, Control_c,0,64,0
2,873545, Control_c,0,64,24
2,873553, Control_c,0,64,72
2,873565, Control_c,0,64,104
2,873573, Control_c,0,64,127
2,873805, Control_c,0,64,104
2,873817, Control_c,0,64,40
2,873825, Control_c,0,64,0
2,873841, Note_on_c,0,51,36
2,873841, Note_on_c,0,60,42
2,873841, Note_on_c,0,48,41
2,873841, Note_on_c,0,41,32
2,873841, Note_on_c,0,57,27
2,873841, Note_on_c,0,53,37
2,873861, Control_c,0,64,72
2,873877, Control_c,0,64,127
2,873889, Note_on_c,0,41,0
2,873901, Note_on_c,0,53,0
2,873905, Note_on_c,0,48,0
2,873913, Note_on_c,0,51,0
2,873981, Note_on_c,0,57,0
2,874013, Note_on_c,0,60,0
2,874097, Control_c,0,64,104
2,874109, Control_c,0,64,88
2,874117, Control_c,0,64,56
2,874129, Control_c,0,64,24
2,874137, Control_c,0,64,0
2,875057, Note_on_c,0,65,0
2,875069, Note_on_c,0,64,29
2,875457, Note_on_c,0,65,31
2,875461, Note_on_c,0,64,0
2,875889, Note_on_c,0,65,0
2,876053, Note_on_c,0,64,37
2,876293, Note_on_c,0,64,0
2,876313, Note_on_c,0,65,39
2,876565, Note_on_c,0,65,0
2,876581, Note_on_c,0,64,35
2,876817, Note_on_c,0,64,0
2,876821, Note_on_c,0,65,41
2,877017, Note_on_c,0,65,0
2,877033, Note_on_c,0,64,44
2,877249, Note_on_c,0,64,0
2,877257, Note_on_c,0,65,47
2,877441, Note_on_c,0,65,0
2,877453, Note_on_c,0,64,44
2,877641, Note_on_c,0,64,0
2,877649, Note_on_c,0,65,44
2,877861, Note_on_c,0,65,0
2,877873, Note_on_c,0,64,44
2,878033, Note_on_c,0,64,0
2,878049, Note_on_c,0,65,37
2,878205, Note_on_c,0,65,0
2,878221, Note_on_c,0,64,44
2,878381, Note_on_c,0,64,0
2,878389, Note_on_c,0,65,46
2,878541, Note_on_c,0,65,0
2,878557, Note_on_c,0,64,51
2,878705, Note_on_c,0,64,0
2,878709, Note_on_c,0,65,45
2,878853, Note_on_c,0,65,0
2,878881, Note_on_c,0,64,47
2,879013, Note_on_c,0,64,0
2,879037, Note_on_c,0,65,43
2,879133, Note_on_c,0,65,0
2,879193, Note_on_c,0,64,51
2,879337, Note_on_c,0,64,0
2,879361, Note_on_c,0,65,44
2,879517, Note_on_c,0,65,0
2,879529, Note_on_c,0,64,54
2,879665, Note_on_c,0,64,0
2,879685, Note_on_c,0,65,55
2,879793, Note_on_c,0,65,0
2,879849, Note_on_c,0,64,47
2,879853, Note_on_c,0,76,49
2,879985, Note_on_c,0,76,0
2,879985, Note_on_c,0,64,0
2,880005, Note_on_c,0,77,62
2,880009, Note_on_c,0,65,47
2,880137, Note_on_c,0,77,0
2,880161, Note_on_c,0,65,0
2,880173, Note_on_c,0,76,59
2,880181, Note_on_c,0,64,49
2,880297, Note_on_c,0,64,0
2,880317, Note_on_c,0,76,0
2,880333, Note_on_c,0,77,58
2,880341, Note_on_c,0,65,25
2,880461, Note_on_c,0,77,0
2,880473, Note_on_c,0,65,0
2,880497, Note_on_c,0,76,60
2,880497, Note_on_c,0,64,48
2,880637, Note_on_c,0,64,0
2,880665, Note_on_c,0,76,0
2,880665, Note_on_c,0,77,62
2,880669, Note_on_c,0,65,49
2,880805, Note_on_c,0,77,0
2,880809, Note_on_c,0,65,0
2,880825, Note_on_c,0,74,55
2,880845, Note_on_c,0,62,38
2,880961, Note_on_c,0,74,0
2,880977, Note_on_c,0,62,0
2,880977, Note_on_c,0,63,44
2,880977, Note_on_c,0,75,55
2,881105, Note_on_c,0,75,0
2,881121, Note_on_c,0,63,0
2,881129, Note_on_c,0,76,62
2,881157, Note_on_c,0,64,42
2,881257, Note_on_c,0,64,0
2,881257, Note_on_c,0,76,0
2,881285, Note_on_c,0,77,63
2,881301, Note_on_c,0,65,38
2,881405, Note_on_c,0,65,0
2,881405, Note_on_c,0,77,0
2,881449, Note_on_c,0,74,52
2,881453, Note_on_c,0,62,41
2,881565, Note_on_c,0,74,0
2,881569, Note_on_c,0,62,0
2,881585, Note_on_c,0,75,58
2,881605, Note_on_c,0,63,43
2,881701, Note_on_c,0,75,0
2,881737, Note_on_c,0,63,0
2,881749, Note_on_c,0,76,64
2,881773, Note_on_c,0,64,46
2,881881, Note_on_c,0,64,0
2,881905, Note_on_c,0,76,0
2,881913, Note_on_c,0,77,73
2,881929, Note_on_c,0,65,45
2,882025, Note_on_c,0,77,0
2,882049, Note_on_c,0,65,0
2,882065, Note_on_c,0,73,51
2,882077, Note_on_c,0,61,42
2,882181, Note_on_c,0,73,0
2,882193, Note_on_c,0,61,0
2,882217, Note_on_c,0,74,66
2,882233, Note_on_c,0,62,45
2,882345, Note_on_c,0,62,0
2,882345, Note_on_c,0,74,0
2,882373, Note_on_c,0,76,68
2,882389, Note_on_c,0,64,51
2,882505, Note_on_c,0,64,0
2,882513, Note_on_c,0,76,0
2,882529, Note_on_c,0,77,68
2,882545, Note_on_c,0,65,45
2,882633, Note_on_c,0,77,0
2,882661, Note_on_c,0,65,0
2,882681, Note_on_c,0,73,46
2,882685, Note_on_c,0,61,38
2,882761, Control_c,0,64,40
2,882789, Control_c,0,64,56
2,882797, Note_on_c,0,73,0
2,882821, Control_c,0,64,72
2,882837, Note_on_c,0,62,62
2,882845, Note_on_c,0,74,60
2,882849, Control_c,0,64,88
2,882861, Note_on_c,0,61,0
2,882865, Control_c,0,64,104
2,882885, Note_on_c,0,62,0
2,882909, Note_on_c,0,74,0
2,882973, Control_c,0,64,56
2,882989, Control_c,0,64,24
2,883005, Control_c,0,64,0
2,883009, Note_on_c,0,75,56
2,883009, Note_on_c,0,72,57
2,883009, Note_on_c,0,60,39
2,883009, Note_on_c,0,63,53
2,883081, Note_on_c,0,60,0
2,883093, Note_on_c,0,72,0
2,883093, Control_c,0,64,24
2,883105, Control_c,0,64,56
2,883121, Control_c,0,64,88
2,883133, Note_on_c,0,75,0
2,883137, Control_c,0,64,104
2,883149, Note_on_c,0,63,0
2,883153, Control_c,0,64,127
2,883169, Note_on_c,0,77,62
2,883181, Note_on_c,0,65,37
2,883229, Note_on_c,0,65,0
2,883241, Note_on_c,0,77,0
2,883273, Control_c,0,64,104
2,883289, Control_c,0,64,72
2,883301, Control_c,0,64,24
2,883313, Note_on_c,0,75,59
2,883321, Note_on_c,0,63,46
2,883321, Control_c,0,64,0
2,883341, Note_on_c,0,72,41
2,883361, Note_on_c,0,60,25
2,883381, Control_c,0,64,40
2,883397, Note_on_c,0,72,0
2,883397, Control_c,0,64,72
2,883409, Control_c,0,64,88
2,883417, Note_on_c,0,60,0
2,883425, Control_c,0,64,127
2,883445, Note_on_c,0,63,0
2,883457, Note_on_c,0,75,0
2,883473, Note_on_c,0,77,68
2,883489, Note_on_c,0,65,39
2,883525, Note_on_c,0,77,0
2,883533, Note_on_c,0,65,0
2,883589, Control_c,0,64,88
2,883605, Control_c,0,64,56
2,883621, Control_c,0,64,24
2,883637, Note_on_c,0,80,73
2,883649, Note_on_c,0,68,44
2,883661, Note_on_c,0,63,29
2,883665, Note_on_c,0,72,40
2,883669, Note_on_c,0,75,31
2,883685, Note_on_c,0,60,22
2,883685, Control_c,0,64,56
2,883697, Control_c,0,64,88
2,883713, Note_on_c,0,72,0
2,883713, Control_c,0,64,104
2,883729, Note_on_c,0,60,0
2,883729, Control_c,0,64,127
2,883745, Note_on_c,0,68,0
2,883745, Note_on_c,0,80,0
2,883749, Note_on_c,0,63,0
2,883769, Note_on_c,0,75,0
2,883793, Note_on_c,0,69,55
2,883793, Note_on_c,0,81,71
2,883845, Note_on_c,0,81,0
2,883853, Note_on_c,0,69,0
2,883909, Control_c,0,64,88
2,883921, Control_c,0,64,40
2,883937, Control_c,0,64,24
2,883957, Note_on_c,0,63,45
2,883957, Note_on_c,0,75,62
2,883973, Note_on_c,0,72,53
2,883989, Note_on_c,0,60,32
2,884001, Control_c,0,64,72
2,884017, Control_c,0,64,104
2,884029, Control_c,0,64,127
2,884065, Note_on_c,0,72,0
2,884081, Note_on_c,0,75,0
2,884085, Note_on_c,0,63,0
2,884117, Note_on_c,0,77,73
2,884125, Note_on_c,0,60,0
2,884125, Note_on_c,0,65,42
2,884169, Note_on_c,0,65,0
2,884189, Note_on_c,0,77,0
2,884225, Control_c,0,64,104
2,884241, Control_c,0,64,56
2,884257, Control_c,0,64,0
2,884281, Note_on_c,0,76,68
2,884285, Note_on_c,0,62,49
2,884293, Note_on_c,0,74,63
2,884297, Note_on_c,0,64,48
2,884333, Control_c,0,64,56
2,884349, Control_c,0,64,88
2,884365, Control_c,0,64,127
2,884389, Note_on_c,0,74,0
2,884401, Note_on_c,0,62,0
2,884409, Note_on_c,0,64,0
2,884417, Note_on_c,0,76,0
2,884449, Note_on_c,0,77,70
2,884457, Note_on_c,0,65,50
2,884517, Note_on_c,0,65,0
2,884529, Note_on_c,0,77,0
2,884545, Control_c,0,64,104
2,884557, Control_c,0,64,56
2,884573, Control_c,0,64,40
2,884609, Note_on_c,0,64,58
2,884609, Note_on_c,0,76,66
2,884617, Note_on_c,0,74,56
2,884621, Control_c,0,64,88
2,884629, Note_on_c,0,62,43
2,884633, Control_c,0,64,104
2,884649, Control_c,0,64,127
2,884709, Note_on_c,0,64,0
2,884725, Note_on_c,0,62,0
2,884733, Note_on_c,0,76,0
2,884749, Note_on_c,0,74,0
2,884769, Note_on_c,0,65,51
2,884769, Note_on_c,0,77,65
2,884821, Note_on_c,0,77,0
2,884829, Note_on_c,0,65,0
2,884905, Control_c,0,64,72
2,884921, Control_c,0,64,40
2,884937, Note_on_c,0,74,71
2,884937, Control_c,0,64,24
2,884941, Note_on_c,0,62,52
2,884945, Note_on_c,0,69,57
2,884949, Note_on_c,0,57,39
2,884953, Control_c,0,64,40
2,884965, Control_c,0,64,56
2,884981, Control_c,0,64,88
2,884997, Control_c,0,64,127
2,885021, Note_on_c,0,62,0
2,885029, Note_on_c,0,57,0
2,885037, Note_on_c,0,69,0
2,885045, Note_on_c,0,74,0
2,885085, Note_on_c,0,58,43
2,885101, Note_on_c,0,70,49
2,885141, Note_on_c,0,70,0
2,885141, Note_on_c,0,58,0
2,885237, Control_c,0,64,88
2,885253, Control_c,0,64,40
2,885261, Note_on_c,0,73,64
2,885269, Note_on_c,0,61,54
2,885269, Note_on_c,0,58,43
2,885269, Control_c,0,64,24
2,885285, Note_on_c,0,70,40
2,885313, Control_c,0,64,72
2,885329, Control_c,0,64,88
2,885345, Control_c,0,64,127
2,885369, Note_on_c,0,61,0
2,885393, Note_on_c,0,73,0
2,885405, Note_on_c,0,70,0
2,885413, Note_on_c,0,58,0
2,885417, Note_on_c,0,74,68
2,885429, Note_on_c,0,62,51
2,885465, Note_on_c,0,62,0
2,885489, Note_on_c,0,74,0
2,885525, Control_c,0,64,72
2,885541, Control_c,0,64,24
2,885557, Control_c,0,64,0
2,885573, Note_on_c,0,74,65
2,885581, Note_on_c,0,69,53
2,885589, Note_on_c,0,62,50
2,885597, Note_on_c,0,57,45
2,885629, Control_c,0,64,56
2,885645, Control_c,0,64,88
2,885661, Control_c,0,64,127
2,885677, Note_on_c,0,62,0
2,885697, Note_on_c,0,74,0
2,885709, Note_on_c,0,57,0
2,885725, Note_on_c,0,75,64
2,885729, Note_on_c,0,63,53
2,885761, Note_on_c,0,69,0
2,885797, Note_on_c,0,63,0
2,885813, Note_on_c,0,75,0
2,885845, Control_c,0,64,104
2,885857, Control_c,0,64,56
2,885873, Control_c,0,64,0
2,885893, Note_on_c,0,71,62
2,885913, Note_on_c,0,59,45
2,885917, Note_on_c,0,69,37
2,885929, Note_on_c,0,57,41
2,885933, Control_c,0,64,40
2,885949, Control_c,0,64,72
2,885965, Control_c,0,64,104
2,885977, Control_c,0,64,127
2,886013, Note_on_c,0,69,0
2,886013, Note_on_c,0,71,0
2,886013, Note_on_c,0,59,0
2,886049, Note_on_c,0,72,67
2,886069, Note_on_c,0,60,45
2,886085, Note_on_c,0,57,0
2,886109, Note_on_c,0,60,0
2,886133, Note_on_c,0,72,0
2,886177, Control_c,0,64,72
2,886193, Control_c,0,64,24
2,886205, Control_c,0,64,0
2,886217, Note_on_c,0,74,76
2,886225, Note_on_c,0,69,59
2,886233, Note_on_c,0,62,51
2,886245, Note_on_c,0,57,30
2,886253, Control_c,0,64,40
2,886265, Control_c,0,64,72
2,886281, Control_c,0,64,104
2,886297, Control_c,0,64,127
2,886313, Note_on_c,0,62,0
2,886333, Note_on_c,0,74,0
2,886365, Note_on_c,0,75,71
2,886381, Note_on_c,0,63,58
2,886389, Note_on_c,0,69,0
2,886433, Note_on_c,0,57,0
2,886441, Note_on_c,0,63,0
2,886453, Note_on_c,0,75,0
2,886509, Control_c,0,64,56
2,886521, Control_c,0,64,24
2,886537, Note_on_c,0,71,66
2,886537, Control_c,0,64,0
2,886545, Note_on_c,0,59,44
2,886561, Note_on_c,0,69,44
2,886565, Note_on_c,0,57,39
2,886569, Control_c,0,64,24
2,886585, Control_c,0,64,56
2,886597, Control_c,0,64,88
2,886613, Control_c,0,64,127
2,886665, Note_on_c,0,71,0
2,886669, Note_on_c,0,57,0
2,886693, Note_on_c,0,72,68
2,886709, Note_on_c,0,60,40
2,886729, Note_on_c,0,69,0
2,886733, Note_on_c,0,59,0
2,886745, Note_on_c,0,72,0
2,886745, Note_on_c,0,60,0
2,886825, Control_c,0,64,72
2,886841, Control_c,0,64,24
2,886853, Note_on_c,0,73,57
2,886853, Control_c,0,64,0
2,886865, Note_on_c,0,70,47
2,886865, Note_on_c,0,58,40
2,886869, Note_on_c,0,61,47
2,886901, Control_c,0,64,24
2,886917, Control_c,0,64,72
2,886933, Control_c,0,64,127
2,886981, Note_on_c,0,73,0
2,887009, Note_on_c,0,70,0
2,887013, Note_on_c,0,61,0
2,887017, Note_on_c,0,74,65
2,887029, Note_on_c,0,62,55
2,887033, Note_on_c,0,58,0
2,887069, Note_on_c,0,74,0
2,887073, Note_on_c,0,62,0
2,887145, Control_c,0,64,104
2,887161, Control_c,0,64,40
2,887173, Note_on_c,0,76,70
2,887173, Control_c,0,64,0
2,887181, Note_on_c,0,74,59
2,887185, Note_on_c,0,64,62
2,887217, Control_c,0,64,40
2,887233, Control_c,0,64,72
2,887249, Control_c,0,64,104
2,887261, Control_c,0,64,127
2,887277, Note_on_c,0,74,0
2,887289, Note_on_c,0,64,0
2,887301, Note_on_c,0,76,0
2,887333, Note_on_c,0,65,58
2,887337, Note_on_c,0,77,78
2,887373, Note_on_c,0,65,0
2,887389, Note_on_c,0,77,0
2,887481, Note_on_c,0,57,63
2,887497, Note_on_c,0,69,74
2,887497, Note_on_c,0,65,47
2,887521, Note_on_c,0,53,40
2,887565, Note_on_c,0,65,0
2,887573, Note_on_c,0,53,0
2,887589, Note_on_c,0,69,0
2,887589, Note_on_c,0,57,0
2,887653, Note_on_c,0,70,66
2,887653, Note_on_c,0,58,50
2,887717, Note_on_c,0,70,0
2,887721, Note_on_c,0,58,0
2,887781, Control_c,0,64,104
2,887793, Control_c,0,64,40
2,887809, Control_c,0,64,0
2,887813, Note_on_c,0,62,54
2,887821, Note_on_c,0,74,66
2,887829, Note_on_c,0,57,38
2,887833, Note_on_c,0,69,49
2,887869, Control_c,0,64,40
2,887885, Control_c,0,64,88
2,887897, Control_c,0,64,127
2,887905, Note_on_c,0,69,0
2,887913, Note_on_c,0,74,0
2,887961, Note_on_c,0,70,69
2,887973, Note_on_c,0,57,0
2,887977, Note_on_c,0,58,47
2,887993, Note_on_c,0,62,0
2,888017, Note_on_c,0,58,0
2,888033, Note_on_c,0,70,0
2,888125, Control_c,0,64,104
2,888141, Control_c,0,64,56
2,888149, Note_on_c,0,63,49
2,888157, Control_c,0,64,0
2,888161, Note_on_c,0,79,81
2,888277, Control_c,0,64,104
2,888281, Note_on_c,0,63,0
2,888281, Note_on_c,0,57,47
2,888289, Control_c,0,64,127
2,888349, Note_on_c,0,57,0
2,888365, Note_on_c,0,79,0
2,888369, Note_on_c,0,53,49
2,888485, Note_on_c,0,53,0
2,888493, Note_on_c,0,46,61
2,888513, Note_on_c,0,81,84
2,888557, Note_on_c,0,46,0
2,888593, Note_on_c,0,75,62
2,888597, Note_on_c,0,81,0
2,888681, Note_on_c,0,72,45
2,888689, Note_on_c,0,75,0
2,888737, Note_on_c,0,65,54
2,888837, Note_on_c,0,72,0
2,888845, Note_on_c,0,77,84
2,888853, Note_on_c,0,63,50
2,888901, Note_on_c,0,65,0
2,888937, Note_on_c,0,63,0
2,888961, Note_on_c,0,57,44
2,889001, Note_on_c,0,57,0
2,889029, Note_on_c,0,53,49
2,889105, Note_on_c,0,77,0
2,889145, Note_on_c,0,53,0
2,889149, Note_on_c,0,46,51
2,889189, Note_on_c,0,79,82
2,889213, Note_on_c,0,46,0
2,889293, Note_on_c,0,75,57
2,889297, Note_on_c,0,79,0
2,889369, Note_on_c,0,72,36
2,889381, Note_on_c,0,75,0
2,889405, Note_on_c,0,65,58
2,889433, Note_on_c,0,65,0
2,889513, Note_on_c,0,72,0
2,889529, Control_c,0,64,40
2,889537, Note_on_c,0,81,85
2,889541, Note_on_c,0,62,62
2,889549, Control_c,0,64,0
2,889621, Control_c,0,64,40
2,889633, Note_on_c,0,62,0
2,889637, Note_on_c,0,58,43
2,889637, Control_c,0,64,127
2,889701, Note_on_c,0,58,0
2,889721, Note_on_c,0,53,42
2,889749, Note_on_c,0,81,0
2,889837, Note_on_c,0,46,58
2,889845, Note_on_c,0,53,0
2,889885, Note_on_c,0,82,88
2,889929, Note_on_c,0,46,0
2,889969, Note_on_c,0,82,0
2,889981, Note_on_c,0,74,45
2,890049, Note_on_c,0,70,47
2,890081, Note_on_c,0,74,0
2,890117, Note_on_c,0,65,56
2,890181, Note_on_c,0,70,0
2,890217, Note_on_c,0,77,84
2,890245, Note_on_c,0,62,54
2,890281, Note_on_c,0,65,0
2,890325, Note_on_c,0,62,0
2,890333, Note_on_c,0,58,50
2,890397, Note_on_c,0,77,0
2,890405, Note_on_c,0,58,0
2,890433, Note_on_c,0,53,57
2,890529, Note_on_c,0,53,0
2,890533, Note_on_c,0,46,58
2,890557, Note_on_c,0,79,82
2,890633, Note_on_c,0,46,0
2,890669, Note_on_c,0,74,54
2,890681, Note_on_c,0,79,0
2,890729, Note_on_c,0,70,51
2,890765, Note_on_c,0,74,0
2,890809, Note_on_c,0,65,54
2,890813, Note_on_c,0,70,0
2,890905, Note_on_c,0,65,0
2,890905, Note_on_c,0,63,54
2,890909, Note_on_c,0,72,85
2,890909, Control_c,0,64,104
2,890921, Control_c,0,64,24
2,890933, Control_c,0,64,0
2,890993, Note_on_c,0,63,0
2,891013, Note_on_c,0,57,52
2,891029, Control_c,0,64,127
2,891049, Note_on_c,0,57,0
2,891073, Note_on_c,0,53,57
2,891173, Note_on_c,0,53,0
2,891177, Note_on_c,0,46,61
2,891209, Note_on_c,0,72,0
2,891253, Note_on_c,0,79,87
2,891293, Note_on_c,0,46,0
2,891341, Note_on_c,0,75,64
2,891349, Note_on_c,0,79,0
2,891401, Note_on_c,0,69,64
2,891453, Note_on_c,0,75,0
2,891493, Note_on_c,0,65,60
2,891509, Note_on_c,0,69,0
2,891585, Note_on_c,0,65,0
2,891597, Note_on_c,0,63,49
2,891605, Note_on_c,0,72,80
2,891681, Note_on_c,0,63,0
2,891697, Note_on_c,0,57,43
2,891741, Note_on_c,0,57,0
2,891773, Note_on_c,0,53,58
2,891845, Note_on_c,0,72,0
2,891917, Note_on_c,0,53,0
2,891937, Note_on_c,0,77,84
2,891945, Note_on_c,0,46,46
2,892017, Control_c,0,64,88
2,892033, Note_on_c,0,46,0
2,892033, Note_on_c,0,72,68
2,892041, Note_on_c,0,77,0
2,892129, Note_on_c,0,69,67
2,892145, Note_on_c,0,72,0
2,892197, Note_on_c,0,69,0
2,892213, Note_on_c,0,65,54
2,892289, Note_on_c,0,70,72
2,892289, Note_on_c,0,58,47
2,892289, Note_on_c,0,62,47
2,892293, Control_c,0,64,88
2,892309, Control_c,0,64,0
2,892321, Note_on_c,0,65,0
2,892437, Note_on_c,0,62,0
2,892481, Note_on_c,0,58,0
2,892557, Note_on_c,0,70,0
2,892617, Control_c,0,64,40
2,892625, Note_on_c,0,77,73
2,892633, Note_on_c,0,62,58
2,892633, Control_c,0,64,88
2,892637, Note_on_c,0,65,55
2,892645, Note_on_c,0,50,57
2,892645, Control_c,0,64,127
2,892741, Note_on_c,0,50,0
2,892741, Note_on_c,0,70,69
2,892769, Note_on_c,0,77,0
2,892789, Note_on_c,0,62,0
2,892789, Note_on_c,0,65,0
2,892797, Note_on_c,0,58,50
2,892797, Note_on_c,0,53,50
2,892853, Note_on_c,0,53,0
2,892853, Note_on_c,0,58,0
2,892853, Note_on_c,0,74,78
2,892869, Note_on_c,0,70,0
2,892909, Note_on_c,0,74,0
2,892961, Note_on_c,0,79,89
2,892965, Note_on_c,0,67,72
2,892965, Note_on_c,0,61,54
2,892977, Note_on_c,0,49,58
2,893041, Note_on_c,0,49,0
2,893081, Note_on_c,0,70,72
2,893089, Note_on_c,0,79,0
2,893121, Note_on_c,0,52,49
2,893121, Note_on_c,0,58,52
2,893125, Note_on_c,0,67,0
2,893177, Note_on_c,0,58,0
2,893185, Note_on_c,0,61,0
2,893193, Note_on_c,0,70,0
2,893193, Note_on_c,0,76,77
2,893197, Note_on_c,0,52,0
2,893253, Note_on_c,0,76,0
2,893281, Control_c,0,64,72
2,893289, Note_on_c,0,81,94
2,893293, Note_on_c,0,69,84
2,893293, Note_on_c,0,60,67
2,893297, Control_c,0,64,24
2,893305, Note_on_c,0,48,62
2,893309, Control_c,0,64,0
2,893321, Control_c,0,64,40
2,893337, Control_c,0,64,88
2,893349, Control_c,0,64,127
2,893373, Note_on_c,0,69,0
2,893393, Note_on_c,0,48,0
2,893401, Note_on_c,0,72,76
2,893409, Note_on_c,0,60,0
2,893417, Note_on_c,0,54,48
2,893417, Note_on_c,0,57,55
2,893457, Note_on_c,0,54,0
2,893469, Note_on_c,0,81,0
2,893473, Note_on_c,0,57,0
2,893501, Note_on_c,0,75,77
2,893517, Note_on_c,0,72,0
2,893549, Note_on_c,0,75,0
2,893625, Note_on_c,0,84,94
2,893629, Note_on_c,0,72,92
2,893641, Control_c,0,64,56
2,893645, Note_on_c,0,54,67
2,893645, Note_on_c,0,42,70
2,893653, Control_c,0,64,0
2,893669, Control_c,0,64,24
2,893681, Control_c,0,64,72
2,893697, Control_c,0,64,127
2,893713, Note_on_c,0,84,0
2,893733, Note_on_c,0,42,0
2,893749, Note_on_c,0,81,75
2,893785, Note_on_c,0,45,53
2,893797, Note_on_c,0,50,51
2,893801, Note_on_c,0,54,0
2,893805, Note_on_c,0,72,0
2,893837, Note_on_c,0,50,0
2,893837, Note_on_c,0,81,0
2,893849, Note_on_c,0,74,81
2,893869, Note_on_c,0,45,0
2,893937, Note_on_c,0,74,0
2,893977, Note_on_c,0,82,81
2,893985, Note_on_c,0,70,77
2,893985, Control_c,0,64,104
2,893993, Note_on_c,0,55,61
2,894001, Control_c,0,64,56
2,894005, Note_on_c,0,43,67
2,894041, Control_c,0,64,127
2,894069, Note_on_c,0,55,0
2,894069, Note_on_c,0,82,0
2,894093, Note_on_c,0,79,71
2,894101, Note_on_c,0,43,0
2,894121, Note_on_c,0,50,53
2,894173, Note_on_c,0,50,0
2,894177, Note_on_c,0,46,49
2,894197, Note_on_c,0,74,71
2,894201, Note_on_c,0,79,0
2,894201, Note_on_c,0,70,0
2,894225, Note_on_c,0,74,0
2,894241, Note_on_c,0,46,0
2,894317, Note_on_c,0,74,84
2,894317, Note_on_c,0,55,64
2,894325, Note_on_c,0,62,68
2,894345, Control_c,0,64,72
2,894357, Note_on_c,0,62,0
2,894373, Control_c,0,64,127
2,894401, Note_on_c,0,55,0
2,894429, Note_on_c,0,67,71
2,894433, Note_on_c,0,46,57
2,894469, Note_on_c,0,74,0
2,894513, Note_on_c,0,67,0
2,894533, Note_on_c,0,46,0
2,894537, Note_on_c,0,70,67
2,894541, Note_on_c,0,43,59
2,894593, Note_on_c,0,43,0
2,894601, Note_on_c,0,70,0
2,894645, Note_on_c,0,76,88
2,894649, Note_on_c,0,64,70
2,894649, Control_c,0,64,40
2,894653, Note_on_c,0,54,57
2,894661, Control_c,0,64,0
2,894677, Control_c,0,64,24
2,894689, Control_c,0,64,72
2,894705, Control_c,0,64,127
2,894717, Note_on_c,0,64,0
2,894737, Note_on_c,0,54,0
2,894749, Note_on_c,0,70,68
2,894757, Note_on_c,0,46,51
2,894821, Note_on_c,0,76,0
2,894853, Note_on_c,0,46,0
2,894853, Note_on_c,0,70,0
2,894861, Note_on_c,0,42,54
2,894869, Note_on_c,0,72,77
2,894933, Note_on_c,0,42,0
2,894949, Note_on_c,0,72,0
2,894985, Note_on_c,0,77,92
2,894985, Note_on_c,0,53,65
2,894985, Note_on_c,0,65,81
2,894993, Control_c,0,64,40
2,895009, Control_c,0,64,0
2,895037, Control_c,0,64,56
2,895053, Control_c,0,64,127
2,895069, Note_on_c,0,65,0
2,895081, Note_on_c,0,53,0
2,895097, Note_on_c,0,69,74
2,895121, Note_on_c,0,77,0
2,895141, Note_on_c,0,45,66
2,895193, Note_on_c,0,45,0
2,895205, Note_on_c,0,72,83
2,895205, Note_on_c,0,41,55
2,895209, Note_on_c,0,69,0
2,895257, Note_on_c,0,72,0
2,895261, Note_on_c,0,41,0
2,895317, Note_on_c,0,40,65
2,895325, Note_on_c,0,79,92
2,895353, Control_c,0,64,24
2,895365, Control_c,0,64,0
2,895397, Note_on_c,0,40,0
2,895397, Control_c,0,64,24
2,895409, Control_c,0,64,72
2,895425, Control_c,0,64,127
2,895433, Note_on_c,0,43,57
2,895437, Note_on_c,0,72,84
2,895477, Note_on_c,0,79,0
2,895525, Note_on_c,0,43,0
2,895545, Note_on_c,0,72,0
2,895549, Note_on_c,0,67,75
2,895557, Note_on_c,0,52,56
2,895589, Note_on_c,0,52,0
2,895605, Note_on_c,0,67,0
2,895661, Note_on_c,0,72,82
2,895661, Note_on_c,0,55,73
2,895669, Note_on_c,0,52,57
2,895713, Note_on_c,0,52,0
2,895717, Note_on_c,0,55,0
2,895765, Note_on_c,0,72,0
2,895769, Note_on_c,0,67,68
2,895853, Note_on_c,0,67,0
2,895873, Note_on_c,0,60,56
2,895933, Note_on_c,0,60,0
2,895989, Control_c,0,64,40
2,896001, Note_on_c,0,79,84
2,896005, Note_on_c,0,39,68
2,896005, Control_c,0,64,0
2,896089, Control_c,0,64,127
2,896109, Note_on_c,0,72,73
2,896113, Note_on_c,0,39,0
2,896129, Note_on_c,0,43,58
2,896141, Note_on_c,0,79,0
2,896201, Note_on_c,0,72,0
2,896209, Note_on_c,0,43,0
2,896209, Note_on_c,0,67,69
2,896233, Note_on_c,0,51,57
2,896269, Note_on_c,0,51,0
2,896269, Note_on_c,0,67,0
2,896333, Note_on_c,0,72,81
2,896353, Note_on_c,0,55,71
2,896357, Note_on_c,0,51,58
2,896381, Note_on_c,0,55,0
2,896429, Note_on_c,0,51,0
2,896445, Note_on_c,0,67,70
2,896453, Note_on_c,0,72,0
2,896533, Note_on_c,0,67,0
2,896541, Note_on_c,0,60,62
2,896577, Note_on_c,0,60,0
2,896677, Note_on_c,0,77,87
2,896681, Control_c,0,64,72
2,896697, Note_on_c,0,38,63
2,896697, Control_c,0,64,0
2,896765, Control_c,0,64,56
2,896777, Note_on_c,0,38,0
2,896777, Control_c,0,64,127
2,896789, Note_on_c,0,71,74
2,896801, Note_on_c,0,41,46
2,896821, Note_on_c,0,77,0
2,896881, Note_on_c,0,41,0
2,896881, Note_on_c,0,71,0
2,896901, Note_on_c,0,65,69
2,896909, Note_on_c,0,50,63
2,896949, Note_on_c,0,50,0
2,896961, Note_on_c,0,65,0
2,897029, Note_on_c,0,71,78
2,897037, Note_on_c,0,50,59
2,897041, Note_on_c,0,53,55
2,897073, Note_on_c,0,53,0
2,897105, Note_on_c,0,50,0
2,897133, Note_on_c,0,71,0
2,897141, Note_on_c,0,65,69
2,897217, Note_on_c,0,65,0
2,897233, Note_on_c,0,59,63
2,897265, Note_on_c,0,59,0
2,897373, Note_on_c,0,37,68
2,897373, Control_c,0,64,88
2,897377, Note_on_c,0,77,79
2,897385, Control_c,0,64,0
2,897441, Control_c,0,64,40
2,897453, Control_c,0,64,127
2,897481, Note_on_c,0,71,79
2,897485, Note_on_c,0,77,0
2,897489, Note_on_c,0,43,68
2,897505, Note_on_c,0,37,0
2,897565, Note_on_c,0,43,0
2,897573, Note_on_c,0,71,0
2,897589, Note_on_c,0,49,61
2,897593, Note_on_c,0,65,70
2,897629, Note_on_c,0,49,0
2,897649, Note_on_c,0,65,0
2,897713, Note_on_c,0,71,83
2,897717, Note_on_c,0,49,61
2,897725, Note_on_c,0,55,64
2,897749, Note_on_c,0,55,0
2,897777, Note_on_c,0,49,0
2,897809, Note_on_c,0,71,0
2,897817, Note_on_c,0,65,74
2,897893, Note_on_c,0,65,0
2,897905, Note_on_c,0,59,58
2,897961, Note_on_c,0,59,0
2,897993, Control_c,0,64,88
2,898009, Control_c,0,64,0
2,898029, Note_on_c,0,60,70
2,898033, Note_on_c,0,48,70
2,898061, Control_c,0,64,24
2,898077, Control_c,0,64,88
2,898089, Control_c,0,64,127
2,898105, Note_on_c,0,60,0
2,898133, Note_on_c,0,48,0
2,898141, Note_on_c,0,76,83
2,898141, Note_on_c,0,64,63
2,898157, Note_on_c,0,52,44
2,898185, Note_on_c,0,52,0
2,898193, Note_on_c,0,64,0
2,898213, Note_on_c,0,76,0
2,898245, Note_on_c,0,67,66
2,898253, Note_on_c,0,72,72
2,898281, Note_on_c,0,67,0
2,898321, Note_on_c,0,72,0
2,898353, Control_c,0,64,88
2,898357, Note_on_c,0,54,84
2,898365, Note_on_c,0,42,73
2,898365, Control_c,0,64,0
2,898409, Control_c,0,64,56
2,898421, Control_c,0,64,104
2,898437, Control_c,0,64,127
2,898453, Note_on_c,0,42,0
2,898481, Note_on_c,0,75,85
2,898481, Note_on_c,0,63,73
2,898485, Note_on_c,0,54,0
2,898517, Note_on_c,0,48,51
2,898517, Note_on_c,0,51,50
2,898541, Note_on_c,0,63,0
2,898557, Note_on_c,0,75,0
2,898573, Note_on_c,0,51,0
2,898581, Note_on_c,0,48,0
2,898593, Note_on_c,0,72,76
2,898597, Note_on_c,0,69,63
2,898637, Note_on_c,0,69,0
2,898657, Note_on_c,0,72,0
2,898697, Note_on_c,0,55,84
2,898697, Control_c,0,64,104
2,898701, Note_on_c,0,43,75
2,898713, Control_c,0,64,24
2,898725, Control_c,0,64,0
2,898753, Control_c,0,64,56
2,898765, Control_c,0,64,127
2,898785, Note_on_c,0,43,0
2,898801, Note_on_c,0,55,0
2,898817, Note_on_c,0,74,83
2,898817, Note_on_c,0,46,57
2,898817, Note_on_c,0,50,56
2,898821, Note_on_c,0,62,74
2,898841, Note_on_c,0,50,0
2,898865, Note_on_c,0,46,0
2,898889, Note_on_c,0,62,0
2,898909, Note_on_c,0,74,0
2,898921, Note_on_c,0,70,72
2,898921, Note_on_c,0,67,50
2,898977, Note_on_c,0,67,0
2,898977, Note_on_c,0,70,0
2,899037, Note_on_c,0,52,85
2,899037, Note_on_c,0,40,75
2,899045, Control_c,0,64,24
2,899057, Control_c,0,64,0
2,899085, Control_c,0,64,72
2,899097, Control_c,0,64,127
2,899149, Note_on_c,0,40,0
2,899149, Note_on_c,0,81,82
2,899157, Note_on_c,0,69,70
2,899161, Note_on_c,0,46,64
2,899161, Note_on_c,0,43,55
2,899177, Note_on_c,0,52,0
2,899213, Note_on_c,0,46,0
2,899217, Note_on_c,0,43,0
2,899233, Note_on_c,0,81,0
2,899237, Note_on_c,0,69,0
2,899273, Note_on_c,0,73,78
2,899349, Note_on_c,0,73,0
2,899357, Control_c,0,64,104
2,899377, Control_c,0,64,56
2,899385, Note_on_c,0,61,85
2,899389, Note_on_c,0,52,73
2,899389, Control_c,0,64,88
2,899405, Control_c,0,64,127
2,899489, Note_on_c,0,79,82
2,899497, Note_on_c,0,67,72
2,899497, Note_on_c,0,58,57
2,899501, Note_on_c,0,52,0
2,899505, Note_on_c,0,61,0
2,899509, Note_on_c,0,55,64
2,899533, Note_on_c,0,58,0
2,899557, Note_on_c,0,55,0
2,899585, Note_on_c,0,79,0
2,899609, Note_on_c,0,73,74
2,899609, Note_on_c,0,70,58
2,899629, Note_on_c,0,67,0
2,899657, Note_on_c,0,70,0
2,899681, Note_on_c,0,73,0
2,899721, Control_c,0,64,72
2,899733, Note_on_c,0,53,86
2,899733, Note_on_c,0,41,76
2,899733, Control_c,0,64,0
2,899777, Control_c,0,64,104
2,899789, Control_c,0,64,127
2,899801, Note_on_c,0,41,0
2,899845, Note_on_c,0,68,75
2,899845, Note_on_c,0,80,79
2,899853, Note_on_c,0,50,60
2,899853, Note_on_c,0,45,55
2,899865, Note_on_c,0,53,0
2,899909, Note_on_c,0,45,0
2,899913, Note_on_c,0,68,0
2,899913, Note_on_c,0,50,0
2,899933, Note_on_c,0,80,0
2,899961, Note_on_c,0,74,80
2,900065, Note_on_c,0,62,82
2,900073, Note_on_c,0,53,71
2,900113, Note_on_c,0,74,0
2,900165, Note_on_c,0,62,0
2,900169, Note_on_c,0,53,0
2,900177, Note_on_c,0,57,44
2,900181, Note_on_c,0,81,82
2,900181, Note_on_c,0,69,75
2,900205, Note_on_c,0,57,0
2,900285, Note_on_c,0,74,82
2,900289, Note_on_c,0,69,0
2,900313, Note_on_c,0,81,0
2,900337, Note_on_c,0,74,0
2,900393, Note_on_c,0,54,91
2,900397, Note_on_c,0,42,73
2,900397, Control_c,0,64,56
2,900409, Control_c,0,64,0
2,900437, Control_c,0,64,40
2,900453, Control_c,0,64,127
2,900517, Note_on_c,0,86,90
2,900517, Note_on_c,0,74,79
2,900525, Note_on_c,0,42,0
2,900529, Note_on_c,0,54,0
2,900573, Note_on_c,0,50,65
2,900573, Note_on_c,0,45,53
2,900605, Note_on_c,0,86,0
2,900629, Note_on_c,0,45,0
2,900629, Note_on_c,0,50,0
2,900629, Note_on_c,0,81,81
2,900669, Note_on_c,0,74,0
2,900673, Note_on_c,0,81,0
2,900741, Note_on_c,0,62,84
2,900749, Note_on_c,0,54,76
2,900841, Note_on_c,0,62,0
2,900857, Note_on_c,0,81,85
2,900857, Note_on_c,0,69,78
2,900865, Note_on_c,0,54,0
2,900897, Note_on_c,0,57,63
2,900925, Note_on_c,0,69,0
2,900941, Note_on_c,0,81,0
2,900953, Note_on_c,0,57,0
2,900973, Note_on_c,0,74,82
2,901073, Note_on_c,0,43,84
2,901073, Note_on_c,0,55,92
2,901073, Control_c,0,64,88
2,901089, Control_c,0,64,0
2,901105, Note_on_c,0,74,0
2,901129, Control_c,0,64,56
2,901145, Control_c,0,64,127
2,901149, Note_on_c,0,43,0
2,901185, Note_on_c,0,81,82
2,901185, Note_on_c,0,69,72
2,901193, Note_on_c,0,55,0
2,901245, Note_on_c,0,46,53
2,901245, Note_on_c,0,50,60
2,901253, Note_on_c,0,69,0
2,901301, Note_on_c,0,81,0
2,901301, Note_on_c,0,46,0
2,901301, Note_on_c,0,50,0
2,901305, Note_on_c,0,74,74
2,901381, Note_on_c,0,62,87
2,901381, Note_on_c,0,55,74
2,901437, Note_on_c,0,62,0
2,901437, Note_on_c,0,74,0
2,901441, Note_on_c,0,55,0
2,901489, Note_on_c,0,82,85
2,901489, Note_on_c,0,58,53
2,901497, Note_on_c,0,70,78
2,901545, Note_on_c,0,58,0
2,901609, Note_on_c,0,82,0
2,901609, Note_on_c,0,74,74
2,901617, Note_on_c,0,70,0
2,901657, Note_on_c,0,74,0
2,901709, Control_c,0,64,56
2,901717, Note_on_c,0,60,90
2,901721, Note_on_c,0,48,81
2,901725, Control_c,0,64,0
2,901809, Note_on_c,0,48,0
2,901809, Note_on_c,0,60,0
2,901809, Control_c,0,64,104
2,901821, Control_c,0,64,127
2,901833, Note_on_c,0,87,88
2,901841, Note_on_c,0,79,86
2,901853, Note_on_c,0,84,69
2,901925, Note_on_c,0,79,0
2,901941, Note_on_c,0,84,0
2,901949, Note_on_c,0,87,0
2,901957, Note_on_c,0,75,81
2,902017, Note_on_c,0,75,0
2,902041, Note_on_c,0,58,82
2,902045, Note_on_c,0,48,85
2,902045, Note_on_c,0,46,69
2,902053, Control_c,0,64,88
2,902069, Control_c,0,64,40
2,902081, Control_c,0,64,72
2,902097, Control_c,0,64,127
2,902113, Note_on_c,0,48,0
2,902121, Note_on_c,0,46,0
2,902125, Note_on_c,0,58,0
2,902157, Note_on_c,0,75,73
2,902161, Note_on_c,0,84,72
2,902165, Note_on_c,0,79,67
2,902245, Note_on_c,0,75,0
2,902261, Note_on_c,0,79,0
2,902265, Note_on_c,0,84,0
2,902273, Note_on_c,0,72,76
2,902325, Note_on_c,0,72,0
2,902381, Note_on_c,0,57,82
2,902389, Note_on_c,0,48,82
2,902389, Control_c,0,64,56
2,902393, Note_on_c,0,45,71
2,902401, Control_c,0,64,0
2,902465, Note_on_c,0,57,0
2,902473, Note_on_c,0,45,0
2,902473, Control_c,0,64,127
2,902477, Note_on_c,0,48,0
2,902481, Note_on_c,0,89,86
2,902485, Note_on_c,0,84,81
2,902581, Note_on_c,0,89,0
2,902585, Note_on_c,0,84,0
2,902593, Note_on_c,0,77,81
2,902633, Note_on_c,0,77,0
2,902709, Note_on_c,0,48,82
2,902713, Note_on_c,0,53,77
2,902713, Note_on_c,0,41,68
2,902733, Control_c,0,64,56
2,902749, Control_c,0,64,0
2,902777, Note_on_c,0,48,0
2,902785, Note_on_c,0,41,0
2,902789, Control_c,0,64,72
2,902801, Control_c,0,64,127
2,902821, Note_on_c,0,53,0
2,902821, Note_on_c,0,81,82
2,902821, Note_on_c,0,72,82
2,902901, Note_on_c,0,72,0
2,902921, Note_on_c,0,81,0
2,902941, Note_on_c,0,69,77
2,902993, Note_on_c,0,69,0
2,903049, Control_c,0,64,40
2,903053, Note_on_c,0,58,69
2,903061, Note_on_c,0,53,71
2,903065, Note_on_c,0,46,73
2,903065, Control_c,0,64,0
2,903149, Control_c,0,64,127
2,903161, Note_on_c,0,53,0
2,903173, Note_on_c,0,82,77
2,903181, Note_on_c,0,46,0
2,903189, Note_on_c,0,74,70
2,903193, Note_on_c,0,77,63
2,903201, Note_on_c,0,58,0
2,903261, Note_on_c,0,74,0
2,903269, Note_on_c,0,77,0
2,903273, Note_on_c,0,82,0
2,903285, Note_on_c,0,70,67
2,903313, Note_on_c,0,70,0
2,903397, Control_c,0,64,24
2,903409, Control_c,0,64,0
2,903433, Note_on_c,0,62,62
2,903437, Note_on_c,0,77,82
2,903437, Note_on_c,0,50,67
2,903445, Note_on_c,0,65,61
2,903493, Control_c,0,64,127
2,903533, Note_on_c,0,50,0
2,903541, Note_on_c,0,70,67
2,903549, Note_on_c,0,65,0
2,903557, Note_on_c,0,62,0
2,903565, Note_on_c,0,58,54
2,903585, Note_on_c,0,53,56
2,903605, Note_on_c,0,77,0
2,903661, Note_on_c,0,70,0
2,903665, Note_on_c,0,74,78
2,903673, Note_on_c,0,58,0
2,903689, Note_on_c,0,53,0
2,903757, Note_on_c,0,74,0
2,903777, Note_on_c,0,79,88
2,903785, Note_on_c,0,49,61
2,903785, Note_on_c,0,61,62
2,903789, Note_on_c,0,67,72
2,903797, Control_c,0,64,72
2,903821, Control_c,0,64,127
2,903861, Note_on_c,0,49,0
2,903873, Note_on_c,0,67,0
2,903897, Note_on_c,0,70,76
2,903901, Note_on_c,0,79,0
2,903917, Note_on_c,0,52,52
2,903929, Note_on_c,0,58,55
2,903957, Note_on_c,0,61,0
2,904001, Note_on_c,0,52,0
2,904005, Note_on_c,0,76,84
2,904013, Note_on_c,0,70,0
2,904021, Note_on_c,0,58,0
2,904073, Note_on_c,0,76,0
2,904105, Note_on_c,0,60,68
2,904117, Note_on_c,0,48,68
2,904117, Note_on_c,0,81,94
2,904117, Note_on_c,0,69,89
2,904117, Control_c,0,64,104
2,904129, Control_c,0,64,0
2,904169, Control_c,0,64,40
2,904185, Control_c,0,64,104
2,904193, Note_on_c,0,69,0
2,904197, Control_c,0,64,127
2,904217, Note_on_c,0,48,0
2,904221, Note_on_c,0,60,0
2,904229, Note_on_c,0,72,82
2,904277, Note_on_c,0,57,58
2,904277, Note_on_c,0,54,58
2,904281, Note_on_c,0,81,0
2,904325, Note_on_c,0,75,75
2,904333, Note_on_c,0,54,0
2,904333, Note_on_c,0,57,0
2,904349, Note_on_c,0,72,0
2,904389, Note_on_c,0,75,0
2,904473, Note_on_c,0,84,82
2,904481, Note_on_c,0,72,92
2,904489, Note_on_c,0,54,69
2,904489, Control_c,0,64,0
2,904493, Note_on_c,0,42,73
2,904569, Control_c,0,64,127
2,904573, Note_on_c,0,84,0
2,904585, Note_on_c,0,42,0
2,904601, Note_on_c,0,81,71
2,904645, Note_on_c,0,54,0
2,904649, Note_on_c,0,50,62
2,904649, Note_on_c,0,45,51
2,904685, Note_on_c,0,81,0
2,904693, Note_on_c,0,50,0
2,904701, Note_on_c,0,74,77
2,904709, Note_on_c,0,72,0
2,904741, Note_on_c,0,45,0
2,904789, Note_on_c,0,74,0
2,904829, Note_on_c,0,82,75
2,904833, Note_on_c,0,55,63
2,904833, Note_on_c,0,70,69
2,904833, Note_on_c,0,43,66
2,904861, Control_c,0,64,40
2,904873, Control_c,0,64,0
2,904901, Control_c,0,64,40
2,904905, Note_on_c,0,43,0
2,904913, Note_on_c,0,55,0
2,904917, Control_c,0,64,127
2,904929, Note_on_c,0,70,0
2,904929, Note_on_c,0,82,0
2,904949, Note_on_c,0,79,70
2,905005, Note_on_c,0,46,55
2,905005, Note_on_c,0,50,57
2,905053, Note_on_c,0,79,0
2,905061, Note_on_c,0,74,69
2,905077, Note_on_c,0,50,0
2,905081, Note_on_c,0,74,0
2,905125, Note_on_c,0,46,0
2,905177, Note_on_c,0,74,80
2,905189, Note_on_c,0,62,67
2,905205, Control_c,0,64,56
2,905209, Note_on_c,0,55,60
2,905221, Control_c,0,64,40
2,905229, Note_on_c,0,62,0
2,905233, Control_c,0,64,88
2,905245, Control_c,0,64,127
2,905297, Note_on_c,0,55,0
2,905297, Note_on_c,0,67,72
2,905297, Note_on_c,0,46,55
2,905341, Note_on_c,0,74,0
2,905393, Note_on_c,0,67,0
2,905405, Note_on_c,0,46,0
2,905405, Note_on_c,0,70,57
2,905409, Note_on_c,0,43,55
2,905473, Note_on_c,0,43,0
2,905473, Note_on_c,0,70,0
2,905517, Note_on_c,0,76,82
2,905525, Note_on_c,0,54,64
2,905525, Note_on_c,0,64,66
2,905525, Control_c,0,64,40
2,905537, Control_c,0,64,0
2,905549, Control_c,0,64,40
2,905565, Control_c,0,64,104
2,905577, Control_c,0,64,127
2,905581, Note_on_c,0,64,0
2,905609, Note_on_c,0,54,0
2,905629, Note_on_c,0,46,53
2,905629, Note_on_c,0,70,65
2,905685, Note_on_c,0,76,0
2,905709, Note_on_c,0,46,0
2,905709, Note_on_c,0,42,62
2,905737, Note_on_c,0,70,0
2,905749, Note_on_c,0,72,71
2,905801, Note_on_c,0,42,0
2,905821, Note_on_c,0,72,0
2,905861, Note_on_c,0,53,66
2,905869, Note_on_c,0,77,86
2,905869, Control_c,0,64,72
2,905873, Note_on_c,0,65,73
2,905881, Control_c,0,64,0
2,905897, Control_c,0,64,24
2,905909, Control_c,0,64,88
2,905925, Control_c,0,64,127
2,905949, Note_on_c,0,53,0
2,905957, Note_on_c,0,65,0
2,905981, Note_on_c,0,69,77
2,905989, Note_on_c,0,45,74
2,905997, Note_on_c,0,77,0
2,906093, Note_on_c,0,72,81
2,906097, Note_on_c,0,69,0
2,906101, Note_on_c,0,41,77
2,906105, Note_on_c,0,45,0
2,906141, Note_on_c,0,72,0
2,906149, Note_on_c,0,41,0
2,906221, Note_on_c,0,79,92
2,906241, Note_on_c,0,40,74
2,906245, Control_c,0,64,72
2,906257, Control_c,0,64,0
2,906293, Note_on_c,0,40,0
2,906313, Control_c,0,64,40
2,906325, Control_c,0,64,127
2,906341, Note_on_c,0,72,82
2,906349, Note_on_c,0,43,63
2,906389, Note_on_c,0,79,0
2,906413, Note_on_c,0,43,0
2,906453, Note_on_c,0,72,0
2,906453, Note_on_c,0,67,78
2,906457, Note_on_c,0,52,63
2,906485, Note_on_c,0,52,0
2,906509, Note_on_c,0,67,0
2,906569, Note_on_c,0,72,85
2,906577, Note_on_c,0,55,63
2,906585, Note_on_c,0,52,60
2,906609, Note_on_c,0,55,0
2,906621, Note_on_c,0,52,0
2,906689, Note_on_c,0,67,73
2,906697, Note_on_c,0,72,0
2,906785, Note_on_c,0,67,0
2,906793, Note_on_c,0,60,64
2,906837, Note_on_c,0,60,0
2,906917, Note_on_c,0,39,73
2,906921, Control_c,0,64,0
2,906925, Note_on_c,0,79,84
2,907001, Control_c,0,64,127
2,907037, Note_on_c,0,39,0
2,907041, Note_on_c,0,43,65
2,907045, Note_on_c,0,72,77
2,907093, Note_on_c,0,79,0
2,907137, Note_on_c,0,43,0
2,907149, Note_on_c,0,72,0
2,907153, Note_on_c,0,51,66
2,907157, Note_on_c,0,67,72
2,907193, Note_on_c,0,51,0
2,907213, Note_on_c,0,67,0
2,907273, Note_on_c,0,72,85
2,907277, Note_on_c,0,55,70
2,907281, Note_on_c,0,51,63
2,907317, Note_on_c,0,55,0
2,907369, Note_on_c,0,51,0
2,907385, Note_on_c,0,67,70
2,907401, Note_on_c,0,72,0
2,907489, Note_on_c,0,67,0
2,907489, Note_on_c,0,60,67
2,907533, Note_on_c,0,60,0
2,907625, Note_on_c,0,38,72
2,907625, Note_on_c,0,77,90
2,907625, Control_c,0,64,72
2,907637, Control_c,0,64,0
2,907721, Note_on_c,0,38,0
2,907721, Control_c,0,64,127
2,907737, Note_on_c,0,41,65
2,907741, Note_on_c,0,71,72
2,907785, Note_on_c,0,77,0
2,907829, Note_on_c,0,41,0
2,907841, Note_on_c,0,71,0
2,907845, Note_on_c,0,65,71
2,907853, Note_on_c,0,50,64
2,907897, Note_on_c,0,50,0
2,907909, Note_on_c,0,65,0
2,907969, Note_on_c,0,71,82
2,907977, Note_on_c,0,50,57
2,907985, Note_on_c,0,53,61
2,908049, Note_on_c,0,53,0
2,908053, Note_on_c,0,50,0
2,908081, Note_on_c,0,65,65
2,908093, Note_on_c,0,71,0
2,908173, Note_on_c,0,65,0
2,908177, Note_on_c,0,59,67
2,908217, Note_on_c,0,59,0
2,908285, Control_c,0,64,40
2,908297, Control_c,0,64,0
2,908305, Note_on_c,0,37,69
2,908325, Note_on_c,0,77,85
2,908397, Control_c,0,64,127
2,908433, Note_on_c,0,37,0
2,908433, Note_on_c,0,43,66
2,908433, Note_on_c,0,71,75
2,908473, Note_on_c,0,77,0
2,908513, Note_on_c,0,43,0
2,908529, Note_on_c,0,71,0
2,908537, Note_on_c,0,49,60
2,908545, Note_on_c,0,65,70
2,908585, Note_on_c,0,49,0
2,908605, Note_on_c,0,65,0
2,908673, Note_on_c,0,71,81
2,908677, Note_on_c,0,49,58
2,908677, Note_on_c,0,55,60
2,908721, Note_on_c,0,49,0
2,908749, Note_on_c,0,55,0
2,908777, Note_on_c,0,71,0
2,908777, Note_on_c,0,65,70
2,908861, Note_on_c,0,65,0
2,908881, Note_on_c,0,59,63
2,908921, Note_on_c,0,59,0
2,908977, Control_c,0,64,0
2,908993, Note_on_c,0,60,78
2,908993, Note_on_c,0,48,80
2,909061, Control_c,0,64,88
2,909065, Note_on_c,0,48,0
2,909065, Note_on_c,0,60,0
2,909073, Control_c,0,64,127
2,909109, Note_on_c,0,76,82
2,909117, Note_on_c,0,64,74
2,909121, Note_on_c,0,52,52
2,909121, Note_on_c,0,55,58
2,909177, Note_on_c,0,76,0
2,909181, Note_on_c,0,52,0
2,909193, Note_on_c,0,55,0
2,909213, Note_on_c,0,67,66
2,909221, Note_on_c,0,72,70
2,909233, Note_on_c,0,64,0
2,909269, Note_on_c,0,67,0
2,909289, Note_on_c,0,72,0
2,909309, Control_c,0,64,104
2,909325, Control_c,0,64,0
2,909333, Note_on_c,0,54,78
2,909337, Note_on_c,0,42,68
2,909365, Control_c,0,64,40
2,909377, Control_c,0,64,104
2,909393, Control_c,0,64,127
2,909433, Note_on_c,0,42,0
2,909453, Note_on_c,0,75,80
2,909461, Note_on_c,0,63,68
2,909465, Note_on_c,0,48,55
2,909465, Note_on_c,0,51,58
2,909469, Note_on_c,0,54,0
2,909517, Note_on_c,0,48,0
2,909529, Note_on_c,0,63,0
2,909537, Note_on_c,0,75,0
2,909537, Note_on_c,0,51,0
2,909561, Note_on_c,0,72,72
2,909561, Note_on_c,0,69,63
2,909613, Note_on_c,0,69,0
2,909633, Note_on_c,0,72,0
2,909641, Control_c,0,64,56
2,909653, Control_c,0,64,0
2,909661, Note_on_c,0,43,74
2,909661, Note_on_c,0,55,82
2,909709, Control_c,0,64,104
2,909725, Control_c,0,64,127
2,909761, Note_on_c,0,55,0
2,909769, Note_on_c,0,43,0
2,909769, Note_on_c,0,46,51
2,909769, Note_on_c,0,50,62
2,909773, Note_on_c,0,74,80
2,909777, Note_on_c,0,62,60
2,909825, Note_on_c,0,50,0
2,909841, Note_on_c,0,46,0
2,909845, Note_on_c,0,62,0
2,909881, Note_on_c,0,70,66
2,909881, Note_on_c,0,67,59
2,909889, Note_on_c,0,74,0
2,909941, Note_on_c,0,70,0
2,909953, Note_on_c,0,67,0
2,909985, Control_c,0,64,24
2,909989, Note_on_c,0,40,80
2,909993, Note_on_c,0,52,85
2,910001, Control_c,0,64,0
2,910013, Control_c,0,64,24
2,910029, Control_c,0,64,88
2,910041, Control_c,0,64,127
2,910081, Note_on_c,0,40,0
2,910121, Note_on_c,0,81,88
2,910121, Note_on_c,0,69,78
2,910121, Note_on_c,0,43,58
2,910121, Note_on_c,0,46,61
2,910133, Note_on_c,0,52,0
2,910193, Note_on_c,0,43,0
2,910193, Note_on_c,0,46,0
2,910213, Note_on_c,0,81,0
2,910237, Note_on_c,0,70,63
2,910237, Note_on_c,0,73,75
2,910245, Note_on_c,0,69,0
2,910285, Note_on_c,0,73,0
2,910285, Note_on_c,0,70,0
2,910337, Note_on_c,0,61,87
2,910345, Note_on_c,0,52,76
2,910433, Note_on_c,0,61,0
2,910445, Note_on_c,0,52,0
2,910445, Note_on_c,0,58,63
2,910453, Note_on_c,0,55,56
2,910457, Note_on_c,0,79,90
2,910457, Note_on_c,0,67,78
2,910469, Note_on_c,0,58,0
2,910477, Note_on_c,0,55,0
2,910569, Note_on_c,0,73,77
2,910569, Note_on_c,0,70,61
2,910593, Note_on_c,0,79,0
2,910593, Note_on_c,0,67,0
2,910621, Note_on_c,0,70,0
2,910645, Note_on_c,0,73,0
2,910665, Control_c,0,64,24
2,910677, Note_on_c,0,41,81
2,910677, Control_c,0,64,0
2,910681, Note_on_c,0,53,88
2,910705, Control_c,0,64,56
2,910717, Control_c,0,64,127
2,910749, Note_on_c,0,41,0
2,910785, Note_on_c,0,53,0
2,910797, Note_on_c,0,80,85
2,910797, Note_on_c,0,68,79
2,910797, Note_on_c,0,45,58
2,910797, Note_on_c,0,50,61
2,910869, Note_on_c,0,68,0
2,910873, Note_on_c,0,45,0
2,910881, Note_on_c,0,80,0
2,910881, Note_on_c,0,50,0
2,910921, Note_on_c,0,74,74
2,910985, Note_on_c,0,74,0
2,911017, Note_on_c,0,62,77
2,911041, Note_on_c,0,53,71
2,911113, Note_on_c,0,62,0
2,911117, Note_on_c,0,57,63
2,911141, Note_on_c,0,53,0
2,911141, Note_on_c,0,81,82
2,911149, Note_on_c,0,69,77
2,911165, Note_on_c,0,57,0
2,911249, Note_on_c,0,69,0
2,911249, Note_on_c,0,74,67
2,911265, Note_on_c,0,81,0
2,911273, Note_on_c,0,74,0
2,911353, Control_c,0,64,40
2,911357, Note_on_c,0,54,91
2,911361, Note_on_c,0,42,76
2,911369, Control_c,0,64,0
2,911413, Control_c,0,64,56
2,911425, Control_c,0,64,127
2,911481, Note_on_c,0,86,90
2,911489, Note_on_c,0,45,61
2,911489, Note_on_c,0,74,79
2,911493, Note_on_c,0,42,0
2,911497, Note_on_c,0,54,0
2,911501, Note_on_c,0,50,69
2,911525, Note_on_c,0,50,0
2,911537, Note_on_c,0,45,0
2,911577, Note_on_c,0,81,78
2,911593, Note_on_c,0,86,0
2,911629, Note_on_c,0,81,0
2,911637, Note_on_c,0,74,0
2,911709, Note_on_c,0,62,79
2,911717, Note_on_c,0,54,66
2,911805, Note_on_c,0,62,0
2,911813, Note_on_c,0,57,66
2,911825, Note_on_c,0,81,86
2,911825, Note_on_c,0,69,82
2,911829, Note_on_c,0,54,0
2,911877, Note_on_c,0,57,0
2,911897, Note_on_c,0,69,0
2,911917, Note_on_c,0,81,0
2,911933, Note_on_c,0,74,82
2,912029, Note_on_c,0,55,88
2,912033, Note_on_c,0,43,85
2,912033, Control_c,0,64,40
2,912045, Control_c,0,64,0
2,912073, Control_c,0,64,40
2,912085, Note_on_c,0,74,0
2,912089, Control_c,0,64,127
2,912133, Note_on_c,0,43,0
2,912149, Note_on_c,0,81,84
2,912149, Note_on_c,0,50,68
2,912149, Note_on_c,0,46,58
2,912153, Note_on_c,0,69,76
2,912165, Note_on_c,0,55,0
2,912201, Note_on_c,0,46,0
2,912213, Note_on_c,0,50,0
2,912245, Note_on_c,0,69,0
2,912253, Note_on_c,0,74,75
2,912297, Note_on_c,0,81,0
2,912321, Note_on_c,0,74,0
2,912381, Note_on_c,0,62,88
2,912385, Note_on_c,0,55,78
2,912445, Note_on_c,0,62,0
2,912453, Note_on_c,0,55,0
2,912485, Note_on_c,0,58,46
2,912489, Note_on_c,0,82,81
2,912489, Note_on_c,0,70,79
2,912549, Note_on_c,0,58,0
2,912597, Note_on_c,0,74,64
2,912601, Note_on_c,0,79,74
2,912613, Note_on_c,0,70,0
2,912621, Note_on_c,0,74,0
2,912637, Note_on_c,0,82,0
2,912665, Note_on_c,0,79,0
2,912713, Note_on_c,0,31,80
2,912717, Note_on_c,0,43,100
2,912721, Control_c,0,64,24
2,912737, Control_c,0,64,0
2,912793, Control_c,0,64,104
2,912801, Note_on_c,0,31,0
2,912805, Note_on_c,0,43,0
2,912805, Control_c,0,64,127
2,912837, Note_on_c,0,87,80
2,912845, Note_on_c,0,75,77
2,912949, Note_on_c,0,82,73
2,912957, Note_on_c,0,87,0
2,913001, Note_on_c,0,75,0
2,913013, Note_on_c,0,82,0
2,913053, Note_on_c,0,67,89
2,913053, Note_on_c,0,55,74
2,913053, Note_on_c,0,58,62
2,913053, Note_on_c,0,63,76
2,913097, Note_on_c,0,67,0
2,913101, Note_on_c,0,63,0
2,913117, Note_on_c,0,55,0
2,913121, Note_on_c,0,58,0
2,913169, Note_on_c,0,82,86
2,913173, Note_on_c,0,70,82
2,913241, Note_on_c,0,70,0
2,913273, Note_on_c,0,75,79
2,913289, Note_on_c,0,82,0
2,913361, Control_c,0,64,88
2,913373, Control_c,0,64,0
2,913377, Note_on_c,0,44,90
2,913377, Note_on_c,0,32,77
2,913413, Note_on_c,0,32,0
2,913421, Note_on_c,0,44,0
2,913429, Note_on_c,0,75,0
2,913429, Control_c,0,64,88
2,913441, Control_c,0,64,127
2,913489, Note_on_c,0,83,89
2,913497, Note_on_c,0,71,74
2,913569, Note_on_c,0,71,0
2,913593, Note_on_c,0,75,79
2,913593, Note_on_c,0,80,80
2,913637, Note_on_c,0,83,0
2,913697, Note_on_c,0,80,0
2,913697, Note_on_c,0,75,0
2,913709, Note_on_c,0,68,91
2,913709, Note_on_c,0,63,73
2,913709, Note_on_c,0,56,69
2,913709, Note_on_c,0,60,68
2,913757, Note_on_c,0,63,0
2,913765, Note_on_c,0,68,0
2,913765, Note_on_c,0,60,0
2,913781, Note_on_c,0,56,0
2,913821, Note_on_c,0,84,94
2,913825, Note_on_c,0,72,87
2,913897, Note_on_c,0,72,0
2,913929, Note_on_c,0,75,81
2,913937, Note_on_c,0,84,0
2,913941, Note_on_c,0,80,69
2,913997, Note_on_c,0,75,0
2,914009, Control_c,0,64,88
2,914021, Control_c,0,64,0
2,914025, Note_on_c,0,80,0
2,914029, Note_on_c,0,33,78
2,914037, Note_on_c,0,45,99
2,914061, Control_c,0,64,72
2,914073, Control_c,0,64,127
2,914081, Note_on_c,0,33,0
2,914097, Note_on_c,0,45,0
2,914169, Note_on_c,0,89,93
2,914177, Note_on_c,0,77,81
2,914265, Note_on_c,0,84,82
2,914273, Note_on_c,0,89,0
2,914321, Note_on_c,0,84,0
2,914321, Note_on_c,0,77,0
2,914373, Note_on_c,0,69,87
2,914373, Note_on_c,0,65,77
2,914373, Note_on_c,0,60,72
2,914377, Note_on_c,0,57,67
2,914417, Note_on_c,0,69,0
2,914421, Note_on_c,0,65,0
2,914441, Note_on_c,0,60,0
2,914449, Note_on_c,0,57,0
2,914485, Note_on_c,0,84,89
2,914489, Note_on_c,0,72,82
2,914577, Note_on_c,0,72,0
2,914593, Note_on_c,0,77,84
2,914621, Note_on_c,0,84,0
2,914685, Control_c,0,64,72
2,914697, Control_c,0,64,0
2,914705, Note_on_c,0,46,96
2,914705, Note_on_c,0,34,81
2,914741, Note_on_c,0,34,0
2,914749, Note_on_c,0,46,0
2,914753, Control_c,0,64,104
2,914761, Note_on_c,0,77,0
2,914769, Control_c,0,64,127
2,914817, Note_on_c,0,85,86
2,914821, Note_on_c,0,73,84
2,914897, Note_on_c,0,73,0
2,914917, Note_on_c,0,85,0
2,914921, Note_on_c,0,77,78
2,914921, Note_on_c,0,82,76
2,914985, Note_on_c,0,77,0
2,915037, Note_on_c,0,70,89
2,915037, Note_on_c,0,65,73
2,915037, Note_on_c,0,58,64
2,915037, Note_on_c,0,62,62
2,915049, Note_on_c,0,82,0
2,915081, Note_on_c,0,70,0
2,915085, Note_on_c,0,65,0
2,915089, Note_on_c,0,62,0
2,915113, Note_on_c,0,58,0
2,915149, Note_on_c,0,86,90
2,915153, Note_on_c,0,74,84
2,915245, Note_on_c,0,82,75
2,915265, Note_on_c,0,74,0
2,915273, Note_on_c,0,86,0
2,915313, Note_on_c,0,82,0
2,915361, Control_c,0,64,104
2,915377, Note_on_c,0,47,94
2,915377, Note_on_c,0,35,86
2,915377, Control_c,0,64,0
2,915417, Control_c,0,64,40
2,915421, Note_on_c,0,35,0
2,915429, Control_c,0,64,127
2,915437, Note_on_c,0,47,0
2,915485, Note_on_c,0,91,86
2,915493, Note_on_c,0,79,73
2,915585, Note_on_c,0,86,81
2,915593, Note_on_c,0,91,0
2,915637, Note_on_c,0,86,0
2,915649, Note_on_c,0,79,0
2,915697, Note_on_c,0,67,80
2,915697, Note_on_c,0,71,82
2,915697, Note_on_c,0,62,68
2,915697, Note_on_c,0,59,73
2,915737, Note_on_c,0,71,0
2,915741, Note_on_c,0,67,0
2,915745, Note_on_c,0,62,0
2,915757, Note_on_c,0,59,0
2,915817, Note_on_c,0,86,80
2,915821, Note_on_c,0,74,73
2,915889, Note_on_c,0,74,0
2,915921, Note_on_c,0,79,88
2,915925, Note_on_c,0,86,0
2,915981, Note_on_c,0,79,0
2,916013, Control_c,0,64,88
2,916021, Note_on_c,0,48,94
2,916021, Note_on_c,0,36,84
2,916025, Control_c,0,64,0
2,916053, Control_c,0,64,24
2,916065, Control_c,0,64,104
2,916073, Note_on_c,0,36,0
2,916081, Control_c,0,64,127
2,916085, Note_on_c,0,48,0
2,916133, Note_on_c,0,91,94
2,916133, Note_on_c,0,79,79
2,916233, Note_on_c,0,87,76
2,916237, Note_on_c,0,84,79
2,916245, Note_on_c,0,79,0
2,916245, Note_on_c,0,91,0
2,916297, Note_on_c,0,84,0
2,916309, Note_on_c,0,87,0
2,916333, Note_on_c,0,63,72
2,916337, Note_on_c,0,72,87
2,916337, Note_on_c,0,60,79
2,916341, Note_on_c,0,67,83
2,916381, Note_on_c,0,72,0
2,916385, Note_on_c,0,67,0
2,916405, Note_on_c,0,60,0
2,916405, Note_on_c,0,63,0
2,916449, Note_on_c,0,87,77
2,916449, Note_on_c,0,75,82
2,916509, Note_on_c,0,75,0
2,916537, Note_on_c,0,87,0
2,916569, Note_on_c,0,84,80
2,916569, Note_on_c,0,79,66
2,916629, Note_on_c,0,79,0
2,916629, Note_on_c,0,84,0
2,916661, Control_c,0,64,56
2,916673, Note_on_c,0,49,96
2,916673, Note_on_c,0,37,82
2,916673, Control_c,0,64,0
2,916717, Control_c,0,64,88
2,916729, Control_c,0,64,127
2,916738, Note_on_c,0,49,0
2,916739, Note_on_c,0,37,0
2,916797, Note_on_c,0,93,97
2,916805, Note_on_c,0,81,84
2,916901, Note_on_c,0,88,82
2,916905, Note_on_c,0,93,0
2,916957, Note_on_c,0,81,0
2,916973, Note_on_c,0,88,0
2,917009, Note_on_c,0,73,90
2,917013, Note_on_c,0,61,58
2,917021, Note_on_c,0,69,70
2,917025, Note_on_c,0,64,69
2,917061, Note_on_c,0,73,0
2,917065, Note_on_c,0,69,0
2,917081, Note_on_c,0,64,0
2,917093, Note_on_c,0,61,0
2,917133, Note_on_c,0,88,82
2,917137, Note_on_c,0,76,84
2,917201, Note_on_c,0,76,0
2,917237, Note_on_c,0,81,73
2,917245, Note_on_c,0,88,0
2,917282, Note_on_c,0,81,0
2,917325, Control_c,0,64,104
2,917333, Note_on_c,0,38,82
2,917337, Control_c,0,64,0
2,917341, Note_on_c,0,50,99
2,917377, Note_on_c,0,38,0
2,917377, Control_c,0,64,56
2,917393, Control_c,0,64,127
2,917405, Note_on_c,0,50,0
2,917453, Note_on_c,0,93,94
2,917457, Note_on_c,0,81,76
2,917553, Note_on_c,0,89,77
2,917553, Note_on_c,0,86,70
2,917557, Note_on_c,0,93,0
2,917565, Note_on_c,0,81,0
2,917601, Note_on_c,0,86,0
2,917617, Note_on_c,0,89,0
2,917665, Note_on_c,0,74,90
2,917669, Note_on_c,0,69,81
2,917673, Note_on_c,0,62,64
2,917673, Note_on_c,0,65,62
2,917709, Note_on_c,0,74,0
2,917721, Note_on_c,0,69,0
2,917741, Note_on_c,0,65,0
2,917745, Note_on_c,0,62,0
2,917781, Note_on_c,0,89,89
2,917785, Note_on_c,0,77,88
2,917853, Note_on_c,0,77,0
2,917885, Note_on_c,0,81,72
2,917889, Note_on_c,0,86,77
2,917909, Note_on_c,0,81,0
2,917913, Note_on_c,0,89,0
2,917941, Note_on_c,0,86,0
2,917985, Control_c,0,64,72
2,918001, Note_on_c,0,50,97
2,918001, Note_on_c,0,38,82
2,918001, Control_c,0,64,0
2,918029, Control_c,0,64,24
2,918041, Control_c,0,64,88
2,918049, Note_on_c,0,38,0
2,918057, Control_c,0,64,127
2,918061, Note_on_c,0,50,0
2,918109, Note_on_c,0,94,86
2,918113, Note_on_c,0,82,85
2,918197, Note_on_c,0,94,0
2,918213, Note_on_c,0,82,0
2,918213, Note_on_c,0,89,80
2,918213, Note_on_c,0,86,65
2,918265, Note_on_c,0,86,0
2,918289, Note_on_c,0,89,0
2,918325, Note_on_c,0,65,76
2,918325, Note_on_c,0,74,86
2,918325, Note_on_c,0,70,74
2,918333, Note_on_c,0,62,68
2,918373, Note_on_c,0,74,0
2,918377, Note_on_c,0,70,0
2,918389, Note_on_c,0,65,0
2,918405, Note_on_c,0,62,0
2,918445, Note_on_c,0,89,87
2,918453, Note_on_c,0,77,81
2,918549, Note_on_c,0,89,0
2,918549, Note_on_c,0,86,79
2,918549, Note_on_c,0,82,72
2,918553, Note_on_c,0,77,0
2,918601, Note_on_c,0,86,0
2,918609, Note_on_c,0,82,0
2,918689, Note_on_c,0,94,90
2,918689, Note_on_c,0,82,102
2,918689, Note_on_c,0,87,92
2,918689, Note_on_c,0,90,75
2,918705, Control_c,0,64,127
2,918769, Note_on_c,0,90,0
2,918777, Note_on_c,0,82,0
2,918793, Note_on_c,0,87,0
2,918793, Note_on_c,0,94,0
2,918813, Note_on_c,0,39,79
2,918917, Note_on_c,0,42,68
2,918929, Control_c,0,64,40
2,918945, Note_on_c,0,39,0
2,918945, Control_c,0,64,88
2,918957, Control_c,0,64,127
2,919037, Note_on_c,0,42,0
2,919037, Note_on_c,0,46,71
2,919145, Note_on_c,0,54,73
2,919145, Note_on_c,0,51,69
2,919185, Note_on_c,0,46,0
2,919189, Note_on_c,0,51,0
2,919225, Note_on_c,0,54,0
2,919253, Note_on_c,0,58,77
2,919337, Note_on_c,0,58,0
2,919365, Note_on_c,0,66,73
2,919373, Note_on_c,0,63,65
2,919449, Note_on_c,0,63,0
2,919449, Note_on_c,0,66,0
2,919473, Note_on_c,0,51,78
2,919577, Note_on_c,0,51,0
2,919593, Note_on_c,0,54,61
2,919689, Note_on_c,0,54,0
2,919701, Note_on_c,0,58,65
2,919809, Note_on_c,0,66,81
2,919825, Note_on_c,0,63,57
2,919849, Note_on_c,0,58,0
2,919857, Note_on_c,0,63,0
2,919885, Note_on_c,0,66,0
2,919925, Note_on_c,0,70,85
2,919997, Note_on_c,0,70,0
2,920025, Note_on_c,0,78,86
2,920033, Note_on_c,0,75,73
2,920077, Note_on_c,0,75,0
2,920089, Note_on_c,0,78,0
2,920141, Note_on_c,0,63,69
2,920261, Note_on_c,0,63,0
2,920265, Note_on_c,0,66,75
2,920369, Note_on_c,0,70,73
2,920489, Note_on_c,0,78,87
2,920497, Note_on_c,0,75,71
2,920513, Note_on_c,0,66,0
2,920529, Note_on_c,0,75,0
2,920537, Note_on_c,0,70,0
2,920565, Note_on_c,0,78,0
2,920597, Note_on_c,0,82,85
2,920685, Note_on_c,0,82,0
2,920717, Control_c,0,64,0
2,920717, Note_on_c,0,90,93
2,920717, Note_on_c,0,87,77
2,920769, Note_on_c,0,87,0
2,920785, Note_on_c,0,90,0
2,921557, Control_c,0,64,72
2,921565, Note_on_c,0,39,70
2,921565, Control_c,0,64,0
2,921633, Control_c,0,64,56
2,921645, Control_c,0,64,104
2,921657, Control_c,0,64,127
2,921677, Note_on_c,0,42,64
2,921685, Note_on_c,0,39,0
2,921777, Note_on_c,0,42,0
2,921797, Note_on_c,0,46,74
2,921913, Note_on_c,0,54,73
2,921925, Note_on_c,0,51,68
2,921949, Note_on_c,0,46,0
2,921961, Note_on_c,0,51,0
2,921993, Note_on_c,0,54,0
2,922033, Note_on_c,0,58,77
2,922117, Note_on_c,0,58,0
2,922153, Note_on_c,0,66,79
2,922161, Note_on_c,0,63,61
2,922217, Note_on_c,0,63,0
2,922225, Note_on_c,0,66,0
2,922273, Note_on_c,0,51,82
2,922301, Control_c,0,64,104
2,922317, Control_c,0,64,72
2,922353, Control_c,0,64,127
2,922393, Note_on_c,0,54,62
2,922401, Note_on_c,0,51,0
2,922501, Note_on_c,0,54,0
2,922501, Note_on_c,0,58,65
2,922625, Note_on_c,0,63,64
2,922629, Note_on_c,0,66,81
2,922657, Note_on_c,0,58,0
2,922669, Note_on_c,0,63,0
2,922705, Note_on_c,0,66,0
2,922741, Note_on_c,0,70,88
2,922821, Note_on_c,0,70,0
2,922849, Note_on_c,0,78,86
2,922853, Note_on_c,0,75,73
2,922901, Note_on_c,0,75,0
2,922909, Note_on_c,0,78,0
2,922969, Note_on_c,0,63,75
2,923085, Note_on_c,0,70,73
2,923189, Note_on_c,0,63,0
2,923197, Note_on_c,0,75,76
2,923237, Note_on_c,0,70,0
2,923245, Note_on_c,0,75,0
2,923293, Note_on_c,0,78,88
2,923377, Note_on_c,0,78,0
2,923413, Note_on_c,0,82,85
2,923485, Note_on_c,0,82,0
2,923541, Control_c,0,64,0
2,923541, Note_on_c,0,90,92
2,923545, Note_on_c,0,87,77
2,923609, Note_on_c,0,87,0
2,923613, Note_on_c,0,90,0
2,924305, Control_c,0,64,104
2,924317, Control_c,0,64,40
2,924329, Control_c,0,64,0
2,924381, Note_on_c,0,39,78
2,924437, Control_c,0,64,72
2,924453, Control_c,0,64,127
2,924473, Note_on_c,0,39,0
2,924489, Note_on_c,0,42,65
2,924581, Note_on_c,0,42,0
2,924609, Note_on_c,0,46,75
2,924713, Note_on_c,0,46,0
2,924729, Note_on_c,0,54,75
2,924741, Note_on_c,0,51,65
2,924777, Note_on_c,0,51,0
2,924797, Note_on_c,0,54,0
2,924849, Note_on_c,0,58,76
2,924933, Note_on_c,0,58,0
2,924969, Note_on_c,0,66,79
2,924977, Note_on_c,0,63,63
2,925033, Note_on_c,0,63,0
2,925041, Note_on_c,0,66,0
2,925093, Note_on_c,0,51,80
2,925189, Note_on_c,0,51,0
2,925217, Note_on_c,0,54,63
2,925325, Note_on_c,0,58,62
2,925425, Note_on_c,0,66,79
2,925449, Note_on_c,0,63,61
2,925489, Note_on_c,0,63,0
2,925493, Note_on_c,0,54,0
2,925497, Note_on_c,0,66,0
2,925497, Note_on_c,0,58,0
2,925537, Note_on_c,0,70,84
2,925617, Note_on_c,0,70,0
2,925649, Note_on_c,0,78,84
2,925657, Note_on_c,0,75,72
2,925673, Note_on_c,0,70,25
2,925701, Note_on_c,0,70,0
2,925753, Control_c,0,64,56
2,925765, Note_on_c,0,52,76
2,925769, Control_c,0,64,0
2,925833, Control_c,0,64,40
2,925845, Control_c,0,64,104
2,925861, Control_c,0,64,127
2,925873, Note_on_c,0,58,70
2,925881, Note_on_c,0,75,0
2,925993, Note_on_c,0,61,73
2,926021, Note_on_c,0,52,0
2,926029, Note_on_c,0,78,0
2,926037, Note_on_c,0,58,0
2,926049, Note_on_c,0,61,0
2,926097, Note_on_c,0,66,67
2,926121, Note_on_c,0,70,67
2,926213, Note_on_c,0,66,0
2,926229, Control_c,0,64,0
2,926229, Note_on_c,0,73,72
2,926245, Note_on_c,0,70,0
2,926277, Note_on_c,0,73,0
2,926349, Note_on_c,0,82,78
2,926349, Note_on_c,0,78,90
2,926417, Note_on_c,0,78,0
2,926417, Note_on_c,0,82,0
2,926477, Control_c,0,64,100
2,926477, Note_on_c,0,64,72
2,926577, Note_on_c,0,70,74
2,926697, Note_on_c,0,73,79
2,926789, Note_on_c,0,78,84
2,926797, Note_on_c,0,82,78
2,926889, Note_on_c,0,78,0
2,926893, Note_on_c,0,64,0
2,926905, Note_on_c,0,73,0
2,926905, Note_on_c,0,85,83
2,926917, Note_on_c,0,82,0
2,926933, Note_on_c,0,70,0
2,926961, Note_on_c,0,85,0
2,927033, Note_on_c,0,94,93
2,927033, Note_on_c,0,90,89
2,927101, Note_on_c,0,90,0
2,927141, Note_on_c,0,85,82
2,927221, Note_on_c,0,94,0
2,927245, Note_on_c,0,85,0
2,927253, Note_on_c,0,82,85
2,927317, Note_on_c,0,82,0
2,927321, Note_on_c,0,51,23
2,927321, Note_on_c,0,52,71
2,927345, Note_on_c,0,51,0
2,927365, Note_on_c,0,58,57
2,927377, Note_on_c,0,52,0
2,927381, Note_on_c,0,61,57
2,927381, Note_on_c,0,90,93
2,927389, Note_on_c,0,85,85
2,927425, Note_on_c,0,66,46
2,927429, Note_on_c,0,61,0
2,927445, Note_on_c,0,58,0
2,927461, Note_on_c,0,66,0
2,927485, Note_on_c,0,90,0
2,927485, Note_on_c,0,85,0
2,927497, Note_on_c,0,82,80
2,927593, Note_on_c,0,78,70
2,927620, Control_c,0,64,0
2,927637, Note_on_c,0,82,0
2,927673, Note_on_c,0,78,0
2,927725, Note_on_c,0,89,103
2,927725, Note_on_c,0,77,100
2,927729, Note_on_c,0,82,77
2,927729, Note_on_c,0,86,82
2,927737, Note_on_c,0,53,70
2,927737, Note_on_c,0,65,73
2,927749, Note_on_c,0,58,49
2,927749, Note_on_c,0,62,60
2,927769, Note_on_c,0,77,0
2,927769, Control_c,0,64,56
2,927773, Note_on_c,0,58,0
2,927781, Note_on_c,0,62,0
2,927781, Control_c,0,64,127
2,927785, Note_on_c,0,53,0
2,927793, Note_on_c,0,86,0
2,927793, Note_on_c,0,65,0
2,927793, Note_on_c,0,82,0
2,927809, Note_on_c,0,89,0
2,928065, Control_c,0,64,56
2,928077, Control_c,0,64,0
2,928085, Note_on_c,0,77,77
2,928089, Note_on_c,0,70,61
2,928101, Note_on_c,0,74,59
2,928117, Control_c,0,64,88
2,928129, Control_c,0,64,127
2,928169, Note_on_c,0,77,0
2,928205, Note_on_c,0,98,94
2,928209, Note_on_c,0,82,73
2,928209, Note_on_c,0,89,84
2,928209, Note_on_c,0,94,74
2,928245, Note_on_c,0,70,0
2,928249, Note_on_c,0,74,0
2,928257, Note_on_c,0,82,0
2,928297, Note_on_c,0,89,0
2,928297, Note_on_c,0,98,0
2,928309, Note_on_c,0,94,0
2,928325, Note_on_c,0,86,87
2,928397, Note_on_c,0,86,0
2,928441, Control_c,0,64,88
2,928449, Note_on_c,0,70,70
2,928453, Note_on_c,0,74,74
2,928453, Control_c,0,64,40
2,928461, Note_on_c,0,65,72
2,928465, Control_c,0,64,24
2,928477, Control_c,0,64,56
2,928489, Control_c,0,64,104
2,928505, Control_c,0,64,127
2,928525, Note_on_c,0,65,0
2,928533, Note_on_c,0,74,0
2,928561, Note_on_c,0,94,89
2,928569, Note_on_c,0,86,83
2,928569, Note_on_c,0,77,68
2,928573, Note_on_c,0,89,74
2,928589, Note_on_c,0,70,0
2,928613, Note_on_c,0,77,0
2,928633, Note_on_c,0,86,0
2,928653, Note_on_c,0,89,0
2,928661, Note_on_c,0,94,0
2,928681, Note_on_c,0,82,77
2,928741, Note_on_c,0,82,0
2,928789, Note_on_c,0,70,74
2,928797, Note_on_c,0,62,67
2,928801, Note_on_c,0,65,64
2,928813, Control_c,0,64,88
2,928825, Control_c,0,64,40
2,928869, Control_c,0,64,127
2,928873, Note_on_c,0,62,0
2,928901, Note_on_c,0,70,0
2,928909, Note_on_c,0,65,0
2,928917, Note_on_c,0,89,82
2,928917, Note_on_c,0,74,67
2,928917, Note_on_c,0,82,72
2,928925, Note_on_c,0,86,70
2,928957, Note_on_c,0,74,0
2,928997, Note_on_c,0,82,0
2,929009, Note_on_c,0,89,0
2,929013, Note_on_c,0,86,0
2,929029, Note_on_c,0,77,83
2,929117, Note_on_c,0,77,0
2,929153, Note_on_c,0,65,74
2,929153, Note_on_c,0,58,60
2,929153, Control_c,0,64,72
2,929157, Note_on_c,0,62,63
2,929165, Control_c,0,64,24
2,929189, Control_c,0,64,56
2,929201, Control_c,0,64,104
2,929217, Control_c,0,64,127
2,929237, Note_on_c,0,65,0
2,929257, Note_on_c,0,86,86
2,929257, Note_on_c,0,77,85
2,929261, Note_on_c,0,82,68
2,929265, Note_on_c,0,70,64
2,929273, Note_on_c,0,62,0
2,929293, Note_on_c,0,58,0
2,929313, Note_on_c,0,70,0
2,929341, Note_on_c,0,77,0
2,929357, Note_on_c,0,86,0
2,929361, Note_on_c,0,82,0
2,929385, Note_on_c,0,74,82
2,929461, Note_on_c,0,74,0
2,929493, Note_on_c,0,58,65
2,929493, Note_on_c,0,62,78
2,929501, Note_on_c,0,53,74
2,929501, Control_c,0,64,88
2,929513, Control_c,0,64,56
2,929537, Control_c,0,64,88
2,929549, Control_c,0,64,127
2,929569, Note_on_c,0,62,0
2,929585, Note_on_c,0,53,0
2,929605, Note_on_c,0,65,68
2,929621, Note_on_c,0,58,0
2,929621, Note_on_c,0,82,81
2,929629, Note_on_c,0,77,74
2,929629, Note_on_c,0,74,77
2,929653, Note_on_c,0,65,0
2,929697, Note_on_c,0,74,0
2,929709, Note_on_c,0,77,0
2,929709, Note_on_c,0,82,0
2,929729, Note_on_c,0,70,76
2,929789, Note_on_c,0,70,0
2,929837, Note_on_c,0,58,77
2,929845, Control_c,0,64,88
2,929849, Note_on_c,0,53,68
2,929853, Note_on_c,0,50,60
2,929861, Control_c,0,64,40
2,929897, Control_c,0,64,127
2,929905, Note_on_c,0,50,0
2,929929, Note_on_c,0,58,0
2,929949, Note_on_c,0,53,0
2,929957, Note_on_c,0,70,73
2,929961, Note_on_c,0,77,83
2,929969, Note_on_c,0,74,73
2,929969, Note_on_c,0,62,54
2,929993, Note_on_c,0,62,0
2,930049, Note_on_c,0,70,0
2,930049, Note_on_c,0,77,0
2,930061, Note_on_c,0,74,0
2,930077, Note_on_c,0,65,76
2,930161, Note_on_c,0,65,0
2,930177, Note_on_c,0,53,78
2,930181, Note_on_c,0,46,73
2,930181, Note_on_c,0,50,78
2,930181, Control_c,0,64,88
2,930197, Control_c,0,64,40
2,930209, Control_c,0,64,24
2,930221, Control_c,0,64,56
2,930233, Control_c,0,64,88
2,930245, Control_c,0,64,127
2,930265, Note_on_c,0,46,0
2,930265, Note_on_c,0,53,0
2,930285, Note_on_c,0,50,0
2,930305, Note_on_c,0,58,53
2,930309, Note_on_c,0,74,88
2,930309, Note_on_c,0,65,82
2,930309, Note_on_c,0,70,71
2,930333, Note_on_c,0,58,0
2,930397, Note_on_c,0,74,0
2,930397, Note_on_c,0,65,0
2,930409, Note_on_c,0,70,0
2,930409, Note_on_c,0,62,76
2,930501, Note_on_c,0,62,0
2,930533, Note_on_c,0,41,76
2,930533, Note_on_c,0,53,94
2,930533, Control_c,0,64,56
2,930545, Control_c,0,64,0
2,930609, Control_c,0,64,72
2,930613, Note_on_c,0,41,0
2,930625, Control_c,0,64,127
2,930629, Note_on_c,0,53,0
2,930641, Note_on_c,0,60,77
2,930645, Note_on_c,0,72,79
2,930745, Note_on_c,0,60,0
2,930749, Note_on_c,0,65,45
2,930761, Note_on_c,0,70,68
2,930773, Note_on_c,0,72,0
2,930789, Note_on_c,0,65,0
2,930837, Note_on_c,0,70,0
2,930893, Note_on_c,0,60,88
2,930893, Note_on_c,0,48,77
2,930937, Note_on_c,0,48,0
2,930941, Note_on_c,0,60,0
2,930993, Note_on_c,0,77,89
2,930993, Note_on_c,0,65,81
2,931089, Note_on_c,0,77,0
2,931101, Note_on_c,0,65,0
2,931109, Note_on_c,0,72,77
2,931113, Note_on_c,0,70,47
2,931149, Note_on_c,0,70,0
2,931157, Note_on_c,0,72,0
2,931225, Note_on_c,0,53,74
2,931229, Note_on_c,0,65,79
2,931229, Control_c,0,64,88
2,931269, Control_c,0,64,127
2,931281, Note_on_c,0,53,0
2,931293, Note_on_c,0,65,0
2,931349, Note_on_c,0,84,89
2,931349, Note_on_c,0,72,82
2,931417, Note_on_c,0,72,0
2,931437, Note_on_c,0,84,0
2,931449, Note_on_c,0,77,59
2,931461, Note_on_c,0,82,60
2,931477, Note_on_c,0,77,0
2,931513, Note_on_c,0,82,0
2,931581, Note_on_c,0,72,86
2,931581, Note_on_c,0,60,75
2,931625, Note_on_c,0,72,0
2,931653, Note_on_c,0,60,0
2,931689, Note_on_c,0,89,85
2,931693, Note_on_c,0,77,82
2,931781, Note_on_c,0,89,0
2,931801, Note_on_c,0,84,77
2,931809, Note_on_c,0,82,51
2,931825, Note_on_c,0,77,0
2,931849, Note_on_c,0,84,0
2,931857, Note_on_c,0,82,0
2,931913, Control_c,0,64,104
2,931917, Note_on_c,0,41,76
2,931925, Note_on_c,0,53,89
2,931925, Control_c,0,64,40
2,931941, Control_c,0,64,0
2,931965, Control_c,0,64,40
2,931973, Note_on_c,0,41,0
2,931977, Control_c,0,64,104
2,931989, Control_c,0,64,127
2,931993, Note_on_c,0,53,0
2,932041, Note_on_c,0,60,79
2,932045, Note_on_c,0,72,82
2,932101, Note_on_c,0,60,0
2,932117, Note_on_c,0,72,0
2,932153, Note_on_c,0,65,67
2,932161, Note_on_c,0,69,69
2,932185, Note_on_c,0,65,0
2,932209, Note_on_c,0,69,0
2,932273, Note_on_c,0,48,75
2,932273, Note_on_c,0,60,81
2,932313, Note_on_c,0,48,0
2,932317, Note_on_c,0,60,0
2,932381, Note_on_c,0,65,76
2,932385, Note_on_c,0,77,84
2,932453, Note_on_c,0,65,0
2,932457, Note_on_c,0,77,0
2,932489, Note_on_c,0,69,51
2,932501, Note_on_c,0,72,66
2,932513, Note_on_c,0,69,0
2,932533, Note_on_c,0,72,0
2,932613, Note_on_c,0,53,76
2,932621, Note_on_c,0,65,74
2,932661, Note_on_c,0,53,0
2,932673, Note_on_c,0,65,0
2,932717, Note_on_c,0,84,86
2,932721, Note_on_c,0,72,81
2,932777, Note_on_c,0,72,0
2,932801, Note_on_c,0,84,0
2,932829, Note_on_c,0,81,60
2,932861, Note_on_c,0,81,0
2,932953, Note_on_c,0,72,88
2,932957, Note_on_c,0,60,76
2,933001, Note_on_c,0,72,0
2,933009, Note_on_c,0,60,0
2,933061, Note_on_c,0,77,84
2,933065, Note_on_c,0,89,83
2,933153, Note_on_c,0,89,0
2,933153, Note_on_c,0,77,0
2,933169, Note_on_c,0,84,70
2,933177, Note_on_c,0,81,76
2,933221, Note_on_c,0,84,0
2,933225, Note_on_c,0,81,0
2,933281, Control_c,0,64,72
2,933293, Control_c,0,64,0
2,933309, Note_on_c,0,82,88
2,933313, Note_on_c,0,74,76
2,933313, Note_on_c,0,77,84
2,933325, Note_on_c,0,70,74
2,933329, Note_on_c,0,58,64
2,933333, Note_on_c,0,65,70
2,933337, Note_on_c,0,62,64
2,933349, Control_c,0,64,40
2,933361, Control_c,0,64,127
2,933377, Note_on_c,0,74,0
2,933381, Note_on_c,0,70,0
2,933389, Note_on_c,0,77,0
2,933393, Note_on_c,0,62,0
2,933393, Note_on_c,0,65,0
2,933397, Note_on_c,0,82,0
2,933405, Note_on_c,0,58,0
2,933605, Control_c,0,64,104
2,933617, Control_c,0,64,24
2,933633, Control_c,0,64,0
2,933697, Note_on_c,0,72,97
2,933697, Note_on_c,0,60,89
2,933701, Note_on_c,0,54,89
2,933701, Note_on_c,0,42,72
2,933701, Note_on_c,0,46,71
2,933721, Control_c,0,64,104
2,933733, Control_c,0,64,127
2,933809, Note_on_c,0,63,70
2,933853, Note_on_c,0,72,0
2,933873, Note_on_c,0,60,0
2,933929, Note_on_c,0,70,62
2,933941, Note_on_c,0,63,0
2,933977, Note_on_c,0,70,0
2,934009, Note_on_c,0,42,0
2,934017, Note_on_c,0,54,0
2,934033, Note_on_c,0,46,0
2,934045, Note_on_c,0,72,82
2,934109, Note_on_c,0,72,0
2,934149, Note_on_c,0,75,79
2,934253, Control_c,0,64,0
2,934253, Note_on_c,0,82,73
2,934257, Note_on_c,0,75,0
2,934301, Note_on_c,0,82,0
2,934373, Note_on_c,0,84,96
2,934385, Note_on_c,0,66,65
2,934389, Note_on_c,0,70,69
2,934389, Note_on_c,0,78,74
2,934437, Note_on_c,0,78,0
2,934441, Note_on_c,0,70,0
2,934449, Note_on_c,0,84,0
2,934457, Note_on_c,0,66,0
2,934481, Note_on_c,0,87,87
2,934577, Note_on_c,0,87,0
2,934589, Note_on_c,0,94,85
2,934661, Control_c,0,64,56
2,934677, Control_c,0,64,0
2,934693, Note_on_c,0,94,0
2,934741, Note_on_c,0,98,103
2,934741, Note_on_c,0,89,81
2,934741, Note_on_c,0,94,69
2,934741, Note_on_c,0,86,90
2,934741, Note_on_c,0,82,85
2,934745, Note_on_c,0,70,69
2,934753, Note_on_c,0,77,75
2,934753, Control_c,0,64,88
2,934761, Note_on_c,0,74,55
2,934765, Control_c,0,64,127
2,934773, Note_on_c,0,77,0
2,934785, Note_on_c,0,74,0
2,934785, Note_on_c,0,86,0
2,934789, Note_on_c,0,82,0
2,934789, Note_on_c,0,89,0
2,934813, Note_on_c,0,70,0
2,934825, Note_on_c,0,98,0
2,934825, Note_on_c,0,94,0
2,935009, Note_on_c,0,52,64
2,935025, Control_c,0,64,56
2,935037, Control_c,0,64,0
2,935045, Note_on_c,0,58,61
2,935053, Note_on_c,0,61,43
2,935081, Note_on_c,0,102,105
2,935081, Note_on_c,0,90,95
2,935089, Note_on_c,0,52,0
2,935089, Note_on_c,0,97,88
2,935101, Control_c,0,64,104
2,935109, Note_on_c,0,66,82
2,935117, Control_c,0,64,127
2,935137, Note_on_c,0,58,0
2,935137, Note_on_c,0,61,0
2,935141, Note_on_c,0,90,0
2,935149, Note_on_c,0,66,0
2,935193, Note_on_c,0,97,0
2,935201, Note_on_c,0,94,86
2,935309, Note_on_c,0,102,0
2,935325, Control_c,0,64,0
2,935325, Note_on_c,0,90,69
2,935341, Note_on_c,0,94,0
2,935365, Note_on_c,0,90,0
2,935437, Note_on_c,0,90,79
2,935445, Note_on_c,0,85,68
2,935505, Note_on_c,0,85,0
2,935505, Note_on_c,0,90,0
2,935545, Note_on_c,0,82,80
2,935653, Note_on_c,0,78,77
2,935665, Note_on_c,0,82,0
2,935677, Note_on_c,0,78,0
2,935773, Note_on_c,0,78,90
2,935781, Note_on_c,0,52,76
2,935785, Note_on_c,0,40,64
2,935785, Note_on_c,0,73,74
2,935873, Note_on_c,0,40,0
2,935877, Note_on_c,0,73,0
2,935885, Note_on_c,0,70,79
2,935893, Note_on_c,0,52,0
2,935905, Note_on_c,0,78,0
2,935993, Note_on_c,0,70,0
2,936001, Note_on_c,0,66,67
2,936069, Note_on_c,0,66,0
2,936133, Control_c,0,64,0
2,936141, Note_on_c,0,77,96
2,936145, Note_on_c,0,70,71
2,936145, Note_on_c,0,65,83
2,936149, Control_c,0,64,0
2,936153, Note_on_c,0,74,72
2,936153, Note_on_c,0,46,63
2,936157, Note_on_c,0,58,65
2,936165, Note_on_c,0,53,59
2,936177, Note_on_c,0,50,46
2,936185, Control_c,0,64,40
2,936193, Note_on_c,0,53,0
2,936193, Note_on_c,0,65,0
2,936197, Control_c,0,64,104
2,936209, Note_on_c,0,50,0
2,936213, Note_on_c,0,77,0
2,936213, Control_c,0,64,127
2,936221, Note_on_c,0,74,0
2,936221, Note_on_c,0,58,0
2,936225, Note_on_c,0,70,0
2,936229, Note_on_c,0,46,0
2,936445, Control_c,0,64,40
2,936453, Control_c,0,64,0
2,936513, Note_on_c,0,72,97
2,936513, Note_on_c,0,60,92
2,936517, Note_on_c,0,46,75
2,936517, Note_on_c,0,42,67
2,936517, Note_on_c,0,54,76
2,936549, Control_c,0,64,127
2,936637, Note_on_c,0,63,71
2,936689, Note_on_c,0,72,0
2,936721, Note_on_c,0,60,0
2,936761, Note_on_c,0,70,62
2,936777, Note_on_c,0,63,0
2,936809, Note_on_c,0,70,0
2,936817, Note_on_c,0,42,0
2,936853, Note_on_c,0,46,0
2,936857, Note_on_c,0,54,0
2,936877, Note_on_c,0,72,82
2,936945, Note_on_c,0,72,0
2,936989, Note_on_c,0,75,77
2,937093, Note_on_c,0,82,71
2,937105, Note_on_c,0,75,0
2,937145, Note_on_c,0,82,0
2,937213, Note_on_c,0,84,89
2,937217, Note_on_c,0,70,64
2,937217, Note_on_c,0,66,56
2,937217, Note_on_c,0,78,70
2,937265, Note_on_c,0,78,0
2,937265, Note_on_c,0,70,0
2,937273, Note_on_c,0,66,0
2,937289, Note_on_c,0,84,0
2,937321, Note_on_c,0,87,87
2,937413, Note_on_c,0,87,0
2,937437, Note_on_c,0,94,85
2,937529, Control_c,0,64,40
2,937537, Note_on_c,0,94,0
2,937541, Control_c,0,64,0
2,937577, Note_on_c,0,98,99
2,937577, Note_on_c,0,86,89
2,937577, Note_on_c,0,82,79
2,937577, Note_on_c,0,89,82
2,937577, Note_on_c,0,70,63
2,937577, Note_on_c,0,94,55
2,937589, Note_on_c,0,77,74
2,937593, Control_c,0,64,24
2,937601, Note_on_c,0,74,49
2,937605, Control_c,0,64,127
2,937613, Note_on_c,0,77,0
2,937621, Note_on_c,0,86,0
2,937629, Note_on_c,0,74,0
2,937629, Note_on_c,0,82,0
2,937633, Note_on_c,0,89,0
2,937657, Note_on_c,0,70,0
2,937669, Note_on_c,0,94,0
2,937669, Note_on_c,0,98,0
2,937849, Control_c,0,64,56
2,937865, Control_c,0,64,0
2,937893, Note_on_c,0,52,58
2,937917, Note_on_c,0,58,55
2,937925, Note_on_c,0,61,48
2,937933, Note_on_c,0,102,102
2,937937, Note_on_c,0,90,97
2,937941, Note_on_c,0,97,91
2,937941, Control_c,0,64,104
2,937957, Control_c,0,64,127
2,937961, Note_on_c,0,52,0
2,937977, Note_on_c,0,66,80
2,938001, Note_on_c,0,90,0
2,938009, Note_on_c,0,61,0
2,938013, Note_on_c,0,58,0
2,938021, Note_on_c,0,66,0
2,938041, Note_on_c,0,97,0
2,938061, Note_on_c,0,94,85
2,938157, Note_on_c,0,102,0
2,938177, Note_on_c,0,90,78
2,938197, Note_on_c,0,94,0
2,938213, Note_on_c,0,90,0
2,938297, Note_on_c,0,90,81
2,938309, Note_on_c,0,85,61
2,938333, Note_on_c,0,85,0
2,938373, Note_on_c,0,90,0
2,938405, Note_on_c,0,82,73
2,938509, Note_on_c,0,78,78
2,938525, Note_on_c,0,82,0
2,938545, Note_on_c,0,78,0
2,938641, Note_on_c,0,78,85
2,938641, Note_on_c,0,40,66
2,938645, Note_on_c,0,52,70
2,938653, Note_on_c,0,73,72
2,938689, Note_on_c,0,52,0
2,938693, Note_on_c,0,40,0
2,938709, Note_on_c,0,73,0
2,938725, Note_on_c,0,78,0
2,938753, Note_on_c,0,70,74
2,938865, Note_on_c,0,66,69
2,938917, Note_on_c,0,70,0
2,938925, Note_on_c,0,66,0
2,938985, Control_c,0,64,104
2,939001, Note_on_c,0,70,67
2,939001, Control_c,0,64,24
2,939005, Note_on_c,0,65,83
2,939009, Note_on_c,0,77,92
2,939013, Note_on_c,0,74,74
2,939013, Note_on_c,0,46,65
2,939013, Control_c,0,64,0
2,939017, Note_on_c,0,58,67
2,939021, Note_on_c,0,53,66
2,939025, Note_on_c,0,50,65
2,939037, Note_on_c,0,65,0
2,939045, Note_on_c,0,53,0
2,939049, Note_on_c,0,50,0
2,939053, Note_on_c,0,70,0
2,939065, Note_on_c,0,46,0
2,939065, Note_on_c,0,58,0
2,939065, Control_c,0,64,88
2,939069, Note_on_c,0,74,0
2,939077, Control_c,0,64,127
2,939081, Note_on_c,0,77,0
2,939273, Control_c,0,64,40
2,939277, Note_on_c,0,52,74
2,939285, Control_c,0,64,0
2,939333, Note_on_c,0,58,64
2,939357, Note_on_c,0,52,0
2,939357, Note_on_c,0,61,67
2,939365, Control_c,0,64,88
2,939377, Note_on_c,0,102,103
2,939377, Note_on_c,0,90,103
2,939377, Control_c,0,64,127
2,939385, Note_on_c,0,97,91
2,939397, Note_on_c,0,66,75
2,939397, Note_on_c,0,93,60
2,939421, Note_on_c,0,93,0
2,939421, Note_on_c,0,61,0
2,939429, Note_on_c,0,58,0
2,939441, Note_on_c,0,66,0
2,939453, Note_on_c,0,90,0
2,939481, Note_on_c,0,97,0
2,939505, Note_on_c,0,94,82
2,939613, Note_on_c,0,102,0
2,939621, Note_on_c,0,90,77
2,939645, Note_on_c,0,94,0
2,939669, Note_on_c,0,90,0
2,939749, Note_on_c,0,90,74
2,939753, Note_on_c,0,85,62
2,939817, Note_on_c,0,85,0
2,939829, Note_on_c,0,90,0
2,939853, Note_on_c,0,82,71
2,939961, Note_on_c,0,78,69
2,939969, Note_on_c,0,82,0
2,939985, Note_on_c,0,78,0
2,940097, Note_on_c,0,78,85
2,940101, Note_on_c,0,40,62
2,940105, Note_on_c,0,52,68
2,940109, Note_on_c,0,73,72
2,940137, Note_on_c,0,40,0
2,940145, Note_on_c,0,52,0
2,940181, Note_on_c,0,78,0
2,940181, Note_on_c,0,73,0
2,940209, Note_on_c,0,70,76
2,940317, Note_on_c,0,66,68
2,940353, Note_on_c,0,70,0
2,940373, Note_on_c,0,66,0
2,940421, Control_c,0,64,88
2,940433, Control_c,0,64,0
2,940453, Note_on_c,0,65,85
2,940453, Note_on_c,0,70,65
2,940457, Note_on_c,0,77,92
2,940461, Note_on_c,0,74,74
2,940465, Note_on_c,0,46,64
2,940469, Note_on_c,0,58,61
2,940477, Note_on_c,0,53,66
2,940481, Note_on_c,0,50,60
2,940493, Note_on_c,0,65,0
2,940501, Note_on_c,0,53,0
2,940505, Note_on_c,0,50,0
2,940509, Note_on_c,0,70,0
2,940509, Control_c,0,64,104
2,940521, Note_on_c,0,46,0
2,940521, Note_on_c,0,58,0
2,940521, Note_on_c,0,74,0
2,940525, Control_c,0,64,127
2,940537, Note_on_c,0,77,0
2,940745, Note_on_c,0,52,60
2,940757, Control_c,0,64,40
2,940769, Control_c,0,64,0
2,940785, Note_on_c,0,58,57
2,940801, Note_on_c,0,61,55
2,940813, Note_on_c,0,52,0
2,940829, Note_on_c,0,102,105
2,940829, Note_on_c,0,90,97
2,940829, Note_on_c,0,97,95
2,940837, Control_c,0,64,127
2,940849, Note_on_c,0,66,79
2,940893, Note_on_c,0,90,0
2,940893, Note_on_c,0,61,0
2,940893, Note_on_c,0,58,0
2,940901, Note_on_c,0,66,0
2,940929, Note_on_c,0,97,0
2,940957, Note_on_c,0,94,85
2,941049, Note_on_c,0,102,0
2,941065, Note_on_c,0,90,77
2,941085, Note_on_c,0,94,0
2,941113, Note_on_c,0,90,0
2,941185, Note_on_c,0,90,76
2,941189, Note_on_c,0,85,59
2,941217, Note_on_c,0,85,0
2,941261, Note_on_c,0,90,0
2,941301, Note_on_c,0,82,74
2,941405, Note_on_c,0,78,79
2,941417, Note_on_c,0,82,0
2,941441, Note_on_c,0,78,0
2,941533, Control_c,0,64,56
2,941541, Note_on_c,0,78,85
2,941545, Control_c,0,64,0
2,941549, Note_on_c,0,73,80
2,941553, Note_on_c,0,40,67
2,941553, Note_on_c,0,52,75
2,941581, Control_c,0,64,56
2,941593, Control_c,0,64,127
2,941605, Note_on_c,0,52,0
2,941605, Note_on_c,0,40,0
2,941633, Note_on_c,0,73,0
2,941633, Note_on_c,0,78,0
2,941657, Note_on_c,0,70,74
2,941761, Note_on_c,0,66,64
2,941809, Note_on_c,0,70,0
2,941833, Note_on_c,0,66,0
2,941893, Control_c,0,64,40
2,941901, Note_on_c,0,77,100
2,941901, Note_on_c,0,65,88
2,941901, Note_on_c,0,70,71
2,941901, Control_c,0,64,0
2,941909, Note_on_c,0,74,78
2,941917, Note_on_c,0,58,71
2,941921, Note_on_c,0,46,67
2,941925, Note_on_c,0,50,70
2,941925, Note_on_c,0,53,67
2,941953, Note_on_c,0,53,0
2,941957, Note_on_c,0,65,0
2,941957, Control_c,0,64,40
2,941965, Note_on_c,0,46,0
2,941969, Note_on_c,0,58,0
2,941969, Note_on_c,0,50,0
2,941973, Control_c,0,64,0
2,941981, Note_on_c,0,70,0
2,941981, Note_on_c,0,74,0
2,941989, Note_on_c,0,77,0
2,945029, Note_on_c,0,57,82
2,945029, Note_on_c,0,45,78
2,945029, Note_on_c,0,33,72
2,945089, Note_on_c,0,45,0
2,945093, Note_on_c,0,33,0
2,945105, Note_on_c,0,57,0
2,945197, Note_on_c,0,46,79
2,945197, Note_on_c,0,58,83
2,945197, Note_on_c,0,34,74
2,945237, Note_on_c,0,46,0
2,945249, Note_on_c,0,58,0
2,945265, Note_on_c,0,34,0
2,945365, Note_on_c,0,49,83
2,945365, Note_on_c,0,61,84
2,945365, Note_on_c,0,37,71
2,945417, Note_on_c,0,49,0
2,945421, Note_on_c,0,37,0
2,945453, Note_on_c,0,61,0
2,945537, Note_on_c,0,50,86
2,945541, Note_on_c,0,62,87
2,945541, Note_on_c,0,38,74
2,945593, Note_on_c,0,50,0
2,945601, Note_on_c,0,62,0
2,945625, Note_on_c,0,38,0
2,945705, Note_on_c,0,61,84
2,945705, Note_on_c,0,49,86
2,945705, Note_on_c,0,37,74
2,945777, Note_on_c,0,49,0
2,945789, Note_on_c,0,37,0
2,945789, Note_on_c,0,61,0
2,945865, Note_on_c,0,50,84
2,945869, Note_on_c,0,62,88
2,945877, Note_on_c,0,38,74
2,945925, Note_on_c,0,50,0
2,945945, Note_on_c,0,62,0
2,945953, Note_on_c,0,38,0
2,946033, Note_on_c,0,51,86
2,946033, Note_on_c,0,63,84
2,946033, Note_on_c,0,39,73
2,946105, Note_on_c,0,51,0
2,946117, Note_on_c,0,39,0
2,946117, Note_on_c,0,63,0
2,946209, Note_on_c,0,65,91
2,946209, Note_on_c,0,53,87
2,946213, Note_on_c,0,41,73
2,946265, Note_on_c,0,53,0
2,946277, Note_on_c,0,65,0
2,946285, Note_on_c,0,41,0
2,946369, Note_on_c,0,64,99
2,946369, Note_on_c,0,52,89
2,946373, Note_on_c,0,40,75
2,946421, Note_on_c,0,52,0
2,946437, Note_on_c,0,64,0
2,946441, Note_on_c,0,40,0
2,946533, Note_on_c,0,53,83
2,946537, Note_on_c,0,41,76
2,946541, Note_on_c,0,65,97
2,946581, Note_on_c,0,53,0
2,946601, Note_on_c,0,65,0
2,946601, Note_on_c,0,41,0
2,946701, Note_on_c,0,45,89
2,946705, Note_on_c,0,57,88
2,946709, Note_on_c,0,69,88
2,946741, Note_on_c,0,33,71
2,946753, Note_on_c,0,69,0
2,946753, Note_on_c,0,57,0
2,946757, Note_on_c,0,45,0
2,946769, Note_on_c,0,33,0
2,946873, Note_on_c,0,70,95
2,946873, Note_on_c,0,58,85
2,946873, Note_on_c,0,46,84
2,946881, Note_on_c,0,34,73
2,946925, Note_on_c,0,46,0
2,946929, Note_on_c,0,58,0
2,946933, Note_on_c,0,34,0
2,946949, Note_on_c,0,70,0
2,947037, Note_on_c,0,69,99
2,947037, Note_on_c,0,57,87
2,947037, Note_on_c,0,45,78
2,947037, Note_on_c,0,33,74
2,947065, Note_on_c,0,45,0
2,947069, Note_on_c,0,33,0
2,947093, Note_on_c,0,57,0
2,947097, Note_on_c,0,69,0
2,947201, Note_on_c,0,70,90
2,947205, Note_on_c,0,58,85
2,947205, Note_on_c,0,34,73
2,947205, Note_on_c,0,46,81
2,947253, Note_on_c,0,46,0
2,947257, Note_on_c,0,34,0
2,947261, Note_on_c,0,58,0
2,947261, Note_on_c,0,70,0
2,947361, Note_on_c,0,61,86
2,947365, Note_on_c,0,73,88
2,947365, Note_on_c,0,49,85
2,947365, Note_on_c,0,37,75
2,947405, Note_on_c,0,49,0
2,947417, Note_on_c,0,37,0
2,947429, Note_on_c,0,61,0
2,947445, Note_on_c,0,73,0
2,947529, Note_on_c,0,62,84
2,947529, Note_on_c,0,74,96
2,947541, Note_on_c,0,50,80
2,947549, Note_on_c,0,38,74
2,947585, Note_on_c,0,62,0
2,947597, Note_on_c,0,74,0
2,947597, Note_on_c,0,50,0
2,947597, Note_on_c,0,38,0
2,947693, Note_on_c,0,73,91
2,947693, Note_on_c,0,61,79
2,947701, Note_on_c,0,49,83
2,947705, Note_on_c,0,37,74
2,947749, Note_on_c,0,37,0
2,947749, Note_on_c,0,49,0
2,947761, Note_on_c,0,61,0
2,947773, Note_on_c,0,73,0
2,947857, Note_on_c,0,74,96
2,947857, Note_on_c,0,62,84
2,947869, Note_on_c,0,38,74
2,947869, Note_on_c,0,50,78
2,947893, Note_on_c,0,50,0
2,947893, Note_on_c,0,38,0
2,947913, Note_on_c,0,62,0
2,947925, Note_on_c,0,74,0
2,948013, Note_on_c,0,63,83
2,948017, Note_on_c,0,75,85
2,948021, Note_on_c,0,51,81
2,948021, Note_on_c,0,39,74
2,948069, Note_on_c,0,51,0
2,948077, Note_on_c,0,39,0
2,948085, Note_on_c,0,63,0
2,948101, Note_on_c,0,75,0
2,948181, Note_on_c,0,77,98
2,948181, Note_on_c,0,65,90
2,948181, Note_on_c,0,53,79
2,948189, Note_on_c,0,41,77
2,948229, Note_on_c,0,41,0
2,948237, Note_on_c,0,53,0
2,948237, Note_on_c,0,65,0
2,948245, Note_on_c,0,77,0
2,948337, Note_on_c,0,76,100
2,948341, Note_on_c,0,64,90
2,948349, Note_on_c,0,52,76
2,948349, Note_on_c,0,40,74
2,948397, Note_on_c,0,40,0
2,948397, Note_on_c,0,64,0
2,948401, Note_on_c,0,76,0
2,948409, Note_on_c,0,52,0
2,948501, Note_on_c,0,77,97
2,948505, Note_on_c,0,65,85
2,948517, Note_on_c,0,53,75
2,948521, Note_on_c,0,41,75
2,948549, Note_on_c,0,41,0
2,948553, Note_on_c,0,53,0
2,948557, Note_on_c,0,65,0
2,948565, Note_on_c,0,77,0
2,948661, Note_on_c,0,69,90
2,948665, Note_on_c,0,81,97
2,948669, Note_on_c,0,57,75
2,948677, Note_on_c,0,45,79
2,948705, Note_on_c,0,45,0
2,948717, Note_on_c,0,69,0
2,948729, Note_on_c,0,57,0
2,948729, Note_on_c,0,81,0
2,948825, Note_on_c,0,82,91
2,948833, Note_on_c,0,70,90
2,948833, Note_on_c,0,58,73
2,948845, Note_on_c,0,46,77
2,948869, Note_on_c,0,46,0
2,948889, Note_on_c,0,58,0
2,948889, Note_on_c,0,70,0
2,948901, Note_on_c,0,82,0
2,948993, Note_on_c,0,81,92
2,948993, Note_on_c,0,69,85
2,949001, Note_on_c,0,57,72
2,949009, Note_on_c,0,45,76
2,949037, Note_on_c,0,45,0
2,949045, Note_on_c,0,69,0
2,949049, Note_on_c,0,81,0
2,949057, Note_on_c,0,57,0
2,949157, Note_on_c,0,82,90
2,949157, Note_on_c,0,70,87
2,949157, Note_on_c,0,58,77
2,949157, Note_on_c,0,46,76
2,949181, Note_on_c,0,58,0
2,949185, Note_on_c,0,46,0
2,949209, Note_on_c,0,70,0
2,949217, Note_on_c,0,82,0
2,949309, Note_on_c,0,85,92
2,949309, Note_on_c,0,73,92
2,949321, Note_on_c,0,49,78
2,949321, Note_on_c,0,61,74
2,949349, Note_on_c,0,49,0
2,949361, Note_on_c,0,61,0
2,949381, Note_on_c,0,73,0
2,949405, Note_on_c,0,85,0
2,949485, Note_on_c,0,86,98
2,949489, Note_on_c,0,74,93
2,949493, Note_on_c,0,50,84
2,949493, Note_on_c,0,62,78
2,949541, Note_on_c,0,74,0
2,949549, Note_on_c,0,62,0
2,949549, Note_on_c,0,50,0
2,949557, Note_on_c,0,86,0
2,949649, Note_on_c,0,75,88
2,949649, Note_on_c,0,87,96
2,949653, Note_on_c,0,63,72
2,949657, Note_on_c,0,51,81
2,949693, Note_on_c,0,51,0
2,949701, Note_on_c,0,63,0
2,949717, Note_on_c,0,75,0
2,949733, Note_on_c,0,87,0
2,949813, Note_on_c,0,88,97
2,949813, Note_on_c,0,76,92
2,949817, Note_on_c,0,52,82
2,949821, Note_on_c,0,64,76
2,949861, Note_on_c,0,76,0
2,949865, Note_on_c,0,52,0
2,949869, Note_on_c,0,64,0
2,949877, Note_on_c,0,88,0
2,949969, Note_on_c,0,89,101
2,949969, Note_on_c,0,77,90
2,949973, Note_on_c,0,65,73
2,949985, Note_on_c,0,53,83
2,950013, Note_on_c,0,53,0
2,950017, Note_on_c,0,77,0
2,950033, Note_on_c,0,65,0
2,950033, Note_on_c,0,89,0
2,950161, Note_on_c,0,94,106
2,950161, Note_on_c,0,82,93
2,950169, Note_on_c,0,70,85
2,950173, Note_on_c,0,58,86
2,950189, Control_c,0,64,72
2,950201, Note_on_c,0,82,0
2,950205, Note_on_c,0,94,0
2,950209, Control_c,0,64,127
2,950217, Note_on_c,0,70,0
2,950217, Note_on_c,0,58,0
2,950533, Control_c,0,64,104
2,950545, Control_c,0,64,72
2,950561, Control_c,0,64,40
2,950577, Control_c,0,64,0
2,950673, Note_on_c,0,46,74
2,950729, Note_on_c,0,46,0
2,950729, Note_on_c,0,53,54
2,950797, Control_c,0,64,56
2,950801, Note_on_c,0,58,47
2,950809, Note_on_c,0,82,91
2,950809, Note_on_c,0,70,86
2,950809, Control_c,0,64,104
2,950825, Note_on_c,0,74,80
2,950825, Control_c,0,64,127
2,950829, Note_on_c,0,77,79
2,950837, Note_on_c,0,53,0
2,950841, Note_on_c,0,62,81
2,950853, Note_on_c,0,74,0
2,950853, Note_on_c,0,77,0
2,950861, Note_on_c,0,70,0
2,950877, Note_on_c,0,58,0
2,950897, Note_on_c,0,62,0
2,950897, Note_on_c,0,82,0
2,951229, Control_c,0,64,88
2,951245, Control_c,0,64,56
2,951261, Control_c,0,64,0
2,951333, Note_on_c,0,46,74
2,951393, Note_on_c,0,53,66
2,951401, Note_on_c,0,46,0
2,951401, Control_c,0,64,40
2,951417, Control_c,0,64,88
2,951433, Control_c,0,64,127
2,951457, Note_on_c,0,58,54
2,951501, Note_on_c,0,82,93
2,951501, Note_on_c,0,70,87
2,951513, Note_on_c,0,74,84
2,951513, Note_on_c,0,62,70
2,951513, Note_on_c,0,77,81
2,951517, Note_on_c,0,53,0
2,951537, Note_on_c,0,74,0
2,951541, Note_on_c,0,77,0
2,951545, Note_on_c,0,58,0
2,951553, Note_on_c,0,70,0
2,951553, Note_on_c,0,62,0
2,951577, Note_on_c,0,82,0
2,951957, Control_c,0,64,40
2,951973, Control_c,0,64,0
2,952001, Note_on_c,0,46,72
2,952057, Note_on_c,0,53,69
2,952065, Note_on_c,0,46,0
2,952081, Control_c,0,64,24
2,952097, Control_c,0,64,104
2,952113, Control_c,0,64,127
2,952141, Note_on_c,0,58,63
2,952177, Note_on_c,0,82,91
2,952177, Note_on_c,0,70,81
2,952181, Note_on_c,0,62,72
2,952185, Note_on_c,0,53,0
2,952189, Note_on_c,0,74,81
2,952189, Note_on_c,0,77,80
2,952213, Note_on_c,0,74,0
2,952217, Note_on_c,0,77,0
2,952225, Note_on_c,0,58,0
2,952229, Note_on_c,0,70,0
2,952241, Note_on_c,0,62,0
2,952261, Note_on_c,0,82,0
2,952669, Control_c,0,64,56
2,952685, Control_c,0,64,0
2,952705, Note_on_c,0,46,70
2,952737, Note_on_c,0,53,63
2,952769, Note_on_c,0,46,0
2,952793, Control_c,0,64,56
2,952809, Control_c,0,64,127
2,952813, Note_on_c,0,58,62
2,952873, Note_on_c,0,53,0
2,952877, Note_on_c,0,82,96
2,952877, Note_on_c,0,70,85
2,952881, Note_on_c,0,62,73
2,952889, Note_on_c,0,77,90
2,952889, Note_on_c,0,74,82
2,952913, Note_on_c,0,74,0
2,952929, Note_on_c,0,58,0
2,952929, Note_on_c,0,62,0
2,952933, Note_on_c,0,70,0
2,952957, Note_on_c,0,77,0
2,952965, Note_on_c,0,82,0
2,953213, Control_c,0,64,104
2,953229, Control_c,0,64,24
2,953245, Control_c,0,64,0
2,953249, Note_on_c,0,82,95
2,953257, Note_on_c,0,70,86
2,953261, Note_on_c,0,63,72
2,953261, Note_on_c,0,75,77
2,953269, Note_on_c,0,79,82
2,953273, Note_on_c,0,51,73
2,953273, Note_on_c,0,58,60
2,953277, Note_on_c,0,55,63
2,953305, Note_on_c,0,55,0
2,953317, Control_c,0,64,40
2,953329, Note_on_c,0,63,0
2,953329, Note_on_c,0,70,0
2,953333, Note_on_c,0,58,0
2,953337, Control_c,0,64,104
2,953341, Note_on_c,0,75,0
2,953353, Note_on_c,0,79,0
2,953353, Control_c,0,64,127
2,953365, Note_on_c,0,82,0
2,953369, Note_on_c,0,51,0
2,953565, Note_on_c,0,46,73
2,953613, Note_on_c,0,53,64
2,953617, Control_c,0,64,104
2,953629, Note_on_c,0,46,0
2,953633, Control_c,0,64,24
2,953645, Control_c,0,64,0
2,953673, Note_on_c,0,58,54
2,953673, Note_on_c,0,82,95
2,953677, Note_on_c,0,70,85
2,953689, Note_on_c,0,74,86
2,953697, Note_on_c,0,77,84
2,953733, Note_on_c,0,62,82
2,953741, Control_c,0,64,72
2,953749, Note_on_c,0,70,0
2,953753, Control_c,0,64,127
2,953765, Note_on_c,0,74,0
2,953765, Note_on_c,0,53,0
2,953773, Note_on_c,0,77,0
2,953777, Note_on_c,0,82,0
2,953793, Note_on_c,0,58,0
2,953825, Note_on_c,0,62,0
2,954549, Note_on_c,0,58,97
2,954569, Note_on_c,0,46,78
2,954569, Note_on_c,0,34,81
2,954605, Control_c,0,64,72
2,954621, Control_c,0,64,0
2,954761, Control_c,0,64,127
2,954825, Note_on_c,0,34,0
2,954829, Note_on_c,0,46,0
2,954893, Note_on_c,0,58,0
2,955581, Control_c,0,64,104
2,955597, Control_c,0,64,72
2,955613, Control_c,0,64,40
2,955629, Control_c,0,64,0
2,956460, Control_c,0,121,0
2,956460, End_track,,,
3,0, Start_track,,,
3,0, MIDI_port,0,,
3,0, Title_t," ""Fr Horn""",,
3,0, Control_c,1,0,0
3,0, Control_c,1,32,0
3,0, Program_c,1,60,
3,0, Control_c,1,7,111
3,0, Control_c,1,10,90
3,1988, Note_on_c,1,65,100
3,2124, Note_on_c,1,65,0
3,2244, Note_on_c,1,61,100
3,2396, Note_on_c,1,61,0
3,2492, Control_c,1,91,127
3,2492, Note_on_c,1,60,100
3,2628, Note_on_c,1,60,0
3,2788, Note_on_c,1,58,100
3,3344, Note_on_c,1,58,0
3,3356, Note_on_c,1,70,100
3,3356, Note_on_c,1,58,100
3,3580, Note_on_c,1,58,0
3,3580, Note_on_c,1,70,0
3,3632, Note_on_c,1,65,100
3,3824, Note_on_c,1,65,0
3,3872, Note_on_c,1,61,100
3,3996, Note_on_c,1,61,0
3,4112, Note_on_c,1,60,100
3,4248, Note_on_c,1,60,0
3,4392, Note_on_c,1,58,100
3,4908, Note_on_c,1,70,100
3,4908, Note_on_c,1,58,100
3,4972, Note_on_c,1,58,0
3,5140, Note_on_c,1,70,0
3,5140, Note_on_c,1,58,0
3,5144, Note_on_c,1,65,100
3,5340, Note_on_c,1,65,0
3,5396, Note_on_c,1,61,100
3,5520, Note_on_c,1,61,0
3,5632, Note_on_c,1,60,100
3,5772, Note_on_c,1,60,0
3,5888, Note_on_c,1,58,100
3,6344, Control_c,1,11,88
3,6392, Note_on_c,1,58,0
3,6432, Note_on_c,1,70,88
3,6432, Note_on_c,1,58,80
3,6936, Note_on_c,1,58,0
3,6936, Note_on_c,1,70,0
3,6968, Note_on_c,1,68,89
3,6968, Note_on_c,1,56,80
3,7472, Note_on_c,1,56,0
3,7472, Note_on_c,1,68,0
3,7528, Note_on_c,1,66,85
3,7528, Note_on_c,1,54,80
3,8032, Note_on_c,1,54,0
3,8032, Note_on_c,1,66,0
3,8088, Note_on_c,1,67,85
3,8088, Note_on_c,1,55,80
3,8622, Note_on_c,1,55,0
3,8622, Note_on_c,1,67,0
3,8672, Note_on_c,1,63,92
3,8672, Note_on_c,1,51,80
3,9226, Note_on_c,1,51,0
3,9226, Note_on_c,1,63,0
3,9316, Note_on_c,1,68,80
3,9316, Note_on_c,1,56,80
3,9820, Note_on_c,1,56,0
3,9820, Note_on_c,1,68,0
3,11137, Control_c,1,11,75
3,11584, Note_on_c,1,56,70
3,11584, Note_on_c,1,53,70
3,16282, Note_on_c,1,53,0
3,16282, Note_on_c,1,56,0
3,16288, Note_on_c,1,58,70
3,16288, Note_on_c,1,54,70
3,19819, Note_on_c,1,54,0
3,19819, Note_on_c,1,58,0
3,19824, Note_on_c,1,60,70
3,19824, Note_on_c,1,56,70
3,23310, Note_on_c,1,56,0
3,23310, Note_on_c,1,60,0
3,23316, Note_on_c,1,61,70
3,23316, Note_on_c,1,56,70
3,24454, Note_on_c,1,56,0
3,24454, Note_on_c,1,61,0
3,24456, Note_on_c,1,61,70
3,24456, Note_on_c,1,56,70
3,25054, Note_on_c,1,56,0
3,25054, Note_on_c,1,61,0
3,25056, Note_on_c,1,56,70
3,25056, Note_on_c,1,60,70
3,26782, Note_on_c,1,60,0
3,26782, Note_on_c,1,56,0
3,26784, Note_on_c,1,61,70
3,26784, Note_on_c,1,56,70
3,28470, Note_on_c,1,56,0
3,28470, Note_on_c,1,61,0
3,28472, Note_on_c,1,56,70
3,28472, Note_on_c,1,61,70
3,30248, Note_on_c,1,61,0
3,30248, Note_on_c,1,56,0
3,30252, Note_on_c,1,61,70
3,30252, Note_on_c,1,63,70
3,30252, Note_on_c,1,58,70
3,32018, Note_on_c,1,58,0
3,32018, Note_on_c,1,63,0
3,32018, Note_on_c,1,61,0
3,32024, Note_on_c,1,58,70
3,32024, Note_on_c,1,60,70
3,32024, Note_on_c,1,66,70
3,33850, Note_on_c,1,66,0
3,33850, Note_on_c,1,60,0
3,33850, Note_on_c,1,58,0
3,33852, Note_on_c,1,57,70
3,33852, Note_on_c,1,60,70
3,33852, Note_on_c,1,65,70
3,34401, Note_on_c,1,65,0
3,34401, Note_on_c,1,60,0
3,34401, Note_on_c,1,57,0
3,34406, Note_on_c,1,58,70
3,34406, Note_on_c,1,56,70
3,34406, Note_on_c,1,62,70
3,34950, Note_on_c,1,62,0
3,34950, Note_on_c,1,56,0
3,34950, Note_on_c,1,58,0
3,34956, Note_on_c,1,63,70
3,34956, Note_on_c,1,55,70
3,34956, Note_on_c,1,58,70
3,35505, Note_on_c,1,58,0
3,35505, Note_on_c,1,55,0
3,35505, Note_on_c,1,63,0
3,35512, Note_on_c,1,54,70
3,35512, Note_on_c,1,56,70
3,35512, Note_on_c,1,60,70
3,36026, Note_on_c,1,60,0
3,36026, Note_on_c,1,56,0
3,36026, Note_on_c,1,54,0
3,36032, Note_on_c,1,56,70
3,36032, Note_on_c,1,61,70
3,36032, Note_on_c,1,53,70
3,36466, Note_on_c,1,53,0
3,36466, Note_on_c,1,61,0
3,36466, Note_on_c,1,56,0
3,36468, Note_on_c,1,61,70
3,36468, Note_on_c,1,58,70
3,36468, Note_on_c,1,53,70
3,37082, Note_on_c,1,53,0
3,37082, Note_on_c,1,58,0
3,37082, Note_on_c,1,61,0
3,37089, Note_on_c,1,53,70
3,37089, Note_on_c,1,56,70
3,37089, Note_on_c,1,61,70
3,38611, Note_on_c,1,61,0
3,38611, Note_on_c,1,56,0
3,38611, Note_on_c,1,53,0
3,38616, Note_on_c,1,63,70
3,38616, Note_on_c,1,55,70
3,38616, Note_on_c,1,58,70
3,39664, Note_on_c,1,58,0
3,39664, Note_on_c,1,55,0
3,39664, Note_on_c,1,63,0
3,39668, Note_on_c,1,54,70
3,39668, Note_on_c,1,60,70
3,39668, Note_on_c,1,63,70
3,40192, Note_on_c,1,63,0
3,40192, Note_on_c,1,60,0
3,40192, Note_on_c,1,54,0
3,40196, Note_on_c,1,61,70
3,40196, Note_on_c,1,53,70
3,40745, Note_on_c,1,53,0
3,40745, Note_on_c,1,61,0
3,41836, Note_on_c,1,56,70
3,46858, Note_on_c,1,56,0
3,46860, Note_on_c,1,58,70
3,50232, Note_on_c,1,58,0
3,50240, Note_on_c,1,60,70
3,53562, Note_on_c,1,60,0
3,53568, Note_on_c,1,61,70
3,55106, Note_on_c,1,61,0
3,55116, Note_on_c,1,56,70
3,55116, Note_on_c,1,65,70
3,55116, Note_on_c,1,59,70
3,55500, Note_on_c,1,59,0
3,55500, Note_on_c,1,65,0
3,55500, Note_on_c,1,56,0
3,55614, Note_on_c,1,56,70
3,55614, Note_on_c,1,60,70
3,55614, Note_on_c,1,66,70
3,55998, Note_on_c,1,66,0
3,55998, Note_on_c,1,60,0
3,55998, Note_on_c,1,56,0
3,56576, Note_on_c,1,67,70
3,56576, Note_on_c,1,56,70
3,56576, Note_on_c,1,61,70
3,56960, Note_on_c,1,61,0
3,56960, Note_on_c,1,56,0
3,56960, Note_on_c,1,67,0
3,57006, Note_on_c,1,65,70
3,57006, Note_on_c,1,56,70
3,57006, Note_on_c,1,61,70
3,57390, Note_on_c,1,61,0
3,57390, Note_on_c,1,56,0
3,57390, Note_on_c,1,65,0
3,58016, Note_on_c,1,58,70
3,58016, Note_on_c,1,62,70
3,58016, Note_on_c,1,65,70
3,58400, Note_on_c,1,65,0
3,58400, Note_on_c,1,62,0
3,58400, Note_on_c,1,58,0
3,58498, Note_on_c,1,58,70
3,58498, Note_on_c,1,63,70
3,58882, Note_on_c,1,63,0
3,58882, Note_on_c,1,58,0
3,59432, Note_on_c,1,60,70
3,59432, Note_on_c,1,64,70
3,59432, Note_on_c,1,67,70
3,59816, Note_on_c,1,67,0
3,59816, Note_on_c,1,64,0
3,59816, Note_on_c,1,60,0
3,59916, Note_on_c,1,60,70
3,59916, Note_on_c,1,65,70
3,60300, Note_on_c,1,65,0
3,60300, Note_on_c,1,60,0
3,93814, Note_on_c,1,54,70
3,93814, Note_on_c,1,57,70
3,93814, Note_on_c,1,63,70
3,93864, Note_on_c,1,63,0
3,93864, Note_on_c,1,57,0
3,93864, Note_on_c,1,54,0
3,93894, Note_on_c,1,63,70
3,93894, Note_on_c,1,57,70
3,93894, Note_on_c,1,54,70
3,94124, Note_on_c,1,54,0
3,94124, Note_on_c,1,57,0
3,94124, Note_on_c,1,63,0
3,95758, Note_on_c,1,66,70
3,95758, Note_on_c,1,60,70
3,95758, Note_on_c,1,57,70
3,95808, Note_on_c,1,57,0
3,95808, Note_on_c,1,60,0
3,95808, Note_on_c,1,66,0
3,95838, Note_on_c,1,57,70
3,95838, Note_on_c,1,60,70
3,95838, Note_on_c,1,66,70
3,96068, Note_on_c,1,66,0
3,96068, Note_on_c,1,60,0
3,96068, Note_on_c,1,57,0
3,97718, Note_on_c,1,60,70
3,97718, Note_on_c,1,69,70
3,97718, Note_on_c,1,63,70
3,97768, Note_on_c,1,63,0
3,97768, Note_on_c,1,69,0
3,97768, Note_on_c,1,60,0
3,97798, Note_on_c,1,69,70
3,97798, Note_on_c,1,60,70
3,97798, Note_on_c,1,63,70
3,98028, Note_on_c,1,63,0
3,98028, Note_on_c,1,60,0
3,98028, Note_on_c,1,69,0
3,107518, Note_on_c,1,61,70
3,107518, Note_on_c,1,56,70
3,107518, Note_on_c,1,53,70
3,111058, Note_on_c,1,53,0
3,111058, Note_on_c,1,56,0
3,111058, Note_on_c,1,61,0
3,111058, Note_on_c,1,63,70
3,111058, Note_on_c,1,58,70
3,111058, Note_on_c,1,54,70
3,114622, Note_on_c,1,54,0
3,114622, Note_on_c,1,58,0
3,114622, Note_on_c,1,63,0
3,114622, Note_on_c,1,63,70
3,114622, Note_on_c,1,56,70
3,114622, Note_on_c,1,60,70
3,118174, Note_on_c,1,60,0
3,118174, Note_on_c,1,56,0
3,118174, Note_on_c,1,63,0
3,118174, Note_on_c,1,65,70
3,118174, Note_on_c,1,61,70
3,118174, Note_on_c,1,56,70
3,119326, Note_on_c,1,56,0
3,119326, Note_on_c,1,61,0
3,119326, Note_on_c,1,65,0
3,119326, Note_on_c,1,56,70
3,119326, Note_on_c,1,61,70
3,119326, Note_on_c,1,65,70
3,119930, Note_on_c,1,65,0
3,119930, Note_on_c,1,61,0
3,119930, Note_on_c,1,56,0
3,119932, Note_on_c,1,63,70
3,119932, Note_on_c,1,56,70
3,119932, Note_on_c,1,60,70
3,121154, Note_on_c,1,60,0
3,121154, Note_on_c,1,56,0
3,121154, Note_on_c,1,63,0
3,121162, Note_on_c,1,60,70
3,121162, Note_on_c,1,56,70
3,121162, Note_on_c,1,51,70
3,121786, Note_on_c,1,51,0
3,121786, Note_on_c,1,56,0
3,121786, Note_on_c,1,60,0
3,121786, Note_on_c,1,61,70
3,121786, Note_on_c,1,53,70
3,121786, Note_on_c,1,56,70
3,123587, Note_on_c,1,56,0
3,123587, Note_on_c,1,53,0
3,123587, Note_on_c,1,61,0
3,123594, Note_on_c,1,53,70
3,123594, Note_on_c,1,61,70
3,123594, Note_on_c,1,56,70
3,125370, Note_on_c,1,56,0
3,125370, Note_on_c,1,61,0
3,125370, Note_on_c,1,53,0
3,125374, Note_on_c,1,63,70
3,125374, Note_on_c,1,58,70
3,125374, Note_on_c,1,61,70
3,127110, Note_on_c,1,61,0
3,127110, Note_on_c,1,58,0
3,127110, Note_on_c,1,63,0
3,127122, Note_on_c,1,63,70
3,127122, Note_on_c,1,60,70
3,127122, Note_on_c,1,58,70
3,128848, Note_on_c,1,58,0
3,128848, Note_on_c,1,60,0
3,128848, Note_on_c,1,63,0
3,128854, Note_on_c,1,63,70
3,128854, Note_on_c,1,57,70
3,128854, Note_on_c,1,60,70
3,129448, Note_on_c,1,60,0
3,129448, Note_on_c,1,57,0
3,129448, Note_on_c,1,63,0
3,129454, Note_on_c,1,62,70
3,129454, Note_on_c,1,58,70
3,129454, Note_on_c,1,56,70
3,130058, Note_on_c,1,56,0
3,130058, Note_on_c,1,58,0
3,130058, Note_on_c,1,62,0
3,130062, Note_on_c,1,63,70
3,130062, Note_on_c,1,55,70
3,130062, Note_on_c,1,58,70
3,130670, Note_on_c,1,58,0
3,130670, Note_on_c,1,55,0
3,130670, Note_on_c,1,63,0
3,130674, Note_on_c,1,60,70
3,130674, Note_on_c,1,56,70
3,130674, Note_on_c,1,54,70
3,131268, Note_on_c,1,54,0
3,131268, Note_on_c,1,56,0
3,131268, Note_on_c,1,60,0
3,131274, Note_on_c,1,53,70
3,131274, Note_on_c,1,56,70
3,131274, Note_on_c,1,61,70
3,131846, Note_on_c,1,61,0
3,131846, Note_on_c,1,56,0
3,131846, Note_on_c,1,53,0
3,131850, Note_on_c,1,61,70
3,131850, Note_on_c,1,53,70
3,131850, Note_on_c,1,58,70
3,132444, Note_on_c,1,58,0
3,132444, Note_on_c,1,53,0
3,132444, Note_on_c,1,61,0
3,132450, Note_on_c,1,61,70
3,132450, Note_on_c,1,56,70
3,132450, Note_on_c,1,53,70
3,134230, Note_on_c,1,53,0
3,134230, Note_on_c,1,56,0
3,134230, Note_on_c,1,61,0
3,134230, Note_on_c,1,63,70
3,134230, Note_on_c,1,55,70
3,134230, Note_on_c,1,58,70
3,134792, Note_on_c,1,58,0
3,134792, Note_on_c,1,55,0
3,134792, Note_on_c,1,63,0
3,134794, Note_on_c,1,63,70
3,134794, Note_on_c,1,55,70
3,134794, Note_on_c,1,58,70
3,134794, Note_on_c,1,51,70
3,135378, Note_on_c,1,51,0
3,135378, Note_on_c,1,63,0
3,135378, Note_on_c,1,55,0
3,135378, Note_on_c,1,58,0
3,135390, Note_on_c,1,63,70
3,135390, Note_on_c,1,54,70
3,135390, Note_on_c,1,56,70
3,135390, Note_on_c,1,51,70
3,135998, Note_on_c,1,51,0
3,135998, Note_on_c,1,63,0
3,135998, Note_on_c,1,54,0
3,135998, Note_on_c,1,56,0
3,136002, Note_on_c,1,61,70
3,136002, Note_on_c,1,56,70
3,136002, Note_on_c,1,53,70
3,136002, Note_on_c,1,49,70
3,136590, Note_on_c,1,56,70
3,136606, Note_on_c,1,56,0
3,136606, Note_on_c,1,53,0
3,136606, Note_on_c,1,49,0
3,136606, Note_on_c,1,61,0
3,137872, Note_on_c,1,56,0
3,137872, Note_on_c,1,59,70
3,139518, Note_on_c,1,59,0
3,139520, Note_on_c,1,61,70
3,141206, Note_on_c,1,61,0
3,141212, Note_on_c,1,60,70
3,142868, Note_on_c,1,60,0
3,142876, Note_on_c,1,56,70
3,144532, Note_on_c,1,56,0
3,151336, Note_on_c,1,65,70
3,151336, Note_on_c,1,53,70
3,152992, Note_on_c,1,53,0
3,152992, Note_on_c,1,65,0
3,154716, Note_on_c,1,65,70
3,154716, Note_on_c,1,53,70
3,156372, Note_on_c,1,53,0
3,156372, Note_on_c,1,65,0
3,158168, Note_on_c,1,53,70
3,158168, Note_on_c,1,65,70
3,159824, Note_on_c,1,65,0
3,159824, Note_on_c,1,53,0
3,161528, Note_on_c,1,65,70
3,161528, Note_on_c,1,53,70
3,163184, Note_on_c,1,53,0
3,163184, Note_on_c,1,65,0
3,163201, Control_c,1,11,70
3,163284, Note_on_c,1,68,70
3,163284, Note_on_c,1,65,70
3,166501, Note_on_c,1,65,0
3,166501, Note_on_c,1,68,0
3,166508, Note_on_c,1,67,70
3,166508, Note_on_c,1,65,70
3,168264, Note_on_c,1,65,0
3,168264, Note_on_c,1,67,0
3,168268, Note_on_c,1,67,70
3,168268, Note_on_c,1,64,70
3,169136, Note_on_c,1,64,0
3,169136, Note_on_c,1,67,0
3,177696, Note_on_c,1,69,70
3,177696, Note_on_c,1,65,70
3,177696, Note_on_c,1,48,70
3,181302, Note_on_c,1,48,0
3,181302, Note_on_c,1,65,0
3,181302, Note_on_c,1,69,0
3,181308, Note_on_c,1,48,70
3,181308, Note_on_c,1,69,70
3,181308, Note_on_c,1,65,70
3,184914, Note_on_c,1,65,0
3,184914, Note_on_c,1,69,0
3,184914, Note_on_c,1,48,0
3,184936, Note_on_c,1,65,70
3,184936, Note_on_c,1,69,70
3,184936, Note_on_c,1,48,70
3,188542, Note_on_c,1,48,0
3,188542, Note_on_c,1,69,0
3,188542, Note_on_c,1,65,0
3,199829, Note_on_c,1,69,80
3,199829, Note_on_c,1,65,80
3,199979, Note_on_c,1,65,0
3,199979, Note_on_c,1,69,0
3,204389, Note_on_c,1,72,80
3,204389, Note_on_c,1,68,80
3,204539, Note_on_c,1,68,0
3,204539, Note_on_c,1,72,0
3,206681, Note_on_c,1,55,80
3,206681, Note_on_c,1,67,80
3,206831, Note_on_c,1,67,0
3,206831, Note_on_c,1,55,0
3,235153, Note_on_c,1,60,80
3,235153, Note_on_c,1,67,80
3,235243, Note_on_c,1,67,0
3,235243, Note_on_c,1,60,0
3,235243, Note_on_c,1,60,80
3,235243, Note_on_c,1,67,80
3,235333, Note_on_c,1,67,0
3,235333, Note_on_c,1,60,0
3,235518, Note_on_c,1,60,80
3,235518, Note_on_c,1,67,80
3,235608, Note_on_c,1,67,0
3,235608, Note_on_c,1,60,0
3,235608, Note_on_c,1,60,80
3,235608, Note_on_c,1,67,80
3,235698, Note_on_c,1,67,0
3,235698, Note_on_c,1,60,0
3,235883, Note_on_c,1,67,80
3,235883, Note_on_c,1,60,80
3,235973, Note_on_c,1,60,0
3,235973, Note_on_c,1,67,0
3,235973, Note_on_c,1,67,80
3,235973, Note_on_c,1,60,80
3,236063, Note_on_c,1,60,0
3,236063, Note_on_c,1,67,0
3,236249, Note_on_c,1,67,80
3,236249, Note_on_c,1,60,80
3,236339, Note_on_c,1,60,0
3,236339, Note_on_c,1,67,0
3,236339, Note_on_c,1,67,80
3,236339, Note_on_c,1,60,80
3,236429, Note_on_c,1,60,0
3,236429, Note_on_c,1,67,0
3,237993, Note_on_c,1,65,80
3,237993, Note_on_c,1,60,80
3,238083, Note_on_c,1,60,0
3,238083, Note_on_c,1,65,0
3,238083, Note_on_c,1,65,80
3,238083, Note_on_c,1,60,80
3,238173, Note_on_c,1,60,0
3,238173, Note_on_c,1,65,0
3,238353, Note_on_c,1,65,80
3,238353, Note_on_c,1,60,80
3,238443, Note_on_c,1,60,0
3,238443, Note_on_c,1,65,0
3,238443, Note_on_c,1,65,80
3,238443, Note_on_c,1,60,80
3,238533, Note_on_c,1,60,0
3,238533, Note_on_c,1,65,0
3,238713, Note_on_c,1,65,80
3,238713, Note_on_c,1,60,80
3,238803, Note_on_c,1,60,0
3,238803, Note_on_c,1,65,0
3,238803, Note_on_c,1,65,80
3,238803, Note_on_c,1,60,80
3,238893, Note_on_c,1,60,0
3,238893, Note_on_c,1,65,0
3,239073, Note_on_c,1,65,80
3,239073, Note_on_c,1,60,80
3,239163, Note_on_c,1,60,0
3,239163, Note_on_c,1,65,0
3,239163, Note_on_c,1,65,80
3,239163, Note_on_c,1,60,80
3,239253, Note_on_c,1,60,0
3,239253, Note_on_c,1,65,0
3,240097, Note_on_c,1,60,80
3,240097, Note_on_c,1,65,80
3,240187, Note_on_c,1,65,0
3,240187, Note_on_c,1,65,80
3,240197, Note_on_c,1,60,0
3,240277, Note_on_c,1,65,0
3,240441, Note_on_c,1,65,80
3,240531, Note_on_c,1,65,0
3,240531, Note_on_c,1,65,80
3,240621, Note_on_c,1,65,0
3,241453, Note_on_c,1,60,80
3,241453, Note_on_c,1,65,80
3,241543, Note_on_c,1,65,0
3,241543, Note_on_c,1,65,80
3,241553, Note_on_c,1,60,0
3,241633, Note_on_c,1,65,0
3,241797, Note_on_c,1,65,80
3,241887, Note_on_c,1,65,0
3,241887, Note_on_c,1,65,80
3,241977, Note_on_c,1,65,0
3,242825, Note_on_c,1,67,80
3,242825, Note_on_c,1,65,80
3,242915, Note_on_c,1,65,0
3,242915, Note_on_c,1,67,0
3,242915, Note_on_c,1,67,80
3,242915, Note_on_c,1,65,80
3,243005, Note_on_c,1,65,0
3,243005, Note_on_c,1,67,0
3,243159, Note_on_c,1,67,80
3,243159, Note_on_c,1,65,80
3,243249, Note_on_c,1,65,0
3,243249, Note_on_c,1,67,0
3,243249, Note_on_c,1,67,80
3,243249, Note_on_c,1,65,80
3,243339, Note_on_c,1,65,0
3,243339, Note_on_c,1,67,0
3,244205, Note_on_c,1,60,80
3,244205, Note_on_c,1,64,80
3,244205, Note_on_c,1,70,80
3,244295, Note_on_c,1,70,0
3,244295, Note_on_c,1,64,0
3,244295, Note_on_c,1,64,80
3,244295, Note_on_c,1,70,80
3,244305, Note_on_c,1,60,0
3,244385, Note_on_c,1,70,0
3,244385, Note_on_c,1,64,0
3,244571, Note_on_c,1,64,80
3,244571, Note_on_c,1,70,80
3,244661, Note_on_c,1,70,0
3,244661, Note_on_c,1,64,0
3,244661, Note_on_c,1,64,80
3,244661, Note_on_c,1,70,80
3,244751, Note_on_c,1,70,0
3,244751, Note_on_c,1,64,0
3,245597, Note_on_c,1,60,80
3,245597, Note_on_c,1,69,80
3,245597, Note_on_c,1,65,80
3,245687, Note_on_c,1,65,0
3,245687, Note_on_c,1,69,0
3,245687, Note_on_c,1,69,80
3,245687, Note_on_c,1,65,80
3,245697, Note_on_c,1,60,0
3,245777, Note_on_c,1,65,0
3,245777, Note_on_c,1,69,0
3,245929, Note_on_c,1,69,80
3,245929, Note_on_c,1,65,80
3,246019, Note_on_c,1,65,0
3,246019, Note_on_c,1,69,0
3,246019, Note_on_c,1,69,80
3,246019, Note_on_c,1,65,80
3,246109, Note_on_c,1,65,0
3,246109, Note_on_c,1,69,0
3,246261, Note_on_c,1,60,110
3,247029, Note_on_c,1,60,0
3,275733, Note_on_c,1,58,60
3,275733, Note_on_c,1,53,60
3,276003, Note_on_c,1,53,0
3,276003, Note_on_c,1,58,0
3,276074, Note_on_c,1,58,80
3,276074, Note_on_c,1,51,80
3,276748, Note_on_c,1,51,0
3,276748, Note_on_c,1,58,0
3,276756, Note_on_c,1,58,60
3,276756, Note_on_c,1,53,60
3,277056, Note_on_c,1,53,0
3,277056, Note_on_c,1,58,0
3,278345, Note_on_c,1,58,60
3,278645, Note_on_c,1,58,0
3,282390, Note_on_c,1,65,60
3,282390, Note_on_c,1,58,60
3,282794, Note_on_c,1,58,0
3,282794, Note_on_c,1,65,0
3,282810, Note_on_c,1,65,60
3,282810, Note_on_c,1,58,60
3,283494, Note_on_c,1,58,0
3,283494, Note_on_c,1,65,0
3,283526, Note_on_c,1,65,60
3,283526, Note_on_c,1,58,60
3,283904, Note_on_c,1,58,0
3,283904, Note_on_c,1,65,0
3,283906, Note_on_c,1,65,60
3,283906, Note_on_c,1,58,60
3,284284, Note_on_c,1,58,0
3,284284, Note_on_c,1,65,0
3,284310, Note_on_c,1,65,60
3,284310, Note_on_c,1,58,60
3,284994, Note_on_c,1,58,0
3,284994, Note_on_c,1,65,0
3,285010, Note_on_c,1,65,60
3,285010, Note_on_c,1,58,60
3,285388, Note_on_c,1,58,0
3,285388, Note_on_c,1,65,0
3,285394, Note_on_c,1,65,60
3,285394, Note_on_c,1,58,60
3,286162, Note_on_c,1,65,0
3,286166, Note_on_c,1,67,60
3,286544, Note_on_c,1,67,0
3,287614, Note_on_c,1,58,0
3,287650, Note_on_c,1,58,60
3,288374, Note_on_c,1,58,0
3,288386, Note_on_c,1,60,60
3,288736, Note_on_c,1,60,0
3,288802, Note_on_c,1,60,60
3,289152, Note_on_c,1,60,0
3,289214, Note_on_c,1,61,60
3,289214, Note_on_c,1,49,60
3,290366, Note_on_c,1,49,0
3,290366, Note_on_c,1,61,0
3,290378, Note_on_c,1,60,60
3,290728, Note_on_c,1,60,0
3,290750, Note_on_c,1,53,60
3,290750, Note_on_c,1,65,60
3,291100, Note_on_c,1,65,0
3,291100, Note_on_c,1,53,0
3,291490, Note_on_c,1,55,60
3,291840, Note_on_c,1,55,0
3,291862, Note_on_c,1,48,60
3,291862, Note_on_c,1,60,60
3,293032, Note_on_c,1,60,0
3,293032, Note_on_c,1,48,0
3,293038, Note_on_c,1,65,60
3,293388, Note_on_c,1,65,0
3,293498, Note_on_c,1,63,60
3,294366, Note_on_c,1,63,0
3,314662, Note_on_c,1,56,60
3,314662, Note_on_c,1,63,60
3,315356, Note_on_c,1,63,0
3,315356, Note_on_c,1,56,0
3,316050, Note_on_c,1,63,60
3,316050, Note_on_c,1,56,60
3,316744, Note_on_c,1,56,0
3,316744, Note_on_c,1,63,0
3,317458, Note_on_c,1,58,60
3,317458, Note_on_c,1,39,60
3,318152, Note_on_c,1,39,0
3,318152, Note_on_c,1,58,0
3,318866, Note_on_c,1,56,60
3,318866, Note_on_c,1,63,60
3,319560, Note_on_c,1,63,0
3,319560, Note_on_c,1,56,0
3,320306, Note_on_c,1,56,60
3,320306, Note_on_c,1,63,60
3,321000, Note_on_c,1,63,0
3,321000, Note_on_c,1,56,0
3,321722, Note_on_c,1,63,60
3,321722, Note_on_c,1,56,60
3,322416, Note_on_c,1,56,0
3,322416, Note_on_c,1,63,0
3,323158, Note_on_c,1,39,60
3,323158, Note_on_c,1,58,60
3,323852, Note_on_c,1,58,0
3,323852, Note_on_c,1,39,0
3,333010, Note_on_c,1,72,60
3,333010, Note_on_c,1,69,60
3,333414, Note_on_c,1,69,0
3,333414, Note_on_c,1,72,0
3,333422, Note_on_c,1,69,60
3,333422, Note_on_c,1,72,60
3,333826, Note_on_c,1,72,0
3,333826, Note_on_c,1,69,0
3,380161, Control_c,1,11,100
3,380614, Note_on_c,1,56,100
3,380614, Note_on_c,1,68,100
3,380764, Note_on_c,1,68,0
3,380764, Note_on_c,1,56,0
3,383272, Note_on_c,1,72,100
3,383272, Note_on_c,1,60,100
3,383422, Note_on_c,1,60,0
3,383422, Note_on_c,1,72,0
3,385920, Note_on_c,1,53,120
3,385920, Note_on_c,1,65,120
3,386070, Note_on_c,1,65,0
3,386070, Note_on_c,1,53,0
3,386566, Note_on_c,1,53,120
3,386566, Note_on_c,1,65,120
3,386716, Note_on_c,1,65,0
3,386716, Note_on_c,1,53,0
3,387194, Note_on_c,1,53,120
3,387194, Note_on_c,1,65,120
3,387344, Note_on_c,1,65,0
3,387344, Note_on_c,1,53,0
3,387850, Note_on_c,1,53,120
3,387850, Note_on_c,1,65,120
3,388000, Note_on_c,1,65,0
3,388000, Note_on_c,1,53,0
3,388522, Note_on_c,1,54,120
3,388522, Note_on_c,1,66,120
3,388672, Note_on_c,1,66,0
3,388672, Note_on_c,1,54,0
3,389290, Note_on_c,1,55,120
3,389290, Note_on_c,1,67,120
3,389440, Note_on_c,1,67,0
3,389440, Note_on_c,1,55,0
3,408577, Control_c,1,11,70
3,408622, Note_on_c,1,56,70
3,408622, Note_on_c,1,63,70
3,409326, Note_on_c,1,63,0
3,409326, Note_on_c,1,56,0
3,410068, Note_on_c,1,56,70
3,410068, Note_on_c,1,63,70
3,410772, Note_on_c,1,63,0
3,410772, Note_on_c,1,56,0
3,411518, Note_on_c,1,56,70
3,411518, Note_on_c,1,63,70
3,412222, Note_on_c,1,63,0
3,412222, Note_on_c,1,56,0
3,412958, Note_on_c,1,56,70
3,412958, Note_on_c,1,63,70
3,413662, Note_on_c,1,63,0
3,413662, Note_on_c,1,56,0
3,414410, Note_on_c,1,56,70
3,414410, Note_on_c,1,63,70
3,415114, Note_on_c,1,63,0
3,415114, Note_on_c,1,56,0
3,415846, Note_on_c,1,56,70
3,415846, Note_on_c,1,63,70
3,416550, Note_on_c,1,63,0
3,416550, Note_on_c,1,56,0
3,417312, Note_on_c,1,56,70
3,417312, Note_on_c,1,63,70
3,418016, Note_on_c,1,63,0
3,418016, Note_on_c,1,56,0
3,418786, Note_on_c,1,56,70
3,418786, Note_on_c,1,63,70
3,419490, Note_on_c,1,63,0
3,419490, Note_on_c,1,56,0
3,427009, Control_c,1,11,90
3,428324, Note_on_c,1,68,80
3,428644, Note_on_c,1,68,0
3,428666, Note_on_c,1,63,80
3,428986, Note_on_c,1,63,0
3,429008, Note_on_c,1,68,80
3,429328, Note_on_c,1,68,0
3,429350, Note_on_c,1,63,80
3,429670, Note_on_c,1,63,0
3,431060, Note_on_c,1,68,80
3,431380, Note_on_c,1,68,0
3,431402, Note_on_c,1,63,80
3,431722, Note_on_c,1,63,0
3,431744, Note_on_c,1,68,80
3,432064, Note_on_c,1,68,0
3,432086, Note_on_c,1,63,80
3,432406, Note_on_c,1,63,0
3,433154, Note_on_c,1,68,80
3,433474, Note_on_c,1,68,0
3,433494, Note_on_c,1,63,80
3,433814, Note_on_c,1,63,0
3,434558, Note_on_c,1,68,80
3,434878, Note_on_c,1,68,0
3,434910, Note_on_c,1,63,80
3,435230, Note_on_c,1,63,0
3,435457, Control_c,1,11,60
3,435590, Note_on_c,1,63,60
3,435590, Note_on_c,1,56,60
3,435590, Note_on_c,1,51,60
3,438278, Note_on_c,1,51,0
3,438278, Note_on_c,1,56,0
3,438278, Note_on_c,1,63,0
3,438298, Note_on_c,1,56,50
3,438298, Note_on_c,1,63,50
3,438298, Note_on_c,1,51,50
3,441854, Note_on_c,1,51,0
3,441854, Note_on_c,1,63,0
3,441854, Note_on_c,1,56,0
3,445299, Note_on_c,1,53,50
3,447603, Note_on_c,1,53,0
3,450355, Note_on_c,1,55,50
3,452659, Note_on_c,1,55,0
3,460783, Note_on_c,1,60,70
3,460783, Note_on_c,1,57,70
3,461413, Note_on_c,1,57,0
3,461413, Note_on_c,1,60,0
3,465839, Note_on_c,1,59,80
3,465839, Note_on_c,1,62,80
3,466469, Note_on_c,1,62,0
3,466469, Note_on_c,1,59,0
3,467713, Control_c,1,11,90
3,468051, Note_on_c,1,59,80
3,468361, Note_on_c,1,59,0
3,468367, Note_on_c,1,62,80
3,468677, Note_on_c,1,62,0
3,468683, Note_on_c,1,63,80
3,468993, Note_on_c,1,63,0
3,468999, Note_on_c,1,59,80
3,469309, Note_on_c,1,59,0
3,469315, Note_on_c,1,61,80
3,469625, Note_on_c,1,61,0
3,469631, Note_on_c,1,63,80
3,469941, Note_on_c,1,63,0
3,469947, Note_on_c,1,64,80
3,470233, Note_on_c,1,59,80
3,470257, Note_on_c,1,64,0
3,470543, Note_on_c,1,59,0
3,470895, Note_on_c,1,64,80
3,473065, Note_on_c,1,64,0
3,473117, Note_on_c,1,57,80
3,473427, Note_on_c,1,57,0
3,473433, Note_on_c,1,60,80
3,473743, Note_on_c,1,60,0
3,473749, Note_on_c,1,61,80
3,474059, Note_on_c,1,61,0
3,474065, Note_on_c,1,57,80
3,474375, Note_on_c,1,57,0
3,474381, Note_on_c,1,59,80
3,474691, Note_on_c,1,59,0
3,474697, Note_on_c,1,61,80
3,475007, Note_on_c,1,61,0
3,475013, Note_on_c,1,62,80
3,475299, Note_on_c,1,57,80
3,475323, Note_on_c,1,62,0
3,475609, Note_on_c,1,57,0
3,475777, Control_c,1,11,95
3,475961, Note_on_c,1,62,80
3,478499, Note_on_c,1,67,80
3,478499, Note_on_c,1,55,80
3,478883, Note_on_c,1,62,0
3,479437, Note_on_c,1,55,0
3,479437, Note_on_c,1,67,0
3,479447, Note_on_c,1,67,80
3,479447, Note_on_c,1,55,80
3,479526, Note_on_c,1,67,80
3,479526, Note_on_c,1,55,80
3,479596, Note_on_c,1,55,0
3,479596, Note_on_c,1,67,0
3,479647, Note_on_c,1,55,0
3,479647, Note_on_c,1,67,0
3,479763, Note_on_c,1,67,80
3,479763, Note_on_c,1,55,80
3,480701, Note_on_c,1,55,0
3,480701, Note_on_c,1,67,0
3,481039, Note_on_c,1,67,80
3,481039, Note_on_c,1,55,80
3,481977, Note_on_c,1,55,0
3,481977, Note_on_c,1,67,0
3,481987, Note_on_c,1,67,80
3,481987, Note_on_c,1,55,80
3,482066, Note_on_c,1,55,80
3,482066, Note_on_c,1,67,80
3,482136, Note_on_c,1,67,0
3,482136, Note_on_c,1,55,0
3,482187, Note_on_c,1,55,0
3,482187, Note_on_c,1,67,0
3,482303, Note_on_c,1,67,80
3,482303, Note_on_c,1,55,80
3,483241, Note_on_c,1,55,0
3,483241, Note_on_c,1,67,0
3,483577, Note_on_c,1,48,80
3,483577, Note_on_c,1,60,80
3,484209, Note_on_c,1,72,80
3,484515, Note_on_c,1,60,0
3,484515, Note_on_c,1,48,0
3,484525, Note_on_c,1,48,80
3,484525, Note_on_c,1,60,80
3,484604, Note_on_c,1,48,80
3,484604, Note_on_c,1,60,80
3,484674, Note_on_c,1,60,0
3,484674, Note_on_c,1,48,0
3,484725, Note_on_c,1,60,0
3,484725, Note_on_c,1,48,0
3,484809, Note_on_c,1,72,0
3,484841, Note_on_c,1,58,80
3,484841, Note_on_c,1,70,80
3,484841, Note_on_c,1,48,80
3,484841, Note_on_c,1,60,80
3,485151, Note_on_c,1,70,0
3,485151, Note_on_c,1,58,0
3,485167, Note_on_c,1,56,80
3,485167, Note_on_c,1,68,80
3,485477, Note_on_c,1,68,0
3,485477, Note_on_c,1,56,0
3,485483, Note_on_c,1,55,80
3,485483, Note_on_c,1,67,80
3,485779, Note_on_c,1,48,0
3,485779, Note_on_c,1,60,0
3,485793, Note_on_c,1,55,0
3,485793, Note_on_c,1,67,0
3,486115, Note_on_c,1,48,80
3,486115, Note_on_c,1,60,80
3,486747, Note_on_c,1,72,80
3,487053, Note_on_c,1,60,0
3,487053, Note_on_c,1,48,0
3,487057, Note_on_c,1,72,0
3,487063, Note_on_c,1,60,80
3,487063, Note_on_c,1,48,80
3,487142, Note_on_c,1,48,80
3,487142, Note_on_c,1,60,80
3,487212, Note_on_c,1,60,0
3,487212, Note_on_c,1,48,0
3,487263, Note_on_c,1,48,0
3,487263, Note_on_c,1,60,0
3,487379, Note_on_c,1,48,80
3,487379, Note_on_c,1,60,80
3,487379, Note_on_c,1,58,80
3,487379, Note_on_c,1,70,80
3,487689, Note_on_c,1,70,0
3,487689, Note_on_c,1,58,0
3,487705, Note_on_c,1,56,80
3,487705, Note_on_c,1,68,80
3,488015, Note_on_c,1,68,0
3,488015, Note_on_c,1,56,0
3,488021, Note_on_c,1,55,80
3,488021, Note_on_c,1,67,80
3,488317, Note_on_c,1,60,0
3,488317, Note_on_c,1,48,0
3,488331, Note_on_c,1,55,0
3,488331, Note_on_c,1,67,0
3,488337, Note_on_c,1,72,80
3,488337, Note_on_c,1,68,80
3,488647, Note_on_c,1,68,0
3,488647, Note_on_c,1,72,0
3,488653, Note_on_c,1,72,80
3,488653, Note_on_c,1,68,80
3,488963, Note_on_c,1,68,0
3,488963, Note_on_c,1,72,0
3,488969, Note_on_c,1,72,80
3,488969, Note_on_c,1,68,80
3,489279, Note_on_c,1,68,0
3,489279, Note_on_c,1,72,0
3,489285, Note_on_c,1,68,80
3,489285, Note_on_c,1,72,80
3,489595, Note_on_c,1,72,0
3,489595, Note_on_c,1,68,0
3,489601, Note_on_c,1,68,80
3,489601, Note_on_c,1,72,80
3,489911, Note_on_c,1,72,0
3,489911, Note_on_c,1,68,0
3,489917, Note_on_c,1,68,80
3,489917, Note_on_c,1,72,80
3,490227, Note_on_c,1,72,0
3,490227, Note_on_c,1,68,0
3,490243, Note_on_c,1,68,80
3,490243, Note_on_c,1,72,80
3,490553, Note_on_c,1,72,0
3,490553, Note_on_c,1,68,0
3,490559, Note_on_c,1,71,80
3,490559, Note_on_c,1,68,80
3,490869, Note_on_c,1,68,0
3,490869, Note_on_c,1,71,0
3,491137, Control_c,1,11,100
3,491192, Note_on_c,1,53,90
3,491192, Note_on_c,1,65,90
3,491992, Note_on_c,1,65,0
3,491992, Note_on_c,1,53,0
3,492458, Note_on_c,1,65,90
3,492458, Note_on_c,1,53,90
3,493258, Note_on_c,1,53,0
3,493258, Note_on_c,1,65,0
3,493407, Note_on_c,1,68,90
3,493407, Note_on_c,1,72,90
3,493707, Note_on_c,1,72,0
3,493707, Note_on_c,1,68,0
3,493723, Note_on_c,1,68,90
3,493723, Note_on_c,1,72,90
3,494023, Note_on_c,1,72,0
3,494023, Note_on_c,1,68,0
3,494039, Note_on_c,1,68,90
3,494039, Note_on_c,1,72,90
3,494339, Note_on_c,1,72,0
3,494339, Note_on_c,1,68,0
3,494355, Note_on_c,1,68,90
3,494355, Note_on_c,1,72,90
3,494655, Note_on_c,1,72,0
3,494655, Note_on_c,1,68,0
3,494671, Note_on_c,1,68,90
3,494671, Note_on_c,1,72,90
3,494971, Note_on_c,1,72,0
3,494971, Note_on_c,1,68,0
3,494987, Note_on_c,1,68,90
3,494987, Note_on_c,1,72,90
3,495287, Note_on_c,1,72,0
3,495287, Note_on_c,1,68,0
3,495313, Note_on_c,1,68,90
3,495313, Note_on_c,1,72,90
3,495613, Note_on_c,1,72,0
3,495613, Note_on_c,1,68,0
3,495629, Note_on_c,1,71,90
3,495629, Note_on_c,1,68,90
3,495929, Note_on_c,1,68,0
3,495929, Note_on_c,1,71,0
3,496262, Note_on_c,1,53,100
3,496262, Note_on_c,1,65,100
3,497062, Note_on_c,1,65,0
3,497062, Note_on_c,1,53,0
3,497528, Note_on_c,1,53,100
3,497528, Note_on_c,1,65,100
3,498328, Note_on_c,1,65,0
3,498328, Note_on_c,1,53,0
3,498794, Note_on_c,1,53,100
3,498794, Note_on_c,1,65,100
3,499594, Note_on_c,1,65,0
3,499594, Note_on_c,1,53,0
3,501326, Note_on_c,1,57,100
3,501326, Note_on_c,1,69,100
3,502126, Note_on_c,1,69,0
3,502126, Note_on_c,1,57,0
3,503858, Note_on_c,1,69,100
3,503858, Note_on_c,1,57,100
3,504658, Note_on_c,1,57,0
3,504658, Note_on_c,1,69,0
3,506386, Note_on_c,1,58,100
3,506386, Note_on_c,1,70,100
3,507186, Note_on_c,1,70,0
3,507186, Note_on_c,1,58,0
3,511442, Note_on_c,1,58,100
3,511442, Note_on_c,1,51,100
3,511442, Note_on_c,1,63,100
3,511642, Note_on_c,1,63,0
3,511642, Note_on_c,1,51,0
3,511642, Note_on_c,1,58,0
3,557185, Control_c,1,11,80
3,557385, Note_on_c,1,62,80
3,557385, Note_on_c,1,67,80
3,557385, Note_on_c,1,70,80
3,557835, Note_on_c,1,70,0
3,557835, Note_on_c,1,67,0
3,557835, Note_on_c,1,62,0
3,558382, Note_on_c,1,62,80
3,558382, Note_on_c,1,67,80
3,558382, Note_on_c,1,70,80
3,558832, Note_on_c,1,70,0
3,558832, Note_on_c,1,67,0
3,558832, Note_on_c,1,62,0
3,559365, Note_on_c,1,61,80
3,559365, Note_on_c,1,67,80
3,559365, Note_on_c,1,70,80
3,559815, Note_on_c,1,70,0
3,559815, Note_on_c,1,67,0
3,559815, Note_on_c,1,61,0
3,560365, Note_on_c,1,61,80
3,560365, Note_on_c,1,67,80
3,560365, Note_on_c,1,70,80
3,560815, Note_on_c,1,70,0
3,560815, Note_on_c,1,67,0
3,560815, Note_on_c,1,61,0
3,583698, Note_on_c,1,49,70
3,583698, Note_on_c,1,61,70
3,583698, Note_on_c,1,54,70
3,583698, Note_on_c,1,66,70
3,584636, Note_on_c,1,66,0
3,584636, Note_on_c,1,49,0
3,584636, Note_on_c,1,61,0
3,584636, Note_on_c,1,54,0
3,584838, Note_on_c,1,51,70
3,584838, Note_on_c,1,63,70
3,584838, Note_on_c,1,55,70
3,584838, Note_on_c,1,67,70
3,585776, Note_on_c,1,67,0
3,585776, Note_on_c,1,51,0
3,585776, Note_on_c,1,63,0
3,585776, Note_on_c,1,55,0
3,585978, Note_on_c,1,52,70
3,585978, Note_on_c,1,64,70
3,585978, Note_on_c,1,55,70
3,585978, Note_on_c,1,67,70
3,586916, Note_on_c,1,67,0
3,586916, Note_on_c,1,52,0
3,586916, Note_on_c,1,64,0
3,586916, Note_on_c,1,55,0
3,587118, Note_on_c,1,53,70
3,587118, Note_on_c,1,65,70
3,587118, Note_on_c,1,56,70
3,587118, Note_on_c,1,68,70
3,588056, Note_on_c,1,68,0
3,588056, Note_on_c,1,53,0
3,588056, Note_on_c,1,65,0
3,588056, Note_on_c,1,56,0
3,588828, Note_on_c,1,47,90
3,588828, Note_on_c,1,54,90
3,588828, Note_on_c,1,66,90
3,588828, Note_on_c,1,59,90
3,589028, Note_on_c,1,59,0
3,589028, Note_on_c,1,47,0
3,589028, Note_on_c,1,54,0
3,589028, Note_on_c,1,66,0
3,589968, Note_on_c,1,68,90
3,589968, Note_on_c,1,53,90
3,589968, Note_on_c,1,56,90
3,589968, Note_on_c,1,59,90
3,590168, Note_on_c,1,59,0
3,590168, Note_on_c,1,68,0
3,590168, Note_on_c,1,53,0
3,590168, Note_on_c,1,56,0
3,591108, Note_on_c,1,47,90
3,591108, Note_on_c,1,59,90
3,591108, Note_on_c,1,54,90
3,591108, Note_on_c,1,66,90
3,591308, Note_on_c,1,66,0
3,591308, Note_on_c,1,47,0
3,591308, Note_on_c,1,59,0
3,591308, Note_on_c,1,54,0
3,591963, Note_on_c,1,59,80
3,592163, Note_on_c,1,59,0
3,592248, Note_on_c,1,61,80
3,592448, Note_on_c,1,61,0
3,592533, Note_on_c,1,63,80
3,592733, Note_on_c,1,63,0
3,592818, Note_on_c,1,59,80
3,593018, Note_on_c,1,59,0
3,593103, Note_on_c,1,61,80
3,593303, Note_on_c,1,61,0
3,593388, Note_on_c,1,63,80
3,593588, Note_on_c,1,63,0
3,593673, Note_on_c,1,64,80
3,593873, Note_on_c,1,64,0
3,593958, Note_on_c,1,60,80
3,594158, Note_on_c,1,60,0
3,596775, Note_on_c,1,61,80
3,596975, Note_on_c,1,61,0
3,597060, Note_on_c,1,63,80
3,597260, Note_on_c,1,63,0
3,597345, Note_on_c,1,65,80
3,597545, Note_on_c,1,65,0
3,597630, Note_on_c,1,61,80
3,597830, Note_on_c,1,61,0
3,597915, Note_on_c,1,63,80
3,598115, Note_on_c,1,63,0
3,598200, Note_on_c,1,65,80
3,598400, Note_on_c,1,65,0
3,598485, Note_on_c,1,66,80
3,598685, Note_on_c,1,66,0
3,598770, Note_on_c,1,62,80
3,598970, Note_on_c,1,62,0
3,601544, Control_c,1,11,90
3,601587, Note_on_c,1,63,90
3,601787, Note_on_c,1,63,0
3,601872, Note_on_c,1,65,90
3,602072, Note_on_c,1,65,0
3,602157, Note_on_c,1,67,90
3,602357, Note_on_c,1,67,0
3,602442, Note_on_c,1,64,90
3,602642, Note_on_c,1,64,0
3,603995, Note_on_c,1,65,90
3,604195, Note_on_c,1,65,0
3,604280, Note_on_c,1,67,90
3,604480, Note_on_c,1,67,0
3,604565, Note_on_c,1,69,90
3,604765, Note_on_c,1,69,0
3,604801, Control_c,1,11,80
3,604850, Note_on_c,1,66,90
3,605050, Note_on_c,1,66,0
3,606728, Note_on_c,1,63,90
3,606728, Note_on_c,1,51,90
3,608314, Note_on_c,1,51,0
3,608314, Note_on_c,1,63,0
3,608320, Note_on_c,1,53,90
3,608320, Note_on_c,1,65,90
3,609856, Note_on_c,1,65,0
3,609856, Note_on_c,1,53,0
3,612400, Note_on_c,1,54,90
3,612400, Note_on_c,1,66,90
3,613852, Note_on_c,1,66,0
3,613852, Note_on_c,1,54,0
3,613892, Note_on_c,1,67,90
3,613892, Note_on_c,1,55,90
3,615344, Note_on_c,1,55,0
3,615344, Note_on_c,1,67,0
3,618036, Note_on_c,1,58,100
3,618036, Note_on_c,1,70,100
3,618216, Note_on_c,1,70,0
3,618216, Note_on_c,1,58,0
3,619688, Note_on_c,1,70,100
3,619688, Note_on_c,1,58,100
3,619868, Note_on_c,1,58,0
3,619868, Note_on_c,1,70,0
3,656641, Control_c,1,11,70
3,656716, Note_on_c,1,63,60
3,656716, Note_on_c,1,55,60
3,656986, Note_on_c,1,55,0
3,656986, Note_on_c,1,63,0
3,657057, Note_on_c,1,60,80
3,657057, Note_on_c,1,53,80
3,657731, Note_on_c,1,53,0
3,657731, Note_on_c,1,60,0
3,657739, Note_on_c,1,60,60
3,657739, Note_on_c,1,51,60
3,658039, Note_on_c,1,51,0
3,658039, Note_on_c,1,60,0
3,659328, Note_on_c,1,60,60
3,659328, Note_on_c,1,51,60
3,659628, Note_on_c,1,51,0
3,659628, Note_on_c,1,60,0
3,659669, Note_on_c,1,60,80
3,659669, Note_on_c,1,51,80
3,659969, Note_on_c,1,51,0
3,659969, Note_on_c,1,60,0
3,660349, Note_on_c,1,60,60
3,660349, Note_on_c,1,51,60
3,660649, Note_on_c,1,51,0
3,660649, Note_on_c,1,60,0
3,670138, Note_on_c,1,55,90
3,670498, Note_on_c,1,55,0
3,670502, Note_on_c,1,60,100
3,671002, Note_on_c,1,60,0
3,674954, Control_c,1,11,70
3,674954, Note_on_c,1,60,60
3,675176, Control_c,1,11,71
3,675398, Control_c,1,11,72
3,675620, Control_c,1,11,73
3,675842, Control_c,1,11,74
3,676065, Control_c,1,11,75
3,676287, Control_c,1,11,76
3,676509, Control_c,1,11,77
3,676731, Control_c,1,11,78
3,676953, Control_c,1,11,79
3,677176, Control_c,1,11,80
3,677398, Control_c,1,11,81
3,677620, Control_c,1,11,82
3,677842, Control_c,1,11,83
3,678064, Control_c,1,11,84
3,678287, Control_c,1,11,85
3,678509, Control_c,1,11,86
3,678731, Control_c,1,11,87
3,678953, Control_c,1,11,88
3,679175, Control_c,1,11,89
3,679398, Control_c,1,11,90
3,679470, Control_c,1,11,89
3,679543, Control_c,1,11,88
3,679615, Control_c,1,11,87
3,679688, Control_c,1,11,86
3,679761, Control_c,1,11,85
3,679833, Control_c,1,11,84
3,679906, Control_c,1,11,83
3,679978, Control_c,1,11,82
3,680051, Control_c,1,11,81
3,680124, Control_c,1,11,80
3,680196, Control_c,1,11,79
3,680269, Control_c,1,11,78
3,680341, Control_c,1,11,77
3,680414, Control_c,1,11,76
3,680487, Control_c,1,11,75
3,680500, Note_on_c,1,60,0
3,680559, Control_c,1,11,74
3,680632, Control_c,1,11,73
3,680704, Control_c,1,11,72
3,680777, Control_c,1,11,71
3,680850, Note_on_c,1,62,70
3,680850, Control_c,1,11,70
3,681618, Note_on_c,1,62,0
3,681618, Note_on_c,1,57,70
3,683100, Note_on_c,1,57,0
3,683122, Note_on_c,1,57,70
3,684574, Note_on_c,1,57,0
3,684586, Note_on_c,1,57,70
3,685988, Note_on_c,1,57,0
3,686010, Note_on_c,1,57,70
3,687442, Note_on_c,1,57,0
3,687562, Note_on_c,1,57,70
3,688276, Note_on_c,1,57,0
3,701636, Note_on_c,1,55,80
3,701972, Note_on_c,1,67,90
3,702350, Note_on_c,1,55,0
3,702940, Note_on_c,1,67,0
3,706516, Note_on_c,1,48,50
3,706516, Note_on_c,1,60,50
3,707484, Note_on_c,1,48,0
3,709384, Note_on_c,1,60,60
3,709384, Note_on_c,1,48,60
3,709888, Note_on_c,1,60,0
3,710143, Note_on_c,1,48,0
3,710143, Note_on_c,1,60,0
3,710144, Note_on_c,1,50,60
3,710144, Note_on_c,1,62,60
3,710878, Note_on_c,1,62,0
3,710878, Note_on_c,1,50,0
3,710880, Note_on_c,1,62,60
3,712348, Note_on_c,1,55,60
3,712348, Note_on_c,1,60,60
3,712348, Note_on_c,1,67,60
3,712616, Note_on_c,1,62,0
3,713062, Note_on_c,1,55,0
3,713062, Note_on_c,1,67,0
3,714568, Note_on_c,1,60,0
3,714580, Note_on_c,1,61,65
3,715304, Note_on_c,1,61,0
3,715304, Note_on_c,1,62,70
3,716048, Note_on_c,1,62,0
3,716052, Note_on_c,1,65,70
3,716796, Note_on_c,1,65,0
3,716804, Note_on_c,1,63,70
3,717558, Note_on_c,1,63,0
3,717580, Note_on_c,1,61,70
3,718314, Note_on_c,1,61,0
3,718320, Note_on_c,1,53,70
3,718320, Note_on_c,1,62,70
3,718704, Note_on_c,1,62,0
3,719004, Note_on_c,1,53,0
3,719040, Note_on_c,1,55,70
3,720462, Note_on_c,1,55,0
3,720480, Note_on_c,1,57,75
3,721892, Note_on_c,1,57,0
3,721900, Note_on_c,1,58,75
3,723262, Note_on_c,1,58,0
3,723272, Note_on_c,1,60,75
3,724110, Note_on_c,1,60,0
3,724120, Note_on_c,1,58,75
3,724594, Note_on_c,1,58,0
3,724612, Note_on_c,1,58,75
3,725580, Note_on_c,1,58,0
3,725704, Note_on_c,1,62,75
3,725704, Note_on_c,1,65,75
3,727330, Note_on_c,1,65,0
3,727330, Note_on_c,1,62,0
3,727344, Note_on_c,1,58,75
3,727344, Note_on_c,1,53,75
3,727988, Note_on_c,1,53,0
3,727988, Note_on_c,1,58,0
3,728000, Note_on_c,1,53,75
3,728000, Note_on_c,1,59,75
3,728320, Note_on_c,1,59,0
3,728320, Note_on_c,1,53,0
3,728324, Note_on_c,1,59,75
3,728324, Note_on_c,1,62,75
3,728968, Note_on_c,1,62,0
3,728968, Note_on_c,1,59,0
3,728972, Note_on_c,1,50,75
3,728972, Note_on_c,1,55,75
3,729984, Note_on_c,1,55,0
3,729984, Note_on_c,1,50,0
3,729988, Note_on_c,1,59,75
3,729988, Note_on_c,1,55,75
3,730632, Note_on_c,1,55,0
3,730632, Note_on_c,1,59,0
3,730640, Note_on_c,1,67,75
3,730640, Note_on_c,1,55,75
3,730640, Note_on_c,1,60,75
3,730640, Note_on_c,1,63,75
3,731284, Note_on_c,1,63,0
3,731284, Note_on_c,1,67,0
3,731284, Note_on_c,1,55,0
3,731284, Note_on_c,1,60,0
3,731288, Note_on_c,1,63,75
3,731288, Note_on_c,1,60,75
3,731608, Note_on_c,1,60,0
3,731608, Note_on_c,1,63,0
3,731620, Note_on_c,1,67,75
3,731620, Note_on_c,1,63,75
3,732284, Note_on_c,1,63,0
3,732284, Note_on_c,1,67,0
3,732296, Note_on_c,1,55,75
3,732296, Note_on_c,1,60,75
3,732930, Note_on_c,1,60,0
3,732930, Note_on_c,1,55,0
3,732939, Note_on_c,1,60,75
3,732940, Note_on_c,1,55,75
3,733249, Note_on_c,1,60,0
3,733250, Note_on_c,1,55,0
3,733260, Note_on_c,1,61,85
3,733260, Note_on_c,1,58,85
3,733260, Note_on_c,1,67,85
3,734502, Note_on_c,1,67,0
3,734502, Note_on_c,1,58,0
3,734502, Note_on_c,1,61,0
3,734516, Note_on_c,1,67,85
3,734516, Note_on_c,1,61,85
3,734516, Note_on_c,1,58,85
3,735748, Note_on_c,1,58,0
3,735748, Note_on_c,1,61,0
3,735748, Note_on_c,1,67,0
3,735772, Note_on_c,1,58,85
3,735772, Note_on_c,1,67,85
3,735772, Note_on_c,1,61,85
3,736984, Note_on_c,1,61,0
3,736984, Note_on_c,1,67,0
3,736984, Note_on_c,1,58,0
3,737004, Note_on_c,1,58,85
3,737004, Note_on_c,1,67,85
3,737004, Note_on_c,1,61,85
3,738296, Note_on_c,1,61,0
3,738296, Note_on_c,1,67,0
3,738296, Note_on_c,1,58,0
3,738316, Note_on_c,1,58,85
3,738316, Note_on_c,1,62,85
3,738316, Note_on_c,1,65,85
3,738316, Note_on_c,1,70,85
3,738700, Note_on_c,1,70,0
3,738700, Note_on_c,1,58,0
3,738700, Note_on_c,1,62,0
3,738700, Note_on_c,1,65,0
3,745000, Note_on_c,1,65,90
3,747140, Note_on_c,1,66,90
3,747170, Note_on_c,1,65,0
3,747265, Control_c,1,11,90
3,747632, Note_on_c,1,66,0
3,747982, Note_on_c,1,58,90
3,748182, Note_on_c,1,58,0
3,748262, Note_on_c,1,66,90
3,748262, Note_on_c,1,58,90
3,748262, Note_on_c,1,70,90
3,748262, Note_on_c,1,61,90
3,748462, Note_on_c,1,61,0
3,748462, Note_on_c,1,66,0
3,748462, Note_on_c,1,58,0
3,748462, Note_on_c,1,70,0
3,748542, Note_on_c,1,66,90
3,748542, Note_on_c,1,58,90
3,748542, Note_on_c,1,70,90
3,748542, Note_on_c,1,61,90
3,748742, Note_on_c,1,61,0
3,748742, Note_on_c,1,66,0
3,748742, Note_on_c,1,58,0
3,748742, Note_on_c,1,70,0
3,748822, Note_on_c,1,66,90
3,748822, Note_on_c,1,58,90
3,748822, Note_on_c,1,70,90
3,748822, Note_on_c,1,61,90
3,749022, Note_on_c,1,61,0
3,749022, Note_on_c,1,66,0
3,749022, Note_on_c,1,58,0
3,749022, Note_on_c,1,70,0
3,749102, Note_on_c,1,66,90
3,749102, Note_on_c,1,58,90
3,749102, Note_on_c,1,70,90
3,749102, Note_on_c,1,61,90
3,749302, Note_on_c,1,61,0
3,749302, Note_on_c,1,66,0
3,749302, Note_on_c,1,58,0
3,749302, Note_on_c,1,70,0
3,749382, Note_on_c,1,66,90
3,749382, Note_on_c,1,54,90
3,749382, Note_on_c,1,70,90
3,749382, Note_on_c,1,61,90
3,749682, Note_on_c,1,61,0
3,749682, Note_on_c,1,66,0
3,749682, Note_on_c,1,54,0
3,749682, Note_on_c,1,70,0
3,750534, Note_on_c,1,54,90
3,750534, Note_on_c,1,70,90
3,750534, Note_on_c,1,61,90
3,750834, Note_on_c,1,61,0
3,750834, Note_on_c,1,70,0
3,750834, Note_on_c,1,54,0
3,751588, Note_on_c,1,70,90
3,751588, Note_on_c,1,61,90
3,751588, Note_on_c,1,54,90
3,751788, Note_on_c,1,54,0
3,751788, Note_on_c,1,61,0
3,751788, Note_on_c,1,70,0
3,752132, Note_on_c,1,70,90
3,752132, Note_on_c,1,61,90
3,752132, Note_on_c,1,54,90
3,752332, Note_on_c,1,54,0
3,752332, Note_on_c,1,61,0
3,752332, Note_on_c,1,70,0
3,752715, Note_on_c,1,70,90
3,752715, Note_on_c,1,61,90
3,752715, Note_on_c,1,54,90
3,752915, Note_on_c,1,54,0
3,752915, Note_on_c,1,61,0
3,752915, Note_on_c,1,70,0
3,753244, Note_on_c,1,70,90
3,753244, Note_on_c,1,61,90
3,753244, Note_on_c,1,54,90
3,753444, Note_on_c,1,54,0
3,753444, Note_on_c,1,61,0
3,753444, Note_on_c,1,70,0
3,753852, Note_on_c,1,70,90
3,753852, Note_on_c,1,61,90
3,753852, Note_on_c,1,54,90
3,754152, Note_on_c,1,54,0
3,754152, Note_on_c,1,61,0
3,754152, Note_on_c,1,70,0
3,887809, Control_c,1,11,65
3,888161, Note_on_c,1,63,70
3,888161, Note_on_c,1,60,70
3,888161, Note_on_c,1,53,70
3,888825, Note_on_c,1,53,0
3,888825, Note_on_c,1,60,0
3,888825, Note_on_c,1,63,0
3,888845, Note_on_c,1,63,70
3,888845, Note_on_c,1,60,70
3,888845, Note_on_c,1,53,70
3,889529, Note_on_c,1,53,0
3,889529, Note_on_c,1,60,0
3,889529, Note_on_c,1,63,0
3,889537, Note_on_c,1,62,70
3,889537, Note_on_c,1,58,70
3,889537, Note_on_c,1,53,70
3,890211, Note_on_c,1,53,0
3,890211, Note_on_c,1,58,0
3,890211, Note_on_c,1,62,0
3,890217, Note_on_c,1,62,70
3,890217, Note_on_c,1,58,70
3,890217, Note_on_c,1,53,70
3,890891, Note_on_c,1,53,0
3,890891, Note_on_c,1,58,0
3,890891, Note_on_c,1,62,0
3,890909, Note_on_c,1,63,70
3,890909, Note_on_c,1,60,70
3,890909, Note_on_c,1,53,70
3,891583, Note_on_c,1,53,0
3,891583, Note_on_c,1,60,0
3,891583, Note_on_c,1,63,0
3,891605, Note_on_c,1,63,70
3,891605, Note_on_c,1,60,70
3,891605, Note_on_c,1,53,70
3,892279, Note_on_c,1,53,0
3,892279, Note_on_c,1,60,0
3,892279, Note_on_c,1,63,0
3,892289, Note_on_c,1,62,70
3,892289, Note_on_c,1,58,70
3,892289, Note_on_c,1,53,70
3,892589, Note_on_c,1,53,0
3,892589, Note_on_c,1,58,0
3,892589, Note_on_c,1,62,0
3,899037, Note_on_c,1,61,70
3,899037, Note_on_c,1,58,70
3,899726, Note_on_c,1,58,0
3,899726, Note_on_c,1,61,0
3,899733, Note_on_c,1,62,70
3,899733, Note_on_c,1,50,70
3,900375, Note_on_c,1,62,70
3,900375, Note_on_c,1,50,70
3,900422, Note_on_c,1,50,0
3,900422, Note_on_c,1,62,0
3,901707, Note_on_c,1,50,0
3,901707, Note_on_c,1,62,0
3,901717, Note_on_c,1,67,70
3,901717, Note_on_c,1,60,70
3,901717, Note_on_c,1,48,70
3,902017, Note_on_c,1,48,0
3,902381, Note_on_c,1,60,0
3,902381, Note_on_c,1,67,0
3,902381, Note_on_c,1,65,70
3,902381, Note_on_c,1,60,70
3,902713, Note_on_c,1,63,70
3,903045, Note_on_c,1,60,0
3,903052, Note_on_c,1,63,0
3,903053, Note_on_c,1,62,70
3,903053, Note_on_c,1,58,70
3,903355, Note_on_c,1,65,0
3,903383, Note_on_c,1,58,0
3,903383, Note_on_c,1,62,0
3,909993, Note_on_c,1,61,70
3,909993, Note_on_c,1,58,70
3,910667, Note_on_c,1,58,0
3,910667, Note_on_c,1,61,0
3,910681, Note_on_c,1,62,70
3,910681, Note_on_c,1,50,70
3,911340, Note_on_c,1,50,0
3,911340, Note_on_c,1,62,0
3,911357, Note_on_c,1,62,70
3,911357, Note_on_c,1,50,70
3,912021, Note_on_c,1,50,0
3,912021, Note_on_c,1,62,0
3,912717, Note_on_c,1,63,70
3,912717, Note_on_c,1,51,70
3,914019, Note_on_c,1,51,0
3,914019, Note_on_c,1,63,0
3,914037, Note_on_c,1,65,70
3,914037, Note_on_c,1,53,70
3,915349, Note_on_c,1,53,0
3,915349, Note_on_c,1,65,0
3,915377, Note_on_c,1,67,70
3,915377, Note_on_c,1,55,70
3,916659, Note_on_c,1,55,0
3,916659, Note_on_c,1,67,0
3,916673, Note_on_c,1,69,70
3,916673, Note_on_c,1,57,70
3,917985, Note_on_c,1,57,0
3,917985, Note_on_c,1,69,0
3,918001, Note_on_c,1,70,70
3,918001, Note_on_c,1,65,70
3,918001, Note_on_c,1,58,70
3,918655, Note_on_c,1,58,0
3,918655, Note_on_c,1,65,0
3,918655, Note_on_c,1,70,0
3,918689, Note_on_c,1,70,70
3,918689, Note_on_c,1,66,70
3,918689, Note_on_c,1,63,70
3,918689, Note_on_c,1,58,70
3,918989, Note_on_c,1,58,0
3,918989, Note_on_c,1,70,0
3,918989, Note_on_c,1,66,0
3,918989, Note_on_c,1,63,0
3,920717, Note_on_c,1,70,90
3,920717, Note_on_c,1,58,90
3,920987, Note_on_c,1,58,0
3,920987, Note_on_c,1,70,0
3,921137, Note_on_c,1,70,90
3,921137, Note_on_c,1,58,90
3,921407, Note_on_c,1,58,0
3,921407, Note_on_c,1,70,0
3,921557, Note_on_c,1,70,90
3,921557, Note_on_c,1,58,90
3,921827, Note_on_c,1,58,0
3,921827, Note_on_c,1,70,0
3,923541, Note_on_c,1,70,90
3,923541, Note_on_c,1,58,90
3,923811, Note_on_c,1,58,0
3,923811, Note_on_c,1,70,0
3,923907, Note_on_c,1,70,90
3,923907, Note_on_c,1,58,90
3,924177, Note_on_c,1,58,0
3,924177, Note_on_c,1,70,0
3,924273, Note_on_c,1,70,90
3,924273, Note_on_c,1,58,90
3,924543, Note_on_c,1,58,0
3,924543, Note_on_c,1,70,0
3,924969, Note_on_c,1,70,90
3,924969, Note_on_c,1,58,90
3,925239, Note_on_c,1,58,0
3,925239, Note_on_c,1,70,0
3,926349, Note_on_c,1,66,90
3,926349, Note_on_c,1,54,90
3,926619, Note_on_c,1,54,0
3,926619, Note_on_c,1,66,0
3,927725, Note_on_c,1,65,90
3,927725, Note_on_c,1,53,90
3,928045, Note_on_c,1,53,0
3,928045, Note_on_c,1,65,0
3,929837, Note_on_c,1,70,90
3,929837, Note_on_c,1,58,90
3,930531, Note_on_c,1,58,0
3,930531, Note_on_c,1,70,0
3,930533, Note_on_c,1,70,90
3,930533, Note_on_c,1,58,90
3,931925, Note_on_c,1,58,0
3,931925, Note_on_c,1,70,0
3,931925, Note_on_c,1,69,90
3,931925, Note_on_c,1,65,90
3,931925, Note_on_c,1,60,90
3,931925, Note_on_c,1,57,90
3,933307, Note_on_c,1,57,0
3,933307, Note_on_c,1,69,0
3,933307, Note_on_c,1,65,0
3,933307, Note_on_c,1,60,0
3,933309, Note_on_c,1,70,90
3,933309, Note_on_c,1,62,90
3,933309, Note_on_c,1,65,90
3,933309, Note_on_c,1,58,90
3,933579, Note_on_c,1,58,0
3,933579, Note_on_c,1,70,0
3,933579, Note_on_c,1,62,0
3,933579, Note_on_c,1,65,0
3,933697, Note_on_c,1,63,90
3,933697, Note_on_c,1,58,90
3,934331, Note_on_c,1,58,0
3,934331, Note_on_c,1,63,0
3,934373, Note_on_c,1,63,90
3,934373, Note_on_c,1,58,90
3,934643, Note_on_c,1,58,0
3,934643, Note_on_c,1,63,0
3,934741, Note_on_c,1,62,90
3,934741, Note_on_c,1,58,90
3,935011, Note_on_c,1,58,0
3,935011, Note_on_c,1,62,0
3,935417, Note_on_c,1,66,90
3,935417, Note_on_c,1,54,90
3,935687, Note_on_c,1,54,0
3,935687, Note_on_c,1,66,0
3,936141, Note_on_c,1,65,90
3,936141, Note_on_c,1,53,90
3,936411, Note_on_c,1,53,0
3,936411, Note_on_c,1,65,0
3,936513, Note_on_c,1,63,90
3,936513, Note_on_c,1,58,90
3,937147, Note_on_c,1,58,0
3,937147, Note_on_c,1,63,0
3,937213, Note_on_c,1,63,90
3,937213, Note_on_c,1,58,90
3,937483, Note_on_c,1,58,0
3,937483, Note_on_c,1,63,0
3,937577, Note_on_c,1,62,90
3,937577, Note_on_c,1,58,90
3,937847, Note_on_c,1,58,0
3,937847, Note_on_c,1,62,0
3,938277, Note_on_c,1,54,90
3,938277, Note_on_c,1,66,90
3,938547, Note_on_c,1,66,0
3,938547, Note_on_c,1,54,0
3,939009, Note_on_c,1,65,90
3,939009, Note_on_c,1,53,90
3,939279, Note_on_c,1,53,0
3,939279, Note_on_c,1,65,0
3,939728, Note_on_c,1,66,90
3,939728, Note_on_c,1,54,90
3,939998, Note_on_c,1,54,0
3,939998, Note_on_c,1,66,0
3,940457, Note_on_c,1,65,90
3,940457, Note_on_c,1,53,90
3,940727, Note_on_c,1,53,0
3,940727, Note_on_c,1,65,0
3,941164, Note_on_c,1,66,90
3,941164, Note_on_c,1,54,90
3,941434, Note_on_c,1,54,0
3,941434, Note_on_c,1,66,0
3,941901, Note_on_c,1,65,90
3,941901, Note_on_c,1,53,90
3,942171, Note_on_c,1,53,0
3,942171, Note_on_c,1,65,0
3,942269, Note_on_c,1,66,90
3,942269, Note_on_c,1,54,90
3,942469, Note_on_c,1,54,0
3,942469, Note_on_c,1,66,0
3,942637, Note_on_c,1,65,90
3,942637, Note_on_c,1,53,90
3,942837, Note_on_c,1,53,0
3,942837, Note_on_c,1,65,0
3,943005, Note_on_c,1,66,90
3,943005, Note_on_c,1,54,90
3,943205, Note_on_c,1,54,0
3,943205, Note_on_c,1,66,0
3,943373, Note_on_c,1,65,90
3,943373, Note_on_c,1,53,90
3,943573, Note_on_c,1,53,0
3,943573, Note_on_c,1,65,0
3,943741, Note_on_c,1,66,90
3,943741, Note_on_c,1,54,90
3,943941, Note_on_c,1,54,0
3,943941, Note_on_c,1,66,0
3,944109, Note_on_c,1,65,90
3,944109, Note_on_c,1,53,90
3,944309, Note_on_c,1,53,0
3,944309, Note_on_c,1,65,0
3,944477, Note_on_c,1,66,90
3,944477, Note_on_c,1,54,90
3,944677, Note_on_c,1,54,0
3,944677, Note_on_c,1,66,0
3,944845, Note_on_c,1,65,90
3,944845, Note_on_c,1,53,90
3,945045, Note_on_c,1,53,0
3,945045, Note_on_c,1,65,0
3,946209, Note_on_c,1,65,90
3,946209, Note_on_c,1,53,90
3,946459, Note_on_c,1,53,0
3,946459, Note_on_c,1,65,0
3,946873, Note_on_c,1,65,90
3,946873, Note_on_c,1,53,90
3,947123, Note_on_c,1,53,0
3,947123, Note_on_c,1,65,0
3,947529, Note_on_c,1,65,90
3,947529, Note_on_c,1,53,90
3,947779, Note_on_c,1,53,0
3,947779, Note_on_c,1,65,0
3,948825, Note_on_c,1,65,90
3,948825, Note_on_c,1,53,90
3,949075, Note_on_c,1,53,0
3,949075, Note_on_c,1,65,0
3,950161, Note_on_c,1,65,90
3,950161, Note_on_c,1,53,90
3,950411, Note_on_c,1,53,0
3,950411, Note_on_c,1,65,0
3,950809, Note_on_c,1,65,90
3,950809, Note_on_c,1,53,90
3,951059, Note_on_c,1,53,0
3,951059, Note_on_c,1,65,0
3,951501, Note_on_c,1,65,90
3,951501, Note_on_c,1,53,90
3,951751, Note_on_c,1,53,0
3,951751, Note_on_c,1,65,0
3,952177, Note_on_c,1,65,90
3,952177, Note_on_c,1,53,90
3,952427, Note_on_c,1,53,0
3,952427, Note_on_c,1,65,0
3,952877, Note_on_c,1,65,90
3,952877, Note_on_c,1,53,90
3,953127, Note_on_c,1,53,0
3,953127, Note_on_c,1,65,0
3,953249, Note_on_c,1,67,90
3,953249, Note_on_c,1,58,90
3,953499, Note_on_c,1,58,0
3,953499, Note_on_c,1,67,0
3,953673, Note_on_c,1,65,90
3,953673, Note_on_c,1,53,90
3,954023, Note_on_c,1,53,0
3,954023, Note_on_c,1,65,0
3,954549, Note_on_c,1,65,90
3,954549, Note_on_c,1,53,90
3,956085, Note_on_c,1,53,0
3,956085, Note_on_c,1,65,0
3,956460, Control_c,1,121,0
3,956460, End_track,,,
4,0, Start_track,,,
4,0, MIDI_port,0,,
4,0, Title_t," ""violins1""",,
4,0, Control_c,2,0,0
4,0, Control_c,2,32,0
4,0, Program_c,2,48,
4,0, Control_c,2,7,111
4,0, Control_c,2,10,10
4,3272, Control_c,2,11,110
4,3356, Control_c,2,91,127
4,3356, Note_on_c,2,82,80
4,3356, Note_on_c,2,65,80
4,3356, Note_on_c,2,73,80
4,3612, Note_on_c,2,73,0
4,3612, Note_on_c,2,65,0
4,3612, Note_on_c,2,82,0
4,4908, Note_on_c,2,82,80
4,4908, Note_on_c,2,73,80
4,4908, Note_on_c,2,65,80
4,5164, Note_on_c,2,65,0
4,5164, Note_on_c,2,73,0
4,5164, Note_on_c,2,82,0
4,6432, Note_on_c,2,82,80
4,6432, Note_on_c,2,72,80
4,6936, Note_on_c,2,72,0
4,6936, Note_on_c,2,82,0
4,6968, Note_on_c,2,80,80
4,6968, Note_on_c,2,73,80
4,6968, Note_on_c,2,65,80
4,7472, Note_on_c,2,65,0
4,7472, Note_on_c,2,73,0
4,7472, Note_on_c,2,80,0
4,7528, Note_on_c,2,82,80
4,7528, Note_on_c,2,73,80
4,7528, Note_on_c,2,66,80
4,8032, Note_on_c,2,66,0
4,8032, Note_on_c,2,73,0
4,8032, Note_on_c,2,82,0
4,8088, Note_on_c,2,82,80
4,8088, Note_on_c,2,75,80
4,8088, Note_on_c,2,67,80
4,8622, Note_on_c,2,67,0
4,8622, Note_on_c,2,75,0
4,8622, Note_on_c,2,82,0
4,8672, Note_on_c,2,84,80
4,8672, Note_on_c,2,68,80
4,8672, Note_on_c,2,75,80
4,9226, Note_on_c,2,75,0
4,9226, Note_on_c,2,68,0
4,9226, Note_on_c,2,84,0
4,9316, Note_on_c,2,85,80
4,9316, Note_on_c,2,77,80
4,9316, Note_on_c,2,68,80
4,9316, Note_on_c,2,61,80
4,9800, Note_on_c,2,61,0
4,9800, Note_on_c,2,85,0
4,9800, Note_on_c,2,77,0
4,9800, Note_on_c,2,68,0
4,11872, Note_on_c,2,68,70
4,12128, Note_on_c,2,68,0
4,12160, Note_on_c,2,65,70
4,12416, Note_on_c,2,65,0
4,12448, Note_on_c,2,63,70
4,12704, Note_on_c,2,63,0
4,12748, Note_on_c,2,61,70
4,13332, Note_on_c,2,61,0
4,13336, Note_on_c,2,77,80
4,14224, Note_on_c,2,77,0
4,14232, Note_on_c,2,75,75
4,14488, Note_on_c,2,75,0
4,14532, Note_on_c,2,78,80
4,15420, Note_on_c,2,78,0
4,15424, Note_on_c,2,77,70
4,15676, Note_on_c,2,77,0
4,15716, Note_on_c,2,72,70
4,15988, Note_on_c,2,72,0
4,15988, Note_on_c,2,73,70
4,16276, Note_on_c,2,73,0
4,16288, Note_on_c,2,70,70
4,16844, Note_on_c,2,70,0
4,16852, Note_on_c,2,75,70
4,17756, Note_on_c,2,75,0
4,17764, Note_on_c,2,77,70
4,18020, Note_on_c,2,77,0
4,18072, Note_on_c,2,70,70
4,18912, Note_on_c,2,70,0
4,18916, Note_on_c,2,75,70
4,19172, Note_on_c,2,75,0
4,19204, Note_on_c,2,72,70
4,19508, Note_on_c,2,72,0
4,19512, Note_on_c,2,70,70
4,19824, Note_on_c,2,70,0
4,19824, Note_on_c,2,68,70
4,20392, Note_on_c,2,68,0
4,20400, Note_on_c,2,75,70
4,21272, Note_on_c,2,75,0
4,21280, Note_on_c,2,77,75
4,21536, Note_on_c,2,77,0
4,21572, Note_on_c,2,80,80
4,22444, Note_on_c,2,80,0
4,22448, Note_on_c,2,75,75
4,22720, Note_on_c,2,75,0
4,22728, Note_on_c,2,75,75
4,23016, Note_on_c,2,75,0
4,23020, Note_on_c,2,77,75
4,23276, Note_on_c,2,77,0
4,23316, Note_on_c,2,80,80
4,24168, Note_on_c,2,80,0
4,24172, Note_on_c,2,77,75
4,24452, Note_on_c,2,77,0
4,24456, Note_on_c,2,82,85
4,24752, Note_on_c,2,82,0
4,24756, Note_on_c,2,80,75
4,25052, Note_on_c,2,80,0
4,25056, Note_on_c,2,75,75
4,25696, Note_on_c,2,75,0
4,25816, Note_on_c,2,72,75
4,25996, Note_on_c,2,72,0
4,26004, Note_on_c,2,70,75
4,26184, Note_on_c,2,70,0
4,26192, Note_on_c,2,68,75
4,26372, Note_on_c,2,68,0
4,26387, Note_on_c,2,66,75
4,26567, Note_on_c,2,66,0
4,26582, Note_on_c,2,63,75
4,26772, Note_on_c,2,63,0
4,26784, Note_on_c,2,61,80
4,27320, Note_on_c,2,61,0
4,27320, Note_on_c,2,77,80
4,28193, Note_on_c,2,77,0
4,28194, Note_on_c,2,75,80
4,28472, Note_on_c,2,75,0
4,28472, Note_on_c,2,78,80
4,29342, Note_on_c,2,78,0
4,29342, Note_on_c,2,77,80
4,29632, Note_on_c,2,77,0
4,29632, Note_on_c,2,72,80
4,29922, Note_on_c,2,72,0
4,29942, Note_on_c,2,73,80
4,30232, Note_on_c,2,73,0
4,30252, Note_on_c,2,70,80
4,30820, Note_on_c,2,70,0
4,30820, Note_on_c,2,75,80
4,31720, Note_on_c,2,75,0
4,31720, Note_on_c,2,77,80
4,32024, Note_on_c,2,77,0
4,32024, Note_on_c,2,80,80
4,32892, Note_on_c,2,80,0
4,32924, Note_on_c,2,78,80
4,33207, Note_on_c,2,78,0
4,33208, Note_on_c,2,77,80
4,33538, Note_on_c,2,77,0
4,33540, Note_on_c,2,78,80
4,33850, Note_on_c,2,78,0
4,33852, Note_on_c,2,77,80
4,34132, Note_on_c,2,77,0
4,34132, Note_on_c,2,72,80
4,34412, Note_on_c,2,72,0
4,34412, Note_on_c,2,77,80
4,34684, Note_on_c,2,77,0
4,34684, Note_on_c,2,74,80
4,34956, Note_on_c,2,74,0
4,34956, Note_on_c,2,75,80
4,35234, Note_on_c,2,75,0
4,35234, Note_on_c,2,70,80
4,35512, Note_on_c,2,70,0
4,35512, Note_on_c,2,75,80
4,35772, Note_on_c,2,75,0
4,35772, Note_on_c,2,72,80
4,36032, Note_on_c,2,72,0
4,36032, Note_on_c,2,73,80
4,36250, Note_on_c,2,65,80
4,36332, Note_on_c,2,73,0
4,36468, Note_on_c,2,70,80
4,36550, Note_on_c,2,65,0
4,36768, Note_on_c,2,70,0
4,36778, Note_on_c,2,72,80
4,37078, Note_on_c,2,72,0
4,37089, Note_on_c,2,68,80
4,37324, Note_on_c,2,70,80
4,37389, Note_on_c,2,68,0
4,37580, Note_on_c,2,72,80
4,37624, Note_on_c,2,70,0
4,37840, Note_on_c,2,73,80
4,37880, Note_on_c,2,72,0
4,38100, Note_on_c,2,75,80
4,38140, Note_on_c,2,73,0
4,38358, Note_on_c,2,77,80
4,38400, Note_on_c,2,75,0
4,38616, Note_on_c,2,75,80
4,38658, Note_on_c,2,77,0
4,38868, Note_on_c,2,77,80
4,38916, Note_on_c,2,75,0
4,39120, Note_on_c,2,70,80
4,39168, Note_on_c,2,77,0
4,39936, Note_on_c,2,70,0
4,39937, Note_on_c,2,72,80
4,40196, Note_on_c,2,73,80
4,40237, Note_on_c,2,72,0
4,40596, Note_on_c,2,73,0
4,40705, Program_c,2,45,
4,40714, Control_c,2,11,80
4,40748, Note_on_c,2,73,80
4,40748, Note_on_c,2,65,80
4,40788, Note_on_c,2,65,0
4,40788, Note_on_c,2,73,0
4,41292, Note_on_c,2,77,80
4,41292, Note_on_c,2,68,80
4,41332, Note_on_c,2,68,0
4,41332, Note_on_c,2,77,0
4,42276, Note_on_c,2,73,80
4,42276, Note_on_c,2,65,80
4,42316, Note_on_c,2,65,0
4,42316, Note_on_c,2,73,0
4,42780, Note_on_c,2,77,80
4,42780, Note_on_c,2,68,80
4,42820, Note_on_c,2,68,0
4,42820, Note_on_c,2,77,0
4,43972, Note_on_c,2,65,80
4,43972, Note_on_c,2,73,80
4,44012, Note_on_c,2,73,0
4,44012, Note_on_c,2,65,0
4,44568, Note_on_c,2,77,80
4,44568, Note_on_c,2,68,80
4,44608, Note_on_c,2,68,0
4,44608, Note_on_c,2,77,0
4,45762, Note_on_c,2,73,80
4,45762, Note_on_c,2,65,80
4,45802, Note_on_c,2,65,0
4,45802, Note_on_c,2,73,0
4,46360, Note_on_c,2,77,80
4,46360, Note_on_c,2,68,80
4,46400, Note_on_c,2,68,0
4,46400, Note_on_c,2,77,0
4,47456, Note_on_c,2,75,80
4,47456, Note_on_c,2,66,80
4,47496, Note_on_c,2,66,0
4,47496, Note_on_c,2,75,0
4,48052, Note_on_c,2,78,80
4,48052, Note_on_c,2,70,80
4,48092, Note_on_c,2,70,0
4,48092, Note_on_c,2,78,0
4,49179, Note_on_c,2,75,80
4,49179, Note_on_c,2,66,80
4,49219, Note_on_c,2,66,0
4,49219, Note_on_c,2,75,0
4,49720, Note_on_c,2,78,80
4,49720, Note_on_c,2,70,80
4,49760, Note_on_c,2,70,0
4,49760, Note_on_c,2,78,0
4,50784, Note_on_c,2,75,80
4,50784, Note_on_c,2,68,80
4,50824, Note_on_c,2,68,0
4,50824, Note_on_c,2,75,0
4,51374, Note_on_c,2,80,80
4,51374, Note_on_c,2,72,80
4,51414, Note_on_c,2,72,0
4,51414, Note_on_c,2,80,0
4,52483, Note_on_c,2,75,80
4,52483, Note_on_c,2,68,80
4,52523, Note_on_c,2,68,0
4,52523, Note_on_c,2,75,0
4,53028, Note_on_c,2,72,80
4,53028, Note_on_c,2,80,80
4,53068, Note_on_c,2,80,0
4,53068, Note_on_c,2,72,0
4,54084, Note_on_c,2,68,80
4,54084, Note_on_c,2,77,80
4,54124, Note_on_c,2,77,0
4,54124, Note_on_c,2,68,0
4,54596, Note_on_c,2,80,80
4,54596, Note_on_c,2,73,80
4,54636, Note_on_c,2,73,0
4,54636, Note_on_c,2,80,0
4,55116, Note_on_c,2,80,80
4,55116, Note_on_c,2,71,80
4,55156, Note_on_c,2,71,0
4,55156, Note_on_c,2,80,0
4,55614, Note_on_c,2,72,80
4,55614, Note_on_c,2,80,80
4,55654, Note_on_c,2,80,0
4,55654, Note_on_c,2,72,0
4,56576, Note_on_c,2,80,80
4,56576, Note_on_c,2,73,80
4,56616, Note_on_c,2,73,0
4,56616, Note_on_c,2,80,0
4,57006, Note_on_c,2,80,80
4,57006, Note_on_c,2,73,80
4,57046, Note_on_c,2,73,0
4,57046, Note_on_c,2,80,0
4,58016, Note_on_c,2,82,80
4,58016, Note_on_c,2,74,80
4,58056, Note_on_c,2,74,0
4,58056, Note_on_c,2,82,0
4,58498, Note_on_c,2,75,80
4,58498, Note_on_c,2,82,80
4,58538, Note_on_c,2,82,0
4,58538, Note_on_c,2,75,0
4,59432, Note_on_c,2,84,80
4,59432, Note_on_c,2,76,80
4,59472, Note_on_c,2,76,0
4,59472, Note_on_c,2,84,0
4,59916, Note_on_c,2,77,80
4,59916, Note_on_c,2,84,80
4,59956, Note_on_c,2,84,0
4,59956, Note_on_c,2,77,0
4,92694, Note_on_c,2,63,80
4,92734, Note_on_c,2,63,0
4,92930, Note_on_c,2,60,80
4,92970, Note_on_c,2,60,0
4,93171, Note_on_c,2,58,80
4,93211, Note_on_c,2,58,0
4,93412, Note_on_c,2,57,80
4,93452, Note_on_c,2,57,0
4,94624, Note_on_c,2,66,80
4,94664, Note_on_c,2,66,0
4,94866, Note_on_c,2,63,80
4,94906, Note_on_c,2,63,0
4,95111, Note_on_c,2,61,80
4,95151, Note_on_c,2,61,0
4,95354, Note_on_c,2,60,80
4,95394, Note_on_c,2,60,0
4,96572, Note_on_c,2,69,80
4,96612, Note_on_c,2,69,0
4,96810, Note_on_c,2,66,80
4,96850, Note_on_c,2,66,0
4,97055, Note_on_c,2,65,80
4,97095, Note_on_c,2,65,0
4,97300, Note_on_c,2,63,80
4,97340, Note_on_c,2,63,0
4,98516, Note_on_c,2,75,80
4,98556, Note_on_c,2,75,0
4,98758, Note_on_c,2,72,80
4,98798, Note_on_c,2,72,0
4,99000, Note_on_c,2,70,80
4,99040, Note_on_c,2,70,0
4,99242, Note_on_c,2,69,80
4,99282, Note_on_c,2,69,0
4,100453, Note_on_c,2,81,80
4,100493, Note_on_c,2,81,0
4,100701, Note_on_c,2,78,80
4,100741, Note_on_c,2,78,0
4,100948, Note_on_c,2,77,80
4,100988, Note_on_c,2,77,0
4,101195, Note_on_c,2,75,80
4,101235, Note_on_c,2,75,0
4,102403, Note_on_c,2,87,80
4,102443, Note_on_c,2,87,0
4,102636, Note_on_c,2,84,80
4,102676, Note_on_c,2,84,0
4,102869, Note_on_c,2,82,80
4,102909, Note_on_c,2,82,0
4,103103, Note_on_c,2,81,80
4,103143, Note_on_c,2,81,0
4,106468, Program_c,2,48,
4,106688, Note_on_c,2,80,80
4,106948, Note_on_c,2,80,0
4,106952, Note_on_c,2,77,80
4,107212, Note_on_c,2,77,0
4,107216, Note_on_c,2,75,80
4,107476, Note_on_c,2,75,0
4,107518, Note_on_c,2,73,80
4,108094, Note_on_c,2,89,80
4,108476, Note_on_c,2,73,0
4,108942, Note_on_c,2,89,0
4,108946, Note_on_c,2,87,80
4,109257, Note_on_c,2,87,0
4,109262, Note_on_c,2,90,80
4,110074, Note_on_c,2,90,0
4,110078, Note_on_c,2,89,80
4,110368, Note_on_c,2,89,0
4,110370, Note_on_c,2,84,80
4,110740, Note_on_c,2,84,0
4,110746, Note_on_c,2,85,80
4,111056, Note_on_c,2,85,0
4,111058, Note_on_c,2,82,80
4,111642, Note_on_c,2,82,0
4,111650, Note_on_c,2,87,80
4,112528, Note_on_c,2,87,0
4,112530, Note_on_c,2,89,80
4,112852, Note_on_c,2,89,0
4,112858, Note_on_c,2,82,80
4,113726, Note_on_c,2,82,0
4,113730, Note_on_c,2,87,80
4,114010, Note_on_c,2,87,0
4,114014, Note_on_c,2,84,80
4,114314, Note_on_c,2,84,0
4,114314, Note_on_c,2,82,80
4,114619, Note_on_c,2,82,0
4,114622, Note_on_c,2,80,80
4,115186, Note_on_c,2,80,0
4,115194, Note_on_c,2,87,80
4,116052, Note_on_c,2,87,0
4,116058, Note_on_c,2,89,80
4,116383, Note_on_c,2,89,0
4,116386, Note_on_c,2,92,80
4,117264, Note_on_c,2,92,0
4,117266, Note_on_c,2,87,80
4,117506, Note_on_c,2,87,0
4,117509, Note_on_c,2,87,80
4,117841, Note_on_c,2,87,0
4,117850, Note_on_c,2,89,80
4,118165, Note_on_c,2,89,0
4,118171, Note_on_c,2,92,80
4,118934, Note_on_c,2,92,0
4,118934, Note_on_c,2,89,80
4,119319, Note_on_c,2,89,0
4,119326, Note_on_c,2,94,80
4,119614, Note_on_c,2,94,0
4,119629, Note_on_c,2,92,80
4,119932, Note_on_c,2,87,80
4,119947, Note_on_c,2,92,0
4,120768, Note_on_c,2,87,0
4,120770, Note_on_c,2,84,80
4,120965, Note_on_c,2,84,0
4,120966, Note_on_c,2,82,80
4,121160, Note_on_c,2,82,0
4,121162, Note_on_c,2,80,80
4,121362, Note_on_c,2,80,0
4,121370, Note_on_c,2,78,80
4,121575, Note_on_c,2,78,0
4,121578, Note_on_c,2,75,80
4,121778, Note_on_c,2,75,0
4,121786, Note_on_c,2,73,80
4,122372, Note_on_c,2,73,0
4,122374, Note_on_c,2,89,80
4,123264, Note_on_c,2,89,0
4,123266, Note_on_c,2,87,80
4,123591, Note_on_c,2,87,0
4,123594, Note_on_c,2,90,80
4,124457, Note_on_c,2,90,0
4,124462, Note_on_c,2,89,80
4,124757, Note_on_c,2,89,0
4,124758, Note_on_c,2,84,80
4,125053, Note_on_c,2,84,0
4,125054, Note_on_c,2,85,80
4,125372, Note_on_c,2,85,0
4,125374, Note_on_c,2,82,80
4,125950, Note_on_c,2,82,0
4,125954, Note_on_c,2,87,80
4,126829, Note_on_c,2,87,0
4,126830, Note_on_c,2,89,80
4,127120, Note_on_c,2,89,0
4,127122, Note_on_c,2,92,80
4,127970, Note_on_c,2,92,0
4,127970, Note_on_c,2,90,80
4,128248, Note_on_c,2,90,0
4,128250, Note_on_c,2,89,80
4,128530, Note_on_c,2,89,0
4,128534, Note_on_c,2,90,80
4,128854, Note_on_c,2,90,0
4,128854, Note_on_c,2,89,80
4,129149, Note_on_c,2,89,0
4,129150, Note_on_c,2,84,80
4,129450, Note_on_c,2,84,0
4,129454, Note_on_c,2,89,80
4,129738, Note_on_c,2,89,0
4,129750, Note_on_c,2,86,80
4,130060, Note_on_c,2,86,0
4,130062, Note_on_c,2,87,80
4,130362, Note_on_c,2,87,0
4,130362, Note_on_c,2,82,80
4,130672, Note_on_c,2,82,0
4,130674, Note_on_c,2,87,80
4,130964, Note_on_c,2,87,0
4,130966, Note_on_c,2,84,80
4,131271, Note_on_c,2,84,0
4,131274, Note_on_c,2,85,80
4,131546, Note_on_c,2,85,0
4,131550, Note_on_c,2,77,80
4,131850, Note_on_c,2,77,0
4,131850, Note_on_c,2,82,80
4,132132, Note_on_c,2,82,0
4,132135, Note_on_c,2,84,80
4,132450, Note_on_c,2,84,0
4,132450, Note_on_c,2,80,80
4,132750, Note_on_c,2,80,0
4,132754, Note_on_c,2,82,80
4,133041, Note_on_c,2,82,0
4,133042, Note_on_c,2,84,80
4,133336, Note_on_c,2,84,0
4,133338, Note_on_c,2,85,80
4,133620, Note_on_c,2,85,0
4,133622, Note_on_c,2,87,80
4,133912, Note_on_c,2,87,0
4,133914, Note_on_c,2,89,80
4,134228, Note_on_c,2,89,0
4,134230, Note_on_c,2,87,80
4,134515, Note_on_c,2,87,0
4,134518, Note_on_c,2,89,80
4,134793, Note_on_c,2,89,0
4,134794, Note_on_c,2,82,80
4,135092, Note_on_c,2,82,0
4,135094, Note_on_c,2,83,80
4,135668, Note_on_c,2,83,0
4,135670, Note_on_c,2,84,80
4,136000, Note_on_c,2,84,0
4,136002, Note_on_c,2,85,80
4,136386, Note_on_c,2,85,0
4,136907, Note_on_c,2,68,80
4,137228, Note_on_c,2,68,0
4,137228, Note_on_c,2,65,80
4,137549, Note_on_c,2,65,0
4,137549, Note_on_c,2,63,80
4,137870, Note_on_c,2,63,0
4,137872, Note_on_c,2,61,80
4,138432, Note_on_c,2,61,0
4,138432, Note_on_c,2,74,80
4,139228, Note_on_c,2,74,0
4,139228, Note_on_c,2,65,80
4,139520, Note_on_c,2,65,0
4,139520, Note_on_c,2,66,80
4,140288, Note_on_c,2,66,0
4,140377, Note_on_c,2,73,80
4,140656, Note_on_c,2,73,0
4,140656, Note_on_c,2,69,80
4,140935, Note_on_c,2,69,0
4,140935, Note_on_c,2,66,80
4,141212, Note_on_c,2,66,0
4,141212, Note_on_c,2,63,80
4,141731, Note_on_c,2,63,0
4,141732, Note_on_c,2,69,80
4,142566, Note_on_c,2,69,0
4,142566, Note_on_c,2,68,80
4,142876, Note_on_c,2,68,0
4,142876, Note_on_c,2,61,80
4,143644, Note_on_c,2,61,0
4,144968, Program_c,2,45,
4,145088, Note_on_c,2,59,80
4,145168, Note_on_c,2,59,0
4,145652, Note_on_c,2,65,80
4,145732, Note_on_c,2,65,0
4,146782, Note_on_c,2,61,80
4,146862, Note_on_c,2,61,0
4,147348, Note_on_c,2,66,80
4,147428, Note_on_c,2,66,0
4,148460, Note_on_c,2,66,80
4,148540, Note_on_c,2,66,0
4,149036, Note_on_c,2,63,80
4,149116, Note_on_c,2,63,0
4,153516, Control_c,2,11,65
4,153580, Note_on_c,2,61,60
4,153630, Note_on_c,2,61,0
4,154128, Note_on_c,2,65,60
4,154178, Note_on_c,2,65,0
4,157022, Note_on_c,2,63,60
4,157072, Note_on_c,2,63,0
4,157592, Note_on_c,2,65,60
4,157642, Note_on_c,2,65,0
4,160448, Note_on_c,2,62,60
4,160498, Note_on_c,2,62,0
4,160988, Note_on_c,2,65,60
4,161038, Note_on_c,2,65,0
4,195457, Program_c,2,48,
4,195605, Note_on_c,2,65,60
4,196417, Note_on_c,2,65,0
4,196989, Note_on_c,2,65,60
4,197473, Note_on_c,2,65,0
4,197560, Note_on_c,2,65,60
4,198328, Note_on_c,2,65,0
4,199105, Note_on_c,2,64,60
4,199305, Note_on_c,2,64,0
4,199397, Note_on_c,2,64,60
4,199535, Note_on_c,2,64,0
4,199541, Note_on_c,2,65,60
4,199925, Note_on_c,2,65,0
4,200129, Note_on_c,2,65,60
4,200941, Note_on_c,2,65,0
4,201490, Note_on_c,2,65,60
4,201974, Note_on_c,2,65,0
4,202061, Note_on_c,2,65,60
4,202829, Note_on_c,2,65,0
4,203637, Note_on_c,2,67,70
4,203837, Note_on_c,2,67,0
4,203933, Note_on_c,2,67,70
4,204071, Note_on_c,2,67,0
4,204085, Note_on_c,2,68,70
4,204469, Note_on_c,2,68,0
4,204921, Note_on_c,2,68,70
4,205733, Note_on_c,2,68,0
4,205933, Note_on_c,2,67,70
4,206133, Note_on_c,2,67,0
4,206231, Note_on_c,2,67,70
4,206369, Note_on_c,2,67,0
4,206381, Note_on_c,2,67,70
4,206765, Note_on_c,2,67,0
4,207185, Note_on_c,2,65,70
4,207485, Note_on_c,2,65,0
4,207753, Note_on_c,2,65,70
4,208053, Note_on_c,2,65,0
4,208353, Note_on_c,2,67,70
4,208653, Note_on_c,2,67,0
4,208961, Note_on_c,2,68,70
4,209261, Note_on_c,2,68,0
4,209513, Note_on_c,2,65,70
4,209813, Note_on_c,2,65,0
4,210093, Note_on_c,2,65,70
4,210393, Note_on_c,2,65,0
4,210685, Note_on_c,2,67,70
4,210985, Note_on_c,2,67,0
4,211277, Note_on_c,2,68,70
4,211577, Note_on_c,2,68,0
4,211809, Note_on_c,2,65,70
4,212109, Note_on_c,2,65,0
4,212373, Note_on_c,2,65,70
4,212673, Note_on_c,2,65,0
4,212937, Note_on_c,2,67,70
4,213237, Note_on_c,2,67,0
4,213501, Note_on_c,2,67,70
4,213801, Note_on_c,2,67,0
4,213933, Program_c,2,45,
4,214049, Note_on_c,2,82,70
4,214099, Note_on_c,2,82,0
4,214625, Note_on_c,2,70,70
4,214675, Note_on_c,2,70,0
4,215193, Note_on_c,2,58,70
4,215243, Note_on_c,2,58,0
4,246529, Program_c,2,48,
4,246937, Note_on_c,2,76,80
4,246937, Note_on_c,2,69,80
4,247027, Note_on_c,2,69,0
4,247027, Note_on_c,2,76,0
4,247027, Note_on_c,2,69,80
4,247027, Note_on_c,2,77,80
4,247117, Note_on_c,2,77,0
4,247117, Note_on_c,2,69,0
4,247285, Note_on_c,2,78,80
4,247285, Note_on_c,2,69,80
4,247375, Note_on_c,2,69,0
4,247375, Note_on_c,2,78,0
4,247375, Note_on_c,2,69,80
4,247375, Note_on_c,2,77,80
4,247465, Note_on_c,2,77,0
4,247465, Note_on_c,2,69,0
4,262657, Program_c,2,45,
4,262681, Note_on_c,2,77,80
4,262681, Note_on_c,2,61,80
4,262681, Note_on_c,2,70,80
4,262731, Note_on_c,2,70,0
4,262731, Note_on_c,2,61,0
4,262731, Note_on_c,2,77,0
4,263285, Note_on_c,2,70,80
4,263285, Note_on_c,2,77,80
4,263285, Note_on_c,2,61,80
4,263335, Note_on_c,2,61,0
4,263335, Note_on_c,2,77,0
4,263335, Note_on_c,2,70,0
4,263897, Note_on_c,2,77,80
4,263897, Note_on_c,2,69,80
4,263947, Note_on_c,2,69,0
4,263947, Note_on_c,2,77,0
4,264509, Note_on_c,2,77,80
4,264509, Note_on_c,2,69,80
4,264559, Note_on_c,2,69,0
4,264559, Note_on_c,2,77,0
4,265093, Note_on_c,2,70,80
4,265093, Note_on_c,2,61,80
4,265093, Note_on_c,2,77,80
4,265143, Note_on_c,2,77,0
4,265143, Note_on_c,2,61,0
4,265143, Note_on_c,2,70,0
4,265685, Note_on_c,2,70,80
4,265685, Note_on_c,2,61,80
4,265685, Note_on_c,2,77,80
4,265735, Note_on_c,2,77,0
4,265735, Note_on_c,2,61,0
4,265735, Note_on_c,2,70,0
4,266301, Note_on_c,2,69,80
4,266301, Note_on_c,2,77,80
4,266351, Note_on_c,2,77,0
4,266351, Note_on_c,2,69,0
4,266913, Note_on_c,2,77,80
4,266913, Note_on_c,2,69,80
4,266963, Note_on_c,2,69,0
4,266963, Note_on_c,2,77,0
4,267537, Note_on_c,2,70,80
4,267537, Note_on_c,2,61,80
4,267537, Note_on_c,2,77,80
4,267587, Note_on_c,2,77,0
4,267587, Note_on_c,2,61,0
4,267587, Note_on_c,2,70,0
4,268121, Note_on_c,2,70,80
4,268121, Note_on_c,2,61,80
4,268121, Note_on_c,2,77,80
4,268171, Note_on_c,2,77,0
4,268171, Note_on_c,2,61,0
4,268171, Note_on_c,2,70,0
4,268741, Note_on_c,2,77,80
4,268741, Note_on_c,2,69,80
4,268791, Note_on_c,2,69,0
4,268791, Note_on_c,2,77,0
4,269345, Note_on_c,2,77,80
4,269345, Note_on_c,2,69,80
4,269395, Note_on_c,2,69,0
4,269395, Note_on_c,2,77,0
4,269941, Note_on_c,2,70,80
4,269941, Note_on_c,2,61,80
4,269941, Note_on_c,2,77,80
4,269991, Note_on_c,2,77,0
4,269991, Note_on_c,2,61,0
4,269991, Note_on_c,2,70,0
4,271129, Note_on_c,2,58,80
4,271129, Note_on_c,2,65,80
4,271179, Note_on_c,2,65,0
4,271179, Note_on_c,2,58,0
4,313345, Control_c,2,11,70
4,313444, Program_c,2,48,
4,313602, Note_on_c,2,63,70
4,313956, Note_on_c,2,63,0
4,313958, Note_on_c,2,65,70
4,314318, Note_on_c,2,65,0
4,314322, Note_on_c,2,67,70
4,314662, Note_on_c,2,67,0
4,314662, Note_on_c,2,63,70
4,315022, Note_on_c,2,63,0
4,315026, Note_on_c,2,65,70
4,315361, Note_on_c,2,65,0
4,315362, Note_on_c,2,67,70
4,315710, Note_on_c,2,68,70
4,315712, Note_on_c,2,67,0
4,316044, Note_on_c,2,68,0
4,316050, Note_on_c,2,63,70
4,316400, Note_on_c,2,63,0
4,316402, Note_on_c,2,65,70
4,316750, Note_on_c,2,65,0
4,316754, Note_on_c,2,58,70
4,317104, Note_on_c,2,58,0
4,317106, Note_on_c,2,65,70
4,317456, Note_on_c,2,65,0
4,317458, Note_on_c,2,58,70
4,317808, Note_on_c,2,58,0
4,317818, Note_on_c,2,65,70
4,318166, Note_on_c,2,65,0
4,318178, Note_on_c,2,60,70
4,318533, Note_on_c,2,60,0
4,318542, Note_on_c,2,65,70
4,318866, Note_on_c,2,60,70
4,318867, Note_on_c,2,65,0
4,319166, Note_on_c,2,60,0
4,319226, Note_on_c,2,63,70
4,319596, Note_on_c,2,63,0
4,319602, Note_on_c,2,65,70
4,319962, Note_on_c,2,65,0
4,319962, Note_on_c,2,67,70
4,320302, Note_on_c,2,67,0
4,320306, Note_on_c,2,63,70
4,320651, Note_on_c,2,63,0
4,320654, Note_on_c,2,65,70
4,320989, Note_on_c,2,65,0
4,321014, Note_on_c,2,67,70
4,321369, Note_on_c,2,67,0
4,321370, Note_on_c,2,68,70
4,321720, Note_on_c,2,68,0
4,321722, Note_on_c,2,63,70
4,322082, Note_on_c,2,63,0
4,322090, Note_on_c,2,65,70
4,322430, Note_on_c,2,65,0
4,322430, Note_on_c,2,58,70
4,322778, Note_on_c,2,58,0
4,322778, Note_on_c,2,65,70
4,323148, Note_on_c,2,65,0
4,323158, Note_on_c,2,58,70
4,323488, Note_on_c,2,58,0
4,323490, Note_on_c,2,65,70
4,323820, Note_on_c,2,65,0
4,323894, Note_on_c,2,60,70
4,324224, Note_on_c,2,60,0
4,325038, Note_on_c,2,65,70
4,325368, Note_on_c,2,65,0
4,325426, Note_on_c,2,58,70
4,325756, Note_on_c,2,58,0
4,325786, Note_on_c,2,65,70
4,326116, Note_on_c,2,65,0
4,326134, Note_on_c,2,58,70
4,326464, Note_on_c,2,58,0
4,326490, Note_on_c,2,65,70
4,326820, Note_on_c,2,65,0
4,326906, Note_on_c,2,60,70
4,327236, Note_on_c,2,60,0
4,328398, Note_on_c,2,79,80
4,328806, Note_on_c,2,79,0
4,328806, Note_on_c,2,73,90
4,329510, Note_on_c,2,73,0
4,329510, Note_on_c,2,74,60
4,329840, Note_on_c,2,74,0
4,331490, Note_on_c,2,65,70
4,331906, Note_on_c,2,65,0
4,331906, Note_on_c,2,64,90
4,332596, Note_on_c,2,64,0
4,332598, Note_on_c,2,65,60
4,332928, Note_on_c,2,65,0
4,333870, Note_on_c,2,65,60
4,336808, Note_on_c,2,65,0
4,336822, Note_on_c,2,70,60
4,337940, Note_on_c,2,70,0
4,337946, Note_on_c,2,68,60
4,338316, Note_on_c,2,68,0
4,338322, Note_on_c,2,67,60
4,338692, Note_on_c,2,67,0
4,338702, Note_on_c,2,65,60
4,339066, Note_on_c,2,63,60
4,339072, Note_on_c,2,65,0
4,339805, Note_on_c,2,63,0
4,339814, Note_on_c,2,60,60
4,340004, Note_on_c,2,60,0
4,340586, Note_on_c,2,65,60
4,340586, Note_on_c,2,69,60
4,341654, Note_on_c,2,69,0
4,341654, Note_on_c,2,65,0
4,341674, Note_on_c,2,65,60
4,341674, Note_on_c,2,69,60
4,342034, Note_on_c,2,69,0
4,342034, Note_on_c,2,65,0
4,342058, Note_on_c,2,70,60
4,342058, Note_on_c,2,65,60
4,342468, Note_on_c,2,65,0
4,342468, Note_on_c,2,70,0
4,344278, Note_on_c,2,66,60
4,345421, Note_on_c,2,66,0
4,345426, Note_on_c,2,67,60
4,345646, Note_on_c,2,67,0
4,345938, Note_on_c,2,65,60
4,348926, Note_on_c,2,65,0
4,348938, Note_on_c,2,70,60
4,350026, Note_on_c,2,70,0
4,350034, Note_on_c,2,68,60
4,350399, Note_on_c,2,68,0
4,350406, Note_on_c,2,67,60
4,350766, Note_on_c,2,67,0
4,350774, Note_on_c,2,65,60
4,351124, Note_on_c,2,65,0
4,351134, Note_on_c,2,63,60
4,351883, Note_on_c,2,63,0
4,351890, Note_on_c,2,60,60
4,352240, Note_on_c,2,60,0
4,352678, Note_on_c,2,67,60
4,354170, Note_on_c,2,67,0
4,354182, Note_on_c,2,71,60
4,355634, Note_on_c,2,71,0
4,355646, Note_on_c,2,67,60
4,357098, Note_on_c,2,67,0
4,357098, Note_on_c,2,71,60
4,358550, Note_on_c,2,71,0
4,380161, Control_c,2,11,110
4,380614, Note_on_c,2,62,120
4,380614, Note_on_c,2,71,120
4,380614, Note_on_c,2,80,120
4,380764, Note_on_c,2,80,0
4,380764, Note_on_c,2,71,0
4,380764, Note_on_c,2,62,0
4,383278, Note_on_c,2,81,120
4,383278, Note_on_c,2,63,120
4,383278, Note_on_c,2,72,120
4,383428, Note_on_c,2,72,0
4,383428, Note_on_c,2,63,0
4,383428, Note_on_c,2,81,0
4,385920, Note_on_c,2,71,120
4,385920, Note_on_c,2,83,120
4,386070, Note_on_c,2,83,0
4,386070, Note_on_c,2,71,0
4,386566, Note_on_c,2,71,120
4,386566, Note_on_c,2,83,120
4,386716, Note_on_c,2,83,0
4,386716, Note_on_c,2,71,0
4,387194, Note_on_c,2,68,120
4,387194, Note_on_c,2,77,120
4,387194, Note_on_c,2,84,120
4,387344, Note_on_c,2,84,0
4,387344, Note_on_c,2,77,0
4,387344, Note_on_c,2,68,0
4,387850, Note_on_c,2,68,120
4,387850, Note_on_c,2,77,120
4,387850, Note_on_c,2,86,120
4,388000, Note_on_c,2,86,0
4,388000, Note_on_c,2,77,0
4,388000, Note_on_c,2,68,0
4,388522, Note_on_c,2,62,120
4,388522, Note_on_c,2,74,120
4,388522, Note_on_c,2,86,120
4,388672, Note_on_c,2,86,0
4,388672, Note_on_c,2,74,0
4,388672, Note_on_c,2,62,0
4,389290, Note_on_c,2,72,120
4,389290, Note_on_c,2,79,120
4,389290, Note_on_c,2,87,120
4,389440, Note_on_c,2,87,0
4,389440, Note_on_c,2,79,0
4,389440, Note_on_c,2,72,0
4,407425, Control_c,2,11,80
4,407514, Note_on_c,2,75,70
4,407884, Note_on_c,2,75,0
4,407894, Note_on_c,2,77,70
4,408254, Note_on_c,2,77,0
4,408262, Note_on_c,2,79,70
4,408607, Note_on_c,2,79,0
4,408622, Note_on_c,2,75,70
4,408967, Note_on_c,2,75,0
4,408976, Note_on_c,2,77,70
4,409321, Note_on_c,2,77,0
4,409326, Note_on_c,2,79,70
4,409676, Note_on_c,2,79,0
4,409687, Note_on_c,2,80,70
4,410047, Note_on_c,2,80,0
4,410068, Note_on_c,2,75,70
4,410398, Note_on_c,2,75,0
4,410402, Note_on_c,2,77,70
4,410777, Note_on_c,2,77,0
4,410786, Note_on_c,2,70,70
4,411126, Note_on_c,2,70,0
4,411134, Note_on_c,2,77,70
4,411509, Note_on_c,2,77,0
4,411518, Note_on_c,2,70,70
4,411863, Note_on_c,2,70,0
4,411870, Note_on_c,2,77,70
4,412215, Note_on_c,2,77,0
4,412227, Note_on_c,2,75,70
4,412577, Note_on_c,2,75,0
4,412590, Note_on_c,2,77,70
4,412940, Note_on_c,2,77,0
4,412958, Note_on_c,2,72,70
4,413258, Note_on_c,2,72,0
4,413322, Note_on_c,2,75,70
4,413672, Note_on_c,2,75,0
4,413682, Note_on_c,2,77,70
4,414037, Note_on_c,2,77,0
4,414054, Note_on_c,2,79,70
4,414404, Note_on_c,2,79,0
4,414410, Note_on_c,2,75,70
4,414760, Note_on_c,2,75,0
4,414770, Note_on_c,2,77,70
4,415120, Note_on_c,2,77,0
4,415130, Note_on_c,2,79,70
4,415480, Note_on_c,2,79,0
4,415494, Note_on_c,2,80,70
4,415839, Note_on_c,2,80,0
4,415846, Note_on_c,2,75,70
4,416196, Note_on_c,2,75,0
4,416210, Note_on_c,2,77,70
4,416560, Note_on_c,2,77,0
4,416578, Note_on_c,2,70,70
4,416928, Note_on_c,2,70,0
4,416942, Note_on_c,2,77,70
4,417292, Note_on_c,2,77,0
4,417312, Note_on_c,2,70,70
4,417662, Note_on_c,2,70,0
4,417690, Note_on_c,2,77,70
4,418040, Note_on_c,2,77,0
4,418054, Note_on_c,2,72,70
4,418404, Note_on_c,2,72,0
4,418414, Note_on_c,2,77,70
4,418764, Note_on_c,2,77,0
4,418786, Note_on_c,2,72,70
4,419136, Note_on_c,2,72,0
4,428545, Control_c,2,11,60
4,428666, Note_on_c,2,56,60
4,428666, Note_on_c,2,63,60
4,429878, Note_on_c,2,63,0
4,429878, Note_on_c,2,56,0
4,431402, Note_on_c,2,56,60
4,431402, Note_on_c,2,63,60
4,432614, Note_on_c,2,63,0
4,432614, Note_on_c,2,56,0
4,433494, Note_on_c,2,63,60
4,433494, Note_on_c,2,56,60
4,433978, Note_on_c,2,56,0
4,433978, Note_on_c,2,63,0
4,434910, Note_on_c,2,63,60
4,434910, Note_on_c,2,56,60
4,435394, Note_on_c,2,56,0
4,435394, Note_on_c,2,63,0
4,442753, Control_c,2,11,85
4,442761, Note_on_c,2,56,70
4,443077, Note_on_c,2,58,70
4,443081, Note_on_c,2,56,0
4,443377, Note_on_c,2,58,0
4,443393, Note_on_c,2,60,70
4,443709, Note_on_c,2,56,70
4,443713, Note_on_c,2,60,0
4,444025, Note_on_c,2,58,70
4,444029, Note_on_c,2,56,0
4,444341, Note_on_c,2,60,70
4,444345, Note_on_c,2,58,0
4,444661, Note_on_c,2,60,0
4,444667, Note_on_c,2,61,70
4,444715, Control_c,2,11,86
4,444977, Note_on_c,2,61,0
4,444983, Note_on_c,2,57,70
4,445303, Note_on_c,2,57,0
4,446678, Control_c,2,11,87
4,447827, Note_on_c,2,58,70
4,448137, Note_on_c,2,58,0
4,448143, Note_on_c,2,60,70
4,448453, Note_on_c,2,60,0
4,448459, Note_on_c,2,62,70
4,448640, Control_c,2,11,88
4,448769, Note_on_c,2,62,0
4,448775, Note_on_c,2,58,70
4,449085, Note_on_c,2,58,0
4,449091, Note_on_c,2,60,70
4,449401, Note_on_c,2,60,0
4,449407, Note_on_c,2,62,70
4,449717, Note_on_c,2,62,0
4,449723, Note_on_c,2,63,70
4,450033, Note_on_c,2,63,0
4,450039, Note_on_c,2,59,70
4,450349, Note_on_c,2,59,0
4,450603, Control_c,2,11,89
4,452565, Control_c,2,11,90
4,452883, Note_on_c,2,72,70
4,453193, Note_on_c,2,72,0
4,453199, Note_on_c,2,74,70
4,453509, Note_on_c,2,74,0
4,453515, Note_on_c,2,75,70
4,453825, Note_on_c,2,75,0
4,453831, Note_on_c,2,71,70
4,454141, Note_on_c,2,71,0
4,454528, Control_c,2,11,91
4,455411, Note_on_c,2,75,70
4,455721, Note_on_c,2,75,0
4,455727, Note_on_c,2,76,70
4,456037, Note_on_c,2,76,0
4,456043, Note_on_c,2,77,70
4,456353, Note_on_c,2,77,0
4,456359, Note_on_c,2,73,70
4,456490, Control_c,2,11,92
4,456669, Note_on_c,2,73,0
4,457939, Note_on_c,2,74,70
4,458089, Note_on_c,2,74,0
4,458097, Note_on_c,2,76,70
4,458247, Note_on_c,2,76,0
4,458255, Note_on_c,2,77,70
4,458405, Note_on_c,2,77,0
4,458413, Note_on_c,2,78,70
4,458453, Control_c,2,11,93
4,458563, Note_on_c,2,78,0
4,458571, Note_on_c,2,74,70
4,458721, Note_on_c,2,74,0
4,458729, Note_on_c,2,76,70
4,458879, Note_on_c,2,76,0
4,458887, Note_on_c,2,78,70
4,459037, Note_on_c,2,78,0
4,459045, Note_on_c,2,79,70
4,459195, Note_on_c,2,79,0
4,459203, Note_on_c,2,76,70
4,459353, Note_on_c,2,76,0
4,459361, Note_on_c,2,78,70
4,459511, Note_on_c,2,78,0
4,459519, Note_on_c,2,79,70
4,459669, Note_on_c,2,79,0
4,459677, Note_on_c,2,80,70
4,459827, Note_on_c,2,80,0
4,459835, Note_on_c,2,76,70
4,459985, Note_on_c,2,76,0
4,459993, Note_on_c,2,78,70
4,460143, Note_on_c,2,78,0
4,460151, Note_on_c,2,80,70
4,460301, Note_on_c,2,80,0
4,460309, Note_on_c,2,81,70
4,460415, Control_c,2,11,94
4,460459, Note_on_c,2,81,0
4,462378, Control_c,2,11,95
4,462995, Note_on_c,2,76,70
4,463145, Note_on_c,2,76,0
4,463153, Note_on_c,2,78,70
4,463303, Note_on_c,2,78,0
4,463311, Note_on_c,2,79,70
4,463461, Note_on_c,2,79,0
4,463469, Note_on_c,2,80,70
4,463619, Note_on_c,2,80,0
4,463627, Note_on_c,2,76,70
4,463777, Note_on_c,2,76,0
4,463785, Note_on_c,2,78,70
4,463935, Note_on_c,2,78,0
4,463943, Note_on_c,2,80,70
4,464093, Note_on_c,2,80,0
4,464101, Note_on_c,2,81,70
4,464251, Note_on_c,2,81,0
4,464259, Note_on_c,2,78,70
4,464340, Control_c,2,11,96
4,464409, Note_on_c,2,78,0
4,464417, Note_on_c,2,80,70
4,464567, Note_on_c,2,80,0
4,464575, Note_on_c,2,81,70
4,464725, Note_on_c,2,81,0
4,464733, Note_on_c,2,82,70
4,464883, Note_on_c,2,82,0
4,464891, Note_on_c,2,78,70
4,465041, Note_on_c,2,78,0
4,465049, Note_on_c,2,80,70
4,465199, Note_on_c,2,80,0
4,465207, Note_on_c,2,82,70
4,465357, Note_on_c,2,82,0
4,465365, Note_on_c,2,83,70
4,465515, Note_on_c,2,83,0
4,466303, Control_c,2,11,97
4,468051, Note_on_c,2,83,70
4,468201, Note_on_c,2,83,0
4,468209, Note_on_c,2,82,70
4,468266, Control_c,2,11,98
4,468359, Note_on_c,2,82,0
4,468367, Note_on_c,2,81,70
4,468517, Note_on_c,2,81,0
4,468525, Note_on_c,2,80,70
4,468675, Note_on_c,2,80,0
4,468683, Note_on_c,2,79,70
4,468833, Note_on_c,2,79,0
4,468841, Note_on_c,2,78,70
4,468991, Note_on_c,2,78,0
4,468999, Note_on_c,2,77,70
4,469149, Note_on_c,2,77,0
4,469157, Note_on_c,2,78,70
4,469307, Note_on_c,2,78,0
4,469315, Note_on_c,2,81,70
4,469465, Note_on_c,2,81,0
4,469473, Note_on_c,2,82,70
4,469623, Note_on_c,2,82,0
4,469631, Note_on_c,2,83,70
4,469781, Note_on_c,2,83,0
4,469789, Note_on_c,2,84,70
4,469939, Note_on_c,2,84,0
4,469947, Note_on_c,2,85,70
4,470097, Note_on_c,2,85,0
4,470105, Note_on_c,2,86,70
4,470228, Control_c,2,11,99
4,470255, Note_on_c,2,86,0
4,470263, Note_on_c,2,87,70
4,470413, Note_on_c,2,87,0
4,470421, Note_on_c,2,88,70
4,470571, Note_on_c,2,88,0
4,470579, Note_on_c,2,76,70
4,470889, Note_on_c,2,76,0
4,470895, Note_on_c,2,78,70
4,471205, Note_on_c,2,78,0
4,471211, Note_on_c,2,80,70
4,471521, Note_on_c,2,80,0
4,471527, Note_on_c,2,76,70
4,471837, Note_on_c,2,76,0
4,471843, Note_on_c,2,78,70
4,472153, Note_on_c,2,78,0
4,472159, Note_on_c,2,80,70
4,472191, Control_c,2,11,100
4,472469, Note_on_c,2,80,0
4,472485, Note_on_c,2,81,70
4,472795, Note_on_c,2,81,0
4,472801, Note_on_c,2,76,70
4,473111, Note_on_c,2,76,0
4,473117, Note_on_c,2,81,70
4,473267, Note_on_c,2,81,0
4,473275, Note_on_c,2,80,70
4,473425, Note_on_c,2,80,0
4,473433, Note_on_c,2,79,70
4,473583, Note_on_c,2,79,0
4,473591, Note_on_c,2,78,70
4,473741, Note_on_c,2,78,0
4,473749, Note_on_c,2,77,70
4,473899, Note_on_c,2,77,0
4,473907, Note_on_c,2,76,70
4,474057, Note_on_c,2,76,0
4,474065, Note_on_c,2,75,70
4,474153, Control_c,2,11,101
4,474215, Note_on_c,2,75,0
4,474223, Note_on_c,2,76,70
4,474373, Note_on_c,2,76,0
4,474381, Note_on_c,2,79,70
4,474531, Note_on_c,2,79,0
4,474539, Note_on_c,2,80,70
4,474689, Note_on_c,2,80,0
4,474697, Note_on_c,2,81,70
4,474847, Note_on_c,2,81,0
4,474855, Note_on_c,2,82,70
4,475005, Note_on_c,2,82,0
4,475013, Note_on_c,2,83,70
4,475163, Note_on_c,2,83,0
4,475171, Note_on_c,2,84,70
4,475321, Note_on_c,2,84,0
4,475329, Note_on_c,2,85,70
4,475479, Note_on_c,2,85,0
4,475487, Note_on_c,2,86,70
4,475637, Note_on_c,2,86,0
4,475645, Note_on_c,2,74,80
4,475955, Note_on_c,2,74,0
4,475961, Note_on_c,2,76,80
4,476116, Control_c,2,11,102
4,476271, Note_on_c,2,76,0
4,476277, Note_on_c,2,78,80
4,476587, Note_on_c,2,78,0
4,476593, Note_on_c,2,74,80
4,476903, Note_on_c,2,74,0
4,476909, Note_on_c,2,76,80
4,477219, Note_on_c,2,76,0
4,477225, Note_on_c,2,78,80
4,477535, Note_on_c,2,78,0
4,477551, Note_on_c,2,79,80
4,477861, Note_on_c,2,79,0
4,477867, Note_on_c,2,74,80
4,478078, Control_c,2,11,103
4,478177, Note_on_c,2,74,0
4,478183, Note_on_c,2,79,90
4,478303, Note_on_c,2,79,0
4,478341, Note_on_c,2,79,90
4,478461, Note_on_c,2,79,0
4,478499, Note_on_c,2,81,90
4,478619, Note_on_c,2,81,0
4,478657, Note_on_c,2,81,90
4,478777, Note_on_c,2,81,0
4,478815, Note_on_c,2,83,90
4,478935, Note_on_c,2,83,0
4,478973, Note_on_c,2,83,90
4,479093, Note_on_c,2,83,0
4,479131, Note_on_c,2,79,90
4,479251, Note_on_c,2,79,0
4,479289, Note_on_c,2,79,90
4,479409, Note_on_c,2,79,0
4,479447, Note_on_c,2,81,90
4,479567, Note_on_c,2,81,0
4,479605, Note_on_c,2,81,90
4,479725, Note_on_c,2,81,0
4,479763, Note_on_c,2,83,90
4,479883, Note_on_c,2,83,0
4,479921, Note_on_c,2,83,90
4,480041, Note_on_c,2,83,0
4,480041, Control_c,2,11,104
4,480089, Note_on_c,2,84,90
4,480209, Note_on_c,2,84,0
4,480247, Note_on_c,2,84,90
4,480367, Note_on_c,2,84,0
4,480405, Note_on_c,2,86,90
4,480525, Note_on_c,2,86,0
4,480563, Note_on_c,2,86,90
4,480683, Note_on_c,2,86,0
4,480723, Note_on_c,2,79,90
4,480843, Note_on_c,2,79,0
4,480881, Note_on_c,2,79,90
4,481001, Note_on_c,2,79,0
4,481039, Note_on_c,2,81,90
4,481159, Note_on_c,2,81,0
4,481197, Note_on_c,2,81,90
4,481317, Note_on_c,2,81,0
4,481355, Note_on_c,2,83,90
4,481475, Note_on_c,2,83,0
4,481513, Note_on_c,2,83,90
4,481633, Note_on_c,2,83,0
4,481671, Note_on_c,2,79,90
4,481791, Note_on_c,2,79,0
4,481829, Note_on_c,2,79,90
4,481949, Note_on_c,2,79,0
4,481987, Note_on_c,2,81,90
4,482003, Control_c,2,11,105
4,482107, Note_on_c,2,81,0
4,482145, Note_on_c,2,81,90
4,482265, Note_on_c,2,81,0
4,482303, Note_on_c,2,83,90
4,482423, Note_on_c,2,83,0
4,482461, Note_on_c,2,83,90
4,482581, Note_on_c,2,83,0
4,482629, Note_on_c,2,84,90
4,482749, Note_on_c,2,84,0
4,482787, Note_on_c,2,84,90
4,482907, Note_on_c,2,84,0
4,482945, Note_on_c,2,86,90
4,483065, Note_on_c,2,86,0
4,483103, Note_on_c,2,86,90
4,483223, Note_on_c,2,86,0
4,483261, Note_on_c,2,84,90
4,483381, Note_on_c,2,84,0
4,483419, Note_on_c,2,84,90
4,483539, Note_on_c,2,84,0
4,483577, Note_on_c,2,86,90
4,483697, Note_on_c,2,86,0
4,483735, Note_on_c,2,86,90
4,483855, Note_on_c,2,86,0
4,483893, Note_on_c,2,88,90
4,483966, Control_c,2,11,106
4,484013, Note_on_c,2,88,0
4,484051, Note_on_c,2,88,90
4,484171, Note_on_c,2,88,0
4,484209, Note_on_c,2,84,90
4,484329, Note_on_c,2,84,0
4,484367, Note_on_c,2,84,90
4,484487, Note_on_c,2,84,0
4,484525, Note_on_c,2,86,90
4,484645, Note_on_c,2,86,0
4,484683, Note_on_c,2,86,90
4,484803, Note_on_c,2,86,0
4,484841, Note_on_c,2,88,90
4,484961, Note_on_c,2,88,0
4,484999, Note_on_c,2,88,90
4,485119, Note_on_c,2,88,0
4,485167, Note_on_c,2,89,90
4,485287, Note_on_c,2,89,0
4,485325, Note_on_c,2,89,90
4,485445, Note_on_c,2,89,0
4,485483, Note_on_c,2,91,90
4,485603, Note_on_c,2,91,0
4,485641, Note_on_c,2,91,90
4,485761, Note_on_c,2,91,0
4,485799, Note_on_c,2,84,90
4,485919, Note_on_c,2,84,0
4,485928, Control_c,2,11,107
4,485957, Note_on_c,2,84,90
4,486077, Note_on_c,2,84,0
4,486115, Note_on_c,2,86,90
4,486235, Note_on_c,2,86,0
4,486273, Note_on_c,2,86,90
4,486393, Note_on_c,2,86,0
4,486431, Note_on_c,2,88,90
4,486551, Note_on_c,2,88,0
4,486589, Note_on_c,2,88,90
4,486709, Note_on_c,2,88,0
4,486747, Note_on_c,2,84,90
4,486867, Note_on_c,2,84,0
4,486905, Note_on_c,2,84,90
4,487025, Note_on_c,2,84,0
4,487063, Note_on_c,2,86,90
4,487183, Note_on_c,2,86,0
4,487221, Note_on_c,2,86,90
4,487341, Note_on_c,2,86,0
4,487379, Note_on_c,2,88,90
4,487499, Note_on_c,2,88,0
4,487537, Note_on_c,2,88,90
4,487657, Note_on_c,2,88,0
4,487705, Note_on_c,2,89,90
4,487825, Note_on_c,2,89,0
4,487863, Note_on_c,2,89,90
4,487891, Control_c,2,11,108
4,487983, Note_on_c,2,89,0
4,488021, Note_on_c,2,91,90
4,488141, Note_on_c,2,91,0
4,488179, Note_on_c,2,91,90
4,488299, Note_on_c,2,91,0
4,488337, Note_on_c,2,84,90
4,488427, Note_on_c,2,84,0
4,488442, Note_on_c,2,84,90
4,488532, Note_on_c,2,84,0
4,488547, Note_on_c,2,84,90
4,488637, Note_on_c,2,84,0
4,488653, Note_on_c,2,86,90
4,488773, Note_on_c,2,86,0
4,488811, Note_on_c,2,86,90
4,488931, Note_on_c,2,86,0
4,488969, Note_on_c,2,88,90
4,489089, Note_on_c,2,88,0
4,489127, Note_on_c,2,88,90
4,489247, Note_on_c,2,88,0
4,489285, Note_on_c,2,84,90
4,489405, Note_on_c,2,84,0
4,489443, Note_on_c,2,84,90
4,489563, Note_on_c,2,84,0
4,489601, Note_on_c,2,86,90
4,489721, Note_on_c,2,86,0
4,489759, Note_on_c,2,86,90
4,489854, Control_c,2,11,109
4,489879, Note_on_c,2,86,0
4,489917, Note_on_c,2,88,90
4,490037, Note_on_c,2,88,0
4,490075, Note_on_c,2,88,90
4,490195, Note_on_c,2,88,0
4,490243, Note_on_c,2,89,90
4,490363, Note_on_c,2,89,0
4,490401, Note_on_c,2,89,90
4,490521, Note_on_c,2,89,0
4,490559, Note_on_c,2,83,90
4,490679, Note_on_c,2,83,0
4,490770, Note_on_c,2,89,90
4,490970, Note_on_c,2,89,0
4,490981, Note_on_c,2,91,90
4,491181, Note_on_c,2,91,0
4,491192, Note_on_c,2,92,90
4,491392, Note_on_c,2,92,0
4,491403, Note_on_c,2,86,90
4,491603, Note_on_c,2,86,0
4,491614, Note_on_c,2,88,90
4,491814, Note_on_c,2,88,0
4,491816, Control_c,2,11,110
4,491825, Note_on_c,2,89,90
4,492025, Note_on_c,2,89,0
4,492036, Note_on_c,2,89,90
4,492236, Note_on_c,2,89,0
4,492247, Note_on_c,2,91,90
4,492447, Note_on_c,2,91,0
4,492458, Note_on_c,2,92,90
4,492658, Note_on_c,2,92,0
4,492669, Note_on_c,2,86,90
4,492869, Note_on_c,2,86,0
4,492880, Note_on_c,2,88,90
4,493080, Note_on_c,2,88,0
4,493091, Note_on_c,2,89,90
4,493291, Note_on_c,2,89,0
4,493407, Note_on_c,2,84,90
4,493497, Note_on_c,2,84,0
4,493512, Note_on_c,2,84,90
4,493602, Note_on_c,2,84,0
4,493617, Note_on_c,2,84,90
4,493707, Note_on_c,2,84,0
4,493723, Note_on_c,2,86,90
4,493779, Control_c,2,11,111
4,493843, Note_on_c,2,86,0
4,493881, Note_on_c,2,86,90
4,494001, Note_on_c,2,86,0
4,494039, Note_on_c,2,88,90
4,494159, Note_on_c,2,88,0
4,494197, Note_on_c,2,88,90
4,494317, Note_on_c,2,88,0
4,494355, Note_on_c,2,84,90
4,494475, Note_on_c,2,84,0
4,494513, Note_on_c,2,84,90
4,494633, Note_on_c,2,84,0
4,494671, Note_on_c,2,86,90
4,494791, Note_on_c,2,86,0
4,494829, Note_on_c,2,86,90
4,494949, Note_on_c,2,86,0
4,494987, Note_on_c,2,88,90
4,495107, Note_on_c,2,88,0
4,495145, Note_on_c,2,88,90
4,495265, Note_on_c,2,88,0
4,495313, Note_on_c,2,89,90
4,495433, Note_on_c,2,89,0
4,495471, Note_on_c,2,89,90
4,495591, Note_on_c,2,89,0
4,495629, Note_on_c,2,83,90
4,495741, Control_c,2,11,112
4,495829, Note_on_c,2,83,0
4,495840, Note_on_c,2,89,90
4,496040, Note_on_c,2,89,0
4,496051, Note_on_c,2,91,90
4,496251, Note_on_c,2,91,0
4,496262, Note_on_c,2,92,90
4,496462, Note_on_c,2,92,0
4,496473, Note_on_c,2,86,90
4,496673, Note_on_c,2,86,0
4,496684, Note_on_c,2,88,90
4,496884, Note_on_c,2,88,0
4,496895, Note_on_c,2,89,90
4,497095, Note_on_c,2,89,0
4,497106, Note_on_c,2,89,90
4,497306, Note_on_c,2,89,0
4,497317, Note_on_c,2,91,90
4,497517, Note_on_c,2,91,0
4,497528, Note_on_c,2,92,90
4,497704, Control_c,2,11,113
4,497728, Note_on_c,2,92,0
4,497739, Note_on_c,2,86,90
4,497939, Note_on_c,2,86,0
4,497950, Note_on_c,2,88,90
4,498150, Note_on_c,2,88,0
4,498161, Note_on_c,2,89,90
4,498361, Note_on_c,2,89,0
4,498372, Note_on_c,2,89,90
4,498572, Note_on_c,2,89,0
4,498583, Note_on_c,2,91,90
4,498783, Note_on_c,2,91,0
4,498794, Note_on_c,2,92,90
4,498994, Note_on_c,2,92,0
4,499005, Note_on_c,2,86,90
4,499205, Note_on_c,2,86,0
4,499216, Note_on_c,2,88,90
4,499416, Note_on_c,2,88,0
4,499427, Note_on_c,2,89,90
4,499627, Note_on_c,2,89,0
4,499638, Note_on_c,2,89,90
4,499666, Control_c,2,11,114
4,499838, Note_on_c,2,89,0
4,499849, Note_on_c,2,91,90
4,500049, Note_on_c,2,91,0
4,500060, Note_on_c,2,92,90
4,500260, Note_on_c,2,92,0
4,500271, Note_on_c,2,86,90
4,500471, Note_on_c,2,86,0
4,500482, Note_on_c,2,88,90
4,500682, Note_on_c,2,88,0
4,500693, Note_on_c,2,89,90
4,500893, Note_on_c,2,89,0
4,500904, Note_on_c,2,89,90
4,501104, Note_on_c,2,89,0
4,501115, Note_on_c,2,91,90
4,501315, Note_on_c,2,91,0
4,501326, Note_on_c,2,93,90
4,501526, Note_on_c,2,93,0
4,501537, Note_on_c,2,86,90
4,501629, Control_c,2,11,115
4,501737, Note_on_c,2,86,0
4,501748, Note_on_c,2,88,90
4,501948, Note_on_c,2,88,0
4,501959, Note_on_c,2,89,90
4,502159, Note_on_c,2,89,0
4,502170, Note_on_c,2,89,90
4,502370, Note_on_c,2,89,0
4,502381, Note_on_c,2,91,90
4,502581, Note_on_c,2,91,0
4,502592, Note_on_c,2,93,90
4,502792, Note_on_c,2,93,0
4,502803, Note_on_c,2,86,90
4,503003, Note_on_c,2,86,0
4,503014, Note_on_c,2,88,90
4,503214, Note_on_c,2,88,0
4,503225, Note_on_c,2,89,90
4,503425, Note_on_c,2,89,0
4,503436, Note_on_c,2,89,90
4,503591, Control_c,2,11,116
4,503636, Note_on_c,2,89,0
4,503647, Note_on_c,2,91,90
4,503847, Note_on_c,2,91,0
4,503858, Note_on_c,2,93,90
4,504008, Note_on_c,2,93,0
4,504016, Note_on_c,2,91,90
4,504166, Note_on_c,2,91,0
4,504174, Note_on_c,2,89,90
4,504324, Note_on_c,2,89,0
4,504332, Note_on_c,2,88,90
4,504482, Note_on_c,2,88,0
4,504490, Note_on_c,2,89,90
4,504640, Note_on_c,2,89,0
4,504648, Note_on_c,2,88,90
4,504798, Note_on_c,2,88,0
4,504806, Note_on_c,2,86,90
4,504956, Note_on_c,2,86,0
4,504964, Note_on_c,2,85,90
4,505114, Note_on_c,2,85,0
4,505122, Note_on_c,2,86,90
4,505272, Note_on_c,2,86,0
4,505280, Note_on_c,2,84,90
4,505430, Note_on_c,2,84,0
4,505438, Note_on_c,2,82,90
4,505554, Control_c,2,11,117
4,505588, Note_on_c,2,82,0
4,505596, Note_on_c,2,81,90
4,505746, Note_on_c,2,81,0
4,505754, Note_on_c,2,89,90
4,505904, Note_on_c,2,89,0
4,505912, Note_on_c,2,87,90
4,506062, Note_on_c,2,87,0
4,506070, Note_on_c,2,86,90
4,506220, Note_on_c,2,86,0
4,506228, Note_on_c,2,85,90
4,506378, Note_on_c,2,85,0
4,506386, Note_on_c,2,86,90
4,506536, Note_on_c,2,86,0
4,506544, Note_on_c,2,84,90
4,506694, Note_on_c,2,84,0
4,506702, Note_on_c,2,82,90
4,506852, Note_on_c,2,82,0
4,506860, Note_on_c,2,81,90
4,507010, Note_on_c,2,81,0
4,507018, Note_on_c,2,82,90
4,507168, Note_on_c,2,82,0
4,507176, Note_on_c,2,81,90
4,507326, Note_on_c,2,81,0
4,507334, Note_on_c,2,79,90
4,507484, Note_on_c,2,79,0
4,507492, Note_on_c,2,77,90
4,507516, Control_c,2,11,118
4,507642, Note_on_c,2,77,0
4,507650, Note_on_c,2,79,90
4,507800, Note_on_c,2,79,0
4,507808, Note_on_c,2,77,90
4,507958, Note_on_c,2,77,0
4,507966, Note_on_c,2,75,90
4,508116, Note_on_c,2,75,0
4,508124, Note_on_c,2,74,90
4,508274, Note_on_c,2,74,0
4,508282, Note_on_c,2,75,90
4,508432, Note_on_c,2,75,0
4,508440, Note_on_c,2,74,90
4,508590, Note_on_c,2,74,0
4,508598, Note_on_c,2,72,90
4,508748, Note_on_c,2,72,0
4,508756, Note_on_c,2,70,90
4,508906, Note_on_c,2,70,0
4,508914, Note_on_c,2,79,90
4,509064, Note_on_c,2,79,0
4,509072, Note_on_c,2,77,90
4,509222, Note_on_c,2,77,0
4,509230, Note_on_c,2,75,90
4,509380, Note_on_c,2,75,0
4,509388, Note_on_c,2,74,90
4,509479, Control_c,2,11,119
4,509538, Note_on_c,2,74,0
4,509546, Note_on_c,2,75,90
4,509696, Note_on_c,2,75,0
4,509704, Note_on_c,2,74,90
4,509854, Note_on_c,2,74,0
4,509862, Note_on_c,2,72,90
4,510012, Note_on_c,2,72,0
4,510020, Note_on_c,2,70,90
4,510170, Note_on_c,2,70,0
4,510178, Note_on_c,2,79,90
4,510328, Note_on_c,2,79,0
4,510336, Note_on_c,2,77,90
4,510486, Note_on_c,2,77,0
4,510494, Note_on_c,2,75,90
4,510644, Note_on_c,2,75,0
4,510652, Note_on_c,2,74,90
4,510802, Note_on_c,2,74,0
4,510810, Note_on_c,2,75,90
4,510960, Note_on_c,2,75,0
4,510968, Note_on_c,2,74,90
4,511118, Note_on_c,2,74,0
4,511126, Note_on_c,2,72,90
4,511276, Note_on_c,2,72,0
4,511284, Note_on_c,2,70,90
4,511434, Note_on_c,2,70,0
4,511442, Control_c,2,11,120
4,511442, Note_on_c,2,75,90
4,511442, Note_on_c,2,70,90
4,511642, Note_on_c,2,70,0
4,511642, Note_on_c,2,75,0
4,561025, Control_c,2,11,100
4,561252, Note_on_c,2,76,70
4,561686, Note_on_c,2,76,0
4,561692, Note_on_c,2,75,70
4,561902, Note_on_c,2,75,0
4,561916, Note_on_c,2,73,70
4,562416, Note_on_c,2,73,0
4,562416, Note_on_c,2,71,70
4,562800, Note_on_c,2,71,0
4,563148, Note_on_c,2,70,70
4,563338, Note_on_c,2,70,0
4,563340, Note_on_c,2,71,70
4,563530, Note_on_c,2,71,0
4,563532, Note_on_c,2,76,70
4,563966, Note_on_c,2,75,70
4,564066, Note_on_c,2,76,0
4,564154, Note_on_c,2,75,0
4,564190, Note_on_c,2,73,70
4,564630, Note_on_c,2,71,70
4,564714, Note_on_c,2,73,0
4,565164, Note_on_c,2,71,0
4,565680, Note_on_c,2,81,70
4,566231, Note_on_c,2,81,0
4,566234, Note_on_c,2,80,70
4,566444, Note_on_c,2,80,0
4,566450, Note_on_c,2,80,70
4,566834, Note_on_c,2,80,0
4,566834, Note_on_c,2,78,70
4,567218, Note_on_c,2,78,0
4,567822, Note_on_c,2,77,70
4,568000, Note_on_c,2,78,70
4,568002, Note_on_c,2,77,0
4,568216, Note_on_c,2,78,0
4,568216, Note_on_c,2,81,70
4,568600, Note_on_c,2,81,0
4,568648, Note_on_c,2,80,70
4,568848, Note_on_c,2,80,0
4,568864, Note_on_c,2,80,70
4,569198, Note_on_c,2,78,60
4,569296, Note_on_c,2,80,0
4,569630, Note_on_c,2,78,0
4,570268, Note_on_c,2,75,70
4,570784, Note_on_c,2,75,0
4,570788, Note_on_c,2,73,70
4,571000, Note_on_c,2,73,0
4,571000, Note_on_c,2,73,70
4,571368, Note_on_c,2,73,0
4,571368, Note_on_c,2,71,70
4,571800, Note_on_c,2,71,0
4,572164, Note_on_c,2,67,70
4,572352, Note_on_c,2,67,0
4,572352, Note_on_c,2,68,70
4,572532, Note_on_c,2,68,0
4,572540, Note_on_c,2,75,70
4,572910, Note_on_c,2,75,0
4,572916, Note_on_c,2,73,70
4,573096, Note_on_c,2,73,0
4,573104, Note_on_c,2,73,70
4,573284, Note_on_c,2,73,0
4,573292, Note_on_c,2,70,70
4,573472, Note_on_c,2,70,0
4,573480, Note_on_c,2,71,70
4,573780, Note_on_c,2,71,0
4,574432, Note_on_c,2,67,70
4,574612, Note_on_c,2,67,0
4,574620, Note_on_c,2,68,70
4,574800, Note_on_c,2,68,0
4,574808, Note_on_c,2,80,70
4,575160, Note_on_c,2,80,0
4,575160, Note_on_c,2,78,70
4,575340, Note_on_c,2,78,0
4,575340, Note_on_c,2,78,70
4,575692, Note_on_c,2,78,0
4,575692, Note_on_c,2,76,70
4,576044, Note_on_c,2,76,0
4,576648, Note_on_c,2,72,70
4,576828, Note_on_c,2,72,0
4,576836, Note_on_c,2,73,70
4,577016, Note_on_c,2,73,0
4,577024, Note_on_c,2,80,70
4,577376, Note_on_c,2,80,0
4,577376, Note_on_c,2,78,70
4,577556, Note_on_c,2,78,0
4,577556, Note_on_c,2,78,70
4,577736, Note_on_c,2,78,0
4,577736, Note_on_c,2,75,70
4,577916, Note_on_c,2,75,0
4,577918, Note_on_c,2,76,70
4,578218, Note_on_c,2,76,0
4,578864, Note_on_c,2,72,70
4,579044, Note_on_c,2,72,0
4,579052, Note_on_c,2,73,70
4,579232, Note_on_c,2,73,0
4,579240, Note_on_c,2,85,70
4,579592, Note_on_c,2,85,0
4,579592, Note_on_c,2,83,70
4,579772, Note_on_c,2,83,0
4,579772, Note_on_c,2,83,70
4,580132, Note_on_c,2,83,0
4,580134, Note_on_c,2,81,70
4,580434, Note_on_c,2,81,0
4,581096, Note_on_c,2,77,70
4,581276, Note_on_c,2,77,0
4,581284, Note_on_c,2,78,70
4,581464, Note_on_c,2,78,0
4,581472, Note_on_c,2,85,70
4,581824, Note_on_c,2,85,0
4,581824, Control_c,2,11,100
4,581824, Note_on_c,2,83,70
4,582004, Note_on_c,2,83,0
4,582004, Note_on_c,2,83,70
4,582117, Control_c,2,11,101
4,582184, Note_on_c,2,83,0
4,582184, Note_on_c,2,80,71
4,582364, Note_on_c,2,80,0
4,582366, Note_on_c,2,81,72
4,582410, Control_c,2,11,102
4,582666, Note_on_c,2,81,0
4,582703, Control_c,2,11,103
4,582996, Control_c,2,11,104
4,583290, Control_c,2,11,105
4,583312, Note_on_c,2,77,72
4,583502, Note_on_c,2,77,0
4,583508, Note_on_c,2,78,72
4,583583, Control_c,2,11,106
4,583693, Note_on_c,2,78,0
4,583698, Note_on_c,2,83,79
4,583778, Note_on_c,2,83,0
4,583793, Note_on_c,2,83,80
4,583873, Note_on_c,2,83,0
4,583876, Control_c,2,11,107
4,583888, Note_on_c,2,80,80
4,583968, Note_on_c,2,80,0
4,583983, Note_on_c,2,80,81
4,584063, Note_on_c,2,80,0
4,584078, Note_on_c,2,81,81
4,584158, Note_on_c,2,81,0
4,584169, Control_c,2,11,108
4,584173, Note_on_c,2,81,82
4,584253, Note_on_c,2,81,0
4,584268, Note_on_c,2,83,82
4,584348, Note_on_c,2,83,0
4,584363, Note_on_c,2,83,82
4,584443, Note_on_c,2,83,0
4,584458, Note_on_c,2,80,83
4,584462, Control_c,2,11,109
4,584538, Note_on_c,2,80,0
4,584553, Note_on_c,2,80,83
4,584633, Note_on_c,2,80,0
4,584648, Note_on_c,2,81,84
4,584728, Note_on_c,2,81,0
4,584743, Note_on_c,2,81,84
4,584756, Control_c,2,11,110
4,584823, Note_on_c,2,81,0
4,584838, Note_on_c,2,83,85
4,584918, Note_on_c,2,83,0
4,584933, Note_on_c,2,83,85
4,585013, Note_on_c,2,83,0
4,585028, Note_on_c,2,80,86
4,585049, Control_c,2,11,111
4,585108, Note_on_c,2,80,0
4,585123, Note_on_c,2,80,86
4,585203, Note_on_c,2,80,0
4,585218, Note_on_c,2,82,87
4,585298, Note_on_c,2,82,0
4,585313, Note_on_c,2,82,87
4,585342, Control_c,2,11,112
4,585393, Note_on_c,2,82,0
4,585408, Note_on_c,2,83,88
4,585488, Note_on_c,2,83,0
4,585503, Note_on_c,2,83,88
4,585583, Note_on_c,2,83,0
4,585598, Note_on_c,2,81,89
4,585635, Control_c,2,11,113
4,585678, Note_on_c,2,81,0
4,585693, Note_on_c,2,81,89
4,585773, Note_on_c,2,81,0
4,585788, Note_on_c,2,82,90
4,585868, Note_on_c,2,82,0
4,585883, Note_on_c,2,82,90
4,585928, Control_c,2,11,114
4,585963, Note_on_c,2,82,0
4,585978, Note_on_c,2,83,91
4,586058, Note_on_c,2,83,0
4,586073, Note_on_c,2,83,91
4,586153, Note_on_c,2,83,0
4,586168, Note_on_c,2,81,92
4,586222, Control_c,2,11,115
4,586248, Note_on_c,2,81,0
4,586263, Note_on_c,2,81,92
4,586343, Note_on_c,2,81,0
4,586358, Note_on_c,2,82,93
4,586438, Note_on_c,2,82,0
4,586453, Note_on_c,2,82,93
4,586515, Control_c,2,11,116
4,586533, Note_on_c,2,82,0
4,586548, Note_on_c,2,83,94
4,586628, Note_on_c,2,83,0
4,586643, Note_on_c,2,83,94
4,586723, Note_on_c,2,83,0
4,586738, Note_on_c,2,82,95
4,586808, Control_c,2,11,117
4,586818, Note_on_c,2,82,0
4,586833, Note_on_c,2,82,95
4,586913, Note_on_c,2,82,0
4,586928, Note_on_c,2,83,96
4,587008, Note_on_c,2,83,0
4,587023, Note_on_c,2,83,96
4,587101, Control_c,2,11,118
4,587103, Note_on_c,2,83,0
4,587118, Note_on_c,2,83,97
4,587198, Note_on_c,2,83,0
4,587213, Note_on_c,2,83,97
4,587293, Note_on_c,2,83,0
4,587308, Note_on_c,2,82,98
4,587388, Note_on_c,2,82,0
4,587394, Control_c,2,11,119
4,587403, Note_on_c,2,82,98
4,587483, Note_on_c,2,82,0
4,587498, Note_on_c,2,83,99
4,587578, Note_on_c,2,83,0
4,587593, Note_on_c,2,83,99
4,587673, Note_on_c,2,83,0
4,587688, Control_c,2,11,120
4,587688, Note_on_c,2,83,100
4,587888, Note_on_c,2,83,0
4,588828, Note_on_c,2,78,100
4,588828, Note_on_c,2,83,100
4,589028, Note_on_c,2,83,0
4,589028, Note_on_c,2,78,0
4,589968, Note_on_c,2,71,100
4,589968, Note_on_c,2,83,100
4,590168, Note_on_c,2,83,0
4,590168, Note_on_c,2,71,0
4,591108, Note_on_c,2,78,100
4,591108, Note_on_c,2,83,100
4,591308, Note_on_c,2,83,0
4,591308, Note_on_c,2,78,0
4,595684, Control_c,2,11,80
4,595847, Note_on_c,2,73,70
4,595947, Note_on_c,2,73,0
4,595947, Note_on_c,2,75,70
4,596047, Note_on_c,2,75,0
4,596151, Note_on_c,2,76,70
4,596251, Note_on_c,2,76,0
4,596255, Note_on_c,2,75,70
4,596355, Note_on_c,2,75,0
4,596467, Note_on_c,2,78,70
4,596567, Note_on_c,2,78,0
4,596571, Note_on_c,2,76,70
4,596671, Note_on_c,2,76,0
4,596775, Note_on_c,2,75,70
4,596875, Note_on_c,2,75,0
4,596875, Note_on_c,2,73,70
4,596975, Note_on_c,2,73,0
4,600659, Note_on_c,2,75,70
4,600759, Note_on_c,2,75,0
4,600759, Note_on_c,2,77,70
4,600859, Note_on_c,2,77,0
4,600963, Note_on_c,2,78,70
4,601063, Note_on_c,2,78,0
4,601067, Note_on_c,2,77,70
4,601167, Note_on_c,2,77,0
4,601279, Note_on_c,2,80,70
4,601379, Note_on_c,2,80,0
4,601383, Note_on_c,2,78,70
4,601483, Note_on_c,2,78,0
4,601587, Note_on_c,2,77,70
4,601687, Note_on_c,2,77,0
4,601687, Note_on_c,2,75,70
4,601787, Note_on_c,2,75,0
4,603043, Note_on_c,2,74,70
4,603143, Note_on_c,2,74,0
4,603143, Note_on_c,2,76,70
4,603243, Note_on_c,2,76,0
4,603343, Note_on_c,2,77,70
4,603443, Note_on_c,2,77,0
4,603443, Note_on_c,2,76,70
4,603543, Note_on_c,2,76,0
4,603659, Note_on_c,2,79,70
4,603759, Note_on_c,2,79,0
4,603759, Note_on_c,2,77,70
4,603859, Note_on_c,2,77,0
4,603995, Note_on_c,2,76,70
4,604095, Note_on_c,2,76,0
4,604095, Note_on_c,2,77,70
4,604195, Note_on_c,2,77,0
4,605451, Note_on_c,2,76,70
4,605551, Note_on_c,2,76,0
4,605551, Note_on_c,2,78,70
4,605651, Note_on_c,2,78,0
4,605751, Note_on_c,2,79,70
4,605851, Note_on_c,2,79,0
4,605851, Note_on_c,2,78,70
4,605951, Note_on_c,2,78,0
4,606067, Note_on_c,2,81,70
4,606167, Note_on_c,2,81,0
4,606177, Note_on_c,2,79,70
4,606277, Note_on_c,2,79,0
4,606403, Note_on_c,2,78,70
4,606503, Note_on_c,2,78,0
4,606503, Note_on_c,2,79,70
4,606603, Note_on_c,2,79,0
4,606728, Note_on_c,2,78,70
4,606828, Note_on_c,2,78,0
4,606828, Note_on_c,2,79,70
4,606928, Note_on_c,2,79,0
4,607108, Note_on_c,2,80,70
4,607208, Note_on_c,2,80,0
4,607208, Note_on_c,2,79,70
4,607308, Note_on_c,2,79,0
4,607488, Note_on_c,2,82,70
4,607588, Note_on_c,2,82,0
4,607588, Note_on_c,2,80,70
4,607688, Note_on_c,2,80,0
4,607860, Note_on_c,2,79,70
4,607960, Note_on_c,2,79,0
4,607960, Note_on_c,2,80,70
4,608060, Note_on_c,2,80,0
4,608220, Note_on_c,2,80,70
4,608320, Note_on_c,2,80,0
4,608320, Note_on_c,2,81,70
4,608420, Note_on_c,2,81,0
4,608588, Note_on_c,2,82,70
4,608688, Note_on_c,2,82,0
4,608698, Note_on_c,2,81,70
4,608798, Note_on_c,2,81,0
4,608964, Note_on_c,2,84,70
4,609064, Note_on_c,2,84,0
4,609064, Note_on_c,2,82,70
4,609164, Note_on_c,2,82,0
4,609320, Note_on_c,2,81,70
4,609420, Note_on_c,2,81,0
4,609420, Note_on_c,2,82,70
4,609520, Note_on_c,2,82,0
4,612400, Note_on_c,2,81,70
4,612500, Note_on_c,2,81,0
4,612500, Note_on_c,2,82,70
4,612600, Note_on_c,2,82,0
4,612780, Note_on_c,2,83,70
4,612880, Note_on_c,2,83,0
4,612880, Note_on_c,2,82,70
4,612980, Note_on_c,2,82,0
4,613160, Note_on_c,2,85,70
4,613260, Note_on_c,2,85,0
4,613260, Note_on_c,2,83,70
4,613360, Note_on_c,2,83,0
4,613532, Note_on_c,2,82,70
4,613632, Note_on_c,2,82,0
4,613632, Note_on_c,2,83,70
4,613732, Note_on_c,2,83,0
4,613892, Note_on_c,2,82,70
4,613992, Note_on_c,2,82,0
4,613992, Note_on_c,2,83,70
4,614092, Note_on_c,2,83,0
4,614260, Note_on_c,2,84,70
4,614360, Note_on_c,2,84,0
4,614360, Note_on_c,2,83,70
4,614460, Note_on_c,2,83,0
4,614636, Note_on_c,2,86,70
4,614736, Note_on_c,2,86,0
4,614736, Note_on_c,2,84,70
4,614836, Note_on_c,2,84,0
4,614992, Note_on_c,2,83,70
4,615092, Note_on_c,2,83,0
4,615092, Note_on_c,2,84,70
4,615192, Note_on_c,2,84,0
4,618036, Note_on_c,2,70,100
4,618036, Note_on_c,2,64,100
4,618036, Note_on_c,2,76,100
4,618216, Note_on_c,2,76,0
4,618216, Note_on_c,2,64,0
4,618216, Note_on_c,2,70,0
4,619688, Note_on_c,2,70,100
4,619688, Note_on_c,2,77,100
4,619868, Note_on_c,2,77,0
4,619868, Note_on_c,2,70,0
4,638842, Program_c,2,45,
4,638866, Note_on_c,2,77,80
4,638866, Note_on_c,2,61,80
4,638866, Note_on_c,2,70,80
4,638916, Note_on_c,2,70,0
4,638916, Note_on_c,2,61,0
4,638916, Note_on_c,2,77,0
4,639470, Note_on_c,2,70,80
4,639470, Note_on_c,2,77,80
4,639470, Note_on_c,2,61,80
4,639520, Note_on_c,2,61,0
4,639520, Note_on_c,2,77,0
4,639520, Note_on_c,2,70,0
4,640082, Note_on_c,2,77,80
4,640082, Note_on_c,2,69,80
4,640132, Note_on_c,2,69,0
4,640132, Note_on_c,2,77,0
4,640694, Note_on_c,2,77,80
4,640694, Note_on_c,2,69,80
4,640744, Note_on_c,2,69,0
4,640744, Note_on_c,2,77,0
4,641278, Note_on_c,2,70,80
4,641278, Note_on_c,2,61,80
4,641278, Note_on_c,2,77,80
4,641328, Note_on_c,2,77,0
4,641328, Note_on_c,2,61,0
4,641328, Note_on_c,2,70,0
4,641870, Note_on_c,2,70,80
4,641870, Note_on_c,2,61,80
4,641870, Note_on_c,2,77,80
4,641920, Note_on_c,2,77,0
4,641920, Note_on_c,2,61,0
4,641920, Note_on_c,2,70,0
4,642486, Note_on_c,2,69,80
4,642486, Note_on_c,2,77,80
4,642536, Note_on_c,2,77,0
4,642536, Note_on_c,2,69,0
4,643098, Note_on_c,2,77,80
4,643098, Note_on_c,2,69,80
4,643148, Note_on_c,2,69,0
4,643148, Note_on_c,2,77,0
4,643722, Note_on_c,2,70,80
4,643722, Note_on_c,2,61,80
4,643722, Note_on_c,2,77,80
4,643772, Note_on_c,2,77,0
4,643772, Note_on_c,2,61,0
4,643772, Note_on_c,2,70,0
4,644306, Note_on_c,2,70,80
4,644306, Note_on_c,2,61,80
4,644306, Note_on_c,2,77,80
4,644356, Note_on_c,2,77,0
4,644356, Note_on_c,2,61,0
4,644356, Note_on_c,2,70,0
4,644926, Note_on_c,2,77,80
4,644926, Note_on_c,2,69,80
4,644976, Note_on_c,2,69,0
4,644976, Note_on_c,2,77,0
4,645530, Note_on_c,2,77,80
4,645530, Note_on_c,2,69,80
4,645580, Note_on_c,2,69,0
4,645580, Note_on_c,2,77,0
4,646116, Note_on_c,2,70,80
4,646116, Note_on_c,2,61,80
4,646116, Note_on_c,2,77,80
4,646166, Note_on_c,2,77,0
4,646166, Note_on_c,2,61,0
4,646166, Note_on_c,2,70,0
4,646700, Note_on_c,2,70,80
4,646700, Note_on_c,2,61,80
4,646700, Note_on_c,2,77,80
4,646750, Note_on_c,2,77,0
4,646750, Note_on_c,2,61,0
4,646750, Note_on_c,2,70,0
4,647313, Note_on_c,2,68,80
4,647313, Note_on_c,2,77,80
4,647363, Note_on_c,2,77,0
4,647363, Note_on_c,2,68,0
4,647897, Note_on_c,2,67,80
4,647897, Note_on_c,2,77,80
4,647947, Note_on_c,2,77,0
4,647947, Note_on_c,2,67,0
4,648520, Note_on_c,2,67,80
4,648520, Note_on_c,2,60,80
4,648520, Note_on_c,2,75,80
4,648570, Note_on_c,2,75,0
4,648570, Note_on_c,2,60,0
4,648570, Note_on_c,2,67,0
4,649104, Note_on_c,2,67,80
4,649104, Note_on_c,2,60,80
4,649104, Note_on_c,2,75,80
4,649154, Note_on_c,2,75,0
4,649154, Note_on_c,2,60,0
4,649154, Note_on_c,2,67,0
4,649724, Note_on_c,2,74,80
4,649724, Note_on_c,2,65,80
4,649774, Note_on_c,2,65,0
4,649774, Note_on_c,2,74,0
4,650328, Note_on_c,2,74,80
4,650328, Note_on_c,2,65,80
4,650378, Note_on_c,2,65,0
4,650378, Note_on_c,2,74,0
4,650924, Note_on_c,2,67,80
4,650924, Note_on_c,2,60,80
4,650924, Note_on_c,2,75,80
4,650974, Note_on_c,2,75,0
4,650974, Note_on_c,2,60,0
4,650974, Note_on_c,2,67,0
4,652112, Note_on_c,2,60,80
4,652112, Note_on_c,2,67,80
4,652162, Note_on_c,2,67,0
4,652162, Note_on_c,2,60,0
4,663169, Program_c,2,48,
4,663268, Control_c,2,11,70
4,663378, Note_on_c,2,67,70
4,663508, Note_on_c,2,67,0
4,663562, Note_on_c,2,67,70
4,663822, Note_on_c,2,67,0
4,663930, Note_on_c,2,67,70
4,664190, Note_on_c,2,67,0
4,664276, Note_on_c,2,67,70
4,664536, Note_on_c,2,67,0
4,664616, Note_on_c,2,67,70
4,664746, Note_on_c,2,67,0
4,664790, Note_on_c,2,67,70
4,664920, Note_on_c,2,67,0
4,664972, Note_on_c,2,67,70
4,665232, Note_on_c,2,67,0
4,665336, Note_on_c,2,67,70
4,665596, Note_on_c,2,67,0
4,665700, Note_on_c,2,67,70
4,665960, Note_on_c,2,67,0
4,666060, Note_on_c,2,67,70
4,666190, Note_on_c,2,67,0
4,666194, Note_on_c,2,67,70
4,666324, Note_on_c,2,67,0
4,666366, Note_on_c,2,67,70
4,666626, Note_on_c,2,67,0
4,666710, Note_on_c,2,67,70
4,666970, Note_on_c,2,67,0
4,667054, Note_on_c,2,67,70
4,667314, Note_on_c,2,67,0
4,667398, Note_on_c,2,67,70
4,667578, Note_on_c,2,69,70
4,667658, Note_on_c,2,67,0
4,667708, Note_on_c,2,69,0
4,667758, Note_on_c,2,69,70
4,667888, Note_on_c,2,69,0
4,667938, Note_on_c,2,70,75
4,668068, Note_on_c,2,70,0
4,668122, Note_on_c,2,70,75
4,668252, Note_on_c,2,70,0
4,668306, Note_on_c,2,71,80
4,668436, Note_on_c,2,71,0
4,668484, Note_on_c,2,71,80
4,668614, Note_on_c,2,71,0
4,668662, Note_on_c,2,72,80
4,668792, Note_on_c,2,72,0
4,668848, Note_on_c,2,72,80
4,668978, Note_on_c,2,72,0
4,669034, Note_on_c,2,70,85
4,669164, Note_on_c,2,70,0
4,669222, Note_on_c,2,70,85
4,669482, Note_on_c,2,70,0
4,669592, Note_on_c,2,70,85
4,669722, Note_on_c,2,70,0
4,669774, Note_on_c,2,70,85
4,669904, Note_on_c,2,70,0
4,669954, Note_on_c,2,70,85
4,670214, Note_on_c,2,70,0
4,670314, Note_on_c,2,71,85
4,670574, Note_on_c,2,71,0
4,670674, Note_on_c,2,72,85
4,670804, Note_on_c,2,72,0
4,670866, Note_on_c,2,71,85
4,670996, Note_on_c,2,71,0
4,671046, Note_on_c,2,71,85
4,671176, Note_on_c,2,71,0
4,671226, Note_on_c,2,69,85
4,671356, Note_on_c,2,69,0
4,671406, Note_on_c,2,69,85
4,671666, Note_on_c,2,69,0
4,671766, Note_on_c,2,69,85
4,671896, Note_on_c,2,69,0
4,671934, Note_on_c,2,69,85
4,672064, Note_on_c,2,69,0
4,672106, Note_on_c,2,69,85
4,672236, Note_on_c,2,69,0
4,672458, Note_on_c,2,67,85
4,672588, Note_on_c,2,67,0
4,672822, Note_on_c,2,62,85
4,672952, Note_on_c,2,62,0
4,673194, Note_on_c,2,62,85
4,673324, Note_on_c,2,62,0
4,673390, Note_on_c,2,65,85
4,673520, Note_on_c,2,65,0
4,673580, Note_on_c,2,65,85
4,673845, Note_on_c,2,65,0
4,673964, Note_on_c,2,65,85
4,674229, Note_on_c,2,65,0
4,674348, Note_on_c,2,65,80
4,674478, Note_on_c,2,65,0
4,674534, Note_on_c,2,65,75
4,674664, Note_on_c,2,65,0
4,674689, Control_c,2,11,80
4,674724, Note_on_c,2,65,70
4,674854, Note_on_c,2,65,0
4,674954, Note_on_c,2,75,69
4,675346, Note_on_c,2,71,66
4,675394, Note_on_c,2,75,0
4,676050, Note_on_c,2,72,59
4,676086, Note_on_c,2,71,0
4,676422, Note_on_c,2,79,64
4,676434, Note_on_c,2,72,0
4,676798, Note_on_c,2,74,67
4,676802, Note_on_c,2,79,0
4,677526, Note_on_c,2,75,67
4,677546, Note_on_c,2,74,0
4,677894, Note_on_c,2,75,0
4,677942, Note_on_c,2,82,70
4,678298, Note_on_c,2,81,72
4,678307, Note_on_c,2,82,0
4,678662, Note_on_c,2,84,81
4,678698, Note_on_c,2,81,0
4,679038, Note_on_c,2,82,69
4,679074, Note_on_c,2,84,0
4,679398, Note_on_c,2,81,69
4,679402, Note_on_c,2,82,0
4,679762, Note_on_c,2,79,67
4,679766, Note_on_c,2,81,0
4,680126, Note_on_c,2,77,72
4,680134, Note_on_c,2,79,0
4,680496, Note_on_c,2,77,0
4,680498, Note_on_c,2,72,59
4,680850, Note_on_c,2,74,56
4,680886, Note_on_c,2,72,0
4,681158, Note_on_c,2,74,0
4,681234, Note_on_c,2,74,64
4,681618, Note_on_c,2,81,70
4,681622, Note_on_c,2,74,0
4,681978, Note_on_c,2,77,74
4,682006, Note_on_c,2,81,0
4,682354, Note_on_c,2,76,76
4,682358, Note_on_c,2,77,0
4,682722, Note_on_c,2,74,64
4,682738, Note_on_c,2,76,0
4,683122, Note_on_c,2,73,48
4,683126, Note_on_c,2,74,0
4,683962, Note_on_c,2,73,0
4,684174, Note_on_c,2,73,54
4,684586, Note_on_c,2,81,72
4,684594, Note_on_c,2,73,0
4,684930, Note_on_c,2,77,75
4,684950, Note_on_c,2,81,0
4,685302, Note_on_c,2,76,69
4,685318, Note_on_c,2,77,0
4,685642, Note_on_c,2,76,0
4,685642, Note_on_c,2,74,55
4,686010, Note_on_c,2,73,59
4,686046, Note_on_c,2,74,0
4,686994, Note_on_c,2,73,0
4,687158, Note_on_c,2,73,58
4,687526, Note_on_c,2,73,0
4,687562, Note_on_c,2,81,74
4,687930, Note_on_c,2,77,81
4,687954, Note_on_c,2,81,0
4,688286, Note_on_c,2,76,74
4,688302, Note_on_c,2,77,0
4,688654, Note_on_c,2,76,0
4,688654, Note_on_c,2,74,70
4,689038, Note_on_c,2,72,74
4,689042, Note_on_c,2,74,0
4,689406, Note_on_c,2,70,69
4,689418, Note_on_c,2,72,0
4,689798, Note_on_c,2,69,64
4,689822, Note_on_c,2,70,0
4,690210, Note_on_c,2,65,64
4,690218, Note_on_c,2,69,0
4,690578, Note_on_c,2,64,71
4,690598, Note_on_c,2,65,0
4,690974, Note_on_c,2,64,0
4,690974, Note_on_c,2,62,67
4,691398, Note_on_c,2,65,45
4,691426, Note_on_c,2,62,0
4,692790, Note_on_c,2,64,53
4,692810, Note_on_c,2,65,0
4,693290, Note_on_c,2,62,53
4,693322, Note_on_c,2,64,0
4,693838, Note_on_c,2,62,0
4,694708, Note_on_c,2,67,60
4,697576, Note_on_c,2,67,0
4,697580, Note_on_c,2,72,60
4,698668, Note_on_c,2,72,0
4,698668, Note_on_c,2,70,60
4,699036, Note_on_c,2,70,0
4,699036, Note_on_c,2,69,60
4,699420, Note_on_c,2,69,0
4,699420, Note_on_c,2,67,60
4,699780, Note_on_c,2,65,60
4,699804, Note_on_c,2,67,0
4,700164, Note_on_c,2,65,0
4,700536, Note_on_c,2,65,60
4,700920, Note_on_c,2,65,0
4,701276, Note_on_c,2,71,60
4,702294, Note_on_c,2,71,0
4,702312, Note_on_c,2,71,60
4,702682, Note_on_c,2,71,0
4,702684, Note_on_c,2,72,60
4,703054, Note_on_c,2,72,0
4,704888, Note_on_c,2,68,60
4,706032, Note_on_c,2,68,0
4,706032, Note_on_c,2,69,60
4,706332, Note_on_c,2,69,0
4,706516, Note_on_c,2,75,70
4,706884, Note_on_c,2,75,0
4,706884, Note_on_c,2,71,75
4,707588, Note_on_c,2,71,0
4,707588, Note_on_c,2,72,65
4,707888, Note_on_c,2,72,0
4,707968, Note_on_c,2,79,70
4,708340, Note_on_c,2,79,0
4,708340, Note_on_c,2,74,75
4,709032, Note_on_c,2,74,0
4,709032, Note_on_c,2,75,65
4,709332, Note_on_c,2,75,0
4,709384, Note_on_c,2,82,80
4,709764, Note_on_c,2,82,0
4,709764, Note_on_c,2,81,80
4,710144, Note_on_c,2,81,0
4,710144, Note_on_c,2,86,90
4,710504, Note_on_c,2,86,0
4,710504, Note_on_c,2,84,90
4,710880, Note_on_c,2,84,0
4,710880, Note_on_c,2,82,90
4,711236, Note_on_c,2,82,0
4,711236, Note_on_c,2,78,90
4,711600, Note_on_c,2,78,0
4,711600, Note_on_c,2,79,90
4,711960, Note_on_c,2,79,0
4,711960, Note_on_c,2,74,85
4,712340, Note_on_c,2,74,0
4,712348, Note_on_c,2,75,80
4,712648, Note_on_c,2,75,0
4,712712, Note_on_c,2,75,80
4,713068, Note_on_c,2,75,0
4,713068, Note_on_c,2,81,90
4,713436, Note_on_c,2,81,0
4,713436, Note_on_c,2,79,90
4,713812, Note_on_c,2,79,0
4,713812, Note_on_c,2,77,90
4,715548, Note_on_c,2,77,0
4,715672, Note_on_c,2,77,80
4,716052, Note_on_c,2,77,0
4,716052, Note_on_c,2,81,90
4,716420, Note_on_c,2,81,0
4,716420, Note_on_c,2,79,90
4,716804, Note_on_c,2,79,0
4,716804, Note_on_c,2,77,80
4,718340, Note_on_c,2,77,0
4,718680, Note_on_c,2,77,80
4,719408, Note_on_c,2,77,0
4,719408, Note_on_c,2,79,85
4,720092, Note_on_c,2,79,0
4,720136, Note_on_c,2,79,85
4,720840, Note_on_c,2,79,0
4,720840, Note_on_c,2,81,85
4,721524, Note_on_c,2,81,0
4,721544, Note_on_c,2,81,85
4,722244, Note_on_c,2,81,0
4,722244, Note_on_c,2,82,90
4,722928, Note_on_c,2,82,0
4,722932, Note_on_c,2,82,90
4,723600, Note_on_c,2,82,0
4,723600, Note_on_c,2,84,90
4,723932, Note_on_c,2,84,0
4,723932, Note_on_c,2,85,90
4,724296, Note_on_c,2,85,0
4,724296, Note_on_c,2,86,90
4,724612, Note_on_c,2,86,0
4,724612, Note_on_c,2,87,90
4,724960, Note_on_c,2,87,0
4,724960, Note_on_c,2,85,90
4,725340, Note_on_c,2,85,0
4,725340, Note_on_c,2,86,90
4,725704, Note_on_c,2,86,0
4,725704, Note_on_c,2,77,80
4,726364, Note_on_c,2,77,0
4,726364, Note_on_c,2,79,85
4,727016, Note_on_c,2,79,0
4,727016, Note_on_c,2,82,90
4,727344, Note_on_c,2,82,0
4,727344, Note_on_c,2,85,90
4,727672, Note_on_c,2,85,0
4,727672, Note_on_c,2,86,90
4,727972, Note_on_c,2,86,0
4,728000, Note_on_c,2,86,90
4,728324, Note_on_c,2,86,0
4,728324, Note_on_c,2,79,90
4,728972, Note_on_c,2,79,0
4,728972, Note_on_c,2,83,90
4,729626, Note_on_c,2,83,0
4,729644, Note_on_c,2,83,90
4,729988, Note_on_c,2,83,0
4,729988, Note_on_c,2,85,90
4,730304, Note_on_c,2,85,0
4,730304, Note_on_c,2,86,90
4,730604, Note_on_c,2,86,0
4,730956, Note_on_c,2,79,90
4,731620, Note_on_c,2,84,90
4,731624, Note_on_c,2,79,0
4,732296, Note_on_c,2,84,0
4,732296, Note_on_c,2,86,90
4,732940, Note_on_c,2,86,0
4,732940, Note_on_c,2,87,95
4,733270, Note_on_c,2,87,0
4,733564, Note_on_c,2,87,95
4,734200, Note_on_c,2,87,0
4,734200, Note_on_c,2,88,95
4,734844, Note_on_c,2,88,0
4,734844, Note_on_c,2,87,95
4,735460, Note_on_c,2,87,0
4,735460, Note_on_c,2,88,95
4,736088, Note_on_c,2,88,0
4,736088, Note_on_c,2,87,95
4,736700, Note_on_c,2,87,0
4,736700, Note_on_c,2,88,95
4,737332, Note_on_c,2,88,0
4,737332, Note_on_c,2,87,95
4,737968, Note_on_c,2,87,0
4,737968, Note_on_c,2,88,95
4,738316, Note_on_c,2,88,0
4,738316, Note_on_c,2,89,100
4,738646, Note_on_c,2,89,0
4,747265, Control_c,2,11,90
4,747432, Note_on_c,2,58,90
4,747632, Note_on_c,2,58,0
4,747712, Note_on_c,2,61,90
4,747912, Note_on_c,2,61,0
4,747982, Note_on_c,2,66,90
4,748182, Note_on_c,2,66,0
4,748262, Note_on_c,2,70,90
4,748462, Note_on_c,2,70,0
4,748542, Note_on_c,2,70,90
4,748742, Note_on_c,2,70,0
4,748822, Note_on_c,2,73,90
4,749022, Note_on_c,2,73,0
4,749102, Note_on_c,2,78,90
4,749102, Note_on_c,2,70,90
4,749302, Note_on_c,2,70,0
4,749302, Note_on_c,2,78,0
4,749382, Note_on_c,2,82,90
4,749382, Note_on_c,2,73,90
4,749682, Note_on_c,2,73,0
4,749682, Note_on_c,2,82,0
4,750534, Note_on_c,2,82,90
4,750534, Note_on_c,2,73,90
4,750834, Note_on_c,2,73,0
4,750834, Note_on_c,2,82,0
4,751588, Note_on_c,2,82,90
4,751588, Note_on_c,2,73,90
4,751788, Note_on_c,2,73,0
4,751788, Note_on_c,2,82,0
4,752132, Note_on_c,2,82,90
4,752132, Note_on_c,2,73,90
4,752332, Note_on_c,2,73,0
4,752332, Note_on_c,2,82,0
4,752715, Note_on_c,2,82,90
4,752715, Note_on_c,2,73,90
4,752915, Note_on_c,2,73,0
4,752915, Note_on_c,2,82,0
4,753244, Note_on_c,2,82,90
4,753244, Note_on_c,2,73,90
4,753444, Note_on_c,2,73,0
4,753444, Note_on_c,2,82,0
4,753852, Note_on_c,2,73,90
4,753852, Note_on_c,2,82,90
4,754152, Note_on_c,2,82,0
4,754152, Note_on_c,2,73,0
4,886273, Control_c,2,11,80
4,887813, Note_on_c,2,77,70
4,888161, Note_on_c,2,77,0
4,888161, Note_on_c,2,79,70
4,888513, Note_on_c,2,79,0
4,888513, Note_on_c,2,81,70
4,888845, Note_on_c,2,77,70
4,888847, Note_on_c,2,81,0
4,889145, Note_on_c,2,77,0
4,889189, Note_on_c,2,79,70
4,889537, Note_on_c,2,79,0
4,889537, Note_on_c,2,81,70
4,889885, Note_on_c,2,81,0
4,889885, Note_on_c,2,82,70
4,890217, Note_on_c,2,82,0
4,890217, Note_on_c,2,77,70
4,890517, Note_on_c,2,77,0
4,890557, Note_on_c,2,79,70
4,890905, Note_on_c,2,79,0
4,890909, Note_on_c,2,72,70
4,891209, Note_on_c,2,72,0
4,891253, Note_on_c,2,79,70
4,891603, Note_on_c,2,79,0
4,891605, Note_on_c,2,72,70
4,891905, Note_on_c,2,72,0
4,891937, Note_on_c,2,77,70
4,892287, Note_on_c,2,77,0
4,892289, Note_on_c,2,70,70
4,892589, Note_on_c,2,70,0
4,892625, Note_on_c,2,77,70
4,892961, Note_on_c,2,77,0
4,892961, Note_on_c,2,79,70
4,893289, Note_on_c,2,79,0
4,893289, Note_on_c,2,81,70
4,893589, Note_on_c,2,81,0
4,893625, Note_on_c,2,84,70
4,893977, Note_on_c,2,84,0
4,893977, Note_on_c,2,82,70
4,894277, Note_on_c,2,82,0
4,894317, Note_on_c,2,74,70
4,894643, Note_on_c,2,74,0
4,894645, Note_on_c,2,76,70
4,894945, Note_on_c,2,76,0
4,894985, Note_on_c,2,77,70
4,895285, Note_on_c,2,77,0
4,895325, Note_on_c,2,79,70
4,895657, Note_on_c,2,79,0
4,895661, Note_on_c,2,72,70
4,895961, Note_on_c,2,72,0
4,896001, Note_on_c,2,79,70
4,896333, Note_on_c,2,79,0
4,896333, Note_on_c,2,72,70
4,896633, Note_on_c,2,72,0
4,896677, Note_on_c,2,77,70
4,897029, Note_on_c,2,77,0
4,897029, Note_on_c,2,71,70
4,897329, Note_on_c,2,71,0
4,897387, Note_on_c,2,77,70
4,897713, Note_on_c,2,77,0
4,897713, Note_on_c,2,71,70
4,898013, Note_on_c,2,71,0
4,898029, Note_on_c,2,76,70
4,898357, Note_on_c,2,76,0
4,898357, Note_on_c,2,75,70
4,898697, Note_on_c,2,75,0
4,898697, Note_on_c,2,74,70
4,899037, Note_on_c,2,74,0
4,899037, Note_on_c,2,81,70
4,899385, Note_on_c,2,81,0
4,899385, Note_on_c,2,79,70
4,899685, Note_on_c,2,79,0
4,899733, Note_on_c,2,80,70
4,900065, Note_on_c,2,80,0
4,900065, Note_on_c,2,81,70
4,900365, Note_on_c,2,81,0
4,900393, Note_on_c,2,86,70
4,900715, Note_on_c,2,86,0
4,900741, Note_on_c,2,81,70
4,901041, Note_on_c,2,81,0
4,901073, Note_on_c,2,81,70
4,901404, Note_on_c,2,82,70
4,901430, Note_on_c,2,81,0
4,901704, Note_on_c,2,82,0
4,901717, Note_on_c,2,87,70
4,902041, Note_on_c,2,87,0
4,902041, Note_on_c,2,84,70
4,902381, Note_on_c,2,84,0
4,902381, Note_on_c,2,89,70
4,903053, Note_on_c,2,89,0
4,903053, Note_on_c,2,82,70
4,903353, Note_on_c,2,82,0
4,903437, Note_on_c,2,77,70
4,903777, Note_on_c,2,77,0
4,903777, Note_on_c,2,79,70
4,904117, Note_on_c,2,79,0
4,904117, Note_on_c,2,81,70
4,904457, Note_on_c,2,81,0
4,904463, Note_on_c,2,84,70
4,904823, Note_on_c,2,84,0
4,904829, Note_on_c,2,82,70
4,905149, Note_on_c,2,82,0
4,905177, Note_on_c,2,74,70
4,905517, Note_on_c,2,74,0
4,905517, Note_on_c,2,76,70
4,905867, Note_on_c,2,76,0
4,905869, Note_on_c,2,77,70
4,906209, Note_on_c,2,77,0
4,906221, Note_on_c,2,79,70
4,906561, Note_on_c,2,79,0
4,906569, Note_on_c,2,72,70
4,906879, Note_on_c,2,72,0
4,906925, Note_on_c,2,79,70
4,907265, Note_on_c,2,79,0
4,907273, Note_on_c,2,72,70
4,907583, Note_on_c,2,72,0
4,907625, Note_on_c,2,77,70
4,907965, Note_on_c,2,77,0
4,907969, Note_on_c,2,71,70
4,908279, Note_on_c,2,71,0
4,908325, Note_on_c,2,77,70
4,908665, Note_on_c,2,77,0
4,908673, Note_on_c,2,71,70
4,908983, Note_on_c,2,71,0
4,908993, Note_on_c,2,76,70
4,909333, Note_on_c,2,76,0
4,909333, Note_on_c,2,75,70
4,909661, Note_on_c,2,74,70
4,909663, Note_on_c,2,75,0
4,909991, Note_on_c,2,74,0
4,909993, Note_on_c,2,81,70
4,910333, Note_on_c,2,81,0
4,910337, Note_on_c,2,79,70
4,910677, Note_on_c,2,79,0
4,910681, Note_on_c,2,80,70
4,911017, Note_on_c,2,81,70
4,911021, Note_on_c,2,80,0
4,911357, Note_on_c,2,81,0
4,911357, Note_on_c,2,86,70
4,911707, Note_on_c,2,86,0
4,911709, Note_on_c,2,81,70
4,912019, Note_on_c,2,81,0
4,912029, Note_on_c,2,81,70
4,912379, Note_on_c,2,81,0
4,912381, Note_on_c,2,82,70
4,912691, Note_on_c,2,82,0
4,912717, Note_on_c,2,87,70
4,913053, Note_on_c,2,87,0
4,913053, Note_on_c,2,82,70
4,913363, Note_on_c,2,82,0
4,913377, Note_on_c,2,83,70
4,913707, Note_on_c,2,83,0
4,913709, Note_on_c,2,84,70
4,914019, Note_on_c,2,84,0
4,914037, Note_on_c,2,89,70
4,914367, Note_on_c,2,89,0
4,914373, Note_on_c,2,84,70
4,914683, Note_on_c,2,84,0
4,914705, Note_on_c,2,85,70
4,915037, Note_on_c,2,85,0
4,915037, Note_on_c,2,86,70
4,915347, Note_on_c,2,86,0
4,915377, Note_on_c,2,79,70
4,915697, Note_on_c,2,79,0
4,915697, Note_on_c,2,74,70
4,915997, Note_on_c,2,74,0
4,916021, Note_on_c,2,79,70
4,916334, Note_on_c,2,79,0
4,916337, Note_on_c,2,75,70
4,916637, Note_on_c,2,75,0
4,916673, Note_on_c,2,81,70
4,917008, Note_on_c,2,81,0
4,917009, Note_on_c,2,76,70
4,917319, Note_on_c,2,76,0
4,917341, Note_on_c,2,81,70
4,917665, Note_on_c,2,81,0
4,917665, Note_on_c,2,77,70
4,917965, Note_on_c,2,77,0
4,918001, Note_on_c,2,82,70
4,918325, Note_on_c,2,77,70
4,918326, Note_on_c,2,82,0
4,918625, Note_on_c,2,77,0
4,918689, Note_on_c,2,82,70
4,918989, Note_on_c,2,82,0
4,920717, Note_on_c,2,82,90
4,920717, Note_on_c,2,75,90
4,920987, Note_on_c,2,75,0
4,920987, Note_on_c,2,82,0
4,921137, Note_on_c,2,82,90
4,921137, Note_on_c,2,70,90
4,921407, Note_on_c,2,70,0
4,921407, Note_on_c,2,82,0
4,921557, Note_on_c,2,82,90
4,921557, Note_on_c,2,75,90
4,921827, Note_on_c,2,75,0
4,921827, Note_on_c,2,82,0
4,923541, Note_on_c,2,82,90
4,923541, Note_on_c,2,75,90
4,923811, Note_on_c,2,75,0
4,923811, Note_on_c,2,82,0
4,923907, Note_on_c,2,82,90
4,923907, Note_on_c,2,70,90
4,924177, Note_on_c,2,70,0
4,924177, Note_on_c,2,82,0
4,924273, Note_on_c,2,82,90
4,924273, Note_on_c,2,75,90
4,924543, Note_on_c,2,75,0
4,924543, Note_on_c,2,82,0
4,924969, Note_on_c,2,82,90
4,924969, Note_on_c,2,75,90
4,925239, Note_on_c,2,75,0
4,925239, Note_on_c,2,82,0
4,926349, Note_on_c,2,82,90
4,926349, Note_on_c,2,73,90
4,926349, Note_on_c,2,66,90
4,926619, Note_on_c,2,66,0
4,926619, Note_on_c,2,73,0
4,926619, Note_on_c,2,82,0
4,927725, Note_on_c,2,82,90
4,927725, Note_on_c,2,74,90
4,927725, Note_on_c,2,65,90
4,928045, Note_on_c,2,65,0
4,928045, Note_on_c,2,74,0
4,928045, Note_on_c,2,82,0
4,929837, Note_on_c,2,74,90
4,930531, Note_on_c,2,74,0
4,930533, Note_on_c,2,72,90
4,931925, Note_on_c,2,72,0
4,931925, Note_on_c,2,77,90
4,931925, Note_on_c,2,69,90
4,933307, Note_on_c,2,69,0
4,933307, Note_on_c,2,77,0
4,933309, Note_on_c,2,70,90
4,933309, Note_on_c,2,62,90
4,933579, Note_on_c,2,62,0
4,933579, Note_on_c,2,70,0
4,933697, Note_on_c,2,72,90
4,933697, Note_on_c,2,63,90
4,934331, Note_on_c,2,63,0
4,934331, Note_on_c,2,72,0
4,934373, Note_on_c,2,72,90
4,934373, Note_on_c,2,63,90
4,934643, Note_on_c,2,63,0
4,934643, Note_on_c,2,72,0
4,934741, Note_on_c,2,74,90
4,934741, Note_on_c,2,62,90
4,935011, Note_on_c,2,62,0
4,935011, Note_on_c,2,74,0
4,935417, Note_on_c,2,70,90
4,935417, Note_on_c,2,78,90
4,935687, Note_on_c,2,78,0
4,935687, Note_on_c,2,70,0
4,936141, Note_on_c,2,77,90
4,936141, Note_on_c,2,70,90
4,936141, Note_on_c,2,62,90
4,936411, Note_on_c,2,62,0
4,936411, Note_on_c,2,70,0
4,936411, Note_on_c,2,77,0
4,936513, Note_on_c,2,72,90
4,936513, Note_on_c,2,63,90
4,937147, Note_on_c,2,63,0
4,937147, Note_on_c,2,72,0
4,937213, Note_on_c,2,72,90
4,937213, Note_on_c,2,63,90
4,937483, Note_on_c,2,63,0
4,937483, Note_on_c,2,72,0
4,937577, Note_on_c,2,74,90
4,937577, Note_on_c,2,62,90
4,937847, Note_on_c,2,62,0
4,937847, Note_on_c,2,74,0
4,938277, Note_on_c,2,70,90
4,938277, Note_on_c,2,78,90
4,938547, Note_on_c,2,78,0
4,938547, Note_on_c,2,70,0
4,939009, Note_on_c,2,77,90
4,939009, Note_on_c,2,70,90
4,939009, Note_on_c,2,62,90
4,939279, Note_on_c,2,62,0
4,939279, Note_on_c,2,70,0
4,939279, Note_on_c,2,77,0
4,939728, Note_on_c,2,70,90
4,939728, Note_on_c,2,78,90
4,939998, Note_on_c,2,78,0
4,939998, Note_on_c,2,70,0
4,940457, Note_on_c,2,77,90
4,940457, Note_on_c,2,62,90
4,940457, Note_on_c,2,70,90
4,940727, Note_on_c,2,70,0
4,940727, Note_on_c,2,62,0
4,940727, Note_on_c,2,77,0
4,941164, Note_on_c,2,70,90
4,941164, Note_on_c,2,78,90
4,941434, Note_on_c,2,78,0
4,941434, Note_on_c,2,70,0
4,941901, Note_on_c,2,77,90
4,941901, Note_on_c,2,62,90
4,941901, Note_on_c,2,70,90
4,942171, Note_on_c,2,70,0
4,942171, Note_on_c,2,62,0
4,942171, Note_on_c,2,77,0
4,942269, Note_on_c,2,78,90
4,942269, Note_on_c,2,70,90
4,942469, Note_on_c,2,70,0
4,942469, Note_on_c,2,78,0
4,942637, Note_on_c,2,77,90
4,942637, Note_on_c,2,70,90
4,942837, Note_on_c,2,70,0
4,942837, Note_on_c,2,77,0
4,943005, Note_on_c,2,78,90
4,943005, Note_on_c,2,70,90
4,943205, Note_on_c,2,70,0
4,943205, Note_on_c,2,78,0
4,943373, Note_on_c,2,77,90
4,943373, Note_on_c,2,70,90
4,943573, Note_on_c,2,70,0
4,943573, Note_on_c,2,77,0
4,943741, Note_on_c,2,78,90
4,943741, Note_on_c,2,70,90
4,943941, Note_on_c,2,70,0
4,943941, Note_on_c,2,78,0
4,944109, Note_on_c,2,77,90
4,944109, Note_on_c,2,70,90
4,944309, Note_on_c,2,70,0
4,944309, Note_on_c,2,77,0
4,944477, Note_on_c,2,78,90
4,944477, Note_on_c,2,70,90
4,944677, Note_on_c,2,70,0
4,944677, Note_on_c,2,78,0
4,944845, Note_on_c,2,77,90
4,944845, Note_on_c,2,70,90
4,944845, Note_on_c,2,62,90
4,945045, Note_on_c,2,62,0
4,945045, Note_on_c,2,70,0
4,945045, Note_on_c,2,77,0
4,946209, Note_on_c,2,77,90
4,946209, Note_on_c,2,70,90
4,946209, Note_on_c,2,62,90
4,946459, Note_on_c,2,62,0
4,946459, Note_on_c,2,70,0
4,946459, Note_on_c,2,77,0
4,946873, Note_on_c,2,77,90
4,946873, Note_on_c,2,70,90
4,946873, Note_on_c,2,62,90
4,947123, Note_on_c,2,62,0
4,947123, Note_on_c,2,70,0
4,947123, Note_on_c,2,77,0
4,947529, Note_on_c,2,77,90
4,947529, Note_on_c,2,70,90
4,947529, Note_on_c,2,62,90
4,947779, Note_on_c,2,62,0
4,947779, Note_on_c,2,70,0
4,947779, Note_on_c,2,77,0
4,948825, Note_on_c,2,86,90
4,948825, Note_on_c,2,74,90
4,948825, Note_on_c,2,62,90
4,949075, Note_on_c,2,62,0
4,949075, Note_on_c,2,74,0
4,949075, Note_on_c,2,86,0
4,950161, Note_on_c,2,82,90
4,950161, Note_on_c,2,74,90
4,950161, Note_on_c,2,65,90
4,950161, Note_on_c,2,58,90
4,950411, Note_on_c,2,58,0
4,950411, Note_on_c,2,82,0
4,950411, Note_on_c,2,74,0
4,950411, Note_on_c,2,65,0
4,950809, Note_on_c,2,82,90
4,950809, Note_on_c,2,74,90
4,950809, Note_on_c,2,65,90
4,950809, Note_on_c,2,58,90
4,951059, Note_on_c,2,58,0
4,951059, Note_on_c,2,82,0
4,951059, Note_on_c,2,74,0
4,951059, Note_on_c,2,65,0
4,951501, Note_on_c,2,82,90
4,951501, Note_on_c,2,74,90
4,951501, Note_on_c,2,65,90
4,951501, Note_on_c,2,58,90
4,951751, Note_on_c,2,58,0
4,951751, Note_on_c,2,82,0
4,951751, Note_on_c,2,74,0
4,951751, Note_on_c,2,65,0
4,952177, Note_on_c,2,82,90
4,952177, Note_on_c,2,74,90
4,952177, Note_on_c,2,65,90
4,952177, Note_on_c,2,58,90
4,952427, Note_on_c,2,58,0
4,952427, Note_on_c,2,82,0
4,952427, Note_on_c,2,74,0
4,952427, Note_on_c,2,65,0
4,952877, Note_on_c,2,82,90
4,952877, Note_on_c,2,74,90
4,952877, Note_on_c,2,65,90
4,952877, Note_on_c,2,58,90
4,953127, Note_on_c,2,58,0
4,953127, Note_on_c,2,82,0
4,953127, Note_on_c,2,74,0
4,953127, Note_on_c,2,65,0
4,953249, Note_on_c,2,82,90
4,953249, Note_on_c,2,75,90
4,953499, Note_on_c,2,75,0
4,953499, Note_on_c,2,82,0
4,953673, Note_on_c,2,82,90
4,953673, Note_on_c,2,74,90
4,954023, Note_on_c,2,74,0
4,954023, Note_on_c,2,82,0
4,954549, Note_on_c,2,70,90
4,954549, Note_on_c,2,62,90
4,956085, Note_on_c,2,62,0
4,956085, Note_on_c,2,70,0
4,956460, Control_c,2,121,0
4,956460, End_track,,,
5,0, Start_track,,,
5,0, MIDI_port,0,,
5,0, Title_t," ""violin2""",,
5,0, Control_c,3,0,0
5,0, Control_c,3,32,0
5,0, Program_c,3,48,
5,0, Control_c,3,7,100
5,0, Control_c,3,10,30
5,3272, Control_c,3,11,90
5,3356, Control_c,3,91,127
5,3356, Note_on_c,3,77,60
5,3356, Note_on_c,3,70,60
5,3356, Note_on_c,3,61,60
5,3612, Note_on_c,3,61,0
5,3612, Note_on_c,3,70,0
5,3612, Note_on_c,3,77,0
5,4908, Note_on_c,3,77,80
5,4908, Note_on_c,3,70,80
5,4908, Note_on_c,3,61,80
5,5164, Note_on_c,3,61,0
5,5164, Note_on_c,3,70,0
5,5164, Note_on_c,3,77,0
5,6432, Note_on_c,3,75,80
5,6432, Note_on_c,3,70,80
5,6936, Note_on_c,3,70,0
5,6936, Note_on_c,3,75,0
5,6968, Note_on_c,3,77,80
5,6968, Note_on_c,3,68,80
5,6968, Note_on_c,3,61,80
5,7472, Note_on_c,3,61,0
5,7472, Note_on_c,3,68,0
5,7472, Note_on_c,3,77,0
5,7528, Note_on_c,3,78,80
5,7528, Note_on_c,3,70,80
5,7528, Note_on_c,3,61,80
5,8032, Note_on_c,3,61,0
5,8032, Note_on_c,3,70,0
5,8032, Note_on_c,3,78,0
5,8088, Note_on_c,3,73,80
5,8088, Note_on_c,3,63,80
5,8622, Note_on_c,3,63,0
5,8622, Note_on_c,3,73,0
5,8672, Note_on_c,3,63,80
5,8672, Note_on_c,3,72,80
5,9226, Note_on_c,3,72,0
5,9226, Note_on_c,3,63,0
5,9316, Note_on_c,3,80,80
5,9316, Note_on_c,3,73,80
5,9316, Note_on_c,3,65,80
5,9800, Note_on_c,3,65,0
5,9800, Note_on_c,3,73,0
5,9800, Note_on_c,3,80,0
5,40705, Program_c,3,45,
5,40748, Note_on_c,3,61,80
5,40748, Note_on_c,3,68,80
5,40788, Note_on_c,3,68,0
5,40788, Note_on_c,3,61,0
5,41292, Note_on_c,3,73,80
5,41292, Note_on_c,3,65,80
5,41332, Note_on_c,3,65,0
5,41332, Note_on_c,3,73,0
5,42276, Note_on_c,3,68,80
5,42276, Note_on_c,3,61,80
5,42316, Note_on_c,3,61,0
5,42316, Note_on_c,3,68,0
5,42780, Note_on_c,3,73,80
5,42780, Note_on_c,3,65,80
5,42820, Note_on_c,3,65,0
5,42820, Note_on_c,3,73,0
5,43972, Note_on_c,3,68,80
5,43972, Note_on_c,3,61,80
5,44012, Note_on_c,3,61,0
5,44012, Note_on_c,3,68,0
5,44568, Note_on_c,3,73,80
5,44568, Note_on_c,3,65,80
5,44608, Note_on_c,3,65,0
5,44608, Note_on_c,3,73,0
5,45762, Note_on_c,3,68,80
5,45762, Note_on_c,3,61,80
5,45802, Note_on_c,3,61,0
5,45802, Note_on_c,3,68,0
5,46360, Note_on_c,3,73,80
5,46360, Note_on_c,3,65,80
5,46400, Note_on_c,3,65,0
5,46400, Note_on_c,3,73,0
5,47456, Note_on_c,3,70,80
5,47456, Note_on_c,3,63,80
5,47496, Note_on_c,3,63,0
5,47496, Note_on_c,3,70,0
5,48052, Note_on_c,3,75,80
5,48052, Note_on_c,3,66,80
5,48092, Note_on_c,3,66,0
5,48092, Note_on_c,3,75,0
5,49179, Note_on_c,3,70,80
5,49179, Note_on_c,3,63,80
5,49219, Note_on_c,3,63,0
5,49219, Note_on_c,3,70,0
5,49720, Note_on_c,3,75,80
5,49720, Note_on_c,3,66,80
5,49760, Note_on_c,3,66,0
5,49760, Note_on_c,3,75,0
5,50784, Note_on_c,3,72,80
5,50784, Note_on_c,3,63,80
5,50824, Note_on_c,3,63,0
5,50824, Note_on_c,3,72,0
5,51374, Note_on_c,3,75,80
5,51374, Note_on_c,3,68,80
5,51414, Note_on_c,3,68,0
5,51414, Note_on_c,3,75,0
5,52483, Note_on_c,3,72,80
5,52483, Note_on_c,3,63,80
5,52523, Note_on_c,3,63,0
5,52523, Note_on_c,3,72,0
5,53028, Note_on_c,3,75,80
5,53028, Note_on_c,3,68,80
5,53068, Note_on_c,3,68,0
5,53068, Note_on_c,3,75,0
5,54084, Note_on_c,3,73,80
5,54084, Note_on_c,3,65,80
5,54124, Note_on_c,3,65,0
5,54124, Note_on_c,3,73,0
5,54596, Note_on_c,3,77,80
5,54596, Note_on_c,3,68,80
5,54636, Note_on_c,3,68,0
5,54636, Note_on_c,3,77,0
5,55116, Note_on_c,3,68,80
5,55116, Note_on_c,3,77,80
5,55156, Note_on_c,3,77,0
5,55156, Note_on_c,3,68,0
5,55614, Note_on_c,3,78,80
5,55614, Note_on_c,3,68,80
5,55654, Note_on_c,3,68,0
5,55654, Note_on_c,3,78,0
5,56576, Note_on_c,3,79,80
5,56576, Note_on_c,3,68,80
5,56616, Note_on_c,3,68,0
5,56616, Note_on_c,3,79,0
5,57006, Note_on_c,3,77,80
5,57006, Note_on_c,3,68,80
5,57046, Note_on_c,3,68,0
5,57046, Note_on_c,3,77,0
5,58016, Note_on_c,3,77,80
5,58016, Note_on_c,3,70,80
5,58056, Note_on_c,3,70,0
5,58056, Note_on_c,3,77,0
5,58498, Note_on_c,3,70,80
5,58498, Note_on_c,3,75,80
5,58538, Note_on_c,3,75,0
5,58538, Note_on_c,3,70,0
5,59432, Note_on_c,3,72,80
5,59432, Note_on_c,3,79,80
5,59472, Note_on_c,3,79,0
5,59472, Note_on_c,3,72,0
5,59916, Note_on_c,3,77,80
5,59916, Note_on_c,3,72,80
5,59956, Note_on_c,3,72,0
5,59956, Note_on_c,3,77,0
5,106468, Program_c,3,48,
5,106688, Note_on_c,3,68,80
5,106948, Note_on_c,3,68,0
5,106952, Note_on_c,3,65,80
5,107212, Note_on_c,3,65,0
5,107216, Note_on_c,3,63,80
5,107476, Note_on_c,3,63,0
5,107518, Note_on_c,3,61,80
5,108094, Note_on_c,3,77,80
5,108476, Note_on_c,3,61,0
5,108942, Note_on_c,3,77,0
5,108946, Note_on_c,3,75,80
5,109257, Note_on_c,3,75,0
5,109262, Note_on_c,3,78,80
5,110074, Note_on_c,3,78,0
5,110078, Note_on_c,3,77,80
5,110368, Note_on_c,3,77,0
5,110370, Note_on_c,3,72,80
5,110740, Note_on_c,3,72,0
5,110746, Note_on_c,3,73,80
5,111056, Note_on_c,3,73,0
5,111058, Note_on_c,3,70,80
5,111450, Note_on_c,3,75,80
5,111642, Note_on_c,3,70,0
5,112328, Note_on_c,3,75,0
5,112530, Note_on_c,3,77,80
5,112852, Note_on_c,3,77,0
5,112858, Note_on_c,3,70,80
5,113726, Note_on_c,3,70,0
5,113730, Note_on_c,3,75,80
5,114010, Note_on_c,3,75,0
5,114014, Note_on_c,3,72,80
5,114314, Note_on_c,3,72,0
5,114314, Note_on_c,3,70,80
5,114619, Note_on_c,3,70,0
5,114622, Note_on_c,3,68,80
5,115186, Note_on_c,3,68,0
5,115194, Note_on_c,3,75,80
5,116052, Note_on_c,3,75,0
5,116058, Note_on_c,3,77,80
5,116383, Note_on_c,3,77,0
5,116386, Note_on_c,3,80,80
5,117264, Note_on_c,3,80,0
5,117266, Note_on_c,3,75,80
5,117506, Note_on_c,3,75,0
5,117509, Note_on_c,3,75,80
5,117841, Note_on_c,3,75,0
5,117850, Note_on_c,3,77,80
5,118165, Note_on_c,3,77,0
5,118171, Note_on_c,3,80,80
5,118934, Note_on_c,3,80,0
5,118934, Note_on_c,3,77,80
5,119319, Note_on_c,3,77,0
5,119326, Note_on_c,3,82,80
5,119614, Note_on_c,3,82,0
5,119629, Note_on_c,3,80,80
5,119932, Note_on_c,3,75,80
5,119947, Note_on_c,3,80,0
5,120768, Note_on_c,3,75,0
5,120770, Note_on_c,3,72,80
5,120965, Note_on_c,3,72,0
5,120966, Note_on_c,3,70,80
5,121160, Note_on_c,3,70,0
5,121162, Note_on_c,3,68,80
5,121362, Note_on_c,3,68,0
5,121370, Note_on_c,3,66,80
5,121575, Note_on_c,3,66,0
5,121578, Note_on_c,3,63,80
5,121778, Note_on_c,3,63,0
5,121786, Note_on_c,3,61,80
5,122372, Note_on_c,3,61,0
5,122374, Note_on_c,3,77,80
5,123264, Note_on_c,3,77,0
5,123266, Note_on_c,3,75,80
5,123591, Note_on_c,3,75,0
5,123594, Note_on_c,3,78,80
5,124457, Note_on_c,3,78,0
5,124462, Note_on_c,3,77,80
5,124757, Note_on_c,3,77,0
5,124758, Note_on_c,3,72,80
5,125053, Note_on_c,3,72,0
5,125054, Note_on_c,3,73,80
5,125372, Note_on_c,3,73,0
5,125374, Note_on_c,3,70,80
5,125950, Note_on_c,3,70,0
5,125954, Note_on_c,3,75,80
5,126829, Note_on_c,3,75,0
5,126830, Note_on_c,3,77,80
5,127120, Note_on_c,3,77,0
5,127122, Note_on_c,3,80,80
5,127970, Note_on_c,3,80,0
5,127970, Note_on_c,3,78,80
5,128248, Note_on_c,3,78,0
5,128250, Note_on_c,3,77,80
5,128530, Note_on_c,3,77,0
5,128534, Note_on_c,3,78,80
5,128854, Note_on_c,3,78,0
5,128854, Note_on_c,3,77,80
5,129149, Note_on_c,3,77,0
5,129150, Note_on_c,3,72,80
5,129450, Note_on_c,3,72,0
5,129454, Note_on_c,3,77,80
5,129738, Note_on_c,3,77,0
5,129750, Note_on_c,3,74,80
5,130060, Note_on_c,3,74,0
5,130062, Note_on_c,3,75,80
5,130362, Note_on_c,3,75,0
5,130362, Note_on_c,3,70,80
5,130672, Note_on_c,3,70,0
5,130674, Note_on_c,3,75,80
5,130964, Note_on_c,3,75,0
5,130966, Note_on_c,3,72,80
5,131271, Note_on_c,3,72,0
5,131274, Note_on_c,3,73,80
5,131546, Note_on_c,3,73,0
5,131550, Note_on_c,3,65,80
5,131850, Note_on_c,3,65,0
5,131850, Note_on_c,3,70,80
5,132132, Note_on_c,3,70,0
5,132135, Note_on_c,3,72,80
5,132450, Note_on_c,3,72,0
5,132450, Note_on_c,3,68,80
5,132750, Note_on_c,3,68,0
5,132754, Note_on_c,3,70,80
5,133041, Note_on_c,3,70,0
5,133042, Note_on_c,3,72,80
5,133336, Note_on_c,3,72,0
5,133338, Note_on_c,3,73,80
5,133620, Note_on_c,3,73,0
5,133622, Note_on_c,3,75,80
5,133912, Note_on_c,3,75,0
5,133914, Note_on_c,3,77,80
5,134228, Note_on_c,3,77,0
5,134230, Note_on_c,3,75,80
5,134515, Note_on_c,3,75,0
5,134518, Note_on_c,3,77,80
5,134793, Note_on_c,3,77,0
5,134794, Note_on_c,3,70,80
5,135092, Note_on_c,3,70,0
5,135094, Note_on_c,3,71,80
5,135668, Note_on_c,3,71,0
5,135670, Note_on_c,3,72,80
5,136000, Note_on_c,3,72,0
5,136002, Note_on_c,3,73,80
5,136386, Note_on_c,3,73,0
5,136580, Program_c,3,45,
5,136586, Note_on_c,3,61,80
5,136586, Note_on_c,3,56,80
5,136666, Note_on_c,3,56,0
5,136666, Note_on_c,3,61,0
5,137228, Note_on_c,3,65,80
5,137228, Note_on_c,3,56,80
5,137308, Note_on_c,3,56,0
5,137308, Note_on_c,3,65,0
5,138432, Note_on_c,3,56,80
5,138432, Note_on_c,3,59,80
5,138512, Note_on_c,3,59,0
5,138512, Note_on_c,3,56,0
5,138956, Note_on_c,3,65,80
5,138956, Note_on_c,3,56,80
5,139036, Note_on_c,3,56,0
5,139036, Note_on_c,3,65,0
5,140088, Note_on_c,3,57,80
5,140168, Note_on_c,3,57,0
5,140656, Note_on_c,3,66,80
5,140736, Note_on_c,3,66,0
5,141732, Note_on_c,3,60,80
5,141812, Note_on_c,3,60,0
5,142299, Note_on_c,3,66,80
5,142379, Note_on_c,3,66,0
5,143432, Note_on_c,3,61,80
5,143432, Note_on_c,3,56,80
5,143512, Note_on_c,3,56,0
5,143512, Note_on_c,3,61,0
5,143988, Note_on_c,3,56,80
5,143988, Note_on_c,3,65,80
5,144068, Note_on_c,3,65,0
5,144068, Note_on_c,3,56,0
5,145088, Note_on_c,3,56,80
5,145168, Note_on_c,3,56,0
5,145652, Note_on_c,3,59,80
5,145732, Note_on_c,3,59,0
5,146782, Note_on_c,3,57,80
5,146862, Note_on_c,3,57,0
5,147348, Note_on_c,3,61,80
5,147348, Note_on_c,3,61,80
5,147428, Note_on_c,3,61,0
5,147428, Note_on_c,3,61,0
5,148460, Note_on_c,3,63,80
5,148540, Note_on_c,3,63,0
5,149036, Note_on_c,3,60,80
5,149116, Note_on_c,3,60,0
5,153516, Control_c,3,11,65
5,153580, Note_on_c,3,56,60
5,153630, Note_on_c,3,56,0
5,154128, Note_on_c,3,61,60
5,154178, Note_on_c,3,61,0
5,157022, Note_on_c,3,57,60
5,157072, Note_on_c,3,57,0
5,157592, Note_on_c,3,63,60
5,157642, Note_on_c,3,63,0
5,160448, Note_on_c,3,56,60
5,160498, Note_on_c,3,56,0
5,160988, Note_on_c,3,62,60
5,161038, Note_on_c,3,62,0
5,195457, Program_c,3,48,
5,195605, Note_on_c,3,58,60
5,196417, Note_on_c,3,58,0
5,196989, Note_on_c,3,60,60
5,197373, Note_on_c,3,60,0
5,197560, Note_on_c,3,60,60
5,197790, Note_on_c,3,60,0
5,198073, Note_on_c,3,61,60
5,198546, Note_on_c,3,61,0
5,199105, Note_on_c,3,58,60
5,199305, Note_on_c,3,58,0
5,199397, Note_on_c,3,58,60
5,199535, Note_on_c,3,58,0
5,199541, Note_on_c,3,57,60
5,199925, Note_on_c,3,57,0
5,200129, Note_on_c,3,58,60
5,200941, Note_on_c,3,58,0
5,201490, Note_on_c,3,60,60
5,201974, Note_on_c,3,60,0
5,202061, Note_on_c,3,60,60
5,202470, Note_on_c,3,60,0
5,202493, Note_on_c,3,61,60
5,202877, Note_on_c,3,61,0
5,203637, Note_on_c,3,61,70
5,203837, Note_on_c,3,61,0
5,203933, Note_on_c,3,61,70
5,204071, Note_on_c,3,61,0
5,204085, Note_on_c,3,60,70
5,204469, Note_on_c,3,60,0
5,204921, Note_on_c,3,61,70
5,205733, Note_on_c,3,61,0
5,205933, Note_on_c,3,62,70
5,206133, Note_on_c,3,62,0
5,206231, Note_on_c,3,62,70
5,206369, Note_on_c,3,62,0
5,206381, Note_on_c,3,60,70
5,206765, Note_on_c,3,60,0
5,207185, Note_on_c,3,60,70
5,207485, Note_on_c,3,60,0
5,207753, Note_on_c,3,58,70
5,208053, Note_on_c,3,58,0
5,208353, Note_on_c,3,60,70
5,208653, Note_on_c,3,60,0
5,208961, Note_on_c,3,60,70
5,209261, Note_on_c,3,60,0
5,209513, Note_on_c,3,60,70
5,209813, Note_on_c,3,60,0
5,210093, Note_on_c,3,58,70
5,210393, Note_on_c,3,58,0
5,210685, Note_on_c,3,60,70
5,210985, Note_on_c,3,60,0
5,211277, Note_on_c,3,60,70
5,211577, Note_on_c,3,60,0
5,211809, Note_on_c,3,60,70
5,212109, Note_on_c,3,60,0
5,212373, Note_on_c,3,61,70
5,212673, Note_on_c,3,61,0
5,212937, Note_on_c,3,62,70
5,213237, Note_on_c,3,62,0
5,213501, Note_on_c,3,64,70
5,213801, Note_on_c,3,64,0
5,213933, Program_c,3,45,
5,214049, Note_on_c,3,79,70
5,214099, Note_on_c,3,79,0
5,214625, Note_on_c,3,67,70
5,214675, Note_on_c,3,67,0
5,215193, Note_on_c,3,55,70
5,215243, Note_on_c,3,55,0
5,246529, Program_c,3,48,
5,246937, Note_on_c,3,65,80
5,246937, Note_on_c,3,75,80
5,247027, Note_on_c,3,75,0
5,247027, Note_on_c,3,65,0
5,247027, Note_on_c,3,75,80
5,247027, Note_on_c,3,65,80
5,247117, Note_on_c,3,65,0
5,247117, Note_on_c,3,75,0
5,247285, Note_on_c,3,75,80
5,247285, Note_on_c,3,65,80
5,247375, Note_on_c,3,65,0
5,247375, Note_on_c,3,75,0
5,247375, Note_on_c,3,75,80
5,247375, Note_on_c,3,65,80
5,247465, Note_on_c,3,65,0
5,247465, Note_on_c,3,75,0
5,262657, Program_c,3,45,
5,262681, Note_on_c,3,65,80
5,262681, Note_on_c,3,73,80
5,262731, Note_on_c,3,73,0
5,262731, Note_on_c,3,65,0
5,263285, Note_on_c,3,65,80
5,263285, Note_on_c,3,73,80
5,263335, Note_on_c,3,73,0
5,263335, Note_on_c,3,65,0
5,263897, Note_on_c,3,72,80
5,263897, Note_on_c,3,65,80
5,263897, Note_on_c,3,57,80
5,263947, Note_on_c,3,57,0
5,263947, Note_on_c,3,65,0
5,263947, Note_on_c,3,72,0
5,264509, Note_on_c,3,65,80
5,264509, Note_on_c,3,72,80
5,264509, Note_on_c,3,57,80
5,264559, Note_on_c,3,57,0
5,264559, Note_on_c,3,72,0
5,264559, Note_on_c,3,65,0
5,265093, Note_on_c,3,73,80
5,265093, Note_on_c,3,65,80
5,265143, Note_on_c,3,65,0
5,265143, Note_on_c,3,73,0
5,265685, Note_on_c,3,73,80
5,265685, Note_on_c,3,65,80
5,265735, Note_on_c,3,65,0
5,265735, Note_on_c,3,73,0
5,266301, Note_on_c,3,57,80
5,266301, Note_on_c,3,65,80
5,266301, Note_on_c,3,72,80
5,266351, Note_on_c,3,72,0
5,266351, Note_on_c,3,65,0
5,266351, Note_on_c,3,57,0
5,266913, Note_on_c,3,72,80
5,266913, Note_on_c,3,57,80
5,266913, Note_on_c,3,65,80
5,266963, Note_on_c,3,65,0
5,266963, Note_on_c,3,57,0
5,266963, Note_on_c,3,72,0
5,267537, Note_on_c,3,73,80
5,267537, Note_on_c,3,65,80
5,267587, Note_on_c,3,65,0
5,267587, Note_on_c,3,73,0
5,268121, Note_on_c,3,73,80
5,268121, Note_on_c,3,65,80
5,268171, Note_on_c,3,65,0
5,268171, Note_on_c,3,73,0
5,268741, Note_on_c,3,57,80
5,268741, Note_on_c,3,72,80
5,268741, Note_on_c,3,65,80
5,268791, Note_on_c,3,65,0
5,268791, Note_on_c,3,72,0
5,268791, Note_on_c,3,57,0
5,269345, Note_on_c,3,57,80
5,269345, Note_on_c,3,65,80
5,269345, Note_on_c,3,72,80
5,269395, Note_on_c,3,72,0
5,269395, Note_on_c,3,65,0
5,269395, Note_on_c,3,57,0
5,269941, Note_on_c,3,65,80
5,269941, Note_on_c,3,73,80
5,269991, Note_on_c,3,73,0
5,269991, Note_on_c,3,65,0
5,271129, Note_on_c,3,61,80
5,271179, Note_on_c,3,61,0
5,313345, Control_c,3,11,60
5,313729, Program_c,3,48,
5,313958, Note_on_c,3,61,70
5,315360, Note_on_c,3,61,0
5,315362, Note_on_c,3,63,70
5,316046, Note_on_c,3,63,0
5,316050, Note_on_c,3,60,70
5,316754, Note_on_c,3,60,0
5,319602, Note_on_c,3,61,70
5,321004, Note_on_c,3,61,0
5,321014, Note_on_c,3,63,70
5,321698, Note_on_c,3,63,0
5,321722, Note_on_c,3,60,70
5,322426, Note_on_c,3,60,0
5,323894, Note_on_c,3,56,70
5,324224, Note_on_c,3,56,0
5,326906, Note_on_c,3,56,70
5,327236, Note_on_c,3,56,0
5,328398, Note_on_c,3,67,70
5,328398, Note_on_c,3,59,70
5,328806, Note_on_c,3,59,0
5,328806, Note_on_c,3,67,0
5,328806, Note_on_c,3,67,70
5,328806, Note_on_c,3,59,70
5,329510, Note_on_c,3,59,0
5,329510, Note_on_c,3,67,0
5,331490, Note_on_c,3,60,70
5,331906, Note_on_c,3,60,0
5,331906, Note_on_c,3,60,70
5,332596, Note_on_c,3,60,0
5,333870, Note_on_c,3,61,60
5,336808, Note_on_c,3,61,0
5,336822, Note_on_c,3,61,60
5,338304, Note_on_c,3,61,0
5,338322, Note_on_c,3,61,60
5,339056, Note_on_c,3,61,0
5,339066, Note_on_c,3,60,60
5,339426, Note_on_c,3,60,0
5,339442, Note_on_c,3,58,60
5,339802, Note_on_c,3,58,0
5,339814, Note_on_c,3,60,60
5,340174, Note_on_c,3,60,0
5,340586, Note_on_c,3,57,60
5,341654, Note_on_c,3,57,0
5,341674, Note_on_c,3,60,60
5,342034, Note_on_c,3,60,0
5,342058, Note_on_c,3,58,60
5,342468, Note_on_c,3,58,0
5,344278, Note_on_c,3,60,60
5,345421, Note_on_c,3,60,0
5,345426, Note_on_c,3,61,60
5,345646, Note_on_c,3,61,0
5,345938, Note_on_c,3,61,60
5,348926, Note_on_c,3,61,0
5,348938, Note_on_c,3,61,60
5,350390, Note_on_c,3,61,0
5,350406, Note_on_c,3,61,60
5,351120, Note_on_c,3,61,0
5,351134, Note_on_c,3,60,60
5,351504, Note_on_c,3,60,0
5,351518, Note_on_c,3,58,60
5,351863, Note_on_c,3,58,0
5,352254, Note_on_c,3,56,60
5,352604, Note_on_c,3,56,0
5,352678, Note_on_c,3,63,60
5,354170, Note_on_c,3,63,0
5,354182, Note_on_c,3,65,60
5,355634, Note_on_c,3,65,0
5,355646, Note_on_c,3,63,60
5,357098, Note_on_c,3,63,0
5,357098, Note_on_c,3,65,60
5,358550, Note_on_c,3,65,0
5,380161, Control_c,3,11,110
5,385920, Note_on_c,3,68,120
5,385920, Note_on_c,3,77,120
5,386070, Note_on_c,3,77,0
5,386070, Note_on_c,3,68,0
5,386566, Note_on_c,3,68,120
5,386566, Note_on_c,3,77,120
5,386716, Note_on_c,3,77,0
5,386716, Note_on_c,3,68,0
5,387194, Note_on_c,3,80,120
5,387194, Note_on_c,3,65,120
5,387194, Note_on_c,3,72,120
5,387344, Note_on_c,3,72,0
5,387344, Note_on_c,3,65,0
5,387344, Note_on_c,3,80,0
5,387850, Note_on_c,3,62,120
5,387850, Note_on_c,3,74,120
5,387850, Note_on_c,3,80,120
5,388000, Note_on_c,3,80,0
5,388000, Note_on_c,3,74,0
5,388000, Note_on_c,3,62,0
5,388522, Note_on_c,3,62,120
5,388522, Note_on_c,3,78,120
5,388522, Note_on_c,3,84,120
5,388672, Note_on_c,3,84,0
5,388672, Note_on_c,3,78,0
5,388672, Note_on_c,3,62,0
5,389290, Note_on_c,3,67,120
5,389290, Note_on_c,3,75,120
5,389290, Note_on_c,3,84,120
5,389440, Note_on_c,3,84,0
5,389440, Note_on_c,3,75,0
5,389440, Note_on_c,3,67,0
5,407425, Control_c,3,11,80
5,407514, Note_on_c,3,63,70
5,407884, Note_on_c,3,63,0
5,407894, Note_on_c,3,65,70
5,408254, Note_on_c,3,65,0
5,408262, Note_on_c,3,67,70
5,408607, Note_on_c,3,67,0
5,408622, Note_on_c,3,63,70
5,408967, Note_on_c,3,63,0
5,408976, Note_on_c,3,65,70
5,409321, Note_on_c,3,65,0
5,409326, Note_on_c,3,67,70
5,409676, Note_on_c,3,67,0
5,409687, Note_on_c,3,68,70
5,410047, Note_on_c,3,68,0
5,410068, Note_on_c,3,63,70
5,410398, Note_on_c,3,63,0
5,410402, Note_on_c,3,65,70
5,410777, Note_on_c,3,65,0
5,410786, Note_on_c,3,58,70
5,411126, Note_on_c,3,58,0
5,411134, Note_on_c,3,65,70
5,411509, Note_on_c,3,65,0
5,411518, Note_on_c,3,58,70
5,411863, Note_on_c,3,58,0
5,411870, Note_on_c,3,65,70
5,412215, Note_on_c,3,65,0
5,412227, Note_on_c,3,63,70
5,412577, Note_on_c,3,63,0
5,412590, Note_on_c,3,65,70
5,412940, Note_on_c,3,65,0
5,412958, Note_on_c,3,60,70
5,413258, Note_on_c,3,60,0
5,413322, Note_on_c,3,63,70
5,413672, Note_on_c,3,63,0
5,413682, Note_on_c,3,65,70
5,414037, Note_on_c,3,65,0
5,414054, Note_on_c,3,67,70
5,414404, Note_on_c,3,67,0
5,414410, Note_on_c,3,63,70
5,414760, Note_on_c,3,63,0
5,414770, Note_on_c,3,65,70
5,415120, Note_on_c,3,65,0
5,415130, Note_on_c,3,67,70
5,415480, Note_on_c,3,67,0
5,415494, Note_on_c,3,68,70
5,415839, Note_on_c,3,68,0
5,415846, Note_on_c,3,63,70
5,416196, Note_on_c,3,63,0
5,416210, Note_on_c,3,65,70
5,416560, Note_on_c,3,65,0
5,416578, Note_on_c,3,58,70
5,416928, Note_on_c,3,58,0
5,416942, Note_on_c,3,65,70
5,417292, Note_on_c,3,65,0
5,417312, Note_on_c,3,58,70
5,417662, Note_on_c,3,58,0
5,417690, Note_on_c,3,65,70
5,418040, Note_on_c,3,65,0
5,418054, Note_on_c,3,60,70
5,418404, Note_on_c,3,60,0
5,418414, Note_on_c,3,65,70
5,418764, Note_on_c,3,65,0
5,418786, Note_on_c,3,60,70
5,419136, Note_on_c,3,60,0
5,428545, Control_c,3,11,60
5,428666, Note_on_c,3,60,60
5,429878, Note_on_c,3,60,0
5,431402, Note_on_c,3,60,60
5,432614, Note_on_c,3,60,0
5,433494, Note_on_c,3,60,60
5,433978, Note_on_c,3,60,0
5,434910, Note_on_c,3,60,60
5,435394, Note_on_c,3,60,0
5,442753, Control_c,3,11,80
5,443077, Note_on_c,3,56,60
5,443561, Note_on_c,3,56,0
5,444341, Note_on_c,3,57,60
5,444825, Note_on_c,3,57,0
5,445042, Control_c,3,11,81
5,447332, Control_c,3,11,82
5,448143, Note_on_c,3,58,60
5,448627, Note_on_c,3,58,0
5,449407, Note_on_c,3,59,60
5,449621, Control_c,3,11,83
5,449891, Note_on_c,3,59,0
5,451911, Control_c,3,11,84
5,452883, Note_on_c,3,60,70
5,453193, Note_on_c,3,60,0
5,453199, Note_on_c,3,62,70
5,453509, Note_on_c,3,62,0
5,453515, Note_on_c,3,63,70
5,453825, Note_on_c,3,63,0
5,453831, Note_on_c,3,59,70
5,454141, Note_on_c,3,59,0
5,454201, Control_c,3,11,85
5,455411, Note_on_c,3,63,70
5,455721, Note_on_c,3,63,0
5,455727, Note_on_c,3,64,70
5,456037, Note_on_c,3,64,0
5,456043, Note_on_c,3,65,70
5,456353, Note_on_c,3,65,0
5,456359, Note_on_c,3,61,70
5,456490, Control_c,3,11,86
5,456669, Note_on_c,3,61,0
5,457939, Note_on_c,3,62,70
5,458089, Note_on_c,3,62,0
5,458097, Note_on_c,3,64,70
5,458247, Note_on_c,3,64,0
5,458255, Note_on_c,3,65,70
5,458405, Note_on_c,3,65,0
5,458413, Note_on_c,3,66,70
5,458563, Note_on_c,3,66,0
5,458571, Note_on_c,3,62,70
5,458721, Note_on_c,3,62,0
5,458729, Note_on_c,3,64,70
5,458780, Control_c,3,11,87
5,458879, Note_on_c,3,64,0
5,458887, Note_on_c,3,66,70
5,459037, Note_on_c,3,66,0
5,459045, Note_on_c,3,67,70
5,459195, Note_on_c,3,67,0
5,459203, Note_on_c,3,64,70
5,459353, Note_on_c,3,64,0
5,459361, Note_on_c,3,66,70
5,459511, Note_on_c,3,66,0
5,459519, Note_on_c,3,67,70
5,459669, Note_on_c,3,67,0
5,459677, Note_on_c,3,68,70
5,459827, Note_on_c,3,68,0
5,459835, Note_on_c,3,64,70
5,459985, Note_on_c,3,64,0
5,459993, Note_on_c,3,66,70
5,460143, Note_on_c,3,66,0
5,460151, Note_on_c,3,68,70
5,460301, Note_on_c,3,68,0
5,460309, Note_on_c,3,69,70
5,460459, Note_on_c,3,69,0
5,461070, Control_c,3,11,88
5,462995, Note_on_c,3,64,70
5,463145, Note_on_c,3,64,0
5,463153, Note_on_c,3,66,70
5,463303, Note_on_c,3,66,0
5,463311, Note_on_c,3,67,70
5,463359, Control_c,3,11,89
5,463461, Note_on_c,3,67,0
5,463469, Note_on_c,3,68,70
5,463619, Note_on_c,3,68,0
5,463627, Note_on_c,3,64,70
5,463777, Note_on_c,3,64,0
5,463785, Note_on_c,3,66,70
5,463935, Note_on_c,3,66,0
5,463943, Note_on_c,3,68,70
5,464093, Note_on_c,3,68,0
5,464101, Note_on_c,3,69,70
5,464251, Note_on_c,3,69,0
5,464259, Note_on_c,3,66,70
5,464409, Note_on_c,3,66,0
5,464417, Note_on_c,3,68,70
5,464567, Note_on_c,3,68,0
5,464575, Note_on_c,3,69,70
5,464725, Note_on_c,3,69,0
5,464733, Note_on_c,3,70,70
5,464883, Note_on_c,3,70,0
5,464891, Note_on_c,3,66,70
5,465041, Note_on_c,3,66,0
5,465049, Note_on_c,3,68,70
5,465199, Note_on_c,3,68,0
5,465207, Note_on_c,3,70,70
5,465357, Note_on_c,3,70,0
5,465365, Note_on_c,3,71,70
5,465515, Note_on_c,3,71,0
5,465649, Control_c,3,11,90
5,467938, Control_c,3,11,91
5,468051, Note_on_c,3,71,70
5,468201, Note_on_c,3,71,0
5,468209, Note_on_c,3,70,70
5,468359, Note_on_c,3,70,0
5,468367, Note_on_c,3,69,70
5,468517, Note_on_c,3,69,0
5,468525, Note_on_c,3,68,70
5,468675, Note_on_c,3,68,0
5,468683, Note_on_c,3,67,70
5,468833, Note_on_c,3,67,0
5,468841, Note_on_c,3,66,70
5,468991, Note_on_c,3,66,0
5,468999, Note_on_c,3,65,70
5,469149, Note_on_c,3,65,0
5,469157, Note_on_c,3,66,70
5,469307, Note_on_c,3,66,0
5,469315, Note_on_c,3,69,70
5,469465, Note_on_c,3,69,0
5,469473, Note_on_c,3,70,70
5,469623, Note_on_c,3,70,0
5,469631, Note_on_c,3,71,70
5,469781, Note_on_c,3,71,0
5,469789, Note_on_c,3,72,70
5,469939, Note_on_c,3,72,0
5,469947, Note_on_c,3,73,70
5,470097, Note_on_c,3,73,0
5,470105, Note_on_c,3,74,70
5,470228, Control_c,3,11,92
5,470255, Note_on_c,3,74,0
5,470263, Note_on_c,3,75,70
5,470413, Note_on_c,3,75,0
5,470421, Note_on_c,3,76,70
5,470571, Note_on_c,3,76,0
5,470579, Note_on_c,3,64,70
5,470889, Note_on_c,3,64,0
5,470895, Note_on_c,3,66,70
5,471205, Note_on_c,3,66,0
5,471211, Note_on_c,3,68,70
5,471521, Note_on_c,3,68,0
5,471527, Note_on_c,3,64,70
5,471837, Note_on_c,3,64,0
5,471843, Note_on_c,3,66,70
5,472153, Note_on_c,3,66,0
5,472159, Note_on_c,3,68,70
5,472469, Note_on_c,3,68,0
5,472485, Note_on_c,3,69,70
5,472518, Control_c,3,11,93
5,472795, Note_on_c,3,69,0
5,472801, Note_on_c,3,64,70
5,473111, Note_on_c,3,64,0
5,473117, Note_on_c,3,69,70
5,473267, Note_on_c,3,69,0
5,473275, Note_on_c,3,68,70
5,473425, Note_on_c,3,68,0
5,473433, Note_on_c,3,67,70
5,473583, Note_on_c,3,67,0
5,473591, Note_on_c,3,66,70
5,473741, Note_on_c,3,66,0
5,473749, Note_on_c,3,65,70
5,473899, Note_on_c,3,65,0
5,473907, Note_on_c,3,64,70
5,474057, Note_on_c,3,64,0
5,474065, Note_on_c,3,63,70
5,474215, Note_on_c,3,63,0
5,474223, Note_on_c,3,64,70
5,474373, Note_on_c,3,64,0
5,474381, Note_on_c,3,67,70
5,474531, Note_on_c,3,67,0
5,474539, Note_on_c,3,68,70
5,474689, Note_on_c,3,68,0
5,474697, Note_on_c,3,69,70
5,474807, Control_c,3,11,94
5,474847, Note_on_c,3,69,0
5,474855, Note_on_c,3,70,70
5,475005, Note_on_c,3,70,0
5,475013, Note_on_c,3,71,70
5,475163, Note_on_c,3,71,0
5,475171, Note_on_c,3,72,70
5,475321, Note_on_c,3,72,0
5,475329, Note_on_c,3,73,70
5,475479, Note_on_c,3,73,0
5,475487, Note_on_c,3,74,70
5,475637, Note_on_c,3,74,0
5,475645, Note_on_c,3,62,80
5,475955, Note_on_c,3,62,0
5,475961, Note_on_c,3,64,80
5,476271, Note_on_c,3,64,0
5,476277, Note_on_c,3,66,80
5,476587, Note_on_c,3,66,0
5,476593, Note_on_c,3,62,80
5,476903, Note_on_c,3,62,0
5,476909, Note_on_c,3,64,80
5,477097, Control_c,3,11,95
5,477219, Note_on_c,3,64,0
5,477225, Note_on_c,3,66,80
5,477535, Note_on_c,3,66,0
5,477551, Note_on_c,3,67,80
5,477861, Note_on_c,3,67,0
5,477867, Note_on_c,3,62,80
5,478177, Note_on_c,3,62,0
5,478183, Note_on_c,3,67,90
5,478303, Note_on_c,3,67,0
5,478341, Note_on_c,3,67,90
5,478461, Note_on_c,3,67,0
5,478499, Note_on_c,3,69,90
5,478619, Note_on_c,3,69,0
5,478657, Note_on_c,3,69,90
5,478777, Note_on_c,3,69,0
5,478815, Note_on_c,3,71,90
5,478935, Note_on_c,3,71,0
5,478973, Note_on_c,3,71,90
5,479093, Note_on_c,3,71,0
5,479131, Note_on_c,3,67,90
5,479251, Note_on_c,3,67,0
5,479289, Note_on_c,3,67,90
5,479387, Control_c,3,11,96
5,479409, Note_on_c,3,67,0
5,479447, Note_on_c,3,69,90
5,479567, Note_on_c,3,69,0
5,479605, Note_on_c,3,69,90
5,479725, Note_on_c,3,69,0
5,479763, Note_on_c,3,71,90
5,479883, Note_on_c,3,71,0
5,479921, Note_on_c,3,71,90
5,480041, Note_on_c,3,71,0
5,480089, Note_on_c,3,72,90
5,480209, Note_on_c,3,72,0
5,480247, Note_on_c,3,72,90
5,480367, Note_on_c,3,72,0
5,480405, Note_on_c,3,74,90
5,480525, Note_on_c,3,74,0
5,480563, Note_on_c,3,74,90
5,480683, Note_on_c,3,74,0
5,480723, Note_on_c,3,67,90
5,480843, Note_on_c,3,67,0
5,480881, Note_on_c,3,67,90
5,481001, Note_on_c,3,67,0
5,481039, Note_on_c,3,69,90
5,481159, Note_on_c,3,69,0
5,481197, Note_on_c,3,69,90
5,481317, Note_on_c,3,69,0
5,481355, Note_on_c,3,71,90
5,481475, Note_on_c,3,71,0
5,481513, Note_on_c,3,71,90
5,481633, Note_on_c,3,71,0
5,481671, Note_on_c,3,67,90
5,481676, Control_c,3,11,97
5,481791, Note_on_c,3,67,0
5,481829, Note_on_c,3,67,90
5,481949, Note_on_c,3,67,0
5,481987, Note_on_c,3,69,90
5,482107, Note_on_c,3,69,0
5,482145, Note_on_c,3,69,90
5,482265, Note_on_c,3,69,0
5,482303, Note_on_c,3,71,90
5,482423, Note_on_c,3,71,0
5,482461, Note_on_c,3,71,90
5,482581, Note_on_c,3,71,0
5,482629, Note_on_c,3,72,90
5,482749, Note_on_c,3,72,0
5,482787, Note_on_c,3,72,90
5,482907, Note_on_c,3,72,0
5,482945, Note_on_c,3,74,90
5,483065, Note_on_c,3,74,0
5,483103, Note_on_c,3,74,90
5,483223, Note_on_c,3,74,0
5,483261, Note_on_c,3,72,90
5,483381, Note_on_c,3,72,0
5,483419, Note_on_c,3,72,90
5,483539, Note_on_c,3,72,0
5,483577, Note_on_c,3,74,90
5,483697, Note_on_c,3,74,0
5,483735, Note_on_c,3,74,90
5,483855, Note_on_c,3,74,0
5,483893, Note_on_c,3,76,90
5,483966, Control_c,3,11,98
5,484013, Note_on_c,3,76,0
5,484051, Note_on_c,3,76,90
5,484171, Note_on_c,3,76,0
5,484209, Note_on_c,3,72,90
5,484329, Note_on_c,3,72,0
5,484367, Note_on_c,3,72,90
5,484487, Note_on_c,3,72,0
5,484525, Note_on_c,3,74,90
5,484645, Note_on_c,3,74,0
5,484683, Note_on_c,3,74,90
5,484803, Note_on_c,3,74,0
5,484841, Note_on_c,3,76,90
5,484961, Note_on_c,3,76,0
5,484999, Note_on_c,3,76,90
5,485119, Note_on_c,3,76,0
5,485167, Note_on_c,3,77,90
5,485287, Note_on_c,3,77,0
5,485325, Note_on_c,3,77,90
5,485445, Note_on_c,3,77,0
5,485483, Note_on_c,3,79,90
5,485603, Note_on_c,3,79,0
5,485641, Note_on_c,3,79,90
5,485761, Note_on_c,3,79,0
5,485799, Note_on_c,3,72,90
5,485919, Note_on_c,3,72,0
5,485957, Note_on_c,3,72,90
5,486077, Note_on_c,3,72,0
5,486115, Note_on_c,3,74,90
5,486235, Note_on_c,3,74,0
5,486256, Control_c,3,11,99
5,486273, Note_on_c,3,74,90
5,486393, Note_on_c,3,74,0
5,486431, Note_on_c,3,76,90
5,486551, Note_on_c,3,76,0
5,486589, Note_on_c,3,76,90
5,486709, Note_on_c,3,76,0
5,486747, Note_on_c,3,72,90
5,486867, Note_on_c,3,72,0
5,486905, Note_on_c,3,72,90
5,487025, Note_on_c,3,72,0
5,487063, Note_on_c,3,74,90
5,487183, Note_on_c,3,74,0
5,487221, Note_on_c,3,74,90
5,487341, Note_on_c,3,74,0
5,487379, Note_on_c,3,76,90
5,487499, Note_on_c,3,76,0
5,487537, Note_on_c,3,76,90
5,487657, Note_on_c,3,76,0
5,487705, Note_on_c,3,77,90
5,487825, Note_on_c,3,77,0
5,487863, Note_on_c,3,77,90
5,487983, Note_on_c,3,77,0
5,488021, Note_on_c,3,79,90
5,488141, Note_on_c,3,79,0
5,488179, Note_on_c,3,79,90
5,488299, Note_on_c,3,79,0
5,488337, Note_on_c,3,80,90
5,488337, Note_on_c,3,72,90
5,488427, Note_on_c,3,72,0
5,488427, Note_on_c,3,80,0
5,488442, Note_on_c,3,80,90
5,488442, Note_on_c,3,72,90
5,488532, Note_on_c,3,72,0
5,488532, Note_on_c,3,80,0
5,488545, Control_c,3,11,100
5,488547, Note_on_c,3,80,90
5,488547, Note_on_c,3,72,90
5,488637, Note_on_c,3,72,0
5,488637, Note_on_c,3,80,0
5,488653, Note_on_c,3,72,90
5,488653, Note_on_c,3,80,90
5,488773, Note_on_c,3,80,0
5,488773, Note_on_c,3,72,0
5,488811, Note_on_c,3,72,90
5,488811, Note_on_c,3,80,90
5,488931, Note_on_c,3,80,0
5,488931, Note_on_c,3,72,0
5,488969, Note_on_c,3,72,90
5,488969, Note_on_c,3,80,90
5,489089, Note_on_c,3,80,0
5,489089, Note_on_c,3,72,0
5,489127, Note_on_c,3,72,90
5,489127, Note_on_c,3,80,90
5,489247, Note_on_c,3,80,0
5,489247, Note_on_c,3,72,0
5,489285, Note_on_c,3,80,90
5,489285, Note_on_c,3,72,90
5,489405, Note_on_c,3,72,0
5,489405, Note_on_c,3,80,0
5,489443, Note_on_c,3,80,90
5,489443, Note_on_c,3,72,90
5,489563, Note_on_c,3,72,0
5,489563, Note_on_c,3,80,0
5,489601, Note_on_c,3,72,90
5,489601, Note_on_c,3,80,90
5,489721, Note_on_c,3,80,0
5,489721, Note_on_c,3,72,0
5,489759, Note_on_c,3,72,90
5,489759, Note_on_c,3,80,90
5,489879, Note_on_c,3,80,0
5,489879, Note_on_c,3,72,0
5,489917, Note_on_c,3,72,90
5,489917, Note_on_c,3,80,90
5,490037, Note_on_c,3,80,0
5,490037, Note_on_c,3,72,0
5,490075, Note_on_c,3,72,90
5,490075, Note_on_c,3,80,90
5,490195, Note_on_c,3,80,0
5,490195, Note_on_c,3,72,0
5,490243, Note_on_c,3,72,90
5,490243, Note_on_c,3,80,90
5,490363, Note_on_c,3,80,0
5,490363, Note_on_c,3,72,0
5,490401, Note_on_c,3,72,90
5,490401, Note_on_c,3,80,90
5,490521, Note_on_c,3,80,0
5,490521, Note_on_c,3,72,0
5,490559, Note_on_c,3,71,90
5,490679, Note_on_c,3,71,0
5,490770, Note_on_c,3,77,90
5,490835, Control_c,3,11,101
5,490970, Note_on_c,3,77,0
5,490981, Note_on_c,3,79,90
5,491181, Note_on_c,3,79,0
5,491192, Note_on_c,3,80,90
5,491392, Note_on_c,3,80,0
5,491403, Note_on_c,3,74,90
5,491603, Note_on_c,3,74,0
5,491614, Note_on_c,3,76,90
5,491814, Note_on_c,3,76,0
5,491825, Note_on_c,3,77,90
5,492025, Note_on_c,3,77,0
5,492036, Note_on_c,3,77,90
5,492236, Note_on_c,3,77,0
5,492247, Note_on_c,3,79,90
5,492447, Note_on_c,3,79,0
5,492458, Note_on_c,3,80,90
5,492658, Note_on_c,3,80,0
5,492669, Note_on_c,3,74,90
5,492869, Note_on_c,3,74,0
5,492880, Note_on_c,3,76,90
5,493080, Note_on_c,3,76,0
5,493091, Note_on_c,3,77,90
5,493124, Control_c,3,11,102
5,493291, Note_on_c,3,77,0
5,493407, Note_on_c,3,80,90
5,493407, Note_on_c,3,72,90
5,493497, Note_on_c,3,72,0
5,493497, Note_on_c,3,80,0
5,493512, Note_on_c,3,80,90
5,493512, Note_on_c,3,72,90
5,493602, Note_on_c,3,72,0
5,493602, Note_on_c,3,80,0
5,493617, Note_on_c,3,80,90
5,493617, Note_on_c,3,72,90
5,493707, Note_on_c,3,72,0
5,493707, Note_on_c,3,80,0
5,493723, Note_on_c,3,72,90
5,493723, Note_on_c,3,80,90
5,493843, Note_on_c,3,80,0
5,493843, Note_on_c,3,72,0
5,493881, Note_on_c,3,72,90
5,493881, Note_on_c,3,80,90
5,494001, Note_on_c,3,80,0
5,494001, Note_on_c,3,72,0
5,494039, Note_on_c,3,72,90
5,494039, Note_on_c,3,80,90
5,494159, Note_on_c,3,80,0
5,494159, Note_on_c,3,72,0
5,494197, Note_on_c,3,72,90
5,494197, Note_on_c,3,80,90
5,494317, Note_on_c,3,80,0
5,494317, Note_on_c,3,72,0
5,494355, Note_on_c,3,80,90
5,494355, Note_on_c,3,72,90
5,494475, Note_on_c,3,72,0
5,494475, Note_on_c,3,80,0
5,494513, Note_on_c,3,80,90
5,494513, Note_on_c,3,72,90
5,494633, Note_on_c,3,72,0
5,494633, Note_on_c,3,80,0
5,494671, Note_on_c,3,80,90
5,494671, Note_on_c,3,72,90
5,494791, Note_on_c,3,72,0
5,494791, Note_on_c,3,80,0
5,494829, Note_on_c,3,80,90
5,494829, Note_on_c,3,72,90
5,494949, Note_on_c,3,72,0
5,494949, Note_on_c,3,80,0
5,494987, Note_on_c,3,72,90
5,495107, Note_on_c,3,72,0
5,495145, Note_on_c,3,80,90
5,495265, Note_on_c,3,80,0
5,495313, Note_on_c,3,80,90
5,495414, Control_c,3,11,103
5,495433, Note_on_c,3,80,0
5,495471, Note_on_c,3,72,90
5,495591, Note_on_c,3,72,0
5,495629, Note_on_c,3,71,90
5,495829, Note_on_c,3,71,0
5,495840, Note_on_c,3,77,90
5,496040, Note_on_c,3,77,0
5,496051, Note_on_c,3,79,90
5,496251, Note_on_c,3,79,0
5,496262, Note_on_c,3,80,90
5,496462, Note_on_c,3,80,0
5,496473, Note_on_c,3,74,90
5,496673, Note_on_c,3,74,0
5,496684, Note_on_c,3,76,90
5,496884, Note_on_c,3,76,0
5,496895, Note_on_c,3,77,90
5,497095, Note_on_c,3,77,0
5,497106, Note_on_c,3,77,90
5,497306, Note_on_c,3,77,0
5,497317, Note_on_c,3,79,90
5,497517, Note_on_c,3,79,0
5,497528, Note_on_c,3,80,90
5,497704, Control_c,3,11,104
5,497728, Note_on_c,3,80,0
5,497739, Note_on_c,3,74,90
5,497939, Note_on_c,3,74,0
5,497950, Note_on_c,3,76,90
5,498150, Note_on_c,3,76,0
5,498161, Note_on_c,3,77,90
5,498361, Note_on_c,3,77,0
5,498372, Note_on_c,3,77,90
5,498572, Note_on_c,3,77,0
5,498583, Note_on_c,3,79,90
5,498783, Note_on_c,3,79,0
5,498794, Note_on_c,3,80,90
5,498994, Note_on_c,3,80,0
5,499005, Note_on_c,3,74,90
5,499205, Note_on_c,3,74,0
5,499216, Note_on_c,3,76,90
5,499416, Note_on_c,3,76,0
5,499427, Note_on_c,3,77,90
5,499627, Note_on_c,3,77,0
5,499638, Note_on_c,3,77,90
5,499838, Note_on_c,3,77,0
5,499849, Note_on_c,3,79,90
5,499993, Control_c,3,11,105
5,500049, Note_on_c,3,79,0
5,500060, Note_on_c,3,80,90
5,500260, Note_on_c,3,80,0
5,500271, Note_on_c,3,74,90
5,500471, Note_on_c,3,74,0
5,500482, Note_on_c,3,76,90
5,500682, Note_on_c,3,76,0
5,500693, Note_on_c,3,77,90
5,500893, Note_on_c,3,77,0
5,500904, Note_on_c,3,77,90
5,501104, Note_on_c,3,77,0
5,501115, Note_on_c,3,79,90
5,501315, Note_on_c,3,79,0
5,501326, Note_on_c,3,81,90
5,501526, Note_on_c,3,81,0
5,501537, Note_on_c,3,74,90
5,501737, Note_on_c,3,74,0
5,501748, Note_on_c,3,76,90
5,501948, Note_on_c,3,76,0
5,501959, Note_on_c,3,77,90
5,502159, Note_on_c,3,77,0
5,502170, Note_on_c,3,77,90
5,502283, Control_c,3,11,106
5,502370, Note_on_c,3,77,0
5,502381, Note_on_c,3,79,90
5,502581, Note_on_c,3,79,0
5,502592, Note_on_c,3,81,90
5,502792, Note_on_c,3,81,0
5,502803, Note_on_c,3,74,90
5,503003, Note_on_c,3,74,0
5,503014, Note_on_c,3,76,90
5,503214, Note_on_c,3,76,0
5,503225, Note_on_c,3,77,90
5,503425, Note_on_c,3,77,0
5,503436, Note_on_c,3,77,90
5,503636, Note_on_c,3,77,0
5,503647, Note_on_c,3,79,90
5,503847, Note_on_c,3,79,0
5,503858, Note_on_c,3,81,90
5,504008, Note_on_c,3,81,0
5,504016, Note_on_c,3,79,90
5,504166, Note_on_c,3,79,0
5,504174, Note_on_c,3,77,90
5,504324, Note_on_c,3,77,0
5,504332, Note_on_c,3,76,90
5,504482, Note_on_c,3,76,0
5,504490, Note_on_c,3,77,90
5,504573, Control_c,3,11,107
5,504640, Note_on_c,3,77,0
5,504648, Note_on_c,3,76,90
5,504798, Note_on_c,3,76,0
5,504806, Note_on_c,3,74,90
5,504956, Note_on_c,3,74,0
5,504964, Note_on_c,3,73,90
5,505114, Note_on_c,3,73,0
5,505122, Note_on_c,3,74,90
5,505272, Note_on_c,3,74,0
5,505280, Note_on_c,3,72,90
5,505430, Note_on_c,3,72,0
5,505438, Note_on_c,3,70,90
5,505588, Note_on_c,3,70,0
5,505596, Note_on_c,3,69,90
5,505746, Note_on_c,3,69,0
5,505754, Note_on_c,3,77,90
5,505904, Note_on_c,3,77,0
5,505912, Note_on_c,3,75,90
5,506062, Note_on_c,3,75,0
5,506070, Note_on_c,3,74,90
5,506220, Note_on_c,3,74,0
5,506228, Note_on_c,3,73,90
5,506378, Note_on_c,3,73,0
5,506386, Note_on_c,3,74,90
5,506536, Note_on_c,3,74,0
5,506544, Note_on_c,3,72,90
5,506694, Note_on_c,3,72,0
5,506702, Note_on_c,3,70,90
5,506852, Note_on_c,3,70,0
5,506860, Note_on_c,3,69,90
5,506862, Control_c,3,11,108
5,507010, Note_on_c,3,69,0
5,507018, Note_on_c,3,70,90
5,507168, Note_on_c,3,70,0
5,507176, Note_on_c,3,69,90
5,507326, Note_on_c,3,69,0
5,507334, Note_on_c,3,67,90
5,507484, Note_on_c,3,67,0
5,507492, Note_on_c,3,65,90
5,507642, Note_on_c,3,65,0
5,507650, Note_on_c,3,67,90
5,507800, Note_on_c,3,67,0
5,507808, Note_on_c,3,65,90
5,507958, Note_on_c,3,65,0
5,507966, Note_on_c,3,63,90
5,508116, Note_on_c,3,63,0
5,508124, Note_on_c,3,62,90
5,508274, Note_on_c,3,62,0
5,508282, Note_on_c,3,63,90
5,508432, Note_on_c,3,63,0
5,508440, Note_on_c,3,62,90
5,508590, Note_on_c,3,62,0
5,508598, Note_on_c,3,60,90
5,508748, Note_on_c,3,60,0
5,508756, Note_on_c,3,58,90
5,508906, Note_on_c,3,58,0
5,508914, Note_on_c,3,67,90
5,509064, Note_on_c,3,67,0
5,509072, Note_on_c,3,65,90
5,509152, Control_c,3,11,109
5,509222, Note_on_c,3,65,0
5,509230, Note_on_c,3,63,90
5,509380, Note_on_c,3,63,0
5,509388, Note_on_c,3,62,90
5,509538, Note_on_c,3,62,0
5,509546, Note_on_c,3,63,90
5,509696, Note_on_c,3,63,0
5,509704, Note_on_c,3,62,90
5,509854, Note_on_c,3,62,0
5,509862, Note_on_c,3,60,90
5,510012, Note_on_c,3,60,0
5,510020, Note_on_c,3,58,90
5,510170, Note_on_c,3,58,0
5,510178, Note_on_c,3,67,90
5,510328, Note_on_c,3,67,0
5,510336, Note_on_c,3,65,90
5,510486, Note_on_c,3,65,0
5,510494, Note_on_c,3,63,90
5,510644, Note_on_c,3,63,0
5,510652, Note_on_c,3,62,90
5,510802, Note_on_c,3,62,0
5,510810, Note_on_c,3,63,90
5,510960, Note_on_c,3,63,0
5,510968, Note_on_c,3,62,90
5,511118, Note_on_c,3,62,0
5,511126, Note_on_c,3,60,90
5,511276, Note_on_c,3,60,0
5,511284, Note_on_c,3,58,90
5,511434, Note_on_c,3,58,0
5,511442, Control_c,3,11,110
5,511442, Note_on_c,3,63,90
5,511442, Note_on_c,3,58,90
5,511642, Note_on_c,3,58,0
5,511642, Note_on_c,3,63,0
5,561025, Control_c,3,11,90
5,561252, Note_on_c,3,64,70
5,561686, Note_on_c,3,64,0
5,561692, Note_on_c,3,63,70
5,561902, Note_on_c,3,63,0
5,561916, Note_on_c,3,61,70
5,562416, Note_on_c,3,61,0
5,562416, Note_on_c,3,59,70
5,562800, Note_on_c,3,59,0
5,563148, Note_on_c,3,58,70
5,563338, Note_on_c,3,58,0
5,563340, Note_on_c,3,59,70
5,563530, Note_on_c,3,59,0
5,563532, Note_on_c,3,64,70
5,563966, Note_on_c,3,63,70
5,564066, Note_on_c,3,64,0
5,564154, Note_on_c,3,63,0
5,564190, Note_on_c,3,61,70
5,564630, Note_on_c,3,59,70
5,564714, Note_on_c,3,61,0
5,565164, Note_on_c,3,59,0
5,565680, Note_on_c,3,69,70
5,566231, Note_on_c,3,69,0
5,566234, Note_on_c,3,68,70
5,566444, Note_on_c,3,68,0
5,566450, Note_on_c,3,68,70
5,566834, Note_on_c,3,68,0
5,566834, Note_on_c,3,66,70
5,567218, Note_on_c,3,66,0
5,567822, Note_on_c,3,65,70
5,568000, Note_on_c,3,66,70
5,568002, Note_on_c,3,65,0
5,568216, Note_on_c,3,66,0
5,568216, Note_on_c,3,69,70
5,568600, Note_on_c,3,69,0
5,568648, Note_on_c,3,68,70
5,568848, Note_on_c,3,68,0
5,568864, Note_on_c,3,68,70
5,569198, Note_on_c,3,66,60
5,569296, Note_on_c,3,68,0
5,569630, Note_on_c,3,66,0
5,570268, Note_on_c,3,63,70
5,570784, Note_on_c,3,63,0
5,570788, Note_on_c,3,61,70
5,571000, Note_on_c,3,61,0
5,571000, Note_on_c,3,61,70
5,571368, Note_on_c,3,61,0
5,571368, Note_on_c,3,59,70
5,571800, Note_on_c,3,59,0
5,572164, Note_on_c,3,55,70
5,572352, Note_on_c,3,55,0
5,572352, Note_on_c,3,56,70
5,572532, Note_on_c,3,56,0
5,572540, Note_on_c,3,63,70
5,572910, Note_on_c,3,63,0
5,572916, Note_on_c,3,61,70
5,573096, Note_on_c,3,61,0
5,573104, Note_on_c,3,61,70
5,573284, Note_on_c,3,61,0
5,573292, Note_on_c,3,58,70
5,573472, Note_on_c,3,58,0
5,573480, Note_on_c,3,59,70
5,573780, Note_on_c,3,59,0
5,574432, Note_on_c,3,55,70
5,574612, Note_on_c,3,55,0
5,574620, Note_on_c,3,56,70
5,574800, Note_on_c,3,56,0
5,574808, Note_on_c,3,68,70
5,575160, Note_on_c,3,68,0
5,575160, Note_on_c,3,66,70
5,575340, Note_on_c,3,66,0
5,575340, Note_on_c,3,66,70
5,575692, Note_on_c,3,66,0
5,575692, Note_on_c,3,64,70
5,576044, Note_on_c,3,64,0
5,576648, Note_on_c,3,60,70
5,576828, Note_on_c,3,60,0
5,576836, Note_on_c,3,61,70
5,577016, Note_on_c,3,61,0
5,577024, Note_on_c,3,68,70
5,577376, Note_on_c,3,68,0
5,577376, Note_on_c,3,66,70
5,577556, Note_on_c,3,66,0
5,577556, Note_on_c,3,66,70
5,577736, Note_on_c,3,66,0
5,577736, Note_on_c,3,63,70
5,577916, Note_on_c,3,63,0
5,577918, Note_on_c,3,64,70
5,578218, Note_on_c,3,64,0
5,578864, Note_on_c,3,60,70
5,579044, Note_on_c,3,60,0
5,579052, Note_on_c,3,61,70
5,579232, Note_on_c,3,61,0
5,579240, Note_on_c,3,73,70
5,579592, Note_on_c,3,73,0
5,579592, Note_on_c,3,71,70
5,579772, Note_on_c,3,71,0
5,579772, Note_on_c,3,71,70
5,580132, Note_on_c,3,71,0
5,580134, Note_on_c,3,69,70
5,580434, Note_on_c,3,69,0
5,581096, Note_on_c,3,65,70
5,581276, Note_on_c,3,65,0
5,581284, Note_on_c,3,66,70
5,581464, Note_on_c,3,66,0
5,581472, Note_on_c,3,73,70
5,581824, Note_on_c,3,73,0
5,581824, Control_c,3,11,100
5,581824, Note_on_c,3,71,70
5,582004, Note_on_c,3,71,0
5,582004, Note_on_c,3,71,70
5,582117, Control_c,3,11,101
5,582184, Note_on_c,3,71,0
5,582184, Note_on_c,3,68,71
5,582364, Note_on_c,3,68,0
5,582366, Note_on_c,3,69,72
5,582410, Control_c,3,11,102
5,582666, Note_on_c,3,69,0
5,582703, Control_c,3,11,103
5,582996, Control_c,3,11,104
5,583290, Control_c,3,11,105
5,583312, Note_on_c,3,65,72
5,583502, Note_on_c,3,65,0
5,583508, Note_on_c,3,66,72
5,583583, Control_c,3,11,106
5,583693, Note_on_c,3,66,0
5,583698, Note_on_c,3,71,79
5,583778, Note_on_c,3,71,0
5,583793, Note_on_c,3,71,80
5,583873, Note_on_c,3,71,0
5,583876, Control_c,3,11,107
5,583888, Note_on_c,3,68,80
5,583968, Note_on_c,3,68,0
5,583983, Note_on_c,3,68,81
5,584063, Note_on_c,3,68,0
5,584078, Note_on_c,3,69,81
5,584158, Note_on_c,3,69,0
5,584169, Control_c,3,11,108
5,584173, Note_on_c,3,69,82
5,584253, Note_on_c,3,69,0
5,584268, Note_on_c,3,71,82
5,584348, Note_on_c,3,71,0
5,584363, Note_on_c,3,71,82
5,584443, Note_on_c,3,71,0
5,584458, Note_on_c,3,68,83
5,584462, Control_c,3,11,109
5,584538, Note_on_c,3,68,0
5,584553, Note_on_c,3,68,83
5,584633, Note_on_c,3,68,0
5,584648, Note_on_c,3,69,84
5,584728, Note_on_c,3,69,0
5,584743, Note_on_c,3,69,84
5,584756, Control_c,3,11,110
5,584823, Note_on_c,3,69,0
5,584838, Note_on_c,3,71,85
5,584918, Note_on_c,3,71,0
5,584933, Note_on_c,3,71,85
5,585013, Note_on_c,3,71,0
5,585028, Note_on_c,3,68,86
5,585049, Control_c,3,11,111
5,585108, Note_on_c,3,68,0
5,585123, Note_on_c,3,68,86
5,585203, Note_on_c,3,68,0
5,585218, Note_on_c,3,70,87
5,585298, Note_on_c,3,70,0
5,585313, Note_on_c,3,70,87
5,585342, Control_c,3,11,112
5,585393, Note_on_c,3,70,0
5,585408, Note_on_c,3,71,88
5,585488, Note_on_c,3,71,0
5,585503, Note_on_c,3,71,88
5,585583, Note_on_c,3,71,0
5,585598, Note_on_c,3,69,89
5,585635, Control_c,3,11,113
5,585678, Note_on_c,3,69,0
5,585693, Note_on_c,3,69,89
5,585773, Note_on_c,3,69,0
5,585788, Note_on_c,3,70,90
5,585868, Note_on_c,3,70,0
5,585883, Note_on_c,3,70,90
5,585928, Control_c,3,11,114
5,585963, Note_on_c,3,70,0
5,585978, Note_on_c,3,71,91
5,586058, Note_on_c,3,71,0
5,586073, Note_on_c,3,71,91
5,586153, Note_on_c,3,71,0
5,586168, Note_on_c,3,69,92
5,586222, Control_c,3,11,115
5,586248, Note_on_c,3,69,0
5,586263, Note_on_c,3,69,92
5,586343, Note_on_c,3,69,0
5,586358, Note_on_c,3,70,93
5,586438, Note_on_c,3,70,0
5,586453, Note_on_c,3,70,93
5,586515, Control_c,3,11,116
5,586533, Note_on_c,3,70,0
5,586548, Note_on_c,3,71,94
5,586628, Note_on_c,3,71,0
5,586643, Note_on_c,3,71,94
5,586723, Note_on_c,3,71,0
5,586738, Note_on_c,3,70,95
5,586808, Control_c,3,11,117
5,586818, Note_on_c,3,70,0
5,586833, Note_on_c,3,70,95
5,586913, Note_on_c,3,70,0
5,586928, Note_on_c,3,71,96
5,587008, Note_on_c,3,71,0
5,587023, Note_on_c,3,71,96
5,587101, Control_c,3,11,118
5,587103, Note_on_c,3,71,0
5,587118, Note_on_c,3,71,97
5,587198, Note_on_c,3,71,0
5,587213, Note_on_c,3,71,97
5,587293, Note_on_c,3,71,0
5,587308, Note_on_c,3,70,98
5,587388, Note_on_c,3,70,0
5,587394, Control_c,3,11,119
5,587403, Note_on_c,3,70,98
5,587483, Note_on_c,3,70,0
5,587498, Note_on_c,3,71,99
5,587578, Note_on_c,3,71,0
5,587593, Note_on_c,3,71,99
5,587673, Note_on_c,3,71,0
5,587688, Control_c,3,11,120
5,587688, Note_on_c,3,71,100
5,587888, Note_on_c,3,71,0
5,588828, Note_on_c,3,71,100
5,589028, Note_on_c,3,71,0
5,589968, Note_on_c,3,68,100
5,589968, Note_on_c,3,77,100
5,590168, Note_on_c,3,77,0
5,590168, Note_on_c,3,68,0
5,591108, Note_on_c,3,71,100
5,591308, Note_on_c,3,71,0
5,595585, Control_c,3,11,70
5,595847, Note_on_c,3,68,60
5,595847, Note_on_c,3,56,60
5,596765, Note_on_c,3,56,0
5,596765, Note_on_c,3,68,0
5,596775, Note_on_c,3,56,60
5,596775, Note_on_c,3,68,60
5,596975, Note_on_c,3,68,0
5,596975, Note_on_c,3,56,0
5,600659, Note_on_c,3,70,60
5,600659, Note_on_c,3,58,60
5,601577, Note_on_c,3,58,0
5,601577, Note_on_c,3,70,0
5,601587, Note_on_c,3,70,60
5,601587, Note_on_c,3,58,60
5,601787, Note_on_c,3,58,0
5,601787, Note_on_c,3,70,0
5,606728, Note_on_c,3,66,70
5,606828, Note_on_c,3,66,0
5,606828, Note_on_c,3,67,70
5,606928, Note_on_c,3,67,0
5,607108, Note_on_c,3,68,70
5,607208, Note_on_c,3,68,0
5,607208, Note_on_c,3,67,70
5,607308, Note_on_c,3,67,0
5,607488, Note_on_c,3,70,70
5,607588, Note_on_c,3,70,0
5,607588, Note_on_c,3,68,70
5,607688, Note_on_c,3,68,0
5,607860, Note_on_c,3,67,70
5,607960, Note_on_c,3,67,0
5,607960, Note_on_c,3,68,70
5,608060, Note_on_c,3,68,0
5,608220, Note_on_c,3,68,70
5,608320, Note_on_c,3,68,0
5,608320, Note_on_c,3,69,70
5,608420, Note_on_c,3,69,0
5,608588, Note_on_c,3,70,70
5,608688, Note_on_c,3,70,0
5,608698, Note_on_c,3,69,70
5,608798, Note_on_c,3,69,0
5,608964, Note_on_c,3,72,70
5,609064, Note_on_c,3,72,0
5,609064, Note_on_c,3,70,70
5,609164, Note_on_c,3,70,0
5,609320, Note_on_c,3,69,70
5,609420, Note_on_c,3,69,0
5,609420, Note_on_c,3,70,70
5,609520, Note_on_c,3,70,0
5,612400, Note_on_c,3,69,70
5,612500, Note_on_c,3,69,0
5,612500, Note_on_c,3,70,70
5,612600, Note_on_c,3,70,0
5,612780, Note_on_c,3,71,70
5,612880, Note_on_c,3,71,0
5,612880, Note_on_c,3,70,70
5,612980, Note_on_c,3,70,0
5,613160, Note_on_c,3,73,70
5,613260, Note_on_c,3,73,0
5,613260, Note_on_c,3,71,70
5,613360, Note_on_c,3,71,0
5,613532, Note_on_c,3,70,70
5,613632, Note_on_c,3,70,0
5,613632, Note_on_c,3,71,70
5,613732, Note_on_c,3,71,0
5,613892, Note_on_c,3,70,70
5,613992, Note_on_c,3,70,0
5,613992, Note_on_c,3,71,70
5,614092, Note_on_c,3,71,0
5,614260, Note_on_c,3,72,70
5,614360, Note_on_c,3,72,0
5,614360, Note_on_c,3,71,70
5,614460, Note_on_c,3,71,0
5,614636, Note_on_c,3,74,70
5,614736, Note_on_c,3,74,0
5,614736, Note_on_c,3,72,70
5,614836, Note_on_c,3,72,0
5,614992, Note_on_c,3,71,70
5,615092, Note_on_c,3,71,0
5,615092, Note_on_c,3,72,70
5,615192, Note_on_c,3,72,0
5,618036, Note_on_c,3,73,100
5,618216, Note_on_c,3,73,0
5,619688, Note_on_c,3,58,100
5,619688, Note_on_c,3,65,100
5,619868, Note_on_c,3,65,0
5,619868, Note_on_c,3,58,0
5,638842, Program_c,3,45,
5,638866, Note_on_c,3,65,80
5,638866, Note_on_c,3,73,80
5,638916, Note_on_c,3,73,0
5,638916, Note_on_c,3,65,0
5,639470, Note_on_c,3,65,80
5,639470, Note_on_c,3,73,80
5,639520, Note_on_c,3,73,0
5,639520, Note_on_c,3,65,0
5,640082, Note_on_c,3,72,80
5,640082, Note_on_c,3,65,80
5,640082, Note_on_c,3,57,80
5,640132, Note_on_c,3,57,0
5,640132, Note_on_c,3,65,0
5,640132, Note_on_c,3,72,0
5,640694, Note_on_c,3,65,80
5,640694, Note_on_c,3,72,80
5,640694, Note_on_c,3,57,80
5,640744, Note_on_c,3,57,0
5,640744, Note_on_c,3,72,0
5,640744, Note_on_c,3,65,0
5,641278, Note_on_c,3,73,80
5,641278, Note_on_c,3,65,80
5,641328, Note_on_c,3,65,0
5,641328, Note_on_c,3,73,0
5,641870, Note_on_c,3,73,80
5,641870, Note_on_c,3,65,80
5,641920, Note_on_c,3,65,0
5,641920, Note_on_c,3,73,0
5,642486, Note_on_c,3,57,80
5,642486, Note_on_c,3,65,80
5,642486, Note_on_c,3,72,80
5,642536, Note_on_c,3,72,0
5,642536, Note_on_c,3,65,0
5,642536, Note_on_c,3,57,0
5,643098, Note_on_c,3,72,80
5,643098, Note_on_c,3,57,80
5,643098, Note_on_c,3,65,80
5,643148, Note_on_c,3,65,0
5,643148, Note_on_c,3,57,0
5,643148, Note_on_c,3,72,0
5,643722, Note_on_c,3,73,80
5,643722, Note_on_c,3,65,80
5,643772, Note_on_c,3,65,0
5,643772, Note_on_c,3,73,0
5,644306, Note_on_c,3,73,80
5,644306, Note_on_c,3,65,80
5,644356, Note_on_c,3,65,0
5,644356, Note_on_c,3,73,0
5,644926, Note_on_c,3,57,80
5,644926, Note_on_c,3,72,80
5,644926, Note_on_c,3,65,80
5,644976, Note_on_c,3,65,0
5,644976, Note_on_c,3,72,0
5,644976, Note_on_c,3,57,0
5,645530, Note_on_c,3,57,80
5,645530, Note_on_c,3,65,80
5,645530, Note_on_c,3,72,80
5,645580, Note_on_c,3,72,0
5,645580, Note_on_c,3,65,0
5,645580, Note_on_c,3,57,0
5,646116, Note_on_c,3,73,80
5,646116, Note_on_c,3,65,80
5,646166, Note_on_c,3,65,0
5,646166, Note_on_c,3,73,0
5,646700, Note_on_c,3,73,80
5,646700, Note_on_c,3,65,80
5,646750, Note_on_c,3,65,0
5,646750, Note_on_c,3,73,0
5,647313, Note_on_c,3,74,80
5,647313, Note_on_c,3,65,80
5,647363, Note_on_c,3,65,0
5,647363, Note_on_c,3,74,0
5,647897, Note_on_c,3,74,80
5,647897, Note_on_c,3,65,80
5,647947, Note_on_c,3,65,0
5,647947, Note_on_c,3,74,0
5,648520, Note_on_c,3,72,80
5,648520, Note_on_c,3,55,80
5,648520, Note_on_c,3,63,80
5,648570, Note_on_c,3,63,0
5,648570, Note_on_c,3,55,0
5,648570, Note_on_c,3,72,0
5,649104, Note_on_c,3,72,80
5,649104, Note_on_c,3,55,80
5,649104, Note_on_c,3,63,80
5,649154, Note_on_c,3,63,0
5,649154, Note_on_c,3,55,0
5,649154, Note_on_c,3,72,0
5,649724, Note_on_c,3,71,80
5,649724, Note_on_c,3,62,80
5,649774, Note_on_c,3,62,0
5,649774, Note_on_c,3,71,0
5,650328, Note_on_c,3,62,80
5,650328, Note_on_c,3,71,80
5,650378, Note_on_c,3,71,0
5,650378, Note_on_c,3,62,0
5,650924, Note_on_c,3,72,80
5,650924, Note_on_c,3,55,80
5,650924, Note_on_c,3,63,80
5,650974, Note_on_c,3,63,0
5,650974, Note_on_c,3,55,0
5,650974, Note_on_c,3,72,0
5,652112, Note_on_c,3,55,80
5,652112, Note_on_c,3,63,80
5,652162, Note_on_c,3,63,0
5,652162, Note_on_c,3,55,0
5,663169, Program_c,3,48,
5,663268, Control_c,3,11,70
5,663378, Note_on_c,3,63,70
5,663508, Note_on_c,3,63,0
5,663562, Note_on_c,3,63,70
5,663822, Note_on_c,3,63,0
5,663930, Note_on_c,3,63,70
5,664190, Note_on_c,3,63,0
5,664276, Note_on_c,3,63,70
5,664536, Note_on_c,3,63,0
5,664616, Note_on_c,3,63,70
5,664746, Note_on_c,3,63,0
5,664790, Note_on_c,3,63,70
5,664920, Note_on_c,3,63,0
5,664972, Note_on_c,3,63,70
5,665232, Note_on_c,3,63,0
5,665336, Note_on_c,3,63,70
5,665596, Note_on_c,3,63,0
5,665700, Note_on_c,3,63,70
5,665960, Note_on_c,3,63,0
5,666060, Note_on_c,3,63,70
5,666190, Note_on_c,3,63,0
5,666194, Note_on_c,3,63,70
5,666324, Note_on_c,3,63,0
5,666366, Note_on_c,3,63,70
5,666626, Note_on_c,3,63,0
5,666710, Note_on_c,3,63,70
5,666970, Note_on_c,3,63,0
5,667054, Note_on_c,3,63,70
5,667314, Note_on_c,3,63,0
5,667398, Note_on_c,3,63,70
5,667528, Note_on_c,3,63,0
5,667578, Note_on_c,3,65,70
5,667708, Note_on_c,3,65,0
5,667758, Note_on_c,3,65,70
5,668018, Note_on_c,3,65,0
5,668122, Note_on_c,3,65,75
5,668382, Note_on_c,3,65,0
5,668484, Note_on_c,3,65,80
5,668744, Note_on_c,3,65,0
5,668848, Note_on_c,3,65,80
5,669034, Note_on_c,3,65,85
5,669108, Note_on_c,3,65,0
5,669164, Note_on_c,3,65,0
5,669222, Note_on_c,3,65,85
5,669352, Note_on_c,3,65,0
5,669592, Note_on_c,3,66,85
5,669722, Note_on_c,3,66,0
5,669774, Note_on_c,3,67,85
5,669904, Note_on_c,3,67,0
5,669954, Note_on_c,3,67,85
5,670214, Note_on_c,3,67,0
5,670314, Note_on_c,3,67,85
5,670574, Note_on_c,3,67,0
5,670674, Note_on_c,3,67,85
5,670804, Note_on_c,3,67,0
5,670866, Note_on_c,3,67,85
5,670996, Note_on_c,3,67,0
5,671046, Note_on_c,3,67,85
5,671176, Note_on_c,3,67,0
5,671226, Note_on_c,3,67,85
5,671356, Note_on_c,3,67,0
5,671406, Note_on_c,3,67,85
5,671666, Note_on_c,3,67,0
5,671766, Note_on_c,3,67,85
5,671896, Note_on_c,3,67,0
5,671934, Note_on_c,3,66,85
5,672064, Note_on_c,3,66,0
5,672106, Note_on_c,3,66,85
5,672236, Note_on_c,3,66,0
5,672458, Note_on_c,3,62,85
5,672588, Note_on_c,3,62,0
5,672822, Note_on_c,3,60,85
5,672952, Note_on_c,3,60,0
5,673194, Note_on_c,3,58,85
5,673324, Note_on_c,3,58,0
5,673390, Note_on_c,3,62,85
5,673520, Note_on_c,3,62,0
5,673580, Note_on_c,3,62,85
5,673845, Note_on_c,3,62,0
5,673964, Note_on_c,3,62,85
5,674229, Note_on_c,3,62,0
5,674348, Note_on_c,3,62,80
5,674478, Note_on_c,3,62,0
5,674534, Note_on_c,3,60,75
5,674664, Note_on_c,3,60,0
5,674724, Note_on_c,3,60,70
5,674854, Note_on_c,3,60,0
5,674954, Note_on_c,3,67,70
5,675084, Note_on_c,3,67,0
5,675150, Note_on_c,3,67,70
5,675410, Note_on_c,3,67,0
5,675522, Note_on_c,3,67,70
5,675782, Note_on_c,3,67,0
5,675906, Note_on_c,3,67,70
5,676166, Note_on_c,3,67,0
5,676236, Note_on_c,3,67,70
5,676366, Note_on_c,3,67,0
5,676422, Note_on_c,3,63,70
5,676422, Note_on_c,3,72,70
5,676552, Note_on_c,3,72,0
5,676552, Note_on_c,3,63,0
5,676608, Note_on_c,3,63,70
5,676608, Note_on_c,3,72,70
5,676868, Note_on_c,3,72,0
5,676868, Note_on_c,3,63,0
5,676980, Note_on_c,3,63,70
5,676980, Note_on_c,3,72,70
5,677240, Note_on_c,3,72,0
5,677240, Note_on_c,3,63,0
5,677352, Note_on_c,3,63,70
5,677352, Note_on_c,3,72,70
5,677612, Note_on_c,3,72,0
5,677612, Note_on_c,3,63,0
5,677734, Note_on_c,3,63,70
5,677734, Note_on_c,3,72,70
5,677994, Note_on_c,3,72,0
5,677994, Note_on_c,3,63,0
5,678120, Note_on_c,3,63,70
5,678120, Note_on_c,3,72,70
5,678380, Note_on_c,3,72,0
5,678380, Note_on_c,3,63,0
5,678480, Note_on_c,3,63,70
5,678480, Note_on_c,3,72,70
5,678610, Note_on_c,3,72,0
5,678610, Note_on_c,3,63,0
5,678662, Note_on_c,3,65,70
5,678662, Note_on_c,3,72,70
5,678792, Note_on_c,3,72,0
5,678792, Note_on_c,3,65,0
5,678850, Note_on_c,3,72,70
5,678850, Note_on_c,3,65,70
5,678980, Note_on_c,3,65,0
5,678980, Note_on_c,3,72,0
5,679038, Note_on_c,3,64,70
5,679168, Note_on_c,3,64,0
5,679218, Note_on_c,3,72,70
5,679218, Note_on_c,3,64,70
5,679478, Note_on_c,3,64,0
5,679478, Note_on_c,3,72,0
5,679586, Note_on_c,3,72,70
5,679586, Note_on_c,3,65,70
5,679846, Note_on_c,3,65,0
5,679846, Note_on_c,3,72,0
5,679944, Note_on_c,3,72,70
5,679944, Note_on_c,3,65,70
5,680204, Note_on_c,3,65,0
5,680204, Note_on_c,3,72,0
5,680312, Note_on_c,3,72,70
5,680312, Note_on_c,3,65,70
5,680572, Note_on_c,3,65,0
5,680572, Note_on_c,3,72,0
5,680674, Note_on_c,3,72,70
5,680674, Note_on_c,3,65,70
5,680804, Note_on_c,3,65,0
5,680804, Note_on_c,3,72,0
5,680850, Note_on_c,3,65,70
5,680980, Note_on_c,3,65,0
5,681042, Note_on_c,3,65,70
5,681172, Note_on_c,3,65,0
5,681234, Note_on_c,3,67,70
5,681364, Note_on_c,3,67,0
5,681426, Note_on_c,3,67,70
5,681556, Note_on_c,3,67,0
5,681618, Note_on_c,3,65,70
5,681618, Note_on_c,3,69,70
5,681748, Note_on_c,3,69,0
5,681748, Note_on_c,3,65,0
5,681798, Note_on_c,3,69,70
5,681798, Note_on_c,3,65,70
5,682058, Note_on_c,3,65,0
5,682058, Note_on_c,3,69,0
5,682166, Note_on_c,3,69,70
5,682166, Note_on_c,3,65,70
5,682426, Note_on_c,3,65,0
5,682426, Note_on_c,3,69,0
5,682538, Note_on_c,3,69,70
5,682538, Note_on_c,3,65,70
5,682798, Note_on_c,3,65,0
5,682798, Note_on_c,3,69,0
5,682897, Note_on_c,3,65,70
5,682897, Note_on_c,3,69,70
5,683027, Note_on_c,3,69,0
5,683027, Note_on_c,3,65,0
5,683247, Note_on_c,3,67,70
5,683507, Note_on_c,3,67,0
5,683597, Note_on_c,3,67,70
5,683857, Note_on_c,3,67,0
5,683973, Note_on_c,3,67,70
5,684233, Note_on_c,3,67,0
5,684374, Note_on_c,3,67,70
5,684586, Note_on_c,3,65,70
5,684586, Note_on_c,3,69,70
5,684634, Note_on_c,3,67,0
5,684716, Note_on_c,3,69,0
5,684716, Note_on_c,3,65,0
5,684758, Note_on_c,3,65,70
5,684758, Note_on_c,3,69,70
5,685018, Note_on_c,3,69,0
5,685018, Note_on_c,3,65,0
5,685116, Note_on_c,3,65,70
5,685116, Note_on_c,3,69,70
5,685376, Note_on_c,3,69,0
5,685376, Note_on_c,3,65,0
5,685472, Note_on_c,3,65,70
5,685472, Note_on_c,3,69,70
5,685732, Note_on_c,3,69,0
5,685732, Note_on_c,3,65,0
5,685826, Note_on_c,3,65,70
5,685826, Note_on_c,3,69,70
5,685956, Note_on_c,3,69,0
5,685956, Note_on_c,3,65,0
5,686010, Note_on_c,3,67,70
5,686140, Note_on_c,3,67,0
5,686201, Note_on_c,3,67,70
5,686461, Note_on_c,3,67,0
5,686576, Note_on_c,3,67,70
5,686836, Note_on_c,3,67,0
5,686956, Note_on_c,3,67,70
5,687216, Note_on_c,3,67,0
5,687358, Note_on_c,3,67,70
5,687488, Note_on_c,3,67,0
5,687562, Note_on_c,3,65,70
5,687562, Note_on_c,3,69,70
5,687692, Note_on_c,3,69,0
5,687692, Note_on_c,3,65,0
5,687746, Note_on_c,3,65,70
5,687746, Note_on_c,3,69,70
5,688006, Note_on_c,3,69,0
5,688006, Note_on_c,3,65,0
5,688108, Note_on_c,3,65,70
5,688108, Note_on_c,3,69,70
5,688238, Note_on_c,3,69,0
5,688238, Note_on_c,3,65,0
5,688470, Note_on_c,3,65,70
5,688470, Note_on_c,3,69,70
5,688730, Note_on_c,3,69,0
5,688730, Note_on_c,3,65,0
5,688836, Note_on_c,3,65,70
5,688836, Note_on_c,3,69,70
5,689038, Note_on_c,3,67,70
5,689096, Note_on_c,3,69,0
5,689096, Note_on_c,3,65,0
5,689168, Note_on_c,3,67,0
5,689222, Note_on_c,3,67,70
5,689482, Note_on_c,3,67,0
5,689602, Note_on_c,3,67,70
5,689732, Note_on_c,3,67,0
5,689798, Note_on_c,3,62,70
5,689928, Note_on_c,3,62,0
5,690004, Note_on_c,3,62,70
5,690264, Note_on_c,3,62,0
5,690394, Note_on_c,3,62,70
5,690524, Note_on_c,3,62,0
5,690588, Note_on_c,3,56,70
5,690718, Note_on_c,3,56,0
5,690776, Note_on_c,3,56,70
5,691036, Note_on_c,3,56,0
5,691160, Note_on_c,3,56,70
5,691420, Note_on_c,3,56,0
5,691630, Note_on_c,3,56,70
5,691890, Note_on_c,3,56,0
5,692094, Note_on_c,3,56,70
5,692224, Note_on_c,3,56,0
5,692326, Note_on_c,3,57,70
5,692456, Note_on_c,3,57,0
5,692557, Note_on_c,3,57,70
5,692817, Note_on_c,3,57,0
5,693040, Note_on_c,3,57,70
5,693170, Note_on_c,3,57,0
5,693290, Note_on_c,3,57,70
5,693550, Note_on_c,3,57,0
5,694708, Note_on_c,3,63,60
5,697576, Note_on_c,3,63,0
5,697580, Note_on_c,3,63,60
5,699012, Note_on_c,3,63,0
5,699036, Note_on_c,3,63,60
5,699780, Note_on_c,3,63,0
5,699780, Note_on_c,3,62,70
5,700148, Note_on_c,3,62,0
5,700148, Note_on_c,3,60,70
5,700536, Note_on_c,3,60,0
5,700536, Note_on_c,3,62,60
5,700836, Note_on_c,3,62,0
5,701276, Note_on_c,3,67,60
5,701276, Note_on_c,3,59,60
5,702294, Note_on_c,3,59,0
5,702294, Note_on_c,3,67,0
5,702312, Note_on_c,3,62,60
5,702312, Note_on_c,3,59,60
5,702682, Note_on_c,3,59,0
5,702682, Note_on_c,3,62,0
5,702684, Note_on_c,3,60,60
5,703054, Note_on_c,3,60,0
5,704888, Note_on_c,3,62,60
5,706032, Note_on_c,3,62,0
5,706032, Note_on_c,3,63,60
5,706332, Note_on_c,3,63,0
5,706516, Note_on_c,3,67,60
5,707968, Note_on_c,3,67,0
5,707968, Note_on_c,3,72,60
5,709320, Note_on_c,3,72,0
5,709384, Note_on_c,3,70,80
5,709764, Note_on_c,3,70,0
5,709764, Note_on_c,3,69,80
5,710144, Note_on_c,3,69,0
5,710144, Note_on_c,3,74,90
5,710504, Note_on_c,3,74,0
5,710504, Note_on_c,3,72,90
5,710880, Note_on_c,3,72,0
5,710880, Note_on_c,3,70,90
5,711236, Note_on_c,3,70,0
5,711236, Note_on_c,3,69,90
5,711236, Note_on_c,3,66,90
5,711600, Note_on_c,3,66,0
5,711600, Note_on_c,3,69,0
5,711600, Note_on_c,3,67,90
5,711960, Note_on_c,3,67,0
5,711960, Note_on_c,3,62,85
5,712340, Note_on_c,3,62,0
5,712348, Note_on_c,3,63,80
5,712648, Note_on_c,3,63,0
5,712712, Note_on_c,3,63,80
5,713068, Note_on_c,3,63,0
5,713068, Note_on_c,3,69,90
5,713436, Note_on_c,3,69,0
5,713436, Note_on_c,3,67,90
5,713812, Note_on_c,3,67,0
5,713812, Note_on_c,3,65,90
5,715548, Note_on_c,3,65,0
5,715672, Note_on_c,3,65,80
5,716052, Note_on_c,3,65,0
5,716052, Note_on_c,3,69,90
5,716420, Note_on_c,3,69,0
5,716420, Note_on_c,3,67,90
5,716804, Note_on_c,3,67,0
5,716804, Note_on_c,3,65,80
5,718340, Note_on_c,3,65,0
5,718680, Note_on_c,3,65,80
5,719408, Note_on_c,3,65,0
5,719408, Note_on_c,3,67,85
5,720092, Note_on_c,3,67,0
5,720136, Note_on_c,3,67,85
5,720840, Note_on_c,3,67,0
5,720840, Note_on_c,3,69,85
5,721524, Note_on_c,3,69,0
5,721544, Note_on_c,3,69,85
5,722244, Note_on_c,3,69,0
5,722244, Note_on_c,3,70,90
5,722928, Note_on_c,3,70,0
5,722932, Note_on_c,3,70,90
5,723600, Note_on_c,3,70,0
5,723600, Note_on_c,3,72,90
5,723932, Note_on_c,3,72,0
5,723932, Note_on_c,3,73,90
5,724296, Note_on_c,3,73,0
5,724296, Note_on_c,3,74,90
5,724612, Note_on_c,3,74,0
5,724612, Note_on_c,3,75,90
5,724960, Note_on_c,3,75,0
5,724960, Note_on_c,3,73,90
5,725340, Note_on_c,3,73,0
5,725340, Note_on_c,3,74,90
5,725704, Note_on_c,3,74,0
5,725704, Note_on_c,3,65,80
5,726364, Note_on_c,3,65,0
5,726364, Note_on_c,3,67,85
5,727016, Note_on_c,3,67,0
5,727016, Note_on_c,3,70,90
5,727344, Note_on_c,3,70,0
5,727344, Note_on_c,3,73,90
5,727672, Note_on_c,3,73,0
5,727672, Note_on_c,3,74,90
5,727972, Note_on_c,3,74,0
5,728000, Note_on_c,3,74,90
5,728324, Note_on_c,3,74,0
5,728324, Note_on_c,3,67,90
5,728972, Note_on_c,3,67,0
5,728972, Note_on_c,3,71,90
5,729626, Note_on_c,3,71,0
5,729644, Note_on_c,3,71,90
5,729988, Note_on_c,3,71,0
5,729988, Note_on_c,3,73,90
5,730304, Note_on_c,3,73,0
5,730304, Note_on_c,3,74,90
5,730604, Note_on_c,3,74,0
5,730956, Note_on_c,3,67,90
5,731620, Note_on_c,3,72,90
5,731624, Note_on_c,3,67,0
5,732296, Note_on_c,3,72,0
5,732296, Note_on_c,3,74,90
5,732940, Note_on_c,3,74,0
5,732940, Note_on_c,3,75,95
5,733270, Note_on_c,3,75,0
5,733564, Note_on_c,3,75,95
5,734200, Note_on_c,3,75,0
5,734200, Note_on_c,3,76,95
5,734844, Note_on_c,3,76,0
5,734844, Note_on_c,3,75,95
5,735460, Note_on_c,3,75,0
5,735460, Note_on_c,3,76,95
5,736088, Note_on_c,3,76,0
5,736088, Note_on_c,3,75,95
5,736700, Note_on_c,3,75,0
5,736700, Note_on_c,3,76,95
5,737332, Note_on_c,3,76,0
5,737332, Note_on_c,3,75,95
5,737968, Note_on_c,3,75,0
5,737968, Note_on_c,3,76,95
5,738316, Note_on_c,3,76,0
5,738316, Note_on_c,3,77,100
5,738646, Note_on_c,3,77,0
5,747265, Control_c,3,11,90
5,747712, Note_on_c,3,58,90
5,747912, Note_on_c,3,58,0
5,747982, Note_on_c,3,61,90
5,748182, Note_on_c,3,61,0
5,748262, Note_on_c,3,66,90
5,748262, Note_on_c,3,58,90
5,748462, Note_on_c,3,58,0
5,748462, Note_on_c,3,66,0
5,748542, Note_on_c,3,66,90
5,748542, Note_on_c,3,58,90
5,748742, Note_on_c,3,58,0
5,748742, Note_on_c,3,66,0
5,748822, Note_on_c,3,70,90
5,748822, Note_on_c,3,61,90
5,749022, Note_on_c,3,61,0
5,749022, Note_on_c,3,70,0
5,749102, Note_on_c,3,66,90
5,749102, Note_on_c,3,73,90
5,749302, Note_on_c,3,73,0
5,749302, Note_on_c,3,66,0
5,749382, Note_on_c,3,70,90
5,749382, Note_on_c,3,78,90
5,749682, Note_on_c,3,78,0
5,749682, Note_on_c,3,70,0
5,750534, Note_on_c,3,78,90
5,750534, Note_on_c,3,70,90
5,750834, Note_on_c,3,70,0
5,750834, Note_on_c,3,78,0
5,751588, Note_on_c,3,78,90
5,751588, Note_on_c,3,70,90
5,751788, Note_on_c,3,70,0
5,751788, Note_on_c,3,78,0
5,752132, Note_on_c,3,78,90
5,752132, Note_on_c,3,70,90
5,752332, Note_on_c,3,70,0
5,752332, Note_on_c,3,78,0
5,752715, Note_on_c,3,78,90
5,752715, Note_on_c,3,70,90
5,752915, Note_on_c,3,70,0
5,752915, Note_on_c,3,78,0
5,753244, Note_on_c,3,78,90
5,753244, Note_on_c,3,70,90
5,753444, Note_on_c,3,70,0
5,753444, Note_on_c,3,78,0
5,753852, Note_on_c,3,70,90
5,753852, Note_on_c,3,78,90
5,754152, Note_on_c,3,78,0
5,754152, Note_on_c,3,70,0
5,886273, Control_c,3,11,80
5,887813, Note_on_c,3,65,70
5,888161, Note_on_c,3,65,0
5,888161, Note_on_c,3,67,70
5,888513, Note_on_c,3,67,0
5,888513, Note_on_c,3,69,70
5,888845, Note_on_c,3,65,70
5,888847, Note_on_c,3,69,0
5,889145, Note_on_c,3,65,0
5,889189, Note_on_c,3,67,70
5,889537, Note_on_c,3,67,0
5,889537, Note_on_c,3,69,70
5,889885, Note_on_c,3,69,0
5,889885, Note_on_c,3,70,70
5,890217, Note_on_c,3,70,0
5,890217, Note_on_c,3,65,70
5,890517, Note_on_c,3,65,0
5,890557, Note_on_c,3,67,70
5,890905, Note_on_c,3,67,0
5,890909, Note_on_c,3,60,70
5,891209, Note_on_c,3,60,0
5,891253, Note_on_c,3,67,70
5,891603, Note_on_c,3,67,0
5,891605, Note_on_c,3,60,70
5,891905, Note_on_c,3,60,0
5,891937, Note_on_c,3,65,70
5,892287, Note_on_c,3,65,0
5,892289, Note_on_c,3,58,70
5,892589, Note_on_c,3,58,0
5,892625, Note_on_c,3,65,70
5,892961, Note_on_c,3,65,0
5,892961, Note_on_c,3,67,70
5,893289, Note_on_c,3,67,0
5,893289, Note_on_c,3,69,70
5,893589, Note_on_c,3,69,0
5,893625, Note_on_c,3,72,70
5,893977, Note_on_c,3,72,0
5,893977, Note_on_c,3,70,70
5,894277, Note_on_c,3,70,0
5,894317, Note_on_c,3,62,70
5,894643, Note_on_c,3,62,0
5,894645, Note_on_c,3,64,70
5,894945, Note_on_c,3,64,0
5,894985, Note_on_c,3,65,70
5,895285, Note_on_c,3,65,0
5,895325, Note_on_c,3,67,70
5,895325, Note_on_c,3,60,70
5,895989, Note_on_c,3,60,0
5,895989, Note_on_c,3,67,0
5,896001, Note_on_c,3,67,70
5,896001, Note_on_c,3,60,70
5,896665, Note_on_c,3,60,0
5,896665, Note_on_c,3,67,0
5,896677, Note_on_c,3,68,70
5,896677, Note_on_c,3,59,70
5,897371, Note_on_c,3,59,0
5,897371, Note_on_c,3,68,0
5,897387, Note_on_c,3,67,70
5,897387, Note_on_c,3,59,70
5,898016, Note_on_c,3,59,0
5,898016, Note_on_c,3,67,0
5,898029, Note_on_c,3,67,70
5,898029, Note_on_c,3,60,70
5,898357, Note_on_c,3,60,0
5,898357, Note_on_c,3,67,0
5,898357, Note_on_c,3,69,70
5,898357, Note_on_c,3,63,70
5,898697, Note_on_c,3,63,0
5,898697, Note_on_c,3,69,0
5,898697, Note_on_c,3,70,70
5,898697, Note_on_c,3,62,70
5,899037, Note_on_c,3,62,0
5,899037, Note_on_c,3,70,0
5,899037, Note_on_c,3,57,70
5,899385, Note_on_c,3,57,0
5,899385, Note_on_c,3,55,70
5,899685, Note_on_c,3,55,0
5,899733, Note_on_c,3,56,70
5,900065, Note_on_c,3,56,0
5,900065, Note_on_c,3,57,70
5,900365, Note_on_c,3,57,0
5,900393, Note_on_c,3,74,70
5,900715, Note_on_c,3,74,0
5,900741, Note_on_c,3,69,70
5,901041, Note_on_c,3,69,0
5,901073, Note_on_c,3,69,70
5,901404, Note_on_c,3,70,70
5,901430, Note_on_c,3,69,0
5,901712, Note_on_c,3,70,0
5,901717, Note_on_c,3,75,70
5,902041, Note_on_c,3,75,0
5,902041, Note_on_c,3,72,70
5,902381, Note_on_c,3,72,0
5,902381, Note_on_c,3,77,70
5,903053, Note_on_c,3,77,0
5,903053, Note_on_c,3,77,70
5,903053, Note_on_c,3,70,70
5,903353, Note_on_c,3,70,0
5,903353, Note_on_c,3,77,0
5,903437, Note_on_c,3,65,70
5,903777, Note_on_c,3,65,0
5,903777, Note_on_c,3,67,70
5,904117, Note_on_c,3,67,0
5,904117, Note_on_c,3,69,70
5,904457, Note_on_c,3,69,0
5,904463, Note_on_c,3,72,70
5,904823, Note_on_c,3,72,0
5,904829, Note_on_c,3,70,70
5,905149, Note_on_c,3,70,0
5,905177, Note_on_c,3,62,70
5,905517, Note_on_c,3,62,0
5,905517, Note_on_c,3,64,70
5,905867, Note_on_c,3,64,0
5,905869, Note_on_c,3,65,70
5,906209, Note_on_c,3,65,0
5,906221, Note_on_c,3,67,70
5,906221, Note_on_c,3,60,70
5,906910, Note_on_c,3,60,0
5,906910, Note_on_c,3,67,0
5,906925, Note_on_c,3,67,70
5,906925, Note_on_c,3,60,70
5,907614, Note_on_c,3,60,0
5,907614, Note_on_c,3,67,0
5,907625, Note_on_c,3,68,70
5,907625, Note_on_c,3,59,70
5,908314, Note_on_c,3,59,0
5,908314, Note_on_c,3,68,0
5,908325, Note_on_c,3,67,70
5,908325, Note_on_c,3,59,70
5,908984, Note_on_c,3,59,0
5,908984, Note_on_c,3,67,0
5,908993, Note_on_c,3,67,70
5,908993, Note_on_c,3,60,70
5,909333, Note_on_c,3,60,0
5,909333, Note_on_c,3,67,0
5,909333, Note_on_c,3,69,70
5,909333, Note_on_c,3,63,70
5,909661, Note_on_c,3,70,70
5,909661, Note_on_c,3,62,70
5,909663, Note_on_c,3,63,0
5,909663, Note_on_c,3,69,0
5,909991, Note_on_c,3,70,0
5,909991, Note_on_c,3,62,0
5,909993, Note_on_c,3,57,70
5,910333, Note_on_c,3,57,0
5,910337, Note_on_c,3,55,70
5,910677, Note_on_c,3,55,0
5,910681, Note_on_c,3,56,70
5,911017, Note_on_c,3,57,70
5,911021, Note_on_c,3,56,0
5,911357, Note_on_c,3,57,0
5,911357, Note_on_c,3,74,70
5,911707, Note_on_c,3,74,0
5,911709, Note_on_c,3,69,70
5,912019, Note_on_c,3,69,0
5,912029, Note_on_c,3,69,70
5,912379, Note_on_c,3,69,0
5,912381, Note_on_c,3,70,70
5,912691, Note_on_c,3,70,0
5,912717, Note_on_c,3,75,70
5,913053, Note_on_c,3,75,0
5,913053, Note_on_c,3,70,70
5,913363, Note_on_c,3,70,0
5,913377, Note_on_c,3,71,70
5,913707, Note_on_c,3,71,0
5,913709, Note_on_c,3,72,70
5,914019, Note_on_c,3,72,0
5,914037, Note_on_c,3,77,70
5,914367, Note_on_c,3,77,0
5,914373, Note_on_c,3,72,70
5,914683, Note_on_c,3,72,0
5,914705, Note_on_c,3,73,70
5,915037, Note_on_c,3,73,0
5,915037, Note_on_c,3,74,70
5,915347, Note_on_c,3,74,0
5,915377, Note_on_c,3,67,70
5,915697, Note_on_c,3,67,0
5,915697, Note_on_c,3,62,70
5,915997, Note_on_c,3,62,0
5,916021, Note_on_c,3,67,70
5,916334, Note_on_c,3,67,0
5,916337, Note_on_c,3,63,70
5,916637, Note_on_c,3,63,0
5,916673, Note_on_c,3,69,70
5,917008, Note_on_c,3,69,0
5,917009, Note_on_c,3,64,70
5,917319, Note_on_c,3,64,0
5,917341, Note_on_c,3,69,70
5,917665, Note_on_c,3,69,0
5,917665, Note_on_c,3,65,70
5,917965, Note_on_c,3,65,0
5,918001, Note_on_c,3,70,70
5,918325, Note_on_c,3,65,70
5,918326, Note_on_c,3,70,0
5,918625, Note_on_c,3,65,0
5,918689, Note_on_c,3,70,70
5,918689, Note_on_c,3,63,70
5,918989, Note_on_c,3,63,0
5,918989, Note_on_c,3,70,0
5,920717, Note_on_c,3,78,90
5,920717, Note_on_c,3,70,90
5,920717, Note_on_c,3,63,90
5,920987, Note_on_c,3,63,0
5,920987, Note_on_c,3,70,0
5,920987, Note_on_c,3,78,0
5,921137, Note_on_c,3,77,90
5,921407, Note_on_c,3,77,0
5,921557, Note_on_c,3,78,90
5,921557, Note_on_c,3,70,90
5,921557, Note_on_c,3,63,90
5,921827, Note_on_c,3,63,0
5,921827, Note_on_c,3,70,0
5,921827, Note_on_c,3,78,0
5,923541, Note_on_c,3,78,90
5,923541, Note_on_c,3,70,90
5,923541, Note_on_c,3,63,90
5,923811, Note_on_c,3,63,0
5,923811, Note_on_c,3,70,0
5,923811, Note_on_c,3,78,0
5,923907, Note_on_c,3,77,90
5,924177, Note_on_c,3,77,0
5,924273, Note_on_c,3,78,90
5,924273, Note_on_c,3,70,90
5,924273, Note_on_c,3,63,90
5,924543, Note_on_c,3,63,0
5,924543, Note_on_c,3,70,0
5,924543, Note_on_c,3,78,0
5,924969, Note_on_c,3,78,90
5,924969, Note_on_c,3,70,90
5,924969, Note_on_c,3,63,90
5,925239, Note_on_c,3,63,0
5,925239, Note_on_c,3,70,0
5,925239, Note_on_c,3,78,0
5,926349, Note_on_c,3,78,90
5,926349, Note_on_c,3,70,90
5,926619, Note_on_c,3,70,0
5,926619, Note_on_c,3,78,0
5,927725, Note_on_c,3,82,90
5,927725, Note_on_c,3,77,90
5,927725, Note_on_c,3,70,90
5,927725, Note_on_c,3,62,90
5,928045, Note_on_c,3,62,0
5,928045, Note_on_c,3,82,0
5,928045, Note_on_c,3,77,0
5,928045, Note_on_c,3,70,0
5,929837, Note_on_c,3,62,90
5,930531, Note_on_c,3,62,0
5,930533, Note_on_c,3,60,90
5,931925, Note_on_c,3,60,0
5,931925, Note_on_c,3,65,90
5,931925, Note_on_c,3,72,90
5,933307, Note_on_c,3,72,0
5,933307, Note_on_c,3,65,0
5,933309, Note_on_c,3,70,90
5,933579, Note_on_c,3,70,0
5,933697, Note_on_c,3,70,90
5,934331, Note_on_c,3,70,0
5,934373, Note_on_c,3,70,90
5,934643, Note_on_c,3,70,0
5,934741, Note_on_c,3,70,90
5,935011, Note_on_c,3,70,0
5,935417, Note_on_c,3,66,90
5,935417, Note_on_c,3,73,90
5,935437, Note_on_c,3,58,90
5,935687, Note_on_c,3,73,0
5,935687, Note_on_c,3,66,0
5,935707, Note_on_c,3,58,0
5,936141, Note_on_c,3,74,90
5,936141, Note_on_c,3,65,90
5,936141, Note_on_c,3,58,90
5,936411, Note_on_c,3,58,0
5,936411, Note_on_c,3,65,0
5,936411, Note_on_c,3,74,0
5,936513, Note_on_c,3,70,90
5,937147, Note_on_c,3,70,0
5,937213, Note_on_c,3,70,90
5,937483, Note_on_c,3,70,0
5,937577, Note_on_c,3,70,90
5,937847, Note_on_c,3,70,0
5,938277, Note_on_c,3,66,90
5,938277, Note_on_c,3,73,90
5,938297, Note_on_c,3,58,90
5,938547, Note_on_c,3,73,0
5,938547, Note_on_c,3,66,0
5,938567, Note_on_c,3,58,0
5,939009, Note_on_c,3,74,90
5,939009, Note_on_c,3,65,90
5,939009, Note_on_c,3,58,90
5,939279, Note_on_c,3,58,0
5,939279, Note_on_c,3,65,0
5,939279, Note_on_c,3,74,0
5,939728, Note_on_c,3,66,90
5,939728, Note_on_c,3,73,90
5,939749, Note_on_c,3,58,90
5,939998, Note_on_c,3,73,0
5,939998, Note_on_c,3,66,0
5,940019, Note_on_c,3,58,0
5,940457, Note_on_c,3,74,90
5,940457, Note_on_c,3,65,90
5,940457, Note_on_c,3,58,90
5,940727, Note_on_c,3,58,0
5,940727, Note_on_c,3,65,0
5,940727, Note_on_c,3,74,0
5,941164, Note_on_c,3,58,90
5,941164, Note_on_c,3,66,90
5,941164, Note_on_c,3,73,90
5,941434, Note_on_c,3,73,0
5,941434, Note_on_c,3,66,0
5,941434, Note_on_c,3,58,0
5,941901, Note_on_c,3,74,90
5,941901, Note_on_c,3,65,90
5,941901, Note_on_c,3,58,90
5,942171, Note_on_c,3,58,0
5,942171, Note_on_c,3,65,0
5,942171, Note_on_c,3,74,0
5,942269, Note_on_c,3,73,90
5,942269, Note_on_c,3,66,90
5,942469, Note_on_c,3,66,0
5,942469, Note_on_c,3,73,0
5,942637, Note_on_c,3,74,90
5,942637, Note_on_c,3,65,90
5,942837, Note_on_c,3,65,0
5,942837, Note_on_c,3,74,0
5,943005, Note_on_c,3,73,90
5,943005, Note_on_c,3,66,90
5,943205, Note_on_c,3,66,0
5,943205, Note_on_c,3,73,0
5,943373, Note_on_c,3,74,90
5,943373, Note_on_c,3,65,90
5,943573, Note_on_c,3,65,0
5,943573, Note_on_c,3,74,0
5,943741, Note_on_c,3,73,90
5,943741, Note_on_c,3,66,90
5,943941, Note_on_c,3,66,0
5,943941, Note_on_c,3,73,0
5,944109, Note_on_c,3,74,90
5,944109, Note_on_c,3,65,90
5,944309, Note_on_c,3,65,0
5,944309, Note_on_c,3,74,0
5,944477, Note_on_c,3,73,90
5,944477, Note_on_c,3,66,90
5,944677, Note_on_c,3,66,0
5,944677, Note_on_c,3,73,0
5,944845, Note_on_c,3,74,90
5,944845, Note_on_c,3,65,90
5,945045, Note_on_c,3,65,0
5,945045, Note_on_c,3,74,0
5,946209, Note_on_c,3,74,90
5,946209, Note_on_c,3,65,90
5,946209, Note_on_c,3,58,90
5,946459, Note_on_c,3,58,0
5,946459, Note_on_c,3,65,0
5,946459, Note_on_c,3,74,0
5,946873, Note_on_c,3,74,90
5,946873, Note_on_c,3,65,90
5,946873, Note_on_c,3,58,90
5,947123, Note_on_c,3,58,0
5,947123, Note_on_c,3,65,0
5,947123, Note_on_c,3,74,0
5,947529, Note_on_c,3,74,90
5,947529, Note_on_c,3,65,90
5,947529, Note_on_c,3,58,90
5,947779, Note_on_c,3,58,0
5,947779, Note_on_c,3,65,0
5,947779, Note_on_c,3,74,0
5,948825, Note_on_c,3,77,90
5,948825, Note_on_c,3,70,90
5,948825, Note_on_c,3,62,90
5,949075, Note_on_c,3,62,0
5,949075, Note_on_c,3,70,0
5,949075, Note_on_c,3,77,0
5,950161, Note_on_c,3,77,90
5,950161, Note_on_c,3,70,90
5,950161, Note_on_c,3,62,90
5,950411, Note_on_c,3,62,0
5,950411, Note_on_c,3,70,0
5,950411, Note_on_c,3,77,0
5,950809, Note_on_c,3,77,90
5,950809, Note_on_c,3,70,90
5,950809, Note_on_c,3,62,90
5,951059, Note_on_c,3,62,0
5,951059, Note_on_c,3,70,0
5,951059, Note_on_c,3,77,0
5,951501, Note_on_c,3,77,90
5,951501, Note_on_c,3,70,90
5,951501, Note_on_c,3,62,90
5,951751, Note_on_c,3,62,0
5,951751, Note_on_c,3,70,0
5,951751, Note_on_c,3,77,0
5,952177, Note_on_c,3,77,90
5,952177, Note_on_c,3,70,90
5,952177, Note_on_c,3,62,90
5,952427, Note_on_c,3,62,0
5,952427, Note_on_c,3,70,0
5,952427, Note_on_c,3,77,0
5,952877, Note_on_c,3,77,90
5,952877, Note_on_c,3,70,90
5,952877, Note_on_c,3,62,90
5,953127, Note_on_c,3,62,0
5,953127, Note_on_c,3,70,0
5,953127, Note_on_c,3,77,0
5,953249, Note_on_c,3,79,90
5,953249, Note_on_c,3,70,90
5,953499, Note_on_c,3,70,0
5,953499, Note_on_c,3,79,0
5,953673, Note_on_c,3,77,90
5,953673, Note_on_c,3,70,90
5,954023, Note_on_c,3,70,0
5,954023, Note_on_c,3,77,0
5,956460, Control_c,3,121,0
5,956460, End_track,,,
6,0, Start_track,,,
6,0, MIDI_port,0,,
6,0, Title_t," ""violas""",,
6,0, Control_c,4,0,0
6,0, Control_c,4,32,0
6,0, Program_c,4,48,
6,0, Control_c,4,7,100
6,0, Control_c,4,10,50
6,3272, Control_c,4,11,90
6,4908, Control_c,4,91,127
6,4908, Note_on_c,4,58,80
6,5164, Note_on_c,4,58,0
6,6432, Note_on_c,4,63,80
6,6432, Note_on_c,4,60,80
6,6936, Note_on_c,4,60,0
6,6936, Note_on_c,4,63,0
6,7528, Note_on_c,4,58,80
6,8032, Note_on_c,4,58,0
6,8088, Note_on_c,4,58,80
6,8622, Note_on_c,4,58,0
6,8672, Note_on_c,4,60,80
6,9226, Note_on_c,4,60,0
6,9316, Note_on_c,4,56,80
6,9316, Note_on_c,4,49,80
6,9820, Note_on_c,4,49,0
6,9820, Note_on_c,4,56,0
6,40705, Program_c,4,45,
6,40748, Note_on_c,4,56,80
6,40788, Note_on_c,4,56,0
6,41292, Note_on_c,4,61,80
6,41332, Note_on_c,4,61,0
6,42276, Note_on_c,4,56,80
6,42316, Note_on_c,4,56,0
6,42780, Note_on_c,4,61,80
6,42820, Note_on_c,4,61,0
6,43972, Note_on_c,4,56,80
6,44012, Note_on_c,4,56,0
6,44568, Note_on_c,4,61,80
6,44608, Note_on_c,4,61,0
6,45762, Note_on_c,4,56,80
6,45802, Note_on_c,4,56,0
6,46360, Note_on_c,4,61,80
6,46400, Note_on_c,4,61,0
6,47456, Note_on_c,4,58,80
6,47496, Note_on_c,4,58,0
6,48052, Note_on_c,4,63,80
6,48092, Note_on_c,4,63,0
6,49179, Note_on_c,4,58,80
6,49219, Note_on_c,4,58,0
6,49720, Note_on_c,4,63,80
6,49760, Note_on_c,4,63,0
6,50784, Note_on_c,4,60,80
6,50824, Note_on_c,4,60,0
6,51374, Note_on_c,4,63,80
6,51414, Note_on_c,4,63,0
6,52483, Note_on_c,4,60,80
6,52523, Note_on_c,4,60,0
6,53028, Note_on_c,4,63,80
6,53068, Note_on_c,4,63,0
6,54084, Note_on_c,4,61,80
6,54124, Note_on_c,4,61,0
6,54596, Note_on_c,4,65,80
6,54636, Note_on_c,4,65,0
6,55116, Note_on_c,4,65,80
6,55116, Note_on_c,4,56,80
6,55156, Note_on_c,4,56,0
6,55156, Note_on_c,4,65,0
6,55614, Note_on_c,4,56,80
6,55614, Note_on_c,4,66,80
6,55654, Note_on_c,4,66,0
6,55654, Note_on_c,4,56,0
6,56576, Note_on_c,4,67,80
6,56576, Note_on_c,4,56,80
6,56616, Note_on_c,4,56,0
6,56616, Note_on_c,4,67,0
6,57006, Note_on_c,4,65,80
6,57006, Note_on_c,4,56,80
6,57046, Note_on_c,4,56,0
6,57046, Note_on_c,4,65,0
6,58016, Note_on_c,4,65,80
6,58016, Note_on_c,4,58,80
6,58056, Note_on_c,4,58,0
6,58056, Note_on_c,4,65,0
6,58398, Note_on_c,4,58,80
6,58398, Note_on_c,4,63,80
6,58438, Note_on_c,4,63,0
6,58438, Note_on_c,4,58,0
6,59432, Note_on_c,4,67,80
6,59432, Note_on_c,4,60,80
6,59472, Note_on_c,4,60,0
6,59472, Note_on_c,4,67,0
6,59916, Note_on_c,4,65,80
6,59916, Note_on_c,4,60,80
6,59956, Note_on_c,4,60,0
6,59956, Note_on_c,4,65,0
6,136520, Program_c,4,45,
6,136586, Note_on_c,4,53,80
6,136666, Note_on_c,4,53,0
6,137228, Note_on_c,4,61,80
6,137308, Note_on_c,4,61,0
6,138432, Note_on_c,4,53,80
6,138512, Note_on_c,4,53,0
6,138956, Note_on_c,4,59,80
6,139036, Note_on_c,4,59,0
6,153580, Note_on_c,4,53,60
6,153630, Note_on_c,4,53,0
6,154128, Note_on_c,4,56,60
6,154178, Note_on_c,4,56,0
6,157022, Note_on_c,4,53,60
6,157072, Note_on_c,4,53,0
6,157592, Note_on_c,4,57,60
6,157642, Note_on_c,4,57,0
6,160448, Note_on_c,4,53,60
6,160498, Note_on_c,4,53,0
6,160988, Note_on_c,4,56,60
6,161038, Note_on_c,4,56,0
6,195457, Program_c,4,48,
6,195556, Control_c,4,11,60
6,195605, Note_on_c,4,53,60
6,196417, Note_on_c,4,53,0
6,196989, Note_on_c,4,53,60
6,197473, Note_on_c,4,53,0
6,197560, Note_on_c,4,53,60
6,198328, Note_on_c,4,53,0
6,199105, Note_on_c,4,48,60
6,199305, Note_on_c,4,48,0
6,199397, Note_on_c,4,48,60
6,199535, Note_on_c,4,48,0
6,199541, Note_on_c,4,48,60
6,199925, Note_on_c,4,48,0
6,202061, Note_on_c,4,53,60
6,202829, Note_on_c,4,53,0
6,203637, Note_on_c,4,51,60
6,203837, Note_on_c,4,51,0
6,203933, Note_on_c,4,51,60
6,204071, Note_on_c,4,51,0
6,204085, Note_on_c,4,51,60
6,204469, Note_on_c,4,51,0
6,204921, Note_on_c,4,56,60
6,205733, Note_on_c,4,56,0
6,205933, Note_on_c,4,53,60
6,206133, Note_on_c,4,53,0
6,206231, Note_on_c,4,53,60
6,206369, Note_on_c,4,53,0
6,206381, Note_on_c,4,52,60
6,206765, Note_on_c,4,52,0
6,207185, Note_on_c,4,53,60
6,207485, Note_on_c,4,53,0
6,207753, Note_on_c,4,61,60
6,207753, Note_on_c,4,53,60
6,208053, Note_on_c,4,53,0
6,208053, Note_on_c,4,61,0
6,208353, Note_on_c,4,55,60
6,208653, Note_on_c,4,55,0
6,208961, Note_on_c,4,56,60
6,209261, Note_on_c,4,56,0
6,209513, Note_on_c,4,53,60
6,209813, Note_on_c,4,53,0
6,210093, Note_on_c,4,61,60
6,210093, Note_on_c,4,53,60
6,210393, Note_on_c,4,53,0
6,210393, Note_on_c,4,61,0
6,210685, Note_on_c,4,55,60
6,210985, Note_on_c,4,55,0
6,211277, Note_on_c,4,56,60
6,211577, Note_on_c,4,56,0
6,211809, Note_on_c,4,53,60
6,212109, Note_on_c,4,53,0
6,212373, Note_on_c,4,53,60
6,212673, Note_on_c,4,53,0
6,212937, Note_on_c,4,55,60
6,213237, Note_on_c,4,55,0
6,213501, Note_on_c,4,55,60
6,213801, Note_on_c,4,55,0
6,213933, Program_c,4,45,
6,214049, Note_on_c,4,76,70
6,214099, Note_on_c,4,76,0
6,214625, Note_on_c,4,64,70
6,214675, Note_on_c,4,64,0
6,215193, Note_on_c,4,52,70
6,215243, Note_on_c,4,52,0
6,246529, Program_c,4,48,
6,246937, Note_on_c,4,63,80
6,247027, Note_on_c,4,63,0
6,247027, Note_on_c,4,63,80
6,247117, Note_on_c,4,63,0
6,247285, Note_on_c,4,63,80
6,247375, Note_on_c,4,63,0
6,247375, Note_on_c,4,63,80
6,247465, Note_on_c,4,63,0
6,262273, Program_c,4,45,
6,262389, Note_on_c,4,58,80
6,262439, Note_on_c,4,58,0
6,262681, Note_on_c,4,58,80
6,262731, Note_on_c,4,58,0
6,262985, Note_on_c,4,58,80
6,263035, Note_on_c,4,58,0
6,263285, Note_on_c,4,58,80
6,263335, Note_on_c,4,58,0
6,263585, Note_on_c,4,63,80
6,263635, Note_on_c,4,63,0
6,263897, Note_on_c,4,60,80
6,263947, Note_on_c,4,60,0
6,264201, Note_on_c,4,63,80
6,264251, Note_on_c,4,63,0
6,264509, Note_on_c,4,60,80
6,264559, Note_on_c,4,60,0
6,264813, Note_on_c,4,58,80
6,264863, Note_on_c,4,58,0
6,265093, Note_on_c,4,58,80
6,265143, Note_on_c,4,58,0
6,265393, Note_on_c,4,58,80
6,265443, Note_on_c,4,58,0
6,265685, Note_on_c,4,58,80
6,265735, Note_on_c,4,58,0
6,265985, Note_on_c,4,57,80
6,266035, Note_on_c,4,57,0
6,266301, Note_on_c,4,60,80
6,266351, Note_on_c,4,60,0
6,266601, Note_on_c,4,57,80
6,266651, Note_on_c,4,57,0
6,266913, Note_on_c,4,60,80
6,266963, Note_on_c,4,60,0
6,267225, Note_on_c,4,58,80
6,267275, Note_on_c,4,58,0
6,267537, Note_on_c,4,58,80
6,267587, Note_on_c,4,58,0
6,267829, Note_on_c,4,58,80
6,267879, Note_on_c,4,58,0
6,268121, Note_on_c,4,58,80
6,268171, Note_on_c,4,58,0
6,268433, Note_on_c,4,63,80
6,268483, Note_on_c,4,63,0
6,268741, Note_on_c,4,60,80
6,268791, Note_on_c,4,60,0
6,269045, Note_on_c,4,63,80
6,269095, Note_on_c,4,63,0
6,269345, Note_on_c,4,60,80
6,269395, Note_on_c,4,60,0
6,269649, Note_on_c,4,58,80
6,269699, Note_on_c,4,58,0
6,269941, Note_on_c,4,58,80
6,269991, Note_on_c,4,58,0
6,270837, Note_on_c,4,53,80
6,270887, Note_on_c,4,53,0
6,271129, Note_on_c,4,53,80
6,271179, Note_on_c,4,53,0
6,313345, Control_c,4,11,60
6,313444, Program_c,4,48,
6,313958, Note_on_c,4,58,70
6,315360, Note_on_c,4,58,0
6,315362, Note_on_c,4,60,70
6,316046, Note_on_c,4,60,0
6,316050, Note_on_c,4,56,70
6,316754, Note_on_c,4,56,0
6,316754, Note_on_c,4,55,70
6,316754, Note_on_c,4,49,70
6,318176, Note_on_c,4,49,0
6,318176, Note_on_c,4,55,0
6,318178, Note_on_c,4,51,70
6,318862, Note_on_c,4,51,0
6,318866, Note_on_c,4,56,70
6,319590, Note_on_c,4,56,0
6,319602, Note_on_c,4,58,70
6,321014, Note_on_c,4,60,70
6,321024, Note_on_c,4,58,0
6,321718, Note_on_c,4,60,0
6,321722, Note_on_c,4,56,70
6,322430, Note_on_c,4,56,0
6,322430, Note_on_c,4,55,70
6,322430, Note_on_c,4,49,70
6,323892, Note_on_c,4,49,0
6,323892, Note_on_c,4,55,0
6,323894, Note_on_c,4,51,70
6,324578, Note_on_c,4,51,0
6,325426, Note_on_c,4,55,70
6,325426, Note_on_c,4,49,70
6,326898, Note_on_c,4,49,0
6,326898, Note_on_c,4,55,0
6,326906, Note_on_c,4,51,70
6,327590, Note_on_c,4,51,0
6,328398, Note_on_c,4,65,70
6,328398, Note_on_c,4,55,70
6,328806, Note_on_c,4,55,0
6,328806, Note_on_c,4,65,0
6,328806, Note_on_c,4,65,70
6,328806, Note_on_c,4,55,70
6,329510, Note_on_c,4,55,0
6,329510, Note_on_c,4,65,0
6,331490, Note_on_c,4,53,70
6,331490, Note_on_c,4,63,70
6,331906, Note_on_c,4,63,0
6,331906, Note_on_c,4,53,0
6,331906, Note_on_c,4,53,70
6,331906, Note_on_c,4,63,70
6,332596, Note_on_c,4,63,0
6,332596, Note_on_c,4,53,0
6,333870, Note_on_c,4,58,60
6,336808, Note_on_c,4,58,0
6,336822, Note_on_c,4,58,60
6,338304, Note_on_c,4,58,0
6,338322, Note_on_c,4,58,60
6,339056, Note_on_c,4,58,0
6,339066, Note_on_c,4,57,60
6,339426, Note_on_c,4,57,0
6,339814, Note_on_c,4,51,60
6,340174, Note_on_c,4,51,0
6,340586, Note_on_c,4,53,60
6,340586, Note_on_c,4,61,60
6,341654, Note_on_c,4,61,0
6,341654, Note_on_c,4,53,0
6,341674, Note_on_c,4,57,60
6,342034, Note_on_c,4,57,0
6,342058, Note_on_c,4,53,60
6,342468, Note_on_c,4,53,0
6,344278, Note_on_c,4,57,60
6,345421, Note_on_c,4,57,0
6,345426, Note_on_c,4,58,60
6,345646, Note_on_c,4,58,0
6,345938, Note_on_c,4,58,60
6,348926, Note_on_c,4,58,0
6,348938, Note_on_c,4,58,60
6,350390, Note_on_c,4,58,0
6,350406, Note_on_c,4,58,60
6,351120, Note_on_c,4,58,0
6,351134, Note_on_c,4,57,60
6,351504, Note_on_c,4,57,0
6,352254, Note_on_c,4,51,60
6,352604, Note_on_c,4,51,0
6,352678, Note_on_c,4,55,60
6,354170, Note_on_c,4,55,0
6,354182, Note_on_c,4,62,60
6,355634, Note_on_c,4,62,0
6,355646, Note_on_c,4,55,60
6,357098, Note_on_c,4,55,0
6,357098, Note_on_c,4,62,60
6,358550, Note_on_c,4,62,0
6,380161, Control_c,4,11,110
6,380614, Note_on_c,4,68,120
6,380614, Note_on_c,4,59,120
6,380764, Note_on_c,4,59,0
6,380764, Note_on_c,4,68,0
6,383278, Note_on_c,4,60,120
6,383278, Note_on_c,4,69,120
6,383428, Note_on_c,4,69,0
6,383428, Note_on_c,4,60,0
6,385920, Note_on_c,4,59,120
6,385920, Note_on_c,4,65,120
6,386070, Note_on_c,4,65,0
6,386070, Note_on_c,4,59,0
6,386566, Note_on_c,4,59,120
6,386566, Note_on_c,4,65,120
6,386716, Note_on_c,4,65,0
6,386716, Note_on_c,4,59,0
6,387194, Note_on_c,4,65,120
6,387194, Note_on_c,4,56,120
6,387344, Note_on_c,4,56,0
6,387344, Note_on_c,4,65,0
6,387850, Note_on_c,4,65,120
6,387850, Note_on_c,4,56,120
6,388000, Note_on_c,4,56,0
6,388000, Note_on_c,4,65,0
6,388522, Note_on_c,4,54,120
6,388522, Note_on_c,4,60,120
6,388672, Note_on_c,4,60,0
6,388672, Note_on_c,4,54,0
6,389290, Note_on_c,4,43,120
6,389290, Note_on_c,4,51,120
6,389290, Note_on_c,4,60,120
6,389440, Note_on_c,4,60,0
6,389440, Note_on_c,4,51,0
6,389440, Note_on_c,4,43,0
6,407425, Control_c,4,11,80
6,408740, Note_on_c,4,70,70
6,408850, Note_on_c,4,70,0
6,408858, Note_on_c,4,68,70
6,408968, Note_on_c,4,68,0
6,408976, Note_on_c,4,67,70
6,409086, Note_on_c,4,67,0
6,409093, Note_on_c,4,65,70
6,409203, Note_on_c,4,65,0
6,409210, Note_on_c,4,63,70
6,409320, Note_on_c,4,63,0
6,410179, Note_on_c,4,72,70
6,410289, Note_on_c,4,72,0
6,410290, Note_on_c,4,70,70
6,410400, Note_on_c,4,70,0
6,410402, Note_on_c,4,68,70
6,410512, Note_on_c,4,68,0
6,410513, Note_on_c,4,65,70
6,410623, Note_on_c,4,65,0
6,410624, Note_on_c,4,63,70
6,410734, Note_on_c,4,63,0
6,411635, Note_on_c,4,63,70
6,411745, Note_on_c,4,63,0
6,411752, Note_on_c,4,62,70
6,411862, Note_on_c,4,62,0
6,411869, Note_on_c,4,61,70
6,411979, Note_on_c,4,61,0
6,411986, Note_on_c,4,60,70
6,412096, Note_on_c,4,60,0
6,412103, Note_on_c,4,61,70
6,412213, Note_on_c,4,61,0
6,413079, Note_on_c,4,67,70
6,413189, Note_on_c,4,67,0
6,413200, Note_on_c,4,65,70
6,413310, Note_on_c,4,65,0
6,413321, Note_on_c,4,63,70
6,413431, Note_on_c,4,63,0
6,413442, Note_on_c,4,61,70
6,413552, Note_on_c,4,61,0
6,413563, Note_on_c,4,60,70
6,413673, Note_on_c,4,60,0
6,414530, Note_on_c,4,70,70
6,414640, Note_on_c,4,70,0
6,414650, Note_on_c,4,68,70
6,414760, Note_on_c,4,68,0
6,414770, Note_on_c,4,67,70
6,414880, Note_on_c,4,67,0
6,414890, Note_on_c,4,65,70
6,415000, Note_on_c,4,65,0
6,415010, Note_on_c,4,63,70
6,415120, Note_on_c,4,63,0
6,415967, Note_on_c,4,72,70
6,416077, Note_on_c,4,72,0
6,416088, Note_on_c,4,70,70
6,416198, Note_on_c,4,70,0
6,416209, Note_on_c,4,68,70
6,416319, Note_on_c,4,68,0
6,416330, Note_on_c,4,65,70
6,416440, Note_on_c,4,65,0
6,418920, Note_on_c,4,65,70
6,419030, Note_on_c,4,65,0
6,419054, Note_on_c,4,67,70
6,419164, Note_on_c,4,67,0
6,419188, Note_on_c,4,68,70
6,419298, Note_on_c,4,68,0
6,419322, Note_on_c,4,72,70
6,419432, Note_on_c,4,72,0
6,419456, Note_on_c,4,75,70
6,419566, Note_on_c,4,75,0
6,428545, Control_c,4,11,60
6,428666, Note_on_c,4,51,60
6,429878, Note_on_c,4,51,0
6,431402, Note_on_c,4,51,60
6,432614, Note_on_c,4,51,0
6,433494, Note_on_c,4,51,60
6,433978, Note_on_c,4,51,0
6,434910, Note_on_c,4,51,60
6,435394, Note_on_c,4,51,0
6,442753, Control_c,4,11,80
6,443077, Note_on_c,4,54,60
6,444329, Note_on_c,4,54,0
6,444341, Note_on_c,4,53,60
6,444925, Note_on_c,4,53,0
6,445042, Control_c,4,11,81
6,447332, Control_c,4,11,82
6,448143, Note_on_c,4,56,60
6,449395, Note_on_c,4,56,0
6,449407, Note_on_c,4,55,60
6,449621, Control_c,4,11,83
6,449991, Note_on_c,4,55,0
6,451911, Control_c,4,11,84
6,453199, Note_on_c,4,48,60
6,453199, Note_on_c,4,56,60
6,453783, Note_on_c,4,56,0
6,453783, Note_on_c,4,48,0
6,453831, Note_on_c,4,50,60
6,453831, Note_on_c,4,55,60
6,454201, Control_c,4,11,85
6,454415, Note_on_c,4,55,0
6,454415, Note_on_c,4,50,0
6,455727, Note_on_c,4,50,60
6,455727, Note_on_c,4,58,60
6,456311, Note_on_c,4,58,0
6,456311, Note_on_c,4,50,0
6,456359, Note_on_c,4,57,60
6,456359, Note_on_c,4,52,60
6,456490, Control_c,4,11,86
6,456943, Note_on_c,4,52,0
6,456943, Note_on_c,4,57,0
6,458255, Note_on_c,4,50,60
6,458255, Note_on_c,4,62,60
6,458780, Control_c,4,11,87
6,459514, Note_on_c,4,62,0
6,459514, Note_on_c,4,50,0
6,459519, Note_on_c,4,64,60
6,459519, Note_on_c,4,52,60
6,460778, Note_on_c,4,52,0
6,460778, Note_on_c,4,64,0
6,461070, Control_c,4,11,88
6,463311, Note_on_c,4,76,60
6,463311, Note_on_c,4,64,60
6,463359, Control_c,4,11,89
6,464570, Note_on_c,4,64,0
6,464570, Note_on_c,4,76,0
6,464575, Note_on_c,4,66,60
6,464575, Note_on_c,4,78,60
6,465649, Control_c,4,11,90
6,465834, Note_on_c,4,78,0
6,465834, Note_on_c,4,66,0
6,467938, Control_c,4,11,91
6,468367, Note_on_c,4,59,70
6,469626, Note_on_c,4,59,0
6,469631, Note_on_c,4,59,70
6,470228, Control_c,4,11,92
6,470579, Note_on_c,4,64,70
6,470729, Note_on_c,4,64,0
6,470737, Note_on_c,4,62,70
6,470887, Note_on_c,4,62,0
6,470890, Note_on_c,4,59,0
6,470895, Note_on_c,4,61,70
6,471045, Note_on_c,4,61,0
6,471053, Note_on_c,4,60,70
6,471203, Note_on_c,4,60,0
6,471211, Note_on_c,4,59,70
6,471361, Note_on_c,4,59,0
6,471369, Note_on_c,4,60,70
6,471519, Note_on_c,4,60,0
6,471527, Note_on_c,4,61,70
6,471677, Note_on_c,4,61,0
6,471685, Note_on_c,4,62,70
6,471835, Note_on_c,4,62,0
6,471843, Note_on_c,4,57,70
6,471993, Note_on_c,4,57,0
6,472001, Note_on_c,4,58,70
6,472151, Note_on_c,4,58,0
6,472159, Note_on_c,4,59,70
6,472309, Note_on_c,4,59,0
6,472317, Note_on_c,4,60,70
6,472467, Note_on_c,4,60,0
6,472475, Note_on_c,4,61,70
6,472518, Control_c,4,11,93
6,472625, Note_on_c,4,61,0
6,472633, Note_on_c,4,62,70
6,472783, Note_on_c,4,62,0
6,472791, Note_on_c,4,59,70
6,472941, Note_on_c,4,59,0
6,472949, Note_on_c,4,60,70
6,473099, Note_on_c,4,60,0
6,473433, Note_on_c,4,57,70
6,474685, Note_on_c,4,57,0
6,474697, Note_on_c,4,57,70
6,474807, Control_c,4,11,94
6,475465, Note_on_c,4,57,0
6,475645, Note_on_c,4,62,70
6,475795, Note_on_c,4,62,0
6,475803, Note_on_c,4,60,70
6,475953, Note_on_c,4,60,0
6,475961, Note_on_c,4,59,70
6,476111, Note_on_c,4,59,0
6,476119, Note_on_c,4,58,70
6,476269, Note_on_c,4,58,0
6,476277, Note_on_c,4,57,70
6,476427, Note_on_c,4,57,0
6,476435, Note_on_c,4,58,70
6,476585, Note_on_c,4,58,0
6,476593, Note_on_c,4,59,70
6,476743, Note_on_c,4,59,0
6,476751, Note_on_c,4,60,70
6,476901, Note_on_c,4,60,0
6,476909, Note_on_c,4,55,70
6,477059, Note_on_c,4,55,0
6,477067, Note_on_c,4,56,70
6,477097, Control_c,4,11,95
6,477217, Note_on_c,4,56,0
6,477225, Note_on_c,4,57,70
6,477375, Note_on_c,4,57,0
6,477383, Note_on_c,4,58,70
6,477533, Note_on_c,4,58,0
6,477541, Note_on_c,4,59,70
6,477691, Note_on_c,4,59,0
6,477699, Note_on_c,4,60,70
6,477849, Note_on_c,4,60,0
6,477857, Note_on_c,4,58,70
6,478007, Note_on_c,4,58,0
6,478015, Note_on_c,4,59,70
6,478165, Note_on_c,4,59,0
6,478499, Note_on_c,4,67,90
6,478619, Note_on_c,4,67,0
6,478657, Note_on_c,4,67,90
6,478777, Note_on_c,4,67,0
6,478815, Note_on_c,4,67,90
6,478935, Note_on_c,4,67,0
6,478973, Note_on_c,4,67,90
6,479093, Note_on_c,4,67,0
6,479387, Control_c,4,11,96
6,479447, Note_on_c,4,67,90
6,479567, Note_on_c,4,67,0
6,479605, Note_on_c,4,67,90
6,479725, Note_on_c,4,67,0
6,479763, Note_on_c,4,65,90
6,479883, Note_on_c,4,65,0
6,479921, Note_on_c,4,65,90
6,480041, Note_on_c,4,65,0
6,480089, Note_on_c,4,63,90
6,480209, Note_on_c,4,63,0
6,480247, Note_on_c,4,63,90
6,480367, Note_on_c,4,63,0
6,480405, Note_on_c,4,62,90
6,480525, Note_on_c,4,62,0
6,480563, Note_on_c,4,62,90
6,480683, Note_on_c,4,62,0
6,481039, Note_on_c,4,67,90
6,481159, Note_on_c,4,67,0
6,481197, Note_on_c,4,67,90
6,481317, Note_on_c,4,67,0
6,481355, Note_on_c,4,67,90
6,481475, Note_on_c,4,67,0
6,481513, Note_on_c,4,67,90
6,481633, Note_on_c,4,67,0
6,481676, Control_c,4,11,97
6,481987, Note_on_c,4,67,90
6,482107, Note_on_c,4,67,0
6,482145, Note_on_c,4,67,90
6,482265, Note_on_c,4,67,0
6,482303, Note_on_c,4,65,90
6,482423, Note_on_c,4,65,0
6,482461, Note_on_c,4,65,90
6,482581, Note_on_c,4,65,0
6,482629, Note_on_c,4,63,90
6,482749, Note_on_c,4,63,0
6,482787, Note_on_c,4,63,90
6,482907, Note_on_c,4,63,0
6,482945, Note_on_c,4,62,90
6,483065, Note_on_c,4,62,0
6,483103, Note_on_c,4,62,90
6,483223, Note_on_c,4,62,0
6,483261, Note_on_c,4,60,90
6,483381, Note_on_c,4,60,0
6,483419, Note_on_c,4,60,90
6,483539, Note_on_c,4,60,0
6,483577, Note_on_c,4,62,90
6,483697, Note_on_c,4,62,0
6,483735, Note_on_c,4,62,90
6,483855, Note_on_c,4,62,0
6,483893, Note_on_c,4,64,90
6,483966, Control_c,4,11,98
6,484013, Note_on_c,4,64,0
6,484051, Note_on_c,4,64,90
6,484171, Note_on_c,4,64,0
6,484209, Note_on_c,4,60,90
6,484329, Note_on_c,4,60,0
6,484367, Note_on_c,4,60,90
6,484487, Note_on_c,4,60,0
6,484525, Note_on_c,4,62,90
6,484645, Note_on_c,4,62,0
6,484683, Note_on_c,4,62,90
6,484803, Note_on_c,4,62,0
6,484841, Note_on_c,4,64,90
6,484961, Note_on_c,4,64,0
6,484999, Note_on_c,4,64,90
6,485119, Note_on_c,4,64,0
6,485167, Note_on_c,4,65,90
6,485287, Note_on_c,4,65,0
6,485325, Note_on_c,4,65,90
6,485445, Note_on_c,4,65,0
6,485483, Note_on_c,4,67,90
6,485603, Note_on_c,4,67,0
6,485641, Note_on_c,4,67,90
6,485761, Note_on_c,4,67,0
6,485799, Note_on_c,4,60,90
6,485919, Note_on_c,4,60,0
6,485957, Note_on_c,4,60,90
6,486077, Note_on_c,4,60,0
6,486115, Note_on_c,4,62,90
6,486235, Note_on_c,4,62,0
6,486256, Control_c,4,11,99
6,486273, Note_on_c,4,62,90
6,486393, Note_on_c,4,62,0
6,486431, Note_on_c,4,64,90
6,486551, Note_on_c,4,64,0
6,486589, Note_on_c,4,64,90
6,486709, Note_on_c,4,64,0
6,486747, Note_on_c,4,60,90
6,486867, Note_on_c,4,60,0
6,486905, Note_on_c,4,60,90
6,487025, Note_on_c,4,60,0
6,487063, Note_on_c,4,62,90
6,487183, Note_on_c,4,62,0
6,487221, Note_on_c,4,62,90
6,487341, Note_on_c,4,62,0
6,487379, Note_on_c,4,64,90
6,487499, Note_on_c,4,64,0
6,487537, Note_on_c,4,64,90
6,487657, Note_on_c,4,64,0
6,487705, Note_on_c,4,65,90
6,487825, Note_on_c,4,65,0
6,487863, Note_on_c,4,65,90
6,487983, Note_on_c,4,65,0
6,488021, Note_on_c,4,67,90
6,488141, Note_on_c,4,67,0
6,488179, Note_on_c,4,67,90
6,488299, Note_on_c,4,67,0
6,488337, Note_on_c,4,60,90
6,488427, Note_on_c,4,60,0
6,488442, Note_on_c,4,60,90
6,488532, Note_on_c,4,60,0
6,488545, Control_c,4,11,100
6,488547, Note_on_c,4,60,90
6,488637, Note_on_c,4,60,0
6,488653, Note_on_c,4,62,90
6,488773, Note_on_c,4,62,0
6,488811, Note_on_c,4,62,90
6,488931, Note_on_c,4,62,0
6,488969, Note_on_c,4,64,90
6,489089, Note_on_c,4,64,0
6,489127, Note_on_c,4,64,90
6,489247, Note_on_c,4,64,0
6,489285, Note_on_c,4,60,90
6,489405, Note_on_c,4,60,0
6,489443, Note_on_c,4,60,90
6,489563, Note_on_c,4,60,0
6,489601, Note_on_c,4,62,90
6,489721, Note_on_c,4,62,0
6,489759, Note_on_c,4,62,90
6,489879, Note_on_c,4,62,0
6,489917, Note_on_c,4,64,90
6,490037, Note_on_c,4,64,0
6,490075, Note_on_c,4,64,90
6,490195, Note_on_c,4,64,0
6,490243, Note_on_c,4,65,90
6,490363, Note_on_c,4,65,0
6,490401, Note_on_c,4,65,90
6,490521, Note_on_c,4,65,0
6,490559, Note_on_c,4,71,90
6,490679, Note_on_c,4,71,0
6,490770, Note_on_c,4,65,90
6,490835, Control_c,4,11,101
6,490970, Note_on_c,4,65,0
6,490981, Note_on_c,4,67,90
6,491181, Note_on_c,4,67,0
6,491192, Note_on_c,4,68,90
6,491392, Note_on_c,4,68,0
6,491403, Note_on_c,4,62,90
6,491603, Note_on_c,4,62,0
6,491614, Note_on_c,4,64,90
6,491814, Note_on_c,4,64,0
6,491825, Note_on_c,4,65,90
6,492025, Note_on_c,4,65,0
6,492036, Note_on_c,4,65,90
6,492236, Note_on_c,4,65,0
6,492247, Note_on_c,4,67,90
6,492447, Note_on_c,4,67,0
6,492458, Note_on_c,4,68,90
6,492658, Note_on_c,4,68,0
6,492669, Note_on_c,4,62,90
6,492869, Note_on_c,4,62,0
6,492880, Note_on_c,4,64,90
6,493080, Note_on_c,4,64,0
6,493091, Note_on_c,4,65,90
6,493124, Control_c,4,11,102
6,493291, Note_on_c,4,65,0
6,493407, Note_on_c,4,60,90
6,493497, Note_on_c,4,60,0
6,493512, Note_on_c,4,60,90
6,493602, Note_on_c,4,60,0
6,493617, Note_on_c,4,60,90
6,493707, Note_on_c,4,60,0
6,493723, Note_on_c,4,62,90
6,493843, Note_on_c,4,62,0
6,493881, Note_on_c,4,62,90
6,494001, Note_on_c,4,62,0
6,494039, Note_on_c,4,64,90
6,494159, Note_on_c,4,64,0
6,494197, Note_on_c,4,64,90
6,494317, Note_on_c,4,64,0
6,494355, Note_on_c,4,60,90
6,494475, Note_on_c,4,60,0
6,494513, Note_on_c,4,60,90
6,494633, Note_on_c,4,60,0
6,494671, Note_on_c,4,62,90
6,494791, Note_on_c,4,62,0
6,494829, Note_on_c,4,62,90
6,494949, Note_on_c,4,62,0
6,494987, Note_on_c,4,64,90
6,495107, Note_on_c,4,64,0
6,495145, Note_on_c,4,64,90
6,495265, Note_on_c,4,64,0
6,495313, Note_on_c,4,65,90
6,495414, Control_c,4,11,103
6,495433, Note_on_c,4,65,0
6,495471, Note_on_c,4,65,90
6,495591, Note_on_c,4,65,0
6,495629, Note_on_c,4,59,90
6,495829, Note_on_c,4,59,0
6,495840, Note_on_c,4,65,90
6,496040, Note_on_c,4,65,0
6,496051, Note_on_c,4,67,90
6,496251, Note_on_c,4,67,0
6,496262, Note_on_c,4,68,90
6,496462, Note_on_c,4,68,0
6,496473, Note_on_c,4,62,90
6,496673, Note_on_c,4,62,0
6,496684, Note_on_c,4,64,90
6,496884, Note_on_c,4,64,0
6,496895, Note_on_c,4,65,90
6,497095, Note_on_c,4,65,0
6,497106, Note_on_c,4,65,90
6,497306, Note_on_c,4,65,0
6,497317, Note_on_c,4,67,90
6,497517, Note_on_c,4,67,0
6,497528, Note_on_c,4,68,90
6,497704, Control_c,4,11,104
6,497728, Note_on_c,4,68,0
6,497739, Note_on_c,4,62,90
6,497939, Note_on_c,4,62,0
6,497950, Note_on_c,4,64,90
6,498150, Note_on_c,4,64,0
6,498161, Note_on_c,4,65,90
6,498361, Note_on_c,4,65,0
6,498372, Note_on_c,4,65,90
6,498572, Note_on_c,4,65,0
6,498583, Note_on_c,4,67,90
6,498783, Note_on_c,4,67,0
6,498794, Note_on_c,4,68,90
6,498994, Note_on_c,4,68,0
6,499005, Note_on_c,4,62,90
6,499205, Note_on_c,4,62,0
6,499216, Note_on_c,4,64,90
6,499416, Note_on_c,4,64,0
6,499427, Note_on_c,4,65,90
6,499627, Note_on_c,4,65,0
6,499638, Note_on_c,4,65,90
6,499838, Note_on_c,4,65,0
6,499849, Note_on_c,4,67,90
6,499993, Control_c,4,11,105
6,500049, Note_on_c,4,67,0
6,500060, Note_on_c,4,68,90
6,500260, Note_on_c,4,68,0
6,500271, Note_on_c,4,62,90
6,500471, Note_on_c,4,62,0
6,500482, Note_on_c,4,64,90
6,500682, Note_on_c,4,64,0
6,500693, Note_on_c,4,65,90
6,500893, Note_on_c,4,65,0
6,500904, Note_on_c,4,65,90
6,501104, Note_on_c,4,65,0
6,501115, Note_on_c,4,67,90
6,501315, Note_on_c,4,67,0
6,501326, Note_on_c,4,69,90
6,501526, Note_on_c,4,69,0
6,501537, Note_on_c,4,62,90
6,501737, Note_on_c,4,62,0
6,501748, Note_on_c,4,64,90
6,501948, Note_on_c,4,64,0
6,501959, Note_on_c,4,65,90
6,502159, Note_on_c,4,65,0
6,502170, Note_on_c,4,65,90
6,502283, Control_c,4,11,106
6,502370, Note_on_c,4,65,0
6,502381, Note_on_c,4,67,90
6,502581, Note_on_c,4,67,0
6,502592, Note_on_c,4,69,90
6,502792, Note_on_c,4,69,0
6,502803, Note_on_c,4,62,90
6,503003, Note_on_c,4,62,0
6,503014, Note_on_c,4,64,90
6,503214, Note_on_c,4,64,0
6,503225, Note_on_c,4,65,90
6,503425, Note_on_c,4,65,0
6,503436, Note_on_c,4,65,90
6,503636, Note_on_c,4,65,0
6,503647, Note_on_c,4,67,90
6,503847, Note_on_c,4,67,0
6,503858, Note_on_c,4,69,90
6,504008, Note_on_c,4,69,0
6,504016, Note_on_c,4,67,90
6,504166, Note_on_c,4,67,0
6,504174, Note_on_c,4,65,90
6,504324, Note_on_c,4,65,0
6,504332, Note_on_c,4,64,90
6,504482, Note_on_c,4,64,0
6,504490, Note_on_c,4,65,90
6,504573, Control_c,4,11,107
6,504640, Note_on_c,4,65,0
6,504648, Note_on_c,4,64,90
6,504798, Note_on_c,4,64,0
6,504806, Note_on_c,4,62,90
6,504956, Note_on_c,4,62,0
6,504964, Note_on_c,4,61,90
6,505114, Note_on_c,4,61,0
6,505122, Note_on_c,4,62,90
6,505272, Note_on_c,4,62,0
6,505280, Note_on_c,4,60,90
6,505430, Note_on_c,4,60,0
6,505438, Note_on_c,4,58,90
6,505588, Note_on_c,4,58,0
6,505596, Note_on_c,4,57,90
6,505746, Note_on_c,4,57,0
6,505754, Note_on_c,4,65,90
6,505904, Note_on_c,4,65,0
6,505912, Note_on_c,4,63,90
6,506062, Note_on_c,4,63,0
6,506070, Note_on_c,4,62,90
6,506220, Note_on_c,4,62,0
6,506228, Note_on_c,4,61,90
6,506378, Note_on_c,4,61,0
6,506386, Note_on_c,4,62,90
6,506536, Note_on_c,4,62,0
6,506544, Note_on_c,4,60,90
6,506694, Note_on_c,4,60,0
6,506702, Note_on_c,4,58,90
6,506852, Note_on_c,4,58,0
6,506860, Note_on_c,4,57,90
6,506862, Control_c,4,11,108
6,507010, Note_on_c,4,57,0
6,507018, Note_on_c,4,58,90
6,507168, Note_on_c,4,58,0
6,507176, Note_on_c,4,57,90
6,507326, Note_on_c,4,57,0
6,507334, Note_on_c,4,55,90
6,507484, Note_on_c,4,55,0
6,507492, Note_on_c,4,53,90
6,507642, Note_on_c,4,53,0
6,507650, Note_on_c,4,55,90
6,507800, Note_on_c,4,55,0
6,507808, Note_on_c,4,53,90
6,507958, Note_on_c,4,53,0
6,507966, Note_on_c,4,51,90
6,508116, Note_on_c,4,51,0
6,508124, Note_on_c,4,50,90
6,508274, Note_on_c,4,50,0
6,508282, Note_on_c,4,51,90
6,508432, Note_on_c,4,51,0
6,508440, Note_on_c,4,50,90
6,508590, Note_on_c,4,50,0
6,508598, Note_on_c,4,48,90
6,508748, Note_on_c,4,48,0
6,508756, Note_on_c,4,46,90
6,508906, Note_on_c,4,46,0
6,508914, Note_on_c,4,55,90
6,509064, Note_on_c,4,55,0
6,509072, Note_on_c,4,53,90
6,509152, Control_c,4,11,109
6,509222, Note_on_c,4,53,0
6,509230, Note_on_c,4,51,90
6,509380, Note_on_c,4,51,0
6,509388, Note_on_c,4,50,90
6,509538, Note_on_c,4,50,0
6,509546, Note_on_c,4,51,90
6,509696, Note_on_c,4,51,0
6,509704, Note_on_c,4,50,90
6,509854, Note_on_c,4,50,0
6,509862, Note_on_c,4,48,90
6,510012, Note_on_c,4,48,0
6,510020, Note_on_c,4,46,90
6,510170, Note_on_c,4,46,0
6,510178, Note_on_c,4,55,90
6,510328, Note_on_c,4,55,0
6,510336, Note_on_c,4,53,90
6,510486, Note_on_c,4,53,0
6,510494, Note_on_c,4,51,90
6,510644, Note_on_c,4,51,0
6,510652, Note_on_c,4,50,90
6,510802, Note_on_c,4,50,0
6,510810, Note_on_c,4,51,90
6,510960, Note_on_c,4,51,0
6,510968, Note_on_c,4,50,90
6,511118, Note_on_c,4,50,0
6,511126, Note_on_c,4,48,90
6,511276, Note_on_c,4,48,0
6,511284, Note_on_c,4,46,90
6,511434, Note_on_c,4,46,0
6,511442, Control_c,4,11,110
6,511442, Note_on_c,4,55,90
6,511642, Note_on_c,4,55,0
6,581824, Control_c,4,11,100
6,582117, Control_c,4,11,101
6,582410, Control_c,4,11,102
6,582703, Control_c,4,11,103
6,582996, Control_c,4,11,104
6,583290, Control_c,4,11,105
6,583583, Control_c,4,11,106
6,583698, Note_on_c,4,59,79
6,583778, Note_on_c,4,59,0
6,583793, Note_on_c,4,59,80
6,583873, Note_on_c,4,59,0
6,583876, Control_c,4,11,107
6,583888, Note_on_c,4,56,80
6,583968, Note_on_c,4,56,0
6,583983, Note_on_c,4,56,81
6,584063, Note_on_c,4,56,0
6,584078, Note_on_c,4,57,81
6,584158, Note_on_c,4,57,0
6,584169, Control_c,4,11,108
6,584173, Note_on_c,4,57,82
6,584253, Note_on_c,4,57,0
6,584268, Note_on_c,4,59,82
6,584348, Note_on_c,4,59,0
6,584363, Note_on_c,4,59,82
6,584443, Note_on_c,4,59,0
6,584458, Note_on_c,4,56,83
6,584462, Control_c,4,11,109
6,584538, Note_on_c,4,56,0
6,584553, Note_on_c,4,56,83
6,584633, Note_on_c,4,56,0
6,584648, Note_on_c,4,57,84
6,584728, Note_on_c,4,57,0
6,584743, Note_on_c,4,57,84
6,584756, Control_c,4,11,110
6,584823, Note_on_c,4,57,0
6,584838, Note_on_c,4,59,85
6,584918, Note_on_c,4,59,0
6,584933, Note_on_c,4,59,85
6,585013, Note_on_c,4,59,0
6,585028, Note_on_c,4,56,86
6,585049, Control_c,4,11,111
6,585108, Note_on_c,4,56,0
6,585123, Note_on_c,4,56,86
6,585203, Note_on_c,4,56,0
6,585218, Note_on_c,4,58,87
6,585298, Note_on_c,4,58,0
6,585313, Note_on_c,4,58,87
6,585342, Control_c,4,11,112
6,585393, Note_on_c,4,58,0
6,585408, Note_on_c,4,59,88
6,585488, Note_on_c,4,59,0
6,585503, Note_on_c,4,59,88
6,585583, Note_on_c,4,59,0
6,585598, Note_on_c,4,57,89
6,585635, Control_c,4,11,113
6,585678, Note_on_c,4,57,0
6,585693, Note_on_c,4,57,89
6,585773, Note_on_c,4,57,0
6,585788, Note_on_c,4,58,90
6,585868, Note_on_c,4,58,0
6,585883, Note_on_c,4,58,90
6,585928, Control_c,4,11,114
6,585963, Note_on_c,4,58,0
6,585978, Note_on_c,4,59,91
6,586058, Note_on_c,4,59,0
6,586073, Note_on_c,4,59,91
6,586153, Note_on_c,4,59,0
6,586168, Note_on_c,4,57,92
6,586222, Control_c,4,11,115
6,586248, Note_on_c,4,57,0
6,586263, Note_on_c,4,57,92
6,586343, Note_on_c,4,57,0
6,586358, Note_on_c,4,58,93
6,586438, Note_on_c,4,58,0
6,586453, Note_on_c,4,58,93
6,586515, Control_c,4,11,116
6,586533, Note_on_c,4,58,0
6,586548, Note_on_c,4,59,94
6,586628, Note_on_c,4,59,0
6,586643, Note_on_c,4,59,94
6,586723, Note_on_c,4,59,0
6,586738, Note_on_c,4,58,95
6,586808, Control_c,4,11,117
6,586818, Note_on_c,4,58,0
6,586833, Note_on_c,4,58,95
6,586913, Note_on_c,4,58,0
6,586928, Note_on_c,4,59,96
6,587008, Note_on_c,4,59,0
6,587023, Note_on_c,4,59,96
6,587101, Control_c,4,11,118
6,587103, Note_on_c,4,59,0
6,587118, Note_on_c,4,59,97
6,587198, Note_on_c,4,59,0
6,587213, Note_on_c,4,59,97
6,587293, Note_on_c,4,59,0
6,587308, Note_on_c,4,58,98
6,587388, Note_on_c,4,58,0
6,587394, Control_c,4,11,119
6,587403, Note_on_c,4,58,98
6,587483, Note_on_c,4,58,0
6,587498, Note_on_c,4,59,99
6,587578, Note_on_c,4,59,0
6,587593, Note_on_c,4,59,99
6,587673, Note_on_c,4,59,0
6,587688, Control_c,4,11,120
6,587688, Note_on_c,4,59,100
6,587848, Note_on_c,4,59,0
6,588828, Note_on_c,4,66,100
6,588828, Note_on_c,4,59,100
6,589028, Note_on_c,4,59,0
6,589028, Note_on_c,4,66,0
6,589968, Note_on_c,4,65,100
6,589968, Note_on_c,4,59,100
6,590168, Note_on_c,4,59,0
6,590168, Note_on_c,4,65,0
6,591108, Note_on_c,4,66,100
6,591108, Note_on_c,4,59,100
6,591308, Note_on_c,4,59,0
6,591308, Note_on_c,4,66,0
6,595684, Control_c,4,11,80
6,595847, Note_on_c,4,64,70
6,595947, Note_on_c,4,64,0
6,595947, Note_on_c,4,63,70
6,596047, Note_on_c,4,63,0
6,596151, Note_on_c,4,61,70
6,596251, Note_on_c,4,61,0
6,596255, Note_on_c,4,63,70
6,596355, Note_on_c,4,63,0
6,596467, Note_on_c,4,56,70
6,596567, Note_on_c,4,56,0
6,596571, Note_on_c,4,61,70
6,596671, Note_on_c,4,61,0
6,596775, Note_on_c,4,63,70
6,596875, Note_on_c,4,63,0
6,596875, Note_on_c,4,64,70
6,596975, Note_on_c,4,64,0
6,600659, Note_on_c,4,66,70
6,600759, Note_on_c,4,66,0
6,600759, Note_on_c,4,65,70
6,600859, Note_on_c,4,65,0
6,600963, Note_on_c,4,63,70
6,601063, Note_on_c,4,63,0
6,601067, Note_on_c,4,65,70
6,601167, Note_on_c,4,65,0
6,601279, Note_on_c,4,58,70
6,601379, Note_on_c,4,58,0
6,601383, Note_on_c,4,63,70
6,601483, Note_on_c,4,63,0
6,601587, Note_on_c,4,65,70
6,601687, Note_on_c,4,65,0
6,601687, Note_on_c,4,66,70
6,601787, Note_on_c,4,66,0
6,606728, Note_on_c,4,61,70
6,607482, Note_on_c,4,61,0
6,607488, Note_on_c,4,60,70
6,608242, Note_on_c,4,60,0
6,608320, Note_on_c,4,63,70
6,608964, Note_on_c,4,63,0
6,608964, Note_on_c,4,61,70
6,609608, Note_on_c,4,61,0
6,618036, Note_on_c,4,58,100
6,618036, Note_on_c,4,61,100
6,618216, Note_on_c,4,61,0
6,618216, Note_on_c,4,58,0
6,619688, Note_on_c,4,61,100
6,619868, Note_on_c,4,61,0
6,638458, Program_c,4,45,
6,638574, Note_on_c,4,58,80
6,638624, Note_on_c,4,58,0
6,638866, Note_on_c,4,58,80
6,638916, Note_on_c,4,58,0
6,639170, Note_on_c,4,58,80
6,639220, Note_on_c,4,58,0
6,639470, Note_on_c,4,58,80
6,639520, Note_on_c,4,58,0
6,639770, Note_on_c,4,63,80
6,639820, Note_on_c,4,63,0
6,640082, Note_on_c,4,60,80
6,640132, Note_on_c,4,60,0
6,640386, Note_on_c,4,63,80
6,640436, Note_on_c,4,63,0
6,640694, Note_on_c,4,60,80
6,640744, Note_on_c,4,60,0
6,640998, Note_on_c,4,58,80
6,641048, Note_on_c,4,58,0
6,641278, Note_on_c,4,58,80
6,641328, Note_on_c,4,58,0
6,641578, Note_on_c,4,58,80
6,641628, Note_on_c,4,58,0
6,641870, Note_on_c,4,58,80
6,641920, Note_on_c,4,58,0
6,642170, Note_on_c,4,57,80
6,642220, Note_on_c,4,57,0
6,642486, Note_on_c,4,60,80
6,642536, Note_on_c,4,60,0
6,642786, Note_on_c,4,57,80
6,642836, Note_on_c,4,57,0
6,643098, Note_on_c,4,60,80
6,643148, Note_on_c,4,60,0
6,643410, Note_on_c,4,58,80
6,643460, Note_on_c,4,58,0
6,643722, Note_on_c,4,58,80
6,643772, Note_on_c,4,58,0
6,644014, Note_on_c,4,58,80
6,644064, Note_on_c,4,58,0
6,644306, Note_on_c,4,58,80
6,644356, Note_on_c,4,58,0
6,644618, Note_on_c,4,63,80
6,644668, Note_on_c,4,63,0
6,644926, Note_on_c,4,60,80
6,644976, Note_on_c,4,60,0
6,645230, Note_on_c,4,63,80
6,645280, Note_on_c,4,63,0
6,645530, Note_on_c,4,60,80
6,645580, Note_on_c,4,60,0
6,645804, Note_on_c,4,58,80
6,645854, Note_on_c,4,58,0
6,646116, Note_on_c,4,58,80
6,646166, Note_on_c,4,58,0
6,646408, Note_on_c,4,58,80
6,646458, Note_on_c,4,58,0
6,646700, Note_on_c,4,58,80
6,646750, Note_on_c,4,58,0
6,647001, Note_on_c,4,56,80
6,647051, Note_on_c,4,56,0
6,647313, Note_on_c,4,62,80
6,647313, Note_on_c,4,56,80
6,647363, Note_on_c,4,56,0
6,647363, Note_on_c,4,62,0
6,647605, Note_on_c,4,53,80
6,647655, Note_on_c,4,53,0
6,647897, Note_on_c,4,62,80
6,647897, Note_on_c,4,55,80
6,647947, Note_on_c,4,55,0
6,647947, Note_on_c,4,62,0
6,648208, Note_on_c,4,48,80
6,648208, Note_on_c,4,55,80
6,648208, Note_on_c,4,63,80
6,648258, Note_on_c,4,63,0
6,648258, Note_on_c,4,55,0
6,648258, Note_on_c,4,48,0
6,648812, Note_on_c,4,48,80
6,648812, Note_on_c,4,55,80
6,648812, Note_on_c,4,63,80
6,648862, Note_on_c,4,63,0
6,648862, Note_on_c,4,55,0
6,648862, Note_on_c,4,48,0
6,649416, Note_on_c,4,48,80
6,649416, Note_on_c,4,55,80
6,649416, Note_on_c,4,62,80
6,649466, Note_on_c,4,62,0
6,649466, Note_on_c,4,55,0
6,649466, Note_on_c,4,48,0
6,649724, Note_on_c,4,59,80
6,649774, Note_on_c,4,59,0
6,650028, Note_on_c,4,48,80
6,650028, Note_on_c,4,55,80
6,650028, Note_on_c,4,62,80
6,650078, Note_on_c,4,62,0
6,650078, Note_on_c,4,55,0
6,650078, Note_on_c,4,48,0
6,650328, Note_on_c,4,59,80
6,650378, Note_on_c,4,59,0
6,650632, Note_on_c,4,48,80
6,650632, Note_on_c,4,55,80
6,650632, Note_on_c,4,63,80
6,650682, Note_on_c,4,63,0
6,650682, Note_on_c,4,55,0
6,650682, Note_on_c,4,48,0
6,651820, Note_on_c,4,48,80
6,651820, Note_on_c,4,55,80
6,651870, Note_on_c,4,55,0
6,651870, Note_on_c,4,48,0
6,663169, Program_c,4,48,
6,663268, Control_c,4,11,70
6,663378, Note_on_c,4,60,70
6,663508, Note_on_c,4,60,0
6,663562, Note_on_c,4,60,70
6,663822, Note_on_c,4,60,0
6,663930, Note_on_c,4,60,70
6,664190, Note_on_c,4,60,0
6,664276, Note_on_c,4,60,70
6,664536, Note_on_c,4,60,0
6,664616, Note_on_c,4,60,70
6,664746, Note_on_c,4,60,0
6,664790, Note_on_c,4,60,70
6,664920, Note_on_c,4,60,0
6,664972, Note_on_c,4,60,70
6,665232, Note_on_c,4,60,0
6,665336, Note_on_c,4,60,70
6,665596, Note_on_c,4,60,0
6,665700, Note_on_c,4,60,70
6,665960, Note_on_c,4,60,0
6,666060, Note_on_c,4,60,70
6,666190, Note_on_c,4,60,0
6,666194, Note_on_c,4,60,70
6,666324, Note_on_c,4,60,0
6,666366, Note_on_c,4,60,70
6,666626, Note_on_c,4,60,0
6,666710, Note_on_c,4,60,70
6,666970, Note_on_c,4,60,0
6,667054, Note_on_c,4,60,70
6,667314, Note_on_c,4,60,0
6,667398, Note_on_c,4,60,70
6,667578, Note_on_c,4,60,70
6,667658, Note_on_c,4,60,0
6,667708, Note_on_c,4,60,0
6,667758, Note_on_c,4,60,70
6,667888, Note_on_c,4,60,0
6,667938, Note_on_c,4,58,75
6,668068, Note_on_c,4,58,0
6,668122, Note_on_c,4,58,75
6,668252, Note_on_c,4,58,0
6,668306, Note_on_c,4,59,80
6,668436, Note_on_c,4,59,0
6,668484, Note_on_c,4,59,80
6,668614, Note_on_c,4,59,0
6,668662, Note_on_c,4,60,80
6,668792, Note_on_c,4,60,0
6,668848, Note_on_c,4,60,80
6,668978, Note_on_c,4,60,0
6,669034, Note_on_c,4,62,85
6,669164, Note_on_c,4,62,0
6,669222, Note_on_c,4,62,85
6,669352, Note_on_c,4,62,0
6,669592, Note_on_c,4,62,85
6,669722, Note_on_c,4,62,0
6,669774, Note_on_c,4,63,85
6,669904, Note_on_c,4,63,0
6,669954, Note_on_c,4,63,85
6,670214, Note_on_c,4,63,0
6,670314, Note_on_c,4,63,85
6,670574, Note_on_c,4,63,0
6,670674, Note_on_c,4,63,85
6,670804, Note_on_c,4,63,0
6,670866, Note_on_c,4,62,85
6,670996, Note_on_c,4,62,0
6,671046, Note_on_c,4,62,85
6,671176, Note_on_c,4,62,0
6,671226, Note_on_c,4,60,85
6,671356, Note_on_c,4,60,0
6,671406, Note_on_c,4,60,85
6,671666, Note_on_c,4,60,0
6,671766, Note_on_c,4,60,85
6,671896, Note_on_c,4,60,0
6,671934, Note_on_c,4,62,85
6,672064, Note_on_c,4,62,0
6,672106, Note_on_c,4,62,85
6,672236, Note_on_c,4,62,0
6,672278, Note_on_c,4,52,85
6,672638, Note_on_c,4,52,0
6,672642, Note_on_c,4,57,85
6,673002, Note_on_c,4,57,0
6,673014, Note_on_c,4,58,85
6,673354, Note_on_c,4,58,0
6,673390, Note_on_c,4,58,85
6,673750, Note_on_c,4,58,0
6,673774, Note_on_c,4,56,85
6,674534, Note_on_c,4,57,85
6,674566, Note_on_c,4,56,0
6,674854, Note_on_c,4,57,0
6,674954, Note_on_c,4,63,70
6,675084, Note_on_c,4,63,0
6,675150, Note_on_c,4,63,70
6,675410, Note_on_c,4,63,0
6,675522, Note_on_c,4,63,70
6,675782, Note_on_c,4,63,0
6,675906, Note_on_c,4,63,70
6,676166, Note_on_c,4,63,0
6,676236, Note_on_c,4,63,70
6,676366, Note_on_c,4,63,0
6,676422, Note_on_c,4,67,70
6,676552, Note_on_c,4,67,0
6,676608, Note_on_c,4,67,70
6,676868, Note_on_c,4,67,0
6,676980, Note_on_c,4,67,70
6,677240, Note_on_c,4,67,0
6,677352, Note_on_c,4,67,70
6,677612, Note_on_c,4,67,0
6,677734, Note_on_c,4,67,70
6,677994, Note_on_c,4,67,0
6,678120, Note_on_c,4,67,70
6,678380, Note_on_c,4,67,0
6,678480, Note_on_c,4,67,70
6,678610, Note_on_c,4,67,0
6,678662, Note_on_c,4,69,70
6,678792, Note_on_c,4,69,0
6,678850, Note_on_c,4,69,70
6,678980, Note_on_c,4,69,0
6,679038, Note_on_c,4,67,70
6,679168, Note_on_c,4,67,0
6,679218, Note_on_c,4,67,70
6,679348, Note_on_c,4,67,0
6,679398, Note_on_c,4,69,70
6,679528, Note_on_c,4,69,0
6,679580, Note_on_c,4,69,70
6,679710, Note_on_c,4,69,0
6,679762, Note_on_c,4,67,70
6,679892, Note_on_c,4,67,0
6,679944, Note_on_c,4,67,70
6,680074, Note_on_c,4,67,0
6,680126, Note_on_c,4,65,70
6,680256, Note_on_c,4,65,0
6,680312, Note_on_c,4,60,70
6,680572, Note_on_c,4,60,0
6,680674, Note_on_c,4,60,70
6,680804, Note_on_c,4,60,0
6,680850, Note_on_c,4,62,70
6,680980, Note_on_c,4,62,0
6,681034, Note_on_c,4,62,70
6,681164, Note_on_c,4,62,0
6,681234, Note_on_c,4,64,70
6,681364, Note_on_c,4,64,0
6,681418, Note_on_c,4,64,70
6,681548, Note_on_c,4,64,0
6,681618, Note_on_c,4,62,70
6,681748, Note_on_c,4,62,0
6,681798, Note_on_c,4,62,70
6,682058, Note_on_c,4,62,0
6,682166, Note_on_c,4,62,70
6,682426, Note_on_c,4,62,0
6,682538, Note_on_c,4,62,70
6,682798, Note_on_c,4,62,0
6,682922, Note_on_c,4,62,70
6,683052, Note_on_c,4,62,0
6,683122, Note_on_c,4,64,70
6,683252, Note_on_c,4,64,0
6,683297, Note_on_c,4,64,70
6,683557, Note_on_c,4,64,0
6,683597, Note_on_c,4,64,70
6,683857, Note_on_c,4,64,0
6,683973, Note_on_c,4,64,70
6,684233, Note_on_c,4,64,0
6,684376, Note_on_c,4,64,70
6,684506, Note_on_c,4,64,0
6,684586, Note_on_c,4,62,70
6,684716, Note_on_c,4,62,0
6,684758, Note_on_c,4,62,70
6,685018, Note_on_c,4,62,0
6,685116, Note_on_c,4,62,70
6,685376, Note_on_c,4,62,0
6,685472, Note_on_c,4,62,70
6,685732, Note_on_c,4,62,0
6,685826, Note_on_c,4,62,70
6,685956, Note_on_c,4,62,0
6,686010, Note_on_c,4,64,70
6,686140, Note_on_c,4,64,0
6,686201, Note_on_c,4,64,70
6,686461, Note_on_c,4,64,0
6,686576, Note_on_c,4,64,70
6,686836, Note_on_c,4,64,0
6,686956, Note_on_c,4,64,70
6,687216, Note_on_c,4,64,0
6,687358, Note_on_c,4,64,70
6,687488, Note_on_c,4,64,0
6,687562, Note_on_c,4,62,70
6,687692, Note_on_c,4,62,0
6,687746, Note_on_c,4,62,70
6,688006, Note_on_c,4,62,0
6,688108, Note_on_c,4,62,70
6,688238, Note_on_c,4,62,0
6,689038, Note_on_c,4,62,70
6,689168, Note_on_c,4,62,0
6,689222, Note_on_c,4,62,70
6,689482, Note_on_c,4,62,0
6,689602, Note_on_c,4,62,70
6,689732, Note_on_c,4,62,0
6,689798, Note_on_c,4,57,70
6,689928, Note_on_c,4,57,0
6,690004, Note_on_c,4,57,70
6,690264, Note_on_c,4,57,0
6,690394, Note_on_c,4,57,70
6,690524, Note_on_c,4,57,0
6,690588, Note_on_c,4,53,70
6,690718, Note_on_c,4,53,0
6,690776, Note_on_c,4,53,70
6,691036, Note_on_c,4,53,0
6,691160, Note_on_c,4,53,70
6,691420, Note_on_c,4,53,0
6,691630, Note_on_c,4,53,70
6,691890, Note_on_c,4,53,0
6,692094, Note_on_c,4,53,70
6,692224, Note_on_c,4,53,0
6,692326, Note_on_c,4,55,70
6,692456, Note_on_c,4,55,0
6,692557, Note_on_c,4,55,70
6,692817, Note_on_c,4,55,0
6,693040, Note_on_c,4,55,70
6,693170, Note_on_c,4,55,0
6,693290, Note_on_c,4,53,70
6,693550, Note_on_c,4,53,0
6,694708, Note_on_c,4,60,60
6,697576, Note_on_c,4,60,0
6,697580, Note_on_c,4,60,60
6,699012, Note_on_c,4,60,0
6,699036, Note_on_c,4,60,60
6,699780, Note_on_c,4,60,0
6,699780, Note_on_c,4,59,70
6,700148, Note_on_c,4,59,0
6,700536, Note_on_c,4,58,60
6,700836, Note_on_c,4,58,0
6,701276, Note_on_c,4,63,60
6,701276, Note_on_c,4,55,60
6,702294, Note_on_c,4,55,0
6,702294, Note_on_c,4,63,0
6,702312, Note_on_c,4,67,60
6,702312, Note_on_c,4,55,60
6,702682, Note_on_c,4,55,0
6,702682, Note_on_c,4,67,0
6,702684, Note_on_c,4,67,60
6,702684, Note_on_c,4,55,60
6,703054, Note_on_c,4,55,0
6,703054, Note_on_c,4,67,0
6,704888, Note_on_c,4,59,60
6,706032, Note_on_c,4,59,0
6,706032, Note_on_c,4,60,60
6,706332, Note_on_c,4,60,0
6,706516, Note_on_c,4,63,60
6,707968, Note_on_c,4,63,0
6,707968, Note_on_c,4,67,60
6,709320, Note_on_c,4,67,0
6,747265, Control_c,4,11,90
6,747432, Note_on_c,4,54,90
6,747632, Note_on_c,4,54,0
6,747712, Note_on_c,4,54,90
6,747912, Note_on_c,4,54,0
6,747982, Note_on_c,4,58,90
6,748182, Note_on_c,4,58,0
6,748262, Note_on_c,4,61,90
6,748462, Note_on_c,4,61,0
6,748542, Note_on_c,4,61,90
6,748742, Note_on_c,4,61,0
6,748822, Note_on_c,4,66,90
6,748822, Note_on_c,4,58,90
6,749022, Note_on_c,4,58,0
6,749022, Note_on_c,4,66,0
6,749102, Note_on_c,4,66,90
6,749102, Note_on_c,4,58,90
6,749302, Note_on_c,4,58,0
6,749302, Note_on_c,4,66,0
6,749382, Note_on_c,4,66,90
6,749382, Note_on_c,4,58,90
6,749682, Note_on_c,4,58,0
6,749682, Note_on_c,4,66,0
6,892417, Control_c,4,11,70
6,892625, Note_on_c,4,53,70
6,892961, Note_on_c,4,53,0
6,892961, Note_on_c,4,52,70
6,893289, Note_on_c,4,52,0
6,893289, Note_on_c,4,51,70
6,893589, Note_on_c,4,51,0
6,893625, Note_on_c,4,50,70
6,894309, Note_on_c,4,50,0
6,894317, Note_on_c,4,58,70
6,894981, Note_on_c,4,58,0
6,894985, Note_on_c,4,57,70
6,895325, Note_on_c,4,57,0
6,895325, Note_on_c,4,55,70
6,895989, Note_on_c,4,55,0
6,896001, Note_on_c,4,55,70
6,896665, Note_on_c,4,55,0
6,896677, Note_on_c,4,53,70
6,896677, Note_on_c,4,41,70
6,897371, Note_on_c,4,41,0
6,897371, Note_on_c,4,53,0
6,897387, Note_on_c,4,53,70
6,897387, Note_on_c,4,43,70
6,898016, Note_on_c,4,43,0
6,898016, Note_on_c,4,53,0
6,898029, Note_on_c,4,64,70
6,898029, Note_on_c,4,55,70
6,898357, Note_on_c,4,55,0
6,898357, Note_on_c,4,64,0
6,898357, Note_on_c,4,72,70
6,898697, Note_on_c,4,72,0
6,899037, Note_on_c,4,69,70
6,899385, Note_on_c,4,69,0
6,899385, Note_on_c,4,67,70
6,899685, Note_on_c,4,67,0
6,899733, Note_on_c,4,68,70
6,900065, Note_on_c,4,68,0
6,900065, Note_on_c,4,69,70
6,900365, Note_on_c,4,69,0
6,900393, Note_on_c,4,62,70
6,900715, Note_on_c,4,62,0
6,900741, Note_on_c,4,57,70
6,901041, Note_on_c,4,57,0
6,901073, Note_on_c,4,57,70
6,901404, Note_on_c,4,58,70
6,901430, Note_on_c,4,57,0
6,901712, Note_on_c,4,58,0
6,901717, Note_on_c,4,63,70
6,902041, Note_on_c,4,63,0
6,902041, Note_on_c,4,60,70
6,902381, Note_on_c,4,60,0
6,902381, Note_on_c,4,65,70
6,903053, Note_on_c,4,65,0
6,903053, Note_on_c,4,62,70
6,903053, Note_on_c,4,58,70
6,903353, Note_on_c,4,58,0
6,903353, Note_on_c,4,62,0
6,903437, Note_on_c,4,53,70
6,903777, Note_on_c,4,53,0
6,903777, Note_on_c,4,52,70
6,904117, Note_on_c,4,52,0
6,904117, Note_on_c,4,51,70
6,904457, Note_on_c,4,51,0
6,904463, Note_on_c,4,50,70
6,905167, Note_on_c,4,50,0
6,905177, Note_on_c,4,58,70
6,905861, Note_on_c,4,58,0
6,905869, Note_on_c,4,57,70
6,906209, Note_on_c,4,57,0
6,906221, Note_on_c,4,55,70
6,906910, Note_on_c,4,55,0
6,906925, Note_on_c,4,55,70
6,907614, Note_on_c,4,55,0
6,907625, Note_on_c,4,53,70
6,907625, Note_on_c,4,41,70
6,908314, Note_on_c,4,41,0
6,908314, Note_on_c,4,53,0
6,908325, Note_on_c,4,53,70
6,908325, Note_on_c,4,43,70
6,908984, Note_on_c,4,43,0
6,908984, Note_on_c,4,53,0
6,908993, Note_on_c,4,64,70
6,908993, Note_on_c,4,55,70
6,909333, Note_on_c,4,55,0
6,909333, Note_on_c,4,64,0
6,909333, Note_on_c,4,72,70
6,909663, Note_on_c,4,72,0
6,909993, Note_on_c,4,69,70
6,910333, Note_on_c,4,69,0
6,910337, Note_on_c,4,67,70
6,910677, Note_on_c,4,67,0
6,910681, Note_on_c,4,68,70
6,911017, Note_on_c,4,69,70
6,911021, Note_on_c,4,68,0
6,911357, Note_on_c,4,69,0
6,911357, Note_on_c,4,62,70
6,911707, Note_on_c,4,62,0
6,911709, Note_on_c,4,57,70
6,912019, Note_on_c,4,57,0
6,912029, Note_on_c,4,57,70
6,912379, Note_on_c,4,57,0
6,912381, Note_on_c,4,58,70
6,912691, Note_on_c,4,58,0
6,912717, Note_on_c,4,63,70
6,913053, Note_on_c,4,63,0
6,913053, Note_on_c,4,58,70
6,913363, Note_on_c,4,58,0
6,913377, Note_on_c,4,59,70
6,913707, Note_on_c,4,59,0
6,913709, Note_on_c,4,60,70
6,914019, Note_on_c,4,60,0
6,914037, Note_on_c,4,65,70
6,914367, Note_on_c,4,65,0
6,914373, Note_on_c,4,60,70
6,914683, Note_on_c,4,60,0
6,914705, Note_on_c,4,61,70
6,915037, Note_on_c,4,61,0
6,915037, Note_on_c,4,62,70
6,915347, Note_on_c,4,62,0
6,915377, Note_on_c,4,62,70
6,916016, Note_on_c,4,62,0
6,916021, Note_on_c,4,63,70
6,916665, Note_on_c,4,63,0
6,916673, Note_on_c,4,64,70
6,917327, Note_on_c,4,64,0
6,917341, Note_on_c,4,65,70
6,917980, Note_on_c,4,65,0
6,918001, Note_on_c,4,65,70
6,918001, Note_on_c,4,58,70
6,918685, Note_on_c,4,58,0
6,918685, Note_on_c,4,65,0
6,918689, Note_on_c,4,66,70
6,918689, Note_on_c,4,58,70
6,918989, Note_on_c,4,58,0
6,918989, Note_on_c,4,66,0
6,920717, Note_on_c,4,66,90
6,920717, Note_on_c,4,58,90
6,920987, Note_on_c,4,58,0
6,920987, Note_on_c,4,66,0
6,921137, Note_on_c,4,65,90
6,921137, Note_on_c,4,58,90
6,921407, Note_on_c,4,58,0
6,921407, Note_on_c,4,65,0
6,921557, Note_on_c,4,66,90
6,921557, Note_on_c,4,58,90
6,921827, Note_on_c,4,58,0
6,921827, Note_on_c,4,66,0
6,923541, Note_on_c,4,66,90
6,923541, Note_on_c,4,58,90
6,923811, Note_on_c,4,58,0
6,923811, Note_on_c,4,66,0
6,923907, Note_on_c,4,65,90
6,923907, Note_on_c,4,58,90
6,924177, Note_on_c,4,58,0
6,924177, Note_on_c,4,65,0
6,924273, Note_on_c,4,66,90
6,924273, Note_on_c,4,58,90
6,924543, Note_on_c,4,58,0
6,924543, Note_on_c,4,66,0
6,924969, Note_on_c,4,66,90
6,924969, Note_on_c,4,58,90
6,925239, Note_on_c,4,58,0
6,925239, Note_on_c,4,66,0
6,926349, Note_on_c,4,61,90
6,926349, Note_on_c,4,58,90
6,926619, Note_on_c,4,58,0
6,926619, Note_on_c,4,61,0
6,927725, Note_on_c,4,82,90
6,927725, Note_on_c,4,62,90
6,927725, Note_on_c,4,58,90
6,928045, Note_on_c,4,58,0
6,928045, Note_on_c,4,62,0
6,928045, Note_on_c,4,82,0
6,929837, Note_on_c,4,65,90
6,930531, Note_on_c,4,65,0
6,930533, Note_on_c,4,65,90
6,931925, Note_on_c,4,65,0
6,931925, Note_on_c,4,60,90
6,932195, Note_on_c,4,60,0
6,933309, Note_on_c,4,62,90
6,933309, Note_on_c,4,58,90
6,933579, Note_on_c,4,58,0
6,933579, Note_on_c,4,62,0
6,933697, Note_on_c,4,60,90
6,934331, Note_on_c,4,60,0
6,934373, Note_on_c,4,60,90
6,934643, Note_on_c,4,60,0
6,934741, Note_on_c,4,65,90
6,935011, Note_on_c,4,65,0
6,935417, Note_on_c,4,54,90
6,935417, Note_on_c,4,61,90
6,935687, Note_on_c,4,61,0
6,935687, Note_on_c,4,54,0
6,936141, Note_on_c,4,62,90
6,936141, Note_on_c,4,58,90
6,936141, Note_on_c,4,53,90
6,936411, Note_on_c,4,53,0
6,936411, Note_on_c,4,58,0
6,936411, Note_on_c,4,62,0
6,936513, Note_on_c,4,60,90
6,937147, Note_on_c,4,60,0
6,937213, Note_on_c,4,60,90
6,937483, Note_on_c,4,60,0
6,937577, Note_on_c,4,65,90
6,937847, Note_on_c,4,65,0
6,938277, Note_on_c,4,54,90
6,938277, Note_on_c,4,61,90
6,938547, Note_on_c,4,61,0
6,938547, Note_on_c,4,54,0
6,939009, Note_on_c,4,62,90
6,939009, Note_on_c,4,58,90
6,939009, Note_on_c,4,53,90
6,939279, Note_on_c,4,53,0
6,939279, Note_on_c,4,58,0
6,939279, Note_on_c,4,62,0
6,939728, Note_on_c,4,54,90
6,939728, Note_on_c,4,61,90
6,939998, Note_on_c,4,61,0
6,939998, Note_on_c,4,54,0
6,940457, Note_on_c,4,62,90
6,940457, Note_on_c,4,58,90
6,940457, Note_on_c,4,53,90
6,940727, Note_on_c,4,53,0
6,940727, Note_on_c,4,58,0
6,940727, Note_on_c,4,62,0
6,941164, Note_on_c,4,54,90
6,941164, Note_on_c,4,61,90
6,941434, Note_on_c,4,61,0
6,941434, Note_on_c,4,54,0
6,941901, Note_on_c,4,62,90
6,941901, Note_on_c,4,58,90
6,941901, Note_on_c,4,53,90
6,942171, Note_on_c,4,53,0
6,942171, Note_on_c,4,58,0
6,942171, Note_on_c,4,62,0
6,942269, Note_on_c,4,61,90
6,942469, Note_on_c,4,61,0
6,942637, Note_on_c,4,62,90
6,942637, Note_on_c,4,58,90
6,942837, Note_on_c,4,58,0
6,942837, Note_on_c,4,62,0
6,943005, Note_on_c,4,61,90
6,943205, Note_on_c,4,61,0
6,943373, Note_on_c,4,62,90
6,943373, Note_on_c,4,58,90
6,943573, Note_on_c,4,58,0
6,943573, Note_on_c,4,62,0
6,943741, Note_on_c,4,61,90
6,943941, Note_on_c,4,61,0
6,944109, Note_on_c,4,62,90
6,944109, Note_on_c,4,58,90
6,944309, Note_on_c,4,58,0
6,944309, Note_on_c,4,62,0
6,944477, Note_on_c,4,61,90
6,944677, Note_on_c,4,61,0
6,944845, Note_on_c,4,70,90
6,944845, Note_on_c,4,62,90
6,945045, Note_on_c,4,62,0
6,945045, Note_on_c,4,70,0
6,956460, Control_c,4,121,0
6,956460, End_track,,,
7,0, Start_track,,,
7,0, MIDI_port,0,,
7,0, Title_t," ""Cellos""",,
7,0, Control_c,5,0,0
7,0, Control_c,5,32,0
7,0, Program_c,5,48,
7,0, Control_c,5,7,100
7,0, Control_c,5,10,100
7,3272, Control_c,5,11,90
7,3356, Control_c,5,91,127
7,3356, Note_on_c,5,56,80
7,3612, Note_on_c,5,56,0
7,4908, Note_on_c,5,55,80
7,5164, Note_on_c,5,55,0
7,6432, Note_on_c,5,54,80
7,6936, Note_on_c,5,54,0
7,6968, Note_on_c,5,53,80
7,7472, Note_on_c,5,53,0
7,7528, Note_on_c,5,52,80
7,8032, Note_on_c,5,52,0
7,8088, Note_on_c,5,51,80
7,8622, Note_on_c,5,51,0
7,8672, Note_on_c,5,56,80
7,9226, Note_on_c,5,56,0
7,9316, Note_on_c,5,49,80
7,9820, Note_on_c,5,49,0
7,11872, Note_on_c,5,56,80
7,12128, Note_on_c,5,56,0
7,12160, Note_on_c,5,53,80
7,12416, Note_on_c,5,53,0
7,12448, Note_on_c,5,51,80
7,12704, Note_on_c,5,51,0
7,12748, Note_on_c,5,49,80
7,13332, Note_on_c,5,49,0
7,13336, Note_on_c,5,65,80
7,14224, Note_on_c,5,65,0
7,14232, Note_on_c,5,63,80
7,14488, Note_on_c,5,63,0
7,14532, Note_on_c,5,66,80
7,15420, Note_on_c,5,66,0
7,15424, Note_on_c,5,65,70
7,15676, Note_on_c,5,65,0
7,15716, Note_on_c,5,60,70
7,15988, Note_on_c,5,60,0
7,15988, Note_on_c,5,61,70
7,16276, Note_on_c,5,61,0
7,16288, Note_on_c,5,58,70
7,16844, Note_on_c,5,58,0
7,16852, Note_on_c,5,63,70
7,17756, Note_on_c,5,63,0
7,17764, Note_on_c,5,65,70
7,18020, Note_on_c,5,65,0
7,18072, Note_on_c,5,58,70
7,18912, Note_on_c,5,58,0
7,18916, Note_on_c,5,63,70
7,19172, Note_on_c,5,63,0
7,19204, Note_on_c,5,60,70
7,19508, Note_on_c,5,60,0
7,19512, Note_on_c,5,58,70
7,19824, Note_on_c,5,58,0
7,19824, Note_on_c,5,56,70
7,20392, Note_on_c,5,56,0
7,20400, Note_on_c,5,63,70
7,21272, Note_on_c,5,63,0
7,21280, Note_on_c,5,65,70
7,21536, Note_on_c,5,65,0
7,21572, Note_on_c,5,68,80
7,22444, Note_on_c,5,68,0
7,22448, Note_on_c,5,63,75
7,22720, Note_on_c,5,63,0
7,22728, Note_on_c,5,63,75
7,23016, Note_on_c,5,63,0
7,23020, Note_on_c,5,65,75
7,23276, Note_on_c,5,65,0
7,23316, Note_on_c,5,68,80
7,24168, Note_on_c,5,68,0
7,24172, Note_on_c,5,65,75
7,24452, Note_on_c,5,65,0
7,24456, Note_on_c,5,70,75
7,24752, Note_on_c,5,70,0
7,24756, Note_on_c,5,68,75
7,25052, Note_on_c,5,68,0
7,25056, Note_on_c,5,63,75
7,25056, Note_on_c,5,63,75
7,25696, Note_on_c,5,63,0
7,25696, Note_on_c,5,63,0
7,25816, Note_on_c,5,60,75
7,25996, Note_on_c,5,60,0
7,26004, Note_on_c,5,58,75
7,26184, Note_on_c,5,58,0
7,26292, Note_on_c,5,56,75
7,26387, Note_on_c,5,54,75
7,26472, Note_on_c,5,56,0
7,26567, Note_on_c,5,54,0
7,26582, Note_on_c,5,51,75
7,26762, Note_on_c,5,51,0
7,26784, Note_on_c,5,49,75
7,27320, Note_on_c,5,49,0
7,27320, Note_on_c,5,65,80
7,28193, Note_on_c,5,65,0
7,28194, Note_on_c,5,63,80
7,28472, Note_on_c,5,63,0
7,28472, Note_on_c,5,66,80
7,29342, Note_on_c,5,66,0
7,29342, Note_on_c,5,65,80
7,29632, Note_on_c,5,65,0
7,29632, Note_on_c,5,60,80
7,29922, Note_on_c,5,60,0
7,29942, Note_on_c,5,61,80
7,30232, Note_on_c,5,61,0
7,30252, Note_on_c,5,58,80
7,30820, Note_on_c,5,58,0
7,30820, Note_on_c,5,63,80
7,31720, Note_on_c,5,63,0
7,31720, Note_on_c,5,65,80
7,32024, Note_on_c,5,65,0
7,32024, Note_on_c,5,68,80
7,32892, Note_on_c,5,68,0
7,32924, Note_on_c,5,66,80
7,33207, Note_on_c,5,66,0
7,33208, Note_on_c,5,65,80
7,33538, Note_on_c,5,65,0
7,33540, Note_on_c,5,66,80
7,33850, Note_on_c,5,66,0
7,33852, Note_on_c,5,65,80
7,34132, Note_on_c,5,65,0
7,34132, Note_on_c,5,60,80
7,34412, Note_on_c,5,60,0
7,34412, Note_on_c,5,65,80
7,34684, Note_on_c,5,65,0
7,34684, Note_on_c,5,62,80
7,34956, Note_on_c,5,62,0
7,34956, Note_on_c,5,63,80
7,35234, Note_on_c,5,63,0
7,35234, Note_on_c,5,58,80
7,35512, Note_on_c,5,58,0
7,35512, Note_on_c,5,63,80
7,35772, Note_on_c,5,63,0
7,35772, Note_on_c,5,60,80
7,36032, Note_on_c,5,60,0
7,36032, Note_on_c,5,61,80
7,36250, Note_on_c,5,53,80
7,36332, Note_on_c,5,61,0
7,36468, Note_on_c,5,58,80
7,36550, Note_on_c,5,53,0
7,36768, Note_on_c,5,58,0
7,36778, Note_on_c,5,60,80
7,37078, Note_on_c,5,60,0
7,37089, Note_on_c,5,56,80
7,37324, Note_on_c,5,58,80
7,37389, Note_on_c,5,56,0
7,37580, Note_on_c,5,60,80
7,37624, Note_on_c,5,58,0
7,37840, Note_on_c,5,61,80
7,37880, Note_on_c,5,60,0
7,38100, Note_on_c,5,63,80
7,38140, Note_on_c,5,61,0
7,38358, Note_on_c,5,65,80
7,38400, Note_on_c,5,63,0
7,38616, Note_on_c,5,63,80
7,38658, Note_on_c,5,65,0
7,38868, Note_on_c,5,65,80
7,38916, Note_on_c,5,63,0
7,39120, Note_on_c,5,58,80
7,39168, Note_on_c,5,65,0
7,39936, Note_on_c,5,58,0
7,39937, Note_on_c,5,60,80
7,40196, Note_on_c,5,61,80
7,40237, Note_on_c,5,60,0
7,40596, Note_on_c,5,61,0
7,40714, Program_c,5,45,
7,40748, Note_on_c,5,53,80
7,40788, Note_on_c,5,53,0
7,41292, Note_on_c,5,56,80
7,41332, Note_on_c,5,56,0
7,42276, Note_on_c,5,53,80
7,42316, Note_on_c,5,53,0
7,42780, Note_on_c,5,56,80
7,42820, Note_on_c,5,56,0
7,43972, Note_on_c,5,53,80
7,44012, Note_on_c,5,53,0
7,44568, Note_on_c,5,56,80
7,44608, Note_on_c,5,56,0
7,45762, Note_on_c,5,53,80
7,45802, Note_on_c,5,53,0
7,46360, Note_on_c,5,56,80
7,46400, Note_on_c,5,56,0
7,47456, Note_on_c,5,54,80
7,47496, Note_on_c,5,54,0
7,48052, Note_on_c,5,58,80
7,48092, Note_on_c,5,58,0
7,49179, Note_on_c,5,54,80
7,49219, Note_on_c,5,54,0
7,49720, Note_on_c,5,58,80
7,49760, Note_on_c,5,58,0
7,50784, Note_on_c,5,56,80
7,50824, Note_on_c,5,56,0
7,51374, Note_on_c,5,60,80
7,51414, Note_on_c,5,60,0
7,52483, Note_on_c,5,56,80
7,52523, Note_on_c,5,56,0
7,53028, Note_on_c,5,60,80
7,53068, Note_on_c,5,60,0
7,54084, Note_on_c,5,56,80
7,54124, Note_on_c,5,56,0
7,54596, Note_on_c,5,61,80
7,54636, Note_on_c,5,61,0
7,55116, Note_on_c,5,59,80
7,55156, Note_on_c,5,59,0
7,55614, Note_on_c,5,60,80
7,55654, Note_on_c,5,60,0
7,56576, Note_on_c,5,61,80
7,56616, Note_on_c,5,61,0
7,57006, Note_on_c,5,61,80
7,57046, Note_on_c,5,61,0
7,58016, Note_on_c,5,62,80
7,58056, Note_on_c,5,62,0
7,58498, Note_on_c,5,63,80
7,58538, Note_on_c,5,63,0
7,59432, Note_on_c,5,55,80
7,59472, Note_on_c,5,55,0
7,59916, Note_on_c,5,56,80
7,59956, Note_on_c,5,56,0
7,92694, Note_on_c,5,51,80
7,92734, Note_on_c,5,51,0
7,92930, Note_on_c,5,48,80
7,92970, Note_on_c,5,48,0
7,93171, Note_on_c,5,46,80
7,93211, Note_on_c,5,46,0
7,93412, Note_on_c,5,45,80
7,93452, Note_on_c,5,45,0
7,94624, Note_on_c,5,54,80
7,94664, Note_on_c,5,54,0
7,94866, Note_on_c,5,51,80
7,94906, Note_on_c,5,51,0
7,95111, Note_on_c,5,49,80
7,95151, Note_on_c,5,49,0
7,95354, Note_on_c,5,48,80
7,95394, Note_on_c,5,48,0
7,96572, Note_on_c,5,57,80
7,96612, Note_on_c,5,57,0
7,96810, Note_on_c,5,54,80
7,96850, Note_on_c,5,54,0
7,97055, Note_on_c,5,53,80
7,97095, Note_on_c,5,53,0
7,97300, Note_on_c,5,51,80
7,97340, Note_on_c,5,51,0
7,98516, Note_on_c,5,63,80
7,98556, Note_on_c,5,63,0
7,98758, Note_on_c,5,60,80
7,98798, Note_on_c,5,60,0
7,99000, Note_on_c,5,58,80
7,99040, Note_on_c,5,58,0
7,99242, Note_on_c,5,57,80
7,99282, Note_on_c,5,57,0
7,100453, Note_on_c,5,69,80
7,100493, Note_on_c,5,69,0
7,100701, Note_on_c,5,66,80
7,100741, Note_on_c,5,66,0
7,100948, Note_on_c,5,65,80
7,100988, Note_on_c,5,65,0
7,101195, Note_on_c,5,63,80
7,101235, Note_on_c,5,63,0
7,102403, Note_on_c,5,75,80
7,102443, Note_on_c,5,75,0
7,102636, Note_on_c,5,72,80
7,102676, Note_on_c,5,72,0
7,102869, Note_on_c,5,70,80
7,102909, Note_on_c,5,70,0
7,103103, Note_on_c,5,69,80
7,103143, Note_on_c,5,69,0
7,106468, Program_c,5,48,
7,106688, Note_on_c,5,56,80
7,106948, Note_on_c,5,56,0
7,106952, Note_on_c,5,53,80
7,107212, Note_on_c,5,53,0
7,107216, Note_on_c,5,51,80
7,107476, Note_on_c,5,51,0
7,107518, Note_on_c,5,49,80
7,108094, Note_on_c,5,65,80
7,108476, Note_on_c,5,49,0
7,108942, Note_on_c,5,65,0
7,108946, Note_on_c,5,63,80
7,109257, Note_on_c,5,63,0
7,109262, Note_on_c,5,66,80
7,110074, Note_on_c,5,66,0
7,110078, Note_on_c,5,65,80
7,110368, Note_on_c,5,65,0
7,110370, Note_on_c,5,60,80
7,110740, Note_on_c,5,60,0
7,110746, Note_on_c,5,61,80
7,111056, Note_on_c,5,61,0
7,111058, Note_on_c,5,58,80
7,111642, Note_on_c,5,58,0
7,111650, Note_on_c,5,63,80
7,112528, Note_on_c,5,63,0
7,112530, Note_on_c,5,65,80
7,112852, Note_on_c,5,65,0
7,112858, Note_on_c,5,58,80
7,113726, Note_on_c,5,58,0
7,113730, Note_on_c,5,63,80
7,114010, Note_on_c,5,63,0
7,114014, Note_on_c,5,60,80
7,114314, Note_on_c,5,60,0
7,114314, Note_on_c,5,58,80
7,114619, Note_on_c,5,58,0
7,114622, Note_on_c,5,56,80
7,115186, Note_on_c,5,56,0
7,115194, Note_on_c,5,63,80
7,116052, Note_on_c,5,63,0
7,116058, Note_on_c,5,65,80
7,116383, Note_on_c,5,65,0
7,116386, Note_on_c,5,68,80
7,117264, Note_on_c,5,68,0
7,117266, Note_on_c,5,63,80
7,117506, Note_on_c,5,63,0
7,117509, Note_on_c,5,63,80
7,117841, Note_on_c,5,63,0
7,117850, Note_on_c,5,65,80
7,118165, Note_on_c,5,65,0
7,118171, Note_on_c,5,68,80
7,118934, Note_on_c,5,68,0
7,118934, Note_on_c,5,65,80
7,119319, Note_on_c,5,65,0
7,119326, Note_on_c,5,70,80
7,119614, Note_on_c,5,70,0
7,119629, Note_on_c,5,68,80
7,119932, Note_on_c,5,63,80
7,119947, Note_on_c,5,68,0
7,120768, Note_on_c,5,63,0
7,120770, Note_on_c,5,60,80
7,120965, Note_on_c,5,60,0
7,120966, Note_on_c,5,58,80
7,121160, Note_on_c,5,58,0
7,121162, Note_on_c,5,56,80
7,121362, Note_on_c,5,56,0
7,121370, Note_on_c,5,54,80
7,121575, Note_on_c,5,54,0
7,121578, Note_on_c,5,51,80
7,121778, Note_on_c,5,51,0
7,121786, Note_on_c,5,49,80
7,122372, Note_on_c,5,49,0
7,122374, Note_on_c,5,65,80
7,123264, Note_on_c,5,65,0
7,123266, Note_on_c,5,63,80
7,123591, Note_on_c,5,63,0
7,123594, Note_on_c,5,66,80
7,124457, Note_on_c,5,66,0
7,124462, Note_on_c,5,65,80
7,124757, Note_on_c,5,65,0
7,124758, Note_on_c,5,60,80
7,125053, Note_on_c,5,60,0
7,125054, Note_on_c,5,61,80
7,125372, Note_on_c,5,61,0
7,125374, Note_on_c,5,58,80
7,125950, Note_on_c,5,58,0
7,125954, Note_on_c,5,63,80
7,126829, Note_on_c,5,63,0
7,126830, Note_on_c,5,65,80
7,127120, Note_on_c,5,65,0
7,127122, Note_on_c,5,68,80
7,127970, Note_on_c,5,68,0
7,127970, Note_on_c,5,66,80
7,128248, Note_on_c,5,66,0
7,128250, Note_on_c,5,65,80
7,128530, Note_on_c,5,65,0
7,128534, Note_on_c,5,66,80
7,128854, Note_on_c,5,66,0
7,128854, Note_on_c,5,65,80
7,129149, Note_on_c,5,65,0
7,129150, Note_on_c,5,60,80
7,129450, Note_on_c,5,60,0
7,129454, Note_on_c,5,65,80
7,129738, Note_on_c,5,65,0
7,129750, Note_on_c,5,62,80
7,130060, Note_on_c,5,62,0
7,130062, Note_on_c,5,63,80
7,130362, Note_on_c,5,63,0
7,130362, Note_on_c,5,58,80
7,130672, Note_on_c,5,58,0
7,130674, Note_on_c,5,63,80
7,130964, Note_on_c,5,63,0
7,130966, Note_on_c,5,60,80
7,131271, Note_on_c,5,60,0
7,131274, Note_on_c,5,61,80
7,131546, Note_on_c,5,61,0
7,131550, Note_on_c,5,53,80
7,131850, Note_on_c,5,53,0
7,131850, Note_on_c,5,58,80
7,132132, Note_on_c,5,58,0
7,132135, Note_on_c,5,60,80
7,132450, Note_on_c,5,60,0
7,132450, Note_on_c,5,56,80
7,132750, Note_on_c,5,56,0
7,132754, Note_on_c,5,58,80
7,133041, Note_on_c,5,58,0
7,133042, Note_on_c,5,60,80
7,133336, Note_on_c,5,60,0
7,133338, Note_on_c,5,61,80
7,133620, Note_on_c,5,61,0
7,133622, Note_on_c,5,63,80
7,133912, Note_on_c,5,63,0
7,133914, Note_on_c,5,65,80
7,134228, Note_on_c,5,65,0
7,134230, Note_on_c,5,63,80
7,134515, Note_on_c,5,63,0
7,134518, Note_on_c,5,65,80
7,134793, Note_on_c,5,65,0
7,134794, Note_on_c,5,58,80
7,135092, Note_on_c,5,58,0
7,135094, Note_on_c,5,59,80
7,135668, Note_on_c,5,59,0
7,135670, Note_on_c,5,60,80
7,136000, Note_on_c,5,60,0
7,136002, Note_on_c,5,61,80
7,136386, Note_on_c,5,61,0
7,136907, Note_on_c,5,56,80
7,137228, Note_on_c,5,56,0
7,137228, Note_on_c,5,53,80
7,137549, Note_on_c,5,53,0
7,137549, Note_on_c,5,51,80
7,137870, Note_on_c,5,51,0
7,137872, Note_on_c,5,49,80
7,138432, Note_on_c,5,49,0
7,138432, Note_on_c,5,62,80
7,139228, Note_on_c,5,62,0
7,139228, Note_on_c,5,53,80
7,139520, Note_on_c,5,53,0
7,139520, Note_on_c,5,54,80
7,140288, Note_on_c,5,54,0
7,140377, Note_on_c,5,61,80
7,140656, Note_on_c,5,61,0
7,140656, Note_on_c,5,57,80
7,140935, Note_on_c,5,57,0
7,140935, Note_on_c,5,54,80
7,141212, Note_on_c,5,54,0
7,141212, Note_on_c,5,51,80
7,141731, Note_on_c,5,51,0
7,141732, Note_on_c,5,57,80
7,142566, Note_on_c,5,57,0
7,142566, Note_on_c,5,56,80
7,142876, Note_on_c,5,56,0
7,142876, Note_on_c,5,49,80
7,143644, Note_on_c,5,49,0
7,143710, Note_on_c,5,56,80
7,143988, Note_on_c,5,56,0
7,143988, Note_on_c,5,53,80
7,144266, Note_on_c,5,53,0
7,144266, Note_on_c,5,51,80
7,144544, Note_on_c,5,51,0
7,144544, Note_on_c,5,49,80
7,145088, Note_on_c,5,49,0
7,145088, Note_on_c,5,62,80
7,145902, Note_on_c,5,62,0
7,145902, Note_on_c,5,53,80
7,146216, Note_on_c,5,53,0
7,146216, Note_on_c,5,54,80
7,146984, Note_on_c,5,54,0
7,147065, Note_on_c,5,61,80
7,147348, Note_on_c,5,61,0
7,147348, Note_on_c,5,57,80
7,147631, Note_on_c,5,57,0
7,147631, Note_on_c,5,54,80
7,147912, Note_on_c,5,54,0
7,147912, Note_on_c,5,51,80
7,148460, Note_on_c,5,51,0
7,148460, Note_on_c,5,57,80
7,149304, Note_on_c,5,57,0
7,149304, Note_on_c,5,56,80
7,149612, Note_on_c,5,56,0
7,149612, Note_on_c,5,49,80
7,150380, Note_on_c,5,49,0
7,152932, Program_c,5,45,
7,153016, Note_on_c,5,49,60
7,153066, Note_on_c,5,49,0
7,156444, Note_on_c,5,48,60
7,156494, Note_on_c,5,48,0
7,159900, Note_on_c,5,47,60
7,159950, Note_on_c,5,47,0
7,176772, Note_on_c,5,49,60
7,176822, Note_on_c,5,49,0
7,177052, Note_on_c,5,43,60
7,177102, Note_on_c,5,43,0
7,177324, Note_on_c,5,48,60
7,177374, Note_on_c,5,48,0
7,177696, Note_on_c,5,41,60
7,177746, Note_on_c,5,41,0
7,195457, Program_c,5,48,
7,195605, Note_on_c,5,46,60
7,196417, Note_on_c,5,46,0
7,196989, Note_on_c,5,46,60
7,197473, Note_on_c,5,46,0
7,197560, Note_on_c,5,46,60
7,198328, Note_on_c,5,46,0
7,199105, Note_on_c,5,42,60
7,199305, Note_on_c,5,42,0
7,199397, Note_on_c,5,42,60
7,199535, Note_on_c,5,42,0
7,199541, Note_on_c,5,41,60
7,199925, Note_on_c,5,41,0
7,200129, Note_on_c,5,46,60
7,200941, Note_on_c,5,46,0
7,201490, Note_on_c,5,46,60
7,201974, Note_on_c,5,46,0
7,202060, Note_on_c,5,46,60
7,202828, Note_on_c,5,46,0
7,203637, Note_on_c,5,46,60
7,203837, Note_on_c,5,46,0
7,203933, Note_on_c,5,46,60
7,204071, Note_on_c,5,46,0
7,204085, Note_on_c,5,44,60
7,204469, Note_on_c,5,44,0
7,204921, Note_on_c,5,53,60
7,205733, Note_on_c,5,53,0
7,205933, Note_on_c,5,47,60
7,206133, Note_on_c,5,47,0
7,206231, Note_on_c,5,47,60
7,206369, Note_on_c,5,47,0
7,206381, Note_on_c,5,48,60
7,206765, Note_on_c,5,48,0
7,207185, Note_on_c,5,45,60
7,207485, Note_on_c,5,45,0
7,207753, Note_on_c,5,46,60
7,208053, Note_on_c,5,46,0
7,208353, Note_on_c,5,52,60
7,208653, Note_on_c,5,52,0
7,208961, Note_on_c,5,53,60
7,209261, Note_on_c,5,53,0
7,209513, Note_on_c,5,45,60
7,209813, Note_on_c,5,45,0
7,210093, Note_on_c,5,46,60
7,210393, Note_on_c,5,46,0
7,210685, Note_on_c,5,52,60
7,210985, Note_on_c,5,52,0
7,211277, Note_on_c,5,53,60
7,211577, Note_on_c,5,53,0
7,211809, Note_on_c,5,45,60
7,212109, Note_on_c,5,45,0
7,212373, Note_on_c,5,46,60
7,212673, Note_on_c,5,46,0
7,212937, Note_on_c,5,47,60
7,213237, Note_on_c,5,47,0
7,213501, Note_on_c,5,48,60
7,213801, Note_on_c,5,48,0
7,215469, Program_c,5,45,
7,215745, Note_on_c,5,43,60
7,215745, Note_on_c,5,40,60
7,215795, Note_on_c,5,40,0
7,215795, Note_on_c,5,43,0
7,223149, Program_c,5,48,
7,223449, Note_on_c,5,48,80
7,223539, Note_on_c,5,48,0
7,223539, Note_on_c,5,50,80
7,223629, Note_on_c,5,50,0
7,223745, Note_on_c,5,52,80
7,223835, Note_on_c,5,52,0
7,223835, Note_on_c,5,50,80
7,223925, Note_on_c,5,50,0
7,224061, Note_on_c,5,53,80
7,224151, Note_on_c,5,53,0
7,224151, Note_on_c,5,52,80
7,224241, Note_on_c,5,52,0
7,224349, Note_on_c,5,50,80
7,224439, Note_on_c,5,50,0
7,224439, Note_on_c,5,48,80
7,224529, Note_on_c,5,48,0
7,224673, Note_on_c,5,48,80
7,225297, Note_on_c,5,48,0
7,225305, Note_on_c,5,47,80
7,225929, Note_on_c,5,47,0
7,225941, Note_on_c,5,48,80
7,226031, Note_on_c,5,48,0
7,226031, Note_on_c,5,50,80
7,226121, Note_on_c,5,50,0
7,226241, Note_on_c,5,52,80
7,226331, Note_on_c,5,52,0
7,226331, Note_on_c,5,50,80
7,226421, Note_on_c,5,50,0
7,226557, Note_on_c,5,53,80
7,226647, Note_on_c,5,53,0
7,226647, Note_on_c,5,52,80
7,226737, Note_on_c,5,52,0
7,226845, Note_on_c,5,50,80
7,226935, Note_on_c,5,50,0
7,226935, Note_on_c,5,48,80
7,227025, Note_on_c,5,48,0
7,227173, Note_on_c,5,48,80
7,227817, Note_on_c,5,48,0
7,227825, Note_on_c,5,47,80
7,228439, Note_on_c,5,47,0
7,228441, Note_on_c,5,48,80
7,228741, Note_on_c,5,48,0
7,246937, Note_on_c,5,57,80
7,246937, Note_on_c,5,53,80
7,247027, Note_on_c,5,53,0
7,247027, Note_on_c,5,57,0
7,247027, Note_on_c,5,57,80
7,247027, Note_on_c,5,53,80
7,247117, Note_on_c,5,53,0
7,247117, Note_on_c,5,57,0
7,247285, Note_on_c,5,57,80
7,247285, Note_on_c,5,53,80
7,247375, Note_on_c,5,53,0
7,247375, Note_on_c,5,57,0
7,247375, Note_on_c,5,57,80
7,247375, Note_on_c,5,53,80
7,247465, Note_on_c,5,53,0
7,247465, Note_on_c,5,57,0
7,262273, Program_c,5,45,
7,262389, Note_on_c,5,61,80
7,262389, Note_on_c,5,46,80
7,262389, Note_on_c,5,53,80
7,262439, Note_on_c,5,53,0
7,262439, Note_on_c,5,46,0
7,262439, Note_on_c,5,61,0
7,262985, Note_on_c,5,46,80
7,262985, Note_on_c,5,61,80
7,262985, Note_on_c,5,53,80
7,263035, Note_on_c,5,53,0
7,263035, Note_on_c,5,61,0
7,263035, Note_on_c,5,46,0
7,263585, Note_on_c,5,46,80
7,263585, Note_on_c,5,60,80
7,263585, Note_on_c,5,53,80
7,263635, Note_on_c,5,53,0
7,263635, Note_on_c,5,60,0
7,263635, Note_on_c,5,46,0
7,264201, Note_on_c,5,46,80
7,264201, Note_on_c,5,60,80
7,264201, Note_on_c,5,53,80
7,264251, Note_on_c,5,53,0
7,264251, Note_on_c,5,60,0
7,264251, Note_on_c,5,46,0
7,264813, Note_on_c,5,46,80
7,264813, Note_on_c,5,61,80
7,264813, Note_on_c,5,53,80
7,264863, Note_on_c,5,53,0
7,264863, Note_on_c,5,61,0
7,264863, Note_on_c,5,46,0
7,265393, Note_on_c,5,46,80
7,265393, Note_on_c,5,61,80
7,265393, Note_on_c,5,53,80
7,265443, Note_on_c,5,53,0
7,265443, Note_on_c,5,61,0
7,265443, Note_on_c,5,46,0
7,265985, Note_on_c,5,46,80
7,265985, Note_on_c,5,63,80
7,265985, Note_on_c,5,53,80
7,266035, Note_on_c,5,53,0
7,266035, Note_on_c,5,63,0
7,266035, Note_on_c,5,46,0
7,266601, Note_on_c,5,46,80
7,266601, Note_on_c,5,63,80
7,266601, Note_on_c,5,53,80
7,266651, Note_on_c,5,53,0
7,266651, Note_on_c,5,63,0
7,266651, Note_on_c,5,46,0
7,267225, Note_on_c,5,46,80
7,267225, Note_on_c,5,61,80
7,267225, Note_on_c,5,53,80
7,267275, Note_on_c,5,53,0
7,267275, Note_on_c,5,61,0
7,267275, Note_on_c,5,46,0
7,267829, Note_on_c,5,46,80
7,267829, Note_on_c,5,61,80
7,267829, Note_on_c,5,53,80
7,267879, Note_on_c,5,53,0
7,267879, Note_on_c,5,61,0
7,267879, Note_on_c,5,46,0
7,268433, Note_on_c,5,46,80
7,268433, Note_on_c,5,60,80
7,268433, Note_on_c,5,53,80
7,268483, Note_on_c,5,53,0
7,268483, Note_on_c,5,60,0
7,268483, Note_on_c,5,46,0
7,269045, Note_on_c,5,46,80
7,269045, Note_on_c,5,60,80
7,269045, Note_on_c,5,53,80
7,269095, Note_on_c,5,53,0
7,269095, Note_on_c,5,60,0
7,269095, Note_on_c,5,46,0
7,269649, Note_on_c,5,46,80
7,269649, Note_on_c,5,61,80
7,269649, Note_on_c,5,53,80
7,269699, Note_on_c,5,53,0
7,269699, Note_on_c,5,61,0
7,269699, Note_on_c,5,46,0
7,270837, Note_on_c,5,46,80
7,270887, Note_on_c,5,46,0
7,313729, Control_c,5,11,60
7,313958, Note_on_c,5,44,70
7,314008, Note_on_c,5,44,0
7,315362, Note_on_c,5,44,70
7,315412, Note_on_c,5,44,0
7,316754, Note_on_c,5,44,70
7,316804, Note_on_c,5,44,0
7,318178, Note_on_c,5,44,70
7,318228, Note_on_c,5,44,0
7,319602, Note_on_c,5,44,70
7,319652, Note_on_c,5,44,0
7,321014, Note_on_c,5,44,70
7,321064, Note_on_c,5,44,0
7,322430, Note_on_c,5,44,70
7,322480, Note_on_c,5,44,0
7,323894, Note_on_c,5,44,70
7,323944, Note_on_c,5,44,0
7,325426, Note_on_c,5,44,70
7,325476, Note_on_c,5,44,0
7,326906, Note_on_c,5,44,70
7,326956, Note_on_c,5,44,0
7,327937, Program_c,5,48,
7,328398, Note_on_c,5,48,70
7,328806, Note_on_c,5,48,0
7,328806, Note_on_c,5,48,70
7,329510, Note_on_c,5,48,0
7,331490, Note_on_c,5,45,70
7,331906, Note_on_c,5,45,0
7,331906, Note_on_c,5,45,70
7,332596, Note_on_c,5,45,0
7,333870, Note_on_c,5,56,60
7,335292, Note_on_c,5,56,0
7,335314, Note_on_c,5,55,60
7,336806, Note_on_c,5,55,0
7,336822, Note_on_c,5,53,60
7,337561, Note_on_c,5,53,0
7,337574, Note_on_c,5,52,60
7,338313, Note_on_c,5,52,0
7,338322, Note_on_c,5,51,60
7,338692, Note_on_c,5,51,0
7,338702, Note_on_c,5,53,60
7,339066, Note_on_c,5,54,60
7,339072, Note_on_c,5,53,0
7,339436, Note_on_c,5,54,0
7,339442, Note_on_c,5,55,60
7,339812, Note_on_c,5,55,0
7,339814, Note_on_c,5,56,60
7,340154, Note_on_c,5,56,0
7,340586, Note_on_c,5,49,60
7,341654, Note_on_c,5,49,0
7,341674, Note_on_c,5,53,60
7,342034, Note_on_c,5,53,0
7,342058, Note_on_c,5,49,60
7,342468, Note_on_c,5,49,0
7,344278, Note_on_c,5,51,60
7,345814, Note_on_c,5,51,0
7,345938, Note_on_c,5,56,60
7,347450, Note_on_c,5,56,0
7,347454, Note_on_c,5,55,60
7,348886, Note_on_c,5,55,0
7,348898, Note_on_c,5,53,60
7,349666, Note_on_c,5,53,0
7,349670, Note_on_c,5,52,60
7,350399, Note_on_c,5,52,0
7,350406, Note_on_c,5,51,60
7,350766, Note_on_c,5,51,0
7,350774, Note_on_c,5,53,60
7,351124, Note_on_c,5,53,0
7,351134, Note_on_c,5,54,60
7,351484, Note_on_c,5,54,0
7,351518, Note_on_c,5,55,60
7,351868, Note_on_c,5,55,0
7,352254, Note_on_c,5,56,60
7,352604, Note_on_c,5,56,0
7,352678, Note_on_c,5,43,60
7,354170, Note_on_c,5,43,0
7,354182, Note_on_c,5,55,60
7,355634, Note_on_c,5,55,0
7,355646, Note_on_c,5,43,60
7,357098, Note_on_c,5,43,0
7,357098, Note_on_c,5,55,60
7,358550, Note_on_c,5,55,0
7,380161, Control_c,5,11,110
7,380614, Note_on_c,5,53,120
7,380764, Note_on_c,5,53,0
7,383278, Note_on_c,5,57,120
7,383278, Note_on_c,5,51,120
7,383428, Note_on_c,5,51,0
7,383428, Note_on_c,5,57,0
7,385920, Note_on_c,5,50,120
7,386070, Note_on_c,5,50,0
7,386566, Note_on_c,5,49,120
7,386716, Note_on_c,5,49,0
7,387194, Note_on_c,5,48,120
7,387344, Note_on_c,5,48,0
7,387850, Note_on_c,5,59,120
7,387994, Note_on_c,5,58,120
7,388000, Note_on_c,5,59,0
7,388144, Note_on_c,5,58,0
7,388522, Note_on_c,5,57,120
7,388672, Note_on_c,5,57,0
7,388906, Note_on_c,5,56,120
7,389056, Note_on_c,5,56,0
7,389290, Note_on_c,5,55,120
7,389440, Note_on_c,5,55,0
7,407425, Control_c,5,11,70
7,408017, Note_on_c,5,58,70
7,408127, Note_on_c,5,58,0
7,408140, Note_on_c,5,56,70
7,408250, Note_on_c,5,56,0
7,408263, Note_on_c,5,55,70
7,408373, Note_on_c,5,55,0
7,408386, Note_on_c,5,53,70
7,408496, Note_on_c,5,53,0
7,408509, Note_on_c,5,51,70
7,408619, Note_on_c,5,51,0
7,409446, Note_on_c,5,60,70
7,409556, Note_on_c,5,60,0
7,409566, Note_on_c,5,58,70
7,409676, Note_on_c,5,58,0
7,409686, Note_on_c,5,56,70
7,409796, Note_on_c,5,56,0
7,409806, Note_on_c,5,53,70
7,409916, Note_on_c,5,53,0
7,409926, Note_on_c,5,51,70
7,410036, Note_on_c,5,51,0
7,410902, Note_on_c,5,58,70
7,411012, Note_on_c,5,58,0
7,411018, Note_on_c,5,55,70
7,411128, Note_on_c,5,55,0
7,411134, Note_on_c,5,51,70
7,411244, Note_on_c,5,51,0
7,411250, Note_on_c,5,50,70
7,411360, Note_on_c,5,50,0
7,411366, Note_on_c,5,49,70
7,411476, Note_on_c,5,49,0
7,412348, Note_on_c,5,48,70
7,412458, Note_on_c,5,48,0
7,412469, Note_on_c,5,51,70
7,412579, Note_on_c,5,51,0
7,412590, Note_on_c,5,56,70
7,412700, Note_on_c,5,56,0
7,412711, Note_on_c,5,53,70
7,412821, Note_on_c,5,53,0
7,412832, Note_on_c,5,51,70
7,412942, Note_on_c,5,51,0
7,413806, Note_on_c,5,58,70
7,413916, Note_on_c,5,58,0
7,413930, Note_on_c,5,56,70
7,414040, Note_on_c,5,56,0
7,414054, Note_on_c,5,55,70
7,414164, Note_on_c,5,55,0
7,414178, Note_on_c,5,53,70
7,414288, Note_on_c,5,53,0
7,414302, Note_on_c,5,51,70
7,414412, Note_on_c,5,51,0
7,415251, Note_on_c,5,60,70
7,415361, Note_on_c,5,60,0
7,415372, Note_on_c,5,58,70
7,415482, Note_on_c,5,58,0
7,415493, Note_on_c,5,56,70
7,415603, Note_on_c,5,56,0
7,415614, Note_on_c,5,53,70
7,415724, Note_on_c,5,53,0
7,415735, Note_on_c,5,51,70
7,415845, Note_on_c,5,51,0
7,416699, Note_on_c,5,58,70
7,416809, Note_on_c,5,58,0
7,416820, Note_on_c,5,55,70
7,416930, Note_on_c,5,55,0
7,416941, Note_on_c,5,51,70
7,417051, Note_on_c,5,51,0
7,417062, Note_on_c,5,50,70
7,417172, Note_on_c,5,50,0
7,417183, Note_on_c,5,49,70
7,417293, Note_on_c,5,49,0
7,418178, Note_on_c,5,53,70
7,418288, Note_on_c,5,53,0
7,418302, Note_on_c,5,55,70
7,418412, Note_on_c,5,55,0
7,418426, Note_on_c,5,56,70
7,418536, Note_on_c,5,56,0
7,418550, Note_on_c,5,58,70
7,418660, Note_on_c,5,58,0
7,418674, Note_on_c,5,60,70
7,418784, Note_on_c,5,60,0
7,428545, Control_c,5,11,60
7,428666, Note_on_c,5,44,60
7,429878, Note_on_c,5,44,0
7,431402, Note_on_c,5,44,60
7,432614, Note_on_c,5,44,0
7,433494, Note_on_c,5,44,60
7,433978, Note_on_c,5,44,0
7,434910, Note_on_c,5,44,60
7,435394, Note_on_c,5,44,0
7,442753, Control_c,5,11,80
7,443077, Note_on_c,5,44,60
7,444329, Note_on_c,5,44,0
7,444341, Note_on_c,5,45,60
7,444925, Note_on_c,5,45,0
7,445042, Control_c,5,11,81
7,447332, Control_c,5,11,82
7,448143, Note_on_c,5,46,60
7,449395, Note_on_c,5,46,0
7,449407, Note_on_c,5,47,60
7,449621, Control_c,5,11,83
7,449991, Note_on_c,5,47,0
7,451911, Control_c,5,11,84
7,453199, Note_on_c,5,54,60
7,453783, Note_on_c,5,54,0
7,453831, Note_on_c,5,55,60
7,454201, Control_c,5,11,85
7,454415, Note_on_c,5,55,0
7,455727, Note_on_c,5,68,60
7,456311, Note_on_c,5,68,0
7,456359, Note_on_c,5,69,60
7,456490, Control_c,5,11,86
7,456943, Note_on_c,5,69,0
7,458255, Note_on_c,5,60,60
7,458780, Control_c,5,11,87
7,458879, Note_on_c,5,60,0
7,458887, Note_on_c,5,59,60
7,459511, Note_on_c,5,59,0
7,459519, Note_on_c,5,62,60
7,460143, Note_on_c,5,62,0
7,460151, Note_on_c,5,60,60
7,460775, Note_on_c,5,60,0
7,461070, Control_c,5,11,88
7,463311, Note_on_c,5,62,70
7,463359, Control_c,5,11,89
7,463935, Note_on_c,5,62,0
7,463943, Note_on_c,5,60,70
7,464567, Note_on_c,5,60,0
7,464575, Note_on_c,5,64,70
7,465199, Note_on_c,5,64,0
7,465207, Note_on_c,5,62,70
7,465649, Control_c,5,11,90
7,465831, Note_on_c,5,62,0
7,467938, Control_c,5,11,91
7,468367, Note_on_c,5,57,70
7,469626, Note_on_c,5,57,0
7,469631, Note_on_c,5,55,70
7,470228, Control_c,5,11,92
7,470579, Note_on_c,5,52,70
7,470729, Note_on_c,5,52,0
7,470737, Note_on_c,5,50,70
7,470887, Note_on_c,5,50,0
7,470890, Note_on_c,5,55,0
7,470895, Note_on_c,5,49,70
7,471045, Note_on_c,5,49,0
7,471053, Note_on_c,5,48,70
7,471203, Note_on_c,5,48,0
7,471211, Note_on_c,5,47,70
7,471361, Note_on_c,5,47,0
7,471369, Note_on_c,5,48,70
7,471519, Note_on_c,5,48,0
7,471527, Note_on_c,5,49,70
7,471677, Note_on_c,5,49,0
7,471685, Note_on_c,5,50,70
7,471835, Note_on_c,5,50,0
7,471843, Note_on_c,5,45,70
7,471993, Note_on_c,5,45,0
7,472001, Note_on_c,5,46,70
7,472151, Note_on_c,5,46,0
7,472159, Note_on_c,5,47,70
7,472309, Note_on_c,5,47,0
7,472317, Note_on_c,5,48,70
7,472467, Note_on_c,5,48,0
7,472475, Note_on_c,5,49,70
7,472518, Control_c,5,11,93
7,472625, Note_on_c,5,49,0
7,472633, Note_on_c,5,50,70
7,472783, Note_on_c,5,50,0
7,472791, Note_on_c,5,47,70
7,472941, Note_on_c,5,47,0
7,472949, Note_on_c,5,48,70
7,473099, Note_on_c,5,48,0
7,473433, Note_on_c,5,55,70
7,474697, Note_on_c,5,55,0
7,474697, Note_on_c,5,53,70
7,474807, Control_c,5,11,94
7,475465, Note_on_c,5,53,0
7,475645, Note_on_c,5,50,70
7,475795, Note_on_c,5,50,0
7,475803, Note_on_c,5,48,70
7,475953, Note_on_c,5,48,0
7,475961, Note_on_c,5,47,70
7,476111, Note_on_c,5,47,0
7,476119, Note_on_c,5,46,70
7,476269, Note_on_c,5,46,0
7,476277, Note_on_c,5,45,70
7,476427, Note_on_c,5,45,0
7,476435, Note_on_c,5,46,70
7,476585, Note_on_c,5,46,0
7,476593, Note_on_c,5,47,70
7,476743, Note_on_c,5,47,0
7,476751, Note_on_c,5,48,70
7,476901, Note_on_c,5,48,0
7,476909, Note_on_c,5,43,70
7,477059, Note_on_c,5,43,0
7,477067, Note_on_c,5,44,70
7,477097, Control_c,5,11,95
7,477217, Note_on_c,5,44,0
7,477225, Note_on_c,5,45,70
7,477375, Note_on_c,5,45,0
7,477383, Note_on_c,5,46,70
7,477533, Note_on_c,5,46,0
7,477541, Note_on_c,5,47,70
7,477691, Note_on_c,5,47,0
7,477699, Note_on_c,5,48,70
7,477849, Note_on_c,5,48,0
7,477857, Note_on_c,5,46,70
7,478007, Note_on_c,5,46,0
7,478015, Note_on_c,5,47,70
7,478165, Note_on_c,5,47,0
7,478499, Note_on_c,5,65,80
7,479131, Note_on_c,5,65,0
7,479131, Note_on_c,5,63,80
7,479387, Control_c,5,11,96
7,479763, Note_on_c,5,63,0
7,479763, Note_on_c,5,62,80
7,480079, Note_on_c,5,62,0
7,480089, Note_on_c,5,60,80
7,480405, Note_on_c,5,60,0
7,480405, Note_on_c,5,59,80
7,480721, Note_on_c,5,59,0
7,481039, Note_on_c,5,65,80
7,481671, Note_on_c,5,65,0
7,481671, Note_on_c,5,63,80
7,481676, Control_c,5,11,97
7,482303, Note_on_c,5,63,0
7,482303, Note_on_c,5,62,80
7,482619, Note_on_c,5,62,0
7,482629, Note_on_c,5,60,80
7,482945, Note_on_c,5,60,0
7,482945, Note_on_c,5,59,80
7,483261, Note_on_c,5,59,0
7,483577, Note_on_c,5,58,80
7,483966, Control_c,5,11,98
7,484209, Note_on_c,5,58,0
7,484209, Note_on_c,5,56,80
7,484841, Note_on_c,5,56,0
7,484841, Note_on_c,5,55,80
7,485157, Note_on_c,5,55,0
7,485167, Note_on_c,5,53,80
7,485483, Note_on_c,5,53,0
7,485483, Note_on_c,5,52,80
7,485799, Note_on_c,5,52,0
7,486115, Note_on_c,5,58,80
7,486256, Control_c,5,11,99
7,486747, Note_on_c,5,58,0
7,486747, Note_on_c,5,56,80
7,487379, Note_on_c,5,56,0
7,487379, Note_on_c,5,55,80
7,487695, Note_on_c,5,55,0
7,487705, Note_on_c,5,53,80
7,488021, Note_on_c,5,53,0
7,488021, Note_on_c,5,52,80
7,488337, Note_on_c,5,52,0
7,488545, Control_c,5,11,100
7,488653, Note_on_c,5,53,80
7,488969, Note_on_c,5,53,0
7,488969, Note_on_c,5,48,80
7,489285, Note_on_c,5,48,0
7,489285, Note_on_c,5,53,80
7,489601, Note_on_c,5,53,0
7,489601, Note_on_c,5,48,80
7,489917, Note_on_c,5,48,0
7,489917, Note_on_c,5,56,80
7,490233, Note_on_c,5,56,0
7,490243, Note_on_c,5,53,80
7,490559, Note_on_c,5,53,0
7,490559, Note_on_c,5,50,80
7,490835, Control_c,5,11,101
7,490875, Note_on_c,5,50,0
7,493124, Control_c,5,11,102
7,493723, Note_on_c,5,53,80
7,494033, Note_on_c,5,53,0
7,494039, Note_on_c,5,48,80
7,494349, Note_on_c,5,48,0
7,494355, Note_on_c,5,53,80
7,494665, Note_on_c,5,53,0
7,494671, Note_on_c,5,48,80
7,494981, Note_on_c,5,48,0
7,494987, Note_on_c,5,56,80
7,495297, Note_on_c,5,56,0
7,495313, Note_on_c,5,53,80
7,495414, Control_c,5,11,103
7,495623, Note_on_c,5,53,0
7,495629, Note_on_c,5,50,80
7,495939, Note_on_c,5,50,0
7,497704, Control_c,5,11,104
7,499993, Control_c,5,11,105
7,502283, Control_c,5,11,106
7,504573, Control_c,5,11,107
7,506862, Control_c,5,11,108
7,509152, Control_c,5,11,109
7,511442, Control_c,5,11,110
7,511442, Note_on_c,5,43,90
7,511642, Note_on_c,5,43,0
7,561025, Control_c,5,11,90
7,561252, Note_on_c,5,52,70
7,561686, Note_on_c,5,52,0
7,561692, Note_on_c,5,51,70
7,561902, Note_on_c,5,51,0
7,561916, Note_on_c,5,49,70
7,562416, Note_on_c,5,49,0
7,562416, Note_on_c,5,47,70
7,562800, Note_on_c,5,47,0
7,563148, Note_on_c,5,46,70
7,563338, Note_on_c,5,46,0
7,563340, Note_on_c,5,47,70
7,563530, Note_on_c,5,47,0
7,563532, Note_on_c,5,52,70
7,563966, Note_on_c,5,51,70
7,564066, Note_on_c,5,52,0
7,564154, Note_on_c,5,51,0
7,564190, Note_on_c,5,49,70
7,564630, Note_on_c,5,47,70
7,564714, Note_on_c,5,49,0
7,565164, Note_on_c,5,47,0
7,565680, Note_on_c,5,57,70
7,566231, Note_on_c,5,57,0
7,566234, Note_on_c,5,56,70
7,566444, Note_on_c,5,56,0
7,566450, Note_on_c,5,56,70
7,566834, Note_on_c,5,56,0
7,566834, Note_on_c,5,54,70
7,567218, Note_on_c,5,54,0
7,567822, Note_on_c,5,53,70
7,568000, Note_on_c,5,54,70
7,568002, Note_on_c,5,53,0
7,568216, Note_on_c,5,54,0
7,568216, Note_on_c,5,57,70
7,568600, Note_on_c,5,57,0
7,568648, Note_on_c,5,56,70
7,568848, Note_on_c,5,56,0
7,568864, Note_on_c,5,56,70
7,569198, Note_on_c,5,54,60
7,569296, Note_on_c,5,56,0
7,569630, Note_on_c,5,54,0
7,570268, Note_on_c,5,51,70
7,570784, Note_on_c,5,51,0
7,570788, Note_on_c,5,49,70
7,571000, Note_on_c,5,49,0
7,571000, Note_on_c,5,49,70
7,571368, Note_on_c,5,49,0
7,571368, Note_on_c,5,47,70
7,571800, Note_on_c,5,47,0
7,572164, Note_on_c,5,43,70
7,572352, Note_on_c,5,43,0
7,572352, Note_on_c,5,44,70
7,572532, Note_on_c,5,44,0
7,572540, Note_on_c,5,51,70
7,572910, Note_on_c,5,51,0
7,572916, Note_on_c,5,49,70
7,573096, Note_on_c,5,49,0
7,573104, Note_on_c,5,49,70
7,573284, Note_on_c,5,49,0
7,573292, Note_on_c,5,46,70
7,573472, Note_on_c,5,46,0
7,573480, Note_on_c,5,47,70
7,573780, Note_on_c,5,47,0
7,574432, Note_on_c,5,43,70
7,574612, Note_on_c,5,43,0
7,574620, Note_on_c,5,44,70
7,574800, Note_on_c,5,44,0
7,574808, Note_on_c,5,56,70
7,575160, Note_on_c,5,56,0
7,575160, Note_on_c,5,54,70
7,575340, Note_on_c,5,54,0
7,575340, Note_on_c,5,54,70
7,575692, Note_on_c,5,54,0
7,575692, Note_on_c,5,52,70
7,576044, Note_on_c,5,52,0
7,576648, Note_on_c,5,48,70
7,576828, Note_on_c,5,48,0
7,576836, Note_on_c,5,49,70
7,577016, Note_on_c,5,49,0
7,577024, Note_on_c,5,56,70
7,577376, Note_on_c,5,56,0
7,577376, Note_on_c,5,54,70
7,577556, Note_on_c,5,54,0
7,577556, Note_on_c,5,54,70
7,577736, Note_on_c,5,54,0
7,577736, Note_on_c,5,51,70
7,577916, Note_on_c,5,51,0
7,577918, Note_on_c,5,52,70
7,578218, Note_on_c,5,52,0
7,578864, Note_on_c,5,48,70
7,579044, Note_on_c,5,48,0
7,579052, Note_on_c,5,49,70
7,579232, Note_on_c,5,49,0
7,579240, Note_on_c,5,61,70
7,579592, Note_on_c,5,61,0
7,579592, Note_on_c,5,59,70
7,579772, Note_on_c,5,59,0
7,579772, Note_on_c,5,59,70
7,580132, Note_on_c,5,59,0
7,580134, Note_on_c,5,57,70
7,580434, Note_on_c,5,57,0
7,581096, Note_on_c,5,53,70
7,581276, Note_on_c,5,53,0
7,581284, Note_on_c,5,54,70
7,581464, Note_on_c,5,54,0
7,581472, Note_on_c,5,61,70
7,581824, Note_on_c,5,61,0
7,581824, Note_on_c,5,59,70
7,582004, Note_on_c,5,59,0
7,582004, Note_on_c,5,59,70
7,582184, Note_on_c,5,59,0
7,582184, Note_on_c,5,56,70
7,582364, Note_on_c,5,56,0
7,582366, Note_on_c,5,57,70
7,582666, Note_on_c,5,57,0
7,583312, Note_on_c,5,53,70
7,583502, Note_on_c,5,53,0
7,583508, Note_on_c,5,54,70
7,583693, Note_on_c,5,54,0
7,588772, Control_c,5,11,100
7,588828, Note_on_c,5,47,100
7,589028, Note_on_c,5,47,0
7,589968, Note_on_c,5,47,100
7,590168, Note_on_c,5,47,0
7,591108, Note_on_c,5,47,100
7,591308, Note_on_c,5,47,0
7,595585, Control_c,5,11,70
7,595847, Note_on_c,5,49,70
7,596765, Note_on_c,5,49,0
7,596775, Note_on_c,5,61,70
7,596975, Note_on_c,5,61,0
7,600659, Note_on_c,5,51,70
7,601577, Note_on_c,5,51,0
7,601587, Note_on_c,5,63,70
7,601787, Note_on_c,5,63,0
7,603649, Program_c,5,45,
7,603995, Note_on_c,5,53,70
7,604045, Note_on_c,5,53,0
7,606337, Program_c,5,48,
7,606403, Note_on_c,5,55,70
7,606453, Note_on_c,5,55,0
7,609608, Control_c,5,11,90
7,609708, Note_on_c,5,48,70
7,609808, Note_on_c,5,48,0
7,609808, Note_on_c,5,49,70
7,609908, Note_on_c,5,49,0
7,610048, Note_on_c,5,51,70
7,610148, Note_on_c,5,51,0
7,610148, Note_on_c,5,49,70
7,610248, Note_on_c,5,49,0
7,610372, Note_on_c,5,52,70
7,610472, Note_on_c,5,52,0
7,610472, Note_on_c,5,51,70
7,610572, Note_on_c,5,51,0
7,610700, Note_on_c,5,50,70
7,610800, Note_on_c,5,50,0
7,610800, Note_on_c,5,51,70
7,610900, Note_on_c,5,51,0
7,611032, Note_on_c,5,49,70
7,611132, Note_on_c,5,49,0
7,611132, Note_on_c,5,50,70
7,611232, Note_on_c,5,50,0
7,611364, Note_on_c,5,51,70
7,611464, Note_on_c,5,51,0
7,611464, Note_on_c,5,50,70
7,611564, Note_on_c,5,50,0
7,611692, Note_on_c,5,53,70
7,611792, Note_on_c,5,53,0
7,611792, Note_on_c,5,52,70
7,611892, Note_on_c,5,52,0
7,612028, Note_on_c,5,51,70
7,612128, Note_on_c,5,51,0
7,612128, Note_on_c,5,52,70
7,612228, Note_on_c,5,52,0
7,612400, Note_on_c,5,52,70
7,613160, Note_on_c,5,52,0
7,613160, Note_on_c,5,51,70
7,613889, Note_on_c,5,51,0
7,613892, Note_on_c,5,53,70
7,614616, Note_on_c,5,53,0
7,614636, Note_on_c,5,52,70
7,615360, Note_on_c,5,52,0
7,615380, Note_on_c,5,51,70
7,615480, Note_on_c,5,51,0
7,615480, Note_on_c,5,52,70
7,615580, Note_on_c,5,52,0
7,615720, Note_on_c,5,53,72
7,615820, Note_on_c,5,53,0
7,615820, Note_on_c,5,52,73
7,615920, Note_on_c,5,52,0
7,616044, Note_on_c,5,55,75
7,616144, Note_on_c,5,55,0
7,616144, Note_on_c,5,53,76
7,616244, Note_on_c,5,53,0
7,616372, Note_on_c,5,52,78
7,616472, Note_on_c,5,52,0
7,616472, Note_on_c,5,53,79
7,616572, Note_on_c,5,53,0
7,616704, Note_on_c,5,52,80
7,616804, Note_on_c,5,52,0
7,616804, Note_on_c,5,53,81
7,616904, Note_on_c,5,53,0
7,617036, Note_on_c,5,54,83
7,617136, Note_on_c,5,54,0
7,617136, Note_on_c,5,53,84
7,617236, Note_on_c,5,53,0
7,617364, Note_on_c,5,56,86
7,617464, Note_on_c,5,56,0
7,617464, Note_on_c,5,54,87
7,617564, Note_on_c,5,54,0
7,617700, Note_on_c,5,53,89
7,617800, Note_on_c,5,53,0
7,617800, Note_on_c,5,54,90
7,617900, Note_on_c,5,54,0
7,618036, Note_on_c,5,54,100
7,618216, Note_on_c,5,54,0
7,619688, Note_on_c,5,53,100
7,619868, Note_on_c,5,53,0
7,638458, Program_c,5,45,
7,638574, Note_on_c,5,61,80
7,638574, Note_on_c,5,46,80
7,638574, Note_on_c,5,53,80
7,638624, Note_on_c,5,53,0
7,638624, Note_on_c,5,46,0
7,638624, Note_on_c,5,61,0
7,639170, Note_on_c,5,46,80
7,639170, Note_on_c,5,61,80
7,639170, Note_on_c,5,53,80
7,639220, Note_on_c,5,53,0
7,639220, Note_on_c,5,61,0
7,639220, Note_on_c,5,46,0
7,639770, Note_on_c,5,46,80
7,639770, Note_on_c,5,60,80
7,639770, Note_on_c,5,53,80
7,639820, Note_on_c,5,53,0
7,639820, Note_on_c,5,60,0
7,639820, Note_on_c,5,46,0
7,640386, Note_on_c,5,46,80
7,640386, Note_on_c,5,60,80
7,640386, Note_on_c,5,53,80
7,640436, Note_on_c,5,53,0
7,640436, Note_on_c,5,60,0
7,640436, Note_on_c,5,46,0
7,640998, Note_on_c,5,46,80
7,640998, Note_on_c,5,61,80
7,640998, Note_on_c,5,53,80
7,641048, Note_on_c,5,53,0
7,641048, Note_on_c,5,61,0
7,641048, Note_on_c,5,46,0
7,641578, Note_on_c,5,46,80
7,641578, Note_on_c,5,61,80
7,641578, Note_on_c,5,53,80
7,641628, Note_on_c,5,53,0
7,641628, Note_on_c,5,61,0
7,641628, Note_on_c,5,46,0
7,642170, Note_on_c,5,46,80
7,642170, Note_on_c,5,63,80
7,642170, Note_on_c,5,53,80
7,642220, Note_on_c,5,53,0
7,642220, Note_on_c,5,63,0
7,642220, Note_on_c,5,46,0
7,642786, Note_on_c,5,46,80
7,642786, Note_on_c,5,63,80
7,642786, Note_on_c,5,53,80
7,642836, Note_on_c,5,53,0
7,642836, Note_on_c,5,63,0
7,642836, Note_on_c,5,46,0
7,643410, Note_on_c,5,46,80
7,643410, Note_on_c,5,61,80
7,643410, Note_on_c,5,53,80
7,643460, Note_on_c,5,53,0
7,643460, Note_on_c,5,61,0
7,643460, Note_on_c,5,46,0
7,644014, Note_on_c,5,46,80
7,644014, Note_on_c,5,61,80
7,644014, Note_on_c,5,53,80
7,644064, Note_on_c,5,53,0
7,644064, Note_on_c,5,61,0
7,644064, Note_on_c,5,46,0
7,644618, Note_on_c,5,46,80
7,644618, Note_on_c,5,60,80
7,644618, Note_on_c,5,53,80
7,644668, Note_on_c,5,53,0
7,644668, Note_on_c,5,60,0
7,644668, Note_on_c,5,46,0
7,645230, Note_on_c,5,46,80
7,645230, Note_on_c,5,60,80
7,645230, Note_on_c,5,53,80
7,645280, Note_on_c,5,53,0
7,645280, Note_on_c,5,60,0
7,645280, Note_on_c,5,46,0
7,645804, Note_on_c,5,46,80
7,645804, Note_on_c,5,61,80
7,645804, Note_on_c,5,53,80
7,645854, Note_on_c,5,53,0
7,645854, Note_on_c,5,61,0
7,645854, Note_on_c,5,46,0
7,646408, Note_on_c,5,46,80
7,646408, Note_on_c,5,61,80
7,646408, Note_on_c,5,53,80
7,646458, Note_on_c,5,53,0
7,646458, Note_on_c,5,61,0
7,646458, Note_on_c,5,46,0
7,647001, Note_on_c,5,46,80
7,647001, Note_on_c,5,62,80
7,647001, Note_on_c,5,53,80
7,647051, Note_on_c,5,53,0
7,647051, Note_on_c,5,62,0
7,647051, Note_on_c,5,46,0
7,647605, Note_on_c,5,47,80
7,647605, Note_on_c,5,62,80
7,647605, Note_on_c,5,55,80
7,647655, Note_on_c,5,55,0
7,647655, Note_on_c,5,62,0
7,647655, Note_on_c,5,47,0
7,648208, Note_on_c,5,51,80
7,648208, Note_on_c,5,60,80
7,648208, Note_on_c,5,36,80
7,648208, Note_on_c,5,43,80
7,648258, Note_on_c,5,43,0
7,648258, Note_on_c,5,51,0
7,648258, Note_on_c,5,60,0
7,648258, Note_on_c,5,36,0
7,648812, Note_on_c,5,36,80
7,648812, Note_on_c,5,43,80
7,648812, Note_on_c,5,60,80
7,648812, Note_on_c,5,51,80
7,648862, Note_on_c,5,51,0
7,648862, Note_on_c,5,36,0
7,648862, Note_on_c,5,43,0
7,648862, Note_on_c,5,60,0
7,649416, Note_on_c,5,36,80
7,649416, Note_on_c,5,43,80
7,649416, Note_on_c,5,62,80
7,649416, Note_on_c,5,53,80
7,649466, Note_on_c,5,53,0
7,649466, Note_on_c,5,36,0
7,649466, Note_on_c,5,43,0
7,649466, Note_on_c,5,62,0
7,650028, Note_on_c,5,36,80
7,650028, Note_on_c,5,43,80
7,650028, Note_on_c,5,62,80
7,650028, Note_on_c,5,53,80
7,650078, Note_on_c,5,53,0
7,650078, Note_on_c,5,36,0
7,650078, Note_on_c,5,43,0
7,650078, Note_on_c,5,62,0
7,650632, Note_on_c,5,36,80
7,650632, Note_on_c,5,43,80
7,650632, Note_on_c,5,60,80
7,650632, Note_on_c,5,51,80
7,650682, Note_on_c,5,51,0
7,650682, Note_on_c,5,36,0
7,650682, Note_on_c,5,43,0
7,650682, Note_on_c,5,60,0
7,651820, Note_on_c,5,36,80
7,651820, Note_on_c,5,43,80
7,651870, Note_on_c,5,43,0
7,651870, Note_on_c,5,36,0
7,663169, Program_c,5,48,
7,663268, Control_c,5,11,70
7,663378, Note_on_c,5,58,70
7,664780, Note_on_c,5,58,0
7,664790, Note_on_c,5,57,70
7,666192, Note_on_c,5,57,0
7,666194, Note_on_c,5,55,70
7,667578, Note_on_c,5,53,70
7,667596, Note_on_c,5,55,0
7,667938, Note_on_c,5,53,0
7,667938, Note_on_c,5,55,70
7,668298, Note_on_c,5,55,0
7,668306, Note_on_c,5,56,70
7,668656, Note_on_c,5,56,0
7,668662, Note_on_c,5,57,70
7,669012, Note_on_c,5,57,0
7,669034, Note_on_c,5,58,70
7,669768, Note_on_c,5,58,0
7,669774, Note_on_c,5,51,70
7,670866, Note_on_c,5,55,70
7,670872, Note_on_c,5,51,0
7,671225, Note_on_c,5,51,70
7,671226, Note_on_c,5,55,0
7,671581, Note_on_c,5,51,0
7,671934, Note_on_c,5,50,70
7,672254, Note_on_c,5,50,0
7,672278, Note_on_c,5,50,70
7,673386, Note_on_c,5,50,0
7,673390, Note_on_c,5,53,70
7,674542, Note_on_c,5,53,0
7,674954, Note_on_c,5,58,70
7,676422, Note_on_c,5,57,70
7,676426, Note_on_c,5,58,0
7,677924, Note_on_c,5,57,0
7,677942, Note_on_c,5,55,70
7,678660, Note_on_c,5,55,0
7,678662, Note_on_c,5,53,70
7,679760, Note_on_c,5,53,0
7,679762, Note_on_c,5,55,70
7,680126, Note_on_c,5,56,70
7,680134, Note_on_c,5,55,0
7,680466, Note_on_c,5,56,0
7,680498, Note_on_c,5,57,70
7,680850, Note_on_c,5,58,70
7,680868, Note_on_c,5,57,0
7,681450, Note_on_c,5,58,0
7,682722, Control_c,5,11,70
7,682722, Note_on_c,5,62,85
7,682739, Control_c,5,11,71
7,682757, Control_c,5,11,72
7,682774, Control_c,5,11,73
7,682792, Control_c,5,11,74
7,682809, Control_c,5,11,75
7,682827, Control_c,5,11,76
7,682844, Control_c,5,11,77
7,682862, Control_c,5,11,78
7,682879, Control_c,5,11,79
7,682897, Control_c,5,11,80
7,682914, Control_c,5,11,81
7,682932, Control_c,5,11,82
7,682949, Control_c,5,11,83
7,682967, Control_c,5,11,84
7,682984, Control_c,5,11,85
7,683002, Control_c,5,11,86
7,683019, Control_c,5,11,87
7,683037, Control_c,5,11,88
7,683054, Control_c,5,11,89
7,683072, Control_c,5,11,90
7,683122, Note_on_c,5,62,0
7,683122, Note_on_c,5,70,90
7,683127, Control_c,5,11,89
7,683182, Control_c,5,11,88
7,683237, Control_c,5,11,87
7,683292, Control_c,5,11,86
7,683347, Control_c,5,11,85
7,683402, Control_c,5,11,84
7,683422, Note_on_c,5,69,90
7,683457, Control_c,5,11,83
7,683472, Note_on_c,5,70,0
7,683512, Control_c,5,11,82
7,683567, Control_c,5,11,81
7,683623, Control_c,5,11,80
7,683678, Control_c,5,11,79
7,683733, Control_c,5,11,78
7,683772, Note_on_c,5,69,0
7,683772, Note_on_c,5,68,90
7,683788, Control_c,5,11,77
7,683843, Control_c,5,11,76
7,683898, Control_c,5,11,75
7,683953, Control_c,5,11,74
7,684008, Control_c,5,11,73
7,684063, Control_c,5,11,72
7,684118, Control_c,5,11,71
7,684172, Note_on_c,5,68,0
7,684174, Control_c,5,11,70
7,684174, Note_on_c,5,69,80
7,684524, Note_on_c,5,69,0
7,685642, Control_c,5,11,70
7,685642, Note_on_c,5,62,85
7,685660, Control_c,5,11,71
7,685678, Control_c,5,11,72
7,685697, Control_c,5,11,73
7,685715, Control_c,5,11,74
7,685734, Control_c,5,11,75
7,685752, Control_c,5,11,76
7,685770, Control_c,5,11,77
7,685789, Control_c,5,11,78
7,685807, Control_c,5,11,79
7,685826, Control_c,5,11,80
7,685844, Control_c,5,11,81
7,685862, Control_c,5,11,82
7,685881, Control_c,5,11,83
7,685899, Control_c,5,11,84
7,685918, Control_c,5,11,85
7,685936, Control_c,5,11,86
7,685954, Control_c,5,11,87
7,685973, Control_c,5,11,88
7,685991, Control_c,5,11,89
7,686002, Note_on_c,5,62,0
7,686010, Control_c,5,11,90
7,686010, Note_on_c,5,70,90
7,686067, Control_c,5,11,89
7,686124, Control_c,5,11,88
7,686182, Control_c,5,11,87
7,686239, Control_c,5,11,86
7,686297, Control_c,5,11,85
7,686354, Control_c,5,11,84
7,686392, Note_on_c,5,70,0
7,686392, Note_on_c,5,69,90
7,686411, Control_c,5,11,83
7,686469, Control_c,5,11,82
7,686526, Control_c,5,11,81
7,686584, Control_c,5,11,80
7,686641, Control_c,5,11,79
7,686698, Control_c,5,11,78
7,686756, Control_c,5,11,77
7,686774, Note_on_c,5,69,0
7,686774, Note_on_c,5,68,80
7,686813, Control_c,5,11,76
7,686871, Control_c,5,11,75
7,686928, Control_c,5,11,74
7,686985, Control_c,5,11,73
7,687043, Control_c,5,11,72
7,687100, Control_c,5,11,71
7,687158, Control_c,5,11,70
7,687158, Note_on_c,5,69,70
7,687164, Note_on_c,5,68,0
7,687508, Note_on_c,5,69,0
7,688654, Note_on_c,5,50,70
7,689038, Note_on_c,5,50,0
7,689038, Note_on_c,5,52,70
7,689792, Note_on_c,5,52,0
7,689798, Note_on_c,5,53,70
7,690210, Note_on_c,5,57,80
7,690212, Note_on_c,5,53,0
7,690560, Note_on_c,5,57,0
7,690578, Note_on_c,5,59,90
7,691860, Note_on_c,5,59,0
7,691862, Note_on_c,5,62,90
7,692326, Note_on_c,5,62,0
7,692326, Note_on_c,5,59,80
7,692790, Note_on_c,5,59,0
7,692790, Note_on_c,5,61,70
7,693254, Note_on_c,5,61,0
7,693290, Note_on_c,5,62,60
7,693754, Note_on_c,5,62,0
7,694708, Note_on_c,5,58,60
7,696140, Note_on_c,5,58,0
7,696144, Note_on_c,5,57,60
7,697576, Note_on_c,5,57,0
7,697580, Note_on_c,5,55,60
7,699012, Note_on_c,5,55,0
7,699036, Note_on_c,5,53,60
7,699420, Note_on_c,5,53,0
7,699420, Note_on_c,5,55,60
7,699780, Note_on_c,5,55,0
7,699780, Note_on_c,5,56,70
7,700148, Note_on_c,5,56,0
7,700148, Note_on_c,5,57,70
7,700536, Note_on_c,5,57,0
7,700536, Note_on_c,5,58,60
7,700836, Note_on_c,5,58,0
7,701276, Note_on_c,5,51,60
7,702294, Note_on_c,5,51,0
7,702312, Note_on_c,5,55,60
7,702682, Note_on_c,5,55,0
7,702684, Note_on_c,5,51,60
7,703054, Note_on_c,5,51,0
7,704888, Note_on_c,5,53,60
7,706032, Note_on_c,5,53,0
7,706516, Note_on_c,5,58,60
7,707968, Note_on_c,5,58,0
7,707968, Note_on_c,5,57,60
7,709320, Note_on_c,5,57,0
7,709384, Note_on_c,5,55,65
7,710138, Note_on_c,5,55,0
7,710144, Note_on_c,5,54,65
7,710878, Note_on_c,5,54,0
7,710880, Note_on_c,5,55,65
7,711236, Note_on_c,5,55,0
7,711236, Note_on_c,5,57,70
7,711600, Note_on_c,5,57,0
7,711600, Note_on_c,5,58,70
7,711960, Note_on_c,5,58,0
7,711960, Note_on_c,5,59,75
7,712320, Note_on_c,5,59,0
7,712348, Note_on_c,5,60,75
7,712708, Note_on_c,5,60,0
7,714224, Note_on_c,5,53,75
7,714580, Note_on_c,5,53,0
7,714580, Note_on_c,5,57,85
7,714940, Note_on_c,5,57,0
7,714940, Note_on_c,5,55,85
7,715300, Note_on_c,5,55,0
7,715304, Note_on_c,5,53,85
7,717180, Note_on_c,5,53,0
7,717224, Note_on_c,5,53,85
7,717580, Note_on_c,5,57,90
7,717584, Note_on_c,5,53,0
7,717940, Note_on_c,5,57,0
7,717948, Note_on_c,5,55,85
7,718308, Note_on_c,5,55,0
7,718320, Note_on_c,5,53,80
7,718680, Note_on_c,5,53,0
7,719040, Note_on_c,5,47,70
7,719774, Note_on_c,5,47,0
7,719776, Note_on_c,5,48,70
7,720476, Note_on_c,5,48,0
7,720480, Note_on_c,5,49,75
7,721194, Note_on_c,5,49,0
7,721200, Note_on_c,5,50,75
7,721874, Note_on_c,5,50,0
7,721900, Note_on_c,5,50,75
7,722594, Note_on_c,5,50,0
7,722600, Note_on_c,5,51,80
7,723264, Note_on_c,5,51,0
7,723272, Note_on_c,5,52,80
7,723926, Note_on_c,5,52,0
7,723932, Note_on_c,5,53,80
7,724606, Note_on_c,5,53,0
7,724612, Note_on_c,5,55,80
7,724960, Note_on_c,5,55,0
7,724960, Note_on_c,5,54,80
7,725340, Note_on_c,5,54,0
7,725340, Note_on_c,5,53,80
7,725984, Note_on_c,5,53,0
7,726020, Note_on_c,5,53,80
7,728644, Note_on_c,5,53,80
7,728958, Note_on_c,5,53,0
7,731288, Note_on_c,5,53,80
7,731582, Note_on_c,5,53,0
7,731668, Note_on_c,5,53,0
7,733880, Note_on_c,5,53,80
7,734484, Note_on_c,5,53,0
7,734516, Note_on_c,5,53,80
7,735120, Note_on_c,5,53,0
7,735144, Note_on_c,5,53,80
7,735748, Note_on_c,5,53,0
7,735772, Note_on_c,5,53,80
7,736366, Note_on_c,5,53,0
7,736380, Note_on_c,5,53,80
7,736984, Note_on_c,5,53,0
7,737004, Note_on_c,5,53,80
7,737608, Note_on_c,5,53,0
7,737628, Note_on_c,5,53,80
7,738232, Note_on_c,5,53,0
7,738316, Note_on_c,5,53,80
7,738920, Note_on_c,5,53,0
7,747264, Control_c,5,11,90
7,747981, Note_on_c,5,54,90
7,748181, Note_on_c,5,54,0
7,748262, Note_on_c,5,54,90
7,748462, Note_on_c,5,54,0
7,748542, Note_on_c,5,54,90
7,748742, Note_on_c,5,54,0
7,748822, Note_on_c,5,54,90
7,749022, Note_on_c,5,54,0
7,749102, Note_on_c,5,54,90
7,749302, Note_on_c,5,54,0
7,749382, Note_on_c,5,54,90
7,749682, Note_on_c,5,54,0
7,750534, Note_on_c,5,54,90
7,750834, Note_on_c,5,54,0
7,751588, Note_on_c,5,54,90
7,751788, Note_on_c,5,54,0
7,752132, Note_on_c,5,54,90
7,752332, Note_on_c,5,54,0
7,752715, Note_on_c,5,54,90
7,752915, Note_on_c,5,54,0
7,753244, Note_on_c,5,54,90
7,753444, Note_on_c,5,54,0
7,753852, Note_on_c,5,54,90
7,754152, Note_on_c,5,54,0
7,887809, Control_c,5,11,70
7,887908, Program_c,5,45,
7,888161, Note_on_c,5,46,70
7,888201, Note_on_c,5,46,0
7,888845, Note_on_c,5,46,70
7,888885, Note_on_c,5,46,0
7,889537, Note_on_c,5,46,70
7,889577, Note_on_c,5,46,0
7,890217, Note_on_c,5,46,70
7,890257, Note_on_c,5,46,0
7,890909, Note_on_c,5,46,70
7,890949, Note_on_c,5,46,0
7,891605, Note_on_c,5,46,70
7,891645, Note_on_c,5,46,0
7,892417, Control_c,5,11,70
7,892625, Note_on_c,5,62,70
7,892961, Note_on_c,5,62,0
7,892961, Note_on_c,5,61,70
7,893289, Note_on_c,5,61,0
7,893289, Note_on_c,5,60,70
7,893589, Note_on_c,5,60,0
7,893625, Note_on_c,5,54,70
7,893977, Note_on_c,5,54,0
7,893977, Note_on_c,5,55,70
7,894277, Note_on_c,5,55,0
7,894317, Note_on_c,5,55,70
7,894643, Note_on_c,5,55,0
7,894645, Note_on_c,5,54,70
7,894971, Note_on_c,5,54,0
7,894985, Note_on_c,5,53,70
7,895325, Note_on_c,5,53,0
7,895325, Note_on_c,5,52,70
7,895989, Note_on_c,5,52,0
7,896001, Note_on_c,5,51,70
7,896665, Note_on_c,5,51,0
7,896677, Note_on_c,5,50,70
7,897371, Note_on_c,5,50,0
7,897387, Note_on_c,5,49,70
7,898016, Note_on_c,5,49,0
7,898029, Note_on_c,5,48,70
7,898357, Note_on_c,5,48,0
7,898357, Note_on_c,5,54,70
7,898697, Note_on_c,5,54,0
7,898697, Note_on_c,5,55,70
7,899037, Note_on_c,5,55,0
7,899037, Note_on_c,5,52,70
7,899731, Note_on_c,5,52,0
7,899733, Note_on_c,5,53,70
7,900387, Note_on_c,5,53,0
7,900393, Note_on_c,5,54,70
7,901067, Note_on_c,5,54,0
7,901073, Note_on_c,5,55,70
7,901717, Note_on_c,5,55,0
7,901717, Note_on_c,5,60,70
7,902041, Note_on_c,5,60,0
7,902041, Note_on_c,5,58,70
7,902381, Note_on_c,5,58,0
7,902381, Note_on_c,5,57,70
7,902701, Note_on_c,5,57,0
7,902713, Note_on_c,5,53,70
7,903048, Note_on_c,5,53,0
7,903437, Note_on_c,5,62,70
7,903777, Note_on_c,5,62,0
7,903777, Note_on_c,5,61,70
7,904117, Note_on_c,5,61,0
7,904117, Note_on_c,5,60,70
7,904457, Note_on_c,5,60,0
7,904463, Note_on_c,5,54,70
7,904823, Note_on_c,5,54,0
7,904829, Note_on_c,5,55,70
7,905159, Note_on_c,5,55,0
7,905177, Note_on_c,5,55,70
7,905517, Note_on_c,5,55,0
7,905517, Note_on_c,5,54,70
7,905857, Note_on_c,5,54,0
7,905869, Note_on_c,5,53,70
7,906209, Note_on_c,5,53,0
7,906221, Note_on_c,5,52,70
7,906910, Note_on_c,5,52,0
7,906925, Note_on_c,5,51,70
7,907614, Note_on_c,5,51,0
7,907625, Note_on_c,5,50,70
7,908314, Note_on_c,5,50,0
7,908325, Note_on_c,5,49,70
7,908984, Note_on_c,5,49,0
7,908993, Note_on_c,5,48,70
7,909333, Note_on_c,5,48,0
7,909333, Note_on_c,5,54,70
7,909661, Note_on_c,5,55,70
7,909663, Note_on_c,5,54,0
7,909991, Note_on_c,5,55,0
7,909993, Note_on_c,5,52,70
7,910677, Note_on_c,5,52,0
7,910681, Note_on_c,5,53,70
7,911355, Note_on_c,5,53,0
7,911357, Note_on_c,5,54,70
7,912021, Note_on_c,5,54,0
7,912029, Note_on_c,5,55,70
7,912693, Note_on_c,5,55,0
7,912717, Note_on_c,5,55,70
7,913376, Note_on_c,5,55,0
7,913377, Note_on_c,5,56,70
7,914036, Note_on_c,5,56,0
7,914037, Note_on_c,5,57,70
7,914701, Note_on_c,5,57,0
7,914705, Note_on_c,5,58,70
7,915369, Note_on_c,5,58,0
7,915377, Note_on_c,5,59,70
7,916016, Note_on_c,5,59,0
7,916021, Note_on_c,5,60,70
7,916665, Note_on_c,5,60,0
7,916673, Note_on_c,5,61,70
7,917327, Note_on_c,5,61,0
7,917341, Note_on_c,5,62,70
7,917980, Note_on_c,5,62,0
7,918001, Note_on_c,5,62,70
7,918685, Note_on_c,5,62,0
7,918689, Note_on_c,5,63,70
7,918989, Note_on_c,5,63,0
7,920717, Note_on_c,5,51,90
7,920987, Note_on_c,5,51,0
7,921137, Note_on_c,5,50,90
7,921407, Note_on_c,5,50,0
7,921557, Note_on_c,5,51,90
7,921827, Note_on_c,5,51,0
7,923541, Note_on_c,5,51,90
7,923811, Note_on_c,5,51,0
7,923907, Note_on_c,5,50,90
7,924177, Note_on_c,5,50,0
7,924273, Note_on_c,5,51,90
7,924543, Note_on_c,5,51,0
7,924969, Note_on_c,5,51,90
7,925239, Note_on_c,5,51,0
7,926349, Note_on_c,5,52,90
7,926619, Note_on_c,5,52,0
7,927725, Note_on_c,5,53,90
7,928045, Note_on_c,5,53,0
7,929837, Note_on_c,5,53,90
7,930531, Note_on_c,5,53,0
7,930533, Note_on_c,5,53,90
7,931925, Note_on_c,5,53,0
7,931925, Note_on_c,5,53,90
7,933307, Note_on_c,5,53,0
7,933309, Note_on_c,5,53,90
7,933579, Note_on_c,5,53,0
7,933697, Note_on_c,5,54,90
7,934331, Note_on_c,5,54,0
7,934373, Note_on_c,5,54,90
7,934643, Note_on_c,5,54,0
7,934741, Note_on_c,5,58,90
7,935011, Note_on_c,5,58,0
7,935417, Note_on_c,5,52,90
7,935687, Note_on_c,5,52,0
7,936141, Note_on_c,5,58,90
7,936411, Note_on_c,5,58,0
7,936513, Note_on_c,5,54,90
7,937147, Note_on_c,5,54,0
7,937213, Note_on_c,5,54,90
7,937483, Note_on_c,5,54,0
7,937577, Note_on_c,5,58,90
7,937847, Note_on_c,5,58,0
7,938277, Note_on_c,5,52,90
7,938547, Note_on_c,5,52,0
7,939009, Note_on_c,5,58,90
7,939279, Note_on_c,5,58,0
7,939728, Note_on_c,5,52,90
7,939998, Note_on_c,5,52,0
7,940457, Note_on_c,5,58,90
7,940727, Note_on_c,5,58,0
7,941164, Note_on_c,5,52,90
7,941434, Note_on_c,5,52,0
7,941901, Note_on_c,5,58,90
7,942171, Note_on_c,5,58,0
7,942269, Note_on_c,5,52,90
7,942469, Note_on_c,5,52,0
7,942637, Note_on_c,5,58,90
7,942837, Note_on_c,5,58,0
7,943005, Note_on_c,5,52,90
7,943205, Note_on_c,5,52,0
7,943373, Note_on_c,5,58,90
7,943573, Note_on_c,5,58,0
7,943741, Note_on_c,5,52,90
7,943941, Note_on_c,5,52,0
7,944109, Note_on_c,5,58,90
7,944309, Note_on_c,5,58,0
7,944477, Note_on_c,5,52,90
7,944677, Note_on_c,5,52,0
7,944845, Note_on_c,5,58,90
7,945045, Note_on_c,5,58,0
7,946209, Note_on_c,5,53,90
7,946209, Note_on_c,5,46,90
7,946459, Note_on_c,5,46,0
7,946459, Note_on_c,5,53,0
7,946873, Note_on_c,5,53,90
7,946873, Note_on_c,5,46,90
7,947123, Note_on_c,5,46,0
7,947123, Note_on_c,5,53,0
7,947529, Note_on_c,5,53,90
7,947529, Note_on_c,5,46,90
7,947779, Note_on_c,5,46,0
7,947779, Note_on_c,5,53,0
7,948825, Note_on_c,5,53,90
7,948825, Note_on_c,5,46,90
7,949075, Note_on_c,5,46,0
7,949075, Note_on_c,5,53,0
7,950161, Note_on_c,5,53,90
7,950161, Note_on_c,5,46,90
7,950411, Note_on_c,5,46,0
7,950411, Note_on_c,5,53,0
7,950809, Note_on_c,5,53,90
7,950809, Note_on_c,5,46,90
7,951059, Note_on_c,5,46,0
7,951059, Note_on_c,5,53,0
7,951501, Note_on_c,5,53,90
7,951501, Note_on_c,5,46,90
7,951751, Note_on_c,5,46,0
7,951751, Note_on_c,5,53,0
7,952177, Note_on_c,5,53,90
7,952177, Note_on_c,5,46,90
7,952427, Note_on_c,5,46,0
7,952427, Note_on_c,5,53,0
7,952877, Note_on_c,5,53,90
7,952877, Note_on_c,5,46,90
7,953127, Note_on_c,5,46,0
7,953127, Note_on_c,5,53,0
7,953249, Note_on_c,5,51,90
7,953599, Note_on_c,5,51,0
7,953673, Note_on_c,5,46,90
7,954023, Note_on_c,5,46,0
7,954549, Note_on_c,5,46,90
7,956085, Note_on_c,5,46,0
7,956460, Control_c,5,121,0
7,956460, End_track,,,
8,0, Start_track,,,
8,0, MIDI_port,0,,
8,0, Title_t," ""Contrabass""",,
8,0, Control_c,6,0,0
8,0, Control_c,6,32,0
8,0, Program_c,6,43,
8,0, Control_c,6,7,100
8,0, Control_c,6,10,120
8,3272, Control_c,6,11,80
8,3356, Control_c,6,91,127
8,3356, Note_on_c,6,56,80
8,3612, Note_on_c,6,56,0
8,4908, Note_on_c,6,55,80
8,5164, Note_on_c,6,55,0
8,6432, Note_on_c,6,54,80
8,6936, Note_on_c,6,54,0
8,6968, Note_on_c,6,53,80
8,7472, Note_on_c,6,53,0
8,7528, Note_on_c,6,52,80
8,8032, Note_on_c,6,52,0
8,8088, Note_on_c,6,51,80
8,8622, Note_on_c,6,51,0
8,8672, Note_on_c,6,56,80
8,9226, Note_on_c,6,56,0
8,9316, Note_on_c,6,49,80
8,9820, Note_on_c,6,49,0
8,40136, Program_c,6,45,
8,40166, Control_c,6,11,120
8,40196, Note_on_c,6,49,80
8,40236, Note_on_c,6,49,0
8,41836, Note_on_c,6,49,80
8,41876, Note_on_c,6,49,0
8,43396, Note_on_c,6,49,80
8,43436, Note_on_c,6,49,0
8,45164, Note_on_c,6,49,80
8,45204, Note_on_c,6,49,0
8,46860, Note_on_c,6,49,80
8,46900, Note_on_c,6,49,0
8,48648, Note_on_c,6,49,80
8,48688, Note_on_c,6,49,0
8,50240, Note_on_c,6,49,80
8,50280, Note_on_c,6,49,0
8,51948, Note_on_c,6,49,80
8,51988, Note_on_c,6,49,0
8,53568, Note_on_c,6,49,80
8,53608, Note_on_c,6,49,0
8,55116, Note_on_c,6,50,80
8,55156, Note_on_c,6,50,0
8,55614, Note_on_c,6,51,80
8,55654, Note_on_c,6,51,0
8,56576, Note_on_c,6,52,80
8,56616, Note_on_c,6,52,0
8,57006, Note_on_c,6,53,80
8,57046, Note_on_c,6,53,0
8,58016, Note_on_c,6,53,80
8,58056, Note_on_c,6,53,0
8,58498, Note_on_c,6,54,80
8,58538, Note_on_c,6,54,0
8,59432, Note_on_c,6,55,80
8,59472, Note_on_c,6,55,0
8,59916, Note_on_c,6,56,80
8,59956, Note_on_c,6,56,0
8,106753, Program_c,6,43,
8,107518, Note_on_c,6,49,80
8,108670, Note_on_c,6,49,0
8,109262, Note_on_c,6,49,80
8,110414, Note_on_c,6,49,0
8,111058, Note_on_c,6,49,80
8,112210, Note_on_c,6,49,0
8,112858, Note_on_c,6,49,80
8,114010, Note_on_c,6,49,0
8,114622, Note_on_c,6,49,80
8,115774, Note_on_c,6,49,0
8,116386, Note_on_c,6,49,80
8,117538, Note_on_c,6,49,0
8,118171, Note_on_c,6,49,80
8,119323, Note_on_c,6,49,0
8,119326, Note_on_c,6,53,80
8,119930, Note_on_c,6,53,0
8,119932, Note_on_c,6,56,80
8,120566, Note_on_c,6,56,0
8,120574, Note_on_c,6,44,80
8,121208, Note_on_c,6,44,0
8,121786, Note_on_c,6,49,80
8,122938, Note_on_c,6,49,0
8,123594, Note_on_c,6,53,80
8,124746, Note_on_c,6,53,0
8,125374, Note_on_c,6,54,80
8,126526, Note_on_c,6,54,0
8,127122, Note_on_c,6,51,80
8,128274, Note_on_c,6,51,0
8,128854, Note_on_c,6,53,80
8,129448, Note_on_c,6,53,0
8,129454, Note_on_c,6,46,80
8,130048, Note_on_c,6,46,0
8,130062, Note_on_c,6,51,80
8,130656, Note_on_c,6,51,0
8,130674, Note_on_c,6,44,80
8,131268, Note_on_c,6,44,0
8,131274, Note_on_c,6,49,80
8,131850, Note_on_c,6,43,80
8,131868, Note_on_c,6,49,0
8,132444, Note_on_c,6,43,0
8,132450, Note_on_c,6,44,80
8,133218, Note_on_c,6,44,0
8,134230, Note_on_c,6,51,80
8,134794, Note_on_c,6,44,80
8,134824, Note_on_c,6,51,0
8,135382, Note_on_c,6,56,80
8,135388, Note_on_c,6,44,0
8,135976, Note_on_c,6,56,0
8,136002, Note_on_c,6,49,80
8,137154, Note_on_c,6,49,0
8,137572, Control_c,6,11,70
8,137872, Note_on_c,6,49,60
8,139408, Note_on_c,6,49,0
8,139520, Note_on_c,6,49,60
8,141056, Note_on_c,6,49,0
8,141212, Note_on_c,6,49,60
8,142748, Note_on_c,6,49,0
8,142876, Note_on_c,6,49,60
8,144412, Note_on_c,6,49,0
8,144544, Note_on_c,6,49,60
8,146080, Note_on_c,6,49,0
8,146216, Note_on_c,6,49,60
8,147752, Note_on_c,6,49,0
8,147912, Note_on_c,6,49,60
8,149448, Note_on_c,6,49,0
8,149612, Note_on_c,6,49,60
8,150096, Note_on_c,6,49,0
8,195605, Note_on_c,6,46,60
8,196417, Note_on_c,6,46,0
8,196989, Note_on_c,6,46,60
8,197473, Note_on_c,6,46,0
8,197560, Note_on_c,6,46,60
8,198328, Note_on_c,6,46,0
8,199105, Note_on_c,6,42,60
8,199305, Note_on_c,6,42,0
8,199397, Note_on_c,6,42,60
8,199535, Note_on_c,6,42,0
8,199541, Note_on_c,6,41,60
8,199925, Note_on_c,6,41,0
8,200129, Note_on_c,6,46,60
8,200941, Note_on_c,6,46,0
8,201490, Note_on_c,6,46,60
8,201974, Note_on_c,6,46,0
8,202061, Note_on_c,6,46,60
8,202829, Note_on_c,6,46,0
8,203637, Note_on_c,6,46,60
8,203837, Note_on_c,6,46,0
8,203933, Note_on_c,6,46,60
8,204071, Note_on_c,6,46,0
8,204085, Note_on_c,6,44,60
8,204469, Note_on_c,6,44,0
8,204921, Note_on_c,6,53,60
8,205733, Note_on_c,6,53,0
8,205933, Note_on_c,6,47,60
8,206133, Note_on_c,6,47,0
8,206231, Note_on_c,6,47,60
8,206369, Note_on_c,6,47,0
8,206381, Note_on_c,6,48,60
8,206765, Note_on_c,6,48,0
8,207185, Note_on_c,6,45,60
8,207485, Note_on_c,6,45,0
8,207753, Note_on_c,6,46,60
8,208053, Note_on_c,6,46,0
8,208353, Note_on_c,6,52,60
8,208653, Note_on_c,6,52,0
8,208961, Note_on_c,6,53,60
8,209261, Note_on_c,6,53,0
8,209513, Note_on_c,6,45,60
8,209813, Note_on_c,6,45,0
8,210093, Note_on_c,6,46,60
8,210393, Note_on_c,6,46,0
8,210685, Note_on_c,6,52,60
8,210985, Note_on_c,6,52,0
8,211277, Note_on_c,6,53,60
8,211577, Note_on_c,6,53,0
8,211809, Note_on_c,6,45,60
8,212109, Note_on_c,6,45,0
8,212373, Note_on_c,6,46,60
8,212673, Note_on_c,6,46,0
8,212937, Note_on_c,6,47,60
8,213237, Note_on_c,6,47,0
8,213501, Note_on_c,6,48,60
8,213801, Note_on_c,6,48,0
8,215469, Program_c,6,45,
8,215745, Note_on_c,6,58,60
8,215795, Note_on_c,6,58,0
8,223149, Program_c,6,43,
8,223449, Note_on_c,6,48,60
8,223539, Note_on_c,6,48,0
8,223539, Note_on_c,6,50,60
8,223629, Note_on_c,6,50,0
8,223745, Note_on_c,6,52,60
8,223835, Note_on_c,6,52,0
8,223835, Note_on_c,6,50,60
8,223925, Note_on_c,6,50,0
8,224061, Note_on_c,6,53,60
8,224151, Note_on_c,6,53,0
8,224151, Note_on_c,6,52,60
8,224241, Note_on_c,6,52,0
8,224349, Note_on_c,6,50,60
8,224439, Note_on_c,6,50,0
8,224439, Note_on_c,6,48,60
8,224529, Note_on_c,6,48,0
8,224673, Note_on_c,6,48,60
8,225297, Note_on_c,6,48,0
8,225305, Note_on_c,6,47,60
8,225929, Note_on_c,6,47,0
8,225941, Note_on_c,6,48,60
8,226031, Note_on_c,6,48,0
8,226031, Note_on_c,6,50,60
8,226121, Note_on_c,6,50,0
8,226241, Note_on_c,6,52,60
8,226331, Note_on_c,6,52,0
8,226331, Note_on_c,6,50,60
8,226421, Note_on_c,6,50,0
8,226557, Note_on_c,6,53,60
8,226647, Note_on_c,6,53,0
8,226647, Note_on_c,6,52,60
8,226737, Note_on_c,6,52,0
8,226845, Note_on_c,6,50,60
8,226935, Note_on_c,6,50,0
8,226935, Note_on_c,6,48,60
8,227025, Note_on_c,6,48,0
8,227173, Note_on_c,6,48,60
8,227817, Note_on_c,6,48,0
8,227825, Note_on_c,6,47,60
8,228439, Note_on_c,6,47,0
8,228441, Note_on_c,6,48,60
8,228741, Note_on_c,6,48,0
8,246937, Note_on_c,6,60,60
8,247371, Note_on_c,6,60,0
8,380161, Control_c,6,11,110
8,380614, Note_on_c,6,53,120
8,380764, Note_on_c,6,53,0
8,383278, Note_on_c,6,51,120
8,383428, Note_on_c,6,51,0
8,407809, Program_c,6,45,
8,407818, Control_c,6,11,80
8,407894, Note_on_c,6,44,70
8,407944, Note_on_c,6,44,0
8,409326, Note_on_c,6,44,70
8,409376, Note_on_c,6,44,0
8,410786, Note_on_c,6,44,70
8,410836, Note_on_c,6,44,0
8,412227, Note_on_c,6,44,70
8,412227, Note_on_c,6,44,70
8,412277, Note_on_c,6,44,0
8,412277, Note_on_c,6,44,0
8,413682, Note_on_c,6,44,70
8,413732, Note_on_c,6,44,0
8,415130, Note_on_c,6,44,70
8,415180, Note_on_c,6,44,0
8,416578, Note_on_c,6,44,70
8,416628, Note_on_c,6,44,0
8,418054, Note_on_c,6,44,70
8,418104, Note_on_c,6,44,0
8,418786, Note_on_c,6,56,70
8,418836, Note_on_c,6,56,0
8,428545, Program_c,6,43,
8,428554, Control_c,6,11,60
8,428666, Note_on_c,6,44,60
8,429878, Note_on_c,6,44,0
8,431402, Note_on_c,6,44,60
8,432614, Note_on_c,6,44,0
8,433494, Note_on_c,6,44,60
8,433978, Note_on_c,6,44,0
8,434910, Note_on_c,6,44,60
8,435394, Note_on_c,6,44,0
8,442753, Control_c,6,11,80
8,443077, Note_on_c,6,54,60
8,444329, Note_on_c,6,54,0
8,444341, Note_on_c,6,53,60
8,444925, Note_on_c,6,53,0
8,448143, Note_on_c,6,56,60
8,449395, Note_on_c,6,56,0
8,449407, Note_on_c,6,55,60
8,449991, Note_on_c,6,55,0
8,453199, Note_on_c,6,56,60
8,453783, Note_on_c,6,56,0
8,453831, Note_on_c,6,55,60
8,454415, Note_on_c,6,55,0
8,455727, Note_on_c,6,58,60
8,456311, Note_on_c,6,58,0
8,456359, Note_on_c,6,57,60
8,456943, Note_on_c,6,57,0
8,458355, Note_on_c,6,60,60
8,458887, Note_on_c,6,59,60
8,458979, Note_on_c,6,60,0
8,459511, Note_on_c,6,59,0
8,459519, Note_on_c,6,62,60
8,460143, Note_on_c,6,62,0
8,460151, Note_on_c,6,60,60
8,460775, Note_on_c,6,60,0
8,463311, Note_on_c,6,62,70
8,463935, Note_on_c,6,62,0
8,463943, Note_on_c,6,60,70
8,464567, Note_on_c,6,60,0
8,464575, Note_on_c,6,64,70
8,465199, Note_on_c,6,64,0
8,465207, Note_on_c,6,62,70
8,465831, Note_on_c,6,62,0
8,468367, Note_on_c,6,57,70
8,469626, Note_on_c,6,57,0
8,469631, Note_on_c,6,55,70
8,470579, Note_on_c,6,64,70
8,470729, Note_on_c,6,64,0
8,470737, Note_on_c,6,62,70
8,470887, Note_on_c,6,62,0
8,470890, Note_on_c,6,55,0
8,470895, Note_on_c,6,61,70
8,471045, Note_on_c,6,61,0
8,471053, Note_on_c,6,60,70
8,471203, Note_on_c,6,60,0
8,471211, Note_on_c,6,59,70
8,471361, Note_on_c,6,59,0
8,471369, Note_on_c,6,60,70
8,471519, Note_on_c,6,60,0
8,471527, Note_on_c,6,61,70
8,471677, Note_on_c,6,61,0
8,471685, Note_on_c,6,62,70
8,471835, Note_on_c,6,62,0
8,471843, Note_on_c,6,57,70
8,471993, Note_on_c,6,57,0
8,472001, Note_on_c,6,58,70
8,472151, Note_on_c,6,58,0
8,472159, Note_on_c,6,59,70
8,472309, Note_on_c,6,59,0
8,472317, Note_on_c,6,60,70
8,472467, Note_on_c,6,60,0
8,472475, Note_on_c,6,61,70
8,472625, Note_on_c,6,61,0
8,472633, Note_on_c,6,62,70
8,472783, Note_on_c,6,62,0
8,472791, Note_on_c,6,59,70
8,472941, Note_on_c,6,59,0
8,472949, Note_on_c,6,60,70
8,473099, Note_on_c,6,60,0
8,473433, Note_on_c,6,55,70
8,474697, Note_on_c,6,55,0
8,474697, Note_on_c,6,53,70
8,475465, Note_on_c,6,53,0
8,475645, Note_on_c,6,50,70
8,475795, Note_on_c,6,50,0
8,475803, Note_on_c,6,48,70
8,475953, Note_on_c,6,48,0
8,475961, Note_on_c,6,47,70
8,476111, Note_on_c,6,47,0
8,476119, Note_on_c,6,46,70
8,476269, Note_on_c,6,46,0
8,476277, Note_on_c,6,45,70
8,476427, Note_on_c,6,45,0
8,476435, Note_on_c,6,46,70
8,476585, Note_on_c,6,46,0
8,476593, Note_on_c,6,47,70
8,476743, Note_on_c,6,47,0
8,476751, Note_on_c,6,48,70
8,476901, Note_on_c,6,48,0
8,476909, Note_on_c,6,43,70
8,477059, Note_on_c,6,43,0
8,477067, Note_on_c,6,44,70
8,477217, Note_on_c,6,44,0
8,477225, Note_on_c,6,45,70
8,477375, Note_on_c,6,45,0
8,477383, Note_on_c,6,46,70
8,477533, Note_on_c,6,46,0
8,477541, Note_on_c,6,47,70
8,477691, Note_on_c,6,47,0
8,477699, Note_on_c,6,48,70
8,477849, Note_on_c,6,48,0
8,477857, Note_on_c,6,46,70
8,478007, Note_on_c,6,46,0
8,478015, Note_on_c,6,47,70
8,478165, Note_on_c,6,47,0
8,478499, Note_on_c,6,65,80
8,479131, Note_on_c,6,65,0
8,479131, Note_on_c,6,63,80
8,479763, Note_on_c,6,63,0
8,479763, Note_on_c,6,62,80
8,480079, Note_on_c,6,62,0
8,480089, Note_on_c,6,60,80
8,480405, Note_on_c,6,60,0
8,480405, Note_on_c,6,59,80
8,480721, Note_on_c,6,59,0
8,481039, Note_on_c,6,65,80
8,481643, Note_on_c,6,65,0
8,481671, Note_on_c,6,63,80
8,482303, Note_on_c,6,63,0
8,482303, Note_on_c,6,62,80
8,482619, Note_on_c,6,62,0
8,482629, Note_on_c,6,60,80
8,482945, Note_on_c,6,60,0
8,482945, Note_on_c,6,59,80
8,483261, Note_on_c,6,59,0
8,483577, Note_on_c,6,58,80
8,484181, Note_on_c,6,58,0
8,484209, Note_on_c,6,56,80
8,484841, Note_on_c,6,56,0
8,484841, Note_on_c,6,55,80
8,485157, Note_on_c,6,55,0
8,485167, Note_on_c,6,53,80
8,485483, Note_on_c,6,53,0
8,485483, Note_on_c,6,52,80
8,485799, Note_on_c,6,52,0
8,486115, Note_on_c,6,58,80
8,486719, Note_on_c,6,58,0
8,486747, Note_on_c,6,56,80
8,487379, Note_on_c,6,56,0
8,487379, Note_on_c,6,55,80
8,487695, Note_on_c,6,55,0
8,487705, Note_on_c,6,53,80
8,488021, Note_on_c,6,53,0
8,488021, Note_on_c,6,52,80
8,488337, Note_on_c,6,52,0
8,488653, Note_on_c,6,53,80
8,488969, Note_on_c,6,53,0
8,488969, Note_on_c,6,48,80
8,489285, Note_on_c,6,48,0
8,489285, Note_on_c,6,53,80
8,489601, Note_on_c,6,53,0
8,489601, Note_on_c,6,48,80
8,489917, Note_on_c,6,48,0
8,489917, Note_on_c,6,56,80
8,490233, Note_on_c,6,56,0
8,490243, Note_on_c,6,53,80
8,490559, Note_on_c,6,53,0
8,490559, Note_on_c,6,62,80
8,490875, Note_on_c,6,62,0
8,491192, Note_on_c,6,48,90
8,491992, Note_on_c,6,48,0
8,492458, Note_on_c,6,47,90
8,493258, Note_on_c,6,47,0
8,493723, Note_on_c,6,53,90
8,494033, Note_on_c,6,53,0
8,494039, Note_on_c,6,48,90
8,494349, Note_on_c,6,48,0
8,494355, Note_on_c,6,53,90
8,494665, Note_on_c,6,53,0
8,494671, Note_on_c,6,48,90
8,494981, Note_on_c,6,48,0
8,494987, Note_on_c,6,56,90
8,495297, Note_on_c,6,56,0
8,495313, Note_on_c,6,53,90
8,495623, Note_on_c,6,53,0
8,495629, Note_on_c,6,62,90
8,495939, Note_on_c,6,62,0
8,496262, Note_on_c,6,48,90
8,497192, Note_on_c,6,48,0
8,497528, Note_on_c,6,47,90
8,498458, Note_on_c,6,47,0
8,498794, Note_on_c,6,46,90
8,499724, Note_on_c,6,46,0
8,501326, Note_on_c,6,45,90
8,502256, Note_on_c,6,45,0
8,503858, Note_on_c,6,45,90
8,504788, Note_on_c,6,45,0
8,506386, Note_on_c,6,44,90
8,507316, Note_on_c,6,44,0
8,511442, Note_on_c,6,43,90
8,511642, Note_on_c,6,43,0
8,560641, Control_c,6,11,70
8,560884, Note_on_c,6,47,90
8,587680, Note_on_c,6,47,0
8,588772, Control_c,6,11,90
8,588828, Note_on_c,6,47,90
8,589028, Note_on_c,6,47,0
8,589968, Note_on_c,6,47,90
8,590168, Note_on_c,6,47,0
8,591108, Note_on_c,6,47,90
8,591308, Note_on_c,6,47,0
8,595585, Control_c,6,11,70
8,595847, Note_on_c,6,49,70
8,596765, Note_on_c,6,49,0
8,596775, Note_on_c,6,61,70
8,596975, Note_on_c,6,61,0
8,600659, Note_on_c,6,51,70
8,601577, Note_on_c,6,51,0
8,601587, Note_on_c,6,63,70
8,601787, Note_on_c,6,63,0
8,606721, Control_c,6,11,75
8,606728, Note_on_c,6,61,70
8,607482, Note_on_c,6,61,0
8,607488, Note_on_c,6,60,70
8,608242, Note_on_c,6,60,0
8,608320, Note_on_c,6,63,70
8,608964, Note_on_c,6,63,0
8,608964, Note_on_c,6,61,70
8,609608, Note_on_c,6,61,0
8,609608, Control_c,6,11,90
8,609708, Note_on_c,6,48,70
8,609808, Note_on_c,6,48,0
8,609808, Note_on_c,6,49,70
8,609908, Note_on_c,6,49,0
8,610048, Note_on_c,6,51,70
8,610148, Note_on_c,6,51,0
8,610148, Note_on_c,6,49,70
8,610248, Note_on_c,6,49,0
8,610372, Note_on_c,6,52,70
8,610472, Note_on_c,6,52,0
8,610472, Note_on_c,6,51,70
8,610572, Note_on_c,6,51,0
8,610700, Note_on_c,6,50,70
8,610800, Note_on_c,6,50,0
8,610800, Note_on_c,6,51,70
8,610900, Note_on_c,6,51,0
8,611032, Note_on_c,6,49,70
8,611132, Note_on_c,6,49,0
8,611132, Note_on_c,6,50,70
8,611232, Note_on_c,6,50,0
8,611364, Note_on_c,6,51,70
8,611464, Note_on_c,6,51,0
8,611464, Note_on_c,6,50,70
8,611564, Note_on_c,6,50,0
8,611692, Note_on_c,6,53,70
8,611792, Note_on_c,6,53,0
8,611792, Note_on_c,6,52,70
8,611892, Note_on_c,6,52,0
8,612028, Note_on_c,6,51,70
8,612128, Note_on_c,6,51,0
8,612128, Note_on_c,6,52,70
8,612228, Note_on_c,6,52,0
8,612400, Note_on_c,6,52,70
8,613160, Note_on_c,6,52,0
8,613160, Note_on_c,6,51,70
8,613889, Note_on_c,6,51,0
8,613892, Note_on_c,6,53,70
8,614616, Note_on_c,6,53,0
8,614636, Note_on_c,6,52,70
8,615360, Note_on_c,6,52,0
8,615380, Note_on_c,6,51,70
8,615480, Note_on_c,6,51,0
8,615480, Note_on_c,6,52,70
8,615580, Note_on_c,6,52,0
8,615720, Note_on_c,6,53,72
8,615820, Note_on_c,6,53,0
8,615820, Note_on_c,6,52,73
8,615920, Note_on_c,6,52,0
8,616044, Note_on_c,6,55,75
8,616144, Note_on_c,6,55,0
8,616144, Note_on_c,6,53,76
8,616244, Note_on_c,6,53,0
8,616372, Note_on_c,6,52,78
8,616472, Note_on_c,6,52,0
8,616472, Note_on_c,6,53,79
8,616572, Note_on_c,6,53,0
8,616704, Note_on_c,6,52,80
8,616804, Note_on_c,6,52,0
8,616804, Note_on_c,6,53,81
8,616904, Note_on_c,6,53,0
8,617036, Note_on_c,6,54,83
8,617136, Note_on_c,6,54,0
8,617136, Note_on_c,6,53,84
8,617236, Note_on_c,6,53,0
8,617364, Note_on_c,6,56,86
8,617464, Note_on_c,6,56,0
8,617464, Note_on_c,6,54,87
8,617564, Note_on_c,6,54,0
8,617700, Note_on_c,6,53,89
8,617800, Note_on_c,6,53,0
8,617800, Note_on_c,6,54,90
8,617900, Note_on_c,6,54,0
8,618036, Note_on_c,6,54,100
8,618216, Note_on_c,6,54,0
8,619688, Note_on_c,6,53,100
8,619868, Note_on_c,6,53,0
8,663268, Control_c,6,11,70
8,663378, Note_on_c,6,58,70
8,664780, Note_on_c,6,58,0
8,664790, Note_on_c,6,57,70
8,666192, Note_on_c,6,57,0
8,666194, Note_on_c,6,55,70
8,667578, Note_on_c,6,53,70
8,667596, Note_on_c,6,55,0
8,667938, Note_on_c,6,53,0
8,667938, Note_on_c,6,55,70
8,668298, Note_on_c,6,55,0
8,668306, Note_on_c,6,56,70
8,668656, Note_on_c,6,56,0
8,668662, Note_on_c,6,57,70
8,669012, Note_on_c,6,57,0
8,669034, Note_on_c,6,58,70
8,669768, Note_on_c,6,58,0
8,669774, Note_on_c,6,51,70
8,670866, Note_on_c,6,55,70
8,670872, Note_on_c,6,51,0
8,671225, Note_on_c,6,51,70
8,671226, Note_on_c,6,55,0
8,671581, Note_on_c,6,51,0
8,671934, Note_on_c,6,50,70
8,672254, Note_on_c,6,50,0
8,672278, Note_on_c,6,55,70
8,673386, Note_on_c,6,55,0
8,673390, Note_on_c,6,53,70
8,674542, Note_on_c,6,53,0
8,674954, Note_on_c,6,58,70
8,676422, Note_on_c,6,57,70
8,676426, Note_on_c,6,58,0
8,677924, Note_on_c,6,57,0
8,677942, Note_on_c,6,55,70
8,678660, Note_on_c,6,55,0
8,678662, Note_on_c,6,53,70
8,679760, Note_on_c,6,53,0
8,679762, Note_on_c,6,55,70
8,680126, Note_on_c,6,56,70
8,680134, Note_on_c,6,55,0
8,680466, Note_on_c,6,56,0
8,680498, Note_on_c,6,57,70
8,680850, Note_on_c,6,58,70
8,680868, Note_on_c,6,57,0
8,681450, Note_on_c,6,58,0
8,681618, Note_on_c,6,57,70
8,683100, Note_on_c,6,57,0
8,683122, Note_on_c,6,57,70
8,684574, Note_on_c,6,57,0
8,684586, Note_on_c,6,57,70
8,685988, Note_on_c,6,57,0
8,686010, Note_on_c,6,57,70
8,687442, Note_on_c,6,57,0
8,687562, Note_on_c,6,57,70
8,688276, Note_on_c,6,57,0
8,688286, Note_on_c,6,45,70
8,693278, Note_on_c,6,45,0
8,693290, Note_on_c,6,50,70
8,693674, Note_on_c,6,50,0
8,694708, Note_on_c,6,58,60
8,696140, Note_on_c,6,58,0
8,696144, Note_on_c,6,57,60
8,697576, Note_on_c,6,57,0
8,697580, Note_on_c,6,55,60
8,699012, Note_on_c,6,55,0
8,699036, Note_on_c,6,53,60
8,699420, Note_on_c,6,53,0
8,699420, Note_on_c,6,55,60
8,699780, Note_on_c,6,55,0
8,699780, Note_on_c,6,56,70
8,700148, Note_on_c,6,56,0
8,700148, Note_on_c,6,57,70
8,700536, Note_on_c,6,57,0
8,700536, Note_on_c,6,58,60
8,700836, Note_on_c,6,58,0
8,701276, Note_on_c,6,51,60
8,702294, Note_on_c,6,51,0
8,702312, Note_on_c,6,55,60
8,702682, Note_on_c,6,55,0
8,702684, Note_on_c,6,51,60
8,703054, Note_on_c,6,51,0
8,704888, Note_on_c,6,53,60
8,706032, Note_on_c,6,53,0
8,706516, Note_on_c,6,58,60
8,707968, Note_on_c,6,58,0
8,707968, Note_on_c,6,57,60
8,709320, Note_on_c,6,57,0
8,709384, Note_on_c,6,55,65
8,710138, Note_on_c,6,55,0
8,710144, Note_on_c,6,54,65
8,710878, Note_on_c,6,54,0
8,710880, Note_on_c,6,55,65
8,711236, Note_on_c,6,55,0
8,711236, Note_on_c,6,57,70
8,711600, Note_on_c,6,57,0
8,711600, Note_on_c,6,58,70
8,711960, Note_on_c,6,58,0
8,711960, Note_on_c,6,59,75
8,712320, Note_on_c,6,59,0
8,712348, Note_on_c,6,60,75
8,712708, Note_on_c,6,60,0
8,712712, Note_on_c,6,48,75
8,713068, Note_on_c,6,48,0
8,713068, Note_on_c,6,58,75
8,713802, Note_on_c,6,58,0
8,713812, Note_on_c,6,57,75
8,714580, Note_on_c,6,57,0
8,714580, Note_on_c,6,41,85
8,715300, Note_on_c,6,41,0
8,715304, Note_on_c,6,46,85
8,716038, Note_on_c,6,46,0
8,716052, Note_on_c,6,47,85
8,716786, Note_on_c,6,47,0
8,716804, Note_on_c,6,48,85
8,717538, Note_on_c,6,48,0
8,717580, Note_on_c,6,41,90
8,718314, Note_on_c,6,41,0
8,718320, Note_on_c,6,46,80
8,719024, Note_on_c,6,46,0
8,719040, Note_on_c,6,47,70
8,719774, Note_on_c,6,47,0
8,719776, Note_on_c,6,48,70
8,720476, Note_on_c,6,48,0
8,720480, Note_on_c,6,49,75
8,721194, Note_on_c,6,49,0
8,721200, Note_on_c,6,50,75
8,721874, Note_on_c,6,50,0
8,721900, Note_on_c,6,50,75
8,722594, Note_on_c,6,50,0
8,722600, Note_on_c,6,51,80
8,723264, Note_on_c,6,51,0
8,723272, Note_on_c,6,52,80
8,723926, Note_on_c,6,52,0
8,723932, Note_on_c,6,53,80
8,724606, Note_on_c,6,53,0
8,724612, Note_on_c,6,55,80
8,724960, Note_on_c,6,55,0
8,724960, Note_on_c,6,54,80
8,725340, Note_on_c,6,54,0
8,725340, Note_on_c,6,53,80
8,725984, Note_on_c,6,53,0
8,726020, Note_on_c,6,53,80
8,728644, Note_on_c,6,53,80
8,728958, Note_on_c,6,53,0
8,731288, Note_on_c,6,53,80
8,731582, Note_on_c,6,53,0
8,731668, Note_on_c,6,53,0
8,733880, Note_on_c,6,53,80
8,734484, Note_on_c,6,53,0
8,734516, Note_on_c,6,53,80
8,735120, Note_on_c,6,53,0
8,735144, Note_on_c,6,53,80
8,735748, Note_on_c,6,53,0
8,735772, Note_on_c,6,53,80
8,736366, Note_on_c,6,53,0
8,736380, Note_on_c,6,53,80
8,736984, Note_on_c,6,53,0
8,737004, Note_on_c,6,53,80
8,737608, Note_on_c,6,53,0
8,737628, Note_on_c,6,53,80
8,738232, Note_on_c,6,53,0
8,738316, Note_on_c,6,53,80
8,738920, Note_on_c,6,53,0
8,747265, Control_c,6,11,90
8,747432, Note_on_c,6,54,90
8,747632, Note_on_c,6,54,0
8,747712, Note_on_c,6,54,90
8,747912, Note_on_c,6,54,0
8,747982, Note_on_c,6,54,90
8,748182, Note_on_c,6,54,0
8,748262, Note_on_c,6,54,90
8,748462, Note_on_c,6,54,0
8,748542, Note_on_c,6,54,90
8,748742, Note_on_c,6,54,0
8,748822, Note_on_c,6,54,90
8,749022, Note_on_c,6,54,0
8,749102, Note_on_c,6,54,90
8,749302, Note_on_c,6,54,0
8,749382, Note_on_c,6,54,90
8,749682, Note_on_c,6,54,0
8,750534, Note_on_c,6,54,90
8,750834, Note_on_c,6,54,0
8,751588, Note_on_c,6,54,90
8,751788, Note_on_c,6,54,0
8,752132, Note_on_c,6,54,90
8,752332, Note_on_c,6,54,0
8,752715, Note_on_c,6,54,90
8,752915, Note_on_c,6,54,0
8,753244, Note_on_c,6,54,90
8,753444, Note_on_c,6,54,0
8,753852, Note_on_c,6,54,90
8,754152, Note_on_c,6,54,0
8,892417, Control_c,6,11,70
8,892625, Note_on_c,6,62,70
8,892961, Note_on_c,6,62,0
8,892961, Note_on_c,6,61,70
8,893289, Note_on_c,6,61,0
8,893289, Note_on_c,6,60,70
8,893589, Note_on_c,6,60,0
8,893625, Note_on_c,6,54,70
8,893977, Note_on_c,6,54,0
8,893977, Note_on_c,6,55,70
8,894277, Note_on_c,6,55,0
8,894317, Note_on_c,6,55,70
8,894643, Note_on_c,6,55,0
8,894645, Note_on_c,6,54,70
8,894971, Note_on_c,6,54,0
8,894985, Note_on_c,6,53,70
8,895325, Note_on_c,6,53,0
8,895325, Note_on_c,6,52,70
8,895989, Note_on_c,6,52,0
8,896001, Note_on_c,6,51,70
8,896665, Note_on_c,6,51,0
8,896677, Note_on_c,6,50,70
8,897371, Note_on_c,6,50,0
8,897387, Note_on_c,6,49,70
8,898016, Note_on_c,6,49,0
8,898029, Note_on_c,6,48,70
8,898357, Note_on_c,6,48,0
8,898357, Note_on_c,6,54,70
8,898697, Note_on_c,6,54,0
8,898697, Note_on_c,6,55,70
8,899037, Note_on_c,6,55,0
8,899037, Note_on_c,6,52,70
8,899731, Note_on_c,6,52,0
8,899733, Note_on_c,6,53,70
8,900387, Note_on_c,6,53,0
8,900393, Note_on_c,6,54,70
8,901067, Note_on_c,6,54,0
8,901073, Note_on_c,6,55,70
8,901717, Note_on_c,6,55,0
8,901717, Note_on_c,6,60,70
8,902041, Note_on_c,6,60,0
8,902041, Note_on_c,6,58,70
8,902381, Note_on_c,6,58,0
8,902381, Note_on_c,6,57,70
8,902701, Note_on_c,6,57,0
8,902713, Note_on_c,6,53,70
8,903048, Note_on_c,6,53,0
8,903437, Note_on_c,6,62,70
8,903777, Note_on_c,6,62,0
8,903777, Note_on_c,6,61,70
8,904117, Note_on_c,6,61,0
8,904117, Note_on_c,6,60,70
8,904457, Note_on_c,6,60,0
8,904463, Note_on_c,6,54,70
8,904823, Note_on_c,6,54,0
8,904829, Note_on_c,6,55,70
8,905159, Note_on_c,6,55,0
8,905177, Note_on_c,6,55,70
8,905517, Note_on_c,6,55,0
8,905517, Note_on_c,6,54,70
8,905857, Note_on_c,6,54,0
8,905869, Note_on_c,6,53,70
8,906209, Note_on_c,6,53,0
8,906221, Note_on_c,6,52,70
8,906910, Note_on_c,6,52,0
8,906925, Note_on_c,6,51,70
8,907614, Note_on_c,6,51,0
8,907625, Note_on_c,6,50,70
8,908314, Note_on_c,6,50,0
8,908325, Note_on_c,6,49,70
8,908984, Note_on_c,6,49,0
8,908993, Note_on_c,6,48,70
8,909333, Note_on_c,6,48,0
8,909333, Note_on_c,6,54,70
8,909661, Note_on_c,6,55,70
8,909663, Note_on_c,6,54,0
8,909991, Note_on_c,6,55,0
8,909993, Note_on_c,6,52,70
8,910677, Note_on_c,6,52,0
8,910681, Note_on_c,6,53,70
8,911355, Note_on_c,6,53,0
8,911357, Note_on_c,6,54,70
8,912021, Note_on_c,6,54,0
8,912029, Note_on_c,6,55,70
8,912693, Note_on_c,6,55,0
8,912717, Note_on_c,6,55,70
8,913376, Note_on_c,6,55,0
8,913377, Note_on_c,6,56,70
8,914036, Note_on_c,6,56,0
8,914037, Note_on_c,6,57,70
8,914701, Note_on_c,6,57,0
8,914705, Note_on_c,6,58,70
8,915369, Note_on_c,6,58,0
8,915377, Note_on_c,6,59,70
8,916016, Note_on_c,6,59,0
8,916021, Note_on_c,6,60,70
8,916665, Note_on_c,6,60,0
8,916673, Note_on_c,6,61,70
8,917327, Note_on_c,6,61,0
8,917341, Note_on_c,6,62,70
8,917980, Note_on_c,6,62,0
8,918001, Note_on_c,6,62,70
8,918685, Note_on_c,6,62,0
8,918689, Note_on_c,6,63,70
8,918989, Note_on_c,6,63,0
8,920717, Note_on_c,6,51,90
8,920987, Note_on_c,6,51,0
8,921137, Note_on_c,6,50,90
8,921407, Note_on_c,6,50,0
8,921557, Note_on_c,6,51,90
8,921827, Note_on_c,6,51,0
8,923541, Note_on_c,6,51,90
8,923811, Note_on_c,6,51,0
8,923907, Note_on_c,6,50,90
8,924177, Note_on_c,6,50,0
8,924273, Note_on_c,6,51,90
8,924543, Note_on_c,6,51,0
8,924969, Note_on_c,6,51,90
8,925239, Note_on_c,6,51,0
8,926349, Note_on_c,6,52,90
8,926619, Note_on_c,6,52,0
8,927725, Note_on_c,6,53,90
8,928045, Note_on_c,6,53,0
8,929837, Note_on_c,6,53,90
8,930531, Note_on_c,6,53,0
8,930533, Note_on_c,6,53,90
8,931925, Note_on_c,6,53,0
8,931925, Note_on_c,6,53,90
8,933307, Note_on_c,6,53,0
8,933309, Note_on_c,6,53,90
8,933579, Note_on_c,6,53,0
8,933697, Note_on_c,6,54,90
8,934331, Note_on_c,6,54,0
8,934373, Note_on_c,6,54,90
8,934643, Note_on_c,6,54,0
8,934741, Note_on_c,6,58,90
8,935011, Note_on_c,6,58,0
8,935417, Note_on_c,6,52,90
8,935687, Note_on_c,6,52,0
8,936141, Note_on_c,6,58,90
8,936411, Note_on_c,6,58,0
8,936513, Note_on_c,6,54,90
8,937147, Note_on_c,6,54,0
8,937213, Note_on_c,6,54,90
8,937483, Note_on_c,6,54,0
8,937577, Note_on_c,6,58,90
8,937847, Note_on_c,6,58,0
8,938277, Note_on_c,6,52,90
8,938547, Note_on_c,6,52,0
8,939009, Note_on_c,6,58,90
8,939279, Note_on_c,6,58,0
8,939728, Note_on_c,6,52,90
8,939998, Note_on_c,6,52,0
8,940457, Note_on_c,6,58,90
8,940727, Note_on_c,6,58,0
8,941164, Note_on_c,6,52,90
8,941434, Note_on_c,6,52,0
8,941901, Note_on_c,6,58,90
8,942171, Note_on_c,6,58,0
8,942269, Note_on_c,6,52,90
8,942469, Note_on_c,6,52,0
8,942637, Note_on_c,6,58,90
8,942837, Note_on_c,6,58,0
8,943005, Note_on_c,6,52,90
8,943205, Note_on_c,6,52,0
8,943373, Note_on_c,6,58,90
8,943573, Note_on_c,6,58,0
8,943741, Note_on_c,6,52,90
8,943941, Note_on_c,6,52,0
8,944109, Note_on_c,6,58,90
8,944309, Note_on_c,6,58,0
8,944477, Note_on_c,6,52,90
8,944677, Note_on_c,6,52,0
8,944845, Note_on_c,6,58,90
8,945045, Note_on_c,6,58,0
8,946209, Note_on_c,6,46,90
8,946459, Note_on_c,6,46,0
8,946873, Note_on_c,6,46,90
8,947123, Note_on_c,6,46,0
8,947529, Note_on_c,6,46,90
8,947779, Note_on_c,6,46,0
8,948825, Note_on_c,6,46,90
8,949075, Note_on_c,6,46,0
8,950161, Note_on_c,6,46,90
8,950411, Note_on_c,6,46,0
8,950809, Note_on_c,6,46,90
8,951059, Note_on_c,6,46,0
8,951501, Note_on_c,6,46,90
8,951751, Note_on_c,6,46,0
8,952177, Note_on_c,6,46,90
8,952427, Note_on_c,6,46,0
8,952877, Note_on_c,6,46,90
8,953127, Note_on_c,6,46,0
8,953249, Note_on_c,6,51,90
8,953499, Note_on_c,6,51,0
8,953673, Note_on_c,6,46,90
8,954023, Note_on_c,6,46,0
8,954549, Note_on_c,6,46,90
8,956085, Note_on_c,6,46,0
8,956460, Control_c,6,121,0
8,956460, End_track,,,
9,0, Start_track,,,
9,0, MIDI_port,0,,
9,0, Title_t," ""Flutes""",,
9,0, Control_c,7,0,0
9,0, Control_c,7,32,0
9,0, Program_c,7,73,
9,0, Control_c,7,7,100
9,0, Control_c,7,10,80
9,3272, Control_c,7,11,80
9,3356, Control_c,7,91,127
9,3356, Note_on_c,7,94,80
9,3356, Note_on_c,7,89,80
9,3612, Note_on_c,7,89,0
9,3612, Note_on_c,7,94,0
9,4908, Note_on_c,7,89,80
9,4908, Note_on_c,7,94,80
9,5164, Note_on_c,7,94,0
9,5164, Note_on_c,7,89,0
9,6432, Note_on_c,7,82,80
9,6936, Note_on_c,7,82,0
9,6968, Note_on_c,7,80,80
9,7472, Note_on_c,7,80,0
9,7528, Note_on_c,7,82,80
9,8032, Note_on_c,7,82,0
9,8088, Note_on_c,7,82,80
9,8622, Note_on_c,7,82,0
9,8672, Note_on_c,7,84,80
9,9226, Note_on_c,7,84,0
9,9316, Note_on_c,7,85,80
9,9820, Note_on_c,7,85,0
9,11137, Control_c,7,11,75
9,11584, Note_on_c,7,80,70
9,11584, Note_on_c,7,77,70
9,16282, Note_on_c,7,77,0
9,16282, Note_on_c,7,80,0
9,16288, Note_on_c,7,82,70
9,16288, Note_on_c,7,78,70
9,19819, Note_on_c,7,78,0
9,19819, Note_on_c,7,82,0
9,19824, Note_on_c,7,84,70
9,19824, Note_on_c,7,80,70
9,23310, Note_on_c,7,80,0
9,23310, Note_on_c,7,84,0
9,23316, Note_on_c,7,85,70
9,23316, Note_on_c,7,80,70
9,24454, Note_on_c,7,80,0
9,24454, Note_on_c,7,85,0
9,24456, Note_on_c,7,80,70
9,24456, Note_on_c,7,85,70
9,25054, Note_on_c,7,85,0
9,25054, Note_on_c,7,80,0
9,25056, Note_on_c,7,84,70
9,25056, Note_on_c,7,80,70
9,26782, Note_on_c,7,80,0
9,26782, Note_on_c,7,84,0
9,26784, Note_on_c,7,85,70
9,26784, Note_on_c,7,80,70
9,28470, Note_on_c,7,80,0
9,28470, Note_on_c,7,85,0
9,28472, Note_on_c,7,80,70
9,28472, Note_on_c,7,85,70
9,30248, Note_on_c,7,85,0
9,30248, Note_on_c,7,80,0
9,30252, Note_on_c,7,87,70
9,30252, Note_on_c,7,85,70
9,32018, Note_on_c,7,85,0
9,32018, Note_on_c,7,87,0
9,32024, Note_on_c,7,90,70
9,32024, Note_on_c,7,84,70
9,33850, Note_on_c,7,84,0
9,33850, Note_on_c,7,90,0
9,33852, Note_on_c,7,84,70
9,33852, Note_on_c,7,89,70
9,34401, Note_on_c,7,89,0
9,34401, Note_on_c,7,84,0
9,34406, Note_on_c,7,86,70
9,34406, Note_on_c,7,82,70
9,34950, Note_on_c,7,82,0
9,34950, Note_on_c,7,86,0
9,34956, Note_on_c,7,87,70
9,34956, Note_on_c,7,82,70
9,35505, Note_on_c,7,82,0
9,35505, Note_on_c,7,87,0
9,35512, Note_on_c,7,84,70
9,35512, Note_on_c,7,80,70
9,36026, Note_on_c,7,80,0
9,36026, Note_on_c,7,84,0
9,36032, Note_on_c,7,85,70
9,36032, Note_on_c,7,80,70
9,36466, Note_on_c,7,80,0
9,36466, Note_on_c,7,85,0
9,36468, Note_on_c,7,82,70
9,37082, Note_on_c,7,82,0
9,37089, Note_on_c,7,80,70
9,38097, Note_on_c,7,80,0
9,38100, Note_on_c,7,85,70
9,38100, Note_on_c,7,80,70
9,38613, Note_on_c,7,80,0
9,38613, Note_on_c,7,85,0
9,38616, Note_on_c,7,87,70
9,38616, Note_on_c,7,82,70
9,39664, Note_on_c,7,82,0
9,39664, Note_on_c,7,87,0
9,39668, Note_on_c,7,87,70
9,39668, Note_on_c,7,84,70
9,40192, Note_on_c,7,84,0
9,40192, Note_on_c,7,87,0
9,40196, Note_on_c,7,85,70
9,40745, Note_on_c,7,85,0
9,93814, Note_on_c,7,87,70
9,93814, Note_on_c,7,81,70
9,93864, Note_on_c,7,81,0
9,93864, Note_on_c,7,87,0
9,93894, Note_on_c,7,87,70
9,93894, Note_on_c,7,81,70
9,94124, Note_on_c,7,81,0
9,94124, Note_on_c,7,87,0
9,95758, Note_on_c,7,84,70
9,95758, Note_on_c,7,90,70
9,95808, Note_on_c,7,90,0
9,95808, Note_on_c,7,84,0
9,95838, Note_on_c,7,90,70
9,95838, Note_on_c,7,84,70
9,96068, Note_on_c,7,84,0
9,96068, Note_on_c,7,90,0
9,97718, Note_on_c,7,87,70
9,97718, Note_on_c,7,93,70
9,97768, Note_on_c,7,93,0
9,97768, Note_on_c,7,87,0
9,97798, Note_on_c,7,93,70
9,97798, Note_on_c,7,87,70
9,98028, Note_on_c,7,87,0
9,98028, Note_on_c,7,93,0
9,107518, Note_on_c,7,85,70
9,107518, Note_on_c,7,80,70
9,111058, Note_on_c,7,80,0
9,111058, Note_on_c,7,85,0
9,111058, Note_on_c,7,87,70
9,111058, Note_on_c,7,82,70
9,114622, Note_on_c,7,82,0
9,114622, Note_on_c,7,87,0
9,114622, Note_on_c,7,87,70
9,114622, Note_on_c,7,84,70
9,118174, Note_on_c,7,84,0
9,118174, Note_on_c,7,87,0
9,118174, Note_on_c,7,89,70
9,118174, Note_on_c,7,85,70
9,119326, Note_on_c,7,85,0
9,119326, Note_on_c,7,89,0
9,119326, Note_on_c,7,89,70
9,119326, Note_on_c,7,85,70
9,119930, Note_on_c,7,85,0
9,119930, Note_on_c,7,89,0
9,119932, Note_on_c,7,84,70
9,119932, Note_on_c,7,87,70
9,121154, Note_on_c,7,87,0
9,121154, Note_on_c,7,84,0
9,121162, Note_on_c,7,84,70
9,121162, Note_on_c,7,80,70
9,121786, Note_on_c,7,80,0
9,121786, Note_on_c,7,84,0
9,121786, Note_on_c,7,85,70
9,121786, Note_on_c,7,80,70
9,123587, Note_on_c,7,80,0
9,123587, Note_on_c,7,85,0
9,123594, Note_on_c,7,85,70
9,125370, Note_on_c,7,85,0
9,125374, Note_on_c,7,87,70
9,125374, Note_on_c,7,85,70
9,127110, Note_on_c,7,85,0
9,127110, Note_on_c,7,87,0
9,127122, Note_on_c,7,84,70
9,127122, Note_on_c,7,87,70
9,128848, Note_on_c,7,87,0
9,128848, Note_on_c,7,84,0
9,128854, Note_on_c,7,87,70
9,128854, Note_on_c,7,84,70
9,129448, Note_on_c,7,84,0
9,129448, Note_on_c,7,87,0
9,129454, Note_on_c,7,86,70
9,129454, Note_on_c,7,82,70
9,130058, Note_on_c,7,82,0
9,130058, Note_on_c,7,86,0
9,130062, Note_on_c,7,85,70
9,130062, Note_on_c,7,82,70
9,130670, Note_on_c,7,82,0
9,130670, Note_on_c,7,85,0
9,130674, Note_on_c,7,80,70
9,130674, Note_on_c,7,84,70
9,131268, Note_on_c,7,84,0
9,131268, Note_on_c,7,80,0
9,131274, Note_on_c,7,80,70
9,131274, Note_on_c,7,85,70
9,131846, Note_on_c,7,85,0
9,131846, Note_on_c,7,80,0
9,131850, Note_on_c,7,85,70
9,131850, Note_on_c,7,82,70
9,132444, Note_on_c,7,82,0
9,132444, Note_on_c,7,85,0
9,132450, Note_on_c,7,85,70
9,132450, Note_on_c,7,80,70
9,134230, Note_on_c,7,80,0
9,134230, Note_on_c,7,85,0
9,134230, Note_on_c,7,82,70
9,134230, Note_on_c,7,87,70
9,134792, Note_on_c,7,87,0
9,134792, Note_on_c,7,82,0
9,134794, Note_on_c,7,79,70
9,135378, Note_on_c,7,79,0
9,135390, Note_on_c,7,80,70
9,135998, Note_on_c,7,80,0
9,136002, Note_on_c,7,80,70
9,136606, Note_on_c,7,80,0
9,139708, Note_on_c,7,69,70
9,139708, Note_on_c,7,73,70
9,139808, Note_on_c,7,73,0
9,139808, Note_on_c,7,69,0
9,139896, Note_on_c,7,78,70
9,139896, Note_on_c,7,73,70
9,139996, Note_on_c,7,73,0
9,139996, Note_on_c,7,78,0
9,140084, Note_on_c,7,78,70
9,140084, Note_on_c,7,81,70
9,140184, Note_on_c,7,81,0
9,140184, Note_on_c,7,78,0
9,140272, Note_on_c,7,85,70
9,140272, Note_on_c,7,81,70
9,140372, Note_on_c,7,81,0
9,140372, Note_on_c,7,85,0
9,140460, Note_on_c,7,90,70
9,140460, Note_on_c,7,85,70
9,140560, Note_on_c,7,85,0
9,140560, Note_on_c,7,90,0
9,140648, Note_on_c,7,90,70
9,140648, Note_on_c,7,93,70
9,140748, Note_on_c,7,93,0
9,140748, Note_on_c,7,90,0
9,143061, Note_on_c,7,68,70
9,143061, Note_on_c,7,73,70
9,143161, Note_on_c,7,73,0
9,143161, Note_on_c,7,68,0
9,143246, Note_on_c,7,77,70
9,143246, Note_on_c,7,73,70
9,143346, Note_on_c,7,73,0
9,143346, Note_on_c,7,77,0
9,143431, Note_on_c,7,77,70
9,143431, Note_on_c,7,80,70
9,143531, Note_on_c,7,80,0
9,143531, Note_on_c,7,77,0
9,143617, Note_on_c,7,80,70
9,143617, Note_on_c,7,85,70
9,143717, Note_on_c,7,85,0
9,143717, Note_on_c,7,80,0
9,143802, Note_on_c,7,89,70
9,143802, Note_on_c,7,85,70
9,143902, Note_on_c,7,85,0
9,143902, Note_on_c,7,89,0
9,143987, Note_on_c,7,89,70
9,143987, Note_on_c,7,92,70
9,144087, Note_on_c,7,92,0
9,144087, Note_on_c,7,89,0
9,146404, Note_on_c,7,61,70
9,146504, Note_on_c,7,61,0
9,146592, Note_on_c,7,66,70
9,146692, Note_on_c,7,66,0
9,146780, Note_on_c,7,69,70
9,146880, Note_on_c,7,69,0
9,146968, Note_on_c,7,73,70
9,147068, Note_on_c,7,73,0
9,147156, Note_on_c,7,78,70
9,147256, Note_on_c,7,78,0
9,147344, Note_on_c,7,81,70
9,147444, Note_on_c,7,81,0
9,199705, Control_c,7,11,100
9,199739, Note_on_c,7,84,80
9,199769, Note_on_c,7,84,0
9,199769, Note_on_c,7,86,80
9,199799, Note_on_c,7,86,0
9,199799, Note_on_c,7,88,80
9,199829, Note_on_c,7,88,0
9,199829, Note_on_c,7,89,80
9,199979, Note_on_c,7,89,0
9,204299, Note_on_c,7,87,80
9,204329, Note_on_c,7,87,0
9,204329, Note_on_c,7,89,85
9,204359, Note_on_c,7,89,0
9,204359, Note_on_c,7,91,90
9,204389, Note_on_c,7,91,0
9,204389, Note_on_c,7,92,80
9,204539, Note_on_c,7,92,0
9,206591, Note_on_c,7,79,80
9,206621, Note_on_c,7,79,0
9,206621, Note_on_c,7,81,85
9,206651, Note_on_c,7,81,0
9,206651, Note_on_c,7,83,90
9,206681, Note_on_c,7,83,0
9,206681, Note_on_c,7,84,100
9,206831, Note_on_c,7,84,0
9,208057, Note_on_c,7,78,80
9,208147, Note_on_c,7,78,0
9,208147, Note_on_c,7,79,80
9,208237, Note_on_c,7,79,0
9,208353, Note_on_c,7,84,80
9,208443, Note_on_c,7,84,0
9,208443, Note_on_c,7,79,80
9,208533, Note_on_c,7,79,0
9,208657, Note_on_c,7,82,80
9,208747, Note_on_c,7,82,0
9,208747, Note_on_c,7,80,80
9,208837, Note_on_c,7,80,0
9,208961, Note_on_c,7,79,80
9,209051, Note_on_c,7,79,0
9,209051, Note_on_c,7,77,80
9,209141, Note_on_c,7,77,0
9,210397, Note_on_c,7,78,80
9,210487, Note_on_c,7,78,0
9,210487, Note_on_c,7,79,80
9,210577, Note_on_c,7,79,0
9,210685, Note_on_c,7,84,80
9,210775, Note_on_c,7,84,0
9,210775, Note_on_c,7,79,80
9,210865, Note_on_c,7,79,0
9,210981, Note_on_c,7,82,80
9,211071, Note_on_c,7,82,0
9,211071, Note_on_c,7,80,80
9,211161, Note_on_c,7,80,0
9,211277, Note_on_c,7,79,80
9,211367, Note_on_c,7,79,0
9,211367, Note_on_c,7,77,80
9,211457, Note_on_c,7,77,0
9,218453, Note_on_c,7,77,80
9,218543, Note_on_c,7,77,0
9,218543, Note_on_c,7,79,80
9,218633, Note_on_c,7,79,0
9,218757, Note_on_c,7,80,80
9,218847, Note_on_c,7,80,0
9,218847, Note_on_c,7,79,80
9,218937, Note_on_c,7,79,0
9,219073, Note_on_c,7,82,80
9,219163, Note_on_c,7,82,0
9,219163, Note_on_c,7,80,80
9,219253, Note_on_c,7,80,0
9,219377, Note_on_c,7,79,80
9,219467, Note_on_c,7,79,0
9,219467, Note_on_c,7,77,80
9,219557, Note_on_c,7,77,0
9,219717, Note_on_c,7,75,80
9,219817, Note_on_c,7,75,0
9,220961, Note_on_c,7,80,80
9,221051, Note_on_c,7,80,0
9,221051, Note_on_c,7,82,80
9,221141, Note_on_c,7,82,0
9,221257, Note_on_c,7,84,80
9,221347, Note_on_c,7,84,0
9,221347, Note_on_c,7,82,80
9,221437, Note_on_c,7,82,0
9,221589, Note_on_c,7,85,80
9,221679, Note_on_c,7,85,0
9,221679, Note_on_c,7,84,80
9,221769, Note_on_c,7,84,0
9,221889, Note_on_c,7,82,80
9,221979, Note_on_c,7,82,0
9,221979, Note_on_c,7,80,80
9,222069, Note_on_c,7,80,0
9,222205, Note_on_c,7,79,80
9,222305, Note_on_c,7,79,0
9,224673, Note_on_c,7,86,80
9,224763, Note_on_c,7,86,0
9,224763, Note_on_c,7,88,80
9,224853, Note_on_c,7,88,0
9,224989, Note_on_c,7,89,80
9,225077, Note_on_c,7,88,80
9,225079, Note_on_c,7,89,0
9,225167, Note_on_c,7,88,0
9,225305, Note_on_c,7,91,80
9,225395, Note_on_c,7,91,0
9,225395, Note_on_c,7,89,80
9,225485, Note_on_c,7,89,0
9,225625, Note_on_c,7,88,80
9,225715, Note_on_c,7,88,0
9,225715, Note_on_c,7,86,80
9,225805, Note_on_c,7,86,0
9,225941, Note_on_c,7,84,80
9,226141, Note_on_c,7,84,0
9,227173, Note_on_c,7,86,80
9,227263, Note_on_c,7,86,0
9,227263, Note_on_c,7,88,80
9,227353, Note_on_c,7,88,0
9,227493, Note_on_c,7,89,80
9,227583, Note_on_c,7,89,0
9,227583, Note_on_c,7,88,80
9,227673, Note_on_c,7,88,0
9,227825, Note_on_c,7,91,80
9,227915, Note_on_c,7,91,0
9,227915, Note_on_c,7,89,80
9,228005, Note_on_c,7,89,0
9,228121, Note_on_c,7,88,80
9,228211, Note_on_c,7,88,0
9,228211, Note_on_c,7,86,80
9,228301, Note_on_c,7,86,0
9,228441, Note_on_c,7,84,80
9,228641, Note_on_c,7,84,0
9,235153, Note_on_c,7,84,80
9,235153, Note_on_c,7,82,80
9,235243, Note_on_c,7,82,0
9,235243, Note_on_c,7,84,0
9,235243, Note_on_c,7,82,80
9,235243, Note_on_c,7,86,80
9,235333, Note_on_c,7,86,0
9,235333, Note_on_c,7,82,0
9,235518, Note_on_c,7,88,80
9,235518, Note_on_c,7,82,80
9,235608, Note_on_c,7,82,0
9,235608, Note_on_c,7,88,0
9,235608, Note_on_c,7,86,80
9,235608, Note_on_c,7,82,80
9,235698, Note_on_c,7,82,0
9,235698, Note_on_c,7,86,0
9,235883, Note_on_c,7,82,80
9,235883, Note_on_c,7,89,80
9,235973, Note_on_c,7,89,0
9,235973, Note_on_c,7,82,0
9,235973, Note_on_c,7,88,80
9,235973, Note_on_c,7,82,80
9,236063, Note_on_c,7,82,0
9,236063, Note_on_c,7,88,0
9,236249, Note_on_c,7,86,80
9,236249, Note_on_c,7,82,80
9,236339, Note_on_c,7,82,0
9,236339, Note_on_c,7,86,0
9,236339, Note_on_c,7,84,80
9,236339, Note_on_c,7,82,80
9,236429, Note_on_c,7,82,0
9,236429, Note_on_c,7,84,0
9,237993, Note_on_c,7,86,80
9,237993, Note_on_c,7,84,80
9,238083, Note_on_c,7,84,0
9,238083, Note_on_c,7,86,0
9,238083, Note_on_c,7,88,80
9,238083, Note_on_c,7,84,80
9,238173, Note_on_c,7,84,0
9,238173, Note_on_c,7,88,0
9,238353, Note_on_c,7,89,80
9,238353, Note_on_c,7,84,80
9,238443, Note_on_c,7,84,0
9,238443, Note_on_c,7,89,0
9,238443, Note_on_c,7,88,80
9,238443, Note_on_c,7,84,80
9,238533, Note_on_c,7,84,0
9,238533, Note_on_c,7,88,0
9,238713, Note_on_c,7,91,80
9,238713, Note_on_c,7,84,80
9,238803, Note_on_c,7,84,0
9,238803, Note_on_c,7,91,0
9,238803, Note_on_c,7,89,80
9,238803, Note_on_c,7,84,80
9,238893, Note_on_c,7,84,0
9,238893, Note_on_c,7,89,0
9,239073, Note_on_c,7,88,80
9,239073, Note_on_c,7,84,80
9,239163, Note_on_c,7,84,0
9,239163, Note_on_c,7,88,0
9,239163, Note_on_c,7,89,80
9,239163, Note_on_c,7,84,80
9,239253, Note_on_c,7,84,0
9,239253, Note_on_c,7,89,0
9,240097, Note_on_c,7,87,80
9,240097, Note_on_c,7,89,80
9,240187, Note_on_c,7,89,0
9,240187, Note_on_c,7,87,0
9,240187, Note_on_c,7,87,80
9,240187, Note_on_c,7,90,80
9,240277, Note_on_c,7,90,0
9,240277, Note_on_c,7,87,0
9,240441, Note_on_c,7,90,80
9,240441, Note_on_c,7,87,80
9,240531, Note_on_c,7,87,0
9,240531, Note_on_c,7,90,0
9,240531, Note_on_c,7,89,80
9,240531, Note_on_c,7,87,80
9,240621, Note_on_c,7,87,0
9,240621, Note_on_c,7,89,0
9,241453, Note_on_c,7,85,80
9,241453, Note_on_c,7,89,80
9,241543, Note_on_c,7,89,0
9,241543, Note_on_c,7,85,0
9,241543, Note_on_c,7,85,80
9,241543, Note_on_c,7,91,80
9,241633, Note_on_c,7,91,0
9,241633, Note_on_c,7,85,0
9,241797, Note_on_c,7,91,80
9,241797, Note_on_c,7,85,80
9,241887, Note_on_c,7,85,0
9,241887, Note_on_c,7,91,0
9,241887, Note_on_c,7,89,80
9,241887, Note_on_c,7,85,80
9,241977, Note_on_c,7,85,0
9,241977, Note_on_c,7,89,0
9,242825, Note_on_c,7,86,80
9,242825, Note_on_c,7,91,80
9,242915, Note_on_c,7,91,0
9,242915, Note_on_c,7,86,0
9,242915, Note_on_c,7,86,80
9,242915, Note_on_c,7,92,80
9,243005, Note_on_c,7,92,0
9,243005, Note_on_c,7,86,0
9,243159, Note_on_c,7,92,80
9,243159, Note_on_c,7,86,80
9,243249, Note_on_c,7,86,0
9,243249, Note_on_c,7,92,0
9,243249, Note_on_c,7,86,80
9,243249, Note_on_c,7,91,80
9,243339, Note_on_c,7,91,0
9,243339, Note_on_c,7,86,0
9,244205, Note_on_c,7,83,80
9,244295, Note_on_c,7,83,0
9,244295, Note_on_c,7,84,80
9,244385, Note_on_c,7,84,0
9,244571, Note_on_c,7,85,80
9,244661, Note_on_c,7,85,0
9,244661, Note_on_c,7,84,80
9,244751, Note_on_c,7,84,0
9,245597, Note_on_c,7,89,80
9,245597, Note_on_c,7,84,80
9,245687, Note_on_c,7,84,0
9,245687, Note_on_c,7,89,0
9,245687, Note_on_c,7,84,80
9,245687, Note_on_c,7,90,80
9,245777, Note_on_c,7,90,0
9,245777, Note_on_c,7,84,0
9,245929, Note_on_c,7,84,80
9,245929, Note_on_c,7,90,80
9,246019, Note_on_c,7,90,0
9,246019, Note_on_c,7,84,0
9,246019, Note_on_c,7,84,80
9,246019, Note_on_c,7,89,80
9,246109, Note_on_c,7,89,0
9,246109, Note_on_c,7,84,0
9,333010, Note_on_c,7,88,60
9,333010, Note_on_c,7,87,60
9,333414, Note_on_c,7,87,0
9,333414, Note_on_c,7,88,0
9,333422, Note_on_c,7,89,60
9,333422, Note_on_c,7,87,60
9,333826, Note_on_c,7,87,0
9,333826, Note_on_c,7,89,0
9,333870, Note_on_c,7,73,70
9,334220, Note_on_c,7,73,0
9,334234, Note_on_c,7,69,90
9,334938, Note_on_c,7,69,0
9,334938, Note_on_c,7,70,60
9,335288, Note_on_c,7,70,0
9,335314, Note_on_c,7,77,70
9,335654, Note_on_c,7,77,0
9,335678, Note_on_c,7,72,90
9,336422, Note_on_c,7,72,0
9,336422, Note_on_c,7,73,60
9,336772, Note_on_c,7,73,0
9,336822, Note_on_c,7,80,80
9,337192, Note_on_c,7,80,0
9,337194, Note_on_c,7,79,85
9,337564, Note_on_c,7,79,0
9,337574, Note_on_c,7,82,90
9,337944, Note_on_c,7,82,0
9,337946, Note_on_c,7,80,90
9,338316, Note_on_c,7,80,0
9,338322, Note_on_c,7,79,85
9,338692, Note_on_c,7,79,0
9,338702, Note_on_c,7,77,80
9,339066, Note_on_c,7,75,75
9,339072, Note_on_c,7,77,0
9,339436, Note_on_c,7,75,0
9,339442, Note_on_c,7,70,75
9,339812, Note_on_c,7,70,0
9,339814, Note_on_c,7,72,70
9,340154, Note_on_c,7,72,0
9,340176, Note_on_c,7,72,70
9,340580, Note_on_c,7,72,0
9,340586, Note_on_c,7,77,80
9,341674, Note_on_c,7,77,0
9,341674, Note_on_c,7,72,70
9,342044, Note_on_c,7,72,0
9,342058, Note_on_c,7,77,80
9,342408, Note_on_c,7,77,0
9,342418, Note_on_c,7,67,70
9,342788, Note_on_c,7,67,0
9,342790, Note_on_c,7,72,80
9,343140, Note_on_c,7,72,0
9,343146, Note_on_c,7,68,75
9,343514, Note_on_c,7,64,70
9,343516, Note_on_c,7,68,0
9,343884, Note_on_c,7,64,0
9,343890, Note_on_c,7,65,70
9,344260, Note_on_c,7,65,0
9,344278, Note_on_c,7,72,75
9,344648, Note_on_c,7,72,0
9,344678, Note_on_c,7,69,85
9,345422, Note_on_c,7,69,0
9,345426, Note_on_c,7,70,60
9,345796, Note_on_c,7,70,0
9,372054, Note_on_c,7,79,80
9,373006, Note_on_c,7,75,80
9,373092, Note_on_c,7,79,0
9,373096, Note_on_c,7,75,0
9,373111, Note_on_c,7,77,80
9,373201, Note_on_c,7,77,0
9,373216, Note_on_c,7,79,80
9,373306, Note_on_c,7,79,0
9,373322, Note_on_c,7,80,85
9,374250, Note_on_c,7,80,0
9,374274, Note_on_c,7,80,85
9,374364, Note_on_c,7,80,0
9,374377, Note_on_c,7,79,85
9,374467, Note_on_c,7,79,0
9,374479, Note_on_c,7,80,85
9,374569, Note_on_c,7,80,0
9,374582, Note_on_c,7,81,90
9,375520, Note_on_c,7,81,0
9,375542, Note_on_c,7,81,90
9,375632, Note_on_c,7,81,0
9,375639, Note_on_c,7,80,90
9,375729, Note_on_c,7,80,0
9,375736, Note_on_c,7,81,90
9,375826, Note_on_c,7,81,0
9,375834, Note_on_c,7,82,95
9,376124, Note_on_c,7,82,0
9,376160, Note_on_c,7,82,95
9,376250, Note_on_c,7,82,0
9,376265, Note_on_c,7,77,95
9,376355, Note_on_c,7,77,0
9,376370, Note_on_c,7,82,95
9,376460, Note_on_c,7,82,0
9,376478, Note_on_c,7,83,100
9,376768, Note_on_c,7,83,0
9,376782, Note_on_c,7,83,100
9,376872, Note_on_c,7,83,0
9,376879, Note_on_c,7,77,100
9,376969, Note_on_c,7,77,0
9,376976, Note_on_c,7,83,100
9,377066, Note_on_c,7,83,0
9,377074, Note_on_c,7,84,105
9,377364, Note_on_c,7,84,0
9,377378, Note_on_c,7,84,105
9,377468, Note_on_c,7,84,0
9,377472, Note_on_c,7,78,105
9,377562, Note_on_c,7,78,0
9,377566, Note_on_c,7,84,105
9,377656, Note_on_c,7,84,0
9,377670, Note_on_c,7,85,110
9,377960, Note_on_c,7,85,0
9,377962, Note_on_c,7,85,110
9,378052, Note_on_c,7,85,0
9,378058, Note_on_c,7,79,110
9,378148, Note_on_c,7,79,0
9,378154, Note_on_c,7,85,110
9,378244, Note_on_c,7,85,0
9,378250, Note_on_c,7,86,100
9,378734, Note_on_c,7,86,0
9,378846, Note_on_c,7,87,100
9,379330, Note_on_c,7,87,0
9,379446, Note_on_c,7,88,100
9,379446, Note_on_c,7,82,100
9,379722, Note_on_c,7,83,100
9,379722, Note_on_c,7,89,100
9,379746, Note_on_c,7,82,0
9,379746, Note_on_c,7,88,0
9,379998, Note_on_c,7,84,120
9,379998, Note_on_c,7,90,120
9,380022, Note_on_c,7,83,0
9,380022, Note_on_c,7,89,0
9,380161, Control_c,7,11,100
9,380282, Note_on_c,7,91,120
9,380282, Note_on_c,7,86,120
9,380298, Note_on_c,7,84,0
9,380298, Note_on_c,7,90,0
9,380582, Note_on_c,7,91,0
9,380582, Note_on_c,7,86,0
9,380614, Note_on_c,7,92,120
9,380614, Note_on_c,7,86,120
9,380764, Note_on_c,7,86,0
9,380764, Note_on_c,7,92,0
9,383278, Note_on_c,7,90,120
9,383278, Note_on_c,7,93,120
9,383428, Note_on_c,7,93,0
9,383428, Note_on_c,7,90,0
9,385920, Note_on_c,7,83,120
9,386070, Note_on_c,7,83,0
9,386566, Note_on_c,7,83,120
9,386716, Note_on_c,7,83,0
9,387194, Note_on_c,7,84,120
9,387344, Note_on_c,7,84,0
9,387850, Note_on_c,7,86,120
9,388000, Note_on_c,7,86,0
9,388522, Note_on_c,7,86,120
9,388672, Note_on_c,7,86,0
9,389290, Note_on_c,7,87,120
9,389440, Note_on_c,7,87,0
9,407809, Control_c,7,11,80
9,407894, Note_on_c,7,70,70
9,407894, Note_on_c,7,73,70
9,409316, Note_on_c,7,73,0
9,409316, Note_on_c,7,70,0
9,409326, Note_on_c,7,72,70
9,409326, Note_on_c,7,75,70
9,410060, Note_on_c,7,75,0
9,410060, Note_on_c,7,72,0
9,410068, Note_on_c,7,72,70
9,410068, Note_on_c,7,68,70
9,410782, Note_on_c,7,68,0
9,410782, Note_on_c,7,72,0
9,410786, Note_on_c,7,70,70
9,410786, Note_on_c,7,67,70
9,412208, Note_on_c,7,67,0
9,412208, Note_on_c,7,70,0
9,412227, Note_on_c,7,68,70
9,412227, Note_on_c,7,72,70
9,413649, Note_on_c,7,72,0
9,413649, Note_on_c,7,68,0
9,413682, Note_on_c,7,70,70
9,413682, Note_on_c,7,73,70
9,415104, Note_on_c,7,73,0
9,415104, Note_on_c,7,70,0
9,415130, Note_on_c,7,72,70
9,415130, Note_on_c,7,75,70
9,415834, Note_on_c,7,75,0
9,415834, Note_on_c,7,72,0
9,415846, Note_on_c,7,68,70
9,415846, Note_on_c,7,72,70
9,416550, Note_on_c,7,72,0
9,416550, Note_on_c,7,68,0
9,416578, Note_on_c,7,67,70
9,416578, Note_on_c,7,70,70
9,418050, Note_on_c,7,70,0
9,418050, Note_on_c,7,67,0
9,418054, Note_on_c,7,68,70
9,418054, Note_on_c,7,72,70
9,418945, Control_c,7,11,90
9,419190, Note_on_c,7,87,70
9,419206, Note_on_c,7,72,0
9,419206, Note_on_c,7,68,0
9,419508, Note_on_c,7,87,0
9,419510, Note_on_c,7,89,70
9,419510, Note_on_c,7,75,70
9,419828, Note_on_c,7,89,0
9,419830, Note_on_c,7,91,70
9,420150, Note_on_c,7,91,0
9,420150, Note_on_c,7,87,70
9,420482, Note_on_c,7,87,0
9,420486, Note_on_c,7,89,70
9,420662, Note_on_c,7,75,0
9,420816, Note_on_c,7,89,0
9,420822, Note_on_c,7,91,70
9,421142, Note_on_c,7,91,0
9,421148, Note_on_c,7,92,70
9,421468, Note_on_c,7,92,0
9,421474, Note_on_c,7,87,70
9,421798, Note_on_c,7,89,70
9,421804, Note_on_c,7,87,0
9,422118, Note_on_c,7,89,0
9,422122, Note_on_c,7,82,70
9,422122, Note_on_c,7,75,70
9,422442, Note_on_c,7,82,0
9,422450, Note_on_c,7,89,70
9,422770, Note_on_c,7,89,0
9,422778, Note_on_c,7,82,70
9,423094, Note_on_c,7,89,70
9,423098, Note_on_c,7,82,0
9,423274, Note_on_c,7,75,0
9,423410, Note_on_c,7,87,70
9,423414, Note_on_c,7,89,0
9,423730, Note_on_c,7,87,0
9,423736, Note_on_c,7,89,70
9,424056, Note_on_c,7,89,0
9,424062, Note_on_c,7,84,70
9,424362, Note_on_c,7,84,0
9,424390, Note_on_c,7,87,70
9,424718, Note_on_c,7,75,70
9,424718, Note_on_c,7,89,70
9,424720, Note_on_c,7,87,0
9,425038, Note_on_c,7,89,0
9,425044, Note_on_c,7,91,70
9,425364, Note_on_c,7,91,0
9,425370, Note_on_c,7,87,70
9,425687, Note_on_c,7,89,70
9,425690, Note_on_c,7,87,0
9,425870, Note_on_c,7,75,0
9,426002, Note_on_c,7,75,70
9,426002, Note_on_c,7,91,70
9,426007, Note_on_c,7,89,0
9,426322, Note_on_c,7,91,0
9,426328, Note_on_c,7,92,70
9,426648, Note_on_c,7,92,0
9,426654, Note_on_c,7,87,70
9,426974, Note_on_c,7,87,0
9,426984, Note_on_c,7,92,70
9,427154, Note_on_c,7,75,0
9,427304, Note_on_c,7,92,0
9,427314, Note_on_c,7,74,70
9,427314, Note_on_c,7,88,70
9,427634, Note_on_c,7,88,0
9,427648, Note_on_c,7,92,70
9,427948, Note_on_c,7,74,0
9,427968, Note_on_c,7,92,0
9,427982, Note_on_c,7,88,70
9,428302, Note_on_c,7,88,0
9,429716, Note_on_c,7,92,70
9,430036, Note_on_c,7,92,0
9,430050, Note_on_c,7,88,70
9,430050, Note_on_c,7,74,70
9,430370, Note_on_c,7,88,0
9,430384, Note_on_c,7,92,70
9,430684, Note_on_c,7,74,0
9,430704, Note_on_c,7,92,0
9,430718, Note_on_c,7,88,70
9,431038, Note_on_c,7,88,0
9,432422, Note_on_c,7,92,70
9,432772, Note_on_c,7,92,0
9,432790, Note_on_c,7,87,70
9,432790, Note_on_c,7,80,70
9,433140, Note_on_c,7,80,0
9,433140, Note_on_c,7,87,0
9,433842, Note_on_c,7,92,70
9,434192, Note_on_c,7,92,0
9,434218, Note_on_c,7,87,70
9,434218, Note_on_c,7,80,70
9,434568, Note_on_c,7,80,0
9,434568, Note_on_c,7,87,0
9,435226, Note_on_c,7,92,70
9,435576, Note_on_c,7,92,0
9,435590, Note_on_c,7,84,70
9,435590, Note_on_c,7,87,70
9,438628, Note_on_c,7,87,0
9,438628, Note_on_c,7,84,0
9,445299, Note_on_c,7,84,70
9,445361, Note_on_c,7,85,70
9,445389, Note_on_c,7,84,0
9,445451, Note_on_c,7,85,0
9,445615, Note_on_c,7,89,70
9,445675, Note_on_c,7,87,70
9,445705, Note_on_c,7,89,0
9,445765, Note_on_c,7,87,0
9,445931, Note_on_c,7,78,70
9,445991, Note_on_c,7,77,70
9,446021, Note_on_c,7,78,0
9,446081, Note_on_c,7,77,0
9,446247, Note_on_c,7,87,70
9,446307, Note_on_c,7,85,70
9,446337, Note_on_c,7,87,0
9,446397, Note_on_c,7,85,0
9,446563, Note_on_c,7,81,70
9,446623, Note_on_c,7,82,70
9,446653, Note_on_c,7,81,0
9,446713, Note_on_c,7,82,0
9,446879, Note_on_c,7,85,70
9,446939, Note_on_c,7,84,70
9,446969, Note_on_c,7,85,0
9,447029, Note_on_c,7,84,0
9,447195, Note_on_c,7,80,70
9,447255, Note_on_c,7,81,70
9,447285, Note_on_c,7,80,0
9,447345, Note_on_c,7,81,0
9,447511, Note_on_c,7,84,70
9,447581, Note_on_c,7,82,70
9,447601, Note_on_c,7,84,0
9,447671, Note_on_c,7,82,0
9,450355, Note_on_c,7,86,70
9,450415, Note_on_c,7,87,70
9,450445, Note_on_c,7,86,0
9,450505, Note_on_c,7,87,0
9,450671, Note_on_c,7,91,70
9,450731, Note_on_c,7,89,70
9,450761, Note_on_c,7,91,0
9,450821, Note_on_c,7,89,0
9,450987, Note_on_c,7,80,70
9,451047, Note_on_c,7,79,70
9,451077, Note_on_c,7,80,0
9,451137, Note_on_c,7,79,0
9,451303, Note_on_c,7,89,70
9,451363, Note_on_c,7,87,70
9,451393, Note_on_c,7,89,0
9,451453, Note_on_c,7,87,0
9,451619, Note_on_c,7,83,70
9,451679, Note_on_c,7,84,70
9,451709, Note_on_c,7,83,0
9,451769, Note_on_c,7,84,0
9,451935, Note_on_c,7,87,70
9,451999, Note_on_c,7,86,70
9,452025, Note_on_c,7,87,0
9,452089, Note_on_c,7,86,0
9,452251, Note_on_c,7,82,70
9,452311, Note_on_c,7,83,70
9,452341, Note_on_c,7,82,0
9,452401, Note_on_c,7,83,0
9,452567, Note_on_c,7,86,70
9,452627, Note_on_c,7,84,70
9,452657, Note_on_c,7,86,0
9,452717, Note_on_c,7,84,0
9,454147, Note_on_c,7,91,70
9,454457, Note_on_c,7,91,0
9,454463, Note_on_c,7,86,70
9,454773, Note_on_c,7,86,0
9,454779, Note_on_c,7,87,70
9,455089, Note_on_c,7,87,0
9,455095, Note_on_c,7,84,70
9,455405, Note_on_c,7,84,0
9,456675, Note_on_c,7,93,70
9,456985, Note_on_c,7,93,0
9,456991, Note_on_c,7,88,70
9,457301, Note_on_c,7,88,0
9,457307, Note_on_c,7,89,70
9,457617, Note_on_c,7,89,0
9,457623, Note_on_c,7,86,70
9,457933, Note_on_c,7,86,0
9,460417, Control_c,7,11,95
9,460467, Note_on_c,7,83,70
9,460617, Note_on_c,7,83,0
9,460625, Note_on_c,7,84,70
9,460775, Note_on_c,7,84,0
9,460783, Note_on_c,7,86,70
9,460933, Note_on_c,7,86,0
9,460941, Note_on_c,7,87,70
9,461091, Note_on_c,7,87,0
9,461099, Note_on_c,7,88,70
9,461249, Note_on_c,7,88,0
9,461257, Note_on_c,7,89,70
9,461407, Note_on_c,7,89,0
9,461415, Note_on_c,7,87,70
9,461565, Note_on_c,7,87,0
9,461573, Note_on_c,7,88,70
9,461723, Note_on_c,7,88,0
9,461731, Note_on_c,7,93,70
9,461881, Note_on_c,7,93,0
9,461889, Note_on_c,7,92,70
9,462039, Note_on_c,7,92,0
9,462047, Note_on_c,7,91,70
9,462197, Note_on_c,7,91,0
9,462205, Note_on_c,7,90,70
9,462355, Note_on_c,7,90,0
9,462363, Note_on_c,7,89,70
9,462513, Note_on_c,7,89,0
9,462521, Note_on_c,7,88,70
9,462671, Note_on_c,7,88,0
9,462679, Note_on_c,7,87,70
9,462829, Note_on_c,7,87,0
9,462837, Note_on_c,7,88,70
9,462987, Note_on_c,7,88,0
9,465409, Control_c,7,11,100
9,465523, Note_on_c,7,85,70
9,465673, Note_on_c,7,85,0
9,465681, Note_on_c,7,86,70
9,465831, Note_on_c,7,86,0
9,465839, Note_on_c,7,88,70
9,465989, Note_on_c,7,88,0
9,465997, Note_on_c,7,89,70
9,466147, Note_on_c,7,89,0
9,466155, Note_on_c,7,90,70
9,466305, Note_on_c,7,90,0
9,466313, Note_on_c,7,91,70
9,466463, Note_on_c,7,91,0
9,466471, Note_on_c,7,89,70
9,466621, Note_on_c,7,89,0
9,466629, Note_on_c,7,90,70
9,466779, Note_on_c,7,90,0
9,466787, Note_on_c,7,95,70
9,466937, Note_on_c,7,95,0
9,466945, Note_on_c,7,94,70
9,467095, Note_on_c,7,94,0
9,467103, Note_on_c,7,93,70
9,467253, Note_on_c,7,93,0
9,467261, Note_on_c,7,92,70
9,467411, Note_on_c,7,92,0
9,467419, Note_on_c,7,91,70
9,467569, Note_on_c,7,91,0
9,467577, Note_on_c,7,90,70
9,467727, Note_on_c,7,90,0
9,467735, Note_on_c,7,89,70
9,467885, Note_on_c,7,89,0
9,467893, Note_on_c,7,90,70
9,468043, Note_on_c,7,90,0
9,468051, Note_on_c,7,83,70
9,468051, Note_on_c,7,71,70
9,468201, Note_on_c,7,71,0
9,468201, Note_on_c,7,83,0
9,468209, Note_on_c,7,82,70
9,468209, Note_on_c,7,70,70
9,468359, Note_on_c,7,70,0
9,468359, Note_on_c,7,82,0
9,468367, Note_on_c,7,81,70
9,468367, Note_on_c,7,69,70
9,468517, Note_on_c,7,69,0
9,468517, Note_on_c,7,81,0
9,468525, Note_on_c,7,80,70
9,468525, Note_on_c,7,68,70
9,468675, Note_on_c,7,68,0
9,468675, Note_on_c,7,80,0
9,468683, Note_on_c,7,79,70
9,468683, Note_on_c,7,67,70
9,468833, Note_on_c,7,67,0
9,468833, Note_on_c,7,79,0
9,468841, Note_on_c,7,78,70
9,468841, Note_on_c,7,66,70
9,468991, Note_on_c,7,66,0
9,468991, Note_on_c,7,78,0
9,468999, Note_on_c,7,77,70
9,468999, Note_on_c,7,65,70
9,469149, Note_on_c,7,65,0
9,469149, Note_on_c,7,77,0
9,469157, Note_on_c,7,78,70
9,469157, Note_on_c,7,66,70
9,469307, Note_on_c,7,66,0
9,469307, Note_on_c,7,78,0
9,469315, Note_on_c,7,81,70
9,469315, Note_on_c,7,69,70
9,469465, Note_on_c,7,69,0
9,469465, Note_on_c,7,81,0
9,469473, Note_on_c,7,82,70
9,469473, Note_on_c,7,70,70
9,469623, Note_on_c,7,70,0
9,469623, Note_on_c,7,82,0
9,469631, Note_on_c,7,83,70
9,469631, Note_on_c,7,71,70
9,469781, Note_on_c,7,71,0
9,469781, Note_on_c,7,83,0
9,469789, Note_on_c,7,84,70
9,469789, Note_on_c,7,72,70
9,469939, Note_on_c,7,72,0
9,469939, Note_on_c,7,84,0
9,469947, Note_on_c,7,85,70
9,469947, Note_on_c,7,73,70
9,470097, Note_on_c,7,73,0
9,470097, Note_on_c,7,85,0
9,470105, Note_on_c,7,86,70
9,470105, Note_on_c,7,74,70
9,470255, Note_on_c,7,74,0
9,470255, Note_on_c,7,86,0
9,470263, Note_on_c,7,87,70
9,470263, Note_on_c,7,75,70
9,470413, Note_on_c,7,75,0
9,470413, Note_on_c,7,87,0
9,470421, Note_on_c,7,88,70
9,470421, Note_on_c,7,76,70
9,470571, Note_on_c,7,76,0
9,470571, Note_on_c,7,88,0
9,470579, Note_on_c,7,88,70
9,470889, Note_on_c,7,88,0
9,470895, Note_on_c,7,88,70
9,470895, Note_on_c,7,90,70
9,471205, Note_on_c,7,90,0
9,471211, Note_on_c,7,92,70
9,471255, Note_on_c,7,88,0
9,471521, Note_on_c,7,92,0
9,471527, Note_on_c,7,88,70
9,471837, Note_on_c,7,88,0
9,471843, Note_on_c,7,90,70
9,472153, Note_on_c,7,90,0
9,472159, Note_on_c,7,92,70
9,472159, Note_on_c,7,88,70
9,472469, Note_on_c,7,92,0
9,472485, Note_on_c,7,93,70
9,472519, Note_on_c,7,88,0
9,472795, Note_on_c,7,93,0
9,472801, Note_on_c,7,88,70
9,473111, Note_on_c,7,88,0
9,473117, Note_on_c,7,81,70
9,473117, Note_on_c,7,69,70
9,473267, Note_on_c,7,69,0
9,473267, Note_on_c,7,81,0
9,473275, Note_on_c,7,80,70
9,473275, Note_on_c,7,68,70
9,473425, Note_on_c,7,68,0
9,473425, Note_on_c,7,80,0
9,473433, Note_on_c,7,79,70
9,473433, Note_on_c,7,67,70
9,473583, Note_on_c,7,67,0
9,473583, Note_on_c,7,79,0
9,473591, Note_on_c,7,78,70
9,473591, Note_on_c,7,66,70
9,473741, Note_on_c,7,66,0
9,473741, Note_on_c,7,78,0
9,473749, Note_on_c,7,77,70
9,473749, Note_on_c,7,65,70
9,473899, Note_on_c,7,65,0
9,473899, Note_on_c,7,77,0
9,473907, Note_on_c,7,76,70
9,473907, Note_on_c,7,64,70
9,474057, Note_on_c,7,64,0
9,474057, Note_on_c,7,76,0
9,474065, Note_on_c,7,75,70
9,474065, Note_on_c,7,63,70
9,474215, Note_on_c,7,63,0
9,474215, Note_on_c,7,75,0
9,474223, Note_on_c,7,76,70
9,474223, Note_on_c,7,64,70
9,474373, Note_on_c,7,64,0
9,474373, Note_on_c,7,76,0
9,474381, Note_on_c,7,79,70
9,474381, Note_on_c,7,67,70
9,474531, Note_on_c,7,67,0
9,474531, Note_on_c,7,79,0
9,474539, Note_on_c,7,80,70
9,474539, Note_on_c,7,68,70
9,474689, Note_on_c,7,68,0
9,474689, Note_on_c,7,80,0
9,474697, Note_on_c,7,81,70
9,474697, Note_on_c,7,69,70
9,474847, Note_on_c,7,69,0
9,474847, Note_on_c,7,81,0
9,474855, Note_on_c,7,82,70
9,474855, Note_on_c,7,70,70
9,475005, Note_on_c,7,70,0
9,475005, Note_on_c,7,82,0
9,475013, Note_on_c,7,83,70
9,475013, Note_on_c,7,71,70
9,475163, Note_on_c,7,71,0
9,475163, Note_on_c,7,83,0
9,475171, Note_on_c,7,84,70
9,475171, Note_on_c,7,72,70
9,475321, Note_on_c,7,72,0
9,475321, Note_on_c,7,84,0
9,475329, Note_on_c,7,85,70
9,475329, Note_on_c,7,73,70
9,475479, Note_on_c,7,73,0
9,475479, Note_on_c,7,85,0
9,475487, Note_on_c,7,86,70
9,475487, Note_on_c,7,74,70
9,475637, Note_on_c,7,74,0
9,475637, Note_on_c,7,86,0
9,475645, Note_on_c,7,86,80
9,475955, Note_on_c,7,86,0
9,475961, Note_on_c,7,88,80
9,475961, Note_on_c,7,86,80
9,476271, Note_on_c,7,86,0
9,476277, Note_on_c,7,90,80
9,476321, Note_on_c,7,88,0
9,476587, Note_on_c,7,90,0
9,476593, Note_on_c,7,86,80
9,476903, Note_on_c,7,86,0
9,476909, Note_on_c,7,88,80
9,477219, Note_on_c,7,88,0
9,477225, Note_on_c,7,90,80
9,477225, Note_on_c,7,86,80
9,477535, Note_on_c,7,90,0
9,477551, Note_on_c,7,91,80
9,477585, Note_on_c,7,86,0
9,477861, Note_on_c,7,91,0
9,477867, Note_on_c,7,86,80
9,478177, Note_on_c,7,86,0
9,478183, Note_on_c,7,79,90
9,478493, Note_on_c,7,79,0
9,478499, Note_on_c,7,81,90
9,478815, Note_on_c,7,83,90
9,478859, Note_on_c,7,81,0
9,479125, Note_on_c,7,83,0
9,479131, Note_on_c,7,79,90
9,479441, Note_on_c,7,79,0
9,479447, Note_on_c,7,81,90
9,479757, Note_on_c,7,81,0
9,479763, Note_on_c,7,83,90
9,480073, Note_on_c,7,83,0
9,480089, Note_on_c,7,84,90
9,480399, Note_on_c,7,84,0
9,480405, Note_on_c,7,86,90
9,480715, Note_on_c,7,86,0
9,480723, Note_on_c,7,79,90
9,481033, Note_on_c,7,79,0
9,481039, Note_on_c,7,81,90
9,481355, Note_on_c,7,83,90
9,481399, Note_on_c,7,81,0
9,481665, Note_on_c,7,83,0
9,481671, Note_on_c,7,79,90
9,481981, Note_on_c,7,79,0
9,481987, Note_on_c,7,81,90
9,482297, Note_on_c,7,81,0
9,482303, Note_on_c,7,83,90
9,482613, Note_on_c,7,83,0
9,482629, Note_on_c,7,84,90
9,482939, Note_on_c,7,84,0
9,482945, Note_on_c,7,86,90
9,483255, Note_on_c,7,86,0
9,483261, Note_on_c,7,84,90
9,483571, Note_on_c,7,84,0
9,483577, Note_on_c,7,86,90
9,483577, Note_on_c,7,84,90
9,483893, Note_on_c,7,88,90
9,483937, Note_on_c,7,84,0
9,483937, Note_on_c,7,86,0
9,484203, Note_on_c,7,88,0
9,484209, Note_on_c,7,84,90
9,484519, Note_on_c,7,84,0
9,484525, Note_on_c,7,86,90
9,484835, Note_on_c,7,86,0
9,484841, Note_on_c,7,84,90
9,484841, Note_on_c,7,88,90
9,485151, Note_on_c,7,88,0
9,485151, Note_on_c,7,84,0
9,485167, Note_on_c,7,89,90
9,485477, Note_on_c,7,89,0
9,485483, Note_on_c,7,91,90
9,485793, Note_on_c,7,91,0
9,485799, Note_on_c,7,84,90
9,486109, Note_on_c,7,84,0
9,486115, Note_on_c,7,84,90
9,486115, Note_on_c,7,86,90
9,486431, Note_on_c,7,88,90
9,486475, Note_on_c,7,86,0
9,486475, Note_on_c,7,84,0
9,486741, Note_on_c,7,88,0
9,486747, Note_on_c,7,84,90
9,487057, Note_on_c,7,84,0
9,487063, Note_on_c,7,86,90
9,487373, Note_on_c,7,86,0
9,487379, Note_on_c,7,84,90
9,487379, Note_on_c,7,88,90
9,487689, Note_on_c,7,88,0
9,487689, Note_on_c,7,84,0
9,487705, Note_on_c,7,89,90
9,488015, Note_on_c,7,89,0
9,488021, Note_on_c,7,91,90
9,488331, Note_on_c,7,91,0
9,488337, Note_on_c,7,84,90
9,488647, Note_on_c,7,84,0
9,488653, Note_on_c,7,86,90
9,488963, Note_on_c,7,86,0
9,488969, Note_on_c,7,88,90
9,489279, Note_on_c,7,88,0
9,489285, Note_on_c,7,84,90
9,489595, Note_on_c,7,84,0
9,489601, Note_on_c,7,86,90
9,489911, Note_on_c,7,86,0
9,489917, Note_on_c,7,88,90
9,490227, Note_on_c,7,88,0
9,490243, Note_on_c,7,89,90
9,490553, Note_on_c,7,89,0
9,490559, Note_on_c,7,83,90
9,490759, Note_on_c,7,83,0
9,490770, Note_on_c,7,77,90
9,490770, Note_on_c,7,89,90
9,490970, Note_on_c,7,89,0
9,490970, Note_on_c,7,77,0
9,490981, Note_on_c,7,79,90
9,490981, Note_on_c,7,91,90
9,491181, Note_on_c,7,91,0
9,491181, Note_on_c,7,79,0
9,491192, Note_on_c,7,80,90
9,491192, Note_on_c,7,92,90
9,491392, Note_on_c,7,92,0
9,491392, Note_on_c,7,80,0
9,491403, Note_on_c,7,74,90
9,491403, Note_on_c,7,86,90
9,491603, Note_on_c,7,86,0
9,491603, Note_on_c,7,74,0
9,491614, Note_on_c,7,76,90
9,491614, Note_on_c,7,88,90
9,491814, Note_on_c,7,88,0
9,491814, Note_on_c,7,76,0
9,491825, Note_on_c,7,77,90
9,491825, Note_on_c,7,89,90
9,492025, Note_on_c,7,89,0
9,492025, Note_on_c,7,77,0
9,492036, Note_on_c,7,77,90
9,492036, Note_on_c,7,89,90
9,492236, Note_on_c,7,89,0
9,492236, Note_on_c,7,77,0
9,492247, Note_on_c,7,79,90
9,492247, Note_on_c,7,91,90
9,492447, Note_on_c,7,91,0
9,492447, Note_on_c,7,79,0
9,492458, Note_on_c,7,80,90
9,492458, Note_on_c,7,92,90
9,492658, Note_on_c,7,92,0
9,492658, Note_on_c,7,80,0
9,492669, Note_on_c,7,74,90
9,492669, Note_on_c,7,86,90
9,492869, Note_on_c,7,86,0
9,492869, Note_on_c,7,74,0
9,492880, Note_on_c,7,76,90
9,492880, Note_on_c,7,88,90
9,493080, Note_on_c,7,88,0
9,493080, Note_on_c,7,76,0
9,493091, Note_on_c,7,77,90
9,493091, Note_on_c,7,89,90
9,493291, Note_on_c,7,89,0
9,493291, Note_on_c,7,77,0
9,493407, Note_on_c,7,84,90
9,493717, Note_on_c,7,84,0
9,493723, Note_on_c,7,86,90
9,494033, Note_on_c,7,86,0
9,494039, Note_on_c,7,88,90
9,494349, Note_on_c,7,88,0
9,494355, Note_on_c,7,84,90
9,494665, Note_on_c,7,84,0
9,494671, Note_on_c,7,86,90
9,494981, Note_on_c,7,86,0
9,494987, Note_on_c,7,88,90
9,495297, Note_on_c,7,88,0
9,495313, Note_on_c,7,89,90
9,495623, Note_on_c,7,89,0
9,495629, Note_on_c,7,83,90
9,495829, Note_on_c,7,83,0
9,495840, Note_on_c,7,89,90
9,495840, Note_on_c,7,77,90
9,496040, Note_on_c,7,77,0
9,496040, Note_on_c,7,89,0
9,496051, Note_on_c,7,91,90
9,496051, Note_on_c,7,79,90
9,496251, Note_on_c,7,79,0
9,496251, Note_on_c,7,91,0
9,496262, Note_on_c,7,92,90
9,496262, Note_on_c,7,80,90
9,496462, Note_on_c,7,80,0
9,496462, Note_on_c,7,92,0
9,496473, Note_on_c,7,86,90
9,496473, Note_on_c,7,74,90
9,496673, Note_on_c,7,74,0
9,496673, Note_on_c,7,86,0
9,496684, Note_on_c,7,88,90
9,496684, Note_on_c,7,76,90
9,496884, Note_on_c,7,76,0
9,496884, Note_on_c,7,88,0
9,496895, Note_on_c,7,89,90
9,496895, Note_on_c,7,77,90
9,497095, Note_on_c,7,77,0
9,497095, Note_on_c,7,89,0
9,497106, Note_on_c,7,89,90
9,497106, Note_on_c,7,77,90
9,497306, Note_on_c,7,77,0
9,497306, Note_on_c,7,89,0
9,497317, Note_on_c,7,91,90
9,497317, Note_on_c,7,79,90
9,497517, Note_on_c,7,79,0
9,497517, Note_on_c,7,91,0
9,497528, Note_on_c,7,92,90
9,497528, Note_on_c,7,80,90
9,497728, Note_on_c,7,80,0
9,497728, Note_on_c,7,92,0
9,497739, Note_on_c,7,86,90
9,497739, Note_on_c,7,74,90
9,497939, Note_on_c,7,74,0
9,497939, Note_on_c,7,86,0
9,497950, Note_on_c,7,88,90
9,497950, Note_on_c,7,76,90
9,498150, Note_on_c,7,76,0
9,498150, Note_on_c,7,88,0
9,498161, Note_on_c,7,89,90
9,498161, Note_on_c,7,77,90
9,498361, Note_on_c,7,77,0
9,498361, Note_on_c,7,89,0
9,498372, Note_on_c,7,89,90
9,498372, Note_on_c,7,77,90
9,498572, Note_on_c,7,77,0
9,498572, Note_on_c,7,89,0
9,498583, Note_on_c,7,91,90
9,498583, Note_on_c,7,79,90
9,498783, Note_on_c,7,79,0
9,498783, Note_on_c,7,91,0
9,498794, Note_on_c,7,92,90
9,498794, Note_on_c,7,80,90
9,498994, Note_on_c,7,80,0
9,498994, Note_on_c,7,92,0
9,499005, Note_on_c,7,86,90
9,499005, Note_on_c,7,74,90
9,499205, Note_on_c,7,74,0
9,499205, Note_on_c,7,86,0
9,499216, Note_on_c,7,76,90
9,499216, Note_on_c,7,88,90
9,499416, Note_on_c,7,88,0
9,499416, Note_on_c,7,76,0
9,499427, Note_on_c,7,77,90
9,499427, Note_on_c,7,89,90
9,499627, Note_on_c,7,89,0
9,499627, Note_on_c,7,77,0
9,499638, Note_on_c,7,77,90
9,499638, Note_on_c,7,89,90
9,499838, Note_on_c,7,89,0
9,499838, Note_on_c,7,77,0
9,499849, Note_on_c,7,79,90
9,499849, Note_on_c,7,91,90
9,500049, Note_on_c,7,91,0
9,500049, Note_on_c,7,79,0
9,500060, Note_on_c,7,80,90
9,500060, Note_on_c,7,92,90
9,500260, Note_on_c,7,92,0
9,500260, Note_on_c,7,80,0
9,500271, Note_on_c,7,74,90
9,500271, Note_on_c,7,86,90
9,500471, Note_on_c,7,86,0
9,500471, Note_on_c,7,74,0
9,500482, Note_on_c,7,76,90
9,500482, Note_on_c,7,88,90
9,500682, Note_on_c,7,88,0
9,500682, Note_on_c,7,76,0
9,500693, Note_on_c,7,77,90
9,500693, Note_on_c,7,89,90
9,500893, Note_on_c,7,89,0
9,500893, Note_on_c,7,77,0
9,500904, Note_on_c,7,77,90
9,500904, Note_on_c,7,89,90
9,501104, Note_on_c,7,89,0
9,501104, Note_on_c,7,77,0
9,501115, Note_on_c,7,79,90
9,501115, Note_on_c,7,91,90
9,501315, Note_on_c,7,91,0
9,501315, Note_on_c,7,79,0
9,501326, Note_on_c,7,93,90
9,501326, Note_on_c,7,81,90
9,501526, Note_on_c,7,81,0
9,501526, Note_on_c,7,93,0
9,501537, Note_on_c,7,86,90
9,501537, Note_on_c,7,74,90
9,501737, Note_on_c,7,74,0
9,501737, Note_on_c,7,86,0
9,501748, Note_on_c,7,88,90
9,501748, Note_on_c,7,76,90
9,501948, Note_on_c,7,76,0
9,501948, Note_on_c,7,88,0
9,501959, Note_on_c,7,89,90
9,501959, Note_on_c,7,77,90
9,502159, Note_on_c,7,77,0
9,502159, Note_on_c,7,89,0
9,502170, Note_on_c,7,89,90
9,502170, Note_on_c,7,77,90
9,502370, Note_on_c,7,77,0
9,502370, Note_on_c,7,89,0
9,502381, Note_on_c,7,91,90
9,502381, Note_on_c,7,79,90
9,502581, Note_on_c,7,79,0
9,502581, Note_on_c,7,91,0
9,502592, Note_on_c,7,93,90
9,502592, Note_on_c,7,81,90
9,502792, Note_on_c,7,81,0
9,502792, Note_on_c,7,93,0
9,502803, Note_on_c,7,86,90
9,502803, Note_on_c,7,74,90
9,503003, Note_on_c,7,74,0
9,503003, Note_on_c,7,86,0
9,503014, Note_on_c,7,88,90
9,503014, Note_on_c,7,76,90
9,503214, Note_on_c,7,76,0
9,503214, Note_on_c,7,88,0
9,503225, Note_on_c,7,89,90
9,503225, Note_on_c,7,77,90
9,503425, Note_on_c,7,77,0
9,503425, Note_on_c,7,89,0
9,503436, Note_on_c,7,89,90
9,503436, Note_on_c,7,77,90
9,503636, Note_on_c,7,77,0
9,503636, Note_on_c,7,89,0
9,503647, Note_on_c,7,91,90
9,503647, Note_on_c,7,79,90
9,503847, Note_on_c,7,79,0
9,503847, Note_on_c,7,91,0
9,503858, Note_on_c,7,93,90
9,503858, Note_on_c,7,81,90
9,504008, Note_on_c,7,81,0
9,504008, Note_on_c,7,93,0
9,504016, Note_on_c,7,91,90
9,504016, Note_on_c,7,79,90
9,504166, Note_on_c,7,79,0
9,504166, Note_on_c,7,91,0
9,504174, Note_on_c,7,89,90
9,504174, Note_on_c,7,77,90
9,504324, Note_on_c,7,77,0
9,504324, Note_on_c,7,89,0
9,504332, Note_on_c,7,88,90
9,504332, Note_on_c,7,76,90
9,504482, Note_on_c,7,76,0
9,504482, Note_on_c,7,88,0
9,504490, Note_on_c,7,89,90
9,504490, Note_on_c,7,77,90
9,504640, Note_on_c,7,77,0
9,504640, Note_on_c,7,89,0
9,504648, Note_on_c,7,88,90
9,504648, Note_on_c,7,76,90
9,504798, Note_on_c,7,76,0
9,504798, Note_on_c,7,88,0
9,504806, Note_on_c,7,86,90
9,504806, Note_on_c,7,74,90
9,504956, Note_on_c,7,74,0
9,504956, Note_on_c,7,86,0
9,504964, Note_on_c,7,85,90
9,504964, Note_on_c,7,73,90
9,505114, Note_on_c,7,73,0
9,505114, Note_on_c,7,85,0
9,505122, Note_on_c,7,86,90
9,505122, Note_on_c,7,74,90
9,505272, Note_on_c,7,74,0
9,505272, Note_on_c,7,86,0
9,505280, Note_on_c,7,84,90
9,505280, Note_on_c,7,72,90
9,505430, Note_on_c,7,72,0
9,505430, Note_on_c,7,84,0
9,505438, Note_on_c,7,82,90
9,505438, Note_on_c,7,70,90
9,505588, Note_on_c,7,70,0
9,505588, Note_on_c,7,82,0
9,505596, Note_on_c,7,81,90
9,505596, Note_on_c,7,69,90
9,505746, Note_on_c,7,69,0
9,505746, Note_on_c,7,81,0
9,505754, Note_on_c,7,89,90
9,505754, Note_on_c,7,77,90
9,505904, Note_on_c,7,77,0
9,505904, Note_on_c,7,89,0
9,505912, Note_on_c,7,87,90
9,505912, Note_on_c,7,75,90
9,506062, Note_on_c,7,75,0
9,506062, Note_on_c,7,87,0
9,506070, Note_on_c,7,86,90
9,506070, Note_on_c,7,74,90
9,506220, Note_on_c,7,74,0
9,506220, Note_on_c,7,86,0
9,506228, Note_on_c,7,85,90
9,506228, Note_on_c,7,73,90
9,506378, Note_on_c,7,73,0
9,506378, Note_on_c,7,85,0
9,506386, Note_on_c,7,86,90
9,506386, Note_on_c,7,74,90
9,506536, Note_on_c,7,74,0
9,506536, Note_on_c,7,86,0
9,506544, Note_on_c,7,84,90
9,506544, Note_on_c,7,72,90
9,506694, Note_on_c,7,72,0
9,506694, Note_on_c,7,84,0
9,506702, Note_on_c,7,82,90
9,506702, Note_on_c,7,70,90
9,506852, Note_on_c,7,70,0
9,506852, Note_on_c,7,82,0
9,506860, Note_on_c,7,81,90
9,506860, Note_on_c,7,69,90
9,507010, Note_on_c,7,69,0
9,507010, Note_on_c,7,81,0
9,507018, Note_on_c,7,82,90
9,507018, Note_on_c,7,70,90
9,507168, Note_on_c,7,70,0
9,507168, Note_on_c,7,82,0
9,507176, Note_on_c,7,81,90
9,507176, Note_on_c,7,69,90
9,507326, Note_on_c,7,69,0
9,507326, Note_on_c,7,81,0
9,507334, Note_on_c,7,79,90
9,507334, Note_on_c,7,67,90
9,507484, Note_on_c,7,67,0
9,507484, Note_on_c,7,79,0
9,507492, Note_on_c,7,77,90
9,507492, Note_on_c,7,65,90
9,507642, Note_on_c,7,65,0
9,507642, Note_on_c,7,77,0
9,511442, Note_on_c,7,87,90
9,511642, Note_on_c,7,87,0
9,557385, Note_on_c,7,87,100
9,557535, Note_on_c,7,87,0
9,557554, Note_on_c,7,85,100
9,557704, Note_on_c,7,85,0
9,557723, Note_on_c,7,86,100
9,557873, Note_on_c,7,86,0
9,558382, Note_on_c,7,87,100
9,558532, Note_on_c,7,87,0
9,558540, Note_on_c,7,85,100
9,558690, Note_on_c,7,85,0
9,558698, Note_on_c,7,86,100
9,558848, Note_on_c,7,86,0
9,559365, Note_on_c,7,88,100
9,559515, Note_on_c,7,88,0
9,559526, Note_on_c,7,86,100
9,559676, Note_on_c,7,86,0
9,559687, Note_on_c,7,87,100
9,559837, Note_on_c,7,87,0
9,560365, Note_on_c,7,88,100
9,560515, Note_on_c,7,88,0
9,560526, Note_on_c,7,86,100
9,560676, Note_on_c,7,86,0
9,560687, Note_on_c,7,87,100
9,560837, Note_on_c,7,87,0
9,561025, Control_c,7,11,70
9,561252, Note_on_c,7,64,70
9,561252, Note_on_c,7,68,70
9,562800, Note_on_c,7,68,0
9,562800, Note_on_c,7,64,0
9,563148, Note_on_c,7,64,70
9,563148, Note_on_c,7,68,70
9,565014, Note_on_c,7,68,0
9,565014, Note_on_c,7,64,0
9,565680, Note_on_c,7,73,70
9,565680, Note_on_c,7,69,70
9,567216, Note_on_c,7,69,0
9,567216, Note_on_c,7,73,0
9,567822, Note_on_c,7,69,70
9,567822, Note_on_c,7,73,70
9,568600, Note_on_c,7,73,0
9,568600, Note_on_c,7,69,0
9,570268, Note_on_c,7,63,70
9,571750, Note_on_c,7,63,0
9,572164, Note_on_c,7,63,70
9,573646, Note_on_c,7,63,0
9,574432, Note_on_c,7,63,70
9,574792, Note_on_c,7,63,0
9,574808, Note_on_c,7,68,70
9,576060, Note_on_c,7,68,0
9,576648, Note_on_c,7,68,70
9,578220, Note_on_c,7,68,0
9,578864, Note_on_c,7,68,70
9,579224, Note_on_c,7,68,0
9,579240, Note_on_c,7,73,70
9,580438, Note_on_c,7,73,0
9,581096, Note_on_c,7,73,70
9,582348, Note_on_c,7,73,0
9,583312, Note_on_c,7,73,70
9,583587, Note_on_c,7,73,0
9,583681, Control_c,7,11,90
9,583698, Note_on_c,7,71,70
9,583698, Note_on_c,7,83,70
9,583878, Note_on_c,7,83,0
9,583878, Note_on_c,7,71,0
9,583888, Note_on_c,7,68,70
9,583888, Note_on_c,7,80,70
9,584068, Note_on_c,7,80,0
9,584068, Note_on_c,7,68,0
9,584078, Note_on_c,7,69,70
9,584078, Note_on_c,7,81,70
9,584228, Note_on_c,7,81,0
9,584228, Note_on_c,7,69,0
9,584268, Note_on_c,7,71,70
9,584268, Note_on_c,7,83,70
9,584448, Note_on_c,7,83,0
9,584448, Note_on_c,7,71,0
9,584458, Note_on_c,7,68,70
9,584458, Note_on_c,7,80,70
9,584638, Note_on_c,7,80,0
9,584638, Note_on_c,7,68,0
9,584648, Note_on_c,7,69,70
9,584648, Note_on_c,7,81,70
9,584798, Note_on_c,7,81,0
9,584798, Note_on_c,7,69,0
9,584838, Note_on_c,7,71,70
9,584838, Note_on_c,7,83,70
9,585018, Note_on_c,7,83,0
9,585018, Note_on_c,7,71,0
9,585028, Note_on_c,7,68,70
9,585028, Note_on_c,7,80,70
9,585208, Note_on_c,7,80,0
9,585208, Note_on_c,7,68,0
9,585218, Note_on_c,7,70,70
9,585218, Note_on_c,7,82,70
9,585368, Note_on_c,7,82,0
9,585368, Note_on_c,7,70,0
9,585408, Note_on_c,7,71,70
9,585408, Note_on_c,7,83,70
9,585588, Note_on_c,7,83,0
9,585588, Note_on_c,7,71,0
9,585598, Note_on_c,7,69,70
9,585598, Note_on_c,7,81,70
9,585778, Note_on_c,7,81,0
9,585778, Note_on_c,7,69,0
9,585788, Note_on_c,7,70,70
9,585788, Note_on_c,7,82,70
9,585938, Note_on_c,7,82,0
9,585938, Note_on_c,7,70,0
9,585978, Note_on_c,7,71,70
9,585978, Note_on_c,7,83,70
9,586158, Note_on_c,7,83,0
9,586158, Note_on_c,7,71,0
9,586168, Note_on_c,7,69,70
9,586168, Note_on_c,7,81,70
9,586348, Note_on_c,7,81,0
9,586348, Note_on_c,7,69,0
9,586358, Note_on_c,7,70,70
9,586358, Note_on_c,7,82,70
9,586508, Note_on_c,7,82,0
9,586508, Note_on_c,7,70,0
9,586548, Note_on_c,7,71,70
9,586548, Note_on_c,7,83,70
9,586728, Note_on_c,7,83,0
9,586728, Note_on_c,7,71,0
9,586738, Note_on_c,7,70,70
9,586738, Note_on_c,7,82,70
9,586918, Note_on_c,7,82,0
9,586918, Note_on_c,7,70,0
9,586928, Note_on_c,7,71,70
9,586928, Note_on_c,7,83,70
9,587078, Note_on_c,7,83,0
9,587078, Note_on_c,7,71,0
9,587118, Note_on_c,7,71,70
9,587118, Note_on_c,7,83,70
9,587298, Note_on_c,7,83,0
9,587298, Note_on_c,7,71,0
9,587308, Note_on_c,7,70,70
9,587308, Note_on_c,7,82,70
9,587488, Note_on_c,7,82,0
9,587488, Note_on_c,7,70,0
9,587498, Note_on_c,7,71,70
9,587498, Note_on_c,7,83,70
9,587648, Note_on_c,7,83,0
9,587648, Note_on_c,7,71,0
9,587688, Note_on_c,7,83,90
9,587888, Note_on_c,7,83,0
9,588828, Note_on_c,7,83,90
9,589028, Note_on_c,7,83,0
9,589968, Note_on_c,7,83,90
9,590168, Note_on_c,7,83,0
9,591108, Note_on_c,7,83,90
9,591308, Note_on_c,7,83,0
9,594559, Note_on_c,7,87,70
9,594651, Note_on_c,7,88,70
9,594659, Note_on_c,7,87,0
9,594751, Note_on_c,7,88,0
9,594859, Note_on_c,7,90,70
9,594959, Note_on_c,7,90,0
9,594959, Note_on_c,7,88,70
9,595059, Note_on_c,7,88,0
9,595175, Note_on_c,7,92,70
9,595275, Note_on_c,7,92,0
9,595283, Note_on_c,7,90,70
9,595383, Note_on_c,7,90,0
9,595511, Note_on_c,7,88,70
9,595611, Note_on_c,7,88,0
9,595619, Note_on_c,7,87,70
9,595719, Note_on_c,7,87,0
9,599371, Note_on_c,7,89,70
9,599471, Note_on_c,7,89,0
9,599484, Note_on_c,7,90,70
9,599584, Note_on_c,7,90,0
9,599671, Note_on_c,7,92,70
9,599771, Note_on_c,7,92,0
9,599771, Note_on_c,7,90,70
9,599871, Note_on_c,7,90,0
9,599987, Note_on_c,7,94,70
9,600087, Note_on_c,7,94,0
9,600095, Note_on_c,7,92,70
9,600195, Note_on_c,7,92,0
9,600323, Note_on_c,7,90,70
9,600423, Note_on_c,7,90,0
9,600431, Note_on_c,7,89,70
9,600531, Note_on_c,7,89,0
9,609708, Note_on_c,7,78,70
9,609708, Note_on_c,7,82,70
9,610362, Note_on_c,7,82,0
9,610362, Note_on_c,7,78,0
9,610372, Note_on_c,7,78,70
9,610372, Note_on_c,7,83,70
9,611026, Note_on_c,7,83,0
9,611026, Note_on_c,7,78,0
9,611032, Note_on_c,7,79,70
9,611032, Note_on_c,7,83,70
9,611686, Note_on_c,7,83,0
9,611686, Note_on_c,7,79,0
9,611692, Note_on_c,7,84,70
9,611692, Note_on_c,7,79,70
9,612346, Note_on_c,7,79,0
9,612346, Note_on_c,7,84,0
9,615380, Note_on_c,7,81,70
9,615380, Note_on_c,7,85,70
9,616034, Note_on_c,7,85,0
9,616034, Note_on_c,7,81,0
9,616044, Note_on_c,7,81,70
9,616044, Note_on_c,7,86,70
9,616698, Note_on_c,7,86,0
9,616698, Note_on_c,7,81,0
9,616704, Note_on_c,7,82,70
9,616704, Note_on_c,7,86,70
9,617358, Note_on_c,7,86,0
9,617358, Note_on_c,7,82,0
9,617364, Note_on_c,7,82,70
9,617364, Note_on_c,7,87,70
9,618018, Note_on_c,7,87,0
9,618018, Note_on_c,7,82,0
9,618036, Note_on_c,7,88,100
9,618216, Note_on_c,7,88,0
9,619688, Note_on_c,7,89,100
9,619868, Note_on_c,7,89,0
9,674954, Note_on_c,7,75,69
9,675346, Note_on_c,7,71,66
9,675394, Note_on_c,7,75,0
9,676050, Note_on_c,7,72,59
9,676086, Note_on_c,7,71,0
9,676422, Note_on_c,7,79,64
9,676434, Note_on_c,7,72,0
9,676798, Note_on_c,7,74,67
9,676802, Note_on_c,7,79,0
9,677526, Note_on_c,7,75,67
9,677546, Note_on_c,7,74,0
9,677894, Note_on_c,7,75,0
9,677942, Note_on_c,7,82,70
9,678298, Note_on_c,7,81,72
9,678307, Note_on_c,7,82,0
9,678662, Note_on_c,7,84,81
9,678698, Note_on_c,7,81,0
9,679038, Note_on_c,7,82,69
9,679074, Note_on_c,7,84,0
9,679398, Note_on_c,7,81,69
9,679402, Note_on_c,7,82,0
9,679762, Note_on_c,7,79,67
9,679766, Note_on_c,7,81,0
9,680126, Note_on_c,7,77,72
9,680134, Note_on_c,7,79,0
9,680466, Note_on_c,7,77,0
9,680498, Note_on_c,7,72,59
9,680850, Note_on_c,7,74,56
9,680886, Note_on_c,7,72,0
9,681158, Note_on_c,7,74,0
9,681234, Note_on_c,7,74,64
9,681618, Note_on_c,7,81,70
9,681622, Note_on_c,7,74,0
9,681978, Note_on_c,7,77,74
9,682006, Note_on_c,7,81,0
9,682354, Note_on_c,7,76,76
9,682358, Note_on_c,7,77,0
9,682722, Note_on_c,7,74,64
9,682738, Note_on_c,7,76,0
9,683122, Note_on_c,7,73,48
9,683126, Note_on_c,7,74,0
9,683962, Note_on_c,7,73,0
9,684174, Note_on_c,7,73,54
9,684586, Note_on_c,7,81,72
9,684594, Note_on_c,7,73,0
9,684930, Note_on_c,7,77,75
9,684950, Note_on_c,7,81,0
9,685302, Note_on_c,7,76,69
9,685318, Note_on_c,7,77,0
9,685642, Note_on_c,7,76,0
9,685642, Note_on_c,7,74,55
9,686010, Note_on_c,7,73,59
9,686046, Note_on_c,7,74,0
9,686994, Note_on_c,7,73,0
9,687158, Note_on_c,7,73,58
9,687526, Note_on_c,7,73,0
9,687562, Note_on_c,7,81,74
9,687930, Note_on_c,7,77,81
9,687954, Note_on_c,7,81,0
9,688286, Note_on_c,7,76,74
9,688302, Note_on_c,7,77,0
9,688654, Note_on_c,7,76,0
9,688654, Note_on_c,7,74,70
9,689038, Note_on_c,7,72,74
9,689042, Note_on_c,7,74,0
9,689402, Note_on_c,7,72,0
9,689406, Note_on_c,7,70,69
9,689798, Note_on_c,7,69,64
9,689822, Note_on_c,7,70,0
9,690210, Note_on_c,7,65,64
9,690218, Note_on_c,7,69,0
9,690578, Note_on_c,7,64,71
9,690598, Note_on_c,7,65,0
9,690974, Note_on_c,7,64,0
9,690974, Note_on_c,7,62,67
9,691398, Note_on_c,7,65,45
9,691426, Note_on_c,7,62,0
9,692790, Note_on_c,7,64,53
9,692810, Note_on_c,7,65,0
9,693290, Note_on_c,7,62,53
9,693322, Note_on_c,7,64,0
9,693838, Note_on_c,7,62,0
9,733564, Note_on_c,7,85,90
9,734200, Note_on_c,7,85,0
9,734200, Note_on_c,7,85,90
9,734844, Note_on_c,7,85,0
9,734844, Note_on_c,7,85,90
9,735460, Note_on_c,7,85,0
9,735460, Note_on_c,7,85,90
9,736088, Note_on_c,7,85,0
9,736088, Note_on_c,7,85,90
9,736700, Note_on_c,7,85,0
9,736700, Note_on_c,7,85,90
9,737332, Note_on_c,7,85,0
9,737332, Note_on_c,7,85,90
9,737968, Note_on_c,7,85,0
9,737968, Note_on_c,7,85,90
9,738316, Note_on_c,7,85,0
9,738316, Note_on_c,7,86,90
9,738608, Note_on_c,7,77,90
9,738608, Note_on_c,7,74,90
9,738664, Note_on_c,7,86,0
9,739192, Note_on_c,7,74,0
9,739192, Note_on_c,7,77,0
9,739200, Note_on_c,7,77,90
9,739200, Note_on_c,7,74,90
9,739280, Note_on_c,7,74,0
9,739280, Note_on_c,7,77,0
9,739295, Note_on_c,7,76,90
9,739295, Note_on_c,7,74,90
9,739375, Note_on_c,7,74,0
9,739375, Note_on_c,7,76,0
9,739390, Note_on_c,7,77,90
9,739390, Note_on_c,7,74,90
9,739470, Note_on_c,7,74,0
9,739470, Note_on_c,7,77,0
9,739484, Note_on_c,7,79,90
9,739484, Note_on_c,7,74,90
9,739734, Note_on_c,7,74,0
9,739734, Note_on_c,7,79,0
9,739764, Note_on_c,7,79,90
9,739764, Note_on_c,7,74,90
9,740308, Note_on_c,7,74,0
9,740308, Note_on_c,7,79,0
9,740344, Note_on_c,7,79,90
9,740344, Note_on_c,7,74,90
9,740424, Note_on_c,7,74,0
9,740424, Note_on_c,7,79,0
9,740436, Note_on_c,7,78,90
9,740436, Note_on_c,7,74,90
9,740516, Note_on_c,7,74,0
9,740516, Note_on_c,7,78,0
9,740528, Note_on_c,7,79,90
9,740528, Note_on_c,7,74,90
9,740608, Note_on_c,7,74,0
9,740608, Note_on_c,7,79,0
9,740620, Note_on_c,7,80,90
9,740620, Note_on_c,7,75,90
9,740870, Note_on_c,7,75,0
9,740870, Note_on_c,7,80,0
9,740904, Note_on_c,7,80,90
9,740904, Note_on_c,7,75,90
9,741448, Note_on_c,7,75,0
9,741448, Note_on_c,7,80,0
9,741452, Note_on_c,7,80,90
9,741452, Note_on_c,7,75,90
9,741532, Note_on_c,7,75,0
9,741532, Note_on_c,7,80,0
9,741543, Note_on_c,7,79,90
9,741543, Note_on_c,7,75,90
9,741623, Note_on_c,7,75,0
9,741623, Note_on_c,7,79,0
9,741634, Note_on_c,7,75,90
9,741634, Note_on_c,7,80,90
9,741714, Note_on_c,7,80,0
9,741714, Note_on_c,7,75,0
9,741724, Note_on_c,7,76,90
9,741724, Note_on_c,7,81,90
9,741974, Note_on_c,7,81,0
9,741974, Note_on_c,7,76,0
9,741988, Note_on_c,7,76,90
9,741988, Note_on_c,7,81,90
9,742532, Note_on_c,7,81,0
9,742532, Note_on_c,7,76,0
9,742540, Note_on_c,7,81,90
9,742540, Note_on_c,7,76,90
9,742620, Note_on_c,7,76,0
9,742620, Note_on_c,7,81,0
9,742633, Note_on_c,7,80,90
9,742633, Note_on_c,7,76,90
9,742713, Note_on_c,7,76,0
9,742713, Note_on_c,7,80,0
9,742726, Note_on_c,7,81,90
9,742726, Note_on_c,7,76,90
9,742806, Note_on_c,7,76,0
9,742806, Note_on_c,7,81,0
9,742820, Note_on_c,7,82,90
9,742820, Note_on_c,7,77,90
9,743070, Note_on_c,7,77,0
9,743070, Note_on_c,7,82,0
9,743100, Note_on_c,7,82,90
9,743100, Note_on_c,7,77,90
9,743170, Note_on_c,7,77,0
9,743180, Note_on_c,7,82,0
9,743180, Note_on_c,7,77,90
9,743260, Note_on_c,7,77,0
9,743280, Note_on_c,7,82,90
9,743280, Note_on_c,7,77,90
9,743360, Note_on_c,7,77,0
9,743360, Note_on_c,7,82,0
9,743384, Note_on_c,7,83,90
9,743384, Note_on_c,7,78,90
9,743634, Note_on_c,7,78,0
9,743634, Note_on_c,7,83,0
9,743648, Note_on_c,7,83,90
9,743648, Note_on_c,7,78,90
9,743698, Note_on_c,7,78,0
9,743720, Note_on_c,7,78,90
9,743728, Note_on_c,7,83,0
9,743780, Note_on_c,7,78,0
9,743792, Note_on_c,7,83,90
9,743792, Note_on_c,7,78,90
9,743862, Note_on_c,7,78,0
9,743862, Note_on_c,7,83,0
9,743916, Note_on_c,7,84,90
9,743916, Note_on_c,7,79,90
9,744166, Note_on_c,7,79,0
9,744166, Note_on_c,7,84,0
9,744184, Note_on_c,7,84,90
9,744184, Note_on_c,7,79,90
9,744254, Note_on_c,7,79,0
9,744254, Note_on_c,7,84,0
9,744264, Note_on_c,7,79,90
9,744324, Note_on_c,7,79,0
9,744352, Note_on_c,7,84,90
9,744352, Note_on_c,7,79,90
9,744422, Note_on_c,7,79,0
9,744422, Note_on_c,7,84,0
9,744460, Note_on_c,7,85,90
9,744460, Note_on_c,7,80,90
9,744710, Note_on_c,7,80,0
9,744710, Note_on_c,7,85,0
9,744728, Note_on_c,7,85,90
9,744728, Note_on_c,7,80,90
9,744788, Note_on_c,7,80,0
9,744798, Note_on_c,7,85,0
9,744804, Note_on_c,7,80,90
9,744874, Note_on_c,7,80,0
9,744892, Note_on_c,7,85,90
9,744892, Note_on_c,7,80,90
9,744962, Note_on_c,7,80,0
9,744962, Note_on_c,7,85,0
9,745000, Note_on_c,7,81,90
9,745000, Note_on_c,7,86,90
9,745250, Note_on_c,7,86,0
9,745250, Note_on_c,7,81,0
9,745280, Note_on_c,7,87,90
9,745280, Note_on_c,7,82,90
9,745530, Note_on_c,7,82,0
9,745530, Note_on_c,7,87,0
9,745544, Note_on_c,7,88,90
9,745544, Note_on_c,7,83,90
9,745794, Note_on_c,7,83,0
9,745794, Note_on_c,7,88,0
9,745804, Note_on_c,7,89,90
9,745804, Note_on_c,7,84,90
9,746054, Note_on_c,7,84,0
9,746054, Note_on_c,7,89,0
9,746068, Note_on_c,7,90,90
9,746318, Note_on_c,7,90,0
9,746328, Note_on_c,7,91,90
9,746578, Note_on_c,7,91,0
9,746580, Note_on_c,7,92,90
9,746830, Note_on_c,7,92,0
9,746836, Note_on_c,7,93,90
9,747086, Note_on_c,7,93,0
9,747140, Note_on_c,7,94,90
9,747265, Control_c,7,11,90
9,747390, Note_on_c,7,94,0
9,747432, Note_on_c,7,70,90
9,747632, Note_on_c,7,70,0
9,747712, Note_on_c,7,73,90
9,747912, Note_on_c,7,73,0
9,747982, Note_on_c,7,78,90
9,748182, Note_on_c,7,78,0
9,748262, Note_on_c,7,82,90
9,748462, Note_on_c,7,82,0
9,748542, Note_on_c,7,82,90
9,748742, Note_on_c,7,82,0
9,748822, Note_on_c,7,85,90
9,749022, Note_on_c,7,85,0
9,749102, Note_on_c,7,90,90
9,749302, Note_on_c,7,90,0
9,749382, Note_on_c,7,94,90
9,749682, Note_on_c,7,94,0
9,750534, Note_on_c,7,94,90
9,750534, Note_on_c,7,90,90
9,750834, Note_on_c,7,90,0
9,750834, Note_on_c,7,94,0
9,751588, Note_on_c,7,94,90
9,751588, Note_on_c,7,90,90
9,751788, Note_on_c,7,90,0
9,751788, Note_on_c,7,94,0
9,752132, Note_on_c,7,94,90
9,752132, Note_on_c,7,90,90
9,752332, Note_on_c,7,90,0
9,752332, Note_on_c,7,94,0
9,752715, Note_on_c,7,94,90
9,752715, Note_on_c,7,90,90
9,752915, Note_on_c,7,90,0
9,752915, Note_on_c,7,94,0
9,753244, Note_on_c,7,94,90
9,753244, Note_on_c,7,90,90
9,753444, Note_on_c,7,90,0
9,753444, Note_on_c,7,94,0
9,753852, Note_on_c,7,94,90
9,753852, Note_on_c,7,90,90
9,754152, Note_on_c,7,90,0
9,754152, Note_on_c,7,94,0
9,882433, Control_c,7,11,80
9,882681, Note_on_c,7,77,70
9,883009, Note_on_c,7,77,0
9,883009, Note_on_c,7,79,70
9,883313, Note_on_c,7,79,0
9,883313, Note_on_c,7,81,70
9,883637, Note_on_c,7,81,0
9,883637, Note_on_c,7,77,70
9,883937, Note_on_c,7,77,0
9,883957, Note_on_c,7,79,70
9,884281, Note_on_c,7,79,0
9,884281, Note_on_c,7,81,70
9,884608, Note_on_c,7,81,0
9,884609, Note_on_c,7,82,70
9,884937, Note_on_c,7,82,0
9,884937, Note_on_c,7,77,70
9,885237, Note_on_c,7,77,0
9,885261, Note_on_c,7,79,70
9,885573, Note_on_c,7,72,70
9,885574, Note_on_c,7,79,0
9,885873, Note_on_c,7,72,0
9,885893, Note_on_c,7,79,70
9,886217, Note_on_c,7,79,0
9,886217, Note_on_c,7,72,70
9,886517, Note_on_c,7,72,0
9,886537, Note_on_c,7,79,70
9,886853, Note_on_c,7,77,70
9,886854, Note_on_c,7,79,0
9,887153, Note_on_c,7,77,0
9,887173, Note_on_c,7,79,70
9,887497, Note_on_c,7,79,0
9,887497, Note_on_c,7,74,70
9,887797, Note_on_c,7,74,0
9,888161, Note_on_c,7,77,70
9,888161, Note_on_c,7,75,70
9,888256, Note_on_c,7,75,0
9,888256, Note_on_c,7,77,0
9,888278, Note_on_c,7,81,70
9,888278, Note_on_c,7,75,70
9,888373, Note_on_c,7,75,0
9,888373, Note_on_c,7,81,0
9,888395, Note_on_c,7,84,70
9,888395, Note_on_c,7,77,70
9,888490, Note_on_c,7,77,0
9,888490, Note_on_c,7,84,0
9,888513, Note_on_c,7,89,70
9,888513, Note_on_c,7,84,70
9,888693, Note_on_c,7,84,0
9,888693, Note_on_c,7,89,0
9,888845, Note_on_c,7,77,70
9,888845, Note_on_c,7,75,70
9,888940, Note_on_c,7,75,0
9,888940, Note_on_c,7,77,0
9,888959, Note_on_c,7,81,70
9,888959, Note_on_c,7,75,70
9,889054, Note_on_c,7,75,0
9,889054, Note_on_c,7,81,0
9,889073, Note_on_c,7,84,70
9,889073, Note_on_c,7,77,70
9,889168, Note_on_c,7,77,0
9,889168, Note_on_c,7,84,0
9,889187, Note_on_c,7,89,70
9,889187, Note_on_c,7,84,70
9,889367, Note_on_c,7,84,0
9,889367, Note_on_c,7,89,0
9,889537, Note_on_c,7,77,70
9,889632, Note_on_c,7,77,0
9,889653, Note_on_c,7,82,70
9,889653, Note_on_c,7,77,70
9,889748, Note_on_c,7,77,0
9,889748, Note_on_c,7,82,0
9,889769, Note_on_c,7,86,70
9,889769, Note_on_c,7,82,70
9,889864, Note_on_c,7,82,0
9,889864, Note_on_c,7,86,0
9,889885, Note_on_c,7,89,70
9,889885, Note_on_c,7,86,70
9,890065, Note_on_c,7,86,0
9,890065, Note_on_c,7,89,0
9,890217, Note_on_c,7,77,70
9,890312, Note_on_c,7,77,0
9,890330, Note_on_c,7,82,70
9,890330, Note_on_c,7,77,70
9,890425, Note_on_c,7,77,0
9,890425, Note_on_c,7,82,0
9,890443, Note_on_c,7,86,70
9,890443, Note_on_c,7,82,70
9,890538, Note_on_c,7,82,0
9,890538, Note_on_c,7,86,0
9,890556, Note_on_c,7,89,70
9,890556, Note_on_c,7,86,70
9,890736, Note_on_c,7,86,0
9,890736, Note_on_c,7,89,0
9,890909, Note_on_c,7,77,70
9,890909, Note_on_c,7,75,70
9,891004, Note_on_c,7,75,0
9,891004, Note_on_c,7,77,0
9,891023, Note_on_c,7,81,70
9,891023, Note_on_c,7,75,70
9,891118, Note_on_c,7,75,0
9,891118, Note_on_c,7,81,0
9,891137, Note_on_c,7,84,70
9,891137, Note_on_c,7,81,70
9,891232, Note_on_c,7,81,0
9,891232, Note_on_c,7,84,0
9,891251, Note_on_c,7,89,70
9,891251, Note_on_c,7,84,70
9,891431, Note_on_c,7,84,0
9,891431, Note_on_c,7,89,0
9,891605, Note_on_c,7,77,70
9,891605, Note_on_c,7,75,70
9,891700, Note_on_c,7,75,0
9,891700, Note_on_c,7,77,0
9,891716, Note_on_c,7,81,70
9,891716, Note_on_c,7,75,70
9,891811, Note_on_c,7,75,0
9,891811, Note_on_c,7,81,0
9,891827, Note_on_c,7,84,70
9,891827, Note_on_c,7,81,70
9,891922, Note_on_c,7,81,0
9,891922, Note_on_c,7,84,0
9,891938, Note_on_c,7,89,70
9,891938, Note_on_c,7,84,70
9,892118, Note_on_c,7,84,0
9,892118, Note_on_c,7,89,0
9,892289, Note_on_c,7,89,70
9,892289, Note_on_c,7,86,70
9,892384, Note_on_c,7,86,0
9,892384, Note_on_c,7,89,0
9,892400, Note_on_c,7,86,70
9,892400, Note_on_c,7,82,70
9,892495, Note_on_c,7,82,0
9,892495, Note_on_c,7,86,0
9,892511, Note_on_c,7,82,70
9,892511, Note_on_c,7,77,70
9,892606, Note_on_c,7,77,0
9,892606, Note_on_c,7,82,0
9,892625, Note_on_c,7,77,70
9,892625, Note_on_c,7,70,70
9,892961, Note_on_c,7,70,0
9,892961, Note_on_c,7,77,0
9,892961, Note_on_c,7,79,70
9,893289, Note_on_c,7,79,0
9,893289, Note_on_c,7,81,70
9,893589, Note_on_c,7,81,0
9,893625, Note_on_c,7,81,70
9,893977, Note_on_c,7,81,0
9,893977, Note_on_c,7,79,70
9,894277, Note_on_c,7,79,0
9,903437, Note_on_c,7,77,70
9,903777, Note_on_c,7,77,0
9,903777, Note_on_c,7,79,70
9,904117, Note_on_c,7,79,0
9,904117, Note_on_c,7,81,70
9,904457, Note_on_c,7,81,0
9,904463, Note_on_c,7,81,70
9,904823, Note_on_c,7,81,0
9,904829, Note_on_c,7,79,70
9,905149, Note_on_c,7,79,0
9,913053, Note_on_c,7,82,70
9,913373, Note_on_c,7,82,0
9,913377, Note_on_c,7,83,70
9,913707, Note_on_c,7,83,0
9,913709, Note_on_c,7,84,70
9,914019, Note_on_c,7,84,0
9,914373, Note_on_c,7,84,70
9,914693, Note_on_c,7,84,0
9,914705, Note_on_c,7,85,70
9,915037, Note_on_c,7,85,0
9,915037, Note_on_c,7,86,70
9,915347, Note_on_c,7,86,0
9,915377, Note_on_c,7,79,70
9,915377, Note_on_c,7,74,70
9,916001, Note_on_c,7,74,0
9,916001, Note_on_c,7,79,0
9,916021, Note_on_c,7,79,70
9,916021, Note_on_c,7,75,70
9,916645, Note_on_c,7,75,0
9,916645, Note_on_c,7,79,0
9,916673, Note_on_c,7,81,70
9,916673, Note_on_c,7,76,70
9,917307, Note_on_c,7,76,0
9,917307, Note_on_c,7,81,0
9,917341, Note_on_c,7,81,70
9,917341, Note_on_c,7,77,70
9,917975, Note_on_c,7,77,0
9,917975, Note_on_c,7,81,0
9,918001, Note_on_c,7,82,70
9,918001, Note_on_c,7,77,70
9,918665, Note_on_c,7,77,0
9,918665, Note_on_c,7,82,0
9,918689, Note_on_c,7,82,70
9,918689, Note_on_c,7,78,70
9,918989, Note_on_c,7,78,0
9,918989, Note_on_c,7,82,0
9,920717, Note_on_c,7,82,90
9,920987, Note_on_c,7,82,0
9,921137, Note_on_c,7,82,90
9,921407, Note_on_c,7,82,0
9,921557, Note_on_c,7,82,90
9,921827, Note_on_c,7,82,0
9,923541, Note_on_c,7,82,90
9,923811, Note_on_c,7,82,0
9,923907, Note_on_c,7,82,90
9,924177, Note_on_c,7,82,0
9,924273, Note_on_c,7,82,90
9,924543, Note_on_c,7,82,0
9,924969, Note_on_c,7,82,90
9,925239, Note_on_c,7,82,0
9,926349, Note_on_c,7,82,90
9,926619, Note_on_c,7,82,0
9,927725, Note_on_c,7,82,90
9,928045, Note_on_c,7,82,0
9,933697, Note_on_c,7,84,90
9,933697, Note_on_c,7,82,90
9,934331, Note_on_c,7,82,0
9,934331, Note_on_c,7,84,0
9,934373, Note_on_c,7,84,90
9,934373, Note_on_c,7,82,90
9,934643, Note_on_c,7,82,0
9,934643, Note_on_c,7,84,0
9,934741, Note_on_c,7,86,90
9,934741, Note_on_c,7,82,90
9,935011, Note_on_c,7,82,0
9,935011, Note_on_c,7,86,0
9,935417, Note_on_c,7,85,90
9,935417, Note_on_c,7,90,90
9,935687, Note_on_c,7,90,0
9,935687, Note_on_c,7,85,0
9,936141, Note_on_c,7,89,90
9,936141, Note_on_c,7,86,90
9,936411, Note_on_c,7,86,0
9,936411, Note_on_c,7,89,0
9,936513, Note_on_c,7,84,90
9,936513, Note_on_c,7,82,90
9,937147, Note_on_c,7,82,0
9,937147, Note_on_c,7,84,0
9,937213, Note_on_c,7,84,90
9,937213, Note_on_c,7,82,90
9,937483, Note_on_c,7,82,0
9,937483, Note_on_c,7,84,0
9,937577, Note_on_c,7,86,90
9,937577, Note_on_c,7,82,90
9,937847, Note_on_c,7,82,0
9,937847, Note_on_c,7,86,0
9,938277, Note_on_c,7,85,90
9,938277, Note_on_c,7,90,90
9,938547, Note_on_c,7,90,0
9,938547, Note_on_c,7,85,0
9,939009, Note_on_c,7,89,90
9,939009, Note_on_c,7,86,90
9,939279, Note_on_c,7,86,0
9,939279, Note_on_c,7,89,0
9,939728, Note_on_c,7,85,90
9,939728, Note_on_c,7,90,90
9,939998, Note_on_c,7,90,0
9,939998, Note_on_c,7,85,0
9,940457, Note_on_c,7,89,90
9,940457, Note_on_c,7,86,90
9,940727, Note_on_c,7,86,0
9,940727, Note_on_c,7,89,0
9,941164, Note_on_c,7,85,90
9,941164, Note_on_c,7,90,90
9,941434, Note_on_c,7,90,0
9,941434, Note_on_c,7,85,0
9,941901, Note_on_c,7,89,90
9,941901, Note_on_c,7,86,90
9,942171, Note_on_c,7,86,0
9,942171, Note_on_c,7,89,0
9,942269, Note_on_c,7,90,90
9,942269, Note_on_c,7,85,90
9,942469, Note_on_c,7,85,0
9,942469, Note_on_c,7,90,0
9,942637, Note_on_c,7,89,90
9,942637, Note_on_c,7,86,90
9,942837, Note_on_c,7,86,0
9,942837, Note_on_c,7,89,0
9,943005, Note_on_c,7,90,90
9,943005, Note_on_c,7,85,90
9,943205, Note_on_c,7,85,0
9,943205, Note_on_c,7,90,0
9,943373, Note_on_c,7,89,90
9,943373, Note_on_c,7,86,90
9,943573, Note_on_c,7,86,0
9,943573, Note_on_c,7,89,0
9,943741, Note_on_c,7,90,90
9,943741, Note_on_c,7,85,90
9,943941, Note_on_c,7,85,0
9,943941, Note_on_c,7,90,0
9,944109, Note_on_c,7,89,90
9,944109, Note_on_c,7,86,90
9,944309, Note_on_c,7,86,0
9,944309, Note_on_c,7,89,0
9,944477, Note_on_c,7,90,90
9,944477, Note_on_c,7,85,90
9,944677, Note_on_c,7,85,0
9,944677, Note_on_c,7,90,0
9,944845, Note_on_c,7,89,90
9,944845, Note_on_c,7,86,90
9,945045, Note_on_c,7,86,0
9,945045, Note_on_c,7,89,0
9,946209, Note_on_c,7,89,90
9,946209, Note_on_c,7,86,90
9,946459, Note_on_c,7,86,0
9,946459, Note_on_c,7,89,0
9,946873, Note_on_c,7,89,90
9,946873, Note_on_c,7,86,90
9,947123, Note_on_c,7,86,0
9,947123, Note_on_c,7,89,0
9,947529, Note_on_c,7,89,90
9,947529, Note_on_c,7,86,90
9,947779, Note_on_c,7,86,0
9,947779, Note_on_c,7,89,0
9,948825, Note_on_c,7,86,90
9,949075, Note_on_c,7,86,0
9,950161, Note_on_c,7,82,90
9,950411, Note_on_c,7,82,0
9,950809, Note_on_c,7,82,90
9,951059, Note_on_c,7,82,0
9,951501, Note_on_c,7,82,90
9,951751, Note_on_c,7,82,0
9,952177, Note_on_c,7,82,90
9,952427, Note_on_c,7,82,0
9,952877, Note_on_c,7,82,90
9,953127, Note_on_c,7,82,0
9,953249, Note_on_c,7,82,90
9,953499, Note_on_c,7,82,0
9,953673, Note_on_c,7,82,90
9,954023, Note_on_c,7,82,0
9,954549, Note_on_c,7,70,90
9,956085, Note_on_c,7,70,0
9,956460, Control_c,7,121,0
9,956460, End_track,,,
10,0, Start_track,,,
10,0, MIDI_port,0,,
10,0, Title_t," ""Oboes""",,
10,0, Control_c,8,0,0
10,0, Control_c,8,32,0
10,0, Program_c,8,68,
10,0, Control_c,8,7,100
10,0, Control_c,8,10,50
10,3272, Control_c,8,11,80
10,3356, Control_c,8,91,127
10,3356, Note_on_c,8,85,80
10,3356, Note_on_c,8,77,80
10,3612, Note_on_c,8,77,0
10,3612, Note_on_c,8,85,0
10,4908, Note_on_c,8,77,80
10,4908, Note_on_c,8,85,80
10,5164, Note_on_c,8,85,0
10,5164, Note_on_c,8,77,0
10,6432, Note_on_c,8,75,80
10,6432, Note_on_c,8,72,80
10,6936, Note_on_c,8,72,0
10,6936, Note_on_c,8,75,0
10,6968, Note_on_c,8,73,80
10,6968, Note_on_c,8,77,80
10,7472, Note_on_c,8,77,0
10,7472, Note_on_c,8,73,0
10,7528, Note_on_c,8,73,80
10,7528, Note_on_c,8,78,80
10,8032, Note_on_c,8,78,0
10,8032, Note_on_c,8,73,0
10,8088, Note_on_c,8,79,80
10,8088, Note_on_c,8,73,80
10,8622, Note_on_c,8,73,0
10,8622, Note_on_c,8,79,0
10,8672, Note_on_c,8,80,80
10,8672, Note_on_c,8,75,80
10,9206, Note_on_c,8,75,0
10,9226, Note_on_c,8,80,0
10,9316, Note_on_c,8,80,80
10,9316, Note_on_c,8,73,80
10,9820, Note_on_c,8,73,0
10,9820, Note_on_c,8,80,0
10,11137, Control_c,8,11,75
10,11584, Note_on_c,8,73,70
10,11584, Note_on_c,8,65,70
10,16282, Note_on_c,8,65,0
10,16282, Note_on_c,8,73,0
10,16288, Note_on_c,8,66,70
10,16288, Note_on_c,8,73,70
10,19819, Note_on_c,8,73,0
10,19819, Note_on_c,8,66,0
10,19824, Note_on_c,8,75,70
10,19824, Note_on_c,8,68,70
10,23310, Note_on_c,8,68,0
10,23310, Note_on_c,8,75,0
10,23316, Note_on_c,8,77,70
10,23316, Note_on_c,8,68,70
10,24454, Note_on_c,8,68,0
10,24454, Note_on_c,8,77,0
10,24456, Note_on_c,8,77,70
10,24456, Note_on_c,8,68,70
10,25054, Note_on_c,8,68,0
10,25054, Note_on_c,8,77,0
10,25056, Note_on_c,8,75,70
10,25056, Note_on_c,8,68,70
10,26782, Note_on_c,8,68,0
10,26782, Note_on_c,8,75,0
10,26784, Note_on_c,8,77,70
10,26784, Note_on_c,8,68,70
10,28470, Note_on_c,8,68,0
10,28470, Note_on_c,8,77,0
10,28472, Note_on_c,8,73,70
10,30248, Note_on_c,8,73,0
10,30252, Note_on_c,8,82,70
10,30252, Note_on_c,8,73,70
10,32018, Note_on_c,8,73,0
10,32018, Note_on_c,8,82,0
10,32024, Note_on_c,8,82,70
10,32024, Note_on_c,8,72,70
10,33850, Note_on_c,8,72,0
10,33850, Note_on_c,8,82,0
10,33852, Note_on_c,8,81,70
10,33852, Note_on_c,8,72,70
10,34401, Note_on_c,8,72,0
10,34401, Note_on_c,8,81,0
10,34406, Note_on_c,8,80,70
10,34406, Note_on_c,8,70,70
10,34950, Note_on_c,8,70,0
10,34950, Note_on_c,8,80,0
10,34956, Note_on_c,8,79,70
10,34956, Note_on_c,8,70,70
10,35505, Note_on_c,8,70,0
10,35505, Note_on_c,8,79,0
10,35512, Note_on_c,8,78,70
10,35512, Note_on_c,8,68,70
10,36026, Note_on_c,8,68,0
10,36026, Note_on_c,8,78,0
10,36032, Note_on_c,8,77,70
10,36032, Note_on_c,8,68,70
10,36466, Note_on_c,8,68,0
10,36466, Note_on_c,8,77,0
10,36468, Note_on_c,8,77,70
10,36468, Note_on_c,8,70,70
10,37082, Note_on_c,8,70,0
10,37082, Note_on_c,8,77,0
10,37089, Note_on_c,8,68,70
10,37089, Note_on_c,8,77,70
10,38097, Note_on_c,8,77,0
10,38097, Note_on_c,8,68,0
10,38100, Note_on_c,8,68,70
10,38100, Note_on_c,8,77,70
10,38613, Note_on_c,8,77,0
10,38613, Note_on_c,8,68,0
10,38616, Note_on_c,8,79,70
10,38616, Note_on_c,8,70,70
10,39664, Note_on_c,8,70,0
10,39664, Note_on_c,8,79,0
10,39668, Note_on_c,8,78,70
10,39668, Note_on_c,8,72,70
10,40192, Note_on_c,8,72,0
10,40192, Note_on_c,8,78,0
10,40196, Note_on_c,8,73,70
10,40196, Note_on_c,8,77,70
10,40745, Note_on_c,8,77,0
10,40745, Note_on_c,8,73,0
10,55116, Note_on_c,8,80,70
10,55116, Note_on_c,8,71,70
10,55500, Note_on_c,8,71,0
10,55500, Note_on_c,8,80,0
10,55614, Note_on_c,8,80,70
10,55614, Note_on_c,8,72,70
10,55998, Note_on_c,8,72,0
10,55998, Note_on_c,8,80,0
10,56576, Note_on_c,8,73,70
10,56576, Note_on_c,8,80,70
10,56960, Note_on_c,8,80,0
10,56960, Note_on_c,8,73,0
10,57006, Note_on_c,8,80,70
10,57006, Note_on_c,8,73,70
10,57390, Note_on_c,8,73,0
10,57390, Note_on_c,8,80,0
10,58016, Note_on_c,8,82,70
10,58016, Note_on_c,8,74,70
10,58400, Note_on_c,8,74,0
10,58400, Note_on_c,8,82,0
10,58498, Note_on_c,8,82,70
10,58498, Note_on_c,8,75,70
10,58882, Note_on_c,8,75,0
10,58882, Note_on_c,8,82,0
10,59432, Note_on_c,8,84,70
10,59432, Note_on_c,8,76,70
10,59816, Note_on_c,8,76,0
10,59816, Note_on_c,8,84,0
10,59916, Note_on_c,8,84,70
10,59916, Note_on_c,8,77,70
10,60300, Note_on_c,8,77,0
10,60300, Note_on_c,8,84,0
10,93814, Note_on_c,8,69,70
10,93814, Note_on_c,8,75,70
10,93864, Note_on_c,8,75,0
10,93864, Note_on_c,8,69,0
10,93894, Note_on_c,8,69,70
10,93894, Note_on_c,8,75,70
10,94124, Note_on_c,8,75,0
10,94124, Note_on_c,8,69,0
10,95758, Note_on_c,8,72,70
10,95758, Note_on_c,8,78,70
10,95808, Note_on_c,8,78,0
10,95808, Note_on_c,8,72,0
10,95838, Note_on_c,8,72,70
10,95838, Note_on_c,8,78,70
10,96068, Note_on_c,8,78,0
10,96068, Note_on_c,8,72,0
10,97718, Note_on_c,8,75,70
10,97718, Note_on_c,8,81,70
10,97768, Note_on_c,8,81,0
10,97768, Note_on_c,8,75,0
10,97798, Note_on_c,8,75,70
10,97798, Note_on_c,8,81,70
10,98028, Note_on_c,8,81,0
10,98028, Note_on_c,8,75,0
10,107518, Note_on_c,8,73,70
10,107518, Note_on_c,8,68,70
10,111058, Note_on_c,8,68,0
10,111058, Note_on_c,8,73,0
10,111058, Note_on_c,8,75,70
10,111058, Note_on_c,8,70,70
10,114622, Note_on_c,8,70,0
10,114622, Note_on_c,8,75,0
10,114622, Note_on_c,8,75,70
10,114622, Note_on_c,8,72,70
10,118174, Note_on_c,8,72,0
10,118174, Note_on_c,8,75,0
10,118174, Note_on_c,8,77,70
10,118174, Note_on_c,8,61,70
10,119326, Note_on_c,8,61,0
10,119326, Note_on_c,8,77,0
10,119326, Note_on_c,8,77,70
10,119326, Note_on_c,8,61,70
10,119930, Note_on_c,8,61,0
10,119930, Note_on_c,8,77,0
10,119932, Note_on_c,8,75,70
10,119932, Note_on_c,8,72,70
10,120316, Note_on_c,8,72,0
10,120316, Note_on_c,8,75,0
10,121162, Note_on_c,8,72,70
10,121162, Note_on_c,8,68,70
10,121786, Note_on_c,8,68,0
10,121786, Note_on_c,8,72,0
10,121786, Note_on_c,8,73,70
10,121786, Note_on_c,8,68,70
10,123587, Note_on_c,8,68,0
10,123587, Note_on_c,8,73,0
10,123594, Note_on_c,8,80,70
10,123594, Note_on_c,8,73,70
10,125370, Note_on_c,8,73,0
10,125370, Note_on_c,8,80,0
10,125374, Note_on_c,8,75,70
10,125374, Note_on_c,8,73,70
10,127110, Note_on_c,8,73,0
10,127110, Note_on_c,8,75,0
10,127122, Note_on_c,8,75,70
10,127122, Note_on_c,8,72,70
10,128848, Note_on_c,8,72,0
10,128848, Note_on_c,8,75,0
10,128854, Note_on_c,8,72,70
10,128854, Note_on_c,8,75,70
10,129448, Note_on_c,8,75,0
10,129448, Note_on_c,8,72,0
10,129454, Note_on_c,8,74,70
10,129454, Note_on_c,8,70,70
10,130058, Note_on_c,8,70,0
10,130058, Note_on_c,8,74,0
10,130062, Note_on_c,8,70,70
10,130062, Note_on_c,8,73,70
10,130670, Note_on_c,8,73,0
10,130670, Note_on_c,8,70,0
10,130674, Note_on_c,8,72,70
10,130674, Note_on_c,8,68,70
10,131268, Note_on_c,8,68,0
10,131268, Note_on_c,8,72,0
10,131274, Note_on_c,8,68,70
10,131274, Note_on_c,8,73,70
10,131846, Note_on_c,8,73,0
10,131846, Note_on_c,8,68,0
10,131850, Note_on_c,8,73,70
10,131850, Note_on_c,8,70,70
10,132444, Note_on_c,8,70,0
10,132444, Note_on_c,8,73,0
10,132450, Note_on_c,8,68,70
10,132450, Note_on_c,8,73,70
10,134230, Note_on_c,8,73,0
10,134230, Note_on_c,8,68,0
10,134230, Note_on_c,8,75,70
10,134230, Note_on_c,8,70,70
10,134792, Note_on_c,8,70,0
10,134792, Note_on_c,8,75,0
10,134794, Note_on_c,8,79,70
10,134794, Note_on_c,8,67,70
10,135378, Note_on_c,8,67,0
10,135378, Note_on_c,8,79,0
10,135390, Note_on_c,8,78,70
10,135390, Note_on_c,8,68,70
10,135998, Note_on_c,8,68,0
10,135998, Note_on_c,8,78,0
10,136002, Note_on_c,8,77,70
10,136002, Note_on_c,8,68,70
10,136606, Note_on_c,8,68,0
10,136606, Note_on_c,8,77,0
10,199829, Note_on_c,8,81,80
10,199829, Note_on_c,8,84,80
10,199979, Note_on_c,8,84,0
10,199979, Note_on_c,8,81,0
10,204389, Note_on_c,8,84,80
10,204389, Note_on_c,8,87,80
10,204539, Note_on_c,8,87,0
10,204539, Note_on_c,8,84,0
10,206681, Note_on_c,8,79,80
10,206681, Note_on_c,8,76,80
10,206831, Note_on_c,8,76,0
10,206831, Note_on_c,8,79,0
10,224673, Note_on_c,8,74,80
10,224763, Note_on_c,8,74,0
10,224763, Note_on_c,8,76,80
10,224853, Note_on_c,8,76,0
10,224989, Note_on_c,8,77,80
10,225077, Note_on_c,8,76,80
10,225079, Note_on_c,8,77,0
10,225167, Note_on_c,8,76,0
10,225305, Note_on_c,8,79,80
10,225395, Note_on_c,8,79,0
10,225395, Note_on_c,8,77,80
10,225485, Note_on_c,8,77,0
10,225625, Note_on_c,8,76,80
10,225715, Note_on_c,8,76,0
10,225715, Note_on_c,8,74,80
10,225805, Note_on_c,8,74,0
10,225941, Note_on_c,8,72,80
10,226141, Note_on_c,8,72,0
10,227173, Note_on_c,8,74,80
10,227263, Note_on_c,8,74,0
10,227263, Note_on_c,8,76,80
10,227353, Note_on_c,8,76,0
10,227493, Note_on_c,8,77,80
10,227583, Note_on_c,8,77,0
10,227583, Note_on_c,8,76,80
10,227673, Note_on_c,8,76,0
10,227825, Note_on_c,8,79,80
10,227915, Note_on_c,8,79,0
10,227915, Note_on_c,8,77,80
10,228005, Note_on_c,8,77,0
10,228121, Note_on_c,8,76,80
10,228211, Note_on_c,8,76,0
10,228211, Note_on_c,8,74,80
10,228301, Note_on_c,8,74,0
10,228441, Note_on_c,8,72,80
10,228641, Note_on_c,8,72,0
10,235153, Note_on_c,8,72,80
10,235153, Note_on_c,8,70,80
10,235243, Note_on_c,8,70,0
10,235243, Note_on_c,8,72,0
10,235243, Note_on_c,8,74,80
10,235243, Note_on_c,8,70,80
10,235333, Note_on_c,8,70,0
10,235333, Note_on_c,8,74,0
10,235518, Note_on_c,8,70,80
10,235518, Note_on_c,8,76,80
10,235608, Note_on_c,8,76,0
10,235608, Note_on_c,8,70,0
10,235608, Note_on_c,8,70,80
10,235608, Note_on_c,8,74,80
10,235698, Note_on_c,8,74,0
10,235698, Note_on_c,8,70,0
10,235883, Note_on_c,8,70,80
10,235883, Note_on_c,8,77,80
10,235973, Note_on_c,8,77,0
10,235973, Note_on_c,8,70,0
10,235973, Note_on_c,8,76,80
10,235973, Note_on_c,8,70,80
10,236063, Note_on_c,8,70,0
10,236063, Note_on_c,8,76,0
10,236249, Note_on_c,8,74,80
10,236249, Note_on_c,8,70,80
10,236339, Note_on_c,8,70,0
10,236339, Note_on_c,8,74,0
10,236339, Note_on_c,8,72,80
10,236339, Note_on_c,8,70,80
10,236429, Note_on_c,8,70,0
10,236429, Note_on_c,8,72,0
10,237993, Note_on_c,8,72,80
10,237993, Note_on_c,8,74,80
10,238083, Note_on_c,8,74,0
10,238083, Note_on_c,8,72,0
10,238083, Note_on_c,8,72,80
10,238083, Note_on_c,8,76,80
10,238173, Note_on_c,8,76,0
10,238173, Note_on_c,8,72,0
10,238353, Note_on_c,8,72,80
10,238353, Note_on_c,8,77,80
10,238443, Note_on_c,8,77,0
10,238443, Note_on_c,8,72,0
10,238443, Note_on_c,8,72,80
10,238443, Note_on_c,8,76,80
10,238533, Note_on_c,8,76,0
10,238533, Note_on_c,8,72,0
10,238713, Note_on_c,8,72,80
10,238713, Note_on_c,8,79,80
10,238803, Note_on_c,8,79,0
10,238803, Note_on_c,8,72,0
10,238803, Note_on_c,8,77,80
10,238803, Note_on_c,8,72,80
10,238893, Note_on_c,8,72,0
10,238893, Note_on_c,8,77,0
10,239073, Note_on_c,8,72,80
10,239073, Note_on_c,8,76,80
10,239163, Note_on_c,8,76,0
10,239163, Note_on_c,8,72,0
10,239163, Note_on_c,8,72,80
10,239163, Note_on_c,8,77,80
10,239253, Note_on_c,8,77,0
10,239253, Note_on_c,8,72,0
10,240097, Note_on_c,8,77,80
10,240097, Note_on_c,8,75,80
10,240187, Note_on_c,8,75,0
10,240187, Note_on_c,8,77,0
10,240187, Note_on_c,8,75,80
10,240187, Note_on_c,8,78,80
10,240277, Note_on_c,8,78,0
10,240277, Note_on_c,8,75,0
10,240441, Note_on_c,8,78,80
10,240441, Note_on_c,8,75,80
10,240531, Note_on_c,8,75,0
10,240531, Note_on_c,8,78,0
10,240531, Note_on_c,8,75,80
10,240531, Note_on_c,8,77,80
10,240621, Note_on_c,8,77,0
10,240621, Note_on_c,8,75,0
10,241453, Note_on_c,8,77,80
10,241453, Note_on_c,8,73,80
10,241543, Note_on_c,8,73,0
10,241543, Note_on_c,8,77,0
10,241543, Note_on_c,8,73,80
10,241543, Note_on_c,8,79,80
10,241633, Note_on_c,8,79,0
10,241633, Note_on_c,8,73,0
10,241797, Note_on_c,8,79,80
10,241797, Note_on_c,8,73,80
10,241887, Note_on_c,8,73,0
10,241887, Note_on_c,8,79,0
10,241887, Note_on_c,8,77,80
10,241887, Note_on_c,8,73,80
10,241977, Note_on_c,8,73,0
10,241977, Note_on_c,8,77,0
10,242825, Note_on_c,8,79,80
10,242825, Note_on_c,8,74,80
10,242915, Note_on_c,8,74,0
10,242915, Note_on_c,8,79,0
10,242915, Note_on_c,8,80,80
10,242915, Note_on_c,8,74,80
10,243005, Note_on_c,8,74,0
10,243005, Note_on_c,8,80,0
10,243159, Note_on_c,8,74,80
10,243159, Note_on_c,8,80,80
10,243249, Note_on_c,8,80,0
10,243249, Note_on_c,8,74,0
10,243249, Note_on_c,8,74,80
10,243249, Note_on_c,8,79,80
10,243339, Note_on_c,8,79,0
10,243339, Note_on_c,8,74,0
10,244205, Note_on_c,8,71,80
10,244205, Note_on_c,8,67,80
10,244295, Note_on_c,8,67,0
10,244295, Note_on_c,8,71,0
10,244295, Note_on_c,8,72,80
10,244295, Note_on_c,8,67,80
10,244385, Note_on_c,8,67,0
10,244385, Note_on_c,8,72,0
10,244571, Note_on_c,8,67,80
10,244571, Note_on_c,8,73,80
10,244661, Note_on_c,8,73,0
10,244661, Note_on_c,8,67,0
10,244661, Note_on_c,8,72,80
10,244661, Note_on_c,8,67,80
10,244751, Note_on_c,8,67,0
10,244751, Note_on_c,8,72,0
10,245597, Note_on_c,8,77,80
10,245597, Note_on_c,8,72,80
10,245687, Note_on_c,8,72,0
10,245687, Note_on_c,8,77,0
10,245687, Note_on_c,8,78,80
10,245687, Note_on_c,8,72,80
10,245777, Note_on_c,8,72,0
10,245777, Note_on_c,8,78,0
10,245929, Note_on_c,8,78,80
10,245929, Note_on_c,8,72,80
10,246019, Note_on_c,8,72,0
10,246019, Note_on_c,8,78,0
10,246019, Note_on_c,8,77,80
10,246019, Note_on_c,8,72,80
10,246109, Note_on_c,8,72,0
10,246109, Note_on_c,8,77,0
10,275733, Note_on_c,8,77,60
10,275733, Note_on_c,8,70,60
10,276003, Note_on_c,8,70,0
10,276003, Note_on_c,8,77,0
10,276074, Note_on_c,8,72,80
10,276074, Note_on_c,8,70,80
10,276748, Note_on_c,8,70,0
10,276748, Note_on_c,8,72,0
10,276756, Note_on_c,8,73,60
10,276756, Note_on_c,8,70,60
10,277056, Note_on_c,8,70,0
10,277056, Note_on_c,8,73,0
10,278345, Note_on_c,8,65,60
10,278345, Note_on_c,8,73,60
10,278615, Note_on_c,8,73,0
10,278615, Note_on_c,8,65,0
10,278686, Note_on_c,8,64,80
10,279360, Note_on_c,8,64,0
10,279366, Note_on_c,8,65,60
10,279666, Note_on_c,8,65,0
10,333010, Note_on_c,8,84,60
10,333010, Note_on_c,8,81,60
10,333414, Note_on_c,8,81,0
10,333414, Note_on_c,8,84,0
10,333422, Note_on_c,8,84,60
10,333422, Note_on_c,8,81,60
10,333826, Note_on_c,8,81,0
10,333826, Note_on_c,8,84,0
10,345938, Note_on_c,8,73,70
10,346288, Note_on_c,8,73,0
10,346322, Note_on_c,8,69,85
10,347051, Note_on_c,8,69,0
10,347054, Note_on_c,8,70,60
10,347394, Note_on_c,8,70,0
10,347454, Note_on_c,8,77,70
10,347804, Note_on_c,8,77,0
10,347814, Note_on_c,8,72,85
10,348518, Note_on_c,8,72,0
10,348522, Note_on_c,8,73,60
10,348852, Note_on_c,8,73,0
10,348938, Note_on_c,8,80,85
10,349288, Note_on_c,8,80,0
10,349302, Note_on_c,8,79,85
10,349662, Note_on_c,8,79,0
10,349670, Note_on_c,8,82,90
10,350030, Note_on_c,8,82,0
10,350034, Note_on_c,8,80,90
10,350394, Note_on_c,8,80,0
10,350406, Note_on_c,8,79,85
10,350766, Note_on_c,8,79,0
10,350774, Note_on_c,8,77,80
10,351124, Note_on_c,8,77,0
10,351134, Note_on_c,8,75,75
10,351494, Note_on_c,8,75,0
10,351518, Note_on_c,8,70,70
10,351868, Note_on_c,8,70,0
10,351890, Note_on_c,8,72,65
10,352240, Note_on_c,8,72,0
10,372054, Note_on_c,8,72,80
10,372054, Note_on_c,8,75,80
10,373006, Note_on_c,8,75,80
10,373006, Note_on_c,8,72,80
10,373092, Note_on_c,8,72,0
10,373092, Note_on_c,8,75,0
10,373096, Note_on_c,8,75,0
10,373096, Note_on_c,8,72,0
10,373111, Note_on_c,8,72,80
10,373111, Note_on_c,8,75,80
10,373201, Note_on_c,8,75,0
10,373201, Note_on_c,8,72,0
10,373322, Note_on_c,8,72,85
10,373322, Note_on_c,8,75,85
10,374250, Note_on_c,8,75,0
10,374250, Note_on_c,8,72,0
10,374274, Note_on_c,8,72,85
10,374274, Note_on_c,8,75,85
10,374364, Note_on_c,8,75,0
10,374364, Note_on_c,8,72,0
10,374377, Note_on_c,8,72,85
10,374377, Note_on_c,8,75,85
10,374467, Note_on_c,8,75,0
10,374467, Note_on_c,8,72,0
10,374479, Note_on_c,8,72,85
10,374479, Note_on_c,8,75,85
10,374569, Note_on_c,8,75,0
10,374569, Note_on_c,8,72,0
10,374582, Note_on_c,8,73,90
10,374582, Note_on_c,8,76,90
10,375520, Note_on_c,8,76,0
10,375520, Note_on_c,8,73,0
10,375542, Note_on_c,8,73,90
10,375542, Note_on_c,8,76,90
10,375632, Note_on_c,8,76,0
10,375632, Note_on_c,8,73,0
10,375639, Note_on_c,8,73,90
10,375639, Note_on_c,8,76,90
10,375729, Note_on_c,8,76,0
10,375729, Note_on_c,8,73,0
10,375736, Note_on_c,8,73,90
10,375736, Note_on_c,8,76,90
10,375826, Note_on_c,8,76,0
10,375826, Note_on_c,8,73,0
10,375834, Note_on_c,8,77,95
10,375834, Note_on_c,8,74,95
10,376124, Note_on_c,8,74,0
10,376124, Note_on_c,8,77,0
10,376160, Note_on_c,8,77,95
10,376160, Note_on_c,8,74,95
10,376250, Note_on_c,8,74,0
10,376250, Note_on_c,8,77,0
10,376265, Note_on_c,8,77,95
10,376265, Note_on_c,8,74,95
10,376355, Note_on_c,8,74,0
10,376355, Note_on_c,8,77,0
10,376370, Note_on_c,8,77,95
10,376370, Note_on_c,8,74,95
10,376460, Note_on_c,8,74,0
10,376460, Note_on_c,8,77,0
10,376478, Note_on_c,8,77,100
10,376478, Note_on_c,8,74,100
10,376768, Note_on_c,8,74,0
10,376768, Note_on_c,8,77,0
10,376782, Note_on_c,8,77,100
10,376782, Note_on_c,8,74,100
10,376872, Note_on_c,8,74,0
10,376872, Note_on_c,8,77,0
10,376879, Note_on_c,8,77,100
10,376879, Note_on_c,8,74,100
10,376969, Note_on_c,8,74,0
10,376969, Note_on_c,8,77,0
10,376976, Note_on_c,8,77,100
10,376976, Note_on_c,8,74,100
10,377066, Note_on_c,8,74,0
10,377066, Note_on_c,8,77,0
10,377074, Note_on_c,8,78,105
10,377074, Note_on_c,8,75,105
10,377364, Note_on_c,8,75,0
10,377364, Note_on_c,8,78,0
10,377378, Note_on_c,8,78,105
10,377378, Note_on_c,8,75,105
10,377468, Note_on_c,8,75,0
10,377468, Note_on_c,8,78,0
10,377472, Note_on_c,8,78,105
10,377472, Note_on_c,8,75,105
10,377562, Note_on_c,8,75,0
10,377562, Note_on_c,8,78,0
10,377566, Note_on_c,8,78,105
10,377566, Note_on_c,8,75,105
10,377656, Note_on_c,8,75,0
10,377656, Note_on_c,8,78,0
10,377670, Note_on_c,8,79,110
10,377670, Note_on_c,8,76,110
10,377960, Note_on_c,8,76,0
10,377960, Note_on_c,8,79,0
10,377962, Note_on_c,8,79,110
10,377962, Note_on_c,8,76,110
10,378052, Note_on_c,8,76,0
10,378052, Note_on_c,8,79,0
10,378058, Note_on_c,8,76,110
10,378058, Note_on_c,8,79,110
10,378148, Note_on_c,8,79,0
10,378148, Note_on_c,8,76,0
10,378154, Note_on_c,8,76,110
10,378154, Note_on_c,8,79,110
10,378244, Note_on_c,8,79,0
10,378244, Note_on_c,8,76,0
10,378250, Note_on_c,8,77,110
10,378250, Note_on_c,8,80,110
10,378734, Note_on_c,8,80,0
10,378734, Note_on_c,8,77,0
10,378846, Note_on_c,8,78,115
10,378846, Note_on_c,8,81,115
10,379330, Note_on_c,8,81,0
10,379330, Note_on_c,8,78,0
10,379446, Note_on_c,8,79,120
10,379446, Note_on_c,8,70,120
10,379722, Note_on_c,8,80,120
10,379722, Note_on_c,8,71,120
10,379746, Note_on_c,8,70,0
10,379746, Note_on_c,8,79,0
10,379998, Note_on_c,8,81,120
10,379998, Note_on_c,8,72,120
10,380022, Note_on_c,8,80,0
10,380022, Note_on_c,8,71,0
10,380161, Control_c,8,11,110
10,380282, Note_on_c,8,74,120
10,380282, Note_on_c,8,83,120
10,380298, Note_on_c,8,81,0
10,380298, Note_on_c,8,72,0
10,380582, Note_on_c,8,74,0
10,380582, Note_on_c,8,83,0
10,380614, Note_on_c,8,74,120
10,380614, Note_on_c,8,83,120
10,380764, Note_on_c,8,83,0
10,380764, Note_on_c,8,74,0
10,383278, Note_on_c,8,81,120
10,383278, Note_on_c,8,84,120
10,383428, Note_on_c,8,84,0
10,383428, Note_on_c,8,81,0
10,385920, Note_on_c,8,77,120
10,385920, Note_on_c,8,80,120
10,386070, Note_on_c,8,80,0
10,386070, Note_on_c,8,77,0
10,386566, Note_on_c,8,77,120
10,386566, Note_on_c,8,80,120
10,386716, Note_on_c,8,80,0
10,386716, Note_on_c,8,77,0
10,387194, Note_on_c,8,80,120
10,387194, Note_on_c,8,77,120
10,387344, Note_on_c,8,77,0
10,387344, Note_on_c,8,80,0
10,387850, Note_on_c,8,80,120
10,387850, Note_on_c,8,77,120
10,388000, Note_on_c,8,77,0
10,388000, Note_on_c,8,80,0
10,388522, Note_on_c,8,84,120
10,388522, Note_on_c,8,78,120
10,388672, Note_on_c,8,78,0
10,388672, Note_on_c,8,84,0
10,389290, Note_on_c,8,79,120
10,389290, Note_on_c,8,84,120
10,389440, Note_on_c,8,84,0
10,389440, Note_on_c,8,79,0
10,430081, Control_c,8,11,60
10,435590, Note_on_c,8,72,60
10,435590, Note_on_c,8,80,60
10,438628, Note_on_c,8,80,0
10,438628, Note_on_c,8,72,0
10,442753, Control_c,8,11,80
10,445042, Control_c,8,11,81
10,447332, Control_c,8,11,82
10,449621, Control_c,8,11,83
10,451911, Control_c,8,11,84
10,454147, Note_on_c,8,79,70
10,454201, Control_c,8,11,85
10,454457, Note_on_c,8,79,0
10,454463, Note_on_c,8,74,70
10,454773, Note_on_c,8,74,0
10,454779, Note_on_c,8,75,70
10,455089, Note_on_c,8,75,0
10,455095, Note_on_c,8,72,70
10,455405, Note_on_c,8,72,0
10,456490, Control_c,8,11,86
10,456675, Note_on_c,8,81,70
10,456985, Note_on_c,8,81,0
10,456991, Note_on_c,8,76,70
10,457301, Note_on_c,8,76,0
10,457307, Note_on_c,8,77,70
10,457617, Note_on_c,8,77,0
10,457623, Note_on_c,8,74,70
10,457933, Note_on_c,8,74,0
10,458780, Control_c,8,11,87
10,460783, Note_on_c,8,69,70
10,460783, Note_on_c,8,72,70
10,461070, Control_c,8,11,88
10,461413, Note_on_c,8,72,0
10,461413, Note_on_c,8,69,0
10,462047, Note_on_c,8,84,70
10,462047, Note_on_c,8,81,70
10,462677, Note_on_c,8,81,0
10,462677, Note_on_c,8,84,0
10,463359, Control_c,8,11,89
10,465649, Control_c,8,11,90
10,465839, Note_on_c,8,74,70
10,465839, Note_on_c,8,71,70
10,466469, Note_on_c,8,71,0
10,466469, Note_on_c,8,74,0
10,467103, Note_on_c,8,83,80
10,467103, Note_on_c,8,86,80
10,467733, Note_on_c,8,86,0
10,467733, Note_on_c,8,83,0
10,467938, Control_c,8,11,91
10,470228, Control_c,8,11,92
10,470579, Note_on_c,8,76,70
10,470579, Note_on_c,8,64,70
10,470889, Note_on_c,8,64,0
10,470889, Note_on_c,8,76,0
10,470895, Note_on_c,8,78,70
10,470895, Note_on_c,8,66,70
10,471205, Note_on_c,8,66,0
10,471205, Note_on_c,8,78,0
10,471211, Note_on_c,8,80,70
10,471211, Note_on_c,8,68,70
10,471521, Note_on_c,8,68,0
10,471521, Note_on_c,8,80,0
10,471527, Note_on_c,8,76,70
10,471527, Note_on_c,8,64,70
10,471837, Note_on_c,8,64,0
10,471837, Note_on_c,8,76,0
10,471843, Note_on_c,8,78,70
10,471843, Note_on_c,8,66,70
10,472153, Note_on_c,8,66,0
10,472153, Note_on_c,8,78,0
10,472159, Note_on_c,8,80,70
10,472159, Note_on_c,8,68,70
10,472469, Note_on_c,8,68,0
10,472469, Note_on_c,8,80,0
10,472485, Note_on_c,8,81,70
10,472485, Note_on_c,8,69,70
10,472518, Control_c,8,11,93
10,472795, Note_on_c,8,69,0
10,472795, Note_on_c,8,81,0
10,472801, Note_on_c,8,76,70
10,472801, Note_on_c,8,64,70
10,473111, Note_on_c,8,64,0
10,473111, Note_on_c,8,76,0
10,474807, Control_c,8,11,94
10,475645, Note_on_c,8,74,80
10,475645, Note_on_c,8,62,80
10,475955, Note_on_c,8,62,0
10,475955, Note_on_c,8,74,0
10,475961, Note_on_c,8,76,80
10,475961, Note_on_c,8,64,80
10,476277, Note_on_c,8,78,80
10,476277, Note_on_c,8,66,80
10,476321, Note_on_c,8,64,0
10,476321, Note_on_c,8,76,0
10,476587, Note_on_c,8,78,0
10,476587, Note_on_c,8,66,0
10,476593, Note_on_c,8,62,80
10,476593, Note_on_c,8,74,80
10,476903, Note_on_c,8,74,0
10,476903, Note_on_c,8,62,0
10,476909, Note_on_c,8,64,80
10,476909, Note_on_c,8,76,80
10,477097, Control_c,8,11,95
10,477219, Note_on_c,8,76,0
10,477219, Note_on_c,8,64,0
10,477225, Note_on_c,8,66,80
10,477225, Note_on_c,8,78,80
10,477535, Note_on_c,8,78,0
10,477535, Note_on_c,8,66,0
10,477551, Note_on_c,8,79,80
10,477551, Note_on_c,8,67,80
10,477861, Note_on_c,8,67,0
10,477861, Note_on_c,8,79,0
10,477867, Note_on_c,8,62,80
10,477867, Note_on_c,8,74,80
10,478177, Note_on_c,8,74,0
10,478177, Note_on_c,8,62,0
10,478183, Note_on_c,8,79,90
10,478183, Note_on_c,8,67,90
10,478493, Note_on_c,8,67,0
10,478493, Note_on_c,8,79,0
10,478499, Note_on_c,8,79,90
10,478499, Note_on_c,8,69,90
10,478809, Note_on_c,8,69,0
10,478815, Note_on_c,8,71,90
10,479125, Note_on_c,8,71,0
10,479131, Note_on_c,8,67,90
10,479387, Control_c,8,11,96
10,479441, Note_on_c,8,67,0
10,479447, Note_on_c,8,69,90
10,479757, Note_on_c,8,69,0
10,479763, Note_on_c,8,71,90
10,480073, Note_on_c,8,71,0
10,480089, Note_on_c,8,72,90
10,480399, Note_on_c,8,72,0
10,480405, Note_on_c,8,74,90
10,480419, Note_on_c,8,79,0
10,480715, Note_on_c,8,74,0
10,480723, Note_on_c,8,79,90
10,480723, Note_on_c,8,67,90
10,481033, Note_on_c,8,67,0
10,481033, Note_on_c,8,79,0
10,481039, Note_on_c,8,79,90
10,481039, Note_on_c,8,69,90
10,481349, Note_on_c,8,69,0
10,481355, Note_on_c,8,71,90
10,481665, Note_on_c,8,71,0
10,481671, Note_on_c,8,67,90
10,481676, Control_c,8,11,97
10,481981, Note_on_c,8,67,0
10,481987, Note_on_c,8,69,90
10,482297, Note_on_c,8,69,0
10,482303, Note_on_c,8,71,90
10,482613, Note_on_c,8,71,0
10,482629, Note_on_c,8,72,90
10,482939, Note_on_c,8,72,0
10,482945, Note_on_c,8,74,90
10,482959, Note_on_c,8,79,0
10,483255, Note_on_c,8,74,0
10,483261, Note_on_c,8,84,90
10,483261, Note_on_c,8,72,90
10,483571, Note_on_c,8,72,0
10,483571, Note_on_c,8,84,0
10,483577, Note_on_c,8,84,90
10,483577, Note_on_c,8,72,90
10,483966, Control_c,8,11,98
10,484817, Note_on_c,8,72,0
10,484817, Note_on_c,8,84,0
10,484841, Note_on_c,8,82,90
10,484841, Note_on_c,8,70,90
10,485151, Note_on_c,8,70,0
10,485151, Note_on_c,8,82,0
10,485167, Note_on_c,8,80,90
10,485167, Note_on_c,8,68,90
10,485477, Note_on_c,8,68,0
10,485477, Note_on_c,8,80,0
10,485483, Note_on_c,8,79,90
10,485483, Note_on_c,8,67,90
10,485793, Note_on_c,8,67,0
10,485793, Note_on_c,8,79,0
10,485799, Note_on_c,8,84,90
10,485799, Note_on_c,8,72,90
10,486109, Note_on_c,8,72,0
10,486109, Note_on_c,8,84,0
10,486115, Note_on_c,8,84,90
10,486115, Note_on_c,8,72,90
10,486256, Control_c,8,11,99
10,487355, Note_on_c,8,72,0
10,487355, Note_on_c,8,84,0
10,487379, Note_on_c,8,82,90
10,487379, Note_on_c,8,70,90
10,487689, Note_on_c,8,70,0
10,487689, Note_on_c,8,82,0
10,487705, Note_on_c,8,80,90
10,487705, Note_on_c,8,68,90
10,488015, Note_on_c,8,68,0
10,488015, Note_on_c,8,80,0
10,488021, Note_on_c,8,79,90
10,488021, Note_on_c,8,67,90
10,488331, Note_on_c,8,67,0
10,488331, Note_on_c,8,79,0
10,488337, Note_on_c,8,80,90
10,488337, Note_on_c,8,84,90
10,488545, Control_c,8,11,100
10,488647, Note_on_c,8,84,0
10,488647, Note_on_c,8,80,0
10,488653, Note_on_c,8,80,90
10,488653, Note_on_c,8,84,90
10,488963, Note_on_c,8,84,0
10,488963, Note_on_c,8,80,0
10,488969, Note_on_c,8,80,90
10,488969, Note_on_c,8,84,90
10,489279, Note_on_c,8,84,0
10,489279, Note_on_c,8,80,0
10,489285, Note_on_c,8,80,90
10,489285, Note_on_c,8,84,90
10,489595, Note_on_c,8,84,0
10,489595, Note_on_c,8,80,0
10,489601, Note_on_c,8,80,90
10,489601, Note_on_c,8,84,90
10,489911, Note_on_c,8,84,0
10,489911, Note_on_c,8,80,0
10,489917, Note_on_c,8,80,90
10,489917, Note_on_c,8,84,90
10,490227, Note_on_c,8,84,0
10,490227, Note_on_c,8,80,0
10,490243, Note_on_c,8,80,90
10,490243, Note_on_c,8,84,90
10,490553, Note_on_c,8,84,0
10,490553, Note_on_c,8,80,0
10,490559, Note_on_c,8,77,90
10,490559, Note_on_c,8,80,90
10,490835, Control_c,8,11,101
10,490869, Note_on_c,8,80,0
10,490869, Note_on_c,8,77,0
10,491192, Note_on_c,8,80,90
10,491192, Note_on_c,8,84,90
10,491992, Note_on_c,8,84,0
10,491992, Note_on_c,8,80,0
10,492458, Note_on_c,8,80,90
10,492458, Note_on_c,8,86,90
10,493124, Control_c,8,11,102
10,493258, Note_on_c,8,86,0
10,493258, Note_on_c,8,80,0
10,493407, Note_on_c,8,80,90
10,493407, Note_on_c,8,84,90
10,493717, Note_on_c,8,84,0
10,493717, Note_on_c,8,80,0
10,493723, Note_on_c,8,80,90
10,493723, Note_on_c,8,84,90
10,494033, Note_on_c,8,84,0
10,494033, Note_on_c,8,80,0
10,494039, Note_on_c,8,80,90
10,494039, Note_on_c,8,84,90
10,494349, Note_on_c,8,84,0
10,494349, Note_on_c,8,80,0
10,494355, Note_on_c,8,80,90
10,494355, Note_on_c,8,84,90
10,494665, Note_on_c,8,84,0
10,494665, Note_on_c,8,80,0
10,494671, Note_on_c,8,84,90
10,494671, Note_on_c,8,80,90
10,494981, Note_on_c,8,80,0
10,494981, Note_on_c,8,84,0
10,494987, Note_on_c,8,84,90
10,494987, Note_on_c,8,80,90
10,495297, Note_on_c,8,80,0
10,495297, Note_on_c,8,84,0
10,495313, Note_on_c,8,84,90
10,495313, Note_on_c,8,80,90
10,495414, Control_c,8,11,103
10,495623, Note_on_c,8,80,0
10,495623, Note_on_c,8,84,0
10,495629, Note_on_c,8,77,90
10,495629, Note_on_c,8,80,90
10,495939, Note_on_c,8,80,0
10,495939, Note_on_c,8,77,0
10,496262, Note_on_c,8,84,90
10,496262, Note_on_c,8,80,90
10,497514, Note_on_c,8,80,0
10,497514, Note_on_c,8,84,0
10,497528, Note_on_c,8,86,90
10,497528, Note_on_c,8,80,90
10,497704, Control_c,8,11,104
10,498780, Note_on_c,8,80,0
10,498780, Note_on_c,8,86,0
10,498794, Note_on_c,8,86,90
10,498794, Note_on_c,8,80,90
10,499993, Control_c,8,11,105
10,500046, Note_on_c,8,80,0
10,500046, Note_on_c,8,86,0
10,502283, Control_c,8,11,106
10,504573, Control_c,8,11,107
10,506862, Control_c,8,11,108
10,509152, Control_c,8,11,109
10,511442, Control_c,8,11,110
10,511442, Note_on_c,8,82,90
10,511442, Note_on_c,8,75,90
10,511642, Note_on_c,8,75,0
10,511642, Note_on_c,8,82,0
10,557185, Control_c,8,11,80
10,557385, Note_on_c,8,82,80
10,557385, Note_on_c,8,79,80
10,557835, Note_on_c,8,79,0
10,557835, Note_on_c,8,82,0
10,558382, Note_on_c,8,82,80
10,558382, Note_on_c,8,79,80
10,558832, Note_on_c,8,79,0
10,558832, Note_on_c,8,82,0
10,559365, Note_on_c,8,82,80
10,559365, Note_on_c,8,79,80
10,559815, Note_on_c,8,79,0
10,559815, Note_on_c,8,82,0
10,560365, Note_on_c,8,79,80
10,560365, Note_on_c,8,82,80
10,560815, Note_on_c,8,82,0
10,560815, Note_on_c,8,79,0
10,561025, Control_c,8,11,70
10,561252, Note_on_c,8,64,70
10,561252, Note_on_c,8,68,70
10,562800, Note_on_c,8,68,0
10,562800, Note_on_c,8,64,0
10,563148, Note_on_c,8,64,70
10,563148, Note_on_c,8,68,70
10,565014, Note_on_c,8,68,0
10,565014, Note_on_c,8,64,0
10,565680, Note_on_c,8,73,70
10,565680, Note_on_c,8,69,70
10,567216, Note_on_c,8,69,0
10,567216, Note_on_c,8,73,0
10,567822, Note_on_c,8,69,70
10,567822, Note_on_c,8,73,70
10,568600, Note_on_c,8,73,0
10,568600, Note_on_c,8,69,0
10,570268, Note_on_c,8,63,70
10,571750, Note_on_c,8,63,0
10,572164, Note_on_c,8,63,70
10,573646, Note_on_c,8,63,0
10,574432, Note_on_c,8,63,70
10,574792, Note_on_c,8,63,0
10,574808, Note_on_c,8,68,70
10,576060, Note_on_c,8,68,0
10,576648, Note_on_c,8,68,70
10,578220, Note_on_c,8,68,0
10,578864, Note_on_c,8,68,70
10,579224, Note_on_c,8,68,0
10,579240, Note_on_c,8,73,70
10,580438, Note_on_c,8,73,0
10,581096, Note_on_c,8,73,70
10,582348, Note_on_c,8,73,0
10,583312, Note_on_c,8,73,70
10,583587, Note_on_c,8,73,0
10,583698, Control_c,8,11,70
10,583698, Note_on_c,8,73,70
10,583698, Note_on_c,8,78,70
10,583783, Control_c,8,11,71
10,583869, Control_c,8,11,72
10,583954, Control_c,8,11,73
10,584040, Control_c,8,11,74
10,584125, Control_c,8,11,75
10,584211, Control_c,8,11,76
10,584296, Control_c,8,11,77
10,584382, Control_c,8,11,78
10,584467, Control_c,8,11,79
10,584553, Control_c,8,11,80
10,584636, Note_on_c,8,78,0
10,584636, Note_on_c,8,73,0
10,584638, Control_c,8,11,81
10,584724, Control_c,8,11,82
10,584809, Control_c,8,11,83
10,584838, Note_on_c,8,75,70
10,584838, Note_on_c,8,79,70
10,584895, Control_c,8,11,84
10,584980, Control_c,8,11,85
10,585066, Control_c,8,11,86
10,585151, Control_c,8,11,87
10,585237, Control_c,8,11,88
10,585322, Control_c,8,11,89
10,585408, Control_c,8,11,90
10,585493, Control_c,8,11,91
10,585579, Control_c,8,11,92
10,585664, Control_c,8,11,93
10,585750, Control_c,8,11,94
10,585776, Note_on_c,8,79,0
10,585776, Note_on_c,8,75,0
10,585835, Control_c,8,11,95
10,585921, Control_c,8,11,96
10,585978, Note_on_c,8,79,70
10,585978, Note_on_c,8,76,70
10,586006, Control_c,8,11,97
10,586092, Control_c,8,11,98
10,586177, Control_c,8,11,99
10,586263, Control_c,8,11,100
10,586348, Control_c,8,11,101
10,586434, Control_c,8,11,102
10,586519, Control_c,8,11,103
10,586605, Control_c,8,11,104
10,586690, Control_c,8,11,105
10,586776, Control_c,8,11,106
10,586861, Control_c,8,11,107
10,586916, Note_on_c,8,76,0
10,586916, Note_on_c,8,79,0
10,586947, Control_c,8,11,108
10,587032, Control_c,8,11,109
10,587118, Control_c,8,11,110
10,587118, Note_on_c,8,80,70
10,587118, Note_on_c,8,77,70
10,588056, Note_on_c,8,77,0
10,588056, Note_on_c,8,80,0
10,588828, Note_on_c,8,71,90
10,588828, Note_on_c,8,78,90
10,589028, Note_on_c,8,78,0
10,589028, Note_on_c,8,71,0
10,589968, Note_on_c,8,77,90
10,589968, Note_on_c,8,80,90
10,590168, Note_on_c,8,80,0
10,590168, Note_on_c,8,77,0
10,591108, Note_on_c,8,71,90
10,591108, Note_on_c,8,78,90
10,591308, Note_on_c,8,78,0
10,591308, Note_on_c,8,71,0
10,618036, Note_on_c,8,85,100
10,618036, Note_on_c,8,82,100
10,618216, Note_on_c,8,82,0
10,618216, Note_on_c,8,85,0
10,619688, Note_on_c,8,85,100
10,619688, Note_on_c,8,82,100
10,619868, Note_on_c,8,82,0
10,619868, Note_on_c,8,85,0
10,656641, Control_c,8,11,70
10,656716, Note_on_c,8,72,60
10,656716, Note_on_c,8,67,60
10,656986, Note_on_c,8,67,0
10,656986, Note_on_c,8,72,0
10,657057, Note_on_c,8,72,80
10,657057, Note_on_c,8,68,80
10,657731, Note_on_c,8,68,0
10,657731, Note_on_c,8,72,0
10,657739, Note_on_c,8,72,60
10,657739, Note_on_c,8,67,60
10,658039, Note_on_c,8,67,0
10,658039, Note_on_c,8,72,0
10,659328, Note_on_c,8,72,60
10,659328, Note_on_c,8,67,60
10,659598, Note_on_c,8,67,0
10,659598, Note_on_c,8,72,0
10,663169, Control_c,8,11,90
10,663378, Note_on_c,8,75,72
10,663746, Note_on_c,8,71,67
10,663778, Note_on_c,8,75,0
10,664414, Note_on_c,8,72,72
10,664442, Note_on_c,8,71,0
10,664790, Note_on_c,8,72,0
10,664790, Note_on_c,8,79,74
10,665154, Note_on_c,8,74,71
10,665174, Note_on_c,8,79,0
10,665838, Note_on_c,8,75,65
10,665890, Note_on_c,8,74,0
10,666194, Note_on_c,8,82,68
10,666198, Note_on_c,8,75,0
10,666538, Note_on_c,8,81,79
10,666546, Note_on_c,8,82,0
10,666894, Note_on_c,8,84,79
10,666922, Note_on_c,8,81,0
10,667234, Note_on_c,8,82,65
10,667270, Note_on_c,8,84,0
10,667578, Note_on_c,8,81,70
10,667594, Note_on_c,8,82,0
10,667938, Note_on_c,8,81,0
10,667938, Note_on_c,8,79,71
10,668306, Note_on_c,8,77,74
10,668310, Note_on_c,8,79,0
10,668654, Note_on_c,8,77,0
10,668662, Note_on_c,8,72,67
10,669034, Note_on_c,8,74,63
10,669054, Note_on_c,8,72,0
10,669302, Note_on_c,8,74,0
10,669410, Note_on_c,8,74,71
10,669774, Note_on_c,8,79,70
10,669786, Note_on_c,8,74,0
10,670866, Note_on_c,8,74,63
10,670874, Note_on_c,8,79,0
10,671226, Note_on_c,8,79,71
10,671234, Note_on_c,8,74,0
10,671582, Note_on_c,8,79,0
10,671582, Note_on_c,8,69,68
10,671934, Note_on_c,8,74,66
10,671946, Note_on_c,8,69,0
10,672278, Note_on_c,8,70,61
10,672286, Note_on_c,8,74,0
10,672642, Note_on_c,8,66,58
10,672658, Note_on_c,8,70,0
10,673014, Note_on_c,8,67,70
10,673018, Note_on_c,8,66,0
10,673390, Note_on_c,8,74,72
10,673410, Note_on_c,8,67,0
10,673774, Note_on_c,8,71,77
10,673810, Note_on_c,8,74,0
10,674534, Note_on_c,8,72,60
10,674566, Note_on_c,8,71,0
10,674854, Note_on_c,8,72,0
10,718564, Control_c,8,11,60
10,718680, Note_on_c,8,65,70
10,718680, Note_on_c,8,62,70
10,719408, Note_on_c,8,62,0
10,719408, Note_on_c,8,65,0
10,719408, Note_on_c,8,65,70
10,719408, Note_on_c,8,62,70
10,720092, Note_on_c,8,62,0
10,720092, Note_on_c,8,65,0
10,720136, Note_on_c,8,67,70
10,720136, Note_on_c,8,64,70
10,720840, Note_on_c,8,64,0
10,720840, Note_on_c,8,67,0
10,720840, Note_on_c,8,67,70
10,720840, Note_on_c,8,64,70
10,721524, Note_on_c,8,64,0
10,721524, Note_on_c,8,67,0
10,721544, Note_on_c,8,69,70
10,721544, Note_on_c,8,65,70
10,722244, Note_on_c,8,65,0
10,722244, Note_on_c,8,69,0
10,722244, Note_on_c,8,68,70
10,722244, Note_on_c,8,65,70
10,722928, Note_on_c,8,65,0
10,722928, Note_on_c,8,68,0
10,722932, Note_on_c,8,70,70
10,722932, Note_on_c,8,67,70
10,723600, Note_on_c,8,67,0
10,723600, Note_on_c,8,70,0
10,723600, Note_on_c,8,70,70
10,723600, Note_on_c,8,67,70
10,723932, Note_on_c,8,67,0
10,723932, Note_on_c,8,65,70
10,724294, Note_on_c,8,70,0
10,724296, Note_on_c,8,65,0
10,724296, Note_on_c,8,70,70
10,724296, Note_on_c,8,65,70
10,724612, Note_on_c,8,65,0
10,724612, Note_on_c,8,63,70
10,724950, Note_on_c,8,70,0
10,724960, Note_on_c,8,63,0
10,724960, Note_on_c,8,70,70
10,724960, Note_on_c,8,64,70
10,725340, Note_on_c,8,64,0
10,725340, Note_on_c,8,65,70
10,725684, Note_on_c,8,70,0
10,725704, Note_on_c,8,65,0
10,725704, Note_on_c,8,77,70
10,725704, Note_on_c,8,74,70
10,726364, Note_on_c,8,74,0
10,726364, Note_on_c,8,77,0
10,726364, Note_on_c,8,77,70
10,726364, Note_on_c,8,74,70
10,727332, Note_on_c,8,74,0
10,727332, Note_on_c,8,77,0
10,727344, Note_on_c,8,82,70
10,727344, Note_on_c,8,77,70
10,727988, Note_on_c,8,77,0
10,727988, Note_on_c,8,82,0
10,728000, Note_on_c,8,83,70
10,728000, Note_on_c,8,77,70
10,728324, Note_on_c,8,77,0
10,728324, Note_on_c,8,83,0
10,728324, Note_on_c,8,74,70
10,728324, Note_on_c,8,71,70
10,728972, Note_on_c,8,71,0
10,728972, Note_on_c,8,74,0
10,728972, Note_on_c,8,79,70
10,728972, Note_on_c,8,74,70
10,729980, Note_on_c,8,74,0
10,729980, Note_on_c,8,79,0
10,729988, Note_on_c,8,83,70
10,729988, Note_on_c,8,79,70
10,730946, Note_on_c,8,79,0
10,730946, Note_on_c,8,83,0
10,730956, Note_on_c,8,75,70
10,730956, Note_on_c,8,72,70
10,731595, Note_on_c,8,75,0
10,731620, Note_on_c,8,79,70
10,731620, Note_on_c,8,75,70
10,731624, Note_on_c,8,72,0
10,732296, Note_on_c,8,75,0
10,732296, Note_on_c,8,79,0
10,732296, Note_on_c,8,84,70
10,732296, Note_on_c,8,79,70
10,732940, Note_on_c,8,79,0
10,732940, Note_on_c,8,84,0
10,732940, Note_on_c,8,84,70
10,732940, Note_on_c,8,79,70
10,733270, Note_on_c,8,79,0
10,733270, Note_on_c,8,84,0
10,733564, Note_on_c,8,79,70
10,733564, Note_on_c,8,73,70
10,734200, Note_on_c,8,73,0
10,734200, Note_on_c,8,79,0
10,734200, Note_on_c,8,79,70
10,734200, Note_on_c,8,73,70
10,734844, Note_on_c,8,73,0
10,734844, Note_on_c,8,79,0
10,734844, Note_on_c,8,79,70
10,734844, Note_on_c,8,73,70
10,735460, Note_on_c,8,73,0
10,735460, Note_on_c,8,79,0
10,735460, Note_on_c,8,79,70
10,735460, Note_on_c,8,73,70
10,736088, Note_on_c,8,73,0
10,736088, Note_on_c,8,79,0
10,736088, Note_on_c,8,79,70
10,736088, Note_on_c,8,73,70
10,736700, Note_on_c,8,73,0
10,736700, Note_on_c,8,79,0
10,736700, Note_on_c,8,79,70
10,736700, Note_on_c,8,73,70
10,737332, Note_on_c,8,73,0
10,737332, Note_on_c,8,79,0
10,737332, Note_on_c,8,79,70
10,737332, Note_on_c,8,73,70
10,737968, Note_on_c,8,73,0
10,737968, Note_on_c,8,79,0
10,737968, Note_on_c,8,79,70
10,737968, Note_on_c,8,73,70
10,738316, Note_on_c,8,73,0
10,738316, Note_on_c,8,79,0
10,738316, Note_on_c,8,82,70
10,738316, Note_on_c,8,70,70
10,738586, Note_on_c,8,70,0
10,738608, Note_on_c,8,70,90
10,738608, Note_on_c,8,62,90
10,738646, Note_on_c,8,82,0
10,739192, Note_on_c,8,62,0
10,739192, Note_on_c,8,70,0
10,739200, Note_on_c,8,70,90
10,739200, Note_on_c,8,62,90
10,739280, Note_on_c,8,62,0
10,739280, Note_on_c,8,70,0
10,739295, Note_on_c,8,70,90
10,739295, Note_on_c,8,62,90
10,739375, Note_on_c,8,62,0
10,739375, Note_on_c,8,70,0
10,739390, Note_on_c,8,70,90
10,739390, Note_on_c,8,62,90
10,739470, Note_on_c,8,62,0
10,739470, Note_on_c,8,70,0
10,739484, Note_on_c,8,71,90
10,739484, Note_on_c,8,62,90
10,739734, Note_on_c,8,62,0
10,739734, Note_on_c,8,71,0
10,739764, Note_on_c,8,71,90
10,739764, Note_on_c,8,62,90
10,740308, Note_on_c,8,62,0
10,740308, Note_on_c,8,71,0
10,740344, Note_on_c,8,71,90
10,740344, Note_on_c,8,62,90
10,740424, Note_on_c,8,62,0
10,740424, Note_on_c,8,71,0
10,740436, Note_on_c,8,71,90
10,740436, Note_on_c,8,62,90
10,740516, Note_on_c,8,62,0
10,740516, Note_on_c,8,71,0
10,740528, Note_on_c,8,71,90
10,740528, Note_on_c,8,62,90
10,740608, Note_on_c,8,62,0
10,740608, Note_on_c,8,71,0
10,740620, Note_on_c,8,72,90
10,740620, Note_on_c,8,63,90
10,740870, Note_on_c,8,63,0
10,740870, Note_on_c,8,72,0
10,740904, Note_on_c,8,72,90
10,740904, Note_on_c,8,63,90
10,741448, Note_on_c,8,63,0
10,741448, Note_on_c,8,72,0
10,741452, Note_on_c,8,72,90
10,741452, Note_on_c,8,63,90
10,741532, Note_on_c,8,63,0
10,741532, Note_on_c,8,72,0
10,741543, Note_on_c,8,72,90
10,741543, Note_on_c,8,63,90
10,741623, Note_on_c,8,63,0
10,741623, Note_on_c,8,72,0
10,741634, Note_on_c,8,72,90
10,741634, Note_on_c,8,63,90
10,741714, Note_on_c,8,63,0
10,741714, Note_on_c,8,72,0
10,741724, Note_on_c,8,73,90
10,741724, Note_on_c,8,64,90
10,741974, Note_on_c,8,64,0
10,741974, Note_on_c,8,73,0
10,741988, Note_on_c,8,73,90
10,741988, Note_on_c,8,64,90
10,742532, Note_on_c,8,64,0
10,742532, Note_on_c,8,73,0
10,742540, Note_on_c,8,73,90
10,742540, Note_on_c,8,64,90
10,742620, Note_on_c,8,64,0
10,742620, Note_on_c,8,73,0
10,742633, Note_on_c,8,73,90
10,742633, Note_on_c,8,64,90
10,742713, Note_on_c,8,64,0
10,742713, Note_on_c,8,73,0
10,742726, Note_on_c,8,73,90
10,742726, Note_on_c,8,64,90
10,742806, Note_on_c,8,64,0
10,742806, Note_on_c,8,73,0
10,742820, Note_on_c,8,74,90
10,742820, Note_on_c,8,65,90
10,743070, Note_on_c,8,65,0
10,743070, Note_on_c,8,74,0
10,743100, Note_on_c,8,74,90
10,743100, Note_on_c,8,65,90
10,743170, Note_on_c,8,65,0
10,743180, Note_on_c,8,74,0
10,743180, Note_on_c,8,74,90
10,743180, Note_on_c,8,65,90
10,743260, Note_on_c,8,65,0
10,743260, Note_on_c,8,74,0
10,743280, Note_on_c,8,74,90
10,743280, Note_on_c,8,65,90
10,743360, Note_on_c,8,65,0
10,743360, Note_on_c,8,74,0
10,743384, Note_on_c,8,75,90
10,743384, Note_on_c,8,66,90
10,743634, Note_on_c,8,66,0
10,743634, Note_on_c,8,75,0
10,743648, Note_on_c,8,75,90
10,743648, Note_on_c,8,66,90
10,743708, Note_on_c,8,66,0
10,743720, Note_on_c,8,75,90
10,743720, Note_on_c,8,66,90
10,743780, Note_on_c,8,66,0
10,743780, Note_on_c,8,75,0
10,743780, Note_on_c,8,75,0
10,743792, Note_on_c,8,75,90
10,743792, Note_on_c,8,66,90
10,743862, Note_on_c,8,66,0
10,743862, Note_on_c,8,75,0
10,743916, Note_on_c,8,76,90
10,743916, Note_on_c,8,67,90
10,744166, Note_on_c,8,67,0
10,744166, Note_on_c,8,76,0
10,744184, Note_on_c,8,76,90
10,744184, Note_on_c,8,67,90
10,744254, Note_on_c,8,67,0
10,744254, Note_on_c,8,76,0
10,744264, Note_on_c,8,76,90
10,744264, Note_on_c,8,67,90
10,744334, Note_on_c,8,67,0
10,744334, Note_on_c,8,76,0
10,744352, Note_on_c,8,76,90
10,744352, Note_on_c,8,67,90
10,744422, Note_on_c,8,67,0
10,744422, Note_on_c,8,76,0
10,744460, Note_on_c,8,77,90
10,744460, Note_on_c,8,68,90
10,744710, Note_on_c,8,68,0
10,744710, Note_on_c,8,77,0
10,744728, Note_on_c,8,77,90
10,744728, Note_on_c,8,68,90
10,744788, Note_on_c,8,68,0
10,744798, Note_on_c,8,77,0
10,744804, Note_on_c,8,77,90
10,744804, Note_on_c,8,68,90
10,744874, Note_on_c,8,68,0
10,744874, Note_on_c,8,77,0
10,744892, Note_on_c,8,77,90
10,744892, Note_on_c,8,68,90
10,744962, Note_on_c,8,68,0
10,744962, Note_on_c,8,77,0
10,745000, Note_on_c,8,78,90
10,745000, Note_on_c,8,69,90
10,745250, Note_on_c,8,69,0
10,745250, Note_on_c,8,78,0
10,745280, Note_on_c,8,79,90
10,745280, Note_on_c,8,70,90
10,745530, Note_on_c,8,70,0
10,745530, Note_on_c,8,79,0
10,745544, Note_on_c,8,80,90
10,745544, Note_on_c,8,71,90
10,745794, Note_on_c,8,71,0
10,745794, Note_on_c,8,80,0
10,745804, Note_on_c,8,81,90
10,745804, Note_on_c,8,72,90
10,746054, Note_on_c,8,72,0
10,746054, Note_on_c,8,81,0
10,746068, Note_on_c,8,82,90
10,746068, Note_on_c,8,73,90
10,746318, Note_on_c,8,73,0
10,746318, Note_on_c,8,82,0
10,746328, Note_on_c,8,83,90
10,746328, Note_on_c,8,74,90
10,746578, Note_on_c,8,74,0
10,746578, Note_on_c,8,83,0
10,746580, Note_on_c,8,84,90
10,746580, Note_on_c,8,75,90
10,746830, Note_on_c,8,75,0
10,746830, Note_on_c,8,84,0
10,746836, Note_on_c,8,84,90
10,746836, Note_on_c,8,75,90
10,747086, Note_on_c,8,75,0
10,747086, Note_on_c,8,84,0
10,747140, Note_on_c,8,82,90
10,747140, Note_on_c,8,73,90
10,747265, Control_c,8,11,90
10,747390, Note_on_c,8,73,0
10,747390, Note_on_c,8,82,0
10,747432, Note_on_c,8,70,90
10,747432, Note_on_c,8,66,90
10,747632, Note_on_c,8,66,0
10,747632, Note_on_c,8,70,0
10,747712, Note_on_c,8,70,90
10,747712, Note_on_c,8,66,90
10,747912, Note_on_c,8,66,0
10,747912, Note_on_c,8,70,0
10,747982, Note_on_c,8,73,90
10,747982, Note_on_c,8,70,90
10,748182, Note_on_c,8,70,0
10,748182, Note_on_c,8,73,0
10,748262, Note_on_c,8,78,90
10,748262, Note_on_c,8,73,90
10,748462, Note_on_c,8,73,0
10,748462, Note_on_c,8,78,0
10,748542, Note_on_c,8,78,90
10,748542, Note_on_c,8,73,90
10,748742, Note_on_c,8,73,0
10,748742, Note_on_c,8,78,0
10,748822, Note_on_c,8,82,90
10,748822, Note_on_c,8,78,90
10,749022, Note_on_c,8,78,0
10,749022, Note_on_c,8,82,0
10,749102, Note_on_c,8,85,90
10,749102, Note_on_c,8,82,90
10,749302, Note_on_c,8,82,0
10,749302, Note_on_c,8,85,0
10,749382, Note_on_c,8,85,90
10,749382, Note_on_c,8,82,90
10,749682, Note_on_c,8,82,0
10,749682, Note_on_c,8,85,0
10,750534, Note_on_c,8,85,90
10,750534, Note_on_c,8,82,90
10,750834, Note_on_c,8,82,0
10,750834, Note_on_c,8,85,0
10,751588, Note_on_c,8,85,90
10,751588, Note_on_c,8,82,90
10,751788, Note_on_c,8,82,0
10,751788, Note_on_c,8,85,0
10,752132, Note_on_c,8,85,90
10,752132, Note_on_c,8,82,90
10,752332, Note_on_c,8,82,0
10,752332, Note_on_c,8,85,0
10,752715, Note_on_c,8,85,90
10,752715, Note_on_c,8,82,90
10,752915, Note_on_c,8,82,0
10,752915, Note_on_c,8,85,0
10,753244, Note_on_c,8,85,90
10,753244, Note_on_c,8,82,90
10,753444, Note_on_c,8,82,0
10,753444, Note_on_c,8,85,0
10,753852, Note_on_c,8,85,90
10,753852, Note_on_c,8,82,90
10,754152, Note_on_c,8,82,0
10,754152, Note_on_c,8,85,0
10,892417, Control_c,8,11,75
10,892625, Note_on_c,8,62,70
10,892961, Note_on_c,8,62,0
10,892961, Note_on_c,8,64,70
10,893289, Note_on_c,8,64,0
10,893289, Note_on_c,8,66,70
10,893589, Note_on_c,8,66,0
10,893625, Note_on_c,8,74,70
10,893625, Note_on_c,8,69,70
10,893977, Note_on_c,8,69,0
10,893977, Note_on_c,8,74,0
10,893977, Note_on_c,8,67,70
10,894277, Note_on_c,8,67,0
10,894317, Note_on_c,8,70,70
10,894645, Note_on_c,8,72,70
10,894945, Note_on_c,8,72,0
10,894981, Note_on_c,8,70,0
10,894985, Note_on_c,8,72,70
10,894985, Note_on_c,8,69,70
10,895285, Note_on_c,8,69,0
10,895285, Note_on_c,8,72,0
10,895325, Note_on_c,8,72,70
10,895984, Note_on_c,8,72,0
10,896001, Note_on_c,8,72,70
10,896660, Note_on_c,8,72,0
10,896677, Note_on_c,8,71,70
10,897366, Note_on_c,8,71,0
10,897387, Note_on_c,8,71,70
10,898021, Note_on_c,8,71,0
10,898029, Note_on_c,8,72,70
10,898361, Note_on_c,8,72,0
10,899037, Note_on_c,8,73,70
10,899037, Note_on_c,8,70,70
10,899726, Note_on_c,8,70,0
10,899726, Note_on_c,8,73,0
10,899733, Note_on_c,8,74,70
10,899733, Note_on_c,8,62,70
10,900393, Note_on_c,8,81,70
10,900393, Note_on_c,8,69,70
10,900417, Note_on_c,8,62,0
10,900417, Note_on_c,8,74,0
10,901067, Note_on_c,8,81,0
10,901067, Note_on_c,8,69,0
10,901073, Note_on_c,8,79,70
10,901073, Note_on_c,8,67,70
10,901717, Note_on_c,8,84,70
10,901717, Note_on_c,8,79,70
10,901747, Note_on_c,8,79,0
10,901747, Note_on_c,8,67,0
10,902381, Note_on_c,8,84,0
10,902381, Note_on_c,8,79,0
10,902381, Note_on_c,8,77,70
10,902713, Note_on_c,8,77,0
10,902713, Note_on_c,8,75,70
10,903052, Note_on_c,8,75,0
10,903053, Note_on_c,8,82,70
10,903053, Note_on_c,8,74,70
10,903383, Note_on_c,8,74,0
10,903383, Note_on_c,8,82,0
10,903437, Note_on_c,8,62,70
10,903777, Note_on_c,8,62,0
10,903777, Note_on_c,8,64,70
10,904117, Note_on_c,8,64,0
10,904117, Note_on_c,8,66,70
10,904457, Note_on_c,8,66,0
10,904463, Note_on_c,8,74,70
10,904463, Note_on_c,8,69,70
10,904823, Note_on_c,8,69,0
10,904823, Note_on_c,8,74,0
10,904829, Note_on_c,8,67,70
10,905149, Note_on_c,8,67,0
10,905177, Note_on_c,8,70,70
10,905517, Note_on_c,8,72,70
10,905867, Note_on_c,8,72,0
10,905867, Note_on_c,8,70,0
10,905869, Note_on_c,8,72,70
10,905869, Note_on_c,8,69,70
10,906209, Note_on_c,8,69,0
10,906209, Note_on_c,8,72,0
10,906221, Note_on_c,8,72,70
10,906905, Note_on_c,8,72,0
10,906925, Note_on_c,8,72,70
10,907609, Note_on_c,8,72,0
10,907625, Note_on_c,8,71,70
10,908309, Note_on_c,8,71,0
10,908325, Note_on_c,8,71,70
10,908979, Note_on_c,8,71,0
10,908993, Note_on_c,8,72,70
10,909333, Note_on_c,8,72,0
10,909993, Note_on_c,8,73,70
10,909993, Note_on_c,8,70,70
10,910667, Note_on_c,8,70,0
10,910667, Note_on_c,8,73,0
10,910681, Note_on_c,8,74,70
10,910681, Note_on_c,8,62,70
10,911011, Note_on_c,8,62,0
10,911011, Note_on_c,8,74,0
10,911357, Note_on_c,8,81,70
10,911357, Note_on_c,8,69,70
10,912021, Note_on_c,8,69,0
10,912021, Note_on_c,8,81,0
10,912029, Note_on_c,8,79,70
10,912029, Note_on_c,8,67,70
10,912693, Note_on_c,8,67,0
10,912693, Note_on_c,8,79,0
10,912717, Note_on_c,8,82,70
10,912717, Note_on_c,8,70,70
10,913371, Note_on_c,8,70,0
10,913371, Note_on_c,8,82,0
10,913377, Note_on_c,8,75,70
10,913377, Note_on_c,8,63,70
10,913707, Note_on_c,8,63,0
10,913707, Note_on_c,8,75,0
10,914037, Note_on_c,8,84,70
10,914037, Note_on_c,8,72,70
10,914691, Note_on_c,8,72,0
10,914691, Note_on_c,8,84,0
10,914705, Note_on_c,8,77,70
10,914705, Note_on_c,8,65,70
10,915037, Note_on_c,8,65,0
10,915037, Note_on_c,8,77,0
10,915377, Note_on_c,8,79,70
10,915377, Note_on_c,8,74,70
10,916001, Note_on_c,8,74,0
10,916001, Note_on_c,8,79,0
10,916021, Note_on_c,8,79,70
10,916021, Note_on_c,8,75,70
10,916645, Note_on_c,8,75,0
10,916645, Note_on_c,8,79,0
10,916673, Note_on_c,8,81,70
10,916673, Note_on_c,8,76,70
10,917307, Note_on_c,8,76,0
10,917307, Note_on_c,8,81,0
10,917341, Note_on_c,8,81,70
10,917341, Note_on_c,8,77,70
10,917975, Note_on_c,8,77,0
10,917975, Note_on_c,8,81,0
10,918001, Note_on_c,8,82,70
10,918001, Note_on_c,8,77,70
10,918655, Note_on_c,8,77,0
10,918655, Note_on_c,8,82,0
10,918689, Note_on_c,8,82,70
10,918689, Note_on_c,8,78,70
10,918989, Note_on_c,8,78,0
10,918989, Note_on_c,8,82,0
10,920717, Note_on_c,8,78,90
10,920717, Note_on_c,8,75,90
10,920987, Note_on_c,8,75,0
10,920987, Note_on_c,8,78,0
10,921137, Note_on_c,8,77,90
10,921137, Note_on_c,8,70,90
10,921407, Note_on_c,8,70,0
10,921407, Note_on_c,8,77,0
10,921557, Note_on_c,8,78,90
10,921557, Note_on_c,8,75,90
10,921827, Note_on_c,8,75,0
10,921827, Note_on_c,8,78,0
10,923541, Note_on_c,8,78,90
10,923541, Note_on_c,8,75,90
10,923811, Note_on_c,8,75,0
10,923811, Note_on_c,8,78,0
10,923907, Note_on_c,8,77,90
10,923907, Note_on_c,8,70,90
10,924177, Note_on_c,8,70,0
10,924177, Note_on_c,8,77,0
10,924273, Note_on_c,8,78,90
10,924273, Note_on_c,8,75,90
10,924543, Note_on_c,8,75,0
10,924543, Note_on_c,8,78,0
10,924969, Note_on_c,8,78,90
10,924969, Note_on_c,8,75,90
10,925239, Note_on_c,8,75,0
10,925239, Note_on_c,8,78,0
10,926349, Note_on_c,8,78,90
10,926349, Note_on_c,8,73,90
10,926619, Note_on_c,8,73,0
10,926619, Note_on_c,8,78,0
10,927725, Note_on_c,8,77,90
10,927725, Note_on_c,8,74,90
10,928045, Note_on_c,8,74,0
10,928045, Note_on_c,8,77,0
10,933697, Note_on_c,8,75,90
10,933697, Note_on_c,8,72,90
10,934331, Note_on_c,8,72,0
10,934331, Note_on_c,8,75,0
10,934373, Note_on_c,8,75,90
10,934373, Note_on_c,8,72,90
10,934643, Note_on_c,8,72,0
10,934643, Note_on_c,8,75,0
10,934741, Note_on_c,8,77,90
10,934741, Note_on_c,8,74,90
10,935011, Note_on_c,8,74,0
10,935011, Note_on_c,8,77,0
10,935417, Note_on_c,8,73,90
10,935417, Note_on_c,8,82,90
10,935687, Note_on_c,8,82,0
10,935687, Note_on_c,8,73,0
10,936141, Note_on_c,8,82,90
10,936141, Note_on_c,8,74,90
10,936411, Note_on_c,8,74,0
10,936411, Note_on_c,8,82,0
10,936513, Note_on_c,8,75,90
10,936513, Note_on_c,8,72,90
10,937147, Note_on_c,8,72,0
10,937147, Note_on_c,8,75,0
10,937213, Note_on_c,8,75,90
10,937213, Note_on_c,8,72,90
10,937483, Note_on_c,8,72,0
10,937483, Note_on_c,8,75,0
10,937577, Note_on_c,8,77,90
10,937577, Note_on_c,8,74,90
10,937847, Note_on_c,8,74,0
10,937847, Note_on_c,8,77,0
10,938277, Note_on_c,8,73,90
10,938277, Note_on_c,8,82,90
10,938547, Note_on_c,8,82,0
10,938547, Note_on_c,8,73,0
10,939009, Note_on_c,8,82,90
10,939009, Note_on_c,8,74,90
10,939279, Note_on_c,8,74,0
10,939279, Note_on_c,8,82,0
10,939728, Note_on_c,8,73,90
10,939728, Note_on_c,8,82,90
10,939998, Note_on_c,8,82,0
10,939998, Note_on_c,8,73,0
10,940457, Note_on_c,8,82,90
10,940457, Note_on_c,8,74,90
10,940727, Note_on_c,8,74,0
10,940727, Note_on_c,8,82,0
10,941164, Note_on_c,8,73,90
10,941164, Note_on_c,8,82,90
10,941434, Note_on_c,8,82,0
10,941434, Note_on_c,8,73,0
10,941901, Note_on_c,8,82,90
10,941901, Note_on_c,8,74,90
10,942171, Note_on_c,8,74,0
10,942171, Note_on_c,8,82,0
10,942269, Note_on_c,8,82,90
10,942269, Note_on_c,8,73,90
10,942469, Note_on_c,8,73,0
10,942469, Note_on_c,8,82,0
10,942637, Note_on_c,8,82,90
10,942637, Note_on_c,8,74,90
10,942837, Note_on_c,8,74,0
10,942837, Note_on_c,8,82,0
10,943005, Note_on_c,8,82,90
10,943005, Note_on_c,8,73,90
10,943205, Note_on_c,8,73,0
10,943205, Note_on_c,8,82,0
10,943373, Note_on_c,8,82,90
10,943373, Note_on_c,8,74,90
10,943573, Note_on_c,8,74,0
10,943573, Note_on_c,8,82,0
10,943741, Note_on_c,8,82,90
10,943741, Note_on_c,8,73,90
10,943941, Note_on_c,8,73,0
10,943941, Note_on_c,8,82,0
10,944109, Note_on_c,8,82,90
10,944109, Note_on_c,8,74,90
10,944309, Note_on_c,8,74,0
10,944309, Note_on_c,8,82,0
10,944477, Note_on_c,8,82,90
10,944477, Note_on_c,8,73,90
10,944677, Note_on_c,8,73,0
10,944677, Note_on_c,8,82,0
10,944845, Note_on_c,8,74,90
10,944845, Note_on_c,8,82,90
10,945045, Note_on_c,8,82,0
10,945045, Note_on_c,8,74,0
10,946209, Note_on_c,8,82,90
10,946209, Note_on_c,8,74,90
10,946459, Note_on_c,8,74,0
10,946459, Note_on_c,8,82,0
10,946873, Note_on_c,8,82,90
10,946873, Note_on_c,8,74,90
10,947123, Note_on_c,8,74,0
10,947123, Note_on_c,8,82,0
10,947529, Note_on_c,8,82,90
10,947529, Note_on_c,8,74,90
10,947779, Note_on_c,8,74,0
10,947779, Note_on_c,8,82,0
10,948825, Note_on_c,8,82,90
10,948825, Note_on_c,8,74,90
10,949075, Note_on_c,8,74,0
10,949075, Note_on_c,8,82,0
10,950161, Note_on_c,8,77,90
10,950161, Note_on_c,8,74,90
10,950411, Note_on_c,8,74,0
10,950411, Note_on_c,8,77,0
10,950809, Note_on_c,8,77,90
10,950809, Note_on_c,8,74,90
10,951059, Note_on_c,8,74,0
10,951059, Note_on_c,8,77,0
10,951501, Note_on_c,8,77,90
10,951501, Note_on_c,8,74,90
10,951751, Note_on_c,8,74,0
10,951751, Note_on_c,8,77,0
10,952177, Note_on_c,8,77,90
10,952177, Note_on_c,8,74,90
10,952427, Note_on_c,8,74,0
10,952427, Note_on_c,8,77,0
10,952877, Note_on_c,8,77,90
10,952877, Note_on_c,8,74,90
10,953127, Note_on_c,8,74,0
10,953127, Note_on_c,8,77,0
10,953249, Note_on_c,8,79,90
10,953249, Note_on_c,8,75,90
10,953499, Note_on_c,8,75,0
10,953499, Note_on_c,8,79,0
10,953673, Note_on_c,8,77,90
10,953673, Note_on_c,8,74,90
10,954023, Note_on_c,8,74,0
10,954023, Note_on_c,8,77,0
10,954549, Note_on_c,8,70,90
10,956085, Note_on_c,8,70,0
10,956460, Control_c,8,121,0
10,956460, End_track,,,
11,0, Start_track,,,
11,0, MIDI_port,0,,
11,0, Title_t," ""Clarinets""",,
11,0, Control_c,10,0,0
11,0, Control_c,10,32,0
11,0, Program_c,10,71,
11,0, Control_c,10,7,100
11,0, Control_c,10,10,60
11,3272, Control_c,10,11,80
11,3356, Control_c,10,91,127
11,3356, Note_on_c,10,82,80
11,3356, Note_on_c,10,73,80
11,3612, Note_on_c,10,73,0
11,3612, Note_on_c,10,82,0
11,4908, Note_on_c,10,73,80
11,4908, Note_on_c,10,82,80
11,5164, Note_on_c,10,82,0
11,5164, Note_on_c,10,73,0
11,6432, Note_on_c,10,75,80
11,6432, Note_on_c,10,72,80
11,6936, Note_on_c,10,72,0
11,6936, Note_on_c,10,75,0
11,6968, Note_on_c,10,73,80
11,6968, Note_on_c,10,77,80
11,7472, Note_on_c,10,77,0
11,7472, Note_on_c,10,73,0
11,7528, Note_on_c,10,78,80
11,7528, Note_on_c,10,70,80
11,8032, Note_on_c,10,70,0
11,8032, Note_on_c,10,78,0
11,8088, Note_on_c,10,70,80
11,8088, Note_on_c,10,79,80
11,8622, Note_on_c,10,79,0
11,8622, Note_on_c,10,70,0
11,8668, Note_on_c,10,80,80
11,8672, Note_on_c,10,72,80
11,9202, Note_on_c,10,80,0
11,9226, Note_on_c,10,72,0
11,9316, Note_on_c,10,77,80
11,9316, Note_on_c,10,68,80
11,9820, Note_on_c,10,68,0
11,9820, Note_on_c,10,77,0
11,11137, Control_c,10,11,75
11,11584, Note_on_c,10,68,70
11,11584, Note_on_c,10,61,70
11,16282, Note_on_c,10,61,0
11,16282, Note_on_c,10,68,0
11,16288, Note_on_c,10,61,70
11,16288, Note_on_c,10,70,70
11,19819, Note_on_c,10,70,0
11,19819, Note_on_c,10,61,0
11,19824, Note_on_c,10,63,70
11,19824, Note_on_c,10,72,70
11,23310, Note_on_c,10,72,0
11,23310, Note_on_c,10,63,0
11,23316, Note_on_c,10,73,70
11,23316, Note_on_c,10,65,70
11,24454, Note_on_c,10,65,0
11,24454, Note_on_c,10,73,0
11,24456, Note_on_c,10,73,70
11,24456, Note_on_c,10,65,70
11,25054, Note_on_c,10,65,0
11,25054, Note_on_c,10,73,0
11,25056, Note_on_c,10,72,70
11,25056, Note_on_c,10,63,70
11,26782, Note_on_c,10,63,0
11,26782, Note_on_c,10,72,0
11,26784, Note_on_c,10,73,70
11,26784, Note_on_c,10,65,70
11,28470, Note_on_c,10,65,0
11,28470, Note_on_c,10,73,0
11,28472, Note_on_c,10,68,70
11,30248, Note_on_c,10,68,0
11,30252, Note_on_c,10,70,70
11,30252, Note_on_c,10,75,70
11,32018, Note_on_c,10,75,0
11,32018, Note_on_c,10,70,0
11,32024, Note_on_c,10,78,70
11,32024, Note_on_c,10,70,70
11,33850, Note_on_c,10,70,0
11,33850, Note_on_c,10,78,0
11,33852, Note_on_c,10,77,70
11,33852, Note_on_c,10,69,70
11,34401, Note_on_c,10,69,0
11,34401, Note_on_c,10,77,0
11,34406, Note_on_c,10,74,70
11,34406, Note_on_c,10,68,70
11,34950, Note_on_c,10,68,0
11,34950, Note_on_c,10,74,0
11,34956, Note_on_c,10,75,70
11,34956, Note_on_c,10,67,70
11,35505, Note_on_c,10,67,0
11,35505, Note_on_c,10,75,0
11,35512, Note_on_c,10,72,70
11,35512, Note_on_c,10,66,70
11,36026, Note_on_c,10,66,0
11,36026, Note_on_c,10,72,0
11,36032, Note_on_c,10,65,70
11,36032, Note_on_c,10,73,70
11,36466, Note_on_c,10,73,0
11,36466, Note_on_c,10,65,0
11,36468, Note_on_c,10,65,70
11,36468, Note_on_c,10,73,70
11,37082, Note_on_c,10,73,0
11,37082, Note_on_c,10,65,0
11,37089, Note_on_c,10,73,70
11,37089, Note_on_c,10,65,70
11,38097, Note_on_c,10,65,0
11,38097, Note_on_c,10,73,0
11,38100, Note_on_c,10,73,70
11,38100, Note_on_c,10,65,70
11,38613, Note_on_c,10,65,0
11,38613, Note_on_c,10,73,0
11,38616, Note_on_c,10,75,70
11,38616, Note_on_c,10,67,70
11,39664, Note_on_c,10,67,0
11,39664, Note_on_c,10,75,0
11,39668, Note_on_c,10,75,70
11,39668, Note_on_c,10,66,70
11,40192, Note_on_c,10,66,0
11,40192, Note_on_c,10,75,0
11,40196, Note_on_c,10,73,70
11,40196, Note_on_c,10,65,70
11,40745, Note_on_c,10,65,0
11,40745, Note_on_c,10,73,0
11,41836, Note_on_c,10,53,70
11,41836, Note_on_c,10,61,70
11,46858, Note_on_c,10,61,0
11,46858, Note_on_c,10,53,0
11,46860, Note_on_c,10,63,70
11,46860, Note_on_c,10,54,70
11,50232, Note_on_c,10,54,0
11,50232, Note_on_c,10,63,0
11,50240, Note_on_c,10,63,70
11,50240, Note_on_c,10,56,70
11,53562, Note_on_c,10,56,0
11,53562, Note_on_c,10,63,0
11,53568, Note_on_c,10,56,70
11,53568, Note_on_c,10,65,70
11,55106, Note_on_c,10,65,0
11,55106, Note_on_c,10,56,0
11,55116, Note_on_c,10,77,70
11,55116, Note_on_c,10,68,70
11,55500, Note_on_c,10,68,0
11,55500, Note_on_c,10,77,0
11,55614, Note_on_c,10,68,70
11,55614, Note_on_c,10,78,70
11,55998, Note_on_c,10,78,0
11,55998, Note_on_c,10,68,0
11,56576, Note_on_c,10,79,70
11,56576, Note_on_c,10,68,70
11,56960, Note_on_c,10,68,0
11,56960, Note_on_c,10,79,0
11,57006, Note_on_c,10,68,70
11,57006, Note_on_c,10,77,70
11,57390, Note_on_c,10,77,0
11,57390, Note_on_c,10,68,0
11,58016, Note_on_c,10,77,70
11,58016, Note_on_c,10,70,70
11,58400, Note_on_c,10,70,0
11,58400, Note_on_c,10,77,0
11,58498, Note_on_c,10,75,70
11,58498, Note_on_c,10,70,70
11,58882, Note_on_c,10,70,0
11,58882, Note_on_c,10,75,0
11,59432, Note_on_c,10,72,70
11,59432, Note_on_c,10,79,70
11,59816, Note_on_c,10,79,0
11,59816, Note_on_c,10,72,0
11,59916, Note_on_c,10,72,70
11,59916, Note_on_c,10,77,70
11,60300, Note_on_c,10,77,0
11,60300, Note_on_c,10,72,0
11,93814, Note_on_c,10,66,70
11,93814, Note_on_c,10,78,70
11,93864, Note_on_c,10,78,0
11,93864, Note_on_c,10,66,0
11,93894, Note_on_c,10,66,70
11,93894, Note_on_c,10,78,70
11,94124, Note_on_c,10,78,0
11,94124, Note_on_c,10,66,0
11,95758, Note_on_c,10,81,70
11,95758, Note_on_c,10,69,70
11,95808, Note_on_c,10,69,0
11,95808, Note_on_c,10,81,0
11,95838, Note_on_c,10,69,70
11,95838, Note_on_c,10,81,70
11,96068, Note_on_c,10,81,0
11,96068, Note_on_c,10,69,0
11,97718, Note_on_c,10,72,70
11,97718, Note_on_c,10,84,70
11,97768, Note_on_c,10,84,0
11,97768, Note_on_c,10,72,0
11,97798, Note_on_c,10,72,70
11,97798, Note_on_c,10,84,70
11,98028, Note_on_c,10,84,0
11,98028, Note_on_c,10,72,0
11,107518, Note_on_c,10,77,70
11,107518, Note_on_c,10,65,70
11,111058, Note_on_c,10,65,0
11,111058, Note_on_c,10,77,0
11,111058, Note_on_c,10,78,70
11,111058, Note_on_c,10,66,70
11,114622, Note_on_c,10,66,0
11,114622, Note_on_c,10,78,0
11,114622, Note_on_c,10,80,70
11,114622, Note_on_c,10,68,70
11,118174, Note_on_c,10,68,0
11,118174, Note_on_c,10,80,0
11,118174, Note_on_c,10,80,70
11,118174, Note_on_c,10,68,70
11,119326, Note_on_c,10,68,0
11,119326, Note_on_c,10,80,0
11,119326, Note_on_c,10,80,70
11,119326, Note_on_c,10,68,70
11,119930, Note_on_c,10,68,0
11,119930, Note_on_c,10,80,0
11,119932, Note_on_c,10,68,70
11,119932, Note_on_c,10,80,70
11,121154, Note_on_c,10,80,0
11,121154, Note_on_c,10,68,0
11,121162, Note_on_c,10,75,70
11,121162, Note_on_c,10,63,70
11,121786, Note_on_c,10,63,0
11,121786, Note_on_c,10,75,0
11,121786, Note_on_c,10,77,70
11,121786, Note_on_c,10,65,70
11,123587, Note_on_c,10,65,0
11,123587, Note_on_c,10,77,0
11,123594, Note_on_c,10,68,70
11,123594, Note_on_c,10,80,70
11,125370, Note_on_c,10,80,0
11,125370, Note_on_c,10,68,0
11,125374, Note_on_c,10,70,70
11,125374, Note_on_c,10,82,70
11,127110, Note_on_c,10,82,0
11,127110, Note_on_c,10,70,0
11,127122, Note_on_c,10,70,70
11,127122, Note_on_c,10,82,70
11,128848, Note_on_c,10,82,0
11,128848, Note_on_c,10,70,0
11,128854, Note_on_c,10,81,70
11,128854, Note_on_c,10,69,70
11,129448, Note_on_c,10,69,0
11,129448, Note_on_c,10,81,0
11,129454, Note_on_c,10,68,70
11,129454, Note_on_c,10,80,70
11,130058, Note_on_c,10,80,0
11,130058, Note_on_c,10,68,0
11,130062, Note_on_c,10,79,70
11,130062, Note_on_c,10,67,70
11,130670, Note_on_c,10,67,0
11,130670, Note_on_c,10,79,0
11,130674, Note_on_c,10,78,70
11,130674, Note_on_c,10,66,70
11,131268, Note_on_c,10,66,0
11,131268, Note_on_c,10,78,0
11,131274, Note_on_c,10,77,70
11,131274, Note_on_c,10,65,70
11,131846, Note_on_c,10,65,0
11,131846, Note_on_c,10,77,0
11,131850, Note_on_c,10,65,70
11,131850, Note_on_c,10,77,70
11,132444, Note_on_c,10,77,0
11,132444, Note_on_c,10,65,0
11,132450, Note_on_c,10,77,70
11,132450, Note_on_c,10,65,70
11,134230, Note_on_c,10,65,0
11,134230, Note_on_c,10,77,0
11,134230, Note_on_c,10,67,70
11,134230, Note_on_c,10,79,70
11,134792, Note_on_c,10,79,0
11,134792, Note_on_c,10,67,0
11,134794, Note_on_c,10,75,70
11,134794, Note_on_c,10,67,70
11,135378, Note_on_c,10,67,0
11,135378, Note_on_c,10,75,0
11,135390, Note_on_c,10,75,70
11,135390, Note_on_c,10,66,70
11,135998, Note_on_c,10,66,0
11,135998, Note_on_c,10,75,0
11,136002, Note_on_c,10,77,70
11,136002, Note_on_c,10,68,70
11,136606, Note_on_c,10,68,0
11,136606, Note_on_c,10,77,0
11,139708, Note_on_c,10,66,70
11,139808, Note_on_c,10,66,0
11,139896, Note_on_c,10,69,70
11,139996, Note_on_c,10,69,0
11,140084, Note_on_c,10,73,70
11,140184, Note_on_c,10,73,0
11,140272, Note_on_c,10,78,70
11,140372, Note_on_c,10,78,0
11,140460, Note_on_c,10,81,70
11,140560, Note_on_c,10,81,0
11,140648, Note_on_c,10,78,70
11,140748, Note_on_c,10,78,0
11,143061, Note_on_c,10,65,70
11,143161, Note_on_c,10,65,0
11,143246, Note_on_c,10,68,70
11,143346, Note_on_c,10,68,0
11,143431, Note_on_c,10,73,70
11,143531, Note_on_c,10,73,0
11,143617, Note_on_c,10,77,70
11,143717, Note_on_c,10,77,0
11,143802, Note_on_c,10,80,70
11,143902, Note_on_c,10,80,0
11,143987, Note_on_c,10,77,70
11,144087, Note_on_c,10,77,0
11,146404, Note_on_c,10,54,70
11,146404, Note_on_c,10,57,70
11,146504, Note_on_c,10,57,0
11,146504, Note_on_c,10,54,0
11,146592, Note_on_c,10,57,70
11,146592, Note_on_c,10,61,70
11,146692, Note_on_c,10,61,0
11,146692, Note_on_c,10,57,0
11,146780, Note_on_c,10,61,70
11,146780, Note_on_c,10,66,70
11,146880, Note_on_c,10,66,0
11,146880, Note_on_c,10,61,0
11,146968, Note_on_c,10,69,70
11,146968, Note_on_c,10,66,70
11,147068, Note_on_c,10,66,0
11,147068, Note_on_c,10,69,0
11,147156, Note_on_c,10,73,70
11,147156, Note_on_c,10,69,70
11,147256, Note_on_c,10,69,0
11,147256, Note_on_c,10,73,0
11,147344, Note_on_c,10,73,70
11,147344, Note_on_c,10,78,70
11,147444, Note_on_c,10,78,0
11,147444, Note_on_c,10,73,0
11,149800, Note_on_c,10,56,70
11,149800, Note_on_c,10,53,70
11,149900, Note_on_c,10,53,0
11,149900, Note_on_c,10,56,0
11,149988, Note_on_c,10,61,70
11,149988, Note_on_c,10,56,70
11,150088, Note_on_c,10,56,0
11,150088, Note_on_c,10,61,0
11,150176, Note_on_c,10,65,70
11,150176, Note_on_c,10,61,70
11,150276, Note_on_c,10,61,0
11,150276, Note_on_c,10,65,0
11,150364, Note_on_c,10,68,70
11,150364, Note_on_c,10,65,70
11,150464, Note_on_c,10,65,0
11,150464, Note_on_c,10,68,0
11,150552, Note_on_c,10,73,70
11,150552, Note_on_c,10,68,70
11,150652, Note_on_c,10,68,0
11,150652, Note_on_c,10,73,0
11,150740, Note_on_c,10,77,70
11,150740, Note_on_c,10,73,70
11,150840, Note_on_c,10,73,0
11,150840, Note_on_c,10,77,0
11,199739, Note_on_c,10,72,80
11,199769, Note_on_c,10,72,0
11,199769, Note_on_c,10,74,80
11,199799, Note_on_c,10,74,0
11,199799, Note_on_c,10,76,80
11,199829, Note_on_c,10,76,0
11,199829, Note_on_c,10,77,80
11,199979, Note_on_c,10,77,0
11,204299, Note_on_c,10,75,80
11,204329, Note_on_c,10,75,0
11,204329, Note_on_c,10,77,80
11,204359, Note_on_c,10,77,0
11,204359, Note_on_c,10,79,80
11,204389, Note_on_c,10,79,0
11,204389, Note_on_c,10,80,80
11,204539, Note_on_c,10,80,0
11,206591, Note_on_c,10,67,80
11,206621, Note_on_c,10,67,0
11,206621, Note_on_c,10,69,85
11,206651, Note_on_c,10,69,0
11,206651, Note_on_c,10,71,90
11,206681, Note_on_c,10,71,0
11,206681, Note_on_c,10,72,100
11,206831, Note_on_c,10,72,0
11,208057, Note_on_c,10,66,80
11,208147, Note_on_c,10,66,0
11,208147, Note_on_c,10,67,80
11,208237, Note_on_c,10,67,0
11,208353, Note_on_c,10,72,80
11,208443, Note_on_c,10,72,0
11,208443, Note_on_c,10,67,80
11,208533, Note_on_c,10,67,0
11,208657, Note_on_c,10,70,80
11,208747, Note_on_c,10,70,0
11,208747, Note_on_c,10,68,80
11,208837, Note_on_c,10,68,0
11,208961, Note_on_c,10,67,80
11,209051, Note_on_c,10,67,0
11,209051, Note_on_c,10,65,80
11,209141, Note_on_c,10,65,0
11,210397, Note_on_c,10,66,80
11,210487, Note_on_c,10,66,0
11,210487, Note_on_c,10,67,80
11,210577, Note_on_c,10,67,0
11,210685, Note_on_c,10,72,80
11,210775, Note_on_c,10,72,0
11,210775, Note_on_c,10,67,80
11,210865, Note_on_c,10,67,0
11,210981, Note_on_c,10,70,80
11,211071, Note_on_c,10,70,0
11,211071, Note_on_c,10,68,80
11,211161, Note_on_c,10,68,0
11,211277, Note_on_c,10,67,80
11,211367, Note_on_c,10,67,0
11,211367, Note_on_c,10,65,80
11,211457, Note_on_c,10,65,0
11,219693, Control_c,10,11,90
11,219717, Note_on_c,10,70,80
11,219807, Note_on_c,10,70,0
11,219807, Note_on_c,10,72,80
11,219897, Note_on_c,10,72,0
11,220017, Note_on_c,10,73,80
11,220107, Note_on_c,10,73,0
11,220107, Note_on_c,10,72,80
11,220197, Note_on_c,10,72,0
11,220333, Note_on_c,10,75,80
11,220423, Note_on_c,10,75,0
11,220423, Note_on_c,10,73,80
11,220513, Note_on_c,10,73,0
11,220641, Note_on_c,10,72,80
11,220731, Note_on_c,10,72,0
11,220731, Note_on_c,10,70,80
11,220821, Note_on_c,10,70,0
11,220961, Note_on_c,10,68,80
11,221061, Note_on_c,10,68,0
11,222205, Note_on_c,10,74,80
11,222295, Note_on_c,10,74,0
11,222295, Note_on_c,10,75,80
11,222385, Note_on_c,10,75,0
11,222521, Note_on_c,10,77,80
11,222611, Note_on_c,10,77,0
11,222611, Note_on_c,10,75,80
11,222701, Note_on_c,10,75,0
11,222845, Note_on_c,10,79,80
11,222935, Note_on_c,10,79,0
11,222935, Note_on_c,10,77,80
11,223025, Note_on_c,10,77,0
11,223137, Note_on_c,10,75,80
11,223227, Note_on_c,10,75,0
11,223227, Note_on_c,10,74,80
11,223317, Note_on_c,10,74,0
11,223449, Note_on_c,10,72,80
11,223549, Note_on_c,10,72,0
11,235153, Note_on_c,10,79,80
11,235153, Note_on_c,10,72,80
11,235243, Note_on_c,10,72,0
11,235243, Note_on_c,10,79,0
11,235243, Note_on_c,10,79,80
11,235243, Note_on_c,10,72,80
11,235333, Note_on_c,10,72,0
11,235333, Note_on_c,10,79,0
11,235518, Note_on_c,10,79,80
11,235518, Note_on_c,10,72,80
11,235608, Note_on_c,10,72,0
11,235608, Note_on_c,10,79,0
11,235608, Note_on_c,10,72,80
11,235608, Note_on_c,10,79,80
11,235698, Note_on_c,10,79,0
11,235698, Note_on_c,10,72,0
11,235883, Note_on_c,10,72,80
11,235883, Note_on_c,10,79,80
11,235973, Note_on_c,10,79,0
11,235973, Note_on_c,10,72,0
11,235973, Note_on_c,10,79,80
11,235973, Note_on_c,10,72,80
11,236063, Note_on_c,10,72,0
11,236063, Note_on_c,10,79,0
11,236249, Note_on_c,10,79,80
11,236249, Note_on_c,10,72,80
11,236339, Note_on_c,10,72,0
11,236339, Note_on_c,10,79,0
11,236339, Note_on_c,10,79,80
11,236339, Note_on_c,10,72,80
11,236429, Note_on_c,10,72,0
11,236429, Note_on_c,10,79,0
11,237993, Note_on_c,10,68,80
11,237993, Note_on_c,10,80,80
11,238083, Note_on_c,10,80,0
11,238083, Note_on_c,10,68,0
11,238083, Note_on_c,10,68,80
11,238083, Note_on_c,10,80,80
11,238173, Note_on_c,10,80,0
11,238173, Note_on_c,10,68,0
11,238353, Note_on_c,10,68,80
11,238353, Note_on_c,10,80,80
11,238443, Note_on_c,10,80,0
11,238443, Note_on_c,10,68,0
11,238443, Note_on_c,10,68,80
11,238443, Note_on_c,10,80,80
11,238533, Note_on_c,10,80,0
11,238533, Note_on_c,10,68,0
11,238713, Note_on_c,10,68,80
11,238713, Note_on_c,10,80,80
11,238803, Note_on_c,10,80,0
11,238803, Note_on_c,10,68,0
11,238803, Note_on_c,10,68,80
11,238803, Note_on_c,10,80,80
11,238893, Note_on_c,10,80,0
11,238893, Note_on_c,10,68,0
11,239073, Note_on_c,10,68,80
11,239073, Note_on_c,10,80,80
11,239163, Note_on_c,10,80,0
11,239163, Note_on_c,10,68,0
11,239163, Note_on_c,10,68,80
11,239163, Note_on_c,10,80,80
11,239253, Note_on_c,10,80,0
11,239253, Note_on_c,10,68,0
11,240097, Note_on_c,10,69,80
11,240097, Note_on_c,10,81,80
11,240187, Note_on_c,10,81,0
11,240187, Note_on_c,10,69,0
11,240187, Note_on_c,10,69,80
11,240187, Note_on_c,10,81,80
11,240277, Note_on_c,10,81,0
11,240277, Note_on_c,10,69,0
11,240441, Note_on_c,10,69,80
11,240441, Note_on_c,10,81,80
11,240531, Note_on_c,10,81,0
11,240531, Note_on_c,10,69,0
11,240531, Note_on_c,10,69,80
11,240531, Note_on_c,10,81,80
11,240621, Note_on_c,10,81,0
11,240621, Note_on_c,10,69,0
11,241453, Note_on_c,10,82,80
11,241453, Note_on_c,10,70,80
11,241543, Note_on_c,10,70,0
11,241543, Note_on_c,10,82,0
11,241543, Note_on_c,10,82,80
11,241543, Note_on_c,10,70,80
11,241633, Note_on_c,10,70,0
11,241633, Note_on_c,10,82,0
11,241797, Note_on_c,10,82,80
11,241797, Note_on_c,10,70,80
11,241887, Note_on_c,10,70,0
11,241887, Note_on_c,10,82,0
11,241887, Note_on_c,10,82,80
11,241887, Note_on_c,10,70,80
11,241977, Note_on_c,10,70,0
11,241977, Note_on_c,10,82,0
11,242825, Note_on_c,10,83,80
11,242825, Note_on_c,10,71,80
11,242915, Note_on_c,10,71,0
11,242915, Note_on_c,10,83,0
11,242915, Note_on_c,10,83,80
11,242915, Note_on_c,10,71,80
11,243005, Note_on_c,10,71,0
11,243005, Note_on_c,10,83,0
11,243159, Note_on_c,10,83,80
11,243159, Note_on_c,10,71,80
11,243249, Note_on_c,10,71,0
11,243249, Note_on_c,10,83,0
11,243249, Note_on_c,10,83,80
11,243249, Note_on_c,10,71,80
11,243339, Note_on_c,10,71,0
11,243339, Note_on_c,10,83,0
11,244205, Note_on_c,10,76,80
11,244205, Note_on_c,10,79,80
11,244295, Note_on_c,10,79,0
11,244295, Note_on_c,10,76,0
11,244295, Note_on_c,10,79,80
11,244295, Note_on_c,10,76,80
11,244385, Note_on_c,10,76,0
11,244385, Note_on_c,10,79,0
11,244571, Note_on_c,10,79,80
11,244571, Note_on_c,10,76,80
11,244661, Note_on_c,10,76,0
11,244661, Note_on_c,10,79,0
11,244661, Note_on_c,10,76,80
11,244661, Note_on_c,10,79,80
11,244751, Note_on_c,10,79,0
11,244751, Note_on_c,10,76,0
11,245597, Note_on_c,10,81,80
11,245597, Note_on_c,10,75,80
11,245687, Note_on_c,10,75,0
11,245687, Note_on_c,10,81,0
11,245687, Note_on_c,10,81,80
11,245687, Note_on_c,10,75,80
11,245777, Note_on_c,10,75,0
11,245777, Note_on_c,10,81,0
11,245929, Note_on_c,10,81,80
11,245929, Note_on_c,10,75,80
11,246019, Note_on_c,10,75,0
11,246019, Note_on_c,10,81,0
11,246019, Note_on_c,10,81,80
11,246019, Note_on_c,10,75,80
11,246109, Note_on_c,10,75,0
11,246109, Note_on_c,10,81,0
11,275733, Note_on_c,10,65,60
11,275733, Note_on_c,10,61,60
11,276003, Note_on_c,10,61,0
11,276003, Note_on_c,10,65,0
11,276074, Note_on_c,10,66,80
11,276074, Note_on_c,10,60,80
11,276748, Note_on_c,10,60,0
11,276748, Note_on_c,10,66,0
11,276756, Note_on_c,10,61,60
11,276756, Note_on_c,10,65,60
11,277056, Note_on_c,10,65,0
11,277056, Note_on_c,10,61,0
11,278345, Note_on_c,10,70,60
11,278345, Note_on_c,10,61,60
11,278615, Note_on_c,10,61,0
11,278615, Note_on_c,10,70,0
11,278686, Note_on_c,10,61,80
11,278686, Note_on_c,10,58,80
11,279360, Note_on_c,10,58,0
11,279360, Note_on_c,10,61,0
11,279366, Note_on_c,10,61,80
11,279366, Note_on_c,10,58,60
11,279666, Note_on_c,10,58,0
11,279666, Note_on_c,10,61,0
11,282390, Note_on_c,10,73,60
11,282810, Note_on_c,10,69,80
11,282846, Note_on_c,10,73,0
11,283526, Note_on_c,10,70,60
11,283606, Note_on_c,10,69,0
11,283906, Note_on_c,10,77,60
11,283906, Note_on_c,10,70,60
11,284290, Note_on_c,10,70,0
11,284310, Note_on_c,10,77,0
11,284310, Note_on_c,10,70,0
11,284310, Note_on_c,10,72,80
11,284310, Note_on_c,10,70,80
11,285010, Note_on_c,10,73,80
11,285010, Note_on_c,10,70,60
11,285078, Note_on_c,10,70,0
11,285078, Note_on_c,10,72,0
11,285394, Note_on_c,10,70,0
11,285394, Note_on_c,10,68,60
11,285394, Note_on_c,10,80,80
11,285398, Note_on_c,10,73,0
11,285758, Note_on_c,10,67,70
11,285758, Note_on_c,10,79,75
11,285790, Note_on_c,10,80,0
11,285790, Note_on_c,10,68,0
11,286166, Note_on_c,10,70,80
11,286166, Note_on_c,10,82,90
11,286218, Note_on_c,10,67,0
11,286218, Note_on_c,10,79,0
11,286550, Note_on_c,10,80,85
11,286550, Note_on_c,10,68,80
11,286586, Note_on_c,10,70,0
11,286586, Note_on_c,10,82,0
11,286930, Note_on_c,10,79,75
11,286930, Note_on_c,10,67,70
11,286942, Note_on_c,10,80,0
11,286942, Note_on_c,10,68,0
11,287290, Note_on_c,10,79,0
11,287290, Note_on_c,10,67,0
11,287290, Note_on_c,10,65,70
11,287290, Note_on_c,10,77,60
11,287646, Note_on_c,10,77,0
11,287646, Note_on_c,10,65,0
11,287650, Note_on_c,10,63,60
11,287650, Note_on_c,10,75,65
11,288006, Note_on_c,10,70,65
11,288058, Note_on_c,10,75,0
11,288058, Note_on_c,10,63,0
11,288386, Note_on_c,10,72,65
11,288386, Note_on_c,10,68,60
11,288402, Note_on_c,10,70,0
11,288650, Note_on_c,10,68,0
11,288650, Note_on_c,10,72,0
11,288802, Note_on_c,10,72,65
11,288802, Note_on_c,10,68,60
11,289186, Note_on_c,10,68,0
11,289214, Note_on_c,10,77,80
11,289214, Note_on_c,10,68,60
11,289218, Note_on_c,10,72,0
11,289574, Note_on_c,10,68,0
11,289602, Note_on_c,10,69,70
11,289962, Note_on_c,10,69,0
11,289990, Note_on_c,10,70,70
11,290350, Note_on_c,10,70,0
11,290378, Note_on_c,10,72,60
11,290378, Note_on_c,10,69,60
11,290402, Note_on_c,10,77,0
11,290750, Note_on_c,10,77,70
11,290750, Note_on_c,10,70,70
11,290766, Note_on_c,10,69,0
11,290766, Note_on_c,10,72,0
11,291102, Note_on_c,10,77,0
11,291102, Note_on_c,10,70,0
11,291110, Note_on_c,10,67,60
11,291110, Note_on_c,10,65,60
11,291490, Note_on_c,10,72,60
11,291490, Note_on_c,10,64,60
11,291506, Note_on_c,10,65,0
11,291506, Note_on_c,10,67,0
11,291862, Note_on_c,10,72,0
11,291862, Note_on_c,10,64,0
11,291862, Note_on_c,10,68,60
11,292238, Note_on_c,10,64,60
11,292250, Note_on_c,10,68,0
11,292610, Note_on_c,10,64,0
11,292614, Note_on_c,10,65,60
11,293038, Note_on_c,10,72,60
11,293038, Note_on_c,10,62,60
11,293046, Note_on_c,10,65,0
11,293498, Note_on_c,10,69,80
11,293498, Note_on_c,10,61,60
11,293522, Note_on_c,10,62,0
11,293522, Note_on_c,10,72,0
11,294350, Note_on_c,10,70,55
11,294382, Note_on_c,10,69,0
11,294830, Note_on_c,10,70,0
11,294850, Note_on_c,10,61,0
11,333010, Note_on_c,10,75,60
11,333010, Note_on_c,10,76,60
11,333414, Note_on_c,10,76,0
11,333414, Note_on_c,10,75,0
11,333422, Note_on_c,10,75,60
11,333422, Note_on_c,10,77,60
11,333826, Note_on_c,10,77,0
11,333826, Note_on_c,10,75,0
11,352254, Note_on_c,10,72,75
11,352678, Note_on_c,10,72,0
11,352678, Note_on_c,10,79,90
11,353038, Note_on_c,10,79,0
11,353046, Note_on_c,10,75,85
11,353396, Note_on_c,10,75,0
11,353402, Note_on_c,10,74,80
11,353762, Note_on_c,10,74,0
11,353774, Note_on_c,10,72,80
11,354178, Note_on_c,10,72,0
11,354182, Note_on_c,10,71,80
11,355170, Note_on_c,10,71,0
11,355230, Note_on_c,10,71,75
11,355634, Note_on_c,10,71,0
11,355646, Note_on_c,10,79,90
11,355976, Note_on_c,10,79,0
11,355986, Note_on_c,10,75,85
11,356316, Note_on_c,10,75,0
11,356318, Note_on_c,10,74,80
11,356668, Note_on_c,10,74,0
11,356682, Note_on_c,10,72,80
11,357032, Note_on_c,10,72,0
11,357098, Note_on_c,10,71,80
11,357502, Note_on_c,10,71,0
11,372054, Note_on_c,10,67,80
11,372054, Note_on_c,10,60,80
11,373006, Note_on_c,10,63,80
11,373006, Note_on_c,10,60,80
11,373092, Note_on_c,10,60,0
11,373092, Note_on_c,10,67,0
11,373096, Note_on_c,10,63,0
11,373096, Note_on_c,10,60,0
11,373111, Note_on_c,10,65,80
11,373111, Note_on_c,10,60,80
11,373201, Note_on_c,10,60,0
11,373201, Note_on_c,10,65,0
11,373216, Note_on_c,10,67,80
11,373216, Note_on_c,10,60,80
11,373306, Note_on_c,10,60,0
11,373306, Note_on_c,10,67,0
11,373322, Note_on_c,10,68,85
11,373322, Note_on_c,10,60,85
11,374250, Note_on_c,10,60,0
11,374250, Note_on_c,10,68,0
11,374274, Note_on_c,10,68,85
11,374274, Note_on_c,10,60,85
11,374364, Note_on_c,10,60,0
11,374364, Note_on_c,10,68,0
11,374377, Note_on_c,10,67,85
11,374377, Note_on_c,10,60,85
11,374467, Note_on_c,10,60,0
11,374467, Note_on_c,10,67,0
11,374479, Note_on_c,10,68,85
11,374479, Note_on_c,10,60,85
11,374569, Note_on_c,10,60,0
11,374569, Note_on_c,10,68,0
11,374582, Note_on_c,10,69,90
11,374582, Note_on_c,10,61,90
11,375520, Note_on_c,10,61,0
11,375520, Note_on_c,10,69,0
11,375542, Note_on_c,10,69,90
11,375542, Note_on_c,10,61,90
11,375632, Note_on_c,10,61,0
11,375632, Note_on_c,10,69,0
11,375639, Note_on_c,10,68,90
11,375639, Note_on_c,10,61,90
11,375729, Note_on_c,10,61,0
11,375729, Note_on_c,10,68,0
11,375736, Note_on_c,10,61,90
11,375736, Note_on_c,10,69,90
11,375826, Note_on_c,10,69,0
11,375826, Note_on_c,10,61,0
11,375834, Note_on_c,10,62,95
11,375834, Note_on_c,10,70,95
11,376124, Note_on_c,10,70,0
11,376124, Note_on_c,10,62,0
11,376160, Note_on_c,10,62,95
11,376160, Note_on_c,10,70,95
11,376250, Note_on_c,10,70,0
11,376250, Note_on_c,10,62,0
11,376265, Note_on_c,10,62,95
11,376265, Note_on_c,10,70,95
11,376355, Note_on_c,10,70,0
11,376355, Note_on_c,10,62,0
11,376370, Note_on_c,10,62,95
11,376370, Note_on_c,10,70,95
11,376460, Note_on_c,10,70,0
11,376460, Note_on_c,10,62,0
11,376478, Note_on_c,10,62,100
11,376478, Note_on_c,10,71,100
11,376768, Note_on_c,10,71,0
11,376768, Note_on_c,10,62,0
11,376782, Note_on_c,10,62,100
11,376782, Note_on_c,10,71,100
11,376872, Note_on_c,10,71,0
11,376872, Note_on_c,10,62,0
11,376879, Note_on_c,10,62,100
11,376879, Note_on_c,10,71,100
11,376969, Note_on_c,10,71,0
11,376969, Note_on_c,10,62,0
11,376976, Note_on_c,10,62,100
11,376976, Note_on_c,10,71,100
11,377066, Note_on_c,10,71,0
11,377066, Note_on_c,10,62,0
11,377074, Note_on_c,10,63,105
11,377074, Note_on_c,10,72,105
11,377364, Note_on_c,10,72,0
11,377364, Note_on_c,10,63,0
11,377378, Note_on_c,10,72,105
11,377378, Note_on_c,10,63,105
11,377468, Note_on_c,10,63,0
11,377468, Note_on_c,10,72,0
11,377472, Note_on_c,10,72,105
11,377472, Note_on_c,10,63,105
11,377562, Note_on_c,10,63,0
11,377562, Note_on_c,10,72,0
11,377566, Note_on_c,10,72,105
11,377566, Note_on_c,10,63,105
11,377656, Note_on_c,10,63,0
11,377656, Note_on_c,10,72,0
11,377670, Note_on_c,10,73,110
11,377670, Note_on_c,10,64,110
11,377960, Note_on_c,10,64,0
11,377960, Note_on_c,10,73,0
11,377962, Note_on_c,10,73,110
11,377962, Note_on_c,10,64,110
11,378052, Note_on_c,10,64,0
11,378052, Note_on_c,10,73,0
11,378058, Note_on_c,10,73,110
11,378058, Note_on_c,10,64,110
11,378148, Note_on_c,10,64,0
11,378148, Note_on_c,10,73,0
11,378154, Note_on_c,10,73,110
11,378154, Note_on_c,10,64,110
11,378244, Note_on_c,10,64,0
11,378244, Note_on_c,10,73,0
11,378250, Note_on_c,10,65,110
11,378250, Note_on_c,10,74,110
11,378734, Note_on_c,10,74,0
11,378734, Note_on_c,10,65,0
11,378846, Note_on_c,10,66,115
11,378846, Note_on_c,10,75,115
11,379330, Note_on_c,10,75,0
11,379330, Note_on_c,10,66,0
11,379446, Note_on_c,10,67,120
11,379446, Note_on_c,10,76,120
11,379722, Note_on_c,10,68,120
11,379722, Note_on_c,10,77,120
11,379746, Note_on_c,10,76,0
11,379746, Note_on_c,10,67,0
11,379998, Note_on_c,10,69,120
11,379998, Note_on_c,10,78,120
11,380022, Note_on_c,10,68,0
11,380022, Note_on_c,10,77,0
11,380161, Control_c,10,11,110
11,380282, Note_on_c,10,71,120
11,380282, Note_on_c,10,79,120
11,380298, Note_on_c,10,69,0
11,380298, Note_on_c,10,78,0
11,380582, Note_on_c,10,71,0
11,380582, Note_on_c,10,79,0
11,380614, Note_on_c,10,80,120
11,380614, Note_on_c,10,71,120
11,380614, Note_on_c,10,80,120
11,380764, Note_on_c,10,80,0
11,380764, Note_on_c,10,71,0
11,380764, Note_on_c,10,80,0
11,383278, Note_on_c,10,72,120
11,383278, Note_on_c,10,78,120
11,383428, Note_on_c,10,78,0
11,383428, Note_on_c,10,72,0
11,385920, Note_on_c,10,77,120
11,385920, Note_on_c,10,80,120
11,386070, Note_on_c,10,80,0
11,386070, Note_on_c,10,77,0
11,386566, Note_on_c,10,80,120
11,386566, Note_on_c,10,77,120
11,386716, Note_on_c,10,77,0
11,386716, Note_on_c,10,80,0
11,387194, Note_on_c,10,80,120
11,387194, Note_on_c,10,77,120
11,387344, Note_on_c,10,77,0
11,387344, Note_on_c,10,80,0
11,387850, Note_on_c,10,80,120
11,387850, Note_on_c,10,77,120
11,388000, Note_on_c,10,77,0
11,388000, Note_on_c,10,80,0
11,388522, Note_on_c,10,78,120
11,388522, Note_on_c,10,84,120
11,388672, Note_on_c,10,84,0
11,388672, Note_on_c,10,78,0
11,389290, Note_on_c,10,79,120
11,389290, Note_on_c,10,84,120
11,389440, Note_on_c,10,84,0
11,389440, Note_on_c,10,79,0
11,407809, Control_c,10,11,60
11,407894, Note_on_c,10,58,70
11,407894, Note_on_c,10,61,70
11,409316, Note_on_c,10,61,0
11,409316, Note_on_c,10,58,0
11,409326, Note_on_c,10,60,70
11,409326, Note_on_c,10,63,70
11,410060, Note_on_c,10,63,0
11,410060, Note_on_c,10,60,0
11,410068, Note_on_c,10,60,70
11,410068, Note_on_c,10,56,70
11,410782, Note_on_c,10,56,0
11,410782, Note_on_c,10,60,0
11,410786, Note_on_c,10,58,70
11,410786, Note_on_c,10,55,70
11,412208, Note_on_c,10,55,0
11,412208, Note_on_c,10,58,0
11,412227, Note_on_c,10,56,70
11,412227, Note_on_c,10,60,70
11,413649, Note_on_c,10,60,0
11,413649, Note_on_c,10,56,0
11,413682, Note_on_c,10,58,70
11,413682, Note_on_c,10,61,70
11,415104, Note_on_c,10,61,0
11,415104, Note_on_c,10,58,0
11,415130, Note_on_c,10,60,70
11,415130, Note_on_c,10,63,70
11,415834, Note_on_c,10,63,0
11,415834, Note_on_c,10,60,0
11,415846, Note_on_c,10,56,70
11,415846, Note_on_c,10,60,70
11,416550, Note_on_c,10,60,0
11,416550, Note_on_c,10,56,0
11,416578, Note_on_c,10,55,70
11,416578, Note_on_c,10,58,70
11,418050, Note_on_c,10,58,0
11,418050, Note_on_c,10,55,0
11,418054, Note_on_c,10,56,70
11,418054, Note_on_c,10,60,70
11,419206, Note_on_c,10,60,0
11,419206, Note_on_c,10,56,0
11,419329, Control_c,10,11,60
11,419510, Note_on_c,10,70,70
11,419510, Note_on_c,10,73,70
11,420812, Note_on_c,10,73,0
11,420812, Note_on_c,10,70,0
11,420822, Note_on_c,10,75,70
11,420822, Note_on_c,10,72,70
11,421466, Note_on_c,10,72,0
11,421466, Note_on_c,10,75,0
11,421474, Note_on_c,10,72,70
11,421474, Note_on_c,10,68,70
11,422108, Note_on_c,10,68,0
11,422108, Note_on_c,10,72,0
11,422122, Note_on_c,10,67,70
11,422122, Note_on_c,10,70,70
11,423404, Note_on_c,10,70,0
11,423404, Note_on_c,10,67,0
11,423410, Note_on_c,10,68,70
11,423410, Note_on_c,10,72,70
11,424692, Note_on_c,10,72,0
11,424692, Note_on_c,10,68,0
11,424718, Note_on_c,10,70,70
11,424718, Note_on_c,10,73,70
11,425990, Note_on_c,10,73,0
11,425990, Note_on_c,10,70,0
11,426002, Note_on_c,10,72,70
11,426002, Note_on_c,10,75,70
11,426636, Note_on_c,10,75,0
11,426636, Note_on_c,10,72,0
11,426654, Note_on_c,10,72,70
11,426654, Note_on_c,10,68,70
11,427298, Note_on_c,10,68,0
11,427298, Note_on_c,10,72,0
11,427314, Note_on_c,10,71,70
11,427314, Note_on_c,10,68,70
11,428666, Note_on_c,10,68,0
11,428666, Note_on_c,10,71,0
11,430050, Note_on_c,10,68,70
11,430050, Note_on_c,10,71,70
11,431402, Note_on_c,10,71,0
11,431402, Note_on_c,10,68,0
11,432790, Note_on_c,10,72,60
11,432790, Note_on_c,10,75,60
11,433490, Note_on_c,10,75,0
11,433490, Note_on_c,10,72,0
11,434218, Note_on_c,10,72,60
11,434218, Note_on_c,10,75,60
11,434918, Note_on_c,10,75,0
11,434918, Note_on_c,10,72,0
11,435590, Note_on_c,10,75,60
11,435590, Note_on_c,10,68,60
11,438628, Note_on_c,10,68,0
11,438628, Note_on_c,10,75,0
11,442753, Control_c,10,11,80
11,445042, Control_c,10,11,81
11,445299, Note_on_c,10,72,70
11,445361, Note_on_c,10,73,70
11,445389, Note_on_c,10,72,0
11,445451, Note_on_c,10,73,0
11,445615, Note_on_c,10,77,70
11,445675, Note_on_c,10,75,70
11,445705, Note_on_c,10,77,0
11,445765, Note_on_c,10,75,0
11,445931, Note_on_c,10,66,70
11,445991, Note_on_c,10,65,70
11,446021, Note_on_c,10,66,0
11,446081, Note_on_c,10,65,0
11,446247, Note_on_c,10,75,70
11,446307, Note_on_c,10,73,70
11,446337, Note_on_c,10,75,0
11,446397, Note_on_c,10,73,0
11,446563, Note_on_c,10,69,70
11,446623, Note_on_c,10,70,70
11,446653, Note_on_c,10,69,0
11,446713, Note_on_c,10,70,0
11,446879, Note_on_c,10,73,70
11,446939, Note_on_c,10,72,70
11,446969, Note_on_c,10,73,0
11,447029, Note_on_c,10,72,0
11,447195, Note_on_c,10,68,70
11,447255, Note_on_c,10,69,70
11,447285, Note_on_c,10,68,0
11,447332, Control_c,10,11,82
11,447345, Note_on_c,10,69,0
11,447511, Note_on_c,10,72,70
11,447581, Note_on_c,10,70,70
11,447601, Note_on_c,10,72,0
11,447671, Note_on_c,10,70,0
11,449621, Control_c,10,11,83
11,450355, Note_on_c,10,74,70
11,450415, Note_on_c,10,75,70
11,450445, Note_on_c,10,74,0
11,450505, Note_on_c,10,75,0
11,450671, Note_on_c,10,79,70
11,450731, Note_on_c,10,77,70
11,450761, Note_on_c,10,79,0
11,450821, Note_on_c,10,77,0
11,450987, Note_on_c,10,68,70
11,451047, Note_on_c,10,67,70
11,451077, Note_on_c,10,68,0
11,451137, Note_on_c,10,67,0
11,451303, Note_on_c,10,77,70
11,451363, Note_on_c,10,75,70
11,451393, Note_on_c,10,77,0
11,451453, Note_on_c,10,75,0
11,451619, Note_on_c,10,71,70
11,451679, Note_on_c,10,72,70
11,451709, Note_on_c,10,71,0
11,451769, Note_on_c,10,72,0
11,451911, Control_c,10,11,84
11,451935, Note_on_c,10,75,70
11,451999, Note_on_c,10,74,70
11,452025, Note_on_c,10,75,0
11,452089, Note_on_c,10,74,0
11,452251, Note_on_c,10,70,70
11,452311, Note_on_c,10,71,70
11,452341, Note_on_c,10,70,0
11,452401, Note_on_c,10,71,0
11,452567, Note_on_c,10,74,70
11,452627, Note_on_c,10,72,70
11,452627, Note_on_c,10,72,70
11,452657, Note_on_c,10,74,0
11,452717, Note_on_c,10,72,0
11,452717, Note_on_c,10,72,0
11,454147, Note_on_c,10,67,70
11,454147, Note_on_c,10,79,70
11,454201, Control_c,10,11,85
11,455387, Note_on_c,10,79,0
11,455387, Note_on_c,10,67,0
11,456490, Control_c,10,11,86
11,456675, Note_on_c,10,69,70
11,456675, Note_on_c,10,81,70
11,457915, Note_on_c,10,81,0
11,457915, Note_on_c,10,69,0
11,458780, Control_c,10,11,87
11,460467, Note_on_c,10,71,70
11,460617, Note_on_c,10,71,0
11,460625, Note_on_c,10,72,70
11,460775, Note_on_c,10,72,0
11,460783, Note_on_c,10,74,70
11,460933, Note_on_c,10,74,0
11,460941, Note_on_c,10,75,70
11,461070, Control_c,10,11,88
11,461091, Note_on_c,10,75,0
11,461099, Note_on_c,10,76,70
11,461249, Note_on_c,10,76,0
11,461257, Note_on_c,10,77,70
11,461407, Note_on_c,10,77,0
11,461415, Note_on_c,10,75,70
11,461565, Note_on_c,10,75,0
11,461573, Note_on_c,10,76,70
11,461723, Note_on_c,10,76,0
11,461731, Note_on_c,10,81,70
11,461881, Note_on_c,10,81,0
11,461889, Note_on_c,10,80,70
11,462039, Note_on_c,10,80,0
11,462047, Note_on_c,10,79,70
11,462197, Note_on_c,10,79,0
11,462205, Note_on_c,10,78,70
11,462355, Note_on_c,10,78,0
11,462363, Note_on_c,10,77,70
11,462513, Note_on_c,10,77,0
11,462521, Note_on_c,10,76,70
11,462671, Note_on_c,10,76,0
11,462679, Note_on_c,10,75,70
11,462829, Note_on_c,10,75,0
11,462837, Note_on_c,10,76,70
11,462987, Note_on_c,10,76,0
11,463359, Control_c,10,11,89
11,465523, Note_on_c,10,73,70
11,465649, Control_c,10,11,90
11,465673, Note_on_c,10,73,0
11,465681, Note_on_c,10,74,70
11,465831, Note_on_c,10,74,0
11,465839, Note_on_c,10,76,70
11,465989, Note_on_c,10,76,0
11,465997, Note_on_c,10,77,70
11,466147, Note_on_c,10,77,0
11,466155, Note_on_c,10,78,70
11,466305, Note_on_c,10,78,0
11,466313, Note_on_c,10,79,70
11,466463, Note_on_c,10,79,0
11,466471, Note_on_c,10,77,70
11,466621, Note_on_c,10,77,0
11,466629, Note_on_c,10,78,70
11,466779, Note_on_c,10,78,0
11,466787, Note_on_c,10,83,70
11,466937, Note_on_c,10,83,0
11,466945, Note_on_c,10,82,70
11,467095, Note_on_c,10,82,0
11,467103, Note_on_c,10,81,70
11,467253, Note_on_c,10,81,0
11,467261, Note_on_c,10,80,70
11,467411, Note_on_c,10,80,0
11,467419, Note_on_c,10,79,70
11,467569, Note_on_c,10,79,0
11,467577, Note_on_c,10,78,70
11,467727, Note_on_c,10,78,0
11,467735, Note_on_c,10,77,70
11,467885, Note_on_c,10,77,0
11,467893, Note_on_c,10,78,70
11,467938, Control_c,10,11,91
11,468043, Note_on_c,10,78,0
11,468367, Note_on_c,10,71,80
11,468367, Note_on_c,10,59,80
11,469626, Note_on_c,10,59,0
11,469626, Note_on_c,10,71,0
11,470228, Control_c,10,11,92
11,472518, Control_c,10,11,93
11,473433, Note_on_c,10,69,80
11,473433, Note_on_c,10,57,80
11,474692, Note_on_c,10,57,0
11,474692, Note_on_c,10,69,0
11,474807, Control_c,10,11,94
11,477097, Control_c,10,11,95
11,478183, Note_on_c,10,67,80
11,478493, Note_on_c,10,67,0
11,478499, Note_on_c,10,79,80
11,478499, Note_on_c,10,67,80
11,479387, Control_c,10,11,96
11,479751, Note_on_c,10,67,0
11,479751, Note_on_c,10,79,0
11,479763, Note_on_c,10,77,80
11,480073, Note_on_c,10,77,0
11,480089, Note_on_c,10,75,80
11,480399, Note_on_c,10,75,0
11,480405, Note_on_c,10,74,80
11,480715, Note_on_c,10,74,0
11,480723, Note_on_c,10,67,80
11,481033, Note_on_c,10,67,0
11,481039, Note_on_c,10,79,80
11,481039, Note_on_c,10,67,80
11,481676, Control_c,10,11,97
11,482291, Note_on_c,10,67,0
11,482291, Note_on_c,10,79,0
11,482303, Note_on_c,10,77,80
11,482613, Note_on_c,10,77,0
11,482629, Note_on_c,10,75,80
11,482939, Note_on_c,10,75,0
11,482945, Note_on_c,10,74,80
11,483255, Note_on_c,10,74,0
11,483261, Note_on_c,10,60,90
11,483261, Note_on_c,10,72,90
11,483571, Note_on_c,10,72,0
11,483571, Note_on_c,10,60,0
11,483577, Note_on_c,10,62,90
11,483577, Note_on_c,10,74,90
11,483887, Note_on_c,10,74,0
11,483887, Note_on_c,10,62,0
11,483893, Note_on_c,10,64,90
11,483893, Note_on_c,10,76,90
11,483966, Control_c,10,11,98
11,484203, Note_on_c,10,76,0
11,484203, Note_on_c,10,64,0
11,484209, Note_on_c,10,60,90
11,484209, Note_on_c,10,72,90
11,484519, Note_on_c,10,72,0
11,484519, Note_on_c,10,60,0
11,484525, Note_on_c,10,62,90
11,484525, Note_on_c,10,74,90
11,484835, Note_on_c,10,74,0
11,484835, Note_on_c,10,62,0
11,484841, Note_on_c,10,64,90
11,484841, Note_on_c,10,76,90
11,485151, Note_on_c,10,76,0
11,485151, Note_on_c,10,64,0
11,485167, Note_on_c,10,65,90
11,485167, Note_on_c,10,77,90
11,485477, Note_on_c,10,77,0
11,485477, Note_on_c,10,65,0
11,485483, Note_on_c,10,67,90
11,485483, Note_on_c,10,79,90
11,485793, Note_on_c,10,79,0
11,485793, Note_on_c,10,67,0
11,485799, Note_on_c,10,60,90
11,485799, Note_on_c,10,72,90
11,486109, Note_on_c,10,72,0
11,486109, Note_on_c,10,60,0
11,486115, Note_on_c,10,62,90
11,486115, Note_on_c,10,74,90
11,486256, Control_c,10,11,99
11,486425, Note_on_c,10,74,0
11,486425, Note_on_c,10,62,0
11,486431, Note_on_c,10,64,90
11,486431, Note_on_c,10,76,90
11,486741, Note_on_c,10,76,0
11,486741, Note_on_c,10,64,0
11,486747, Note_on_c,10,60,90
11,486747, Note_on_c,10,72,90
11,487057, Note_on_c,10,72,0
11,487057, Note_on_c,10,60,0
11,487063, Note_on_c,10,62,90
11,487063, Note_on_c,10,74,90
11,487373, Note_on_c,10,74,0
11,487373, Note_on_c,10,62,0
11,487379, Note_on_c,10,64,90
11,487379, Note_on_c,10,76,90
11,487689, Note_on_c,10,76,0
11,487689, Note_on_c,10,64,0
11,487705, Note_on_c,10,65,90
11,487705, Note_on_c,10,77,90
11,488015, Note_on_c,10,77,0
11,488015, Note_on_c,10,65,0
11,488021, Note_on_c,10,67,90
11,488021, Note_on_c,10,79,90
11,488331, Note_on_c,10,79,0
11,488331, Note_on_c,10,67,0
11,488337, Note_on_c,10,60,90
11,488337, Note_on_c,10,72,90
11,488545, Control_c,10,11,100
11,488647, Note_on_c,10,72,0
11,488647, Note_on_c,10,60,0
11,488653, Note_on_c,10,62,90
11,488653, Note_on_c,10,74,90
11,488963, Note_on_c,10,74,0
11,488963, Note_on_c,10,62,0
11,488969, Note_on_c,10,64,90
11,488969, Note_on_c,10,76,90
11,489279, Note_on_c,10,76,0
11,489279, Note_on_c,10,64,0
11,489285, Note_on_c,10,60,90
11,489285, Note_on_c,10,72,90
11,489595, Note_on_c,10,72,0
11,489595, Note_on_c,10,60,0
11,489601, Note_on_c,10,62,90
11,489601, Note_on_c,10,74,90
11,489911, Note_on_c,10,74,0
11,489911, Note_on_c,10,62,0
11,489917, Note_on_c,10,64,90
11,489917, Note_on_c,10,76,90
11,490227, Note_on_c,10,76,0
11,490227, Note_on_c,10,64,0
11,490243, Note_on_c,10,65,90
11,490243, Note_on_c,10,77,90
11,490553, Note_on_c,10,77,0
11,490553, Note_on_c,10,65,0
11,490559, Note_on_c,10,59,90
11,490559, Note_on_c,10,71,90
11,490770, Note_on_c,10,65,90
11,490835, Control_c,10,11,101
11,490869, Note_on_c,10,71,0
11,490869, Note_on_c,10,59,0
11,490970, Note_on_c,10,65,0
11,490981, Note_on_c,10,67,90
11,491181, Note_on_c,10,67,0
11,491192, Note_on_c,10,68,90
11,491392, Note_on_c,10,68,0
11,491403, Note_on_c,10,62,90
11,491603, Note_on_c,10,62,0
11,491614, Note_on_c,10,64,90
11,491814, Note_on_c,10,64,0
11,491825, Note_on_c,10,65,90
11,492025, Note_on_c,10,65,0
11,492036, Note_on_c,10,65,90
11,492236, Note_on_c,10,65,0
11,492247, Note_on_c,10,67,90
11,492447, Note_on_c,10,67,0
11,492458, Note_on_c,10,68,90
11,492658, Note_on_c,10,68,0
11,492669, Note_on_c,10,62,90
11,492869, Note_on_c,10,62,0
11,492880, Note_on_c,10,64,90
11,493080, Note_on_c,10,64,0
11,493091, Note_on_c,10,65,90
11,493124, Control_c,10,11,102
11,493291, Note_on_c,10,65,0
11,493407, Note_on_c,10,60,90
11,493707, Note_on_c,10,60,0
11,493723, Note_on_c,10,62,90
11,494023, Note_on_c,10,62,0
11,494039, Note_on_c,10,64,90
11,494339, Note_on_c,10,64,0
11,494355, Note_on_c,10,60,90
11,494655, Note_on_c,10,60,0
11,494671, Note_on_c,10,62,90
11,494971, Note_on_c,10,62,0
11,494987, Note_on_c,10,64,90
11,495287, Note_on_c,10,64,0
11,495313, Note_on_c,10,65,90
11,495414, Control_c,10,11,103
11,495613, Note_on_c,10,65,0
11,495629, Note_on_c,10,59,90
11,495829, Note_on_c,10,59,0
11,495840, Note_on_c,10,65,90
11,496040, Note_on_c,10,65,0
11,496051, Note_on_c,10,67,90
11,496251, Note_on_c,10,67,0
11,496262, Note_on_c,10,77,90
11,496262, Note_on_c,10,68,90
11,496462, Note_on_c,10,68,0
11,496473, Note_on_c,10,62,90
11,496673, Note_on_c,10,62,0
11,496684, Note_on_c,10,64,90
11,496884, Note_on_c,10,64,0
11,496895, Note_on_c,10,65,90
11,497095, Note_on_c,10,65,0
11,497102, Note_on_c,10,77,0
11,497106, Note_on_c,10,65,90
11,497306, Note_on_c,10,65,0
11,497317, Note_on_c,10,67,90
11,497517, Note_on_c,10,67,0
11,497528, Note_on_c,10,77,90
11,497528, Note_on_c,10,68,90
11,497704, Control_c,10,11,104
11,497728, Note_on_c,10,68,0
11,497739, Note_on_c,10,62,90
11,497939, Note_on_c,10,62,0
11,497950, Note_on_c,10,64,90
11,498150, Note_on_c,10,64,0
11,498161, Note_on_c,10,65,90
11,498361, Note_on_c,10,65,0
11,498368, Note_on_c,10,77,0
11,498372, Note_on_c,10,65,90
11,498572, Note_on_c,10,65,0
11,498583, Note_on_c,10,67,90
11,498783, Note_on_c,10,67,0
11,498794, Note_on_c,10,77,90
11,498794, Note_on_c,10,68,90
11,498994, Note_on_c,10,68,0
11,499005, Note_on_c,10,62,90
11,499205, Note_on_c,10,62,0
11,499216, Note_on_c,10,64,90
11,499416, Note_on_c,10,64,0
11,499427, Note_on_c,10,65,90
11,499627, Note_on_c,10,65,0
11,499634, Note_on_c,10,77,0
11,499638, Note_on_c,10,65,90
11,499838, Note_on_c,10,65,0
11,499849, Note_on_c,10,67,90
11,499993, Control_c,10,11,105
11,500049, Note_on_c,10,67,0
11,500060, Note_on_c,10,68,90
11,500260, Note_on_c,10,68,0
11,500271, Note_on_c,10,62,90
11,500471, Note_on_c,10,62,0
11,500482, Note_on_c,10,64,90
11,500682, Note_on_c,10,64,0
11,500693, Note_on_c,10,65,90
11,500893, Note_on_c,10,65,0
11,500904, Note_on_c,10,65,90
11,501104, Note_on_c,10,65,0
11,501115, Note_on_c,10,67,90
11,501315, Note_on_c,10,67,0
11,501326, Note_on_c,10,77,90
11,501326, Note_on_c,10,69,90
11,501526, Note_on_c,10,69,0
11,501537, Note_on_c,10,62,90
11,501737, Note_on_c,10,62,0
11,501748, Note_on_c,10,64,90
11,501948, Note_on_c,10,64,0
11,501959, Note_on_c,10,65,90
11,502159, Note_on_c,10,65,0
11,502166, Note_on_c,10,77,0
11,502170, Note_on_c,10,65,90
11,502283, Control_c,10,11,106
11,502370, Note_on_c,10,65,0
11,502381, Note_on_c,10,67,90
11,502581, Note_on_c,10,67,0
11,502592, Note_on_c,10,69,90
11,502792, Note_on_c,10,69,0
11,502803, Note_on_c,10,62,90
11,503003, Note_on_c,10,62,0
11,503014, Note_on_c,10,64,90
11,503214, Note_on_c,10,64,0
11,503225, Note_on_c,10,65,90
11,503425, Note_on_c,10,65,0
11,503436, Note_on_c,10,65,90
11,503636, Note_on_c,10,65,0
11,503647, Note_on_c,10,67,90
11,503847, Note_on_c,10,67,0
11,503858, Note_on_c,10,77,90
11,503858, Note_on_c,10,69,90
11,504008, Note_on_c,10,69,0
11,504016, Note_on_c,10,67,90
11,504166, Note_on_c,10,67,0
11,504174, Note_on_c,10,65,90
11,504324, Note_on_c,10,65,0
11,504332, Note_on_c,10,64,90
11,504482, Note_on_c,10,64,0
11,504490, Note_on_c,10,65,90
11,504573, Control_c,10,11,107
11,504640, Note_on_c,10,65,0
11,504648, Note_on_c,10,64,90
11,504698, Note_on_c,10,77,0
11,504798, Note_on_c,10,64,0
11,504806, Note_on_c,10,62,90
11,504956, Note_on_c,10,62,0
11,504964, Note_on_c,10,61,90
11,505114, Note_on_c,10,61,0
11,505122, Note_on_c,10,62,90
11,505272, Note_on_c,10,62,0
11,505280, Note_on_c,10,60,90
11,505430, Note_on_c,10,60,0
11,505438, Note_on_c,10,58,90
11,505588, Note_on_c,10,58,0
11,505596, Note_on_c,10,57,90
11,505746, Note_on_c,10,57,0
11,505754, Note_on_c,10,65,90
11,505904, Note_on_c,10,65,0
11,505912, Note_on_c,10,63,90
11,506062, Note_on_c,10,63,0
11,506070, Note_on_c,10,62,90
11,506220, Note_on_c,10,62,0
11,506228, Note_on_c,10,61,90
11,506378, Note_on_c,10,61,0
11,506386, Note_on_c,10,74,90
11,506386, Note_on_c,10,62,90
11,506536, Note_on_c,10,62,0
11,506544, Note_on_c,10,60,90
11,506694, Note_on_c,10,60,0
11,506702, Note_on_c,10,58,90
11,506852, Note_on_c,10,58,0
11,506860, Note_on_c,10,57,90
11,506862, Control_c,10,11,108
11,507010, Note_on_c,10,57,0
11,507018, Note_on_c,10,58,90
11,507168, Note_on_c,10,58,0
11,507176, Note_on_c,10,57,90
11,507226, Note_on_c,10,74,0
11,507326, Note_on_c,10,57,0
11,507334, Note_on_c,10,55,90
11,507484, Note_on_c,10,55,0
11,507492, Note_on_c,10,53,90
11,507642, Note_on_c,10,53,0
11,509152, Control_c,10,11,109
11,511442, Control_c,10,11,110
11,511442, Note_on_c,10,75,90
11,511442, Note_on_c,10,70,90
11,511642, Note_on_c,10,70,0
11,511642, Note_on_c,10,75,0
11,557185, Control_c,10,11,80
11,557385, Note_on_c,10,75,80
11,557535, Note_on_c,10,75,0
11,557554, Note_on_c,10,73,80
11,557704, Note_on_c,10,73,0
11,557723, Note_on_c,10,74,80
11,557873, Note_on_c,10,74,0
11,558382, Note_on_c,10,75,80
11,558532, Note_on_c,10,75,0
11,558540, Note_on_c,10,73,80
11,558690, Note_on_c,10,73,0
11,558698, Note_on_c,10,74,80
11,558848, Note_on_c,10,74,0
11,559365, Note_on_c,10,76,80
11,559515, Note_on_c,10,76,0
11,559526, Note_on_c,10,74,80
11,559676, Note_on_c,10,74,0
11,559687, Note_on_c,10,75,80
11,559837, Note_on_c,10,75,0
11,560365, Note_on_c,10,76,80
11,560515, Note_on_c,10,76,0
11,560526, Note_on_c,10,74,80
11,560676, Note_on_c,10,74,0
11,560687, Note_on_c,10,75,80
11,560837, Note_on_c,10,75,0
11,561025, Control_c,10,11,70
11,561252, Note_on_c,10,52,70
11,561252, Note_on_c,10,56,70
11,562800, Note_on_c,10,56,0
11,562800, Note_on_c,10,52,0
11,563148, Note_on_c,10,52,70
11,563148, Note_on_c,10,56,70
11,565014, Note_on_c,10,56,0
11,565014, Note_on_c,10,52,0
11,565680, Note_on_c,10,61,70
11,565680, Note_on_c,10,57,70
11,567216, Note_on_c,10,57,0
11,567216, Note_on_c,10,61,0
11,567822, Note_on_c,10,57,70
11,567822, Note_on_c,10,61,70
11,568600, Note_on_c,10,61,0
11,568600, Note_on_c,10,57,0
11,570268, Note_on_c,10,63,70
11,570268, Note_on_c,10,51,70
11,571750, Note_on_c,10,51,0
11,571750, Note_on_c,10,63,0
11,572164, Note_on_c,10,63,70
11,572164, Note_on_c,10,51,70
11,573646, Note_on_c,10,51,0
11,573646, Note_on_c,10,63,0
11,574432, Note_on_c,10,63,70
11,574432, Note_on_c,10,51,70
11,574792, Note_on_c,10,51,0
11,574792, Note_on_c,10,63,0
11,574808, Note_on_c,10,68,70
11,574808, Note_on_c,10,56,70
11,576060, Note_on_c,10,56,0
11,576060, Note_on_c,10,68,0
11,576648, Note_on_c,10,68,70
11,576648, Note_on_c,10,56,70
11,578220, Note_on_c,10,56,0
11,578220, Note_on_c,10,68,0
11,578864, Note_on_c,10,68,70
11,578864, Note_on_c,10,56,70
11,579224, Note_on_c,10,56,0
11,579224, Note_on_c,10,68,0
11,579240, Note_on_c,10,73,70
11,579240, Note_on_c,10,61,70
11,580438, Note_on_c,10,61,0
11,580438, Note_on_c,10,73,0
11,581096, Note_on_c,10,73,70
11,581096, Note_on_c,10,61,70
11,582348, Note_on_c,10,61,0
11,582348, Note_on_c,10,73,0
11,583312, Note_on_c,10,73,70
11,583312, Note_on_c,10,61,70
11,583587, Note_on_c,10,61,0
11,583587, Note_on_c,10,73,0
11,583698, Control_c,10,11,70
11,583698, Note_on_c,10,73,70
11,583698, Note_on_c,10,78,70
11,583783, Control_c,10,11,71
11,583869, Control_c,10,11,72
11,583954, Control_c,10,11,73
11,584040, Control_c,10,11,74
11,584125, Control_c,10,11,75
11,584211, Control_c,10,11,76
11,584296, Control_c,10,11,77
11,584382, Control_c,10,11,78
11,584467, Control_c,10,11,79
11,584553, Control_c,10,11,80
11,584636, Note_on_c,10,78,0
11,584636, Note_on_c,10,73,0
11,584638, Control_c,10,11,81
11,584724, Control_c,10,11,82
11,584809, Control_c,10,11,83
11,584838, Note_on_c,10,75,70
11,584838, Note_on_c,10,79,70
11,584895, Control_c,10,11,84
11,584980, Control_c,10,11,85
11,585066, Control_c,10,11,86
11,585151, Control_c,10,11,87
11,585237, Control_c,10,11,88
11,585322, Control_c,10,11,89
11,585408, Control_c,10,11,90
11,585493, Control_c,10,11,91
11,585579, Control_c,10,11,92
11,585664, Control_c,10,11,93
11,585750, Control_c,10,11,94
11,585776, Note_on_c,10,79,0
11,585776, Note_on_c,10,75,0
11,585835, Control_c,10,11,95
11,585921, Control_c,10,11,96
11,585978, Note_on_c,10,79,70
11,585978, Note_on_c,10,76,70
11,586006, Control_c,10,11,97
11,586092, Control_c,10,11,98
11,586177, Control_c,10,11,99
11,586263, Control_c,10,11,100
11,586348, Control_c,10,11,101
11,586434, Control_c,10,11,102
11,586519, Control_c,10,11,103
11,586605, Control_c,10,11,104
11,586690, Control_c,10,11,105
11,586776, Control_c,10,11,106
11,586861, Control_c,10,11,107
11,586916, Note_on_c,10,76,0
11,586916, Note_on_c,10,79,0
11,586947, Control_c,10,11,108
11,587032, Control_c,10,11,109
11,587118, Control_c,10,11,110
11,587118, Note_on_c,10,80,70
11,587118, Note_on_c,10,77,70
11,588056, Note_on_c,10,77,0
11,588056, Note_on_c,10,80,0
11,588828, Note_on_c,10,71,90
11,588828, Note_on_c,10,78,90
11,589028, Note_on_c,10,78,0
11,589028, Note_on_c,10,71,0
11,589968, Note_on_c,10,77,90
11,589968, Note_on_c,10,80,90
11,590168, Note_on_c,10,80,0
11,590168, Note_on_c,10,77,0
11,591108, Note_on_c,10,71,90
11,591108, Note_on_c,10,78,90
11,591308, Note_on_c,10,78,0
11,591308, Note_on_c,10,71,0
11,594433, Control_c,10,11,80
11,594559, Note_on_c,10,75,70
11,594651, Note_on_c,10,76,70
11,594659, Note_on_c,10,75,0
11,594751, Note_on_c,10,76,0
11,594859, Note_on_c,10,78,70
11,594959, Note_on_c,10,78,0
11,594959, Note_on_c,10,76,70
11,595059, Note_on_c,10,76,0
11,595175, Note_on_c,10,80,70
11,595275, Note_on_c,10,80,0
11,595283, Note_on_c,10,78,70
11,595383, Note_on_c,10,78,0
11,595511, Note_on_c,10,76,70
11,595611, Note_on_c,10,76,0
11,595619, Note_on_c,10,75,70
11,595719, Note_on_c,10,75,0
11,599371, Note_on_c,10,77,70
11,599471, Note_on_c,10,77,0
11,599484, Note_on_c,10,78,70
11,599584, Note_on_c,10,78,0
11,599671, Note_on_c,10,80,70
11,599771, Note_on_c,10,80,0
11,599771, Note_on_c,10,78,70
11,599871, Note_on_c,10,78,0
11,599987, Note_on_c,10,82,70
11,600087, Note_on_c,10,82,0
11,600095, Note_on_c,10,80,70
11,600195, Note_on_c,10,80,0
11,600323, Note_on_c,10,78,70
11,600423, Note_on_c,10,78,0
11,600431, Note_on_c,10,77,70
11,600531, Note_on_c,10,77,0
11,609708, Note_on_c,10,66,70
11,609708, Note_on_c,10,70,70
11,610362, Note_on_c,10,70,0
11,610362, Note_on_c,10,66,0
11,610372, Note_on_c,10,66,70
11,610372, Note_on_c,10,71,70
11,611026, Note_on_c,10,71,0
11,611026, Note_on_c,10,66,0
11,611032, Note_on_c,10,67,70
11,611032, Note_on_c,10,71,70
11,611686, Note_on_c,10,71,0
11,611686, Note_on_c,10,67,0
11,611692, Note_on_c,10,72,70
11,611692, Note_on_c,10,67,70
11,612346, Note_on_c,10,67,0
11,612346, Note_on_c,10,72,0
11,615380, Note_on_c,10,69,70
11,615380, Note_on_c,10,73,70
11,616034, Note_on_c,10,73,0
11,616034, Note_on_c,10,69,0
11,616044, Note_on_c,10,69,70
11,616044, Note_on_c,10,74,70
11,616698, Note_on_c,10,74,0
11,616698, Note_on_c,10,69,0
11,616704, Note_on_c,10,70,70
11,616704, Note_on_c,10,74,70
11,617358, Note_on_c,10,74,0
11,617358, Note_on_c,10,70,0
11,617364, Note_on_c,10,70,70
11,617364, Note_on_c,10,75,70
11,618018, Note_on_c,10,75,0
11,618018, Note_on_c,10,70,0
11,618036, Note_on_c,10,73,100
11,618036, Note_on_c,10,76,100
11,618216, Note_on_c,10,76,0
11,618216, Note_on_c,10,73,0
11,619688, Note_on_c,10,73,100
11,619688, Note_on_c,10,77,100
11,619868, Note_on_c,10,77,0
11,619868, Note_on_c,10,73,0
11,638209, Control_c,10,11,70
11,638574, Note_on_c,10,58,70
11,638574, Note_on_c,10,61,70
11,639746, Note_on_c,10,61,0
11,639746, Note_on_c,10,58,0
11,639770, Note_on_c,10,57,70
11,639770, Note_on_c,10,60,70
11,640982, Note_on_c,10,60,0
11,640982, Note_on_c,10,57,0
11,640998, Note_on_c,10,58,70
11,640998, Note_on_c,10,61,70
11,642160, Note_on_c,10,61,0
11,642160, Note_on_c,10,58,0
11,642170, Note_on_c,10,63,70
11,642170, Note_on_c,10,57,70
11,643392, Note_on_c,10,57,0
11,643392, Note_on_c,10,63,0
11,643410, Note_on_c,10,58,70
11,643410, Note_on_c,10,61,70
11,644602, Note_on_c,10,61,0
11,644602, Note_on_c,10,58,0
11,644618, Note_on_c,10,57,70
11,644618, Note_on_c,10,60,70
11,645790, Note_on_c,10,60,0
11,645790, Note_on_c,10,57,0
11,645804, Note_on_c,10,58,70
11,645804, Note_on_c,10,61,70
11,646981, Note_on_c,10,61,0
11,646981, Note_on_c,10,58,0
11,647001, Note_on_c,10,62,70
11,647001, Note_on_c,10,56,70
11,647595, Note_on_c,10,56,0
11,647605, Note_on_c,10,55,70
11,648208, Note_on_c,10,55,70
11,648208, Note_on_c,10,60,70
11,648249, Note_on_c,10,62,0
11,648259, Note_on_c,10,55,0
11,649405, Note_on_c,10,60,0
11,649416, Note_on_c,10,62,70
11,650618, Note_on_c,10,62,0
11,650632, Note_on_c,10,60,70
11,651196, Note_on_c,10,55,0
11,651226, Note_on_c,10,60,0
11,656641, Control_c,10,11,90
11,656716, Note_on_c,10,79,60
11,656716, Note_on_c,10,67,60
11,656986, Note_on_c,10,67,0
11,656986, Note_on_c,10,79,0
11,657057, Note_on_c,10,74,80
11,657057, Note_on_c,10,62,80
11,657731, Note_on_c,10,62,0
11,657731, Note_on_c,10,74,0
11,657739, Note_on_c,10,75,60
11,657739, Note_on_c,10,63,60
11,658039, Note_on_c,10,63,0
11,658039, Note_on_c,10,75,0
11,659328, Note_on_c,10,75,60
11,659328, Note_on_c,10,63,60
11,659598, Note_on_c,10,63,0
11,659598, Note_on_c,10,75,0
11,659669, Note_on_c,10,66,80
11,659669, Note_on_c,10,63,80
11,660343, Note_on_c,10,63,0
11,660343, Note_on_c,10,66,0
11,660349, Note_on_c,10,67,80
11,660349, Note_on_c,10,63,60
11,660649, Note_on_c,10,63,0
11,660649, Note_on_c,10,67,0
11,694708, Note_on_c,10,75,70
11,695072, Note_on_c,10,75,0
11,695072, Note_on_c,10,71,70
11,695772, Note_on_c,10,71,0
11,695772, Note_on_c,10,72,70
11,696072, Note_on_c,10,72,0
11,696144, Note_on_c,10,79,75
11,696520, Note_on_c,10,79,0
11,696520, Note_on_c,10,74,75
11,697220, Note_on_c,10,74,0
11,697220, Note_on_c,10,75,75
11,697520, Note_on_c,10,75,0
11,697580, Note_on_c,10,82,75
11,697928, Note_on_c,10,81,75
11,697950, Note_on_c,10,82,0
11,698300, Note_on_c,10,81,0
11,698300, Note_on_c,10,84,80
11,698668, Note_on_c,10,82,80
11,698675, Note_on_c,10,84,0
11,699036, Note_on_c,10,81,75
11,699043, Note_on_c,10,82,0
11,699416, Note_on_c,10,81,0
11,699420, Note_on_c,10,79,80
11,699780, Note_on_c,10,77,80
11,699800, Note_on_c,10,79,0
11,700148, Note_on_c,10,77,0
11,700148, Note_on_c,10,72,80
11,700528, Note_on_c,10,72,0
11,700536, Note_on_c,10,74,80
11,700836, Note_on_c,10,74,0
11,700900, Note_on_c,10,74,70
11,701276, Note_on_c,10,79,80
11,701278, Note_on_c,10,74,0
11,702274, Note_on_c,10,79,0
11,702312, Note_on_c,10,74,70
11,702684, Note_on_c,10,74,0
11,702684, Note_on_c,10,79,70
11,703036, Note_on_c,10,79,0
11,703036, Note_on_c,10,69,70
11,703412, Note_on_c,10,69,0
11,703412, Note_on_c,10,74,70
11,703772, Note_on_c,10,74,0
11,703772, Note_on_c,10,70,70
11,704128, Note_on_c,10,70,0
11,704128, Note_on_c,10,66,70
11,704492, Note_on_c,10,66,0
11,704492, Note_on_c,10,67,70
11,704792, Note_on_c,10,67,0
11,704888, Note_on_c,10,74,70
11,705272, Note_on_c,10,74,0
11,705288, Note_on_c,10,71,80
11,706032, Note_on_c,10,71,0
11,706032, Note_on_c,10,72,70
11,706332, Note_on_c,10,72,0
11,709384, Note_on_c,10,75,70
11,710138, Note_on_c,10,75,0
11,710144, Note_on_c,10,81,75
11,710144, Note_on_c,10,74,75
11,710868, Note_on_c,10,81,0
11,710880, Note_on_c,10,79,75
11,711222, Note_on_c,10,74,0
11,711600, Note_on_c,10,74,75
11,711958, Note_on_c,10,79,0
11,712344, Note_on_c,10,74,0
11,712348, Note_on_c,10,72,75
11,712348, Note_on_c,10,75,75
11,712708, Note_on_c,10,72,0
11,713810, Note_on_c,10,75,0
11,713812, Note_on_c,10,77,75
11,718136, Note_on_c,10,77,0
11,718680, Note_on_c,10,77,70
11,718680, Note_on_c,10,74,70
11,719408, Note_on_c,10,74,0
11,719408, Note_on_c,10,77,0
11,719408, Note_on_c,10,77,70
11,719408, Note_on_c,10,74,70
11,720092, Note_on_c,10,74,0
11,720092, Note_on_c,10,77,0
11,720136, Note_on_c,10,79,70
11,720136, Note_on_c,10,76,70
11,720840, Note_on_c,10,76,0
11,720840, Note_on_c,10,79,0
11,720840, Note_on_c,10,79,70
11,720840, Note_on_c,10,76,70
11,721524, Note_on_c,10,76,0
11,721524, Note_on_c,10,79,0
11,721544, Note_on_c,10,81,70
11,721544, Note_on_c,10,77,70
11,722244, Note_on_c,10,77,0
11,722244, Note_on_c,10,81,0
11,722244, Note_on_c,10,80,70
11,722244, Note_on_c,10,77,70
11,722928, Note_on_c,10,77,0
11,722928, Note_on_c,10,80,0
11,722932, Note_on_c,10,82,70
11,722932, Note_on_c,10,79,70
11,723600, Note_on_c,10,79,0
11,723600, Note_on_c,10,82,0
11,723600, Note_on_c,10,82,70
11,723600, Note_on_c,10,79,70
11,723932, Note_on_c,10,79,0
11,723932, Note_on_c,10,77,70
11,724294, Note_on_c,10,82,0
11,724296, Note_on_c,10,77,0
11,724296, Note_on_c,10,82,70
11,724296, Note_on_c,10,77,70
11,724612, Note_on_c,10,77,0
11,724612, Note_on_c,10,75,70
11,724950, Note_on_c,10,82,0
11,724960, Note_on_c,10,75,0
11,724960, Note_on_c,10,82,70
11,724960, Note_on_c,10,76,70
11,725340, Note_on_c,10,76,0
11,725340, Note_on_c,10,77,70
11,725684, Note_on_c,10,82,0
11,725704, Note_on_c,10,77,0
11,725704, Note_on_c,10,65,70
11,725704, Note_on_c,10,62,70
11,726364, Note_on_c,10,62,0
11,726364, Note_on_c,10,65,0
11,726364, Note_on_c,10,65,70
11,726364, Note_on_c,10,62,70
11,727332, Note_on_c,10,62,0
11,727332, Note_on_c,10,65,0
11,727344, Note_on_c,10,70,70
11,727344, Note_on_c,10,65,70
11,727988, Note_on_c,10,65,0
11,727988, Note_on_c,10,70,0
11,728000, Note_on_c,10,71,70
11,728000, Note_on_c,10,65,70
11,728324, Note_on_c,10,65,0
11,728324, Note_on_c,10,71,0
11,728324, Note_on_c,10,62,70
11,728324, Note_on_c,10,59,70
11,728972, Note_on_c,10,59,0
11,728972, Note_on_c,10,62,0
11,728972, Note_on_c,10,67,70
11,728972, Note_on_c,10,62,70
11,729980, Note_on_c,10,62,0
11,729980, Note_on_c,10,67,0
11,729988, Note_on_c,10,71,70
11,729988, Note_on_c,10,67,70
11,730946, Note_on_c,10,67,0
11,730946, Note_on_c,10,71,0
11,730956, Note_on_c,10,63,70
11,730956, Note_on_c,10,60,70
11,731595, Note_on_c,10,63,0
11,731620, Note_on_c,10,67,70
11,731620, Note_on_c,10,63,70
11,731624, Note_on_c,10,60,0
11,732296, Note_on_c,10,63,0
11,732296, Note_on_c,10,67,0
11,732296, Note_on_c,10,72,70
11,732296, Note_on_c,10,67,70
11,732940, Note_on_c,10,67,0
11,732940, Note_on_c,10,72,0
11,732940, Note_on_c,10,72,70
11,732940, Note_on_c,10,67,70
11,733270, Note_on_c,10,67,0
11,733270, Note_on_c,10,72,0
11,733564, Note_on_c,10,79,70
11,733564, Note_on_c,10,73,70
11,734200, Note_on_c,10,73,0
11,734200, Note_on_c,10,79,0
11,734200, Note_on_c,10,79,70
11,734200, Note_on_c,10,73,70
11,734844, Note_on_c,10,73,0
11,734844, Note_on_c,10,79,0
11,734844, Note_on_c,10,79,70
11,734844, Note_on_c,10,73,70
11,735460, Note_on_c,10,73,0
11,735460, Note_on_c,10,79,0
11,735460, Note_on_c,10,79,70
11,735460, Note_on_c,10,73,70
11,736088, Note_on_c,10,73,0
11,736088, Note_on_c,10,79,0
11,736088, Note_on_c,10,79,70
11,736088, Note_on_c,10,73,70
11,736700, Note_on_c,10,73,0
11,736700, Note_on_c,10,79,0
11,736700, Note_on_c,10,79,70
11,736700, Note_on_c,10,73,70
11,737332, Note_on_c,10,73,0
11,737332, Note_on_c,10,79,0
11,737332, Note_on_c,10,79,70
11,737332, Note_on_c,10,73,70
11,737968, Note_on_c,10,73,0
11,737968, Note_on_c,10,79,0
11,737968, Note_on_c,10,79,70
11,737968, Note_on_c,10,73,70
11,738316, Note_on_c,10,73,0
11,738316, Note_on_c,10,79,0
11,738316, Note_on_c,10,77,70
11,738316, Note_on_c,10,74,70
11,738433, Control_c,10,11,60
11,738608, Note_on_c,10,65,90
11,738608, Note_on_c,10,58,90
11,738646, Note_on_c,10,74,0
11,738646, Note_on_c,10,77,0
11,739192, Note_on_c,10,65,0
11,739192, Note_on_c,10,58,0
11,739200, Note_on_c,10,65,90
11,739200, Note_on_c,10,58,90
11,739280, Note_on_c,10,58,0
11,739280, Note_on_c,10,65,0
11,739295, Note_on_c,10,64,90
11,739295, Note_on_c,10,58,90
11,739375, Note_on_c,10,58,0
11,739375, Note_on_c,10,64,0
11,739390, Note_on_c,10,65,90
11,739390, Note_on_c,10,58,90
11,739470, Note_on_c,10,58,0
11,739470, Note_on_c,10,65,0
11,739484, Note_on_c,10,67,90
11,739484, Note_on_c,10,59,90
11,739734, Note_on_c,10,59,0
11,739734, Note_on_c,10,67,0
11,739764, Note_on_c,10,67,90
11,739764, Note_on_c,10,59,90
11,740308, Note_on_c,10,59,0
11,740308, Note_on_c,10,67,0
11,740344, Note_on_c,10,67,90
11,740344, Note_on_c,10,59,90
11,740424, Note_on_c,10,59,0
11,740424, Note_on_c,10,67,0
11,740436, Note_on_c,10,66,90
11,740436, Note_on_c,10,59,90
11,740506, Note_on_c,10,59,0
11,740516, Note_on_c,10,66,0
11,740528, Note_on_c,10,67,90
11,740528, Note_on_c,10,59,90
11,740608, Note_on_c,10,59,0
11,740608, Note_on_c,10,67,0
11,740620, Note_on_c,10,68,90
11,740620, Note_on_c,10,60,90
11,740870, Note_on_c,10,60,0
11,740870, Note_on_c,10,68,0
11,740904, Note_on_c,10,68,90
11,740904, Note_on_c,10,60,90
11,741448, Note_on_c,10,60,0
11,741448, Note_on_c,10,68,0
11,741452, Note_on_c,10,68,90
11,741452, Note_on_c,10,60,90
11,741532, Note_on_c,10,60,0
11,741532, Note_on_c,10,68,0
11,741543, Note_on_c,10,67,90
11,741543, Note_on_c,10,60,90
11,741623, Note_on_c,10,60,0
11,741623, Note_on_c,10,67,0
11,741634, Note_on_c,10,68,90
11,741634, Note_on_c,10,60,90
11,741714, Note_on_c,10,60,0
11,741714, Note_on_c,10,68,0
11,741724, Note_on_c,10,69,90
11,741724, Note_on_c,10,61,90
11,741974, Note_on_c,10,61,0
11,741974, Note_on_c,10,69,0
11,741988, Note_on_c,10,69,90
11,741988, Note_on_c,10,61,90
11,742532, Note_on_c,10,61,0
11,742532, Note_on_c,10,69,0
11,742540, Note_on_c,10,69,90
11,742540, Note_on_c,10,61,90
11,742620, Note_on_c,10,61,0
11,742620, Note_on_c,10,69,0
11,742633, Note_on_c,10,68,90
11,742633, Note_on_c,10,61,90
11,742713, Note_on_c,10,61,0
11,742713, Note_on_c,10,68,0
11,742726, Note_on_c,10,69,90
11,742726, Note_on_c,10,61,90
11,742806, Note_on_c,10,61,0
11,742806, Note_on_c,10,69,0
11,742820, Note_on_c,10,70,90
11,742820, Note_on_c,10,62,90
11,743070, Note_on_c,10,62,0
11,743070, Note_on_c,10,70,0
11,743100, Note_on_c,10,70,90
11,743100, Note_on_c,10,62,90
11,743170, Note_on_c,10,62,0
11,743180, Note_on_c,10,70,0
11,743180, Note_on_c,10,70,90
11,743180, Note_on_c,10,62,90
11,743260, Note_on_c,10,62,0
11,743260, Note_on_c,10,70,0
11,743280, Note_on_c,10,70,90
11,743280, Note_on_c,10,62,90
11,743360, Note_on_c,10,62,0
11,743360, Note_on_c,10,70,0
11,743384, Note_on_c,10,71,90
11,743384, Note_on_c,10,63,90
11,743634, Note_on_c,10,63,0
11,743634, Note_on_c,10,71,0
11,743648, Note_on_c,10,71,90
11,743648, Note_on_c,10,63,90
11,743708, Note_on_c,10,63,0
11,743708, Note_on_c,10,71,0
11,743720, Note_on_c,10,71,90
11,743720, Note_on_c,10,63,90
11,743780, Note_on_c,10,63,0
11,743780, Note_on_c,10,71,0
11,743792, Note_on_c,10,71,90
11,743792, Note_on_c,10,63,90
11,743862, Note_on_c,10,63,0
11,743862, Note_on_c,10,71,0
11,743916, Note_on_c,10,72,90
11,743916, Note_on_c,10,64,90
11,744166, Note_on_c,10,64,0
11,744166, Note_on_c,10,72,0
11,744184, Note_on_c,10,72,90
11,744184, Note_on_c,10,64,90
11,744254, Note_on_c,10,64,0
11,744254, Note_on_c,10,72,0
11,744264, Note_on_c,10,72,90
11,744264, Note_on_c,10,64,90
11,744334, Note_on_c,10,64,0
11,744334, Note_on_c,10,72,0
11,744352, Note_on_c,10,72,90
11,744352, Note_on_c,10,64,90
11,744422, Note_on_c,10,64,0
11,744422, Note_on_c,10,72,0
11,744460, Note_on_c,10,73,90
11,744460, Note_on_c,10,65,90
11,744710, Note_on_c,10,65,0
11,744710, Note_on_c,10,73,0
11,744728, Note_on_c,10,73,90
11,744728, Note_on_c,10,65,90
11,744788, Note_on_c,10,65,0
11,744798, Note_on_c,10,73,0
11,744804, Note_on_c,10,73,90
11,744804, Note_on_c,10,65,90
11,744874, Note_on_c,10,65,0
11,744874, Note_on_c,10,73,0
11,744892, Note_on_c,10,73,90
11,744892, Note_on_c,10,65,90
11,744962, Note_on_c,10,65,0
11,744962, Note_on_c,10,73,0
11,745000, Note_on_c,10,74,90
11,745000, Note_on_c,10,66,90
11,745250, Note_on_c,10,66,0
11,745250, Note_on_c,10,74,0
11,745280, Note_on_c,10,75,90
11,745280, Note_on_c,10,67,90
11,745530, Note_on_c,10,67,0
11,745530, Note_on_c,10,75,0
11,745544, Note_on_c,10,76,90
11,745544, Note_on_c,10,68,90
11,745794, Note_on_c,10,68,0
11,745794, Note_on_c,10,76,0
11,745804, Note_on_c,10,77,90
11,745804, Note_on_c,10,69,90
11,746054, Note_on_c,10,69,0
11,746054, Note_on_c,10,77,0
11,746068, Note_on_c,10,78,90
11,746068, Note_on_c,10,70,90
11,746318, Note_on_c,10,70,0
11,746318, Note_on_c,10,78,0
11,746328, Note_on_c,10,79,90
11,746328, Note_on_c,10,71,90
11,746578, Note_on_c,10,71,0
11,746578, Note_on_c,10,79,0
11,746580, Note_on_c,10,80,90
11,746580, Note_on_c,10,72,90
11,746830, Note_on_c,10,72,0
11,746830, Note_on_c,10,80,0
11,746836, Note_on_c,10,81,90
11,746836, Note_on_c,10,73,90
11,747086, Note_on_c,10,73,0
11,747086, Note_on_c,10,81,0
11,747140, Note_on_c,10,82,90
11,747140, Note_on_c,10,73,90
11,747265, Control_c,10,11,90
11,747390, Note_on_c,10,73,0
11,747390, Note_on_c,10,82,0
11,747432, Note_on_c,10,61,90
11,747432, Note_on_c,10,58,90
11,747632, Note_on_c,10,58,0
11,747632, Note_on_c,10,61,0
11,747712, Note_on_c,10,61,90
11,747712, Note_on_c,10,58,90
11,747912, Note_on_c,10,58,0
11,747912, Note_on_c,10,61,0
11,747982, Note_on_c,10,66,90
11,747982, Note_on_c,10,61,90
11,748182, Note_on_c,10,61,0
11,748182, Note_on_c,10,66,0
11,748262, Note_on_c,10,66,90
11,748262, Note_on_c,10,61,90
11,748462, Note_on_c,10,61,0
11,748462, Note_on_c,10,66,0
11,748542, Note_on_c,10,78,90
11,748542, Note_on_c,10,73,90
11,748742, Note_on_c,10,73,0
11,748742, Note_on_c,10,78,0
11,748822, Note_on_c,10,61,90
11,748822, Note_on_c,10,78,90
11,749022, Note_on_c,10,78,0
11,749022, Note_on_c,10,61,0
11,749102, Note_on_c,10,78,90
11,749102, Note_on_c,10,61,90
11,749302, Note_on_c,10,61,0
11,749302, Note_on_c,10,78,0
11,749382, Note_on_c,10,78,90
11,749382, Note_on_c,10,61,90
11,749682, Note_on_c,10,61,0
11,749682, Note_on_c,10,78,0
11,750534, Note_on_c,10,78,90
11,750534, Note_on_c,10,73,90
11,750834, Note_on_c,10,73,0
11,750834, Note_on_c,10,78,0
11,751588, Note_on_c,10,78,90
11,751588, Note_on_c,10,73,90
11,751788, Note_on_c,10,73,0
11,751788, Note_on_c,10,78,0
11,752132, Note_on_c,10,78,90
11,752132, Note_on_c,10,73,90
11,752332, Note_on_c,10,73,0
11,752332, Note_on_c,10,78,0
11,752715, Note_on_c,10,78,90
11,752715, Note_on_c,10,73,90
11,752915, Note_on_c,10,73,0
11,752915, Note_on_c,10,78,0
11,753244, Note_on_c,10,78,90
11,753244, Note_on_c,10,73,90
11,753444, Note_on_c,10,73,0
11,753444, Note_on_c,10,78,0
11,753852, Note_on_c,10,78,90
11,753852, Note_on_c,10,73,90
11,754152, Note_on_c,10,73,0
11,754152, Note_on_c,10,78,0
11,882433, Control_c,10,11,80
11,882681, Note_on_c,10,65,70
11,883009, Note_on_c,10,65,0
11,883009, Note_on_c,10,67,70
11,883313, Note_on_c,10,67,0
11,883313, Note_on_c,10,69,70
11,883637, Note_on_c,10,69,0
11,883637, Note_on_c,10,65,70
11,883937, Note_on_c,10,65,0
11,883957, Note_on_c,10,67,70
11,884281, Note_on_c,10,67,0
11,884281, Note_on_c,10,69,70
11,884608, Note_on_c,10,69,0
11,884609, Note_on_c,10,70,70
11,884937, Note_on_c,10,70,0
11,884937, Note_on_c,10,65,70
11,885237, Note_on_c,10,65,0
11,885261, Note_on_c,10,67,70
11,885573, Note_on_c,10,60,70
11,885574, Note_on_c,10,67,0
11,885873, Note_on_c,10,60,0
11,885893, Note_on_c,10,67,70
11,886217, Note_on_c,10,67,0
11,886217, Note_on_c,10,60,70
11,886517, Note_on_c,10,60,0
11,886537, Note_on_c,10,67,70
11,886853, Note_on_c,10,65,70
11,886854, Note_on_c,10,67,0
11,887153, Note_on_c,10,65,0
11,887173, Note_on_c,10,67,70
11,887497, Note_on_c,10,67,0
11,887497, Note_on_c,10,62,70
11,887797, Note_on_c,10,62,0
11,888161, Note_on_c,10,69,70
11,888256, Note_on_c,10,69,0
11,888278, Note_on_c,10,72,70
11,888373, Note_on_c,10,72,0
11,888395, Note_on_c,10,77,70
11,888490, Note_on_c,10,77,0
11,888513, Note_on_c,10,81,70
11,888693, Note_on_c,10,81,0
11,888845, Note_on_c,10,69,70
11,888940, Note_on_c,10,69,0
11,888959, Note_on_c,10,72,70
11,889054, Note_on_c,10,72,0
11,889073, Note_on_c,10,77,70
11,889168, Note_on_c,10,77,0
11,889187, Note_on_c,10,81,70
11,889367, Note_on_c,10,81,0
11,889537, Note_on_c,10,74,70
11,889632, Note_on_c,10,74,0
11,889653, Note_on_c,10,74,70
11,889748, Note_on_c,10,74,0
11,889769, Note_on_c,10,77,70
11,889864, Note_on_c,10,77,0
11,889885, Note_on_c,10,82,70
11,890065, Note_on_c,10,82,0
11,890217, Note_on_c,10,74,70
11,890312, Note_on_c,10,74,0
11,890330, Note_on_c,10,74,70
11,890425, Note_on_c,10,74,0
11,890443, Note_on_c,10,77,70
11,890538, Note_on_c,10,77,0
11,890556, Note_on_c,10,82,70
11,890736, Note_on_c,10,82,0
11,890909, Note_on_c,10,69,70
11,891004, Note_on_c,10,69,0
11,891023, Note_on_c,10,72,70
11,891118, Note_on_c,10,72,0
11,891137, Note_on_c,10,77,70
11,891232, Note_on_c,10,77,0
11,891251, Note_on_c,10,81,70
11,891431, Note_on_c,10,81,0
11,891605, Note_on_c,10,69,70
11,891700, Note_on_c,10,69,0
11,891716, Note_on_c,10,72,70
11,891811, Note_on_c,10,72,0
11,891827, Note_on_c,10,77,70
11,891922, Note_on_c,10,77,0
11,891938, Note_on_c,10,81,70
11,892118, Note_on_c,10,81,0
11,892289, Note_on_c,10,82,70
11,892384, Note_on_c,10,82,0
11,892400, Note_on_c,10,77,70
11,892495, Note_on_c,10,77,0
11,892511, Note_on_c,10,74,70
11,892606, Note_on_c,10,74,0
11,892625, Note_on_c,10,77,70
11,892625, Note_on_c,10,70,70
11,892961, Note_on_c,10,77,0
11,892961, Note_on_c,10,76,70
11,893279, Note_on_c,10,70,0
11,893289, Note_on_c,10,76,0
11,893289, Note_on_c,10,75,70
11,893289, Note_on_c,10,69,70
11,893589, Note_on_c,10,75,0
11,893625, Note_on_c,10,74,70
11,893963, Note_on_c,10,69,0
11,893977, Note_on_c,10,67,70
11,894277, Note_on_c,10,67,0
11,894277, Note_on_c,10,74,0
11,894317, Note_on_c,10,58,70
11,894645, Note_on_c,10,60,70
11,894945, Note_on_c,10,60,0
11,894971, Note_on_c,10,58,0
11,894985, Note_on_c,10,60,70
11,894985, Note_on_c,10,53,70
11,895285, Note_on_c,10,53,0
11,895285, Note_on_c,10,60,0
11,900375, Note_on_c,10,74,70
11,901712, Note_on_c,10,74,0
11,901717, Note_on_c,10,75,70
11,901717, Note_on_c,10,72,70
11,902381, Note_on_c,10,75,0
11,902381, Note_on_c,10,77,70
11,903049, Note_on_c,10,72,0
11,903053, Note_on_c,10,70,70
11,903353, Note_on_c,10,70,0
11,903355, Note_on_c,10,77,0
11,903437, Note_on_c,10,77,70
11,903777, Note_on_c,10,77,0
11,903777, Note_on_c,10,76,70
11,904117, Note_on_c,10,76,0
11,904117, Note_on_c,10,75,70
11,904117, Note_on_c,10,69,70
11,904457, Note_on_c,10,75,0
11,904463, Note_on_c,10,74,70
11,904811, Note_on_c,10,69,0
11,904829, Note_on_c,10,67,70
11,905149, Note_on_c,10,67,0
11,905167, Note_on_c,10,74,0
11,905177, Note_on_c,10,58,70
11,905517, Note_on_c,10,60,70
11,905867, Note_on_c,10,60,0
11,905867, Note_on_c,10,58,0
11,905869, Note_on_c,10,60,70
11,905869, Note_on_c,10,53,70
11,906209, Note_on_c,10,53,0
11,906209, Note_on_c,10,60,0
11,912717, Note_on_c,10,75,70
11,914019, Note_on_c,10,75,0
11,914037, Note_on_c,10,77,70
11,915359, Note_on_c,10,77,0
11,915377, Note_on_c,10,79,70
11,915377, Note_on_c,10,74,70
11,916001, Note_on_c,10,74,0
11,916001, Note_on_c,10,79,0
11,916021, Note_on_c,10,79,70
11,916021, Note_on_c,10,75,70
11,916645, Note_on_c,10,75,0
11,916645, Note_on_c,10,79,0
11,916673, Note_on_c,10,81,70
11,916673, Note_on_c,10,76,70
11,917307, Note_on_c,10,76,0
11,917307, Note_on_c,10,81,0
11,917341, Note_on_c,10,81,70
11,917341, Note_on_c,10,77,70
11,917975, Note_on_c,10,77,0
11,917975, Note_on_c,10,81,0
11,918001, Note_on_c,10,82,70
11,918001, Note_on_c,10,77,70
11,918655, Note_on_c,10,77,0
11,918655, Note_on_c,10,82,0
11,918689, Note_on_c,10,75,70
11,918689, Note_on_c,10,78,70
11,918989, Note_on_c,10,78,0
11,918989, Note_on_c,10,75,0
11,920717, Note_on_c,10,78,90
11,920717, Note_on_c,10,75,90
11,920987, Note_on_c,10,75,0
11,920987, Note_on_c,10,78,0
11,921137, Note_on_c,10,77,90
11,921137, Note_on_c,10,70,90
11,921407, Note_on_c,10,70,0
11,921407, Note_on_c,10,77,0
11,921557, Note_on_c,10,78,90
11,921557, Note_on_c,10,75,90
11,921827, Note_on_c,10,75,0
11,921827, Note_on_c,10,78,0
11,923541, Note_on_c,10,78,90
11,923541, Note_on_c,10,75,90
11,923811, Note_on_c,10,75,0
11,923811, Note_on_c,10,78,0
11,923907, Note_on_c,10,77,90
11,923907, Note_on_c,10,70,90
11,924177, Note_on_c,10,70,0
11,924177, Note_on_c,10,77,0
11,924273, Note_on_c,10,78,90
11,924273, Note_on_c,10,75,90
11,924543, Note_on_c,10,75,0
11,924543, Note_on_c,10,78,0
11,924969, Note_on_c,10,78,90
11,924969, Note_on_c,10,75,90
11,925239, Note_on_c,10,75,0
11,925239, Note_on_c,10,78,0
11,926349, Note_on_c,10,78,90
11,926349, Note_on_c,10,73,90
11,926619, Note_on_c,10,73,0
11,926619, Note_on_c,10,78,0
11,927725, Note_on_c,10,77,90
11,927725, Note_on_c,10,74,90
11,928045, Note_on_c,10,74,0
11,928045, Note_on_c,10,77,0
11,931925, Note_on_c,10,77,90
11,931925, Note_on_c,10,72,90
11,933307, Note_on_c,10,72,0
11,933307, Note_on_c,10,77,0
11,933309, Note_on_c,10,70,90
11,933579, Note_on_c,10,70,0
11,933697, Note_on_c,10,70,90
11,933697, Note_on_c,10,60,90
11,934331, Note_on_c,10,60,0
11,934331, Note_on_c,10,70,0
11,934373, Note_on_c,10,70,90
11,934373, Note_on_c,10,60,90
11,934643, Note_on_c,10,60,0
11,934643, Note_on_c,10,70,0
11,934741, Note_on_c,10,70,90
11,934741, Note_on_c,10,65,90
11,935011, Note_on_c,10,65,0
11,935011, Note_on_c,10,70,0
11,935417, Note_on_c,10,70,90
11,935417, Note_on_c,10,78,90
11,935687, Note_on_c,10,78,0
11,935687, Note_on_c,10,70,0
11,936141, Note_on_c,10,77,90
11,936141, Note_on_c,10,70,90
11,936411, Note_on_c,10,70,0
11,936411, Note_on_c,10,77,0
11,936513, Note_on_c,10,70,90
11,936513, Note_on_c,10,60,90
11,937147, Note_on_c,10,60,0
11,937147, Note_on_c,10,70,0
11,937213, Note_on_c,10,70,90
11,937213, Note_on_c,10,60,90
11,937483, Note_on_c,10,60,0
11,937483, Note_on_c,10,70,0
11,937577, Note_on_c,10,70,90
11,937577, Note_on_c,10,65,90
11,937847, Note_on_c,10,65,0
11,937847, Note_on_c,10,70,0
11,938277, Note_on_c,10,70,90
11,938277, Note_on_c,10,78,90
11,938547, Note_on_c,10,78,0
11,938547, Note_on_c,10,70,0
11,939009, Note_on_c,10,77,90
11,939009, Note_on_c,10,70,90
11,939279, Note_on_c,10,70,0
11,939279, Note_on_c,10,77,0
11,939728, Note_on_c,10,70,90
11,939728, Note_on_c,10,78,90
11,939998, Note_on_c,10,78,0
11,939998, Note_on_c,10,70,0
11,940457, Note_on_c,10,77,90
11,940457, Note_on_c,10,70,90
11,940727, Note_on_c,10,70,0
11,940727, Note_on_c,10,77,0
11,941164, Note_on_c,10,70,90
11,941164, Note_on_c,10,78,90
11,941434, Note_on_c,10,78,0
11,941434, Note_on_c,10,70,0
11,941901, Note_on_c,10,77,90
11,941901, Note_on_c,10,70,90
11,942171, Note_on_c,10,70,0
11,942171, Note_on_c,10,77,0
11,942269, Note_on_c,10,78,90
11,942269, Note_on_c,10,70,90
11,942469, Note_on_c,10,70,0
11,942469, Note_on_c,10,78,0
11,942637, Note_on_c,10,77,90
11,942637, Note_on_c,10,70,90
11,942837, Note_on_c,10,70,0
11,942837, Note_on_c,10,77,0
11,943005, Note_on_c,10,78,90
11,943005, Note_on_c,10,70,90
11,943205, Note_on_c,10,70,0
11,943205, Note_on_c,10,78,0
11,943373, Note_on_c,10,77,90
11,943373, Note_on_c,10,70,90
11,943573, Note_on_c,10,70,0
11,943573, Note_on_c,10,77,0
11,943741, Note_on_c,10,78,90
11,943741, Note_on_c,10,70,90
11,943941, Note_on_c,10,70,0
11,943941, Note_on_c,10,78,0
11,944109, Note_on_c,10,77,90
11,944109, Note_on_c,10,70,90
11,944309, Note_on_c,10,70,0
11,944309, Note_on_c,10,77,0
11,944477, Note_on_c,10,78,90
11,944477, Note_on_c,10,70,90
11,944677, Note_on_c,10,70,0
11,944677, Note_on_c,10,78,0
11,944845, Note_on_c,10,77,90
11,944845, Note_on_c,10,70,90
11,945045, Note_on_c,10,70,0
11,945045, Note_on_c,10,77,0
11,946209, Note_on_c,10,77,90
11,946209, Note_on_c,10,70,90
11,946459, Note_on_c,10,70,0
11,946459, Note_on_c,10,77,0
11,946873, Note_on_c,10,77,90
11,946873, Note_on_c,10,70,90
11,947123, Note_on_c,10,70,0
11,947123, Note_on_c,10,77,0
11,947529, Note_on_c,10,77,90
11,947529, Note_on_c,10,70,90
11,947779, Note_on_c,10,70,0
11,947779, Note_on_c,10,77,0
11,948825, Note_on_c,10,77,90
11,948825, Note_on_c,10,70,90
11,949075, Note_on_c,10,70,0
11,949075, Note_on_c,10,77,0
11,950161, Note_on_c,10,77,90
11,950161, Note_on_c,10,74,90
11,950411, Note_on_c,10,74,0
11,950411, Note_on_c,10,77,0
11,950809, Note_on_c,10,77,90
11,950809, Note_on_c,10,74,90
11,951059, Note_on_c,10,74,0
11,951059, Note_on_c,10,77,0
11,951501, Note_on_c,10,77,90
11,951501, Note_on_c,10,74,90
11,951751, Note_on_c,10,74,0
11,951751, Note_on_c,10,77,0
11,952177, Note_on_c,10,77,90
11,952177, Note_on_c,10,74,90
11,952427, Note_on_c,10,74,0
11,952427, Note_on_c,10,77,0
11,952877, Note_on_c,10,77,90
11,952877, Note_on_c,10,74,90
11,953127, Note_on_c,10,74,0
11,953127, Note_on_c,10,77,0
11,953249, Note_on_c,10,79,90
11,953249, Note_on_c,10,75,90
11,953499, Note_on_c,10,75,0
11,953499, Note_on_c,10,79,0
11,953673, Note_on_c,10,77,90
11,953673, Note_on_c,10,74,90
11,954023, Note_on_c,10,74,0
11,954023, Note_on_c,10,77,0
11,954549, Note_on_c,10,70,90
11,954549, Note_on_c,10,58,90
11,956085, Note_on_c,10,58,0
11,956085, Note_on_c,10,70,0
11,956460, Control_c,10,121,0
11,956460, End_track,,,
12,0, Start_track,,,
12,0, MIDI_port,0,,
12,0, Title_t," ""Bassoons""",,
12,0, Control_c,11,0,0
12,0, Control_c,11,32,0
12,0, Program_c,11,70,
12,0, Control_c,11,7,90
12,0, Control_c,11,10,70
12,3272, Control_c,11,11,80
12,3356, Control_c,11,91,127
12,3356, Note_on_c,11,56,80
12,3356, Note_on_c,11,44,80
12,3612, Note_on_c,11,44,0
12,3612, Note_on_c,11,56,0
12,4908, Note_on_c,11,43,80
12,4908, Note_on_c,11,55,80
12,5164, Note_on_c,11,55,0
12,5164, Note_on_c,11,43,0
12,6432, Note_on_c,11,54,80
12,6432, Note_on_c,11,42,80
12,6936, Note_on_c,11,42,0
12,6936, Note_on_c,11,54,0
12,6968, Note_on_c,11,41,80
12,6968, Note_on_c,11,53,80
12,7472, Note_on_c,11,53,0
12,7472, Note_on_c,11,41,0
12,7528, Note_on_c,11,52,80
12,7528, Note_on_c,11,40,80
12,8032, Note_on_c,11,40,0
12,8032, Note_on_c,11,52,0
12,8088, Note_on_c,11,51,80
12,8088, Note_on_c,11,39,80
12,8622, Note_on_c,11,39,0
12,8622, Note_on_c,11,51,0
12,8668, Note_on_c,11,51,80
12,8668, Note_on_c,11,44,80
12,9222, Note_on_c,11,44,0
12,9222, Note_on_c,11,51,0
12,9316, Note_on_c,11,49,80
12,9316, Note_on_c,11,37,80
12,9820, Note_on_c,11,37,0
12,9820, Note_on_c,11,49,0
12,11137, Control_c,11,11,75
12,11584, Note_on_c,11,37,70
12,11584, Note_on_c,11,49,70
12,16282, Note_on_c,11,49,0
12,16282, Note_on_c,11,37,0
12,16288, Note_on_c,11,49,70
12,16288, Note_on_c,11,37,70
12,19819, Note_on_c,11,37,0
12,19819, Note_on_c,11,49,0
12,19824, Note_on_c,11,49,70
12,19824, Note_on_c,11,37,70
12,23310, Note_on_c,11,37,0
12,23310, Note_on_c,11,49,0
12,23316, Note_on_c,11,37,70
12,23316, Note_on_c,11,49,70
12,24454, Note_on_c,11,49,0
12,24454, Note_on_c,11,37,0
12,24456, Note_on_c,11,53,70
12,24456, Note_on_c,11,41,70
12,25054, Note_on_c,11,41,0
12,25054, Note_on_c,11,53,0
12,25056, Note_on_c,11,44,70
12,26782, Note_on_c,11,44,0
12,26784, Note_on_c,11,49,70
12,26784, Note_on_c,11,37,70
12,28470, Note_on_c,11,37,0
12,28470, Note_on_c,11,49,0
12,28472, Note_on_c,11,53,70
12,28472, Note_on_c,11,41,70
12,30248, Note_on_c,11,41,0
12,30248, Note_on_c,11,53,0
12,30252, Note_on_c,11,42,70
12,30252, Note_on_c,11,54,70
12,32018, Note_on_c,11,54,0
12,32018, Note_on_c,11,42,0
12,32024, Note_on_c,11,51,70
12,32024, Note_on_c,11,39,70
12,33850, Note_on_c,11,39,0
12,33850, Note_on_c,11,51,0
12,33852, Note_on_c,11,41,70
12,33852, Note_on_c,11,53,70
12,34401, Note_on_c,11,53,0
12,34401, Note_on_c,11,41,0
12,34406, Note_on_c,11,46,70
12,34950, Note_on_c,11,46,0
12,34956, Note_on_c,11,51,70
12,34956, Note_on_c,11,39,70
12,35505, Note_on_c,11,39,0
12,35505, Note_on_c,11,51,0
12,35512, Note_on_c,11,44,70
12,36026, Note_on_c,11,44,0
12,36032, Note_on_c,11,37,70
12,36032, Note_on_c,11,49,70
12,36466, Note_on_c,11,49,0
12,36466, Note_on_c,11,37,0
12,36468, Note_on_c,11,43,70
12,37082, Note_on_c,11,43,0
12,37089, Note_on_c,11,44,70
12,38611, Note_on_c,11,44,0
12,38616, Note_on_c,11,51,70
12,38616, Note_on_c,11,39,70
12,39664, Note_on_c,11,39,0
12,39664, Note_on_c,11,51,0
12,39668, Note_on_c,11,44,70
12,40192, Note_on_c,11,44,0
12,40196, Note_on_c,11,37,70
12,40196, Note_on_c,11,49,70
12,40745, Note_on_c,11,49,0
12,40745, Note_on_c,11,37,0
12,41836, Note_on_c,11,49,70
12,41836, Note_on_c,11,37,70
12,46858, Note_on_c,11,37,0
12,46858, Note_on_c,11,49,0
12,46860, Note_on_c,11,37,70
12,46860, Note_on_c,11,49,70
12,50232, Note_on_c,11,49,0
12,50232, Note_on_c,11,37,0
12,50240, Note_on_c,11,49,70
12,50240, Note_on_c,11,37,70
12,53562, Note_on_c,11,37,0
12,53562, Note_on_c,11,49,0
12,53568, Note_on_c,11,37,70
12,53568, Note_on_c,11,49,70
12,55106, Note_on_c,11,49,0
12,55106, Note_on_c,11,37,0
12,55116, Note_on_c,11,38,70
12,55116, Note_on_c,11,50,70
12,55500, Note_on_c,11,50,0
12,55500, Note_on_c,11,38,0
12,55614, Note_on_c,11,39,70
12,55614, Note_on_c,11,51,70
12,55998, Note_on_c,11,51,0
12,55998, Note_on_c,11,39,0
12,56576, Note_on_c,11,40,70
12,56576, Note_on_c,11,52,70
12,56960, Note_on_c,11,52,0
12,56960, Note_on_c,11,40,0
12,57006, Note_on_c,11,41,70
12,57006, Note_on_c,11,53,70
12,57390, Note_on_c,11,53,0
12,57390, Note_on_c,11,41,0
12,58016, Note_on_c,11,41,70
12,58016, Note_on_c,11,53,70
12,58400, Note_on_c,11,53,0
12,58400, Note_on_c,11,41,0
12,58498, Note_on_c,11,42,70
12,58498, Note_on_c,11,54,70
12,58882, Note_on_c,11,54,0
12,58882, Note_on_c,11,42,0
12,59432, Note_on_c,11,43,70
12,59432, Note_on_c,11,55,70
12,59816, Note_on_c,11,55,0
12,59816, Note_on_c,11,43,0
12,59916, Note_on_c,11,56,70
12,59916, Note_on_c,11,44,70
12,60300, Note_on_c,11,44,0
12,60300, Note_on_c,11,56,0
12,107518, Note_on_c,11,37,70
12,107518, Note_on_c,11,49,70
12,111058, Note_on_c,11,49,0
12,111058, Note_on_c,11,37,0
12,111058, Note_on_c,11,37,70
12,111058, Note_on_c,11,49,70
12,114622, Note_on_c,11,49,0
12,114622, Note_on_c,11,37,0
12,114622, Note_on_c,11,49,70
12,114622, Note_on_c,11,37,70
12,118174, Note_on_c,11,37,0
12,118174, Note_on_c,11,49,0
12,118174, Note_on_c,11,49,70
12,118174, Note_on_c,11,37,70
12,119326, Note_on_c,11,37,0
12,119326, Note_on_c,11,49,0
12,119326, Note_on_c,11,41,70
12,119326, Note_on_c,11,53,70
12,119930, Note_on_c,11,53,0
12,119930, Note_on_c,11,41,0
12,119932, Note_on_c,11,44,70
12,121154, Note_on_c,11,44,0
12,121162, Note_on_c,11,44,70
12,121786, Note_on_c,11,44,0
12,121786, Note_on_c,11,49,70
12,121786, Note_on_c,11,37,70
12,123587, Note_on_c,11,37,0
12,123587, Note_on_c,11,49,0
12,123594, Note_on_c,11,53,70
12,123594, Note_on_c,11,41,70
12,125370, Note_on_c,11,41,0
12,125370, Note_on_c,11,53,0
12,125374, Note_on_c,11,54,70
12,125374, Note_on_c,11,42,70
12,127110, Note_on_c,11,42,0
12,127110, Note_on_c,11,54,0
12,127122, Note_on_c,11,51,70
12,127122, Note_on_c,11,39,70
12,128848, Note_on_c,11,39,0
12,128848, Note_on_c,11,51,0
12,128854, Note_on_c,11,53,70
12,128854, Note_on_c,11,41,70
12,129448, Note_on_c,11,41,0
12,129448, Note_on_c,11,53,0
12,129454, Note_on_c,11,46,70
12,130058, Note_on_c,11,46,0
12,130062, Note_on_c,11,51,70
12,130062, Note_on_c,11,39,70
12,130670, Note_on_c,11,39,0
12,130670, Note_on_c,11,51,0
12,130674, Note_on_c,11,44,70
12,131268, Note_on_c,11,44,0
12,131274, Note_on_c,11,37,70
12,131274, Note_on_c,11,49,70
12,131846, Note_on_c,11,49,0
12,131846, Note_on_c,11,37,0
12,131850, Note_on_c,11,43,70
12,132444, Note_on_c,11,43,0
12,132450, Note_on_c,11,44,70
12,134230, Note_on_c,11,44,0
12,134230, Note_on_c,11,51,70
12,134230, Note_on_c,11,39,70
12,134792, Note_on_c,11,39,0
12,134792, Note_on_c,11,51,0
12,134794, Note_on_c,11,44,70
12,135996, Note_on_c,11,44,0
12,136002, Note_on_c,11,49,70
12,136002, Note_on_c,11,37,70
12,136564, Note_on_c,11,37,0
12,136564, Note_on_c,11,49,0
12,136590, Note_on_c,11,61,70
12,136590, Note_on_c,11,53,70
12,137872, Note_on_c,11,53,0
12,137872, Note_on_c,11,61,0
12,137872, Note_on_c,11,65,70
12,137872, Note_on_c,11,56,70
12,139518, Note_on_c,11,56,0
12,139518, Note_on_c,11,65,0
12,139520, Note_on_c,11,66,70
12,139520, Note_on_c,11,57,70
12,141206, Note_on_c,11,57,0
12,141206, Note_on_c,11,66,0
12,141212, Note_on_c,11,54,70
12,141212, Note_on_c,11,63,70
12,142868, Note_on_c,11,63,0
12,142868, Note_on_c,11,54,0
12,142876, Note_on_c,11,61,70
12,142876, Note_on_c,11,53,70
12,144532, Note_on_c,11,53,0
12,144532, Note_on_c,11,61,0
12,149800, Note_on_c,11,49,70
12,149900, Note_on_c,11,49,0
12,149988, Note_on_c,11,53,70
12,150088, Note_on_c,11,53,0
12,150176, Note_on_c,11,56,70
12,150276, Note_on_c,11,56,0
12,150364, Note_on_c,11,61,70
12,150464, Note_on_c,11,61,0
12,150552, Note_on_c,11,65,70
12,150652, Note_on_c,11,65,0
12,150740, Note_on_c,11,68,70
12,150840, Note_on_c,11,68,0
12,199829, Note_on_c,11,60,80
12,199829, Note_on_c,11,65,80
12,199979, Note_on_c,11,65,0
12,199979, Note_on_c,11,60,0
12,204389, Note_on_c,11,63,80
12,204389, Note_on_c,11,56,80
12,204539, Note_on_c,11,56,0
12,204539, Note_on_c,11,63,0
12,206681, Note_on_c,11,48,80
12,206681, Note_on_c,11,60,80
12,206831, Note_on_c,11,60,0
12,206831, Note_on_c,11,48,0
12,247496, Control_c,11,11,100
12,247633, Note_on_c,11,36,80
12,250321, Note_on_c,11,36,0
12,275713, Control_c,11,11,60
12,275733, Note_on_c,11,46,60
12,275733, Note_on_c,11,53,60
12,276003, Note_on_c,11,53,0
12,276003, Note_on_c,11,46,0
12,276074, Note_on_c,11,54,80
12,276074, Note_on_c,11,46,80
12,276748, Note_on_c,11,46,0
12,276748, Note_on_c,11,54,0
12,276756, Note_on_c,11,46,60
12,276756, Note_on_c,11,53,60
12,277056, Note_on_c,11,53,0
12,277056, Note_on_c,11,46,0
12,278345, Note_on_c,11,53,60
12,278345, Note_on_c,11,46,60
12,278615, Note_on_c,11,46,0
12,278615, Note_on_c,11,53,0
12,278686, Note_on_c,11,54,80
12,278686, Note_on_c,11,46,80
12,279360, Note_on_c,11,46,0
12,279360, Note_on_c,11,54,0
12,279366, Note_on_c,11,53,60
12,279366, Note_on_c,11,46,60
12,279666, Note_on_c,11,46,0
12,279666, Note_on_c,11,53,0
12,282390, Note_on_c,11,61,60
12,282390, Note_on_c,11,56,80
12,282794, Note_on_c,11,56,0
12,282794, Note_on_c,11,61,0
12,282810, Note_on_c,11,56,80
12,282810, Note_on_c,11,61,60
12,283494, Note_on_c,11,56,0
12,283526, Note_on_c,11,56,80
12,283526, Note_on_c,11,61,60
12,283904, Note_on_c,11,61,0
12,283904, Note_on_c,11,56,0
12,283906, Note_on_c,11,55,80
12,283906, Note_on_c,11,61,60
12,284290, Note_on_c,11,61,0
12,284290, Note_on_c,11,55,0
12,284310, Note_on_c,11,61,0
12,284310, Note_on_c,11,61,60
12,284310, Note_on_c,11,55,80
12,284994, Note_on_c,11,55,0
12,284994, Note_on_c,11,61,0
12,285010, Note_on_c,11,61,60
12,285010, Note_on_c,11,55,80
12,285385, Note_on_c,11,61,0
12,285394, Note_on_c,11,55,0
12,285394, Note_on_c,11,61,60
12,285394, Note_on_c,11,53,80
12,286162, Note_on_c,11,53,0
12,286162, Note_on_c,11,61,0
12,286166, Note_on_c,11,63,60
12,286166, Note_on_c,11,51,80
12,286550, Note_on_c,11,63,0
12,286550, Note_on_c,11,62,60
12,286930, Note_on_c,11,63,60
12,286934, Note_on_c,11,62,0
12,287274, Note_on_c,11,51,0
12,287290, Note_on_c,11,53,80
12,287314, Note_on_c,11,63,0
12,287650, Note_on_c,11,63,60
12,287650, Note_on_c,11,54,80
12,287674, Note_on_c,11,53,0
12,287990, Note_on_c,11,54,0
12,288006, Note_on_c,11,55,80
12,288034, Note_on_c,11,63,0
12,288346, Note_on_c,11,55,0
12,288386, Note_on_c,11,63,60
12,288386, Note_on_c,11,56,80
12,288726, Note_on_c,11,56,0
12,288726, Note_on_c,11,63,0
12,288802, Note_on_c,11,56,80
12,288802, Note_on_c,11,64,60
12,289142, Note_on_c,11,64,0
12,289142, Note_on_c,11,56,0
12,289214, Note_on_c,11,65,60
12,289214, Note_on_c,11,56,80
12,289554, Note_on_c,11,56,0
12,289602, Note_on_c,11,57,80
12,289942, Note_on_c,11,57,0
12,289982, Note_on_c,11,65,0
12,289990, Note_on_c,11,58,80
12,290330, Note_on_c,11,58,0
12,290368, Note_on_c,11,57,60
12,290368, Note_on_c,11,53,80
12,290708, Note_on_c,11,53,0
12,290708, Note_on_c,11,57,0
12,290750, Note_on_c,11,58,60
12,290750, Note_on_c,11,49,80
12,291090, Note_on_c,11,49,0
12,291090, Note_on_c,11,58,0
12,291110, Note_on_c,11,49,80
12,291110, Note_on_c,11,59,60
12,291450, Note_on_c,11,59,0
12,291450, Note_on_c,11,49,0
12,291490, Note_on_c,11,60,60
12,291490, Note_on_c,11,48,80
12,291830, Note_on_c,11,48,0
12,291830, Note_on_c,11,60,0
12,291862, Note_on_c,11,52,60
12,291862, Note_on_c,11,46,80
12,292202, Note_on_c,11,46,0
12,292202, Note_on_c,11,52,0
12,292238, Note_on_c,11,43,80
12,292238, Note_on_c,11,55,60
12,292578, Note_on_c,11,55,0
12,292578, Note_on_c,11,43,0
12,292614, Note_on_c,11,53,60
12,292614, Note_on_c,11,44,80
12,292954, Note_on_c,11,44,0
12,292954, Note_on_c,11,53,0
12,293038, Note_on_c,11,46,80
12,293038, Note_on_c,11,56,60
12,293378, Note_on_c,11,56,0
12,293498, Note_on_c,11,54,70
12,293920, Note_on_c,11,51,70
12,294346, Note_on_c,11,54,0
12,294350, Note_on_c,11,55,60
12,294390, Note_on_c,11,46,0
12,294690, Note_on_c,11,55,0
12,294788, Note_on_c,11,51,0
12,313958, Note_on_c,11,51,60
12,313958, Note_on_c,11,44,60
12,314652, Note_on_c,11,44,0
12,314652, Note_on_c,11,51,0
12,315362, Note_on_c,11,44,60
12,315362, Note_on_c,11,51,60
12,316056, Note_on_c,11,51,0
12,316056, Note_on_c,11,44,0
12,316754, Note_on_c,11,44,60
12,316754, Note_on_c,11,51,60
12,317448, Note_on_c,11,51,0
12,317448, Note_on_c,11,44,0
12,318178, Note_on_c,11,44,60
12,318178, Note_on_c,11,51,60
12,318872, Note_on_c,11,51,0
12,318872, Note_on_c,11,44,0
12,319602, Note_on_c,11,44,60
12,319602, Note_on_c,11,51,60
12,320296, Note_on_c,11,51,0
12,320296, Note_on_c,11,44,0
12,321014, Note_on_c,11,44,60
12,321014, Note_on_c,11,51,60
12,321708, Note_on_c,11,51,0
12,321708, Note_on_c,11,44,0
12,322430, Note_on_c,11,44,60
12,322430, Note_on_c,11,51,60
12,323124, Note_on_c,11,51,0
12,323124, Note_on_c,11,44,0
12,352678, Note_on_c,11,55,70
12,353038, Note_on_c,11,55,0
12,353046, Note_on_c,11,57,75
12,353396, Note_on_c,11,57,0
12,353402, Note_on_c,11,59,80
12,353762, Note_on_c,11,59,0
12,353774, Note_on_c,11,60,85
12,354178, Note_on_c,11,60,0
12,354182, Note_on_c,11,68,90
12,354532, Note_on_c,11,68,0
12,354534, Note_on_c,11,67,90
12,354874, Note_on_c,11,67,0
12,354878, Note_on_c,11,66,80
12,355228, Note_on_c,11,66,0
12,355230, Note_on_c,11,65,70
12,355580, Note_on_c,11,65,0
12,355646, Note_on_c,11,55,70
12,355976, Note_on_c,11,55,0
12,355986, Note_on_c,11,57,75
12,356316, Note_on_c,11,57,0
12,356318, Note_on_c,11,59,80
12,356678, Note_on_c,11,59,0
12,356682, Note_on_c,11,60,85
12,357032, Note_on_c,11,60,0
12,357098, Note_on_c,11,68,90
12,357428, Note_on_c,11,68,0
12,357430, Note_on_c,11,67,90
12,357790, Note_on_c,11,67,0
12,357794, Note_on_c,11,66,85
12,358149, Note_on_c,11,66,0
12,358154, Note_on_c,11,65,70
12,358504, Note_on_c,11,65,0
12,372054, Note_on_c,11,55,80
12,372054, Note_on_c,11,63,80
12,373006, Note_on_c,11,55,80
12,373006, Note_on_c,11,63,80
12,373092, Note_on_c,11,63,0
12,373092, Note_on_c,11,55,0
12,373096, Note_on_c,11,63,0
12,373096, Note_on_c,11,55,0
12,373111, Note_on_c,11,55,80
12,373111, Note_on_c,11,63,80
12,373201, Note_on_c,11,63,0
12,373201, Note_on_c,11,55,0
12,373216, Note_on_c,11,55,80
12,373216, Note_on_c,11,63,80
12,373306, Note_on_c,11,63,0
12,373306, Note_on_c,11,55,0
12,373322, Note_on_c,11,55,85
12,373322, Note_on_c,11,63,85
12,374250, Note_on_c,11,63,0
12,374250, Note_on_c,11,55,0
12,374274, Note_on_c,11,55,85
12,374274, Note_on_c,11,63,85
12,374364, Note_on_c,11,63,0
12,374364, Note_on_c,11,55,0
12,374377, Note_on_c,11,55,85
12,374377, Note_on_c,11,63,85
12,374467, Note_on_c,11,63,0
12,374467, Note_on_c,11,55,0
12,374479, Note_on_c,11,55,85
12,374479, Note_on_c,11,63,85
12,374569, Note_on_c,11,63,0
12,374569, Note_on_c,11,55,0
12,374582, Note_on_c,11,55,90
12,374582, Note_on_c,11,64,90
12,375520, Note_on_c,11,64,0
12,375520, Note_on_c,11,55,0
12,375542, Note_on_c,11,55,90
12,375542, Note_on_c,11,64,90
12,375632, Note_on_c,11,64,0
12,375632, Note_on_c,11,55,0
12,375639, Note_on_c,11,55,90
12,375639, Note_on_c,11,64,90
12,375729, Note_on_c,11,64,0
12,375729, Note_on_c,11,55,0
12,375736, Note_on_c,11,55,90
12,375736, Note_on_c,11,64,90
12,375826, Note_on_c,11,64,0
12,375826, Note_on_c,11,55,0
12,375834, Note_on_c,11,55,95
12,375834, Note_on_c,11,65,95
12,376124, Note_on_c,11,65,0
12,376124, Note_on_c,11,55,0
12,376160, Note_on_c,11,55,95
12,376160, Note_on_c,11,65,95
12,376250, Note_on_c,11,65,0
12,376250, Note_on_c,11,55,0
12,376265, Note_on_c,11,55,95
12,376265, Note_on_c,11,65,95
12,376355, Note_on_c,11,65,0
12,376355, Note_on_c,11,55,0
12,376370, Note_on_c,11,55,95
12,376370, Note_on_c,11,65,95
12,376460, Note_on_c,11,65,0
12,376460, Note_on_c,11,55,0
12,376478, Note_on_c,11,55,100
12,376478, Note_on_c,11,65,100
12,376768, Note_on_c,11,65,0
12,376768, Note_on_c,11,55,0
12,376782, Note_on_c,11,55,100
12,376782, Note_on_c,11,65,100
12,376872, Note_on_c,11,65,0
12,376872, Note_on_c,11,55,0
12,376879, Note_on_c,11,55,100
12,376879, Note_on_c,11,65,100
12,376969, Note_on_c,11,65,0
12,376969, Note_on_c,11,55,0
12,376976, Note_on_c,11,55,100
12,376976, Note_on_c,11,65,100
12,377066, Note_on_c,11,65,0
12,377066, Note_on_c,11,55,0
12,377074, Note_on_c,11,55,105
12,377074, Note_on_c,11,66,105
12,377364, Note_on_c,11,66,0
12,377364, Note_on_c,11,55,0
12,377378, Note_on_c,11,55,105
12,377378, Note_on_c,11,66,105
12,377468, Note_on_c,11,66,0
12,377468, Note_on_c,11,55,0
12,377472, Note_on_c,11,55,105
12,377472, Note_on_c,11,66,105
12,377562, Note_on_c,11,66,0
12,377562, Note_on_c,11,55,0
12,377566, Note_on_c,11,55,105
12,377566, Note_on_c,11,66,105
12,377656, Note_on_c,11,66,0
12,377656, Note_on_c,11,55,0
12,377670, Note_on_c,11,55,110
12,377670, Note_on_c,11,67,110
12,377960, Note_on_c,11,67,0
12,377960, Note_on_c,11,55,0
12,377962, Note_on_c,11,55,110
12,377962, Note_on_c,11,67,110
12,378052, Note_on_c,11,67,0
12,378052, Note_on_c,11,55,0
12,378058, Note_on_c,11,55,110
12,378058, Note_on_c,11,67,110
12,378148, Note_on_c,11,67,0
12,378148, Note_on_c,11,55,0
12,378154, Note_on_c,11,55,110
12,378154, Note_on_c,11,67,110
12,378244, Note_on_c,11,67,0
12,378244, Note_on_c,11,55,0
12,378250, Note_on_c,11,55,110
12,378250, Note_on_c,11,68,110
12,378734, Note_on_c,11,68,0
12,378734, Note_on_c,11,55,0
12,378846, Note_on_c,11,55,115
12,378846, Note_on_c,11,69,115
12,379330, Note_on_c,11,69,0
12,379330, Note_on_c,11,55,0
12,379446, Note_on_c,11,55,120
12,380161, Control_c,11,11,110
12,380274, Note_on_c,11,55,0
12,380614, Note_on_c,11,53,120
12,380614, Note_on_c,11,62,120
12,380764, Note_on_c,11,62,0
12,380764, Note_on_c,11,53,0
12,383278, Note_on_c,11,39,120
12,383278, Note_on_c,11,51,120
12,383428, Note_on_c,11,51,0
12,383428, Note_on_c,11,39,0
12,385920, Note_on_c,11,50,120
12,386070, Note_on_c,11,50,0
12,386566, Note_on_c,11,49,120
12,386716, Note_on_c,11,49,0
12,387194, Note_on_c,11,48,120
12,387344, Note_on_c,11,48,0
12,387850, Note_on_c,11,47,120
12,387850, Note_on_c,11,59,120
12,387994, Note_on_c,11,46,120
12,387994, Note_on_c,11,58,120
12,388000, Note_on_c,11,59,0
12,388000, Note_on_c,11,47,0
12,388144, Note_on_c,11,46,0
12,388144, Note_on_c,11,58,0
12,388522, Note_on_c,11,45,120
12,388522, Note_on_c,11,57,120
12,388672, Note_on_c,11,57,0
12,388672, Note_on_c,11,45,0
12,388906, Note_on_c,11,56,120
12,388906, Note_on_c,11,44,120
12,389056, Note_on_c,11,44,0
12,389056, Note_on_c,11,56,0
12,389290, Note_on_c,11,43,120
12,389290, Note_on_c,11,55,120
12,389440, Note_on_c,11,55,0
12,389440, Note_on_c,11,43,0
12,407809, Control_c,11,11,60
12,407894, Note_on_c,11,44,60
12,407894, Note_on_c,11,51,60
12,408605, Note_on_c,11,51,0
12,408605, Note_on_c,11,44,0
12,409326, Note_on_c,11,44,60
12,409326, Note_on_c,11,51,60
12,410037, Note_on_c,11,51,0
12,410037, Note_on_c,11,44,0
12,410786, Note_on_c,11,44,60
12,410786, Note_on_c,11,51,60
12,411497, Note_on_c,11,51,0
12,411497, Note_on_c,11,44,0
12,412227, Note_on_c,11,44,60
12,412227, Note_on_c,11,51,60
12,412938, Note_on_c,11,51,0
12,412938, Note_on_c,11,44,0
12,413682, Note_on_c,11,44,60
12,413682, Note_on_c,11,51,60
12,414393, Note_on_c,11,51,0
12,414393, Note_on_c,11,44,0
12,415130, Note_on_c,11,51,60
12,415130, Note_on_c,11,44,60
12,415841, Note_on_c,11,44,0
12,415841, Note_on_c,11,51,0
12,416578, Note_on_c,11,51,60
12,416578, Note_on_c,11,44,60
12,417289, Note_on_c,11,44,0
12,417289, Note_on_c,11,51,0
12,418054, Note_on_c,11,51,60
12,418054, Note_on_c,11,44,60
12,418765, Note_on_c,11,44,0
12,418765, Note_on_c,11,51,0
12,419329, Control_c,11,11,70
12,419510, Note_on_c,11,56,70
12,419510, Note_on_c,11,63,70
12,420802, Note_on_c,11,63,0
12,420802, Note_on_c,11,56,0
12,420822, Note_on_c,11,56,70
12,420822, Note_on_c,11,63,70
12,422114, Note_on_c,11,63,0
12,422114, Note_on_c,11,56,0
12,422122, Note_on_c,11,56,70
12,422122, Note_on_c,11,63,70
12,423374, Note_on_c,11,63,0
12,423374, Note_on_c,11,56,0
12,423410, Note_on_c,11,56,70
12,423410, Note_on_c,11,63,70
12,424662, Note_on_c,11,63,0
12,424662, Note_on_c,11,56,0
12,424718, Note_on_c,11,63,70
12,424718, Note_on_c,11,56,70
12,425970, Note_on_c,11,56,0
12,425970, Note_on_c,11,63,0
12,426002, Note_on_c,11,63,70
12,426002, Note_on_c,11,56,70
12,427254, Note_on_c,11,56,0
12,427254, Note_on_c,11,63,0
12,427314, Note_on_c,11,64,70
12,427314, Note_on_c,11,56,70
12,428606, Note_on_c,11,56,0
12,428606, Note_on_c,11,64,0
12,430050, Note_on_c,11,64,70
12,430050, Note_on_c,11,56,70
12,431342, Note_on_c,11,56,0
12,431342, Note_on_c,11,64,0
12,432790, Note_on_c,11,56,60
12,432790, Note_on_c,11,63,60
12,433490, Note_on_c,11,63,0
12,433490, Note_on_c,11,56,0
12,434218, Note_on_c,11,63,60
12,434218, Note_on_c,11,56,60
12,434918, Note_on_c,11,56,0
12,434918, Note_on_c,11,63,0
12,435590, Note_on_c,11,44,60
12,435590, Note_on_c,11,63,60
12,438278, Note_on_c,11,63,0
12,438278, Note_on_c,11,44,0
12,438298, Note_on_c,11,44,50
12,441854, Note_on_c,11,44,0
12,442753, Control_c,11,11,80
12,445042, Control_c,11,11,81
12,445299, Note_on_c,11,53,60
12,445299, Note_on_c,11,57,60
12,445609, Note_on_c,11,57,0
12,445609, Note_on_c,11,53,0
12,445615, Note_on_c,11,55,60
12,445615, Note_on_c,11,58,60
12,445925, Note_on_c,11,58,0
12,445925, Note_on_c,11,55,0
12,445931, Note_on_c,11,57,60
12,445931, Note_on_c,11,60,60
12,446241, Note_on_c,11,60,0
12,446241, Note_on_c,11,57,0
12,446247, Note_on_c,11,58,60
12,446247, Note_on_c,11,61,60
12,446557, Note_on_c,11,61,0
12,446557, Note_on_c,11,58,0
12,446563, Note_on_c,11,65,60
12,446563, Note_on_c,11,61,60
12,446873, Note_on_c,11,61,0
12,446873, Note_on_c,11,65,0
12,446879, Note_on_c,11,66,60
12,446879, Note_on_c,11,63,60
12,447189, Note_on_c,11,63,0
12,447189, Note_on_c,11,66,0
12,447195, Note_on_c,11,60,60
12,447195, Note_on_c,11,63,60
12,447332, Control_c,11,11,82
12,447505, Note_on_c,11,63,0
12,447505, Note_on_c,11,60,0
12,447511, Note_on_c,11,61,60
12,447511, Note_on_c,11,65,60
12,447821, Note_on_c,11,65,0
12,447821, Note_on_c,11,61,0
12,449621, Control_c,11,11,83
12,450355, Note_on_c,11,55,60
12,450355, Note_on_c,11,59,60
12,450665, Note_on_c,11,59,0
12,450665, Note_on_c,11,55,0
12,450671, Note_on_c,11,57,60
12,450671, Note_on_c,11,60,60
12,450981, Note_on_c,11,60,0
12,450981, Note_on_c,11,57,0
12,450987, Note_on_c,11,59,60
12,450987, Note_on_c,11,62,60
12,451297, Note_on_c,11,62,0
12,451297, Note_on_c,11,59,0
12,451303, Note_on_c,11,60,60
12,451303, Note_on_c,11,63,60
12,451613, Note_on_c,11,63,0
12,451613, Note_on_c,11,60,0
12,451619, Note_on_c,11,67,60
12,451619, Note_on_c,11,63,60
12,451911, Control_c,11,11,84
12,451929, Note_on_c,11,63,0
12,451929, Note_on_c,11,67,0
12,451935, Note_on_c,11,65,60
12,451935, Note_on_c,11,68,60
12,452245, Note_on_c,11,68,0
12,452245, Note_on_c,11,65,0
12,452251, Note_on_c,11,62,60
12,452251, Note_on_c,11,65,60
12,452561, Note_on_c,11,65,0
12,452561, Note_on_c,11,62,0
12,452567, Note_on_c,11,63,60
12,452567, Note_on_c,11,67,60
12,452877, Note_on_c,11,67,0
12,452877, Note_on_c,11,63,0
12,454147, Note_on_c,11,55,60
12,454147, Note_on_c,11,43,60
12,454201, Control_c,11,11,85
12,454297, Note_on_c,11,43,0
12,454297, Note_on_c,11,55,0
12,454305, Note_on_c,11,57,60
12,454305, Note_on_c,11,45,60
12,454455, Note_on_c,11,45,0
12,454455, Note_on_c,11,57,0
12,454463, Note_on_c,11,59,60
12,454463, Note_on_c,11,47,60
12,454613, Note_on_c,11,47,0
12,454613, Note_on_c,11,59,0
12,454621, Note_on_c,11,48,60
12,454621, Note_on_c,11,36,60
12,454771, Note_on_c,11,36,0
12,454771, Note_on_c,11,48,0
12,454779, Note_on_c,11,47,60
12,454779, Note_on_c,11,59,60
12,454929, Note_on_c,11,59,0
12,454929, Note_on_c,11,47,0
12,454937, Note_on_c,11,60,60
12,454937, Note_on_c,11,48,60
12,455087, Note_on_c,11,48,0
12,455087, Note_on_c,11,60,0
12,455095, Note_on_c,11,62,60
12,455095, Note_on_c,11,50,60
12,455245, Note_on_c,11,50,0
12,455245, Note_on_c,11,62,0
12,455253, Note_on_c,11,63,60
12,455253, Note_on_c,11,51,60
12,455403, Note_on_c,11,51,0
12,455403, Note_on_c,11,63,0
12,456490, Control_c,11,11,86
12,456675, Note_on_c,11,45,60
12,456675, Note_on_c,11,57,60
12,456825, Note_on_c,11,57,0
12,456825, Note_on_c,11,45,0
12,456833, Note_on_c,11,47,60
12,456833, Note_on_c,11,59,60
12,456983, Note_on_c,11,59,0
12,456983, Note_on_c,11,47,0
12,456991, Note_on_c,11,49,60
12,456991, Note_on_c,11,61,60
12,457141, Note_on_c,11,61,0
12,457141, Note_on_c,11,49,0
12,457149, Note_on_c,11,62,60
12,457149, Note_on_c,11,50,60
12,457299, Note_on_c,11,50,0
12,457299, Note_on_c,11,62,0
12,457307, Note_on_c,11,49,60
12,457307, Note_on_c,11,61,60
12,457457, Note_on_c,11,61,0
12,457457, Note_on_c,11,49,0
12,457465, Note_on_c,11,50,60
12,457465, Note_on_c,11,62,60
12,457615, Note_on_c,11,62,0
12,457615, Note_on_c,11,50,0
12,457623, Note_on_c,11,52,60
12,457623, Note_on_c,11,64,60
12,457773, Note_on_c,11,64,0
12,457773, Note_on_c,11,52,0
12,457781, Note_on_c,11,53,60
12,457781, Note_on_c,11,65,60
12,457931, Note_on_c,11,65,0
12,457931, Note_on_c,11,53,0
12,458780, Control_c,11,11,87
12,461070, Control_c,11,11,88
12,463359, Control_c,11,11,89
12,465649, Control_c,11,11,90
12,467938, Control_c,11,11,91
12,468367, Note_on_c,11,45,80
12,468367, Note_on_c,11,57,80
12,469626, Note_on_c,11,57,0
12,469626, Note_on_c,11,45,0
12,469631, Note_on_c,11,55,80
12,469631, Note_on_c,11,43,80
12,470228, Control_c,11,11,92
12,470579, Note_on_c,11,52,70
12,470579, Note_on_c,11,64,70
12,470729, Note_on_c,11,64,0
12,470729, Note_on_c,11,52,0
12,470737, Note_on_c,11,50,70
12,470737, Note_on_c,11,62,70
12,470887, Note_on_c,11,62,0
12,470887, Note_on_c,11,50,0
12,470890, Note_on_c,11,43,0
12,470890, Note_on_c,11,55,0
12,470895, Note_on_c,11,49,70
12,470895, Note_on_c,11,61,70
12,471045, Note_on_c,11,61,0
12,471045, Note_on_c,11,49,0
12,471053, Note_on_c,11,48,70
12,471053, Note_on_c,11,60,70
12,471203, Note_on_c,11,60,0
12,471203, Note_on_c,11,48,0
12,471211, Note_on_c,11,47,70
12,471211, Note_on_c,11,59,70
12,471361, Note_on_c,11,59,0
12,471361, Note_on_c,11,47,0
12,471369, Note_on_c,11,48,70
12,471369, Note_on_c,11,60,70
12,471519, Note_on_c,11,60,0
12,471519, Note_on_c,11,48,0
12,471527, Note_on_c,11,49,70
12,471527, Note_on_c,11,61,70
12,471677, Note_on_c,11,61,0
12,471677, Note_on_c,11,49,0
12,471685, Note_on_c,11,50,70
12,471685, Note_on_c,11,62,70
12,471835, Note_on_c,11,62,0
12,471835, Note_on_c,11,50,0
12,471843, Note_on_c,11,45,70
12,471843, Note_on_c,11,57,70
12,471993, Note_on_c,11,57,0
12,471993, Note_on_c,11,45,0
12,472001, Note_on_c,11,46,70
12,472001, Note_on_c,11,58,70
12,472151, Note_on_c,11,58,0
12,472151, Note_on_c,11,46,0
12,472159, Note_on_c,11,47,70
12,472159, Note_on_c,11,59,70
12,472309, Note_on_c,11,59,0
12,472309, Note_on_c,11,47,0
12,472317, Note_on_c,11,48,70
12,472317, Note_on_c,11,60,70
12,472467, Note_on_c,11,60,0
12,472467, Note_on_c,11,48,0
12,472475, Note_on_c,11,49,70
12,472475, Note_on_c,11,61,70
12,472518, Control_c,11,11,93
12,472625, Note_on_c,11,61,0
12,472625, Note_on_c,11,49,0
12,472633, Note_on_c,11,50,70
12,472633, Note_on_c,11,62,70
12,472783, Note_on_c,11,62,0
12,472783, Note_on_c,11,50,0
12,472791, Note_on_c,11,47,70
12,472791, Note_on_c,11,59,70
12,472941, Note_on_c,11,59,0
12,472941, Note_on_c,11,47,0
12,472949, Note_on_c,11,48,70
12,472949, Note_on_c,11,60,70
12,473099, Note_on_c,11,60,0
12,473099, Note_on_c,11,48,0
12,473433, Note_on_c,11,55,70
12,473433, Note_on_c,11,43,70
12,474697, Note_on_c,11,43,0
12,474697, Note_on_c,11,55,0
12,474697, Note_on_c,11,53,70
12,474697, Note_on_c,11,41,70
12,474807, Control_c,11,11,94
12,475645, Note_on_c,11,50,70
12,475645, Note_on_c,11,62,70
12,475665, Note_on_c,11,41,0
12,475665, Note_on_c,11,53,0
12,475795, Note_on_c,11,50,0
12,475795, Note_on_c,11,62,0
12,475803, Note_on_c,11,60,70
12,475803, Note_on_c,11,48,70
12,475953, Note_on_c,11,48,0
12,475953, Note_on_c,11,60,0
12,475961, Note_on_c,11,59,70
12,475961, Note_on_c,11,47,70
12,476111, Note_on_c,11,47,0
12,476111, Note_on_c,11,59,0
12,476119, Note_on_c,11,58,70
12,476119, Note_on_c,11,46,70
12,476269, Note_on_c,11,46,0
12,476269, Note_on_c,11,58,0
12,476277, Note_on_c,11,57,70
12,476277, Note_on_c,11,45,70
12,476427, Note_on_c,11,45,0
12,476427, Note_on_c,11,57,0
12,476435, Note_on_c,11,58,70
12,476435, Note_on_c,11,46,70
12,476585, Note_on_c,11,46,0
12,476585, Note_on_c,11,58,0
12,476593, Note_on_c,11,59,70
12,476593, Note_on_c,11,47,70
12,476743, Note_on_c,11,47,0
12,476743, Note_on_c,11,59,0
12,476751, Note_on_c,11,60,70
12,476751, Note_on_c,11,48,70
12,476901, Note_on_c,11,48,0
12,476901, Note_on_c,11,60,0
12,476909, Note_on_c,11,55,70
12,476909, Note_on_c,11,43,70
12,477059, Note_on_c,11,43,0
12,477059, Note_on_c,11,55,0
12,477067, Note_on_c,11,56,70
12,477067, Note_on_c,11,44,70
12,477097, Control_c,11,11,95
12,477217, Note_on_c,11,44,0
12,477217, Note_on_c,11,56,0
12,477225, Note_on_c,11,57,70
12,477225, Note_on_c,11,45,70
12,477375, Note_on_c,11,45,0
12,477375, Note_on_c,11,57,0
12,477383, Note_on_c,11,58,70
12,477383, Note_on_c,11,46,70
12,477533, Note_on_c,11,46,0
12,477533, Note_on_c,11,58,0
12,477541, Note_on_c,11,59,70
12,477541, Note_on_c,11,47,70
12,477691, Note_on_c,11,47,0
12,477691, Note_on_c,11,59,0
12,477699, Note_on_c,11,60,70
12,477699, Note_on_c,11,48,70
12,477849, Note_on_c,11,48,0
12,477849, Note_on_c,11,60,0
12,477857, Note_on_c,11,58,70
12,477857, Note_on_c,11,46,70
12,478007, Note_on_c,11,46,0
12,478007, Note_on_c,11,58,0
12,478015, Note_on_c,11,59,70
12,478015, Note_on_c,11,47,70
12,478165, Note_on_c,11,47,0
12,478165, Note_on_c,11,59,0
12,478499, Note_on_c,11,67,80
12,478499, Note_on_c,11,65,80
12,479131, Note_on_c,11,65,0
12,479131, Note_on_c,11,63,80
12,479387, Control_c,11,11,96
12,479763, Note_on_c,11,63,0
12,479763, Note_on_c,11,67,0
12,479763, Note_on_c,11,65,80
12,479763, Note_on_c,11,62,80
12,480079, Note_on_c,11,62,0
12,480079, Note_on_c,11,65,0
12,480089, Note_on_c,11,63,80
12,480089, Note_on_c,11,60,80
12,480405, Note_on_c,11,60,0
12,480405, Note_on_c,11,63,0
12,480405, Note_on_c,11,62,80
12,480405, Note_on_c,11,59,80
12,480721, Note_on_c,11,59,0
12,480721, Note_on_c,11,62,0
12,481039, Note_on_c,11,67,80
12,481039, Note_on_c,11,65,80
12,481671, Note_on_c,11,65,0
12,481671, Note_on_c,11,63,80
12,481676, Control_c,11,11,97
12,482303, Note_on_c,11,63,0
12,482303, Note_on_c,11,67,0
12,482303, Note_on_c,11,65,80
12,482303, Note_on_c,11,62,80
12,482619, Note_on_c,11,62,0
12,482619, Note_on_c,11,65,0
12,482629, Note_on_c,11,63,80
12,482629, Note_on_c,11,60,80
12,482945, Note_on_c,11,60,0
12,482945, Note_on_c,11,63,0
12,482945, Note_on_c,11,62,80
12,482945, Note_on_c,11,59,80
12,483261, Note_on_c,11,59,0
12,483261, Note_on_c,11,62,0
12,483577, Note_on_c,11,60,80
12,483577, Note_on_c,11,58,80
12,483966, Control_c,11,11,98
12,484209, Note_on_c,11,58,0
12,484209, Note_on_c,11,56,80
12,484841, Note_on_c,11,56,0
12,484841, Note_on_c,11,60,0
12,484841, Note_on_c,11,58,80
12,484841, Note_on_c,11,55,80
12,485157, Note_on_c,11,55,0
12,485157, Note_on_c,11,58,0
12,485167, Note_on_c,11,56,80
12,485167, Note_on_c,11,53,80
12,485483, Note_on_c,11,53,0
12,485483, Note_on_c,11,56,0
12,485483, Note_on_c,11,55,80
12,485483, Note_on_c,11,52,80
12,485799, Note_on_c,11,52,0
12,485799, Note_on_c,11,55,0
12,486115, Note_on_c,11,60,80
12,486115, Note_on_c,11,58,80
12,486256, Control_c,11,11,99
12,486747, Note_on_c,11,58,0
12,486747, Note_on_c,11,56,80
12,487379, Note_on_c,11,56,0
12,487379, Note_on_c,11,60,0
12,487379, Note_on_c,11,58,80
12,487379, Note_on_c,11,55,80
12,487695, Note_on_c,11,55,0
12,487695, Note_on_c,11,58,0
12,487705, Note_on_c,11,56,80
12,487705, Note_on_c,11,53,80
12,488021, Note_on_c,11,53,0
12,488021, Note_on_c,11,56,0
12,488021, Note_on_c,11,55,80
12,488021, Note_on_c,11,52,80
12,488337, Note_on_c,11,52,0
12,488337, Note_on_c,11,55,0
12,488545, Control_c,11,11,100
12,488653, Note_on_c,11,41,80
12,488653, Note_on_c,11,53,80
12,488969, Note_on_c,11,53,0
12,488969, Note_on_c,11,41,0
12,488969, Note_on_c,11,36,80
12,488969, Note_on_c,11,48,80
12,489285, Note_on_c,11,48,0
12,489285, Note_on_c,11,36,0
12,489285, Note_on_c,11,41,80
12,489285, Note_on_c,11,53,80
12,489601, Note_on_c,11,53,0
12,489601, Note_on_c,11,41,0
12,489601, Note_on_c,11,36,80
12,489601, Note_on_c,11,48,80
12,489917, Note_on_c,11,48,0
12,489917, Note_on_c,11,36,0
12,489917, Note_on_c,11,44,80
12,489917, Note_on_c,11,56,80
12,490233, Note_on_c,11,56,0
12,490233, Note_on_c,11,44,0
12,490243, Note_on_c,11,41,80
12,490243, Note_on_c,11,53,80
12,490559, Note_on_c,11,53,0
12,490559, Note_on_c,11,41,0
12,490559, Note_on_c,11,50,80
12,490835, Control_c,11,11,101
12,490875, Note_on_c,11,50,0
12,491192, Note_on_c,11,36,80
12,491192, Note_on_c,11,48,80
12,491992, Note_on_c,11,48,0
12,491992, Note_on_c,11,36,0
12,492458, Note_on_c,11,35,80
12,492458, Note_on_c,11,47,80
12,493124, Control_c,11,11,102
12,493258, Note_on_c,11,47,0
12,493258, Note_on_c,11,35,0
12,493723, Note_on_c,11,41,80
12,493723, Note_on_c,11,53,80
12,494023, Note_on_c,11,53,0
12,494023, Note_on_c,11,41,0
12,494039, Note_on_c,11,36,80
12,494039, Note_on_c,11,48,80
12,494339, Note_on_c,11,48,0
12,494339, Note_on_c,11,36,0
12,494355, Note_on_c,11,41,80
12,494355, Note_on_c,11,53,80
12,494655, Note_on_c,11,53,0
12,494655, Note_on_c,11,41,0
12,494671, Note_on_c,11,36,80
12,494671, Note_on_c,11,48,80
12,494971, Note_on_c,11,48,0
12,494971, Note_on_c,11,36,0
12,494987, Note_on_c,11,44,80
12,494987, Note_on_c,11,56,80
12,495287, Note_on_c,11,56,0
12,495287, Note_on_c,11,44,0
12,495313, Note_on_c,11,41,80
12,495313, Note_on_c,11,53,80
12,495414, Control_c,11,11,103
12,495613, Note_on_c,11,53,0
12,495613, Note_on_c,11,41,0
12,495629, Note_on_c,11,50,80
12,495929, Note_on_c,11,50,0
12,496262, Note_on_c,11,48,90
12,496262, Note_on_c,11,36,90
12,497062, Note_on_c,11,36,0
12,497062, Note_on_c,11,48,0
12,497528, Note_on_c,11,35,95
12,497528, Note_on_c,11,47,95
12,497704, Control_c,11,11,104
12,498328, Note_on_c,11,47,0
12,498328, Note_on_c,11,35,0
12,498794, Note_on_c,11,46,100
12,498794, Note_on_c,11,34,100
12,499594, Note_on_c,11,34,0
12,499594, Note_on_c,11,46,0
12,499993, Control_c,11,11,105
12,501326, Note_on_c,11,45,100
12,502126, Note_on_c,11,45,0
12,502283, Control_c,11,11,106
12,503858, Note_on_c,11,45,100
12,504573, Control_c,11,11,107
12,504658, Note_on_c,11,45,0
12,506386, Note_on_c,11,44,100
12,506862, Control_c,11,11,108
12,507186, Note_on_c,11,44,0
12,509152, Control_c,11,11,109
12,511442, Control_c,11,11,110
12,511442, Note_on_c,11,43,100
12,511642, Note_on_c,11,43,0
12,561025, Control_c,11,11,70
12,561252, Note_on_c,11,52,70
12,561252, Note_on_c,11,56,70
12,562800, Note_on_c,11,56,0
12,562800, Note_on_c,11,52,0
12,563148, Note_on_c,11,52,70
12,563148, Note_on_c,11,56,70
12,565014, Note_on_c,11,56,0
12,565014, Note_on_c,11,52,0
12,565680, Note_on_c,11,61,70
12,565680, Note_on_c,11,57,70
12,567216, Note_on_c,11,57,0
12,567216, Note_on_c,11,61,0
12,567822, Note_on_c,11,57,70
12,567822, Note_on_c,11,61,70
12,568600, Note_on_c,11,61,0
12,568600, Note_on_c,11,57,0
12,570268, Note_on_c,11,51,70
12,571750, Note_on_c,11,51,0
12,572164, Note_on_c,11,51,70
12,573646, Note_on_c,11,51,0
12,574432, Note_on_c,11,51,70
12,574792, Note_on_c,11,51,0
12,574808, Note_on_c,11,56,70
12,576060, Note_on_c,11,56,0
12,576648, Note_on_c,11,56,70
12,578220, Note_on_c,11,56,0
12,578864, Note_on_c,11,56,70
12,579224, Note_on_c,11,56,0
12,579240, Note_on_c,11,61,70
12,580438, Note_on_c,11,61,0
12,581096, Note_on_c,11,61,70
12,582348, Note_on_c,11,61,0
12,583312, Note_on_c,11,61,70
12,583587, Note_on_c,11,61,0
12,583698, Control_c,11,11,70
12,583698, Note_on_c,11,35,70
12,583698, Note_on_c,11,59,70
12,583834, Control_c,11,11,71
12,583878, Note_on_c,11,59,0
12,583888, Note_on_c,11,56,70
12,583971, Control_c,11,11,72
12,584068, Note_on_c,11,56,0
12,584078, Note_on_c,11,57,70
12,584108, Control_c,11,11,73
12,584228, Note_on_c,11,57,0
12,584245, Control_c,11,11,74
12,584268, Note_on_c,11,59,70
12,584382, Control_c,11,11,75
12,584448, Note_on_c,11,59,0
12,584458, Note_on_c,11,56,70
12,584518, Control_c,11,11,76
12,584638, Note_on_c,11,56,0
12,584648, Note_on_c,11,57,70
12,584655, Control_c,11,11,77
12,584792, Control_c,11,11,78
12,584798, Note_on_c,11,57,0
12,584838, Note_on_c,11,59,70
12,584929, Control_c,11,11,79
12,585018, Note_on_c,11,59,0
12,585028, Note_on_c,11,56,70
12,585066, Control_c,11,11,80
12,585202, Control_c,11,11,81
12,585208, Note_on_c,11,56,0
12,585218, Note_on_c,11,58,70
12,585339, Control_c,11,11,82
12,585368, Note_on_c,11,58,0
12,585408, Note_on_c,11,59,70
12,585476, Control_c,11,11,83
12,585588, Note_on_c,11,59,0
12,585598, Note_on_c,11,57,70
12,585613, Control_c,11,11,84
12,585750, Control_c,11,11,85
12,585778, Note_on_c,11,57,0
12,585788, Note_on_c,11,58,70
12,585886, Control_c,11,11,86
12,585938, Note_on_c,11,58,0
12,585978, Note_on_c,11,59,70
12,586023, Control_c,11,11,87
12,586158, Note_on_c,11,59,0
12,586160, Control_c,11,11,88
12,586168, Note_on_c,11,57,70
12,586297, Control_c,11,11,89
12,586348, Note_on_c,11,57,0
12,586358, Note_on_c,11,58,70
12,586434, Control_c,11,11,90
12,586508, Note_on_c,11,58,0
12,586548, Note_on_c,11,59,70
12,586570, Control_c,11,11,91
12,586707, Control_c,11,11,92
12,586728, Note_on_c,11,59,0
12,586738, Note_on_c,11,58,70
12,586844, Control_c,11,11,93
12,586918, Note_on_c,11,58,0
12,586928, Note_on_c,11,59,70
12,586981, Control_c,11,11,94
12,587078, Note_on_c,11,59,0
12,587118, Control_c,11,11,95
12,587118, Note_on_c,11,59,70
12,587298, Note_on_c,11,59,0
12,587308, Note_on_c,11,58,70
12,587488, Note_on_c,11,58,0
12,587498, Note_on_c,11,59,70
12,587648, Note_on_c,11,59,0
12,587688, Note_on_c,11,59,70
12,587838, Note_on_c,11,35,0
12,587868, Note_on_c,11,59,0
12,588828, Note_on_c,11,47,90
12,588828, Note_on_c,11,59,90
12,589028, Note_on_c,11,59,0
12,589028, Note_on_c,11,47,0
12,589968, Note_on_c,11,47,90
12,589968, Note_on_c,11,59,90
12,590168, Note_on_c,11,59,0
12,590168, Note_on_c,11,47,0
12,591108, Note_on_c,11,47,90
12,591108, Note_on_c,11,59,90
12,591308, Note_on_c,11,59,0
12,591308, Note_on_c,11,47,0
12,609708, Note_on_c,11,54,70
12,609708, Note_on_c,11,58,70
12,610362, Note_on_c,11,58,0
12,610362, Note_on_c,11,54,0
12,610372, Note_on_c,11,54,70
12,610372, Note_on_c,11,59,70
12,611026, Note_on_c,11,59,0
12,611026, Note_on_c,11,54,0
12,611032, Note_on_c,11,55,70
12,611032, Note_on_c,11,59,70
12,611686, Note_on_c,11,59,0
12,611686, Note_on_c,11,55,0
12,611692, Note_on_c,11,60,70
12,611692, Note_on_c,11,55,70
12,612346, Note_on_c,11,55,0
12,612346, Note_on_c,11,60,0
12,615380, Note_on_c,11,57,70
12,615380, Note_on_c,11,61,70
12,616034, Note_on_c,11,61,0
12,616034, Note_on_c,11,57,0
12,616044, Note_on_c,11,57,70
12,616044, Note_on_c,11,62,70
12,616698, Note_on_c,11,62,0
12,616698, Note_on_c,11,57,0
12,616704, Note_on_c,11,58,70
12,616704, Note_on_c,11,62,70
12,617358, Note_on_c,11,62,0
12,617358, Note_on_c,11,58,0
12,617364, Note_on_c,11,58,70
12,617364, Note_on_c,11,63,70
12,618018, Note_on_c,11,63,0
12,618018, Note_on_c,11,58,0
12,618036, Note_on_c,11,42,100
12,618036, Note_on_c,11,54,100
12,618216, Note_on_c,11,54,0
12,618216, Note_on_c,11,42,0
12,619688, Note_on_c,11,41,100
12,619688, Note_on_c,11,53,100
12,619868, Note_on_c,11,53,0
12,619868, Note_on_c,11,41,0
12,638209, Control_c,11,11,70
12,638574, Note_on_c,11,46,70
12,638574, Note_on_c,11,53,70
12,640978, Note_on_c,11,53,0
12,640978, Note_on_c,11,46,0
12,640998, Note_on_c,11,46,70
12,640998, Note_on_c,11,53,70
12,643402, Note_on_c,11,53,0
12,643402, Note_on_c,11,46,0
12,643410, Note_on_c,11,46,70
12,643410, Note_on_c,11,53,70
12,645804, Note_on_c,11,46,70
12,645804, Note_on_c,11,53,70
12,645814, Note_on_c,11,53,0
12,645814, Note_on_c,11,46,0
12,646981, Note_on_c,11,53,0
12,646981, Note_on_c,11,46,0
12,647001, Note_on_c,11,53,70
12,647001, Note_on_c,11,46,70
12,647595, Note_on_c,11,46,0
12,647605, Note_on_c,11,47,70
12,648208, Note_on_c,11,48,70
12,648208, Note_on_c,11,51,70
12,648249, Note_on_c,11,53,0
12,648259, Note_on_c,11,47,0
12,649405, Note_on_c,11,51,0
12,649416, Note_on_c,11,50,70
12,650618, Note_on_c,11,50,0
12,650632, Note_on_c,11,51,70
12,651196, Note_on_c,11,48,0
12,651226, Note_on_c,11,51,0
12,656641, Control_c,11,11,70
12,656716, Note_on_c,11,60,60
12,656716, Note_on_c,11,48,60
12,656986, Note_on_c,11,48,0
12,656986, Note_on_c,11,60,0
12,657057, Note_on_c,11,56,80
12,657057, Note_on_c,11,48,80
12,657731, Note_on_c,11,48,0
12,657731, Note_on_c,11,56,0
12,657739, Note_on_c,11,55,60
12,657739, Note_on_c,11,48,60
12,658039, Note_on_c,11,48,0
12,658039, Note_on_c,11,55,0
12,659328, Note_on_c,11,55,60
12,659328, Note_on_c,11,48,60
12,659598, Note_on_c,11,48,0
12,659598, Note_on_c,11,55,0
12,659669, Note_on_c,11,56,80
12,659669, Note_on_c,11,48,80
12,660343, Note_on_c,11,48,0
12,660343, Note_on_c,11,56,0
12,660349, Note_on_c,11,55,60
12,660349, Note_on_c,11,48,60
12,660649, Note_on_c,11,48,0
12,660649, Note_on_c,11,55,0
12,690578, Note_on_c,11,45,60
12,693290, Note_on_c,11,45,60
12,693290, Note_on_c,11,38,60
12,693296, Note_on_c,11,45,0
12,693838, Note_on_c,11,38,0
12,693838, Note_on_c,11,45,0
12,709384, Note_on_c,11,55,65
12,710138, Note_on_c,11,55,0
12,710144, Note_on_c,11,57,65
12,710878, Note_on_c,11,57,0
12,710880, Note_on_c,11,58,65
12,711236, Note_on_c,11,58,0
12,711236, Note_on_c,11,57,70
12,711600, Note_on_c,11,57,0
12,711600, Note_on_c,11,55,70
12,711960, Note_on_c,11,55,0
12,712348, Note_on_c,11,48,75
12,713062, Note_on_c,11,48,0
12,713068, Note_on_c,11,46,75
12,713802, Note_on_c,11,46,0
12,713812, Note_on_c,11,45,75
12,714224, Note_on_c,11,53,75
12,714580, Note_on_c,11,53,0
12,714580, Note_on_c,11,45,0
12,714580, Note_on_c,11,57,85
12,714580, Note_on_c,11,41,85
12,714940, Note_on_c,11,41,0
12,714940, Note_on_c,11,57,0
12,714940, Note_on_c,11,55,85
12,715300, Note_on_c,11,55,0
12,715304, Note_on_c,11,53,85
12,715304, Note_on_c,11,46,85
12,716038, Note_on_c,11,46,0
12,716052, Note_on_c,11,47,85
12,716786, Note_on_c,11,47,0
12,716804, Note_on_c,11,48,85
12,717180, Note_on_c,11,53,0
12,717224, Note_on_c,11,53,85
12,717572, Note_on_c,11,48,0
12,717580, Note_on_c,11,57,90
12,717580, Note_on_c,11,41,90
12,717584, Note_on_c,11,53,0
12,717940, Note_on_c,11,57,0
12,717948, Note_on_c,11,55,85
12,718308, Note_on_c,11,55,0
12,718314, Note_on_c,11,41,0
12,718320, Note_on_c,11,53,80
12,718320, Note_on_c,11,46,80
12,718680, Note_on_c,11,53,0
12,719034, Note_on_c,11,46,0
12,719040, Note_on_c,11,47,70
12,719774, Note_on_c,11,47,0
12,719776, Note_on_c,11,48,70
12,720476, Note_on_c,11,48,0
12,720480, Note_on_c,11,49,75
12,721194, Note_on_c,11,49,0
12,721200, Note_on_c,11,50,75
12,721874, Note_on_c,11,50,0
12,721900, Note_on_c,11,50,75
12,722594, Note_on_c,11,50,0
12,722600, Note_on_c,11,51,80
12,723264, Note_on_c,11,51,0
12,723272, Note_on_c,11,52,80
12,723926, Note_on_c,11,52,0
12,723932, Note_on_c,11,53,80
12,724606, Note_on_c,11,53,0
12,724612, Note_on_c,11,55,80
12,724960, Note_on_c,11,55,0
12,724960, Note_on_c,11,54,80
12,725340, Note_on_c,11,54,0
12,725340, Note_on_c,11,53,80
12,725984, Note_on_c,11,53,0
12,733264, Note_on_c,11,53,80
12,733264, Note_on_c,11,41,80
12,733868, Note_on_c,11,41,0
12,733868, Note_on_c,11,53,0
12,733880, Note_on_c,11,53,80
12,733880, Note_on_c,11,41,80
12,734484, Note_on_c,11,41,0
12,734484, Note_on_c,11,53,0
12,734516, Note_on_c,11,53,80
12,734516, Note_on_c,11,41,80
12,735120, Note_on_c,11,41,0
12,735120, Note_on_c,11,53,0
12,735144, Note_on_c,11,53,80
12,735144, Note_on_c,11,41,80
12,735748, Note_on_c,11,41,0
12,735748, Note_on_c,11,53,0
12,735772, Note_on_c,11,53,80
12,735772, Note_on_c,11,41,80
12,736366, Note_on_c,11,41,0
12,736366, Note_on_c,11,53,0
12,736380, Note_on_c,11,53,80
12,736380, Note_on_c,11,41,80
12,736984, Note_on_c,11,41,0
12,736984, Note_on_c,11,53,0
12,737004, Note_on_c,11,53,80
12,737004, Note_on_c,11,41,80
12,737608, Note_on_c,11,41,0
12,737608, Note_on_c,11,53,0
12,737628, Note_on_c,11,41,80
12,737628, Note_on_c,11,53,80
12,738232, Note_on_c,11,53,0
12,738232, Note_on_c,11,41,0
12,738316, Note_on_c,11,53,70
12,738316, Note_on_c,11,41,70
12,738586, Note_on_c,11,53,0
12,738608, Note_on_c,11,53,90
12,738646, Note_on_c,11,41,0
12,739192, Note_on_c,11,53,0
12,739200, Note_on_c,11,53,90
12,739280, Note_on_c,11,53,0
12,739295, Note_on_c,11,53,90
12,739375, Note_on_c,11,53,0
12,739390, Note_on_c,11,53,90
12,739470, Note_on_c,11,53,0
12,739484, Note_on_c,11,53,90
12,739734, Note_on_c,11,53,0
12,739764, Note_on_c,11,53,90
12,740308, Note_on_c,11,53,0
12,740344, Note_on_c,11,53,90
12,740424, Note_on_c,11,53,0
12,740436, Note_on_c,11,53,90
12,740516, Note_on_c,11,53,0
12,740528, Note_on_c,11,53,90
12,740608, Note_on_c,11,53,0
12,740620, Note_on_c,11,53,90
12,740870, Note_on_c,11,53,0
12,740904, Note_on_c,11,53,90
12,741448, Note_on_c,11,53,0
12,741452, Note_on_c,11,53,90
12,741532, Note_on_c,11,53,0
12,741543, Note_on_c,11,53,90
12,741623, Note_on_c,11,53,0
12,741634, Note_on_c,11,53,90
12,741714, Note_on_c,11,53,0
12,741724, Note_on_c,11,53,90
12,741974, Note_on_c,11,53,0
12,741988, Note_on_c,11,53,90
12,742532, Note_on_c,11,53,0
12,742540, Note_on_c,11,53,90
12,742620, Note_on_c,11,53,0
12,742633, Note_on_c,11,53,90
12,742713, Note_on_c,11,53,0
12,742726, Note_on_c,11,53,90
12,742806, Note_on_c,11,53,0
12,742820, Note_on_c,11,53,90
12,743070, Note_on_c,11,53,0
12,743100, Note_on_c,11,53,90
12,743180, Note_on_c,11,53,0
12,743180, Note_on_c,11,53,90
12,743260, Note_on_c,11,53,0
12,743280, Note_on_c,11,53,90
12,743360, Note_on_c,11,53,0
12,743384, Note_on_c,11,53,90
12,743634, Note_on_c,11,53,0
12,743648, Note_on_c,11,53,90
12,743708, Note_on_c,11,53,0
12,743720, Note_on_c,11,53,90
12,743780, Note_on_c,11,53,0
12,743792, Note_on_c,11,53,90
12,743862, Note_on_c,11,53,0
12,743916, Note_on_c,11,53,90
12,744166, Note_on_c,11,53,0
12,744184, Note_on_c,11,53,90
12,744254, Note_on_c,11,53,0
12,744264, Note_on_c,11,53,90
12,744334, Note_on_c,11,53,0
12,744352, Note_on_c,11,53,90
12,744422, Note_on_c,11,53,0
12,744460, Note_on_c,11,53,90
12,744710, Note_on_c,11,53,0
12,744728, Note_on_c,11,53,90
12,744798, Note_on_c,11,53,0
12,744804, Note_on_c,11,53,90
12,744874, Note_on_c,11,53,0
12,744892, Note_on_c,11,53,90
12,744962, Note_on_c,11,53,0
12,745000, Note_on_c,11,53,90
12,747140, Note_on_c,11,54,90
12,747170, Note_on_c,11,53,0
12,747265, Control_c,11,11,90
12,747432, Note_on_c,11,54,90
12,747432, Note_on_c,11,42,90
12,747440, Note_on_c,11,54,0
12,747632, Note_on_c,11,42,0
12,747632, Note_on_c,11,54,0
12,747712, Note_on_c,11,54,90
12,747712, Note_on_c,11,42,90
12,747912, Note_on_c,11,42,0
12,747912, Note_on_c,11,54,0
12,747982, Note_on_c,11,54,90
12,747982, Note_on_c,11,42,90
12,748182, Note_on_c,11,42,0
12,748182, Note_on_c,11,54,0
12,748262, Note_on_c,11,54,90
12,748262, Note_on_c,11,42,90
12,748462, Note_on_c,11,42,0
12,748462, Note_on_c,11,54,0
12,748542, Note_on_c,11,54,90
12,748542, Note_on_c,11,42,90
12,748742, Note_on_c,11,42,0
12,748742, Note_on_c,11,54,0
12,748822, Note_on_c,11,54,90
12,748822, Note_on_c,11,42,90
12,749022, Note_on_c,11,42,0
12,749022, Note_on_c,11,54,0
12,749102, Note_on_c,11,54,90
12,749102, Note_on_c,11,42,90
12,749302, Note_on_c,11,42,0
12,749302, Note_on_c,11,54,0
12,749382, Note_on_c,11,54,90
12,749382, Note_on_c,11,42,90
12,749682, Note_on_c,11,42,0
12,749682, Note_on_c,11,54,0
12,750534, Note_on_c,11,54,90
12,750534, Note_on_c,11,42,90
12,750834, Note_on_c,11,42,0
12,750834, Note_on_c,11,54,0
12,751588, Note_on_c,11,54,90
12,751588, Note_on_c,11,42,90
12,751788, Note_on_c,11,42,0
12,751788, Note_on_c,11,54,0
12,752132, Note_on_c,11,54,90
12,752132, Note_on_c,11,42,90
12,752332, Note_on_c,11,42,0
12,752332, Note_on_c,11,54,0
12,752715, Note_on_c,11,66,90
12,752715, Note_on_c,11,42,90
12,752915, Note_on_c,11,42,0
12,752915, Note_on_c,11,66,0
12,753244, Note_on_c,11,54,90
12,753244, Note_on_c,11,42,90
12,753444, Note_on_c,11,42,0
12,753444, Note_on_c,11,54,0
12,753852, Note_on_c,11,54,90
12,753852, Note_on_c,11,42,90
12,754152, Note_on_c,11,42,0
12,754152, Note_on_c,11,54,0
12,882817, Control_c,11,11,70
12,883009, Note_on_c,11,53,60
12,883009, Note_on_c,11,46,60
12,885513, Note_on_c,11,46,0
12,885513, Note_on_c,11,53,0
12,885573, Note_on_c,11,53,60
12,885573, Note_on_c,11,46,60
12,888077, Note_on_c,11,46,0
12,888077, Note_on_c,11,53,0
12,888161, Note_on_c,11,46,70
12,892625, Note_on_c,11,50,70
12,892935, Note_on_c,11,46,0
12,892961, Note_on_c,11,50,0
12,892961, Note_on_c,11,52,70
12,893289, Note_on_c,11,52,0
12,893289, Note_on_c,11,54,70
12,893589, Note_on_c,11,54,0
12,893625, Note_on_c,11,50,70
12,893977, Note_on_c,11,50,0
12,901717, Note_on_c,11,60,70
12,902041, Note_on_c,11,60,0
12,902041, Note_on_c,11,58,70
12,902381, Note_on_c,11,58,0
12,902381, Note_on_c,11,57,70
12,902711, Note_on_c,11,57,0
12,902713, Note_on_c,11,53,70
12,903053, Note_on_c,11,53,0
12,903053, Note_on_c,11,46,70
12,903393, Note_on_c,11,46,0
12,904463, Note_on_c,11,50,70
12,904803, Note_on_c,11,50,0
12,912717, Note_on_c,11,58,70
12,912717, Note_on_c,11,43,70
12,913371, Note_on_c,11,43,0
12,913371, Note_on_c,11,58,0
12,913377, Note_on_c,11,51,70
12,913377, Note_on_c,11,44,70
12,914021, Note_on_c,11,44,0
12,914021, Note_on_c,11,51,0
12,914037, Note_on_c,11,60,70
12,914037, Note_on_c,11,45,70
12,914691, Note_on_c,11,45,0
12,914691, Note_on_c,11,60,0
12,914705, Note_on_c,11,53,70
12,914705, Note_on_c,11,46,70
12,915354, Note_on_c,11,46,0
12,915354, Note_on_c,11,53,0
12,915377, Note_on_c,11,62,70
12,915377, Note_on_c,11,47,70
12,916001, Note_on_c,11,47,0
12,916001, Note_on_c,11,62,0
12,916021, Note_on_c,11,63,70
12,916021, Note_on_c,11,48,70
12,916645, Note_on_c,11,48,0
12,916645, Note_on_c,11,63,0
12,916673, Note_on_c,11,64,70
12,916673, Note_on_c,11,49,70
12,917307, Note_on_c,11,49,0
12,917307, Note_on_c,11,64,0
12,917341, Note_on_c,11,65,70
12,917341, Note_on_c,11,50,70
12,917975, Note_on_c,11,50,0
12,917975, Note_on_c,11,65,0
12,918001, Note_on_c,11,62,70
12,918001, Note_on_c,11,50,70
12,918655, Note_on_c,11,50,0
12,918655, Note_on_c,11,62,0
12,918689, Note_on_c,11,63,70
12,918689, Note_on_c,11,51,70
12,918989, Note_on_c,11,51,0
12,918989, Note_on_c,11,63,0
12,920717, Note_on_c,11,51,90
12,920717, Note_on_c,11,39,90
12,920987, Note_on_c,11,39,0
12,920987, Note_on_c,11,51,0
12,921137, Note_on_c,11,50,90
12,921137, Note_on_c,11,38,90
12,921407, Note_on_c,11,38,0
12,921407, Note_on_c,11,50,0
12,921557, Note_on_c,11,51,90
12,921557, Note_on_c,11,39,90
12,921827, Note_on_c,11,39,0
12,921827, Note_on_c,11,51,0
12,923541, Note_on_c,11,51,90
12,923541, Note_on_c,11,39,90
12,923811, Note_on_c,11,39,0
12,923811, Note_on_c,11,51,0
12,923907, Note_on_c,11,50,90
12,923907, Note_on_c,11,38,90
12,924177, Note_on_c,11,38,0
12,924177, Note_on_c,11,50,0
12,924273, Note_on_c,11,51,90
12,924273, Note_on_c,11,39,90
12,924543, Note_on_c,11,39,0
12,924543, Note_on_c,11,51,0
12,924969, Note_on_c,11,51,90
12,924969, Note_on_c,11,39,90
12,925239, Note_on_c,11,39,0
12,925239, Note_on_c,11,51,0
12,926349, Note_on_c,11,52,90
12,926349, Note_on_c,11,40,90
12,926619, Note_on_c,11,40,0
12,926619, Note_on_c,11,52,0
12,927725, Note_on_c,11,53,90
12,927725, Note_on_c,11,41,90
12,928045, Note_on_c,11,41,0
12,928045, Note_on_c,11,53,0
12,931925, Note_on_c,11,53,90
12,931925, Note_on_c,11,41,90
12,933307, Note_on_c,11,41,0
12,933307, Note_on_c,11,53,0
12,933309, Note_on_c,11,53,90
12,933309, Note_on_c,11,46,90
12,933579, Note_on_c,11,46,0
12,933579, Note_on_c,11,53,0
12,933697, Note_on_c,11,54,90
12,933697, Note_on_c,11,42,90
12,934331, Note_on_c,11,42,0
12,934331, Note_on_c,11,54,0
12,934373, Note_on_c,11,54,90
12,934373, Note_on_c,11,42,90
12,934643, Note_on_c,11,42,0
12,934643, Note_on_c,11,54,0
12,934741, Note_on_c,11,53,90
12,934741, Note_on_c,11,46,90
12,935011, Note_on_c,11,46,0
12,935011, Note_on_c,11,53,0
12,935417, Note_on_c,11,40,90
12,935417, Note_on_c,11,52,90
12,935687, Note_on_c,11,52,0
12,935687, Note_on_c,11,40,0
12,936141, Note_on_c,11,46,90
12,936411, Note_on_c,11,46,0
12,936513, Note_on_c,11,54,90
12,936513, Note_on_c,11,42,90
12,937147, Note_on_c,11,42,0
12,937147, Note_on_c,11,54,0
12,937213, Note_on_c,11,54,90
12,937213, Note_on_c,11,42,90
12,937483, Note_on_c,11,42,0
12,937483, Note_on_c,11,54,0
12,937577, Note_on_c,11,53,90
12,937577, Note_on_c,11,46,90
12,937847, Note_on_c,11,46,0
12,937847, Note_on_c,11,53,0
12,938277, Note_on_c,11,40,90
12,938277, Note_on_c,11,52,90
12,938547, Note_on_c,11,52,0
12,938547, Note_on_c,11,40,0
12,939009, Note_on_c,11,46,90
12,939279, Note_on_c,11,46,0
12,939728, Note_on_c,11,40,90
12,939728, Note_on_c,11,52,90
12,939998, Note_on_c,11,52,0
12,939998, Note_on_c,11,40,0
12,940457, Note_on_c,11,46,90
12,940727, Note_on_c,11,46,0
12,941164, Note_on_c,11,40,90
12,941164, Note_on_c,11,52,90
12,941434, Note_on_c,11,52,0
12,941434, Note_on_c,11,40,0
12,941901, Note_on_c,11,46,90
12,942171, Note_on_c,11,46,0
12,942269, Note_on_c,11,52,90
12,942269, Note_on_c,11,40,90
12,942469, Note_on_c,11,40,0
12,942469, Note_on_c,11,52,0
12,942637, Note_on_c,11,46,90
12,942837, Note_on_c,11,46,0
12,943005, Note_on_c,11,52,90
12,943005, Note_on_c,11,40,90
12,943205, Note_on_c,11,40,0
12,943205, Note_on_c,11,52,0
12,943373, Note_on_c,11,46,90
12,943573, Note_on_c,11,46,0
12,943741, Note_on_c,11,52,90
12,943741, Note_on_c,11,40,90
12,943941, Note_on_c,11,40,0
12,943941, Note_on_c,11,52,0
12,944109, Note_on_c,11,46,90
12,944309, Note_on_c,11,46,0
12,944477, Note_on_c,11,52,90
12,944477, Note_on_c,11,40,90
12,944677, Note_on_c,11,40,0
12,944677, Note_on_c,11,52,0
12,944845, Note_on_c,11,46,90
12,945045, Note_on_c,11,46,0
12,946209, Note_on_c,11,46,90
12,946459, Note_on_c,11,46,0
12,946873, Note_on_c,11,46,90
12,947123, Note_on_c,11,46,0
12,947529, Note_on_c,11,46,90
12,947779, Note_on_c,11,46,0
12,948825, Note_on_c,11,46,90
12,948825, Note_on_c,11,34,90
12,949075, Note_on_c,11,34,0
12,949075, Note_on_c,11,46,0
12,950161, Note_on_c,11,46,90
12,950161, Note_on_c,11,34,90
12,950411, Note_on_c,11,34,0
12,950411, Note_on_c,11,46,0
12,950809, Note_on_c,11,46,90
12,950809, Note_on_c,11,34,90
12,951059, Note_on_c,11,34,0
12,951059, Note_on_c,11,46,0
12,951501, Note_on_c,11,46,90
12,951501, Note_on_c,11,34,90
12,951751, Note_on_c,11,34,0
12,951751, Note_on_c,11,46,0
12,952177, Note_on_c,11,46,90
12,952177, Note_on_c,11,34,90
12,952427, Note_on_c,11,34,0
12,952427, Note_on_c,11,46,0
12,952877, Note_on_c,11,46,90
12,952877, Note_on_c,11,34,90
12,953127, Note_on_c,11,34,0
12,953127, Note_on_c,11,46,0
12,953249, Note_on_c,11,51,90
12,953249, Note_on_c,11,39,90
12,953499, Note_on_c,11,39,0
12,953499, Note_on_c,11,51,0
12,953673, Note_on_c,11,46,90
12,953673, Note_on_c,11,34,90
12,954023, Note_on_c,11,34,0
12,954023, Note_on_c,11,46,0
12,954549, Note_on_c,11,46,90
12,954549, Note_on_c,11,34,90
12,956085, Note_on_c,11,34,0
12,956085, Note_on_c,11,46,0
12,956460, Control_c,11,121,0
12,956460, End_track,,,
13,0, Start_track,,,
13,0, MIDI_port,0,,
13,0, Title_t," ""Trombone1""",,
13,0, Control_c,12,0,0
13,0, Control_c,12,32,0
13,0, Program_c,12,57,
13,0, Control_c,12,7,100
13,0, Control_c,12,10,110
13,3272, Control_c,12,11,80
13,3356, Control_c,12,11,127
13,3356, Note_on_c,12,65,80
13,3356, Note_on_c,12,61,80
13,3356, Note_on_c,12,56,80
13,3612, Note_on_c,12,56,0
13,3612, Note_on_c,12,61,0
13,3612, Note_on_c,12,65,0
13,4908, Note_on_c,12,61,80
13,4908, Note_on_c,12,65,80
13,4908, Note_on_c,12,55,80
13,5164, Note_on_c,12,55,0
13,5164, Note_on_c,12,65,0
13,5164, Note_on_c,12,61,0
13,6432, Note_on_c,12,63,80
13,6432, Note_on_c,12,60,80
13,6432, Note_on_c,12,54,80
13,6936, Note_on_c,12,54,0
13,6936, Note_on_c,12,60,0
13,6936, Note_on_c,12,63,0
13,6968, Note_on_c,12,61,80
13,6968, Note_on_c,12,56,80
13,6968, Note_on_c,12,53,80
13,7472, Note_on_c,12,53,0
13,7472, Note_on_c,12,56,0
13,7472, Note_on_c,12,61,0
13,7528, Note_on_c,12,58,80
13,7528, Note_on_c,12,52,80
13,7528, Note_on_c,12,61,80
13,8032, Note_on_c,12,61,0
13,8032, Note_on_c,12,52,0
13,8032, Note_on_c,12,58,0
13,8088, Note_on_c,12,58,80
13,8088, Note_on_c,12,61,80
13,8088, Note_on_c,12,51,80
13,8622, Note_on_c,12,51,0
13,8622, Note_on_c,12,61,0
13,8622, Note_on_c,12,58,0
13,8668, Note_on_c,12,60,80
13,8668, Note_on_c,12,56,80
13,8668, Note_on_c,12,44,80
13,9222, Note_on_c,12,44,0
13,9222, Note_on_c,12,56,0
13,9222, Note_on_c,12,60,0
13,9316, Note_on_c,12,61,80
13,9316, Note_on_c,12,53,80
13,9316, Note_on_c,12,49,80
13,9820, Note_on_c,12,49,0
13,9820, Note_on_c,12,53,0
13,9820, Note_on_c,12,61,0
13,55012, Control_c,12,11,70
13,55116, Note_on_c,12,50,80
13,55500, Note_on_c,12,50,0
13,55614, Note_on_c,12,51,80
13,55998, Note_on_c,12,51,0
13,56576, Note_on_c,12,52,80
13,56960, Note_on_c,12,52,0
13,57006, Note_on_c,12,53,80
13,57390, Note_on_c,12,53,0
13,58016, Note_on_c,12,53,80
13,58400, Note_on_c,12,53,0
13,58498, Note_on_c,12,54,80
13,58882, Note_on_c,12,54,0
13,59432, Note_on_c,12,55,80
13,59816, Note_on_c,12,55,0
13,59916, Note_on_c,12,56,80
13,60300, Note_on_c,12,56,0
13,107518, Note_on_c,12,65,80
13,107518, Note_on_c,12,56,80
13,107518, Note_on_c,12,49,80
13,107768, Note_on_c,12,49,0
13,107768, Note_on_c,12,56,0
13,107768, Note_on_c,12,65,0
13,109262, Note_on_c,12,65,80
13,109262, Note_on_c,12,56,80
13,109262, Note_on_c,12,49,80
13,109512, Note_on_c,12,49,0
13,109512, Note_on_c,12,56,0
13,109512, Note_on_c,12,65,0
13,111058, Note_on_c,12,63,80
13,111058, Note_on_c,12,58,80
13,111058, Note_on_c,12,49,80
13,111308, Note_on_c,12,49,0
13,111308, Note_on_c,12,58,0
13,111308, Note_on_c,12,63,0
13,112858, Note_on_c,12,63,80
13,112858, Note_on_c,12,58,80
13,112858, Note_on_c,12,49,80
13,113108, Note_on_c,12,49,0
13,113108, Note_on_c,12,58,0
13,113108, Note_on_c,12,63,0
13,114622, Note_on_c,12,63,80
13,114622, Note_on_c,12,49,80
13,114622, Note_on_c,12,56,80
13,114872, Note_on_c,12,56,0
13,114872, Note_on_c,12,49,0
13,114872, Note_on_c,12,63,0
13,116386, Note_on_c,12,56,80
13,116386, Note_on_c,12,49,80
13,116386, Note_on_c,12,63,80
13,116636, Note_on_c,12,63,0
13,116636, Note_on_c,12,49,0
13,116636, Note_on_c,12,56,0
13,118171, Note_on_c,12,65,80
13,118171, Note_on_c,12,56,80
13,118171, Note_on_c,12,49,80
13,118421, Note_on_c,12,49,0
13,118421, Note_on_c,12,56,0
13,118421, Note_on_c,12,65,0
13,119326, Note_on_c,12,61,80
13,119326, Note_on_c,12,56,80
13,119326, Note_on_c,12,53,80
13,119576, Note_on_c,12,53,0
13,119576, Note_on_c,12,56,0
13,119576, Note_on_c,12,61,0
13,119932, Note_on_c,12,63,80
13,119932, Note_on_c,12,60,80
13,119932, Note_on_c,12,56,80
13,120182, Note_on_c,12,56,0
13,120182, Note_on_c,12,60,0
13,120182, Note_on_c,12,63,0
13,121786, Note_on_c,12,49,80
13,121786, Note_on_c,12,56,80
13,121786, Note_on_c,12,65,80
13,122036, Note_on_c,12,65,0
13,122036, Note_on_c,12,56,0
13,122036, Note_on_c,12,49,0
13,123594, Note_on_c,12,56,80
13,123594, Note_on_c,12,53,80
13,123594, Note_on_c,12,61,80
13,123844, Note_on_c,12,61,0
13,123844, Note_on_c,12,53,0
13,123844, Note_on_c,12,56,0
13,125374, Note_on_c,12,54,80
13,125374, Note_on_c,12,58,80
13,125374, Note_on_c,12,63,80
13,125624, Note_on_c,12,63,0
13,125624, Note_on_c,12,58,0
13,125624, Note_on_c,12,54,0
13,127122, Note_on_c,12,54,80
13,127122, Note_on_c,12,58,80
13,127122, Note_on_c,12,63,80
13,127372, Note_on_c,12,63,0
13,127372, Note_on_c,12,58,0
13,127372, Note_on_c,12,54,0
13,128854, Note_on_c,12,53,80
13,128854, Note_on_c,12,57,80
13,128854, Note_on_c,12,63,80
13,129104, Note_on_c,12,63,0
13,129104, Note_on_c,12,57,0
13,129104, Note_on_c,12,53,0
13,129454, Note_on_c,12,46,80
13,129454, Note_on_c,12,56,80
13,129454, Note_on_c,12,62,80
13,129704, Note_on_c,12,62,0
13,129704, Note_on_c,12,56,0
13,129704, Note_on_c,12,46,0
13,130062, Note_on_c,12,51,80
13,130062, Note_on_c,12,55,80
13,130062, Note_on_c,12,61,80
13,130312, Note_on_c,12,61,0
13,130312, Note_on_c,12,55,0
13,130312, Note_on_c,12,51,0
13,130674, Note_on_c,12,44,80
13,130674, Note_on_c,12,54,80
13,130674, Note_on_c,12,60,80
13,130924, Note_on_c,12,60,0
13,130924, Note_on_c,12,54,0
13,130924, Note_on_c,12,44,0
13,131274, Note_on_c,12,53,80
13,131274, Note_on_c,12,49,80
13,131274, Note_on_c,12,61,80
13,131524, Note_on_c,12,61,0
13,131524, Note_on_c,12,49,0
13,131524, Note_on_c,12,53,0
13,131850, Note_on_c,12,43,80
13,131850, Note_on_c,12,58,80
13,131850, Note_on_c,12,61,80
13,132100, Note_on_c,12,61,0
13,132100, Note_on_c,12,58,0
13,132100, Note_on_c,12,43,0
13,132450, Note_on_c,12,56,80
13,132450, Note_on_c,12,61,80
13,132450, Note_on_c,12,44,80
13,132700, Note_on_c,12,44,0
13,132700, Note_on_c,12,61,0
13,132700, Note_on_c,12,56,0
13,134230, Note_on_c,12,55,80
13,134230, Note_on_c,12,58,80
13,134230, Note_on_c,12,39,80
13,134480, Note_on_c,12,39,0
13,134480, Note_on_c,12,58,0
13,134480, Note_on_c,12,55,0
13,163201, Control_c,12,11,40
13,163284, Note_on_c,12,56,60
13,163284, Note_on_c,12,53,60
13,163284, Note_on_c,12,48,60
13,166601, Note_on_c,12,48,0
13,166601, Note_on_c,12,53,0
13,166601, Note_on_c,12,56,0
13,166608, Note_on_c,12,53,60
13,166608, Note_on_c,12,48,60
13,166608, Note_on_c,12,55,60
13,168264, Note_on_c,12,55,0
13,168264, Note_on_c,12,53,0
13,168268, Note_on_c,12,55,60
13,168268, Note_on_c,12,52,60
13,169132, Note_on_c,12,48,0
13,169136, Note_on_c,12,52,0
13,169136, Note_on_c,12,55,0
13,177696, Note_on_c,12,41,60
13,177696, Note_on_c,12,53,60
13,177696, Note_on_c,12,57,60
13,181302, Note_on_c,12,57,0
13,181302, Note_on_c,12,53,0
13,181302, Note_on_c,12,41,0
13,181308, Note_on_c,12,53,60
13,181308, Note_on_c,12,41,60
13,181308, Note_on_c,12,57,60
13,184914, Note_on_c,12,57,0
13,184914, Note_on_c,12,41,0
13,184914, Note_on_c,12,53,0
13,184936, Note_on_c,12,41,60
13,184936, Note_on_c,12,53,60
13,184936, Note_on_c,12,57,60
13,188542, Note_on_c,12,57,0
13,188542, Note_on_c,12,53,0
13,188542, Note_on_c,12,41,0
13,199829, Note_on_c,12,57,70
13,199829, Note_on_c,12,53,70
13,199979, Note_on_c,12,53,0
13,199979, Note_on_c,12,57,0
13,204389, Note_on_c,12,56,70
13,204389, Note_on_c,12,60,70
13,204539, Note_on_c,12,60,0
13,204539, Note_on_c,12,56,0
13,206681, Note_on_c,12,48,70
13,206681, Note_on_c,12,60,70
13,206681, Note_on_c,12,64,70
13,206831, Note_on_c,12,64,0
13,206831, Note_on_c,12,60,0
13,206831, Note_on_c,12,48,0
13,380161, Control_c,12,11,100
13,380614, Note_on_c,12,53,100
13,380614, Note_on_c,12,59,100
13,380614, Note_on_c,12,62,100
13,380764, Note_on_c,12,62,0
13,380764, Note_on_c,12,59,0
13,380764, Note_on_c,12,53,0
13,383278, Note_on_c,12,57,100
13,383278, Note_on_c,12,51,100
13,383278, Note_on_c,12,63,100
13,383428, Note_on_c,12,63,0
13,383428, Note_on_c,12,51,0
13,383428, Note_on_c,12,57,0
13,385920, Note_on_c,12,56,100
13,385920, Note_on_c,12,50,100
13,385920, Note_on_c,12,59,100
13,386070, Note_on_c,12,59,0
13,386070, Note_on_c,12,50,0
13,386070, Note_on_c,12,56,0
13,386666, Note_on_c,12,49,100
13,386666, Note_on_c,12,56,100
13,386666, Note_on_c,12,59,100
13,386816, Note_on_c,12,59,0
13,386816, Note_on_c,12,56,0
13,386816, Note_on_c,12,49,0
13,387194, Note_on_c,12,56,100
13,387194, Note_on_c,12,48,100
13,387194, Note_on_c,12,60,100
13,387344, Note_on_c,12,60,0
13,387344, Note_on_c,12,48,0
13,387344, Note_on_c,12,56,0
13,387850, Note_on_c,12,47,100
13,387850, Note_on_c,12,56,100
13,387850, Note_on_c,12,62,100
13,387994, Note_on_c,12,46,100
13,388000, Note_on_c,12,62,0
13,388000, Note_on_c,12,47,0
13,388000, Note_on_c,12,56,0
13,388144, Note_on_c,12,46,0
13,388522, Note_on_c,12,62,100
13,388522, Note_on_c,12,45,100
13,388522, Note_on_c,12,60,100
13,388672, Note_on_c,12,60,0
13,388672, Note_on_c,12,45,0
13,388672, Note_on_c,12,62,0
13,388906, Note_on_c,12,44,100
13,389056, Note_on_c,12,44,0
13,389290, Note_on_c,12,43,100
13,389290, Note_on_c,12,63,100
13,389290, Note_on_c,12,60,100
13,389440, Note_on_c,12,60,0
13,389440, Note_on_c,12,63,0
13,389440, Note_on_c,12,43,0
13,442753, Control_c,12,11,80
13,445042, Control_c,12,11,81
13,447332, Control_c,12,11,82
13,449621, Control_c,12,11,83
13,451911, Control_c,12,11,84
13,454201, Control_c,12,11,85
13,456490, Control_c,12,11,86
13,458780, Control_c,12,11,87
13,461070, Control_c,12,11,88
13,463359, Control_c,12,11,89
13,465649, Control_c,12,11,90
13,467938, Control_c,12,11,91
13,470228, Control_c,12,11,92
13,472518, Control_c,12,11,93
13,474807, Control_c,12,11,94
13,477097, Control_c,12,11,95
13,478499, Note_on_c,12,53,80
13,479131, Note_on_c,12,53,0
13,479131, Note_on_c,12,51,80
13,479387, Control_c,12,11,96
13,479763, Note_on_c,12,51,0
13,479763, Note_on_c,12,50,80
13,480079, Note_on_c,12,50,0
13,480089, Note_on_c,12,48,80
13,480405, Note_on_c,12,48,0
13,480405, Note_on_c,12,47,80
13,480721, Note_on_c,12,47,0
13,481039, Note_on_c,12,53,80
13,481671, Note_on_c,12,53,0
13,481671, Note_on_c,12,51,80
13,481676, Control_c,12,11,97
13,482303, Note_on_c,12,51,0
13,482303, Note_on_c,12,50,80
13,482619, Note_on_c,12,50,0
13,482629, Note_on_c,12,48,80
13,482945, Note_on_c,12,48,0
13,482945, Note_on_c,12,47,80
13,483261, Note_on_c,12,47,0
13,483577, Note_on_c,12,46,80
13,483966, Control_c,12,11,98
13,484209, Note_on_c,12,46,0
13,484209, Note_on_c,12,44,80
13,484841, Note_on_c,12,44,0
13,484841, Note_on_c,12,43,80
13,485157, Note_on_c,12,43,0
13,485167, Note_on_c,12,41,80
13,485483, Note_on_c,12,41,0
13,485483, Note_on_c,12,40,80
13,485799, Note_on_c,12,40,0
13,486115, Note_on_c,12,46,80
13,486256, Control_c,12,11,99
13,486747, Note_on_c,12,46,0
13,486747, Note_on_c,12,44,80
13,487379, Note_on_c,12,44,0
13,487379, Note_on_c,12,43,80
13,487695, Note_on_c,12,43,0
13,487705, Note_on_c,12,41,80
13,488021, Note_on_c,12,41,0
13,488021, Note_on_c,12,40,80
13,488337, Note_on_c,12,40,0
13,488337, Note_on_c,12,56,80
13,488337, Note_on_c,12,60,80
13,488545, Control_c,12,11,100
13,488637, Note_on_c,12,60,0
13,488637, Note_on_c,12,56,0
13,488653, Note_on_c,12,56,80
13,488653, Note_on_c,12,60,80
13,488653, Note_on_c,12,53,80
13,488969, Note_on_c,12,53,0
13,488969, Note_on_c,12,60,0
13,488969, Note_on_c,12,56,0
13,488969, Note_on_c,12,56,80
13,488969, Note_on_c,12,60,80
13,488969, Note_on_c,12,48,80
13,489285, Note_on_c,12,48,0
13,489285, Note_on_c,12,60,0
13,489285, Note_on_c,12,56,0
13,489285, Note_on_c,12,56,80
13,489285, Note_on_c,12,60,80
13,489285, Note_on_c,12,53,80
13,489601, Note_on_c,12,53,0
13,489601, Note_on_c,12,60,0
13,489601, Note_on_c,12,56,0
13,489601, Note_on_c,12,56,80
13,489601, Note_on_c,12,60,80
13,489601, Note_on_c,12,48,80
13,489917, Note_on_c,12,48,0
13,489917, Note_on_c,12,60,0
13,489917, Note_on_c,12,56,0
13,489917, Note_on_c,12,60,80
13,489917, Note_on_c,12,56,80
13,490233, Note_on_c,12,56,0
13,490233, Note_on_c,12,60,0
13,490243, Note_on_c,12,56,80
13,490243, Note_on_c,12,60,80
13,490243, Note_on_c,12,53,80
13,490559, Note_on_c,12,53,0
13,490559, Note_on_c,12,60,0
13,490559, Note_on_c,12,56,0
13,490559, Note_on_c,12,53,80
13,490559, Note_on_c,12,59,80
13,490559, Note_on_c,12,50,80
13,490835, Control_c,12,11,101
13,490875, Note_on_c,12,50,0
13,490875, Note_on_c,12,59,0
13,490875, Note_on_c,12,53,0
13,491192, Note_on_c,12,56,80
13,491192, Note_on_c,12,60,80
13,491192, Note_on_c,12,48,80
13,491992, Note_on_c,12,48,0
13,491992, Note_on_c,12,60,0
13,491992, Note_on_c,12,56,0
13,492458, Note_on_c,12,56,80
13,492458, Note_on_c,12,62,80
13,492458, Note_on_c,12,47,80
13,493124, Control_c,12,11,102
13,493258, Note_on_c,12,47,0
13,493258, Note_on_c,12,62,0
13,493258, Note_on_c,12,56,0
13,493407, Note_on_c,12,56,80
13,493407, Note_on_c,12,60,80
13,493707, Note_on_c,12,60,0
13,493707, Note_on_c,12,56,0
13,493723, Note_on_c,12,60,80
13,493723, Note_on_c,12,53,80
13,493723, Note_on_c,12,56,80
13,494023, Note_on_c,12,56,0
13,494023, Note_on_c,12,53,0
13,494023, Note_on_c,12,60,0
13,494039, Note_on_c,12,48,80
13,494039, Note_on_c,12,60,80
13,494039, Note_on_c,12,56,80
13,494339, Note_on_c,12,56,0
13,494339, Note_on_c,12,60,0
13,494339, Note_on_c,12,48,0
13,494355, Note_on_c,12,53,80
13,494355, Note_on_c,12,60,80
13,494355, Note_on_c,12,56,80
13,494655, Note_on_c,12,56,0
13,494655, Note_on_c,12,60,0
13,494655, Note_on_c,12,53,0
13,494671, Note_on_c,12,48,80
13,494671, Note_on_c,12,60,80
13,494671, Note_on_c,12,56,80
13,494971, Note_on_c,12,56,0
13,494971, Note_on_c,12,60,0
13,494971, Note_on_c,12,48,0
13,494987, Note_on_c,12,60,80
13,494987, Note_on_c,12,56,80
13,495287, Note_on_c,12,56,0
13,495287, Note_on_c,12,60,0
13,495313, Note_on_c,12,53,80
13,495313, Note_on_c,12,60,80
13,495313, Note_on_c,12,56,80
13,495414, Control_c,12,11,103
13,495613, Note_on_c,12,56,0
13,495613, Note_on_c,12,60,0
13,495613, Note_on_c,12,53,0
13,495629, Note_on_c,12,50,80
13,495629, Note_on_c,12,59,80
13,495629, Note_on_c,12,56,80
13,495929, Note_on_c,12,56,0
13,495929, Note_on_c,12,59,0
13,495929, Note_on_c,12,50,0
13,496262, Note_on_c,12,56,90
13,496262, Note_on_c,12,48,90
13,496262, Note_on_c,12,60,90
13,497062, Note_on_c,12,60,0
13,497062, Note_on_c,12,48,0
13,497062, Note_on_c,12,56,0
13,497528, Note_on_c,12,62,90
13,497528, Note_on_c,12,56,90
13,497528, Note_on_c,12,47,90
13,497704, Control_c,12,11,104
13,498328, Note_on_c,12,47,0
13,498328, Note_on_c,12,56,0
13,498328, Note_on_c,12,62,0
13,498794, Note_on_c,12,46,90
13,498794, Note_on_c,12,56,90
13,498794, Note_on_c,12,62,90
13,499594, Note_on_c,12,62,0
13,499594, Note_on_c,12,56,0
13,499594, Note_on_c,12,46,0
13,499993, Control_c,12,11,105
13,501326, Note_on_c,12,53,90
13,501326, Note_on_c,12,45,90
13,501326, Note_on_c,12,62,90
13,502126, Note_on_c,12,62,0
13,502126, Note_on_c,12,45,0
13,502126, Note_on_c,12,53,0
13,502283, Control_c,12,11,106
13,503858, Note_on_c,12,53,90
13,503858, Note_on_c,12,45,90
13,503858, Note_on_c,12,62,90
13,504573, Control_c,12,11,107
13,504658, Note_on_c,12,62,0
13,504658, Note_on_c,12,45,0
13,504658, Note_on_c,12,53,0
13,506386, Note_on_c,12,62,90
13,506386, Note_on_c,12,53,90
13,506386, Note_on_c,12,44,90
13,506862, Control_c,12,11,108
13,507186, Note_on_c,12,44,0
13,507186, Note_on_c,12,53,0
13,507186, Note_on_c,12,62,0
13,509152, Control_c,12,11,109
13,511442, Control_c,12,11,110
13,511442, Note_on_c,12,63,90
13,511442, Note_on_c,12,43,90
13,511442, Note_on_c,12,58,90
13,511642, Note_on_c,12,58,0
13,511642, Note_on_c,12,43,0
13,511642, Note_on_c,12,63,0
13,587236, Control_c,12,11,120
13,587403, Note_on_c,12,59,120
13,587603, Note_on_c,12,59,0
13,587688, Note_on_c,12,47,120
13,587688, Note_on_c,12,61,120
13,587888, Note_on_c,12,61,0
13,587888, Note_on_c,12,47,0
13,587973, Note_on_c,12,62,120
13,588173, Note_on_c,12,62,0
13,588258, Note_on_c,12,59,120
13,588458, Note_on_c,12,59,0
13,588543, Note_on_c,12,61,120
13,588743, Note_on_c,12,61,0
13,588828, Note_on_c,12,47,120
13,588828, Note_on_c,12,62,120
13,589028, Note_on_c,12,62,0
13,589028, Note_on_c,12,47,0
13,589113, Note_on_c,12,63,120
13,589313, Note_on_c,12,63,0
13,589398, Note_on_c,12,59,120
13,589598, Note_on_c,12,59,0
13,589683, Note_on_c,12,59,120
13,589883, Note_on_c,12,59,0
13,589968, Note_on_c,12,47,120
13,589968, Note_on_c,12,61,120
13,590168, Note_on_c,12,61,0
13,590168, Note_on_c,12,47,0
13,590253, Note_on_c,12,62,120
13,590453, Note_on_c,12,62,0
13,590538, Note_on_c,12,59,120
13,590738, Note_on_c,12,59,0
13,590823, Note_on_c,12,61,120
13,591023, Note_on_c,12,61,0
13,591108, Note_on_c,12,47,120
13,591108, Note_on_c,12,62,120
13,591308, Note_on_c,12,62,0
13,591308, Note_on_c,12,47,0
13,591393, Note_on_c,12,63,120
13,591593, Note_on_c,12,63,0
13,591678, Note_on_c,12,59,120
13,591878, Note_on_c,12,59,0
13,592129, Control_c,12,11,60
13,592248, Note_on_c,12,47,60
13,592248, Note_on_c,12,57,60
13,592248, Note_on_c,12,45,60
13,593376, Note_on_c,12,45,0
13,593376, Note_on_c,12,57,0
13,593376, Note_on_c,12,47,0
13,593388, Note_on_c,12,56,60
13,593388, Note_on_c,12,48,60
13,593388, Note_on_c,12,44,60
13,594156, Note_on_c,12,44,0
13,594156, Note_on_c,12,48,0
13,594156, Note_on_c,12,56,0
13,597060, Note_on_c,12,59,60
13,597060, Note_on_c,12,47,60
13,597060, Note_on_c,12,49,60
13,598188, Note_on_c,12,49,0
13,598188, Note_on_c,12,47,0
13,598188, Note_on_c,12,59,0
13,598200, Note_on_c,12,50,60
13,598200, Note_on_c,12,46,60
13,598200, Note_on_c,12,58,60
13,598968, Note_on_c,12,58,0
13,598968, Note_on_c,12,46,0
13,598968, Note_on_c,12,50,0
13,601872, Note_on_c,12,49,60
13,601872, Note_on_c,12,53,60
13,601872, Note_on_c,12,59,60
13,602442, Note_on_c,12,59,0
13,602442, Note_on_c,12,53,0
13,602442, Note_on_c,12,49,0
13,602442, Note_on_c,12,60,60
13,602442, Note_on_c,12,55,60
13,602442, Note_on_c,12,48,60
13,602642, Note_on_c,12,48,0
13,602642, Note_on_c,12,55,0
13,602642, Note_on_c,12,60,0
13,604280, Note_on_c,12,51,60
13,604280, Note_on_c,12,55,60
13,604280, Note_on_c,12,61,60
13,604850, Note_on_c,12,61,0
13,604850, Note_on_c,12,55,0
13,604850, Note_on_c,12,51,0
13,604850, Note_on_c,12,62,60
13,604850, Note_on_c,12,54,60
13,604850, Note_on_c,12,50,60
13,605050, Note_on_c,12,50,0
13,605050, Note_on_c,12,54,0
13,605050, Note_on_c,12,62,0
13,618036, Note_on_c,12,61,100
13,618036, Note_on_c,12,42,100
13,618036, Note_on_c,12,64,100
13,618216, Note_on_c,12,64,0
13,618216, Note_on_c,12,42,0
13,618216, Note_on_c,12,61,0
13,619688, Note_on_c,12,61,100
13,619688, Note_on_c,12,41,100
13,619688, Note_on_c,12,65,100
13,619868, Note_on_c,12,65,0
13,619868, Note_on_c,12,41,0
13,619868, Note_on_c,12,61,0
13,747265, Control_c,12,11,80
13,749382, Note_on_c,12,42,90
13,749382, Note_on_c,12,58,90
13,749382, Note_on_c,12,61,90
13,749682, Note_on_c,12,61,0
13,749682, Note_on_c,12,58,0
13,749682, Note_on_c,12,42,0
13,750534, Note_on_c,12,42,90
13,750534, Note_on_c,12,61,90
13,750534, Note_on_c,12,58,90
13,750834, Note_on_c,12,58,0
13,750834, Note_on_c,12,61,0
13,750834, Note_on_c,12,42,0
13,751588, Note_on_c,12,42,90
13,751588, Note_on_c,12,61,90
13,751588, Note_on_c,12,58,90
13,751788, Note_on_c,12,58,0
13,751788, Note_on_c,12,61,0
13,751788, Note_on_c,12,42,0
13,752132, Note_on_c,12,42,90
13,752132, Note_on_c,12,61,90
13,752132, Note_on_c,12,58,90
13,752332, Note_on_c,12,58,0
13,752332, Note_on_c,12,61,0
13,752332, Note_on_c,12,42,0
13,752715, Note_on_c,12,42,90
13,752715, Note_on_c,12,61,90
13,752715, Note_on_c,12,58,90
13,752915, Note_on_c,12,58,0
13,752915, Note_on_c,12,61,0
13,752915, Note_on_c,12,42,0
13,753244, Note_on_c,12,42,90
13,753244, Note_on_c,12,61,90
13,753244, Note_on_c,12,58,90
13,753444, Note_on_c,12,58,0
13,753444, Note_on_c,12,61,0
13,753444, Note_on_c,12,42,0
13,753852, Note_on_c,12,42,90
13,753852, Note_on_c,12,61,90
13,753852, Note_on_c,12,58,90
13,754152, Note_on_c,12,58,0
13,754152, Note_on_c,12,61,0
13,754152, Note_on_c,12,42,0
13,920449, Control_c,12,11,70
13,920717, Note_on_c,12,63,90
13,920717, Note_on_c,12,54,90
13,920717, Note_on_c,12,51,90
13,920987, Note_on_c,12,51,0
13,920987, Note_on_c,12,54,0
13,920987, Note_on_c,12,63,0
13,921137, Note_on_c,12,65,90
13,921137, Note_on_c,12,53,90
13,921137, Note_on_c,12,50,90
13,921407, Note_on_c,12,50,0
13,921407, Note_on_c,12,53,0
13,921407, Note_on_c,12,65,0
13,921557, Note_on_c,12,63,90
13,921557, Note_on_c,12,54,90
13,921557, Note_on_c,12,51,90
13,921827, Note_on_c,12,51,0
13,921827, Note_on_c,12,54,0
13,921827, Note_on_c,12,63,0
13,923541, Note_on_c,12,63,90
13,923541, Note_on_c,12,54,90
13,923541, Note_on_c,12,51,90
13,923811, Note_on_c,12,51,0
13,923811, Note_on_c,12,54,0
13,923811, Note_on_c,12,63,0
13,923907, Note_on_c,12,65,90
13,923907, Note_on_c,12,53,90
13,923907, Note_on_c,12,50,90
13,924177, Note_on_c,12,50,0
13,924177, Note_on_c,12,53,0
13,924177, Note_on_c,12,65,0
13,924273, Note_on_c,12,63,90
13,924273, Note_on_c,12,54,90
13,924273, Note_on_c,12,51,90
13,924543, Note_on_c,12,51,0
13,924543, Note_on_c,12,54,0
13,924543, Note_on_c,12,63,0
13,924969, Note_on_c,12,63,90
13,924969, Note_on_c,12,54,90
13,924969, Note_on_c,12,51,90
13,925239, Note_on_c,12,51,0
13,925239, Note_on_c,12,54,0
13,925239, Note_on_c,12,63,0
13,926349, Note_on_c,12,61,90
13,926349, Note_on_c,12,58,90
13,926349, Note_on_c,12,52,90
13,926619, Note_on_c,12,52,0
13,926619, Note_on_c,12,58,0
13,926619, Note_on_c,12,61,0
13,927725, Note_on_c,12,62,90
13,927725, Note_on_c,12,58,90
13,927725, Note_on_c,12,41,90
13,928045, Note_on_c,12,41,0
13,928045, Note_on_c,12,58,0
13,928045, Note_on_c,12,62,0
13,935417, Note_on_c,12,40,90
13,935417, Note_on_c,12,61,90
13,935417, Note_on_c,12,58,90
13,935687, Note_on_c,12,58,0
13,935687, Note_on_c,12,61,0
13,935687, Note_on_c,12,40,0
13,936141, Note_on_c,12,62,90
13,936141, Note_on_c,12,58,90
13,936141, Note_on_c,12,46,90
13,936411, Note_on_c,12,46,0
13,936411, Note_on_c,12,58,0
13,936411, Note_on_c,12,62,0
13,938277, Note_on_c,12,40,90
13,938277, Note_on_c,12,58,90
13,938277, Note_on_c,12,61,90
13,938547, Note_on_c,12,61,0
13,938547, Note_on_c,12,58,0
13,938547, Note_on_c,12,40,0
13,939009, Note_on_c,12,62,90
13,939009, Note_on_c,12,58,90
13,939009, Note_on_c,12,46,90
13,939279, Note_on_c,12,46,0
13,939279, Note_on_c,12,58,0
13,939279, Note_on_c,12,62,0
13,939728, Note_on_c,12,40,90
13,939728, Note_on_c,12,58,90
13,939728, Note_on_c,12,61,90
13,939998, Note_on_c,12,61,0
13,939998, Note_on_c,12,58,0
13,939998, Note_on_c,12,40,0
13,940457, Note_on_c,12,62,90
13,940457, Note_on_c,12,58,90
13,940457, Note_on_c,12,46,90
13,940727, Note_on_c,12,46,0
13,940727, Note_on_c,12,58,0
13,940727, Note_on_c,12,62,0
13,941164, Note_on_c,12,40,90
13,941164, Note_on_c,12,58,90
13,941164, Note_on_c,12,61,90
13,941434, Note_on_c,12,61,0
13,941434, Note_on_c,12,58,0
13,941434, Note_on_c,12,40,0
13,941901, Note_on_c,12,62,90
13,941901, Note_on_c,12,58,90
13,941901, Note_on_c,12,46,90
13,942171, Note_on_c,12,46,0
13,942171, Note_on_c,12,58,0
13,942171, Note_on_c,12,62,0
13,942269, Note_on_c,12,61,90
13,942269, Note_on_c,12,58,90
13,942269, Note_on_c,12,40,90
13,942469, Note_on_c,12,40,0
13,942469, Note_on_c,12,58,0
13,942469, Note_on_c,12,61,0
13,942637, Note_on_c,12,62,90
13,942637, Note_on_c,12,58,90
13,942637, Note_on_c,12,46,90
13,942837, Note_on_c,12,46,0
13,942837, Note_on_c,12,58,0
13,942837, Note_on_c,12,62,0
13,943005, Note_on_c,12,61,90
13,943005, Note_on_c,12,58,90
13,943005, Note_on_c,12,40,90
13,943205, Note_on_c,12,40,0
13,943205, Note_on_c,12,58,0
13,943205, Note_on_c,12,61,0
13,943373, Note_on_c,12,62,90
13,943373, Note_on_c,12,58,90
13,943373, Note_on_c,12,46,90
13,943573, Note_on_c,12,46,0
13,943573, Note_on_c,12,58,0
13,943573, Note_on_c,12,62,0
13,943741, Note_on_c,12,61,90
13,943741, Note_on_c,12,58,90
13,943741, Note_on_c,12,40,90
13,943941, Note_on_c,12,40,0
13,943941, Note_on_c,12,58,0
13,943941, Note_on_c,12,61,0
13,944109, Note_on_c,12,62,90
13,944109, Note_on_c,12,58,90
13,944109, Note_on_c,12,46,90
13,944309, Note_on_c,12,46,0
13,944309, Note_on_c,12,58,0
13,944309, Note_on_c,12,62,0
13,944477, Note_on_c,12,61,90
13,944477, Note_on_c,12,58,90
13,944477, Note_on_c,12,40,90
13,944677, Note_on_c,12,40,0
13,944677, Note_on_c,12,58,0
13,944677, Note_on_c,12,61,0
13,944845, Note_on_c,12,62,90
13,944845, Note_on_c,12,58,90
13,944845, Note_on_c,12,46,90
13,945045, Note_on_c,12,46,0
13,945045, Note_on_c,12,58,0
13,945045, Note_on_c,12,62,0
13,946209, Note_on_c,12,62,90
13,946209, Note_on_c,12,58,90
13,946209, Note_on_c,12,46,90
13,946459, Note_on_c,12,46,0
13,946459, Note_on_c,12,58,0
13,946459, Note_on_c,12,62,0
13,946873, Note_on_c,12,62,90
13,946873, Note_on_c,12,58,90
13,946873, Note_on_c,12,46,90
13,947123, Note_on_c,12,46,0
13,947123, Note_on_c,12,58,0
13,947123, Note_on_c,12,62,0
13,947529, Note_on_c,12,62,90
13,947529, Note_on_c,12,58,90
13,947529, Note_on_c,12,46,90
13,947779, Note_on_c,12,46,0
13,947779, Note_on_c,12,58,0
13,947779, Note_on_c,12,62,0
13,948825, Note_on_c,12,62,90
13,948825, Note_on_c,12,58,90
13,948825, Note_on_c,12,46,90
13,949075, Note_on_c,12,46,0
13,949075, Note_on_c,12,58,0
13,949075, Note_on_c,12,62,0
13,950161, Note_on_c,12,62,90
13,950161, Note_on_c,12,58,90
13,950161, Note_on_c,12,46,90
13,950411, Note_on_c,12,46,0
13,950411, Note_on_c,12,58,0
13,950411, Note_on_c,12,62,0
13,950809, Note_on_c,12,62,90
13,950809, Note_on_c,12,58,90
13,950809, Note_on_c,12,46,90
13,951059, Note_on_c,12,46,0
13,951059, Note_on_c,12,58,0
13,951059, Note_on_c,12,62,0
13,951501, Note_on_c,12,62,90
13,951501, Note_on_c,12,58,90
13,951501, Note_on_c,12,46,90
13,951751, Note_on_c,12,46,0
13,951751, Note_on_c,12,58,0
13,951751, Note_on_c,12,62,0
13,952177, Note_on_c,12,62,90
13,952177, Note_on_c,12,58,90
13,952177, Note_on_c,12,46,90
13,952427, Note_on_c,12,46,0
13,952427, Note_on_c,12,58,0
13,952427, Note_on_c,12,62,0
13,952877, Note_on_c,12,62,90
13,952877, Note_on_c,12,58,90
13,952877, Note_on_c,12,46,90
13,953127, Note_on_c,12,46,0
13,953127, Note_on_c,12,58,0
13,953127, Note_on_c,12,62,0
13,953249, Note_on_c,12,63,90
13,953249, Note_on_c,12,58,90
13,953249, Note_on_c,12,55,90
13,953499, Note_on_c,12,55,0
13,953499, Note_on_c,12,58,0
13,953499, Note_on_c,12,63,0
13,953673, Note_on_c,12,62,90
13,953673, Note_on_c,12,58,90
13,953673, Note_on_c,12,46,90
13,954023, Note_on_c,12,46,0
13,954023, Note_on_c,12,58,0
13,954023, Note_on_c,12,62,0
13,954549, Note_on_c,12,46,90
13,956085, Note_on_c,12,46,0
13,956460, Control_c,12,121,0
13,956460, End_track,,,
14,0, Start_track,,,
14,0, MIDI_port,0,,
14,0, Title_t," ""Timpani""",,
14,0, Control_c,13,0,0
14,0, Control_c,13,32,0
14,0, Program_c,13,47,
14,0, Control_c,13,7,100
14,0, Control_c,13,10,50
14,3356, Control_c,13,11,127
14,3356, Note_on_c,13,44,80
14,3406, Note_on_c,13,44,0
14,4908, Note_on_c,13,49,80
14,4958, Note_on_c,13,49,0
14,6432, Note_on_c,13,49,80
14,6482, Note_on_c,13,49,0
14,6968, Note_on_c,13,44,80
14,7018, Note_on_c,13,44,0
14,7528, Note_on_c,13,49,80
14,7578, Note_on_c,13,49,0
14,8088, Note_on_c,13,49,80
14,8138, Note_on_c,13,49,0
14,8668, Note_on_c,13,44,80
14,8718, Note_on_c,13,44,0
14,9316, Note_on_c,13,49,80
14,9366, Note_on_c,13,49,0
14,107436, Control_c,13,11,90
14,107518, Note_on_c,13,49,100
14,107568, Note_on_c,13,49,0
14,107590, Note_on_c,13,49,80
14,107640, Note_on_c,13,49,0
14,107662, Note_on_c,13,49,80
14,107712, Note_on_c,13,49,0
14,107734, Note_on_c,13,49,80
14,107784, Note_on_c,13,49,0
14,107806, Note_on_c,13,49,80
14,107856, Note_on_c,13,49,0
14,107878, Note_on_c,13,49,80
14,107928, Note_on_c,13,49,0
14,107950, Note_on_c,13,49,80
14,108000, Note_on_c,13,49,0
14,108022, Note_on_c,13,49,80
14,108072, Note_on_c,13,49,0
14,108094, Note_on_c,13,49,80
14,108144, Note_on_c,13,49,0
14,109262, Note_on_c,13,49,100
14,109312, Note_on_c,13,49,0
14,109334, Note_on_c,13,49,80
14,109384, Note_on_c,13,49,0
14,109406, Note_on_c,13,49,80
14,109456, Note_on_c,13,49,0
14,109478, Note_on_c,13,49,80
14,109528, Note_on_c,13,49,0
14,109550, Note_on_c,13,49,80
14,109600, Note_on_c,13,49,0
14,109622, Note_on_c,13,49,80
14,109672, Note_on_c,13,49,0
14,109694, Note_on_c,13,49,80
14,109744, Note_on_c,13,49,0
14,109766, Note_on_c,13,49,80
14,109816, Note_on_c,13,49,0
14,109838, Note_on_c,13,49,80
14,109888, Note_on_c,13,49,0
14,111058, Note_on_c,13,49,80
14,111108, Note_on_c,13,49,0
14,111130, Note_on_c,13,49,80
14,111180, Note_on_c,13,49,0
14,111202, Note_on_c,13,49,80
14,111252, Note_on_c,13,49,0
14,111274, Note_on_c,13,49,80
14,111324, Note_on_c,13,49,0
14,111346, Note_on_c,13,49,80
14,111396, Note_on_c,13,49,0
14,111418, Note_on_c,13,49,80
14,111468, Note_on_c,13,49,0
14,111490, Note_on_c,13,49,80
14,111540, Note_on_c,13,49,0
14,111562, Note_on_c,13,49,80
14,111612, Note_on_c,13,49,0
14,111634, Note_on_c,13,49,80
14,111684, Note_on_c,13,49,0
14,112858, Note_on_c,13,49,80
14,112908, Note_on_c,13,49,0
14,112930, Note_on_c,13,49,80
14,112980, Note_on_c,13,49,0
14,113002, Note_on_c,13,49,80
14,113052, Note_on_c,13,49,0
14,113074, Note_on_c,13,49,80
14,113124, Note_on_c,13,49,0
14,113146, Note_on_c,13,49,80
14,113196, Note_on_c,13,49,0
14,113218, Note_on_c,13,49,80
14,113268, Note_on_c,13,49,0
14,113290, Note_on_c,13,49,80
14,113340, Note_on_c,13,49,0
14,113362, Note_on_c,13,49,80
14,113412, Note_on_c,13,49,0
14,113434, Note_on_c,13,49,80
14,113484, Note_on_c,13,49,0
14,114622, Note_on_c,13,49,80
14,114672, Note_on_c,13,49,0
14,114694, Note_on_c,13,49,80
14,114744, Note_on_c,13,49,0
14,114766, Note_on_c,13,49,80
14,114816, Note_on_c,13,49,0
14,114838, Note_on_c,13,49,80
14,114888, Note_on_c,13,49,0
14,114910, Note_on_c,13,49,80
14,114960, Note_on_c,13,49,0
14,114982, Note_on_c,13,49,80
14,115032, Note_on_c,13,49,0
14,115054, Note_on_c,13,49,80
14,115104, Note_on_c,13,49,0
14,115126, Note_on_c,13,49,80
14,115176, Note_on_c,13,49,0
14,115198, Note_on_c,13,49,80
14,115248, Note_on_c,13,49,0
14,116386, Note_on_c,13,49,80
14,116436, Note_on_c,13,49,0
14,116458, Note_on_c,13,49,80
14,116508, Note_on_c,13,49,0
14,116530, Note_on_c,13,49,80
14,116580, Note_on_c,13,49,0
14,116602, Note_on_c,13,49,80
14,116652, Note_on_c,13,49,0
14,116674, Note_on_c,13,49,80
14,116724, Note_on_c,13,49,0
14,116746, Note_on_c,13,49,80
14,116796, Note_on_c,13,49,0
14,116818, Note_on_c,13,49,80
14,116868, Note_on_c,13,49,0
14,116890, Note_on_c,13,49,80
14,116940, Note_on_c,13,49,0
14,116962, Note_on_c,13,49,80
14,117012, Note_on_c,13,49,0
14,118174, Note_on_c,13,49,80
14,118224, Note_on_c,13,49,0
14,118246, Note_on_c,13,49,80
14,118296, Note_on_c,13,49,0
14,118318, Note_on_c,13,49,80
14,118368, Note_on_c,13,49,0
14,118390, Note_on_c,13,49,80
14,118440, Note_on_c,13,49,0
14,118462, Note_on_c,13,49,80
14,118512, Note_on_c,13,49,0
14,118534, Note_on_c,13,49,80
14,118584, Note_on_c,13,49,0
14,118606, Note_on_c,13,49,80
14,118656, Note_on_c,13,49,0
14,118678, Note_on_c,13,49,80
14,118728, Note_on_c,13,49,0
14,118750, Note_on_c,13,49,80
14,118800, Note_on_c,13,49,0
14,119932, Control_c,13,11,90
14,119935, Note_on_c,13,44,80
14,119985, Note_on_c,13,44,0
14,120006, Control_c,13,11,91
14,120012, Note_on_c,13,44,80
14,120062, Note_on_c,13,44,0
14,120080, Control_c,13,11,92
14,120089, Note_on_c,13,44,80
14,120139, Note_on_c,13,44,0
14,120154, Control_c,13,11,93
14,120166, Note_on_c,13,44,80
14,120216, Note_on_c,13,44,0
14,120228, Control_c,13,11,94
14,120243, Note_on_c,13,44,80
14,120293, Note_on_c,13,44,0
14,120302, Control_c,13,11,95
14,120320, Note_on_c,13,44,80
14,120370, Note_on_c,13,44,0
14,120376, Control_c,13,11,96
14,120397, Note_on_c,13,44,80
14,120447, Note_on_c,13,44,0
14,120451, Control_c,13,11,97
14,120474, Note_on_c,13,44,80
14,120524, Note_on_c,13,44,0
14,120525, Control_c,13,11,98
14,120551, Note_on_c,13,44,80
14,120599, Control_c,13,11,99
14,120601, Note_on_c,13,44,0
14,120628, Note_on_c,13,44,80
14,120673, Control_c,13,11,100
14,120678, Note_on_c,13,44,0
14,120705, Note_on_c,13,44,80
14,120747, Control_c,13,11,101
14,120755, Note_on_c,13,44,0
14,120782, Note_on_c,13,44,80
14,120821, Control_c,13,11,102
14,120832, Note_on_c,13,44,0
14,120859, Note_on_c,13,44,80
14,120896, Control_c,13,11,103
14,120909, Note_on_c,13,44,0
14,120936, Note_on_c,13,44,80
14,120970, Control_c,13,11,104
14,120986, Note_on_c,13,44,0
14,121013, Note_on_c,13,44,80
14,121044, Control_c,13,11,105
14,121063, Note_on_c,13,44,0
14,121090, Note_on_c,13,44,80
14,121118, Control_c,13,11,106
14,121140, Note_on_c,13,44,0
14,121167, Note_on_c,13,44,80
14,121192, Control_c,13,11,107
14,121217, Note_on_c,13,44,0
14,121244, Note_on_c,13,44,80
14,121266, Control_c,13,11,108
14,121294, Note_on_c,13,44,0
14,121321, Note_on_c,13,44,80
14,121341, Control_c,13,11,109
14,121371, Note_on_c,13,44,0
14,121398, Note_on_c,13,44,80
14,121415, Control_c,13,11,110
14,121448, Note_on_c,13,44,0
14,121475, Note_on_c,13,44,80
14,121489, Control_c,13,11,111
14,121525, Note_on_c,13,44,0
14,121552, Note_on_c,13,44,80
14,121563, Control_c,13,11,112
14,121602, Note_on_c,13,44,0
14,121629, Note_on_c,13,44,80
14,121637, Control_c,13,11,113
14,121679, Note_on_c,13,44,0
14,121706, Note_on_c,13,44,80
14,121711, Control_c,13,11,114
14,121756, Note_on_c,13,44,0
14,121786, Control_c,13,11,115
14,121786, Note_on_c,13,44,80
14,121809, Control_c,13,11,114
14,121833, Control_c,13,11,113
14,121836, Note_on_c,13,44,0
14,121856, Control_c,13,11,112
14,121858, Note_on_c,13,49,80
14,121880, Control_c,13,11,111
14,121903, Control_c,13,11,110
14,121908, Note_on_c,13,49,0
14,121927, Control_c,13,11,109
14,121930, Note_on_c,13,49,80
14,121950, Control_c,13,11,108
14,121974, Control_c,13,11,107
14,121980, Note_on_c,13,49,0
14,121997, Control_c,13,11,106
14,122002, Note_on_c,13,49,80
14,122021, Control_c,13,11,105
14,122044, Control_c,13,11,104
14,122052, Note_on_c,13,49,0
14,122068, Control_c,13,11,103
14,122074, Note_on_c,13,49,80
14,122091, Control_c,13,11,102
14,122115, Control_c,13,11,101
14,122124, Note_on_c,13,49,0
14,122138, Control_c,13,11,100
14,122146, Note_on_c,13,49,80
14,122162, Control_c,13,11,99
14,122185, Control_c,13,11,98
14,122196, Note_on_c,13,49,0
14,122209, Control_c,13,11,97
14,122218, Note_on_c,13,49,80
14,122232, Control_c,13,11,96
14,122256, Control_c,13,11,95
14,122268, Note_on_c,13,49,0
14,122279, Control_c,13,11,94
14,122290, Note_on_c,13,49,80
14,122303, Control_c,13,11,93
14,122326, Control_c,13,11,92
14,122340, Note_on_c,13,49,0
14,122350, Control_c,13,11,91
14,122362, Note_on_c,13,49,80
14,122374, Control_c,13,11,90
14,122412, Note_on_c,13,49,0
14,123594, Note_on_c,13,49,80
14,123644, Note_on_c,13,49,0
14,123666, Note_on_c,13,49,80
14,123716, Note_on_c,13,49,0
14,123738, Note_on_c,13,49,80
14,123788, Note_on_c,13,49,0
14,123810, Note_on_c,13,49,80
14,123860, Note_on_c,13,49,0
14,123882, Note_on_c,13,49,80
14,123932, Note_on_c,13,49,0
14,123954, Note_on_c,13,49,80
14,124004, Note_on_c,13,49,0
14,124026, Note_on_c,13,49,80
14,124076, Note_on_c,13,49,0
14,124098, Note_on_c,13,49,80
14,124148, Note_on_c,13,49,0
14,124170, Note_on_c,13,49,80
14,124220, Note_on_c,13,49,0
14,125374, Note_on_c,13,49,80
14,125424, Note_on_c,13,49,0
14,125446, Note_on_c,13,49,80
14,125496, Note_on_c,13,49,0
14,125518, Note_on_c,13,49,80
14,125568, Note_on_c,13,49,0
14,125590, Note_on_c,13,49,80
14,125640, Note_on_c,13,49,0
14,125662, Note_on_c,13,49,80
14,125712, Note_on_c,13,49,0
14,125734, Note_on_c,13,49,80
14,125784, Note_on_c,13,49,0
14,125806, Note_on_c,13,49,80
14,125856, Note_on_c,13,49,0
14,125878, Note_on_c,13,49,80
14,125928, Note_on_c,13,49,0
14,125950, Note_on_c,13,49,80
14,126000, Note_on_c,13,49,0
14,127122, Note_on_c,13,51,80
14,127172, Note_on_c,13,51,0
14,127194, Note_on_c,13,51,80
14,127244, Note_on_c,13,51,0
14,127266, Note_on_c,13,51,80
14,127316, Note_on_c,13,51,0
14,127338, Note_on_c,13,51,80
14,127388, Note_on_c,13,51,0
14,127410, Note_on_c,13,51,80
14,127460, Note_on_c,13,51,0
14,127482, Note_on_c,13,51,80
14,127532, Note_on_c,13,51,0
14,127554, Note_on_c,13,51,80
14,127604, Note_on_c,13,51,0
14,127626, Note_on_c,13,51,80
14,127676, Note_on_c,13,51,0
14,127698, Note_on_c,13,51,80
14,127748, Note_on_c,13,51,0
14,132396, Control_c,13,11,80
14,132450, Note_on_c,13,44,80
14,132500, Note_on_c,13,44,0
14,132524, Note_on_c,13,44,80
14,132574, Note_on_c,13,44,0
14,132598, Note_on_c,13,44,80
14,132648, Note_on_c,13,44,0
14,132672, Note_on_c,13,44,80
14,132722, Note_on_c,13,44,0
14,132746, Note_on_c,13,44,80
14,132796, Note_on_c,13,44,0
14,132820, Note_on_c,13,44,80
14,132870, Note_on_c,13,44,0
14,132894, Note_on_c,13,44,80
14,132944, Note_on_c,13,44,0
14,132968, Note_on_c,13,44,80
14,133018, Note_on_c,13,44,0
14,133042, Note_on_c,13,44,80
14,133092, Note_on_c,13,44,0
14,133116, Note_on_c,13,44,80
14,133166, Note_on_c,13,44,0
14,133190, Note_on_c,13,44,80
14,133240, Note_on_c,13,44,0
14,133264, Note_on_c,13,44,80
14,133314, Note_on_c,13,44,0
14,133338, Note_on_c,13,44,80
14,133388, Note_on_c,13,44,0
14,133412, Note_on_c,13,44,80
14,133462, Note_on_c,13,44,0
14,133486, Note_on_c,13,44,80
14,133536, Note_on_c,13,44,0
14,133560, Note_on_c,13,44,80
14,133610, Note_on_c,13,44,0
14,133634, Note_on_c,13,44,80
14,133684, Note_on_c,13,44,0
14,133708, Note_on_c,13,44,80
14,133758, Note_on_c,13,44,0
14,133782, Note_on_c,13,44,80
14,133832, Note_on_c,13,44,0
14,133856, Note_on_c,13,44,80
14,133906, Note_on_c,13,44,0
14,133930, Note_on_c,13,44,80
14,133980, Note_on_c,13,44,0
14,134004, Note_on_c,13,44,80
14,134054, Note_on_c,13,44,0
14,134078, Note_on_c,13,44,80
14,134128, Note_on_c,13,44,0
14,134152, Note_on_c,13,44,80
14,134202, Note_on_c,13,44,0
14,134230, Note_on_c,13,51,80
14,134280, Note_on_c,13,51,0
14,134894, Note_on_c,13,44,80
14,134944, Note_on_c,13,44,0
14,134963, Note_on_c,13,44,80
14,135013, Note_on_c,13,44,0
14,135032, Note_on_c,13,44,80
14,135082, Note_on_c,13,44,0
14,135101, Note_on_c,13,44,80
14,135151, Note_on_c,13,44,0
14,135170, Note_on_c,13,44,80
14,135220, Note_on_c,13,44,0
14,135239, Note_on_c,13,44,80
14,135289, Note_on_c,13,44,0
14,135308, Note_on_c,13,44,80
14,135358, Note_on_c,13,44,0
14,135377, Note_on_c,13,44,80
14,135427, Note_on_c,13,44,0
14,135446, Note_on_c,13,44,80
14,135496, Note_on_c,13,44,0
14,135515, Note_on_c,13,44,80
14,135565, Note_on_c,13,44,0
14,135584, Note_on_c,13,44,80
14,135634, Note_on_c,13,44,0
14,135653, Note_on_c,13,44,80
14,135703, Note_on_c,13,44,0
14,135722, Note_on_c,13,44,80
14,135772, Note_on_c,13,44,0
14,135791, Note_on_c,13,44,80
14,135841, Note_on_c,13,44,0
14,135860, Note_on_c,13,44,80
14,135910, Note_on_c,13,44,0
14,135929, Note_on_c,13,44,80
14,135979, Note_on_c,13,44,0
14,136002, Note_on_c,13,49,80
14,136052, Note_on_c,13,49,0
14,137872, Note_on_c,13,49,70
14,137922, Note_on_c,13,49,0
14,139520, Note_on_c,13,49,70
14,139570, Note_on_c,13,49,0
14,141212, Note_on_c,13,49,70
14,141262, Note_on_c,13,49,0
14,142876, Note_on_c,13,49,70
14,142926, Note_on_c,13,49,0
14,372154, Control_c,13,11,70
14,372154, Note_on_c,13,43,70
14,372204, Note_on_c,13,43,0
14,372234, Note_on_c,13,43,70
14,372284, Note_on_c,13,43,0
14,372314, Note_on_c,13,43,71
14,372364, Note_on_c,13,43,0
14,372365, Control_c,13,11,71
14,372394, Note_on_c,13,43,71
14,372444, Note_on_c,13,43,0
14,372474, Note_on_c,13,43,72
14,372524, Note_on_c,13,43,0
14,372554, Note_on_c,13,43,72
14,372577, Control_c,13,11,72
14,372604, Note_on_c,13,43,0
14,372634, Note_on_c,13,43,73
14,372684, Note_on_c,13,43,0
14,372714, Note_on_c,13,43,73
14,372764, Note_on_c,13,43,0
14,372788, Control_c,13,11,73
14,372794, Note_on_c,13,43,74
14,372844, Note_on_c,13,43,0
14,372874, Note_on_c,13,43,74
14,372924, Note_on_c,13,43,0
14,372954, Note_on_c,13,43,75
14,373000, Control_c,13,11,74
14,373004, Note_on_c,13,43,0
14,373034, Note_on_c,13,43,76
14,373084, Note_on_c,13,43,0
14,373114, Note_on_c,13,43,76
14,373164, Note_on_c,13,43,0
14,373194, Note_on_c,13,43,77
14,373211, Control_c,13,11,75
14,373244, Note_on_c,13,43,0
14,373274, Note_on_c,13,43,77
14,373324, Note_on_c,13,43,0
14,373354, Note_on_c,13,43,78
14,373404, Note_on_c,13,43,0
14,373423, Control_c,13,11,76
14,373434, Note_on_c,13,43,78
14,373484, Note_on_c,13,43,0
14,373514, Note_on_c,13,43,79
14,373564, Note_on_c,13,43,0
14,373594, Note_on_c,13,43,79
14,373634, Control_c,13,11,77
14,373644, Note_on_c,13,43,0
14,373674, Note_on_c,13,43,80
14,373724, Note_on_c,13,43,0
14,373754, Note_on_c,13,43,80
14,373804, Note_on_c,13,43,0
14,373834, Note_on_c,13,43,81
14,373846, Control_c,13,11,78
14,373884, Note_on_c,13,43,0
14,373914, Note_on_c,13,43,82
14,373964, Note_on_c,13,43,0
14,373994, Note_on_c,13,43,82
14,374044, Note_on_c,13,43,0
14,374057, Control_c,13,11,79
14,374074, Note_on_c,13,43,83
14,374124, Note_on_c,13,43,0
14,374154, Note_on_c,13,43,83
14,374204, Note_on_c,13,43,0
14,374234, Note_on_c,13,43,84
14,374269, Control_c,13,11,80
14,374284, Note_on_c,13,43,0
14,374314, Note_on_c,13,43,84
14,374364, Note_on_c,13,43,0
14,374394, Note_on_c,13,43,85
14,374444, Note_on_c,13,43,0
14,374474, Note_on_c,13,43,85
14,374480, Control_c,13,11,81
14,374524, Note_on_c,13,43,0
14,374554, Note_on_c,13,43,86
14,374604, Note_on_c,13,43,0
14,374634, Note_on_c,13,43,86
14,374684, Note_on_c,13,43,0
14,374692, Control_c,13,11,82
14,374714, Note_on_c,13,43,87
14,374764, Note_on_c,13,43,0
14,374794, Note_on_c,13,43,88
14,374844, Note_on_c,13,43,0
14,374874, Note_on_c,13,43,88
14,374903, Control_c,13,11,83
14,374924, Note_on_c,13,43,0
14,374954, Note_on_c,13,43,89
14,375004, Note_on_c,13,43,0
14,375034, Note_on_c,13,43,89
14,375084, Note_on_c,13,43,0
14,375114, Note_on_c,13,43,90
14,375115, Control_c,13,11,84
14,375164, Note_on_c,13,43,0
14,375194, Note_on_c,13,43,90
14,375244, Note_on_c,13,43,0
14,375274, Note_on_c,13,43,91
14,375324, Note_on_c,13,43,0
14,375326, Control_c,13,11,85
14,375354, Note_on_c,13,43,91
14,375404, Note_on_c,13,43,0
14,375434, Note_on_c,13,43,92
14,375484, Note_on_c,13,43,0
14,375514, Note_on_c,13,43,93
14,375538, Control_c,13,11,86
14,375564, Note_on_c,13,43,0
14,375594, Note_on_c,13,43,93
14,375644, Note_on_c,13,43,0
14,375674, Note_on_c,13,43,94
14,375724, Note_on_c,13,43,0
14,375749, Control_c,13,11,87
14,375754, Note_on_c,13,43,94
14,375804, Note_on_c,13,43,0
14,375834, Note_on_c,13,43,95
14,375884, Note_on_c,13,43,0
14,375914, Note_on_c,13,43,95
14,375961, Control_c,13,11,88
14,375964, Note_on_c,13,43,0
14,375994, Note_on_c,13,43,96
14,376044, Note_on_c,13,43,0
14,376074, Note_on_c,13,43,96
14,376124, Note_on_c,13,43,0
14,376154, Note_on_c,13,43,97
14,376172, Control_c,13,11,89
14,376204, Note_on_c,13,43,0
14,376234, Note_on_c,13,43,97
14,376284, Note_on_c,13,43,0
14,376314, Note_on_c,13,43,98
14,376364, Note_on_c,13,43,0
14,376384, Control_c,13,11,90
14,376394, Note_on_c,13,43,99
14,376444, Note_on_c,13,43,0
14,376474, Note_on_c,13,43,99
14,376524, Note_on_c,13,43,0
14,376554, Note_on_c,13,43,100
14,376595, Control_c,13,11,91
14,376604, Note_on_c,13,43,0
14,376634, Note_on_c,13,43,100
14,376684, Note_on_c,13,43,0
14,376714, Note_on_c,13,43,101
14,376764, Note_on_c,13,43,0
14,376794, Note_on_c,13,43,101
14,376807, Control_c,13,11,92
14,376844, Note_on_c,13,43,0
14,376874, Note_on_c,13,43,102
14,376924, Note_on_c,13,43,0
14,376954, Note_on_c,13,43,102
14,377004, Note_on_c,13,43,0
14,377018, Control_c,13,11,93
14,377034, Note_on_c,13,43,103
14,377084, Note_on_c,13,43,0
14,377114, Note_on_c,13,43,103
14,377164, Note_on_c,13,43,0
14,377194, Note_on_c,13,43,104
14,377230, Control_c,13,11,94
14,377244, Note_on_c,13,43,0
14,377274, Note_on_c,13,43,105
14,377324, Note_on_c,13,43,0
14,377354, Note_on_c,13,43,105
14,377404, Note_on_c,13,43,0
14,377434, Note_on_c,13,43,106
14,377441, Control_c,13,11,95
14,377484, Note_on_c,13,43,0
14,377514, Note_on_c,13,43,106
14,377564, Note_on_c,13,43,0
14,377594, Note_on_c,13,43,107
14,377644, Note_on_c,13,43,0
14,377653, Control_c,13,11,96
14,377674, Note_on_c,13,43,107
14,377724, Note_on_c,13,43,0
14,377754, Note_on_c,13,43,108
14,377804, Note_on_c,13,43,0
14,377834, Note_on_c,13,43,108
14,377864, Control_c,13,11,97
14,377884, Note_on_c,13,43,0
14,377914, Note_on_c,13,43,109
14,377964, Note_on_c,13,43,0
14,377994, Note_on_c,13,43,110
14,378044, Note_on_c,13,43,0
14,378074, Note_on_c,13,43,110
14,378076, Control_c,13,11,98
14,378124, Note_on_c,13,43,0
14,378154, Note_on_c,13,43,111
14,378204, Note_on_c,13,43,0
14,378234, Note_on_c,13,43,111
14,378284, Note_on_c,13,43,0
14,378287, Control_c,13,11,99
14,378314, Note_on_c,13,43,112
14,378364, Note_on_c,13,43,0
14,378394, Note_on_c,13,43,112
14,378444, Note_on_c,13,43,0
14,378474, Note_on_c,13,43,113
14,378499, Control_c,13,11,100
14,378524, Note_on_c,13,43,0
14,378554, Note_on_c,13,43,113
14,378604, Note_on_c,13,43,0
14,378634, Note_on_c,13,43,114
14,378684, Note_on_c,13,43,0
14,378710, Control_c,13,11,101
14,378714, Note_on_c,13,43,114
14,378764, Note_on_c,13,43,0
14,378794, Note_on_c,13,43,115
14,378844, Note_on_c,13,43,0
14,378874, Note_on_c,13,43,116
14,378922, Control_c,13,11,102
14,378924, Note_on_c,13,43,0
14,378954, Note_on_c,13,43,116
14,379004, Note_on_c,13,43,0
14,379034, Note_on_c,13,43,117
14,379084, Note_on_c,13,43,0
14,379114, Note_on_c,13,43,117
14,379133, Control_c,13,11,103
14,379164, Note_on_c,13,43,0
14,379194, Note_on_c,13,43,118
14,379244, Note_on_c,13,43,0
14,379274, Note_on_c,13,43,118
14,379324, Note_on_c,13,43,0
14,379345, Control_c,13,11,104
14,379354, Note_on_c,13,43,119
14,379404, Note_on_c,13,43,0
14,379434, Note_on_c,13,43,119
14,379484, Note_on_c,13,43,0
14,379514, Note_on_c,13,43,120
14,379556, Control_c,13,11,105
14,379564, Note_on_c,13,43,0
14,379594, Note_on_c,13,43,120
14,379644, Note_on_c,13,43,0
14,379674, Note_on_c,13,43,121
14,379724, Note_on_c,13,43,0
14,379754, Note_on_c,13,43,122
14,379768, Control_c,13,11,106
14,379804, Note_on_c,13,43,0
14,379834, Note_on_c,13,43,122
14,379884, Note_on_c,13,43,0
14,379914, Note_on_c,13,43,123
14,379964, Note_on_c,13,43,0
14,379979, Control_c,13,11,107
14,379994, Note_on_c,13,43,123
14,380044, Note_on_c,13,43,0
14,380074, Note_on_c,13,43,124
14,380124, Note_on_c,13,43,0
14,380154, Note_on_c,13,43,124
14,380191, Control_c,13,11,108
14,380204, Note_on_c,13,43,0
14,380234, Note_on_c,13,43,125
14,380284, Note_on_c,13,43,0
14,380314, Note_on_c,13,43,125
14,380364, Note_on_c,13,43,0
14,380394, Note_on_c,13,43,126
14,380402, Control_c,13,11,109
14,380444, Note_on_c,13,43,0
14,380474, Note_on_c,13,43,127
14,380524, Note_on_c,13,43,0
14,380614, Control_c,13,11,110
14,380614, Note_on_c,13,41,127
14,380684, Note_on_c,13,41,0
14,385920, Note_on_c,13,41,127
14,385990, Note_on_c,13,41,0
14,386566, Note_on_c,13,41,127
14,386636, Note_on_c,13,41,0
14,387194, Note_on_c,13,41,127
14,387194, Note_on_c,13,41,127
14,387264, Note_on_c,13,41,0
14,387264, Note_on_c,13,41,0
14,387850, Note_on_c,13,41,127
14,387920, Note_on_c,13,41,0
14,389290, Note_on_c,13,43,127
14,389360, Note_on_c,13,43,0
14,478499, Note_on_c,13,43,100
14,478549, Note_on_c,13,43,0
14,479763, Note_on_c,13,43,100
14,479813, Note_on_c,13,43,0
14,480405, Note_on_c,13,43,100
14,480455, Note_on_c,13,43,0
14,481039, Note_on_c,13,43,100
14,481089, Note_on_c,13,43,0
14,482303, Note_on_c,13,43,100
14,482353, Note_on_c,13,43,0
14,482945, Note_on_c,13,43,100
14,482995, Note_on_c,13,43,0
14,483577, Note_on_c,13,46,100
14,483627, Note_on_c,13,46,0
14,484841, Note_on_c,13,46,100
14,484891, Note_on_c,13,46,0
14,485483, Note_on_c,13,43,100
14,485533, Note_on_c,13,43,0
14,486115, Note_on_c,13,46,100
14,486165, Note_on_c,13,46,0
14,487379, Note_on_c,13,46,100
14,487429, Note_on_c,13,46,0
14,488021, Note_on_c,13,43,100
14,488071, Note_on_c,13,43,0
14,488653, Note_on_c,13,41,100
14,488703, Note_on_c,13,41,0
14,489285, Note_on_c,13,41,100
14,489335, Note_on_c,13,41,0
14,490243, Note_on_c,13,41,100
14,490293, Note_on_c,13,41,0
14,490559, Note_on_c,13,41,100
14,490609, Note_on_c,13,41,0
14,491192, Note_on_c,13,41,100
14,491242, Note_on_c,13,41,0
14,491244, Note_on_c,13,41,100
14,491294, Note_on_c,13,41,0
14,491297, Note_on_c,13,41,100
14,491347, Note_on_c,13,41,0
14,491349, Note_on_c,13,41,100
14,491399, Note_on_c,13,41,0
14,491402, Note_on_c,13,41,100
14,491452, Note_on_c,13,41,0
14,491454, Note_on_c,13,41,100
14,491504, Note_on_c,13,41,0
14,491507, Note_on_c,13,41,100
14,491557, Note_on_c,13,41,0
14,491559, Note_on_c,13,41,100
14,491609, Note_on_c,13,41,0
14,491612, Note_on_c,13,41,100
14,491662, Note_on_c,13,41,0
14,491664, Note_on_c,13,41,100
14,491714, Note_on_c,13,41,0
14,491717, Note_on_c,13,41,100
14,491767, Note_on_c,13,41,0
14,491769, Note_on_c,13,41,100
14,491819, Note_on_c,13,41,0
14,491822, Note_on_c,13,41,100
14,491872, Note_on_c,13,41,0
14,491874, Note_on_c,13,41,100
14,491924, Note_on_c,13,41,0
14,492458, Note_on_c,13,41,100
14,492508, Note_on_c,13,41,0
14,492510, Note_on_c,13,41,100
14,492560, Note_on_c,13,41,0
14,492563, Note_on_c,13,41,100
14,492613, Note_on_c,13,41,0
14,492615, Note_on_c,13,41,100
14,492665, Note_on_c,13,41,0
14,492668, Note_on_c,13,41,100
14,492718, Note_on_c,13,41,0
14,492720, Note_on_c,13,41,100
14,492770, Note_on_c,13,41,0
14,492773, Note_on_c,13,41,100
14,492823, Note_on_c,13,41,0
14,492825, Note_on_c,13,41,100
14,492875, Note_on_c,13,41,0
14,492878, Note_on_c,13,41,100
14,492928, Note_on_c,13,41,0
14,492930, Note_on_c,13,41,100
14,492980, Note_on_c,13,41,0
14,492983, Note_on_c,13,41,100
14,493033, Note_on_c,13,41,0
14,493035, Note_on_c,13,41,100
14,493085, Note_on_c,13,41,0
14,493088, Note_on_c,13,41,100
14,493138, Note_on_c,13,41,0
14,493140, Note_on_c,13,41,100
14,493190, Note_on_c,13,41,0
14,493723, Note_on_c,13,41,100
14,493773, Note_on_c,13,41,0
14,494355, Note_on_c,13,41,100
14,494405, Note_on_c,13,41,0
14,495313, Note_on_c,13,41,100
14,495363, Note_on_c,13,41,0
14,495629, Note_on_c,13,41,100
14,495679, Note_on_c,13,41,0
14,496262, Note_on_c,13,41,100
14,496312, Note_on_c,13,41,0
14,496314, Note_on_c,13,41,100
14,496364, Note_on_c,13,41,0
14,496367, Note_on_c,13,41,100
14,496417, Note_on_c,13,41,0
14,496419, Note_on_c,13,41,100
14,496469, Note_on_c,13,41,0
14,496472, Note_on_c,13,41,100
14,496522, Note_on_c,13,41,0
14,496524, Note_on_c,13,41,100
14,496574, Note_on_c,13,41,0
14,496577, Note_on_c,13,41,100
14,496627, Note_on_c,13,41,0
14,496629, Note_on_c,13,41,100
14,496679, Note_on_c,13,41,0
14,496682, Note_on_c,13,41,100
14,496732, Note_on_c,13,41,0
14,496734, Note_on_c,13,41,100
14,496784, Note_on_c,13,41,0
14,496787, Note_on_c,13,41,100
14,496837, Note_on_c,13,41,0
14,496839, Note_on_c,13,41,100
14,496889, Note_on_c,13,41,0
14,496892, Note_on_c,13,41,100
14,496942, Note_on_c,13,41,0
14,496944, Note_on_c,13,41,100
14,496994, Note_on_c,13,41,0
14,497528, Note_on_c,13,41,100
14,497578, Note_on_c,13,41,0
14,497580, Note_on_c,13,41,100
14,497630, Note_on_c,13,41,0
14,497633, Note_on_c,13,41,100
14,497683, Note_on_c,13,41,0
14,497685, Note_on_c,13,41,100
14,497735, Note_on_c,13,41,0
14,497738, Note_on_c,13,41,100
14,497788, Note_on_c,13,41,0
14,497790, Note_on_c,13,41,100
14,497840, Note_on_c,13,41,0
14,497843, Note_on_c,13,41,100
14,497893, Note_on_c,13,41,0
14,497895, Note_on_c,13,41,100
14,497945, Note_on_c,13,41,0
14,497948, Note_on_c,13,41,100
14,497998, Note_on_c,13,41,0
14,498000, Note_on_c,13,41,100
14,498050, Note_on_c,13,41,0
14,498053, Note_on_c,13,41,100
14,498103, Note_on_c,13,41,0
14,498105, Note_on_c,13,41,100
14,498155, Note_on_c,13,41,0
14,498158, Note_on_c,13,41,100
14,498208, Note_on_c,13,41,0
14,498210, Note_on_c,13,41,100
14,498260, Note_on_c,13,41,0
14,498794, Note_on_c,13,46,100
14,498844, Note_on_c,13,46,0
14,498846, Note_on_c,13,46,100
14,498896, Note_on_c,13,46,0
14,498899, Note_on_c,13,46,100
14,498949, Note_on_c,13,46,0
14,498951, Note_on_c,13,46,100
14,499001, Note_on_c,13,46,0
14,499004, Note_on_c,13,46,100
14,499054, Note_on_c,13,46,0
14,499056, Note_on_c,13,46,100
14,499106, Note_on_c,13,46,0
14,499109, Note_on_c,13,46,100
14,499159, Note_on_c,13,46,0
14,499161, Note_on_c,13,46,100
14,499211, Note_on_c,13,46,0
14,499214, Note_on_c,13,46,100
14,499264, Note_on_c,13,46,0
14,499266, Note_on_c,13,46,100
14,499316, Note_on_c,13,46,0
14,499319, Note_on_c,13,46,100
14,499369, Note_on_c,13,46,0
14,499371, Note_on_c,13,46,100
14,499421, Note_on_c,13,46,0
14,499424, Note_on_c,13,46,100
14,499474, Note_on_c,13,46,0
14,499476, Note_on_c,13,46,100
14,499526, Note_on_c,13,46,0
14,501326, Note_on_c,13,41,100
14,501376, Note_on_c,13,41,0
14,501378, Note_on_c,13,41,100
14,501428, Note_on_c,13,41,0
14,501431, Note_on_c,13,41,100
14,501481, Note_on_c,13,41,0
14,501483, Note_on_c,13,41,100
14,501533, Note_on_c,13,41,0
14,501536, Note_on_c,13,41,100
14,501586, Note_on_c,13,41,0
14,501588, Note_on_c,13,41,100
14,501638, Note_on_c,13,41,0
14,501641, Note_on_c,13,41,100
14,501691, Note_on_c,13,41,0
14,501693, Note_on_c,13,41,100
14,501743, Note_on_c,13,41,0
14,501746, Note_on_c,13,41,100
14,501796, Note_on_c,13,41,0
14,501798, Note_on_c,13,41,100
14,501848, Note_on_c,13,41,0
14,501851, Note_on_c,13,41,100
14,501901, Note_on_c,13,41,0
14,501903, Note_on_c,13,41,100
14,501953, Note_on_c,13,41,0
14,501956, Note_on_c,13,41,100
14,502006, Note_on_c,13,41,0
14,502008, Note_on_c,13,41,100
14,502058, Note_on_c,13,41,0
14,503858, Note_on_c,13,41,100
14,503908, Note_on_c,13,41,0
14,503910, Note_on_c,13,41,100
14,503960, Note_on_c,13,41,0
14,503963, Note_on_c,13,41,100
14,504013, Note_on_c,13,41,0
14,504015, Note_on_c,13,41,100
14,504065, Note_on_c,13,41,0
14,504068, Note_on_c,13,41,100
14,504118, Note_on_c,13,41,0
14,504120, Note_on_c,13,41,100
14,504170, Note_on_c,13,41,0
14,504173, Note_on_c,13,41,100
14,504223, Note_on_c,13,41,0
14,504225, Note_on_c,13,41,100
14,504275, Note_on_c,13,41,0
14,504278, Note_on_c,13,41,100
14,504328, Note_on_c,13,41,0
14,504330, Note_on_c,13,41,100
14,504380, Note_on_c,13,41,0
14,504383, Note_on_c,13,41,100
14,504433, Note_on_c,13,41,0
14,504435, Note_on_c,13,41,100
14,504485, Note_on_c,13,41,0
14,504488, Note_on_c,13,41,100
14,504538, Note_on_c,13,41,0
14,504540, Note_on_c,13,41,100
14,504590, Note_on_c,13,41,0
14,506386, Note_on_c,13,46,100
14,506436, Note_on_c,13,46,0
14,506438, Note_on_c,13,46,100
14,506488, Note_on_c,13,46,0
14,506491, Note_on_c,13,46,100
14,506541, Note_on_c,13,46,0
14,506543, Note_on_c,13,46,100
14,506593, Note_on_c,13,46,0
14,506596, Note_on_c,13,46,100
14,506646, Note_on_c,13,46,0
14,506648, Note_on_c,13,46,100
14,506698, Note_on_c,13,46,0
14,506701, Note_on_c,13,46,100
14,506751, Note_on_c,13,46,0
14,506753, Note_on_c,13,46,100
14,506803, Note_on_c,13,46,0
14,506806, Note_on_c,13,46,100
14,506856, Note_on_c,13,46,0
14,506858, Note_on_c,13,46,100
14,506908, Note_on_c,13,46,0
14,506911, Note_on_c,13,46,100
14,506961, Note_on_c,13,46,0
14,506963, Note_on_c,13,46,100
14,507013, Note_on_c,13,46,0
14,507016, Note_on_c,13,46,100
14,507066, Note_on_c,13,46,0
14,507068, Note_on_c,13,46,100
14,507118, Note_on_c,13,46,0
14,511442, Note_on_c,13,46,100
14,511492, Note_on_c,13,46,0
14,560884, Control_c,13,11,110
14,560884, Note_on_c,13,47,100
14,560910, Control_c,13,11,109
14,560934, Note_on_c,13,47,0
14,560936, Control_c,13,11,108
14,560936, Note_on_c,13,47,98
14,560962, Control_c,13,11,107
14,560986, Note_on_c,13,47,0
14,560988, Control_c,13,11,106
14,560989, Note_on_c,13,47,96
14,561014, Control_c,13,11,105
14,561039, Note_on_c,13,47,0
14,561040, Control_c,13,11,104
14,561041, Note_on_c,13,47,94
14,561066, Control_c,13,11,103
14,561091, Note_on_c,13,47,0
14,561092, Control_c,13,11,102
14,561094, Note_on_c,13,47,91
14,561118, Control_c,13,11,101
14,561144, Note_on_c,13,47,0
14,561144, Control_c,13,11,100
14,561146, Note_on_c,13,47,89
14,561170, Control_c,13,11,99
14,561196, Note_on_c,13,47,0
14,561196, Control_c,13,11,98
14,561199, Note_on_c,13,47,87
14,561222, Control_c,13,11,97
14,561248, Control_c,13,11,96
14,561249, Note_on_c,13,47,0
14,561251, Note_on_c,13,47,84
14,561275, Control_c,13,11,95
14,561301, Note_on_c,13,47,0
14,561301, Control_c,13,11,94
14,561304, Note_on_c,13,47,82
14,561327, Control_c,13,11,93
14,561353, Control_c,13,11,92
14,561354, Note_on_c,13,47,0
14,561356, Note_on_c,13,47,80
14,561379, Control_c,13,11,91
14,561405, Control_c,13,11,90
14,561406, Note_on_c,13,47,0
14,561409, Note_on_c,13,47,77
14,561431, Control_c,13,11,89
14,561457, Control_c,13,11,88
14,561459, Note_on_c,13,47,0
14,561461, Note_on_c,13,47,75
14,561483, Control_c,13,11,87
14,561509, Control_c,13,11,86
14,561511, Note_on_c,13,47,0
14,561514, Note_on_c,13,47,73
14,561535, Control_c,13,11,85
14,561561, Control_c,13,11,84
14,561564, Note_on_c,13,47,0
14,561566, Note_on_c,13,47,70
14,561587, Control_c,13,11,83
14,561613, Control_c,13,11,82
14,561616, Note_on_c,13,47,0
14,561618, Note_on_c,13,47,70
14,561639, Control_c,13,11,81
14,561666, Control_c,13,11,80
14,561668, Note_on_c,13,47,0
14,561670, Note_on_c,13,47,70
14,561710, Note_on_c,13,47,0
14,561723, Note_on_c,13,47,70
14,561763, Note_on_c,13,47,0
14,561775, Note_on_c,13,47,70
14,561815, Note_on_c,13,47,0
14,561828, Note_on_c,13,47,70
14,561868, Note_on_c,13,47,0
14,561880, Note_on_c,13,47,70
14,561920, Note_on_c,13,47,0
14,561933, Note_on_c,13,47,70
14,561973, Note_on_c,13,47,0
14,561985, Note_on_c,13,47,70
14,562025, Note_on_c,13,47,0
14,562038, Note_on_c,13,47,70
14,562078, Note_on_c,13,47,0
14,562090, Note_on_c,13,47,70
14,562130, Note_on_c,13,47,0
14,562143, Note_on_c,13,47,70
14,562183, Note_on_c,13,47,0
14,562195, Note_on_c,13,47,70
14,562235, Note_on_c,13,47,0
14,562248, Note_on_c,13,47,70
14,562288, Note_on_c,13,47,0
14,562300, Note_on_c,13,47,70
14,562340, Note_on_c,13,47,0
14,562352, Note_on_c,13,47,70
14,562392, Note_on_c,13,47,0
14,562405, Note_on_c,13,47,70
14,562445, Note_on_c,13,47,0
14,562457, Note_on_c,13,47,70
14,562497, Note_on_c,13,47,0
14,562510, Note_on_c,13,47,70
14,562550, Note_on_c,13,47,0
14,562562, Note_on_c,13,47,70
14,562602, Note_on_c,13,47,0
14,562615, Note_on_c,13,47,70
14,562655, Note_on_c,13,47,0
14,562667, Note_on_c,13,47,70
14,562707, Note_on_c,13,47,0
14,562720, Note_on_c,13,47,70
14,562760, Note_on_c,13,47,0
14,562772, Note_on_c,13,47,70
14,562812, Note_on_c,13,47,0
14,562825, Note_on_c,13,47,70
14,562865, Note_on_c,13,47,0
14,562877, Note_on_c,13,47,70
14,562917, Note_on_c,13,47,0
14,562930, Note_on_c,13,47,70
14,562970, Note_on_c,13,47,0
14,562982, Note_on_c,13,47,70
14,563022, Note_on_c,13,47,0
14,563034, Note_on_c,13,47,70
14,563074, Note_on_c,13,47,0
14,563087, Note_on_c,13,47,70
14,563127, Note_on_c,13,47,0
14,563139, Note_on_c,13,47,70
14,563179, Note_on_c,13,47,0
14,563192, Note_on_c,13,47,70
14,563232, Note_on_c,13,47,0
14,563244, Note_on_c,13,47,70
14,563284, Note_on_c,13,47,0
14,563297, Note_on_c,13,47,70
14,563337, Note_on_c,13,47,0
14,563349, Note_on_c,13,47,70
14,563389, Note_on_c,13,47,0
14,563402, Note_on_c,13,47,70
14,563442, Note_on_c,13,47,0
14,563454, Note_on_c,13,47,70
14,563494, Note_on_c,13,47,0
14,563507, Note_on_c,13,47,70
14,563547, Note_on_c,13,47,0
14,563559, Note_on_c,13,47,70
14,563599, Note_on_c,13,47,0
14,563612, Note_on_c,13,47,70
14,563652, Note_on_c,13,47,0
14,563664, Note_on_c,13,47,70
14,563704, Note_on_c,13,47,0
14,563716, Note_on_c,13,47,70
14,563756, Note_on_c,13,47,0
14,563769, Note_on_c,13,47,70
14,563809, Note_on_c,13,47,0
14,563821, Note_on_c,13,47,70
14,563861, Note_on_c,13,47,0
14,563874, Note_on_c,13,47,70
14,563914, Note_on_c,13,47,0
14,563926, Note_on_c,13,47,70
14,563966, Note_on_c,13,47,0
14,563979, Note_on_c,13,47,70
14,564019, Note_on_c,13,47,0
14,564031, Note_on_c,13,47,70
14,564071, Note_on_c,13,47,0
14,564084, Note_on_c,13,47,70
14,564124, Note_on_c,13,47,0
14,564136, Note_on_c,13,47,70
14,564176, Note_on_c,13,47,0
14,564189, Note_on_c,13,47,70
14,564229, Note_on_c,13,47,0
14,564241, Note_on_c,13,47,70
14,564281, Note_on_c,13,47,0
14,564294, Note_on_c,13,47,70
14,564334, Note_on_c,13,47,0
14,564346, Note_on_c,13,47,70
14,564386, Note_on_c,13,47,0
14,564398, Note_on_c,13,47,70
14,564438, Note_on_c,13,47,0
14,564451, Note_on_c,13,47,70
14,564491, Note_on_c,13,47,0
14,564503, Note_on_c,13,47,70
14,564543, Note_on_c,13,47,0
14,564556, Note_on_c,13,47,70
14,564596, Note_on_c,13,47,0
14,564608, Note_on_c,13,47,70
14,564648, Note_on_c,13,47,0
14,564661, Note_on_c,13,47,70
14,564701, Note_on_c,13,47,0
14,564713, Note_on_c,13,47,70
14,564753, Note_on_c,13,47,0
14,564766, Note_on_c,13,47,70
14,564806, Note_on_c,13,47,0
14,564818, Note_on_c,13,47,70
14,564858, Note_on_c,13,47,0
14,564871, Note_on_c,13,47,70
14,564911, Note_on_c,13,47,0
14,564923, Note_on_c,13,47,70
14,564963, Note_on_c,13,47,0
14,564976, Note_on_c,13,47,70
14,565016, Note_on_c,13,47,0
14,565028, Note_on_c,13,47,70
14,565068, Note_on_c,13,47,0
14,565080, Note_on_c,13,47,70
14,565120, Note_on_c,13,47,0
14,565133, Note_on_c,13,47,70
14,565173, Note_on_c,13,47,0
14,565185, Note_on_c,13,47,70
14,565225, Note_on_c,13,47,0
14,565238, Note_on_c,13,47,70
14,565278, Note_on_c,13,47,0
14,565290, Note_on_c,13,47,70
14,565330, Note_on_c,13,47,0
14,565343, Note_on_c,13,47,70
14,565383, Note_on_c,13,47,0
14,565395, Note_on_c,13,47,70
14,565435, Note_on_c,13,47,0
14,565448, Note_on_c,13,47,70
14,565488, Note_on_c,13,47,0
14,565500, Note_on_c,13,47,70
14,565540, Note_on_c,13,47,0
14,565553, Note_on_c,13,47,70
14,565593, Note_on_c,13,47,0
14,565605, Note_on_c,13,47,70
14,565645, Note_on_c,13,47,0
14,565658, Note_on_c,13,47,70
14,565698, Note_on_c,13,47,0
14,565710, Note_on_c,13,47,70
14,565750, Note_on_c,13,47,0
14,565762, Note_on_c,13,47,70
14,565802, Note_on_c,13,47,0
14,565815, Note_on_c,13,47,70
14,565855, Note_on_c,13,47,0
14,565867, Note_on_c,13,47,70
14,565907, Note_on_c,13,47,0
14,565920, Note_on_c,13,47,70
14,565960, Note_on_c,13,47,0
14,565972, Note_on_c,13,47,70
14,566012, Note_on_c,13,47,0
14,566025, Note_on_c,13,47,70
14,566065, Note_on_c,13,47,0
14,566077, Note_on_c,13,47,70
14,566117, Note_on_c,13,47,0
14,566130, Note_on_c,13,47,70
14,566170, Note_on_c,13,47,0
14,566182, Note_on_c,13,47,70
14,566222, Note_on_c,13,47,0
14,566235, Note_on_c,13,47,70
14,566275, Note_on_c,13,47,0
14,566287, Note_on_c,13,47,70
14,566327, Note_on_c,13,47,0
14,566340, Note_on_c,13,47,70
14,566380, Note_on_c,13,47,0
14,566392, Note_on_c,13,47,70
14,566432, Note_on_c,13,47,0
14,566444, Note_on_c,13,47,70
14,566484, Note_on_c,13,47,0
14,566497, Note_on_c,13,47,70
14,566537, Note_on_c,13,47,0
14,566549, Note_on_c,13,47,70
14,566589, Note_on_c,13,47,0
14,566602, Note_on_c,13,47,70
14,566642, Note_on_c,13,47,0
14,566654, Note_on_c,13,47,70
14,566694, Note_on_c,13,47,0
14,566707, Note_on_c,13,47,70
14,566747, Note_on_c,13,47,0
14,566759, Note_on_c,13,47,70
14,566799, Note_on_c,13,47,0
14,566812, Note_on_c,13,47,70
14,566852, Note_on_c,13,47,0
14,566864, Note_on_c,13,47,70
14,566904, Note_on_c,13,47,0
14,566917, Note_on_c,13,47,70
14,566957, Note_on_c,13,47,0
14,566969, Note_on_c,13,47,70
14,567009, Note_on_c,13,47,0
14,567022, Note_on_c,13,47,70
14,567062, Note_on_c,13,47,0
14,567074, Note_on_c,13,47,70
14,567114, Note_on_c,13,47,0
14,567126, Note_on_c,13,47,70
14,567166, Note_on_c,13,47,0
14,567179, Note_on_c,13,47,70
14,567219, Note_on_c,13,47,0
14,567231, Note_on_c,13,47,70
14,567271, Note_on_c,13,47,0
14,567284, Note_on_c,13,47,70
14,567324, Note_on_c,13,47,0
14,567336, Note_on_c,13,47,70
14,567376, Note_on_c,13,47,0
14,567389, Note_on_c,13,47,70
14,567429, Note_on_c,13,47,0
14,567441, Note_on_c,13,47,70
14,567481, Note_on_c,13,47,0
14,567494, Note_on_c,13,47,70
14,567534, Note_on_c,13,47,0
14,567546, Note_on_c,13,47,70
14,567586, Note_on_c,13,47,0
14,567599, Note_on_c,13,47,70
14,567639, Note_on_c,13,47,0
14,567651, Note_on_c,13,47,70
14,567691, Note_on_c,13,47,0
14,567704, Note_on_c,13,47,70
14,567744, Note_on_c,13,47,0
14,567756, Note_on_c,13,47,70
14,567796, Note_on_c,13,47,0
14,567808, Note_on_c,13,47,70
14,567848, Note_on_c,13,47,0
14,567861, Note_on_c,13,47,70
14,567901, Note_on_c,13,47,0
14,567913, Note_on_c,13,47,70
14,567953, Note_on_c,13,47,0
14,567966, Note_on_c,13,47,70
14,568006, Note_on_c,13,47,0
14,568018, Note_on_c,13,47,70
14,568058, Note_on_c,13,47,0
14,568071, Note_on_c,13,47,70
14,568111, Note_on_c,13,47,0
14,568123, Note_on_c,13,47,70
14,568163, Note_on_c,13,47,0
14,568176, Note_on_c,13,47,70
14,568216, Note_on_c,13,47,0
14,568228, Note_on_c,13,47,70
14,568268, Note_on_c,13,47,0
14,568281, Note_on_c,13,47,70
14,568321, Note_on_c,13,47,0
14,568333, Note_on_c,13,47,70
14,568373, Note_on_c,13,47,0
14,568386, Note_on_c,13,47,70
14,568426, Note_on_c,13,47,0
14,568438, Note_on_c,13,47,70
14,568478, Note_on_c,13,47,0
14,568490, Note_on_c,13,47,70
14,568530, Note_on_c,13,47,0
14,568543, Note_on_c,13,47,70
14,568583, Note_on_c,13,47,0
14,568595, Note_on_c,13,47,70
14,568635, Note_on_c,13,47,0
14,568648, Note_on_c,13,47,70
14,568688, Note_on_c,13,47,0
14,568700, Note_on_c,13,47,70
14,568740, Note_on_c,13,47,0
14,568753, Note_on_c,13,47,70
14,568793, Note_on_c,13,47,0
14,568805, Note_on_c,13,47,70
14,568845, Note_on_c,13,47,0
14,568858, Note_on_c,13,47,70
14,568898, Note_on_c,13,47,0
14,568910, Note_on_c,13,47,70
14,568950, Note_on_c,13,47,0
14,568963, Note_on_c,13,47,70
14,569003, Note_on_c,13,47,0
14,569015, Note_on_c,13,47,70
14,569055, Note_on_c,13,47,0
14,569068, Note_on_c,13,47,70
14,569108, Note_on_c,13,47,0
14,569120, Note_on_c,13,47,70
14,569160, Note_on_c,13,47,0
14,569172, Note_on_c,13,47,70
14,569212, Note_on_c,13,47,0
14,569225, Note_on_c,13,47,70
14,569265, Note_on_c,13,47,0
14,569277, Note_on_c,13,47,70
14,569317, Note_on_c,13,47,0
14,569330, Note_on_c,13,47,70
14,569370, Note_on_c,13,47,0
14,569382, Note_on_c,13,47,70
14,569422, Note_on_c,13,47,0
14,569435, Note_on_c,13,47,70
14,569475, Note_on_c,13,47,0
14,569487, Note_on_c,13,47,70
14,569527, Note_on_c,13,47,0
14,569540, Note_on_c,13,47,70
14,569580, Note_on_c,13,47,0
14,569592, Note_on_c,13,47,70
14,569632, Note_on_c,13,47,0
14,569645, Note_on_c,13,47,70
14,569685, Note_on_c,13,47,0
14,569697, Note_on_c,13,47,70
14,569737, Note_on_c,13,47,0
14,569750, Note_on_c,13,47,70
14,569790, Note_on_c,13,47,0
14,569802, Note_on_c,13,47,70
14,569842, Note_on_c,13,47,0
14,569854, Note_on_c,13,47,70
14,569894, Note_on_c,13,47,0
14,569907, Note_on_c,13,47,70
14,569947, Note_on_c,13,47,0
14,569959, Note_on_c,13,47,70
14,569999, Note_on_c,13,47,0
14,570012, Note_on_c,13,47,70
14,570052, Note_on_c,13,47,0
14,570064, Note_on_c,13,47,70
14,570104, Note_on_c,13,47,0
14,570117, Note_on_c,13,47,70
14,570157, Note_on_c,13,47,0
14,570169, Note_on_c,13,47,70
14,570209, Note_on_c,13,47,0
14,570222, Note_on_c,13,47,70
14,570262, Note_on_c,13,47,0
14,570274, Note_on_c,13,47,70
14,570314, Note_on_c,13,47,0
14,570327, Note_on_c,13,47,70
14,570367, Note_on_c,13,47,0
14,570379, Note_on_c,13,47,70
14,570419, Note_on_c,13,47,0
14,570432, Note_on_c,13,47,70
14,570472, Note_on_c,13,47,0
14,570484, Note_on_c,13,47,70
14,570524, Note_on_c,13,47,0
14,570536, Note_on_c,13,47,70
14,570576, Note_on_c,13,47,0
14,570589, Note_on_c,13,47,70
14,570629, Note_on_c,13,47,0
14,570641, Note_on_c,13,47,70
14,570681, Note_on_c,13,47,0
14,570694, Note_on_c,13,47,70
14,570734, Note_on_c,13,47,0
14,570746, Note_on_c,13,47,70
14,570786, Note_on_c,13,47,0
14,570799, Note_on_c,13,47,70
14,570839, Note_on_c,13,47,0
14,570851, Note_on_c,13,47,70
14,570891, Note_on_c,13,47,0
14,570904, Note_on_c,13,47,70
14,570944, Note_on_c,13,47,0
14,570956, Note_on_c,13,47,70
14,570996, Note_on_c,13,47,0
14,571009, Note_on_c,13,47,70
14,571049, Note_on_c,13,47,0
14,571061, Note_on_c,13,47,70
14,571101, Note_on_c,13,47,0
14,571114, Note_on_c,13,47,70
14,571154, Note_on_c,13,47,0
14,571166, Note_on_c,13,47,70
14,571206, Note_on_c,13,47,0
14,571218, Note_on_c,13,47,70
14,571258, Note_on_c,13,47,0
14,571271, Note_on_c,13,47,70
14,571311, Note_on_c,13,47,0
14,571323, Note_on_c,13,47,70
14,571363, Note_on_c,13,47,0
14,571376, Note_on_c,13,47,70
14,571416, Note_on_c,13,47,0
14,571428, Note_on_c,13,47,70
14,571468, Note_on_c,13,47,0
14,571481, Note_on_c,13,47,70
14,571521, Note_on_c,13,47,0
14,571533, Note_on_c,13,47,70
14,571573, Note_on_c,13,47,0
14,571586, Note_on_c,13,47,70
14,571626, Note_on_c,13,47,0
14,571638, Note_on_c,13,47,70
14,571678, Note_on_c,13,47,0
14,571691, Note_on_c,13,47,70
14,571731, Note_on_c,13,47,0
14,571743, Note_on_c,13,47,70
14,571783, Note_on_c,13,47,0
14,571796, Note_on_c,13,47,70
14,571836, Note_on_c,13,47,0
14,571848, Note_on_c,13,47,70
14,571888, Note_on_c,13,47,0
14,571900, Note_on_c,13,47,70
14,571940, Note_on_c,13,47,0
14,571953, Note_on_c,13,47,70
14,571993, Note_on_c,13,47,0
14,572005, Note_on_c,13,47,70
14,572045, Note_on_c,13,47,0
14,572058, Note_on_c,13,47,70
14,572098, Note_on_c,13,47,0
14,572110, Note_on_c,13,47,70
14,572150, Note_on_c,13,47,0
14,572163, Note_on_c,13,47,70
14,572203, Note_on_c,13,47,0
14,572215, Note_on_c,13,47,70
14,572255, Note_on_c,13,47,0
14,572268, Note_on_c,13,47,70
14,572308, Note_on_c,13,47,0
14,572320, Note_on_c,13,47,70
14,572360, Note_on_c,13,47,0
14,572373, Note_on_c,13,47,70
14,572413, Note_on_c,13,47,0
14,572425, Note_on_c,13,47,70
14,572465, Note_on_c,13,47,0
14,572478, Note_on_c,13,47,70
14,572518, Note_on_c,13,47,0
14,572530, Note_on_c,13,47,70
14,572570, Note_on_c,13,47,0
14,572582, Note_on_c,13,47,70
14,572622, Note_on_c,13,47,0
14,572635, Note_on_c,13,47,70
14,572675, Note_on_c,13,47,0
14,572687, Note_on_c,13,47,70
14,572727, Note_on_c,13,47,0
14,572740, Note_on_c,13,47,70
14,572780, Note_on_c,13,47,0
14,572792, Note_on_c,13,47,70
14,572832, Note_on_c,13,47,0
14,572845, Note_on_c,13,47,70
14,572885, Note_on_c,13,47,0
14,572897, Note_on_c,13,47,70
14,572937, Note_on_c,13,47,0
14,572950, Note_on_c,13,47,70
14,572990, Note_on_c,13,47,0
14,573002, Note_on_c,13,47,70
14,573042, Note_on_c,13,47,0
14,573055, Note_on_c,13,47,70
14,573095, Note_on_c,13,47,0
14,573107, Note_on_c,13,47,70
14,573147, Note_on_c,13,47,0
14,573160, Note_on_c,13,47,70
14,573200, Note_on_c,13,47,0
14,573212, Note_on_c,13,47,70
14,573252, Note_on_c,13,47,0
14,573264, Note_on_c,13,47,70
14,573304, Note_on_c,13,47,0
14,573317, Note_on_c,13,47,70
14,573357, Note_on_c,13,47,0
14,573369, Note_on_c,13,47,70
14,573409, Note_on_c,13,47,0
14,573422, Note_on_c,13,47,70
14,573462, Note_on_c,13,47,0
14,573474, Note_on_c,13,47,70
14,573514, Note_on_c,13,47,0
14,573527, Note_on_c,13,47,70
14,573567, Note_on_c,13,47,0
14,573579, Note_on_c,13,47,70
14,573619, Note_on_c,13,47,0
14,573632, Note_on_c,13,47,70
14,573672, Note_on_c,13,47,0
14,573684, Note_on_c,13,47,70
14,573724, Note_on_c,13,47,0
14,573737, Note_on_c,13,47,70
14,573777, Note_on_c,13,47,0
14,573789, Note_on_c,13,47,70
14,573829, Note_on_c,13,47,0
14,573842, Note_on_c,13,47,70
14,573882, Note_on_c,13,47,0
14,573894, Note_on_c,13,47,70
14,573934, Note_on_c,13,47,0
14,573946, Note_on_c,13,47,70
14,573986, Note_on_c,13,47,0
14,573999, Note_on_c,13,47,70
14,574039, Note_on_c,13,47,0
14,574051, Note_on_c,13,47,70
14,574091, Note_on_c,13,47,0
14,574104, Note_on_c,13,47,70
14,574144, Note_on_c,13,47,0
14,574156, Note_on_c,13,47,70
14,574196, Note_on_c,13,47,0
14,574209, Note_on_c,13,47,70
14,574249, Note_on_c,13,47,0
14,574261, Note_on_c,13,47,70
14,574301, Note_on_c,13,47,0
14,574314, Note_on_c,13,47,70
14,574354, Note_on_c,13,47,0
14,574366, Note_on_c,13,47,70
14,574406, Note_on_c,13,47,0
14,574419, Note_on_c,13,47,70
14,574459, Note_on_c,13,47,0
14,574471, Note_on_c,13,47,70
14,574511, Note_on_c,13,47,0
14,574524, Note_on_c,13,47,70
14,574564, Note_on_c,13,47,0
14,574576, Note_on_c,13,47,70
14,574616, Note_on_c,13,47,0
14,574628, Note_on_c,13,47,70
14,574668, Note_on_c,13,47,0
14,574681, Note_on_c,13,47,70
14,574721, Note_on_c,13,47,0
14,574733, Note_on_c,13,47,70
14,574773, Note_on_c,13,47,0
14,574786, Note_on_c,13,47,70
14,574826, Note_on_c,13,47,0
14,574838, Note_on_c,13,47,70
14,574878, Note_on_c,13,47,0
14,574891, Note_on_c,13,47,70
14,574931, Note_on_c,13,47,0
14,574943, Note_on_c,13,47,70
14,574983, Note_on_c,13,47,0
14,574996, Note_on_c,13,47,70
14,575036, Note_on_c,13,47,0
14,575048, Note_on_c,13,47,70
14,575088, Note_on_c,13,47,0
14,575101, Note_on_c,13,47,70
14,575141, Note_on_c,13,47,0
14,575153, Note_on_c,13,47,70
14,575193, Note_on_c,13,47,0
14,575206, Note_on_c,13,47,70
14,575246, Note_on_c,13,47,0
14,575258, Note_on_c,13,47,70
14,575298, Note_on_c,13,47,0
14,575310, Note_on_c,13,47,70
14,575350, Note_on_c,13,47,0
14,575363, Note_on_c,13,47,70
14,575403, Note_on_c,13,47,0
14,575415, Note_on_c,13,47,70
14,575455, Note_on_c,13,47,0
14,575468, Note_on_c,13,47,70
14,575508, Note_on_c,13,47,0
14,575520, Note_on_c,13,47,70
14,575560, Note_on_c,13,47,0
14,575573, Note_on_c,13,47,70
14,575613, Note_on_c,13,47,0
14,575625, Note_on_c,13,47,70
14,575665, Note_on_c,13,47,0
14,575678, Note_on_c,13,47,70
14,575718, Note_on_c,13,47,0
14,575730, Note_on_c,13,47,70
14,575770, Note_on_c,13,47,0
14,575783, Note_on_c,13,47,70
14,575823, Note_on_c,13,47,0
14,575835, Note_on_c,13,47,70
14,575875, Note_on_c,13,47,0
14,575888, Note_on_c,13,47,70
14,575928, Note_on_c,13,47,0
14,575940, Note_on_c,13,47,70
14,575980, Note_on_c,13,47,0
14,575992, Note_on_c,13,47,70
14,576032, Note_on_c,13,47,0
14,576045, Note_on_c,13,47,70
14,576085, Note_on_c,13,47,0
14,576097, Note_on_c,13,47,70
14,576137, Note_on_c,13,47,0
14,576150, Note_on_c,13,47,70
14,576190, Note_on_c,13,47,0
14,576202, Note_on_c,13,47,70
14,576242, Note_on_c,13,47,0
14,576255, Note_on_c,13,47,70
14,576295, Note_on_c,13,47,0
14,576307, Note_on_c,13,47,70
14,576347, Note_on_c,13,47,0
14,576360, Note_on_c,13,47,70
14,576400, Note_on_c,13,47,0
14,576412, Note_on_c,13,47,70
14,576452, Note_on_c,13,47,0
14,576465, Note_on_c,13,47,70
14,576505, Note_on_c,13,47,0
14,576517, Note_on_c,13,47,70
14,576557, Note_on_c,13,47,0
14,576570, Note_on_c,13,47,70
14,576610, Note_on_c,13,47,0
14,576622, Note_on_c,13,47,70
14,576662, Note_on_c,13,47,0
14,576674, Note_on_c,13,47,70
14,576714, Note_on_c,13,47,0
14,576727, Note_on_c,13,47,70
14,576767, Note_on_c,13,47,0
14,576779, Note_on_c,13,47,70
14,576819, Note_on_c,13,47,0
14,576832, Note_on_c,13,47,70
14,576872, Note_on_c,13,47,0
14,576884, Note_on_c,13,47,70
14,576924, Note_on_c,13,47,0
14,576937, Note_on_c,13,47,70
14,576977, Note_on_c,13,47,0
14,576989, Note_on_c,13,47,70
14,577029, Note_on_c,13,47,0
14,577042, Note_on_c,13,47,70
14,577082, Note_on_c,13,47,0
14,577094, Note_on_c,13,47,70
14,577134, Note_on_c,13,47,0
14,577147, Note_on_c,13,47,70
14,577187, Note_on_c,13,47,0
14,577199, Note_on_c,13,47,70
14,577239, Note_on_c,13,47,0
14,577252, Note_on_c,13,47,70
14,577292, Note_on_c,13,47,0
14,577304, Note_on_c,13,47,70
14,577344, Note_on_c,13,47,0
14,577356, Note_on_c,13,47,70
14,577396, Note_on_c,13,47,0
14,577409, Note_on_c,13,47,70
14,577449, Note_on_c,13,47,0
14,577461, Note_on_c,13,47,70
14,577501, Note_on_c,13,47,0
14,577514, Note_on_c,13,47,70
14,577554, Note_on_c,13,47,0
14,577566, Note_on_c,13,47,70
14,577606, Note_on_c,13,47,0
14,577619, Note_on_c,13,47,70
14,577659, Note_on_c,13,47,0
14,577671, Note_on_c,13,47,70
14,577711, Note_on_c,13,47,0
14,577724, Note_on_c,13,47,70
14,577764, Note_on_c,13,47,0
14,577776, Note_on_c,13,47,70
14,577816, Note_on_c,13,47,0
14,577829, Note_on_c,13,47,70
14,577869, Note_on_c,13,47,0
14,577881, Note_on_c,13,47,70
14,577921, Note_on_c,13,47,0
14,577934, Control_c,13,11,80
14,577934, Note_on_c,13,47,70
14,577974, Note_on_c,13,47,0
14,577986, Note_on_c,13,47,70
14,578026, Note_on_c,13,47,0
14,578038, Note_on_c,13,47,70
14,578078, Note_on_c,13,47,0
14,578091, Note_on_c,13,47,70
14,578131, Note_on_c,13,47,0
14,578143, Note_on_c,13,47,70
14,578183, Note_on_c,13,47,0
14,578196, Note_on_c,13,47,70
14,578236, Note_on_c,13,47,0
14,578248, Note_on_c,13,47,70
14,578259, Control_c,13,11,81
14,578288, Note_on_c,13,47,0
14,578301, Note_on_c,13,47,71
14,578341, Note_on_c,13,47,0
14,578353, Note_on_c,13,47,71
14,578393, Note_on_c,13,47,0
14,578406, Note_on_c,13,47,71
14,578446, Note_on_c,13,47,0
14,578458, Note_on_c,13,47,71
14,578498, Note_on_c,13,47,0
14,578511, Note_on_c,13,47,71
14,578551, Note_on_c,13,47,0
14,578563, Note_on_c,13,47,71
14,578584, Control_c,13,11,82
14,578603, Note_on_c,13,47,0
14,578616, Note_on_c,13,47,72
14,578656, Note_on_c,13,47,0
14,578668, Note_on_c,13,47,72
14,578708, Note_on_c,13,47,0
14,578720, Note_on_c,13,47,72
14,578760, Note_on_c,13,47,0
14,578773, Note_on_c,13,47,72
14,578813, Note_on_c,13,47,0
14,578825, Note_on_c,13,47,72
14,578865, Note_on_c,13,47,0
14,578878, Note_on_c,13,47,72
14,578909, Control_c,13,11,83
14,578918, Note_on_c,13,47,0
14,578930, Note_on_c,13,47,73
14,578970, Note_on_c,13,47,0
14,578983, Note_on_c,13,47,73
14,579023, Note_on_c,13,47,0
14,579035, Note_on_c,13,47,73
14,579075, Note_on_c,13,47,0
14,579088, Note_on_c,13,47,73
14,579128, Note_on_c,13,47,0
14,579140, Note_on_c,13,47,73
14,579180, Note_on_c,13,47,0
14,579193, Note_on_c,13,47,73
14,579233, Note_on_c,13,47,0
14,579234, Control_c,13,11,84
14,579245, Note_on_c,13,47,74
14,579285, Note_on_c,13,47,0
14,579298, Note_on_c,13,47,74
14,579338, Note_on_c,13,47,0
14,579350, Note_on_c,13,47,74
14,579390, Note_on_c,13,47,0
14,579402, Note_on_c,13,47,74
14,579442, Note_on_c,13,47,0
14,579455, Note_on_c,13,47,74
14,579495, Note_on_c,13,47,0
14,579507, Note_on_c,13,47,74
14,579547, Note_on_c,13,47,0
14,579559, Control_c,13,11,85
14,579560, Note_on_c,13,47,75
14,579600, Note_on_c,13,47,0
14,579612, Note_on_c,13,47,75
14,579652, Note_on_c,13,47,0
14,579665, Note_on_c,13,47,75
14,579705, Note_on_c,13,47,0
14,579717, Note_on_c,13,47,75
14,579757, Note_on_c,13,47,0
14,579770, Note_on_c,13,47,75
14,579810, Note_on_c,13,47,0
14,579822, Note_on_c,13,47,75
14,579862, Note_on_c,13,47,0
14,579875, Note_on_c,13,47,75
14,579884, Control_c,13,11,86
14,579915, Note_on_c,13,47,0
14,579927, Note_on_c,13,47,76
14,579967, Note_on_c,13,47,0
14,579980, Note_on_c,13,47,76
14,580020, Note_on_c,13,47,0
14,580032, Note_on_c,13,47,76
14,580072, Note_on_c,13,47,0
14,580084, Note_on_c,13,47,76
14,580124, Note_on_c,13,47,0
14,580137, Note_on_c,13,47,76
14,580177, Note_on_c,13,47,0
14,580189, Note_on_c,13,47,76
14,580209, Control_c,13,11,87
14,580229, Note_on_c,13,47,0
14,580242, Note_on_c,13,47,77
14,580282, Note_on_c,13,47,0
14,580294, Note_on_c,13,47,77
14,580334, Note_on_c,13,47,0
14,580347, Note_on_c,13,47,77
14,580387, Note_on_c,13,47,0
14,580399, Note_on_c,13,47,77
14,580439, Note_on_c,13,47,0
14,580452, Note_on_c,13,47,77
14,580492, Note_on_c,13,47,0
14,580504, Note_on_c,13,47,77
14,580535, Control_c,13,11,88
14,580544, Note_on_c,13,47,0
14,580557, Note_on_c,13,47,78
14,580597, Note_on_c,13,47,0
14,580609, Note_on_c,13,47,78
14,580649, Note_on_c,13,47,0
14,580662, Note_on_c,13,47,78
14,580702, Note_on_c,13,47,0
14,580714, Note_on_c,13,47,78
14,580754, Note_on_c,13,47,0
14,580766, Note_on_c,13,47,78
14,580806, Note_on_c,13,47,0
14,580819, Note_on_c,13,47,78
14,580859, Note_on_c,13,47,0
14,580860, Control_c,13,11,89
14,580871, Note_on_c,13,47,79
14,580911, Note_on_c,13,47,0
14,580924, Note_on_c,13,47,79
14,580964, Note_on_c,13,47,0
14,580976, Note_on_c,13,47,79
14,581016, Note_on_c,13,47,0
14,581029, Note_on_c,13,47,79
14,581069, Note_on_c,13,47,0
14,581081, Note_on_c,13,47,79
14,581121, Note_on_c,13,47,0
14,581134, Note_on_c,13,47,79
14,581174, Note_on_c,13,47,0
14,581185, Control_c,13,11,90
14,581186, Note_on_c,13,47,80
14,581226, Note_on_c,13,47,0
14,581239, Note_on_c,13,47,80
14,581279, Note_on_c,13,47,0
14,581291, Note_on_c,13,47,80
14,581331, Note_on_c,13,47,0
14,581344, Note_on_c,13,47,80
14,581384, Note_on_c,13,47,0
14,581396, Note_on_c,13,47,80
14,581436, Note_on_c,13,47,0
14,581448, Note_on_c,13,47,80
14,581488, Note_on_c,13,47,0
14,581501, Note_on_c,13,47,80
14,581510, Control_c,13,11,91
14,581541, Note_on_c,13,47,0
14,581553, Note_on_c,13,47,81
14,581593, Note_on_c,13,47,0
14,581606, Note_on_c,13,47,81
14,581646, Note_on_c,13,47,0
14,581658, Note_on_c,13,47,81
14,581698, Note_on_c,13,47,0
14,581711, Note_on_c,13,47,81
14,581751, Note_on_c,13,47,0
14,581763, Note_on_c,13,47,81
14,581803, Note_on_c,13,47,0
14,581816, Note_on_c,13,47,81
14,581835, Control_c,13,11,92
14,581856, Note_on_c,13,47,0
14,581868, Note_on_c,13,47,82
14,581908, Note_on_c,13,47,0
14,581921, Note_on_c,13,47,82
14,581961, Note_on_c,13,47,0
14,581973, Note_on_c,13,47,82
14,582013, Note_on_c,13,47,0
14,582026, Note_on_c,13,47,82
14,582066, Note_on_c,13,47,0
14,582078, Note_on_c,13,47,82
14,582118, Note_on_c,13,47,0
14,582130, Note_on_c,13,47,82
14,582160, Control_c,13,11,93
14,582170, Note_on_c,13,47,0
14,582183, Note_on_c,13,47,83
14,582223, Note_on_c,13,47,0
14,582235, Note_on_c,13,47,83
14,582275, Note_on_c,13,47,0
14,582288, Note_on_c,13,47,83
14,582328, Note_on_c,13,47,0
14,582340, Note_on_c,13,47,83
14,582380, Note_on_c,13,47,0
14,582393, Note_on_c,13,47,83
14,582433, Note_on_c,13,47,0
14,582445, Note_on_c,13,47,83
14,582485, Note_on_c,13,47,0
14,582485, Control_c,13,11,94
14,582498, Note_on_c,13,47,84
14,582538, Note_on_c,13,47,0
14,582550, Note_on_c,13,47,84
14,582590, Note_on_c,13,47,0
14,582603, Note_on_c,13,47,84
14,582643, Note_on_c,13,47,0
14,582655, Note_on_c,13,47,84
14,582695, Note_on_c,13,47,0
14,582708, Note_on_c,13,47,84
14,582748, Note_on_c,13,47,0
14,582760, Note_on_c,13,47,84
14,582800, Note_on_c,13,47,0
14,582811, Control_c,13,11,95
14,582812, Note_on_c,13,47,85
14,582852, Note_on_c,13,47,0
14,582865, Note_on_c,13,47,85
14,582905, Note_on_c,13,47,0
14,582917, Note_on_c,13,47,85
14,582957, Note_on_c,13,47,0
14,582970, Note_on_c,13,47,85
14,583010, Note_on_c,13,47,0
14,583022, Note_on_c,13,47,85
14,583062, Note_on_c,13,47,0
14,583075, Note_on_c,13,47,85
14,583115, Note_on_c,13,47,0
14,583127, Note_on_c,13,47,85
14,583136, Control_c,13,11,96
14,583167, Note_on_c,13,47,0
14,583180, Note_on_c,13,47,86
14,583220, Note_on_c,13,47,0
14,583232, Note_on_c,13,47,86
14,583272, Note_on_c,13,47,0
14,583285, Note_on_c,13,47,86
14,583325, Note_on_c,13,47,0
14,583337, Note_on_c,13,47,86
14,583377, Note_on_c,13,47,0
14,583390, Note_on_c,13,47,86
14,583430, Note_on_c,13,47,0
14,583442, Note_on_c,13,47,86
14,583461, Control_c,13,11,97
14,583482, Note_on_c,13,47,0
14,583494, Note_on_c,13,47,87
14,583534, Note_on_c,13,47,0
14,583547, Note_on_c,13,47,87
14,583587, Note_on_c,13,47,0
14,583599, Note_on_c,13,47,87
14,583639, Note_on_c,13,47,0
14,583652, Note_on_c,13,47,87
14,583692, Note_on_c,13,47,0
14,583704, Note_on_c,13,47,87
14,583744, Note_on_c,13,47,0
14,583757, Note_on_c,13,47,87
14,583786, Control_c,13,11,98
14,583797, Note_on_c,13,47,0
14,583809, Note_on_c,13,47,88
14,583849, Note_on_c,13,47,0
14,583862, Note_on_c,13,47,88
14,583902, Note_on_c,13,47,0
14,583914, Note_on_c,13,47,88
14,583954, Note_on_c,13,47,0
14,583967, Note_on_c,13,47,88
14,584007, Note_on_c,13,47,0
14,584019, Note_on_c,13,47,88
14,584059, Note_on_c,13,47,0
14,584072, Note_on_c,13,47,88
14,584111, Control_c,13,11,99
14,584112, Note_on_c,13,47,0
14,584124, Note_on_c,13,47,89
14,584164, Note_on_c,13,47,0
14,584176, Note_on_c,13,47,89
14,584216, Note_on_c,13,47,0
14,584229, Note_on_c,13,47,89
14,584269, Note_on_c,13,47,0
14,584281, Note_on_c,13,47,89
14,584321, Note_on_c,13,47,0
14,584334, Note_on_c,13,47,89
14,584374, Note_on_c,13,47,0
14,584386, Note_on_c,13,47,89
14,584426, Note_on_c,13,47,0
14,584436, Control_c,13,11,100
14,584439, Note_on_c,13,47,90
14,584479, Note_on_c,13,47,0
14,584491, Note_on_c,13,47,90
14,584531, Note_on_c,13,47,0
14,584544, Note_on_c,13,47,90
14,584584, Note_on_c,13,47,0
14,584596, Note_on_c,13,47,90
14,584636, Note_on_c,13,47,0
14,584649, Note_on_c,13,47,90
14,584689, Note_on_c,13,47,0
14,584701, Note_on_c,13,47,90
14,584741, Note_on_c,13,47,0
14,584754, Note_on_c,13,47,90
14,584761, Control_c,13,11,101
14,584794, Note_on_c,13,47,0
14,584806, Note_on_c,13,47,91
14,584846, Note_on_c,13,47,0
14,584858, Note_on_c,13,47,91
14,584898, Note_on_c,13,47,0
14,584911, Note_on_c,13,47,91
14,584951, Note_on_c,13,47,0
14,584963, Note_on_c,13,47,91
14,585003, Note_on_c,13,47,0
14,585016, Note_on_c,13,47,91
14,585056, Note_on_c,13,47,0
14,585068, Note_on_c,13,47,91
14,585086, Control_c,13,11,102
14,585108, Note_on_c,13,47,0
14,585121, Note_on_c,13,47,92
14,585161, Note_on_c,13,47,0
14,585173, Note_on_c,13,47,92
14,585213, Note_on_c,13,47,0
14,585226, Note_on_c,13,47,92
14,585266, Note_on_c,13,47,0
14,585278, Note_on_c,13,47,92
14,585318, Note_on_c,13,47,0
14,585331, Note_on_c,13,47,92
14,585371, Note_on_c,13,47,0
14,585383, Note_on_c,13,47,92
14,585412, Control_c,13,11,103
14,585423, Note_on_c,13,47,0
14,585436, Note_on_c,13,47,93
14,585476, Note_on_c,13,47,0
14,585488, Note_on_c,13,47,93
14,585528, Note_on_c,13,47,0
14,585540, Note_on_c,13,47,93
14,585580, Note_on_c,13,47,0
14,585593, Note_on_c,13,47,93
14,585633, Note_on_c,13,47,0
14,585645, Note_on_c,13,47,93
14,585685, Note_on_c,13,47,0
14,585698, Note_on_c,13,47,93
14,585737, Control_c,13,11,104
14,585738, Note_on_c,13,47,0
14,585750, Note_on_c,13,47,94
14,585790, Note_on_c,13,47,0
14,585803, Note_on_c,13,47,94
14,585843, Note_on_c,13,47,0
14,585855, Note_on_c,13,47,94
14,585895, Note_on_c,13,47,0
14,585908, Note_on_c,13,47,94
14,585948, Note_on_c,13,47,0
14,585960, Note_on_c,13,47,94
14,586000, Note_on_c,13,47,0
14,586013, Note_on_c,13,47,94
14,586053, Note_on_c,13,47,0
14,586062, Control_c,13,11,105
14,586065, Note_on_c,13,47,95
14,586105, Note_on_c,13,47,0
14,586118, Note_on_c,13,47,95
14,586158, Note_on_c,13,47,0
14,586170, Note_on_c,13,47,95
14,586210, Note_on_c,13,47,0
14,586222, Note_on_c,13,47,95
14,586262, Note_on_c,13,47,0
14,586274, Note_on_c,13,47,95
14,586314, Note_on_c,13,47,0
14,586327, Note_on_c,13,47,95
14,586367, Note_on_c,13,47,0
14,586379, Note_on_c,13,47,95
14,586387, Control_c,13,11,106
14,586419, Note_on_c,13,47,0
14,586431, Note_on_c,13,47,96
14,586471, Note_on_c,13,47,0
14,586484, Note_on_c,13,47,96
14,586524, Note_on_c,13,47,0
14,586536, Note_on_c,13,47,96
14,586576, Note_on_c,13,47,0
14,586589, Note_on_c,13,47,96
14,586629, Note_on_c,13,47,0
14,586641, Note_on_c,13,47,96
14,586681, Note_on_c,13,47,0
14,586694, Note_on_c,13,47,96
14,586712, Control_c,13,11,107
14,586734, Note_on_c,13,47,0
14,586746, Note_on_c,13,47,97
14,586786, Note_on_c,13,47,0
14,586799, Note_on_c,13,47,97
14,586839, Note_on_c,13,47,0
14,586851, Note_on_c,13,47,97
14,586891, Note_on_c,13,47,0
14,586904, Note_on_c,13,47,97
14,586944, Note_on_c,13,47,0
14,586956, Note_on_c,13,47,97
14,586996, Note_on_c,13,47,0
14,587009, Note_on_c,13,47,97
14,587037, Control_c,13,11,108
14,587049, Note_on_c,13,47,0
14,587061, Note_on_c,13,47,98
14,587101, Note_on_c,13,47,0
14,587113, Note_on_c,13,47,98
14,587153, Note_on_c,13,47,0
14,587165, Note_on_c,13,47,98
14,587205, Note_on_c,13,47,0
14,587218, Note_on_c,13,47,98
14,587258, Note_on_c,13,47,0
14,587270, Note_on_c,13,47,98
14,587310, Note_on_c,13,47,0
14,587322, Note_on_c,13,47,98
14,587362, Note_on_c,13,47,0
14,587362, Control_c,13,11,109
14,587375, Note_on_c,13,47,99
14,587415, Note_on_c,13,47,0
14,587427, Note_on_c,13,47,99
14,587467, Note_on_c,13,47,0
14,587480, Note_on_c,13,47,99
14,587520, Note_on_c,13,47,0
14,587532, Note_on_c,13,47,99
14,587572, Note_on_c,13,47,0
14,587585, Note_on_c,13,47,99
14,587625, Note_on_c,13,47,0
14,587637, Note_on_c,13,47,99
14,587677, Note_on_c,13,47,0
14,587688, Control_c,13,11,110
14,587690, Note_on_c,13,47,110
14,587730, Note_on_c,13,47,0
14,588828, Note_on_c,13,47,110
14,588868, Note_on_c,13,47,0
14,589968, Note_on_c,13,47,110
14,590008, Note_on_c,13,47,0
14,591108, Note_on_c,13,47,110
14,591148, Note_on_c,13,47,0
14,618036, Note_on_c,13,46,110
14,618076, Note_on_c,13,46,0
14,725092, Control_c,13,11,70
14,725340, Note_on_c,13,41,70
14,725380, Note_on_c,13,41,0
14,725430, Note_on_c,13,41,70
14,725470, Note_on_c,13,41,0
14,725520, Note_on_c,13,41,70
14,725532, Control_c,13,11,71
14,725560, Note_on_c,13,41,0
14,725610, Note_on_c,13,41,70
14,725650, Note_on_c,13,41,0
14,725700, Note_on_c,13,41,70
14,725740, Note_on_c,13,41,0
14,725790, Note_on_c,13,41,70
14,725830, Note_on_c,13,41,0
14,725880, Note_on_c,13,41,70
14,725920, Note_on_c,13,41,0
14,725970, Note_on_c,13,41,70
14,725972, Control_c,13,11,72
14,726010, Note_on_c,13,41,0
14,726060, Note_on_c,13,41,70
14,726100, Note_on_c,13,41,0
14,726150, Note_on_c,13,41,70
14,726190, Note_on_c,13,41,0
14,726240, Note_on_c,13,41,70
14,726280, Note_on_c,13,41,0
14,726330, Note_on_c,13,41,70
14,726370, Note_on_c,13,41,0
14,726412, Control_c,13,11,73
14,726420, Note_on_c,13,41,70
14,726460, Note_on_c,13,41,0
14,726510, Note_on_c,13,41,70
14,726550, Note_on_c,13,41,0
14,726600, Note_on_c,13,41,70
14,726640, Note_on_c,13,41,0
14,726690, Note_on_c,13,41,70
14,726730, Note_on_c,13,41,0
14,726780, Note_on_c,13,41,70
14,726820, Note_on_c,13,41,0
14,726853, Control_c,13,11,74
14,726870, Note_on_c,13,41,70
14,726910, Note_on_c,13,41,0
14,726960, Note_on_c,13,41,70
14,727000, Note_on_c,13,41,0
14,727050, Note_on_c,13,41,70
14,727090, Note_on_c,13,41,0
14,727140, Note_on_c,13,41,70
14,727180, Note_on_c,13,41,0
14,727230, Note_on_c,13,41,70
14,727270, Note_on_c,13,41,0
14,727293, Control_c,13,11,75
14,727320, Note_on_c,13,41,70
14,727360, Note_on_c,13,41,0
14,727410, Note_on_c,13,41,70
14,727450, Note_on_c,13,41,0
14,727500, Note_on_c,13,41,70
14,727540, Note_on_c,13,41,0
14,727590, Note_on_c,13,41,70
14,727630, Note_on_c,13,41,0
14,727680, Note_on_c,13,41,70
14,727720, Note_on_c,13,41,0
14,727733, Control_c,13,11,76
14,727770, Note_on_c,13,41,70
14,727810, Note_on_c,13,41,0
14,727860, Note_on_c,13,41,70
14,727900, Note_on_c,13,41,0
14,727950, Note_on_c,13,41,70
14,727990, Note_on_c,13,41,0
14,728040, Note_on_c,13,41,70
14,728080, Note_on_c,13,41,0
14,728130, Note_on_c,13,41,70
14,728170, Note_on_c,13,41,0
14,728173, Control_c,13,11,77
14,728220, Note_on_c,13,41,70
14,728260, Note_on_c,13,41,0
14,728310, Note_on_c,13,41,70
14,728350, Note_on_c,13,41,0
14,728400, Note_on_c,13,41,70
14,728440, Note_on_c,13,41,0
14,728490, Note_on_c,13,41,70
14,728530, Note_on_c,13,41,0
14,728580, Note_on_c,13,41,70
14,728614, Control_c,13,11,78
14,728620, Note_on_c,13,41,0
14,728670, Note_on_c,13,41,70
14,728710, Note_on_c,13,41,0
14,728760, Note_on_c,13,41,70
14,728800, Note_on_c,13,41,0
14,728850, Note_on_c,13,41,70
14,728890, Note_on_c,13,41,0
14,728940, Note_on_c,13,41,70
14,728980, Note_on_c,13,41,0
14,729030, Note_on_c,13,41,70
14,729054, Control_c,13,11,79
14,729070, Note_on_c,13,41,0
14,729120, Note_on_c,13,41,70
14,729160, Note_on_c,13,41,0
14,729210, Note_on_c,13,41,70
14,729250, Note_on_c,13,41,0
14,729300, Note_on_c,13,41,70
14,729340, Note_on_c,13,41,0
14,729390, Note_on_c,13,41,70
14,729430, Note_on_c,13,41,0
14,729480, Note_on_c,13,41,70
14,729494, Control_c,13,11,80
14,729520, Note_on_c,13,41,0
14,729570, Note_on_c,13,41,70
14,729610, Note_on_c,13,41,0
14,729660, Note_on_c,13,41,70
14,729700, Note_on_c,13,41,0
14,729750, Note_on_c,13,41,70
14,729790, Note_on_c,13,41,0
14,729840, Note_on_c,13,41,70
14,729880, Note_on_c,13,41,0
14,729930, Note_on_c,13,41,70
14,729934, Control_c,13,11,81
14,729970, Note_on_c,13,41,0
14,730020, Note_on_c,13,41,70
14,730060, Note_on_c,13,41,0
14,730110, Note_on_c,13,41,70
14,730150, Note_on_c,13,41,0
14,730200, Note_on_c,13,41,70
14,730240, Note_on_c,13,41,0
14,730290, Note_on_c,13,41,70
14,730330, Note_on_c,13,41,0
14,730375, Control_c,13,11,82
14,730380, Note_on_c,13,41,70
14,730420, Note_on_c,13,41,0
14,730470, Note_on_c,13,41,70
14,730510, Note_on_c,13,41,0
14,730560, Note_on_c,13,41,70
14,730600, Note_on_c,13,41,0
14,730650, Note_on_c,13,41,70
14,730690, Note_on_c,13,41,0
14,730740, Note_on_c,13,41,70
14,730780, Note_on_c,13,41,0
14,730815, Control_c,13,11,83
14,730830, Note_on_c,13,41,70
14,730870, Note_on_c,13,41,0
14,730920, Note_on_c,13,41,70
14,730960, Note_on_c,13,41,0
14,731010, Note_on_c,13,41,70
14,731050, Note_on_c,13,41,0
14,731100, Note_on_c,13,41,70
14,731140, Note_on_c,13,41,0
14,731190, Note_on_c,13,41,70
14,731230, Note_on_c,13,41,0
14,731255, Control_c,13,11,84
14,731280, Note_on_c,13,41,70
14,731320, Note_on_c,13,41,0
14,731370, Note_on_c,13,41,70
14,731410, Note_on_c,13,41,0
14,731460, Note_on_c,13,41,70
14,731500, Note_on_c,13,41,0
14,731550, Note_on_c,13,41,70
14,731590, Note_on_c,13,41,0
14,731640, Note_on_c,13,41,70
14,731680, Note_on_c,13,41,0
14,731696, Control_c,13,11,85
14,731730, Note_on_c,13,41,70
14,731770, Note_on_c,13,41,0
14,731820, Note_on_c,13,41,70
14,731860, Note_on_c,13,41,0
14,731910, Note_on_c,13,41,70
14,731950, Note_on_c,13,41,0
14,732000, Note_on_c,13,41,70
14,732040, Note_on_c,13,41,0
14,732090, Note_on_c,13,41,70
14,732130, Note_on_c,13,41,0
14,732136, Control_c,13,11,86
14,732180, Note_on_c,13,41,70
14,732220, Note_on_c,13,41,0
14,732270, Note_on_c,13,41,70
14,732310, Note_on_c,13,41,0
14,732360, Note_on_c,13,41,70
14,732400, Note_on_c,13,41,0
14,732450, Note_on_c,13,41,70
14,732490, Note_on_c,13,41,0
14,732540, Note_on_c,13,41,70
14,732576, Control_c,13,11,87
14,732580, Note_on_c,13,41,0
14,732630, Note_on_c,13,41,70
14,732670, Note_on_c,13,41,0
14,732720, Note_on_c,13,41,70
14,732760, Note_on_c,13,41,0
14,732810, Note_on_c,13,41,70
14,732850, Note_on_c,13,41,0
14,732900, Note_on_c,13,41,70
14,732940, Note_on_c,13,41,0
14,732990, Note_on_c,13,41,70
14,733016, Control_c,13,11,88
14,733030, Note_on_c,13,41,0
14,733080, Note_on_c,13,41,70
14,733120, Note_on_c,13,41,0
14,733170, Note_on_c,13,41,70
14,733210, Note_on_c,13,41,0
14,733260, Note_on_c,13,41,70
14,733300, Note_on_c,13,41,0
14,733350, Note_on_c,13,41,70
14,733390, Note_on_c,13,41,0
14,733440, Note_on_c,13,41,70
14,733457, Control_c,13,11,89
14,733480, Note_on_c,13,41,0
14,733530, Note_on_c,13,41,70
14,733570, Note_on_c,13,41,0
14,733620, Note_on_c,13,41,70
14,733660, Note_on_c,13,41,0
14,733710, Note_on_c,13,41,70
14,733750, Note_on_c,13,41,0
14,733800, Note_on_c,13,41,70
14,733840, Note_on_c,13,41,0
14,733890, Note_on_c,13,41,70
14,733897, Control_c,13,11,90
14,733930, Note_on_c,13,41,0
14,733980, Note_on_c,13,41,70
14,734020, Note_on_c,13,41,0
14,734070, Note_on_c,13,41,70
14,734110, Note_on_c,13,41,0
14,734160, Note_on_c,13,41,70
14,734200, Note_on_c,13,41,0
14,734250, Note_on_c,13,41,70
14,734290, Note_on_c,13,41,0
14,734337, Control_c,13,11,91
14,734340, Note_on_c,13,41,70
14,734380, Note_on_c,13,41,0
14,734430, Note_on_c,13,41,70
14,734470, Note_on_c,13,41,0
14,734520, Note_on_c,13,41,70
14,734560, Note_on_c,13,41,0
14,734610, Note_on_c,13,41,70
14,734650, Note_on_c,13,41,0
14,734700, Note_on_c,13,41,70
14,734740, Note_on_c,13,41,0
14,734777, Control_c,13,11,92
14,734790, Note_on_c,13,41,70
14,734830, Note_on_c,13,41,0
14,734880, Note_on_c,13,41,70
14,734920, Note_on_c,13,41,0
14,734970, Note_on_c,13,41,70
14,735010, Note_on_c,13,41,0
14,735060, Note_on_c,13,41,70
14,735100, Note_on_c,13,41,0
14,735150, Note_on_c,13,41,70
14,735190, Note_on_c,13,41,0
14,735218, Control_c,13,11,93
14,735240, Note_on_c,13,41,70
14,735280, Note_on_c,13,41,0
14,735330, Note_on_c,13,41,70
14,735370, Note_on_c,13,41,0
14,735420, Note_on_c,13,41,70
14,735460, Note_on_c,13,41,0
14,735510, Note_on_c,13,41,70
14,735550, Note_on_c,13,41,0
14,735600, Note_on_c,13,41,70
14,735640, Note_on_c,13,41,0
14,735658, Control_c,13,11,94
14,735690, Note_on_c,13,41,70
14,735730, Note_on_c,13,41,0
14,735780, Note_on_c,13,41,70
14,735820, Note_on_c,13,41,0
14,735870, Note_on_c,13,41,70
14,735910, Note_on_c,13,41,0
14,735960, Note_on_c,13,41,70
14,736000, Note_on_c,13,41,0
14,736050, Note_on_c,13,41,70
14,736090, Note_on_c,13,41,0
14,736098, Control_c,13,11,95
14,736140, Note_on_c,13,41,70
14,736180, Note_on_c,13,41,0
14,736230, Note_on_c,13,41,70
14,736270, Note_on_c,13,41,0
14,736320, Note_on_c,13,41,70
14,736360, Note_on_c,13,41,0
14,736410, Note_on_c,13,41,70
14,736450, Note_on_c,13,41,0
14,736500, Note_on_c,13,41,70
14,736538, Control_c,13,11,96
14,736540, Note_on_c,13,41,0
14,736590, Note_on_c,13,41,70
14,736630, Note_on_c,13,41,0
14,736680, Note_on_c,13,41,70
14,736720, Note_on_c,13,41,0
14,736770, Note_on_c,13,41,70
14,736810, Note_on_c,13,41,0
14,736860, Note_on_c,13,41,70
14,736900, Note_on_c,13,41,0
14,736950, Note_on_c,13,41,70
14,736979, Control_c,13,11,97
14,736990, Note_on_c,13,41,0
14,737040, Note_on_c,13,41,70
14,737080, Note_on_c,13,41,0
14,737130, Note_on_c,13,41,70
14,737170, Note_on_c,13,41,0
14,737220, Note_on_c,13,41,70
14,737260, Note_on_c,13,41,0
14,737310, Note_on_c,13,41,70
14,737350, Note_on_c,13,41,0
14,737400, Note_on_c,13,41,70
14,737419, Control_c,13,11,98
14,737440, Note_on_c,13,41,0
14,737490, Note_on_c,13,41,70
14,737530, Note_on_c,13,41,0
14,737580, Note_on_c,13,41,70
14,737620, Note_on_c,13,41,0
14,737670, Note_on_c,13,41,70
14,737710, Note_on_c,13,41,0
14,737760, Note_on_c,13,41,70
14,737800, Note_on_c,13,41,0
14,737850, Note_on_c,13,41,70
14,737859, Control_c,13,11,99
14,737890, Note_on_c,13,41,0
14,737940, Note_on_c,13,41,70
14,737980, Note_on_c,13,41,0
14,738030, Note_on_c,13,41,70
14,738070, Note_on_c,13,41,0
14,738120, Note_on_c,13,41,70
14,738160, Note_on_c,13,41,0
14,738210, Note_on_c,13,41,70
14,738250, Note_on_c,13,41,0
14,738300, Control_c,13,11,100
14,738300, Note_on_c,13,41,70
14,738340, Note_on_c,13,41,0
14,747432, Note_on_c,13,46,80
14,747472, Note_on_c,13,46,0
14,747712, Note_on_c,13,46,82
14,747752, Note_on_c,13,46,0
14,747982, Note_on_c,13,46,85
14,748022, Note_on_c,13,46,0
14,748262, Note_on_c,13,46,88
14,748302, Note_on_c,13,46,0
14,748542, Note_on_c,13,46,91
14,748582, Note_on_c,13,46,0
14,748822, Note_on_c,13,46,94
14,748862, Note_on_c,13,46,0
14,749102, Note_on_c,13,46,97
14,749142, Note_on_c,13,46,0
14,749382, Note_on_c,13,46,99
14,749422, Note_on_c,13,46,0
14,750534, Note_on_c,13,46,90
14,750574, Note_on_c,13,46,0
14,751588, Note_on_c,13,46,90
14,751628, Note_on_c,13,46,0
14,752132, Note_on_c,13,46,90
14,752172, Note_on_c,13,46,0
14,752715, Note_on_c,13,46,90
14,752755, Note_on_c,13,46,0
14,753244, Note_on_c,13,46,90
14,753284, Note_on_c,13,46,0
14,753852, Note_on_c,13,46,90
14,753892, Note_on_c,13,46,0
14,918001, Note_on_c,13,46,90
14,918051, Note_on_c,13,46,0
14,918053, Note_on_c,13,46,90
14,918103, Note_on_c,13,46,0
14,918106, Note_on_c,13,46,90
14,918156, Note_on_c,13,46,0
14,918158, Note_on_c,13,46,90
14,918208, Note_on_c,13,46,0
14,918211, Note_on_c,13,46,90
14,918261, Note_on_c,13,46,0
14,918263, Note_on_c,13,46,90
14,918313, Note_on_c,13,46,0
14,918316, Note_on_c,13,46,90
14,918366, Note_on_c,13,46,0
14,918368, Note_on_c,13,46,90
14,918418, Note_on_c,13,46,0
14,918421, Note_on_c,13,46,90
14,918471, Note_on_c,13,46,0
14,918473, Note_on_c,13,46,90
14,918523, Note_on_c,13,46,0
14,918526, Note_on_c,13,46,90
14,918576, Note_on_c,13,46,0
14,918578, Note_on_c,13,46,90
14,918628, Note_on_c,13,46,0
14,918631, Note_on_c,13,46,90
14,918681, Note_on_c,13,46,0
14,918689, Note_on_c,13,46,90
14,918729, Note_on_c,13,46,0
14,920717, Note_on_c,13,46,90
14,920757, Note_on_c,13,46,0
14,921137, Note_on_c,13,46,90
14,921177, Note_on_c,13,46,0
14,921557, Note_on_c,13,46,90
14,921597, Note_on_c,13,46,0
14,923541, Note_on_c,13,46,90
14,923581, Note_on_c,13,46,0
14,923907, Note_on_c,13,46,90
14,923947, Note_on_c,13,46,0
14,924273, Note_on_c,13,46,90
14,924313, Note_on_c,13,46,0
14,924969, Note_on_c,13,46,90
14,925009, Note_on_c,13,46,0
14,926349, Note_on_c,13,46,90
14,926389, Note_on_c,13,46,0
14,927725, Note_on_c,13,46,90
14,927765, Note_on_c,13,46,0
14,935437, Note_on_c,13,46,90
14,935477, Note_on_c,13,46,0
14,936141, Note_on_c,13,46,90
14,936181, Note_on_c,13,46,0
14,938297, Note_on_c,13,46,90
14,938337, Note_on_c,13,46,0
14,939009, Note_on_c,13,46,90
14,939049, Note_on_c,13,46,0
14,939749, Note_on_c,13,46,90
14,939789, Note_on_c,13,46,0
14,940457, Note_on_c,13,46,90
14,940497, Note_on_c,13,46,0
14,941185, Note_on_c,13,46,90
14,941225, Note_on_c,13,46,0
14,941901, Note_on_c,13,46,90
14,941941, Note_on_c,13,46,0
14,942269, Note_on_c,13,46,90
14,942309, Note_on_c,13,46,0
14,942637, Note_on_c,13,46,91
14,942677, Note_on_c,13,46,0
14,943005, Note_on_c,13,46,92
14,943045, Note_on_c,13,46,0
14,943373, Note_on_c,13,46,94
14,943413, Note_on_c,13,46,0
14,943741, Note_on_c,13,46,95
14,943781, Note_on_c,13,46,0
14,944109, Note_on_c,13,46,97
14,944149, Note_on_c,13,46,0
14,944477, Note_on_c,13,46,98
14,944517, Note_on_c,13,46,0
14,944845, Note_on_c,13,46,90
14,944885, Note_on_c,13,46,0
14,946209, Note_on_c,13,46,90
14,946249, Note_on_c,13,46,0
14,946873, Note_on_c,13,46,90
14,946913, Note_on_c,13,46,0
14,947529, Note_on_c,13,46,90
14,947569, Note_on_c,13,46,0
14,948825, Note_on_c,13,46,90
14,948865, Note_on_c,13,46,0
14,950161, Note_on_c,13,46,90
14,950201, Note_on_c,13,46,0
14,950809, Note_on_c,13,46,90
14,950849, Note_on_c,13,46,0
14,951501, Note_on_c,13,46,90
14,951541, Note_on_c,13,46,0
14,952177, Note_on_c,13,46,90
14,952217, Note_on_c,13,46,0
14,952877, Note_on_c,13,46,90
14,952917, Note_on_c,13,46,0
14,953249, Note_on_c,13,51,90
14,953289, Note_on_c,13,51,0
14,953673, Note_on_c,13,46,90
14,953713, Note_on_c,13,46,0
14,954549, Note_on_c,13,46,100
14,954599, Note_on_c,13,46,0
14,954601, Note_on_c,13,46,90
14,954651, Note_on_c,13,46,0
14,954654, Note_on_c,13,46,90
14,954704, Note_on_c,13,46,0
14,954706, Note_on_c,13,46,90
14,954756, Note_on_c,13,46,0
14,954759, Note_on_c,13,46,90
14,954809, Note_on_c,13,46,0
14,954811, Note_on_c,13,46,90
14,954861, Note_on_c,13,46,0
14,954864, Note_on_c,13,46,90
14,954914, Note_on_c,13,46,0
14,954916, Note_on_c,13,46,90
14,954966, Note_on_c,13,46,0
14,954969, Note_on_c,13,46,90
14,955019, Note_on_c,13,46,0
14,955021, Note_on_c,13,46,90
14,955071, Note_on_c,13,46,0
14,955074, Note_on_c,13,46,90
14,955124, Note_on_c,13,46,0
14,955126, Note_on_c,13,46,90
14,955176, Note_on_c,13,46,0
14,955179, Note_on_c,13,46,90
14,955229, Note_on_c,13,46,0
14,955231, Note_on_c,13,46,90
14,955281, Note_on_c,13,46,0
14,955283, Note_on_c,13,46,90
14,955333, Note_on_c,13,46,0
14,955335, Note_on_c,13,46,90
14,955385, Note_on_c,13,46,0
14,955388, Note_on_c,13,46,90
14,955438, Note_on_c,13,46,0
14,955440, Note_on_c,13,46,90
14,955490, Note_on_c,13,46,0
14,955493, Note_on_c,13,46,90
14,955543, Note_on_c,13,46,0
14,955545, Note_on_c,13,46,90
14,955595, Note_on_c,13,46,0
14,955598, Note_on_c,13,46,90
14,955648, Note_on_c,13,46,0
14,955650, Note_on_c,13,46,90
14,955700, Note_on_c,13,46,0
14,955703, Note_on_c,13,46,90
14,955753, Note_on_c,13,46,0
14,955755, Note_on_c,13,46,90
14,955805, Note_on_c,13,46,0
14,955808, Note_on_c,13,46,90
14,955858, Note_on_c,13,46,0
14,955860, Note_on_c,13,46,90
14,955910, Note_on_c,13,46,0
14,955913, Note_on_c,13,46,90
14,955963, Note_on_c,13,46,0
14,955965, Note_on_c,13,46,90
14,956015, Note_on_c,13,46,0
14,956017, Note_on_c,13,46,90
14,956067, Note_on_c,13,46,0
14,956069, Note_on_c,13,46,90
14,956119, Note_on_c,13,46,0
14,956460, Control_c,13,121,0
14,956460, End_track,,,
15,0, Start_track,,,
15,0, MIDI_port,0,,
15,0, Title_t," ""Trumpets""",,
15,0, Control_c,14,0,0
15,0, Control_c,14,32,0
15,0, Program_c,14,56,
15,0, Control_c,14,7,100
15,0, Control_c,14,10,90
15,3272, Control_c,14,11,80
15,3356, Control_c,14,91,127
15,3356, Note_on_c,14,61,80
15,3356, Note_on_c,14,65,80
15,3612, Note_on_c,14,65,0
15,3612, Note_on_c,14,61,0
15,4908, Note_on_c,14,61,80
15,4908, Note_on_c,14,65,80
15,5164, Note_on_c,14,65,0
15,5164, Note_on_c,14,61,0
15,6432, Note_on_c,14,63,80
15,6432, Note_on_c,14,60,80
15,6936, Note_on_c,14,60,0
15,6936, Note_on_c,14,63,0
15,6968, Note_on_c,14,61,80
15,6968, Note_on_c,14,56,80
15,7472, Note_on_c,14,56,0
15,7472, Note_on_c,14,61,0
15,7528, Note_on_c,14,61,80
15,7528, Note_on_c,14,58,80
15,8032, Note_on_c,14,58,0
15,8032, Note_on_c,14,61,0
15,8088, Note_on_c,14,58,80
15,8088, Note_on_c,14,61,80
15,8622, Note_on_c,14,61,0
15,8622, Note_on_c,14,58,0
15,8672, Note_on_c,14,60,80
15,8672, Note_on_c,14,56,80
15,9226, Note_on_c,14,56,0
15,9226, Note_on_c,14,60,0
15,9316, Note_on_c,14,61,80
15,9316, Note_on_c,14,53,80
15,9820, Note_on_c,14,53,0
15,9820, Note_on_c,14,61,0
15,107518, Note_on_c,14,56,80
15,107518, Note_on_c,14,61,80
15,107768, Note_on_c,14,61,0
15,107768, Note_on_c,14,56,0
15,109262, Note_on_c,14,56,80
15,109262, Note_on_c,14,61,80
15,109512, Note_on_c,14,61,0
15,109512, Note_on_c,14,56,0
15,111058, Note_on_c,14,54,80
15,111058, Note_on_c,14,58,80
15,111308, Note_on_c,14,58,0
15,111308, Note_on_c,14,54,0
15,112858, Note_on_c,14,54,80
15,112858, Note_on_c,14,58,80
15,113108, Note_on_c,14,58,0
15,113108, Note_on_c,14,54,0
15,114622, Note_on_c,14,56,80
15,114622, Note_on_c,14,60,80
15,114872, Note_on_c,14,60,0
15,114872, Note_on_c,14,56,0
15,116386, Note_on_c,14,56,80
15,116386, Note_on_c,14,60,80
15,116636, Note_on_c,14,60,0
15,116636, Note_on_c,14,56,0
15,118171, Note_on_c,14,56,80
15,118171, Note_on_c,14,61,80
15,118421, Note_on_c,14,61,0
15,118421, Note_on_c,14,56,0
15,119326, Note_on_c,14,56,80
15,119326, Note_on_c,14,61,80
15,119576, Note_on_c,14,61,0
15,119576, Note_on_c,14,56,0
15,119932, Note_on_c,14,60,80
15,119932, Note_on_c,14,56,80
15,120182, Note_on_c,14,56,0
15,120182, Note_on_c,14,60,0
15,121786, Note_on_c,14,56,80
15,121786, Note_on_c,14,61,80
15,122036, Note_on_c,14,61,0
15,122036, Note_on_c,14,56,0
15,123594, Note_on_c,14,61,80
15,123594, Note_on_c,14,56,80
15,123844, Note_on_c,14,56,0
15,123844, Note_on_c,14,61,0
15,125374, Note_on_c,14,58,80
15,125374, Note_on_c,14,61,80
15,125624, Note_on_c,14,61,0
15,125624, Note_on_c,14,58,0
15,127122, Note_on_c,14,58,80
15,127122, Note_on_c,14,60,80
15,127372, Note_on_c,14,60,0
15,127372, Note_on_c,14,58,0
15,128854, Note_on_c,14,53,80
15,128854, Note_on_c,14,60,80
15,129104, Note_on_c,14,60,0
15,129104, Note_on_c,14,53,0
15,129454, Note_on_c,14,53,80
15,129454, Note_on_c,14,58,80
15,129704, Note_on_c,14,58,0
15,129704, Note_on_c,14,53,0
15,130062, Note_on_c,14,51,80
15,130062, Note_on_c,14,58,80
15,130312, Note_on_c,14,58,0
15,130312, Note_on_c,14,51,0
15,130674, Note_on_c,14,56,80
15,130674, Note_on_c,14,51,80
15,130924, Note_on_c,14,51,0
15,130924, Note_on_c,14,56,0
15,131274, Note_on_c,14,53,80
15,131274, Note_on_c,14,56,80
15,131524, Note_on_c,14,56,0
15,131524, Note_on_c,14,53,0
15,131850, Note_on_c,14,53,80
15,131850, Note_on_c,14,58,80
15,132100, Note_on_c,14,58,0
15,132100, Note_on_c,14,53,0
15,132450, Note_on_c,14,53,80
15,132450, Note_on_c,14,56,80
15,132700, Note_on_c,14,56,0
15,132700, Note_on_c,14,53,0
15,134230, Note_on_c,14,58,80
15,134230, Note_on_c,14,51,80
15,134480, Note_on_c,14,51,0
15,134480, Note_on_c,14,58,0
15,163201, Control_c,14,11,70
15,163210, Program_c,14,60,
15,163284, Note_on_c,14,72,80
15,163284, Note_on_c,14,60,80
15,164397, Note_on_c,14,60,0
15,164397, Note_on_c,14,72,0
15,164400, Note_on_c,14,72,80
15,164400, Note_on_c,14,60,80
15,164844, Note_on_c,14,60,0
15,164844, Note_on_c,14,72,0
15,164848, Note_on_c,14,72,80
15,164848, Note_on_c,14,60,80
15,165008, Note_on_c,14,60,0
15,165008, Note_on_c,14,72,0
15,165012, Note_on_c,14,72,80
15,165012, Note_on_c,14,60,80
15,165780, Note_on_c,14,60,0
15,165780, Note_on_c,14,72,0
15,166608, Note_on_c,14,72,80
15,166608, Note_on_c,14,60,80
15,167644, Note_on_c,14,60,0
15,167644, Note_on_c,14,72,0
15,167644, Note_on_c,14,72,80
15,167644, Note_on_c,14,60,80
15,168108, Note_on_c,14,72,80
15,168108, Note_on_c,14,60,80
15,168268, Note_on_c,14,60,0
15,168268, Note_on_c,14,72,0
15,168268, Note_on_c,14,72,80
15,168268, Note_on_c,14,60,80
15,168412, Note_on_c,14,60,0
15,168412, Note_on_c,14,72,0
15,169036, Note_on_c,14,60,0
15,169036, Note_on_c,14,72,0
15,177696, Note_on_c,14,72,80
15,177696, Note_on_c,14,60,80
15,178160, Note_on_c,14,60,0
15,178160, Note_on_c,14,72,0
15,178168, Note_on_c,14,72,80
15,178168, Note_on_c,14,60,80
15,178336, Note_on_c,14,60,0
15,178336, Note_on_c,14,72,0
15,178340, Note_on_c,14,72,80
15,178340, Note_on_c,14,60,80
15,180076, Note_on_c,14,60,0
15,180076, Note_on_c,14,72,0
15,180084, Note_on_c,14,72,80
15,180084, Note_on_c,14,60,80
15,181306, Note_on_c,14,60,0
15,181306, Note_on_c,14,72,0
15,181308, Note_on_c,14,72,80
15,181308, Note_on_c,14,60,80
15,181752, Note_on_c,14,60,0
15,181752, Note_on_c,14,72,0
15,181764, Note_on_c,14,72,80
15,181764, Note_on_c,14,60,80
15,181904, Note_on_c,14,60,0
15,181904, Note_on_c,14,72,0
15,181912, Note_on_c,14,72,80
15,181912, Note_on_c,14,60,80
15,183698, Note_on_c,14,60,0
15,183698, Note_on_c,14,72,0
15,183708, Note_on_c,14,72,80
15,183708, Note_on_c,14,60,80
15,184930, Note_on_c,14,60,0
15,184930, Note_on_c,14,72,0
15,184936, Note_on_c,14,72,80
15,184936, Note_on_c,14,60,80
15,186153, Note_on_c,14,60,0
15,186153, Note_on_c,14,72,0
15,186160, Note_on_c,14,72,80
15,186160, Note_on_c,14,60,80
15,188564, Note_on_c,14,60,0
15,188564, Note_on_c,14,72,0
15,199705, Program_c,14,56,
15,199829, Note_on_c,14,48,80
15,199829, Note_on_c,14,60,80
15,199979, Note_on_c,14,60,0
15,199979, Note_on_c,14,48,0
15,204389, Note_on_c,14,51,80
15,204389, Note_on_c,14,63,80
15,204539, Note_on_c,14,63,0
15,204539, Note_on_c,14,51,0
15,380161, Control_c,14,11,100
15,380614, Note_on_c,14,59,100
15,380614, Note_on_c,14,62,100
15,380764, Note_on_c,14,62,0
15,380764, Note_on_c,14,59,0
15,383278, Note_on_c,14,57,100
15,383278, Note_on_c,14,66,100
15,383428, Note_on_c,14,66,0
15,383428, Note_on_c,14,57,0
15,385920, Note_on_c,14,59,120
15,385920, Note_on_c,14,56,120
15,386070, Note_on_c,14,56,0
15,386070, Note_on_c,14,59,0
15,386566, Note_on_c,14,59,120
15,386566, Note_on_c,14,56,120
15,386716, Note_on_c,14,56,0
15,386716, Note_on_c,14,59,0
15,387194, Note_on_c,14,60,120
15,387194, Note_on_c,14,56,120
15,387344, Note_on_c,14,56,0
15,387344, Note_on_c,14,60,0
15,387850, Note_on_c,14,62,120
15,387850, Note_on_c,14,56,120
15,388000, Note_on_c,14,56,0
15,388000, Note_on_c,14,62,0
15,388522, Note_on_c,14,60,120
15,388522, Note_on_c,14,62,120
15,388672, Note_on_c,14,62,0
15,388672, Note_on_c,14,60,0
15,389290, Note_on_c,14,60,120
15,389290, Note_on_c,14,63,120
15,389440, Note_on_c,14,63,0
15,389440, Note_on_c,14,60,0
15,442753, Control_c,14,11,80
15,445042, Control_c,14,11,81
15,447332, Control_c,14,11,82
15,449621, Control_c,14,11,83
15,451911, Control_c,14,11,84
15,454201, Control_c,14,11,85
15,456490, Control_c,14,11,86
15,458780, Control_c,14,11,87
15,461070, Control_c,14,11,88
15,462047, Note_on_c,14,60,70
15,462047, Note_on_c,14,57,70
15,462677, Note_on_c,14,57,0
15,462677, Note_on_c,14,60,0
15,463359, Control_c,14,11,89
15,465649, Control_c,14,11,90
15,467103, Note_on_c,14,62,80
15,467103, Note_on_c,14,59,80
15,467733, Note_on_c,14,59,0
15,467733, Note_on_c,14,62,0
15,467938, Control_c,14,11,91
15,470228, Control_c,14,11,92
15,470895, Note_on_c,14,52,80
15,470895, Note_on_c,14,64,80
15,471823, Note_on_c,14,64,0
15,471823, Note_on_c,14,52,0
15,471843, Note_on_c,14,52,80
15,471843, Note_on_c,14,64,80
15,472159, Note_on_c,14,52,80
15,472159, Note_on_c,14,64,80
15,472473, Note_on_c,14,64,0
15,472473, Note_on_c,14,52,0
15,472518, Control_c,14,11,93
15,473087, Note_on_c,14,64,0
15,473087, Note_on_c,14,52,0
15,474807, Control_c,14,11,94
15,477097, Control_c,14,11,95
15,478499, Note_on_c,14,67,80
15,478499, Note_on_c,14,55,80
15,479387, Control_c,14,11,96
15,479437, Note_on_c,14,55,0
15,479437, Note_on_c,14,67,0
15,479447, Note_on_c,14,67,80
15,479447, Note_on_c,14,55,80
15,479526, Note_on_c,14,67,80
15,479526, Note_on_c,14,55,80
15,479596, Note_on_c,14,55,0
15,479596, Note_on_c,14,67,0
15,479647, Note_on_c,14,55,0
15,479647, Note_on_c,14,67,0
15,479763, Note_on_c,14,67,80
15,479763, Note_on_c,14,55,80
15,480701, Note_on_c,14,55,0
15,480701, Note_on_c,14,67,0
15,481039, Note_on_c,14,67,80
15,481039, Note_on_c,14,55,80
15,481676, Control_c,14,11,97
15,481977, Note_on_c,14,55,0
15,481977, Note_on_c,14,67,0
15,481987, Note_on_c,14,67,80
15,481987, Note_on_c,14,55,80
15,482066, Note_on_c,14,55,80
15,482066, Note_on_c,14,67,80
15,482136, Note_on_c,14,67,0
15,482136, Note_on_c,14,55,0
15,482187, Note_on_c,14,55,0
15,482187, Note_on_c,14,67,0
15,482303, Note_on_c,14,67,80
15,482303, Note_on_c,14,55,80
15,483241, Note_on_c,14,55,0
15,483241, Note_on_c,14,67,0
15,483577, Note_on_c,14,48,80
15,483577, Note_on_c,14,60,80
15,483966, Control_c,14,11,98
15,484515, Note_on_c,14,60,0
15,484515, Note_on_c,14,48,0
15,484525, Note_on_c,14,48,80
15,484525, Note_on_c,14,60,80
15,484604, Note_on_c,14,48,80
15,484604, Note_on_c,14,60,80
15,484674, Note_on_c,14,60,0
15,484674, Note_on_c,14,48,0
15,484725, Note_on_c,14,60,0
15,484725, Note_on_c,14,48,0
15,484841, Note_on_c,14,48,80
15,484841, Note_on_c,14,60,80
15,485779, Note_on_c,14,60,0
15,485779, Note_on_c,14,48,0
15,486115, Note_on_c,14,48,80
15,486115, Note_on_c,14,60,80
15,486256, Control_c,14,11,99
15,487053, Note_on_c,14,60,0
15,487053, Note_on_c,14,48,0
15,487063, Note_on_c,14,60,80
15,487063, Note_on_c,14,48,80
15,487142, Note_on_c,14,48,80
15,487142, Note_on_c,14,60,80
15,487212, Note_on_c,14,60,0
15,487212, Note_on_c,14,48,0
15,487263, Note_on_c,14,48,0
15,487263, Note_on_c,14,60,0
15,487379, Note_on_c,14,48,80
15,487379, Note_on_c,14,60,80
15,488317, Note_on_c,14,60,0
15,488317, Note_on_c,14,48,0
15,488337, Note_on_c,14,60,80
15,488337, Note_on_c,14,48,80
15,488545, Control_c,14,11,100
15,488647, Note_on_c,14,48,0
15,488647, Note_on_c,14,60,0
15,488653, Note_on_c,14,62,80
15,488653, Note_on_c,14,50,80
15,488963, Note_on_c,14,50,0
15,488963, Note_on_c,14,62,0
15,488969, Note_on_c,14,64,80
15,488969, Note_on_c,14,52,80
15,489279, Note_on_c,14,52,0
15,489279, Note_on_c,14,64,0
15,489285, Note_on_c,14,60,80
15,489285, Note_on_c,14,48,80
15,489595, Note_on_c,14,48,0
15,489595, Note_on_c,14,60,0
15,489601, Note_on_c,14,62,80
15,489601, Note_on_c,14,50,80
15,489911, Note_on_c,14,50,0
15,489911, Note_on_c,14,62,0
15,489917, Note_on_c,14,64,80
15,489917, Note_on_c,14,52,80
15,490227, Note_on_c,14,52,0
15,490227, Note_on_c,14,64,0
15,490243, Note_on_c,14,65,80
15,490243, Note_on_c,14,53,80
15,490553, Note_on_c,14,53,0
15,490553, Note_on_c,14,65,0
15,490559, Note_on_c,14,53,80
15,490559, Note_on_c,14,65,80
15,490559, Note_on_c,14,68,80
15,490835, Control_c,14,11,101
15,490869, Note_on_c,14,68,0
15,490869, Note_on_c,14,65,0
15,490869, Note_on_c,14,53,0
15,491192, Note_on_c,14,56,80
15,491192, Note_on_c,14,60,80
15,491992, Note_on_c,14,60,0
15,491992, Note_on_c,14,56,0
15,492458, Note_on_c,14,56,80
15,492458, Note_on_c,14,62,80
15,493124, Control_c,14,11,102
15,493258, Note_on_c,14,62,0
15,493258, Note_on_c,14,56,0
15,493407, Note_on_c,14,48,80
15,493407, Note_on_c,14,60,80
15,493707, Note_on_c,14,60,0
15,493707, Note_on_c,14,48,0
15,493723, Note_on_c,14,50,80
15,493723, Note_on_c,14,62,80
15,494023, Note_on_c,14,62,0
15,494023, Note_on_c,14,50,0
15,494039, Note_on_c,14,52,80
15,494039, Note_on_c,14,64,80
15,494339, Note_on_c,14,64,0
15,494339, Note_on_c,14,52,0
15,494355, Note_on_c,14,48,80
15,494355, Note_on_c,14,60,80
15,494655, Note_on_c,14,60,0
15,494655, Note_on_c,14,48,0
15,494671, Note_on_c,14,62,80
15,494671, Note_on_c,14,50,80
15,494971, Note_on_c,14,50,0
15,494971, Note_on_c,14,62,0
15,494987, Note_on_c,14,52,80
15,494987, Note_on_c,14,64,80
15,495287, Note_on_c,14,64,0
15,495287, Note_on_c,14,52,0
15,495313, Note_on_c,14,53,80
15,495313, Note_on_c,14,65,80
15,495414, Control_c,14,11,103
15,495613, Note_on_c,14,65,0
15,495613, Note_on_c,14,53,0
15,495629, Note_on_c,14,65,80
15,495629, Note_on_c,14,53,80
15,495929, Note_on_c,14,53,0
15,495929, Note_on_c,14,65,0
15,496262, Note_on_c,14,56,90
15,496262, Note_on_c,14,60,90
15,497062, Note_on_c,14,60,0
15,497062, Note_on_c,14,56,0
15,497528, Note_on_c,14,56,90
15,497528, Note_on_c,14,62,90
15,497704, Control_c,14,11,104
15,498328, Note_on_c,14,62,0
15,498328, Note_on_c,14,56,0
15,498794, Note_on_c,14,62,90
15,498794, Note_on_c,14,56,90
15,499594, Note_on_c,14,56,0
15,499594, Note_on_c,14,62,0
15,499993, Control_c,14,11,105
15,501326, Note_on_c,14,62,90
15,501326, Note_on_c,14,53,90
15,502126, Note_on_c,14,53,0
15,502126, Note_on_c,14,62,0
15,502283, Control_c,14,11,106
15,503858, Note_on_c,14,62,90
15,503858, Note_on_c,14,53,90
15,504573, Control_c,14,11,107
15,504658, Note_on_c,14,53,0
15,504658, Note_on_c,14,62,0
15,506386, Note_on_c,14,62,90
15,506386, Note_on_c,14,53,90
15,506862, Control_c,14,11,108
15,507186, Note_on_c,14,53,0
15,507186, Note_on_c,14,62,0
15,509152, Control_c,14,11,109
15,511442, Control_c,14,11,110
15,511442, Note_on_c,14,58,90
15,511442, Note_on_c,14,63,90
15,511642, Note_on_c,14,63,0
15,511642, Note_on_c,14,58,0
15,587688, Note_on_c,14,53,90
15,587688, Note_on_c,14,56,90
15,587888, Note_on_c,14,56,0
15,587888, Note_on_c,14,53,0
15,588828, Note_on_c,14,54,90
15,588828, Note_on_c,14,59,90
15,589028, Note_on_c,14,59,0
15,589028, Note_on_c,14,54,0
15,589968, Note_on_c,14,53,90
15,589968, Note_on_c,14,59,90
15,590168, Note_on_c,14,59,0
15,590168, Note_on_c,14,53,0
15,591108, Note_on_c,14,54,90
15,591108, Note_on_c,14,59,90
15,591308, Note_on_c,14,59,0
15,591308, Note_on_c,14,54,0
15,618036, Note_on_c,14,61,100
15,618036, Note_on_c,14,64,100
15,618216, Note_on_c,14,64,0
15,618216, Note_on_c,14,61,0
15,619688, Note_on_c,14,61,100
15,619688, Note_on_c,14,65,100
15,619868, Note_on_c,14,65,0
15,619868, Note_on_c,14,61,0
15,747265, Control_c,14,11,90
15,749382, Note_on_c,14,61,90
15,749382, Note_on_c,14,54,90
15,749682, Note_on_c,14,54,0
15,749682, Note_on_c,14,61,0
15,750534, Note_on_c,14,61,90
15,750534, Note_on_c,14,54,90
15,750834, Note_on_c,14,54,0
15,750834, Note_on_c,14,61,0
15,751588, Note_on_c,14,61,90
15,751588, Note_on_c,14,54,90
15,751788, Note_on_c,14,54,0
15,751788, Note_on_c,14,61,0
15,752132, Note_on_c,14,61,90
15,752132, Note_on_c,14,54,90
15,752332, Note_on_c,14,54,0
15,752332, Note_on_c,14,61,0
15,752715, Note_on_c,14,61,90
15,752715, Note_on_c,14,54,90
15,752915, Note_on_c,14,54,0
15,752915, Note_on_c,14,61,0
15,753244, Note_on_c,14,61,90
15,753244, Note_on_c,14,54,90
15,753444, Note_on_c,14,54,0
15,753444, Note_on_c,14,61,0
15,753852, Note_on_c,14,61,90
15,753852, Note_on_c,14,54,90
15,754152, Note_on_c,14,54,0
15,754152, Note_on_c,14,61,0
15,920717, Note_on_c,14,63,90
15,920717, Note_on_c,14,54,90
15,920987, Note_on_c,14,54,0
15,920987, Note_on_c,14,63,0
15,921137, Note_on_c,14,65,90
15,921137, Note_on_c,14,53,90
15,921407, Note_on_c,14,53,0
15,921407, Note_on_c,14,65,0
15,921557, Note_on_c,14,63,90
15,921557, Note_on_c,14,54,90
15,921827, Note_on_c,14,54,0
15,921827, Note_on_c,14,63,0
15,923541, Note_on_c,14,63,90
15,923541, Note_on_c,14,54,90
15,923811, Note_on_c,14,54,0
15,923811, Note_on_c,14,63,0
15,923907, Note_on_c,14,65,90
15,923907, Note_on_c,14,53,90
15,924177, Note_on_c,14,53,0
15,924177, Note_on_c,14,65,0
15,924273, Note_on_c,14,63,90
15,924273, Note_on_c,14,54,90
15,924543, Note_on_c,14,54,0
15,924543, Note_on_c,14,63,0
15,924969, Note_on_c,14,63,90
15,924969, Note_on_c,14,54,90
15,925239, Note_on_c,14,54,0
15,925239, Note_on_c,14,63,0
15,926349, Note_on_c,14,61,90
15,926349, Note_on_c,14,58,90
15,926619, Note_on_c,14,58,0
15,926619, Note_on_c,14,61,0
15,927725, Note_on_c,14,62,90
15,927725, Note_on_c,14,58,90
15,928045, Note_on_c,14,58,0
15,928045, Note_on_c,14,62,0
15,935417, Note_on_c,14,61,90
15,935417, Note_on_c,14,58,90
15,935687, Note_on_c,14,58,0
15,935687, Note_on_c,14,61,0
15,936141, Note_on_c,14,62,90
15,936141, Note_on_c,14,58,90
15,936411, Note_on_c,14,58,0
15,936411, Note_on_c,14,62,0
15,938277, Note_on_c,14,58,90
15,938277, Note_on_c,14,61,90
15,938547, Note_on_c,14,61,0
15,938547, Note_on_c,14,58,0
15,939009, Note_on_c,14,62,90
15,939009, Note_on_c,14,58,90
15,939279, Note_on_c,14,58,0
15,939279, Note_on_c,14,62,0
15,939728, Note_on_c,14,58,90
15,939728, Note_on_c,14,61,90
15,939998, Note_on_c,14,61,0
15,939998, Note_on_c,14,58,0
15,940457, Note_on_c,14,62,90
15,940457, Note_on_c,14,58,90
15,940727, Note_on_c,14,58,0
15,940727, Note_on_c,14,62,0
15,941164, Note_on_c,14,58,90
15,941164, Note_on_c,14,61,90
15,941434, Note_on_c,14,61,0
15,941434, Note_on_c,14,58,0
15,941901, Note_on_c,14,62,90
15,941901, Note_on_c,14,58,90
15,942171, Note_on_c,14,58,0
15,942171, Note_on_c,14,62,0
15,942269, Note_on_c,14,61,90
15,942269, Note_on_c,14,58,90
15,942469, Note_on_c,14,58,0
15,942469, Note_on_c,14,61,0
15,942637, Note_on_c,14,62,90
15,942637, Note_on_c,14,58,90
15,942837, Note_on_c,14,58,0
15,942837, Note_on_c,14,62,0
15,943005, Note_on_c,14,61,90
15,943005, Note_on_c,14,58,90
15,943205, Note_on_c,14,58,0
15,943205, Note_on_c,14,61,0
15,943373, Note_on_c,14,62,90
15,943373, Note_on_c,14,58,90
15,943573, Note_on_c,14,58,0
15,943573, Note_on_c,14,62,0
15,943741, Note_on_c,14,61,90
15,943741, Note_on_c,14,58,90
15,943941, Note_on_c,14,58,0
15,943941, Note_on_c,14,61,0
15,944109, Note_on_c,14,62,90
15,944109, Note_on_c,14,58,90
15,944309, Note_on_c,14,58,0
15,944309, Note_on_c,14,62,0
15,944477, Note_on_c,14,61,90
15,944477, Note_on_c,14,58,90
15,944677, Note_on_c,14,58,0
15,944677, Note_on_c,14,61,0
15,944845, Note_on_c,14,62,90
15,944845, Note_on_c,14,58,90
15,945045, Note_on_c,14,58,0
15,945045, Note_on_c,14,62,0
15,946209, Note_on_c,14,62,90
15,946209, Note_on_c,14,58,90
15,946459, Note_on_c,14,58,0
15,946459, Note_on_c,14,62,0
15,946873, Note_on_c,14,62,90
15,946873, Note_on_c,14,58,90
15,947123, Note_on_c,14,58,0
15,947123, Note_on_c,14,62,0
15,947529, Note_on_c,14,62,90
15,947529, Note_on_c,14,58,90
15,947779, Note_on_c,14,58,0
15,947779, Note_on_c,14,62,0
15,948825, Note_on_c,14,62,90
15,948825, Note_on_c,14,58,90
15,949075, Note_on_c,14,58,0
15,949075, Note_on_c,14,62,0
15,950161, Note_on_c,14,62,90
15,950161, Note_on_c,14,58,90
15,950411, Note_on_c,14,58,0
15,950411, Note_on_c,14,62,0
15,950809, Note_on_c,14,62,90
15,950809, Note_on_c,14,58,90
15,951059, Note_on_c,14,58,0
15,951059, Note_on_c,14,62,0
15,951501, Note_on_c,14,62,90
15,951501, Note_on_c,14,58,90
15,951751, Note_on_c,14,58,0
15,951751, Note_on_c,14,62,0
15,952177, Note_on_c,14,62,90
15,952177, Note_on_c,14,58,90
15,952427, Note_on_c,14,58,0
15,952427, Note_on_c,14,62,0
15,952877, Note_on_c,14,62,90
15,952877, Note_on_c,14,58,90
15,953127, Note_on_c,14,58,0
15,953127, Note_on_c,14,62,0
15,953249, Note_on_c,14,63,90
15,953249, Note_on_c,14,58,90
15,953499, Note_on_c,14,58,0
15,953499, Note_on_c,14,63,0
15,953673, Note_on_c,14,62,90
15,953673, Note_on_c,14,58,90
15,954023, Note_on_c,14,58,0
15,954023, Note_on_c,14,62,0
15,954549, Note_on_c,14,58,90
15,956085, Note_on_c,14,58,0
15,956460, Control_c,14,121,0
15,956460, End_track,,,
